<?xml version="1.0" encoding="UTF-8"?><svg xmlns="http://www.w3.org/2000/svg" xmlns:xlink="http://www.w3.org/1999/xlink" viewBox="0 0 800 716.46"><defs><clipPath id="clippath"><rect x="275.46" y="197.42" width="249.08" height="69.76" style="fill:none;"/></clipPath><clipPath id="clippath-1"><rect x="275.46" y="197.42" width="249.08" height="69.76" style="fill:none;"/></clipPath></defs><g id="Calque_1"><g id="Illustration_3"><g style="clip-path:url(#clippath);"><rect x="364.84" y="244.84" width="85.59" height="22.34" style="fill:#2eac68;"/><g style="clip-path:url(#clippath-1);"><path d="m499.13,238.04c.15-1.16,1.18-1.94,2.37-1.79.92.12,1.69.88,1.75,1.87.13,1.38.23,2.47.33,3.52h14.63c-.22-1.64-.45-3.3-.75-5.48-.09-.74.22-1.48.82-1.84,3.1-2.22,4.98-6.17,5.93-11.42,2.14-11.92-6.62-17.23-17.28-18.45-6.84-.91-10.27-1.33-17.12-2.09-1.23-.14-2.29.66-2.42,1.82-1.36,12.49-2.71,24.98-4.06,37.46h15.34c.14-1.08.28-2.16.46-3.6m-1.42-20.63c2.3.52,3.45.78,5.75,1.31.79-.73,1.9-1.12,3.08-.94,2.02.3,3.43,2.11,3.13,4.04-.29,1.93-2.15,3.25-4.16,2.95-1.16-.17-2.11-.85-2.66-1.77-2.34-.13-3.51-.19-5.85-.29.29-2.12.43-3.18.72-5.29" style="fill:#0b5577;"/><path d="m480.94,234.87c.1-.97-.67-1.9-1.66-2-5.62-.57-8.43-.83-14.05-1.3-1.06-.09-1.85-1-1.76-2.03,0-.08,0-.12.02-.19.08-.97,1.01-1.74,2.07-1.65,4.06.34,6.09.52,10.15.91.99.1,1.94-.66,2.04-1.69.32-3.25.48-4.88.81-8.14.1-.97-.7-1.89-1.71-1.99-4.12-.4-6.18-.58-10.3-.93-1.08-.09-1.89-1-1.8-2.04.08-.97,1.03-1.74,2.11-1.65,5.77.48,8.65.75,14.41,1.34,1.01.1,1.98-.64,2.09-1.68.34-3.3.52-4.96.86-8.26.1-.97-.7-1.9-1.73-2-10.19-.97-20.36-1.81-30.57-2.53-1.1-.07-2.05.72-2.11,1.69-.81,13.23-1.62,26.46-2.43,39.7-.03.45.12.87.36,1.21h32.49c.25-2.39.42-4,.71-6.77" style="fill:#0b5577;"/><path d="m445.3,240.17c-2.27-8.14-3.45-12.2-5.87-20.33-.05-.26-.03-.65.04-.91,2.91-7.31,4.4-10.96,7.44-18.25.4-.95-.3-1.97-1.4-2.03-4.98-.28-7.47-.4-12.46-.6-.69-.03-1.33.4-1.55.98-1.99,5.25-2.97,7.87-4.9,13.13-.22.58-.84,1.01-1.52.99-.88-.03-1.53-.69-1.51-1.54.14-4.95.21-7.43.36-12.39.02-.84-.65-1.51-1.54-1.54-5.12-.14-7.68-.19-12.81-.24-.9,0-1.59.63-1.6,1.48-.12,13.49-.24,26.99-.36,40.48,0,.84.64,1.5,1.49,1.51,4.85.05,7.27.1,12.12.23.85.02,1.52-.61,1.54-1.45.13-4.59.2-6.89.33-11.48.02-.84.71-1.47,1.57-1.45.05,0,.08,0,.13,0,.66.02,1.18.43,1.43,1.02,1.67,5.07,2.48,7.6,4.09,12.68.24.59.74,1,1.39,1.03,1.12.05,2.11.09,3.04.13h10.16c.36-.37.55-.92.4-1.47" style="fill:#0b5577;"/><path d="m375.17,241.32c1.5-.05,2.7-1.32,2.65-2.81-.12-4.1-.19-6.15-.31-10.25-.03-.84.62-1.38,1.35-1.4.46-.01.87.17,1.15.62,3.23,4.82,4.83,7.24,7.97,12.09.47.9,1.39,1.4,2.43,1.39,4.22-.06,6.33-.07,10.55-.07,1.5,0,2.74-1.23,2.75-2.72.05-12.67.09-25.35.14-38.02,0-1.49-1.3-2.73-2.88-2.73-4.08,0-6.12.01-10.19.06-1.58.02-2.87,1.27-2.85,2.77.06,3.74.09,5.6.15,9.34.01.78-.66,1.31-1.4,1.32-.41,0-.88-.18-1.16-.56-3.29-4.53-4.95-6.79-8.33-11.28-.5-.76-1.48-1.25-2.52-1.22-4.46.15-6.69.23-11.15.44-1.58.07-2.83,1.37-2.75,2.86.63,12.66,1.27,25.31,1.9,37.97.06,1.25.99,2.26,2.17,2.52h2.19c2.92-.13,4.82-.21,8.14-.32" style="fill:#0b5577;"/><path d="m358.29,226.23c-.54-9.82-.81-14.73-1.35-24.55-.09-1.68-1.61-2.97-3.4-2.86-3.8.22-5.7.35-9.49.62-1.79.13-3.13,1.59-3,3.28.76,10.14,1.14,15.22,1.9,25.36.21,2.78-1.26,3.54-3.83,3.75-2.57.21-4.21-.3-4.45-3.08-.87-10.14-1.3-15.2-2.17-25.34-.14-1.68-1.7-2.92-3.49-2.75-3.76.34-5.64.52-9.4.9-1.85.19-3.15,1.7-2.97,3.37,1.04,9.88,1.57,14.83,2.61,24.71.56,5.9,3.1,9.75,6.81,12.02h23.94c5.48-2.7,8.96-7.6,8.3-15.41" style="fill:#0b5577;"/><path d="m317.08,233.11c-.33-3.03-.94-6.36-3.84-8-1.22-.69-1.69-2.35-.87-3.49,1.74-2.61,1.68-5.67,1.35-8.64-.79-7.16-6.81-10.14-17.96-8.67-7.12.94-10.67,1.45-17.77,2.54-1.64.25-2.74,1.68-2.5,3.21,1.67,10.52,3.33,21.04,5,31.56h34.46c1.79-2.22,2.52-5.05,2.14-8.53m-23.75,2.16c-.15-3.1-.22-4.64-.36-7.74-1.3-.72-2.25-1.97-2.47-3.51-.38-2.66,1.57-5.13,4.35-5.51,2.78-.38,5.31,1.49,5.65,4.15.2,1.54-.39,3-1.45,4.04.69,3.02,1.03,4.53,1.72,7.56-2.98.39-4.47.59-7.45,1.01" style="fill:#0b5577;"/><path d="m367.03,241.64h-2.2c.23.05.46.08.7.07.53-.02,1.03-.05,1.5-.07" style="fill:#0b5577;"/><path d="m393.75,264.95l-1.74.02-3.14-9.05-3.05,9.07h-1.74s-2.97-13.1-2.97-13.1h-.69c-.34,0-.58-.06-.72-.2-.15-.13-.22-.31-.22-.52,0-.2.07-.37.22-.5.15-.14.38-.2.72-.2h3.87c.34-.02.58.05.72.18.15.13.22.31.22.52,0,.2-.07.37-.22.5-.15.14-.39.2-.72.2h-1.79s2.54,11.17,2.54,11.17l2.97-8.93h1.68s3.12,8.91,3.12,8.91l2.36-11.18h-1.78c-.34,0-.58-.06-.73-.19-.15-.13-.23-.31-.23-.52,0-.2.07-.37.22-.5.14-.14.39-.2.74-.2h3.86c.35-.02.59.05.74.18.15.13.22.31.22.52,0,.2-.07.37-.22.5-.15.14-.39.2-.74.2h-.67s-2.82,13.11-2.82,13.11Z" style="fill:#fff;"/><path d="m417.1,257.94l-14.36.05c.25,1.82,1.02,3.29,2.31,4.39,1.29,1.11,2.87,1.66,4.76,1.65,1.05,0,2.15-.18,3.3-.53,1.15-.35,2.09-.81,2.81-1.39.21-.17.4-.25.55-.25.18,0,.34.07.47.21.13.14.2.31.2.5,0,.19-.09.37-.27.55-.54.56-1.49,1.09-2.85,1.58-1.37.49-2.77.74-4.22.75-2.42,0-4.43-.77-6.05-2.35-1.62-1.57-2.44-3.49-2.45-5.73,0-2.05.74-3.8,2.25-5.28,1.51-1.47,3.38-2.21,5.62-2.22,2.3,0,4.2.74,5.69,2.24,1.49,1.5,2.23,3.44,2.22,5.84m-1.43-1.42c-.28-1.55-1.03-2.81-2.22-3.78-1.19-.97-2.61-1.45-4.26-1.44-1.64,0-3.06.49-4.24,1.46-1.18.97-1.91,2.24-2.2,3.82l12.92-.05Z" style="fill:#fff;"/><path d="m424.73,243.78l.04,9.34c1.69-2.22,3.74-3.34,6.14-3.34,2.06,0,3.82.73,5.29,2.22,1.47,1.49,2.21,3.32,2.22,5.49,0,2.19-.73,4.05-2.2,5.58-1.48,1.53-3.23,2.29-5.25,2.3-2.46,0-4.52-1.09-6.17-3.3v2.77s-3.29.01-3.29.01c-.34,0-.58-.06-.72-.2-.15-.13-.22-.3-.22-.5,0-.21.07-.38.22-.51.14-.13.38-.19.72-.2h1.9s-.07-18.22-.07-18.22h-1.9c-.34,0-.58-.06-.72-.19-.15-.13-.22-.31-.22-.52,0-.2.07-.37.22-.5.15-.13.39-.2.72-.2h3.3Zm12.28,13.78c0-1.78-.62-3.28-1.85-4.51-1.22-1.23-2.65-1.84-4.28-1.84-1.63,0-3.06.63-4.27,1.87-1.21,1.24-1.82,2.75-1.81,4.53,0,1.78.62,3.28,1.85,4.51,1.22,1.23,2.65,1.84,4.28,1.84,1.63,0,3.06-.63,4.27-1.87,1.21-1.24,1.82-2.75,1.81-4.53" style="fill:#fff;"/></g></g></g><path d="m341.17,122.91c.1-.52.18-1.05.32-1.57,1.15-4.41,5.18-7.44,9.78-7.39,2.14.02,4.07.65,5.79,1.92.08.06.17.11.34.23,0-.23,0-.38,0-.53,0-2.73,0-5.45,0-8.18,0-1.42,1.09-2.27,2.4-1.91.81.23,1.32.9,1.32,1.8,0,2.77,0,5.54,0,8.31,0,2.83.02,5.66,0,8.49-.04,4.51-3.09,8.37-7.46,9.5-5.69,1.47-11.44-2.27-12.37-8.06-.03-.19-.07-.37-.11-.56,0-.69,0-1.37,0-2.06Zm16.22.97c-.01-3.41-2.83-6.22-6.25-6.22-3.44,0-6.25,2.81-6.24,6.26.01,3.49,2.8,6.25,6.3,6.23,3.4-.02,6.2-2.85,6.18-6.27Z" style="fill:#2496ed;"/><path d="m409.56,33.25c.35.22.46.53.46.94-.02,2.19,0,4.37,0,6.56,0,.72-.21.93-.93.94-2.48,0-4.97,0-7.45,0-.72,0-.92-.21-.92-.94,0-2.19,0-4.37,0-6.56,0-.41.11-.72.46-.94h8.4Z" style="fill:#2496ed;"/><path d="m428.56,62.15c-3.78-6.11-1.09-13.14,1.68-16.47,3.01,1.4,6.81,4.88,7.7,10.22,1.02-.08,2.03-.2,3.05-.25,2.04-.09,4.04.14,5.98.83,1.01.36,1.9.91,2.72,1.59.23.19.14.35.08.54-1.15,3.47-3.52,5.8-6.82,7.25-2.05.9-4.23,1.2-6.46,1.15-.37,0-.51.12-.64.44-1.76,4.44-3.86,8.7-6.65,12.6-5.38,7.51-12.55,12.51-21.35,15.22-6.2,1.91-12.56,2.54-19.02,2.28-3.96-.16-7.84-.73-11.66-1.83-6.51-1.87-10.92-6.08-13.66-12.17-1.64-3.65-2.63-7.49-3.04-11.47-.18-1.75-.22-3.5-.33-5.26-.11-1.88,1.32-3.13,3.1-3.13,19.49.03,38.98.02,58.46,0,2.19,0,4.32-.43,6.34-1.3.16-.07.32-.15.5-.25Z" style="fill:#2496ed;"/><path d="m425.74,125.9c.3.55.56,1.14.92,1.65,2.15,3.04,6.5,3.51,9.27,1.03.87-.78,1.99-.77,2.71.01.71.78.63,1.99-.21,2.76-2.11,1.92-4.61,2.72-7.43,2.52-4.34-.31-7.99-3.45-8.96-7.67-1.3-5.63,2.4-11.17,8.09-12.12,5.45-.91,10.65,2.82,11.51,8.27.06.41.1.83.11,1.24.04,1.47-.65,2.18-2.12,2.18-3.6,0-7.21,0-10.81,0h-2.95s-.08.08-.12.12Zm11.98-3.83c-.55-2.66-3.73-4.69-6.72-4.34-2.43.28-5.2,2.62-5.13,4.34h11.85Z" style="fill:#2496ed;"/><path d="m407.8,121.14c.24-.15.39-.24.53-.34,3.33-2.17,6.66-4.33,10-6.49,1.29-.83,2.85-.13,2.98,1.34.07.74-.21,1.32-.86,1.74-2.29,1.47-4.57,2.96-6.86,4.44-.13.09-.26.18-.43.3.57.65,1.12,1.27,1.67,1.89,1.96,2.2,3.92,4.41,5.88,6.61.53.59.76,1.24.49,2.01-.49,1.36-2.17,1.7-3.14.61-2.59-2.9-5.17-5.8-7.76-8.7-.11-.12-.22-.24-.34-.37-.67.44-1.32.84-1.95,1.29-.13.09-.21.34-.21.52-.01,1.98,0,3.96-.01,5.94,0,1.03-.62,1.77-1.57,1.93-1.04.18-2.05-.61-2.13-1.66-.01-.18-.01-.36-.01-.54,0-8.01,0-16.02,0-24.04,0-.28,0-.57.06-.84.2-.87,1.08-1.47,1.99-1.38.89.09,1.6.81,1.66,1.7.01.21.01.42.01.63,0,4.29,0,8.58,0,12.87,0,.15,0,.29,0,.54Z" style="fill:#2496ed;"/><path d="m373.03,113.95c5.59.02,10,4.45,9.97,10.04-.03,5.51-4.49,9.92-10.03,9.9-5.55-.02-9.94-4.47-9.91-10.05.02-5.53,4.44-9.9,9.97-9.89Zm6.23,9.97c0-3.44-2.81-6.26-6.24-6.26-3.42,0-6.22,2.79-6.25,6.22-.03,3.44,2.78,6.27,6.22,6.27,3.45,0,6.26-2.79,6.27-6.23Z" style="fill:#2496ed;"/><path d="m384.88,123.88c0-5.57,4.44-9.96,10.02-9.94,2.4,0,4.52.77,6.36,2.33.66.56.88,1.27.65,2.08-.34,1.22-1.84,1.68-2.91.91-.41-.29-.81-.62-1.25-.86-2.17-1.13-4.32-1.02-6.35.31-2,1.31-2.95,3.24-2.78,5.64.18,2.49,1.48,4.29,3.76,5.27,2.28.98,4.45.66,6.41-.9.9-.71,2.11-.63,2.76.18.66.82.5,1.95-.37,2.7-3.66,3.18-10.03,3.24-13.83-1.11-1.66-1.9-2.48-4.1-2.47-6.62Z" style="fill:#2496ed;"/><path d="m447.47,115.99c.95-.49,1.84-1.05,2.8-1.42,2.21-.85,4.48-.84,6.74-.15.38.11.74.32,1.06.56.78.57.98,1.51.53,2.34-.46.85-1.37,1.2-2.28.85-1.69-.64-3.38-.73-5.04.01-2.44,1.1-3.73,3.04-3.79,5.72-.05,2.71,0,5.42-.02,8.13,0,1.27-1.13,2.12-2.35,1.79-.72-.2-1.17-.68-1.32-1.42-.04-.22-.05-.44-.05-.67,0-5.21,0-10.42,0-15.63,0-.57.08-1.1.49-1.53.53-.57,1.32-.77,2.04-.5.7.26,1.17.9,1.2,1.67,0,.1,0,.21,0,.27Z" style="fill:#2496ed;"/><path d="m394.4,51.84c-1.25,0-2.5,0-3.75,0-.65,0-.9-.24-.9-.88,0-2.23,0-4.46,0-6.7,0-.63.24-.86.88-.86,2.53,0,5.06,0,7.59,0,.62,0,.85.24.86.88,0,2.23,0,4.46,0,6.7,0,.62-.25.87-.87.87-1.26,0-2.53,0-3.79,0Z" style="fill:#2496ed;"/><path d="m383.28,51.84c-1.24,0-2.47,0-3.71,0-.67,0-.91-.24-.91-.92,0-2.2,0-4.4,0-6.61,0-.7.22-.92.9-.92,2.51,0,5.03,0,7.54,0,.63,0,.86.24.86.87,0,2.23,0,4.46,0,6.7,0,.65-.25.88-.9.88-1.26,0-2.53,0-3.79,0Z" style="fill:#2496ed;"/><path d="m405.36,51.84c-1.25,0-2.5,0-3.75,0-.68,0-.91-.23-.91-.91,0-2.2,0-4.4,0-6.61,0-.69.22-.92.9-.92,2.5,0,5,0,7.5,0,.69,0,.91.22.91.91,0,2.2,0,4.4,0,6.61,0,.7-.23.92-.94.92-1.24,0-2.47,0-3.71,0Z" style="fill:#2496ed;"/><path d="m383.32,53.54c1.27,0,2.53,0,3.8,0,.6,0,.86.24.86.83,0,2.25,0,4.5,0,6.75,0,.63-.24.85-.88.85-2.52,0-5.04,0-7.55,0-.66,0-.88-.23-.88-.9,0-2.2,0-4.41,0-6.61,0-.71.23-.92.95-.92,1.24,0,2.47,0,3.71,0Z" style="fill:#2496ed;"/><path d="m394.42,53.54c1.25,0,2.5,0,3.75,0,.65,0,.89.23.89.89,0,2.22,0,4.43,0,6.65,0,.67-.23.89-.88.9-2.51,0-5.03,0-7.54,0-.66,0-.89-.23-.89-.89,0-2.22,0-4.43,0-6.65,0-.67.24-.9.93-.9,1.25,0,2.5,0,3.75,0Z" style="fill:#2496ed;"/><path d="m416.43,53.54c1.25,0,2.5,0,3.75,0,.62,0,.87.24.87.86,0,2.23,0,4.47,0,6.7,0,.63-.24.87-.87.87-2.53,0-5.07,0-7.6,0-.61,0-.85-.23-.85-.84,0-2.25,0-4.5,0-6.75,0-.62.25-.85.89-.85,1.27,0,2.53,0,3.8,0Z" style="fill:#2496ed;"/><path d="m372.37,53.54c1.27,0,2.53,0,3.8,0,.65,0,.89.23.89.88,0,2.22,0,4.44,0,6.66,0,.67-.22.89-.88.89-2.52,0-5.04,0-7.55,0-.64,0-.87-.23-.87-.86,0-2.23,0-4.47,0-6.7,0-.63.25-.87.87-.87,1.25,0,2.5,0,3.75,0Z" style="fill:#2496ed;"/><path d="m405.38,53.54c1.24,0,2.47,0,3.71,0,.69,0,.92.22.92.9,0,2.22,0,4.43,0,6.65,0,.65-.23.89-.88.89-2.52,0-5.03,0-7.55,0-.65,0-.87-.23-.88-.9,0-2.22,0-4.43,0-6.65,0-.65.23-.89.88-.89,1.26,0,2.53,0,3.79,0Z" style="fill:#2496ed;"/><path d="m451.96,133.75c-.74,0-1.32-.56-1.32-1.28,0-.72.58-1.28,1.32-1.28.74,0,1.32.56,1.32,1.28,0,.72-.57,1.28-1.32,1.28Zm0-.28c.56,0,.97-.42.97-1,0-.58-.4-1.01-.96-1.02-.56,0-1.02.46-1.01,1.03.01.56.44.99,1,.99Z" style="fill:#2496ed;"/><path d="m452.44,133.17c-.19-.19-.38-.39-.64-.66-.03.2-.03.26-.05.32-.04.1-.1.2-.16.3-.05-.11-.12-.22-.13-.33-.02-.3,0-.59,0-.97.24,0,.45-.02.67,0,.36.04.41.21.32.55-.06.21.04.47.07.71l-.07.08Z" style="fill:#2496ed;"/><rect x="231.92" y="176.02" width="336.17" height="109.21" rx="14.3" ry="14.3" style="fill:none; stroke:#0b5577; stroke-miterlimit:10;"/><line x1="34.25" y1="234.13" x2="232.9" y2="234.13" style="fill:none; stroke:#e52139; stroke-miterlimit:10; stroke-width:2px;"/><path d="m34.68,241.65c-4.15,0-7.52-3.37-7.52-7.52s3.37-7.52,7.52-7.52,7.52,3.37,7.52,7.52-3.37,7.52-7.52,7.52Z" style="fill:#fff;"/><path d="m34.68,242.65c4.7,0,8.52-3.82,8.52-8.52s-3.82-8.52-8.52-8.52-8.52,3.82-8.52,8.52,3.82,8.52,8.52,8.52-4.7,0,0,0Zm0-15.04c3.6,0,6.52,2.92,6.52,6.52s-2.92,6.52-6.52,6.52-6.52-2.92-6.52-6.52,2.92-6.52,6.52-6.52-3.6,0,0,0Z" style="fill:#e52139;"/><path d="m232.48,241.65c4.15,0,7.52-3.37,7.52-7.52s-3.37-7.52-7.52-7.52-7.52,3.37-7.52,7.52,3.37,7.52,7.52,7.52Z" style="fill:#fff;"/><path d="m232.48,242.65c-4.7,0-8.52-3.82-8.52-8.52s3.82-8.52,8.52-8.52,8.52,3.82,8.52,8.52-3.82,8.52-8.52,8.52,4.7,0,0,0Zm0-15.04c-3.6,0-6.52,2.92-6.52,6.52s2.92,6.52,6.52,6.52,6.52-2.92,6.52-6.52-2.92-6.52-6.52-6.52,3.6,0,0,0Z" style="fill:#e52139;"/><path d="m49.59,192.79v5.83h1.31c.35,0,.61.07.76.2.15.13.23.35.23.64s-.08.52-.23.66-.41.21-.76.21h-4.64c-.35,0-.61-.07-.76-.2-.15-.14-.23-.36-.23-.66s.08-.52.23-.65c.15-.13.41-.2.77-.2h1.31v-5.83h-1.31c-.35,0-.61-.07-.76-.2-.15-.14-.23-.35-.23-.66s.08-.53.23-.66c.15-.13.41-.2.77-.2h4.64c.37,0,.63.07.77.2.15.13.22.35.22.66s-.08.52-.23.66c-.15.14-.41.2-.77.2h-1.31Z" style="fill:#e52139;"/><path d="m61.47,198.6h.1c.29,0,.51.07.66.21.15.14.22.36.22.64,0,.31-.07.53-.22.66s-.4.2-.75.2h-1.92c-.35,0-.6-.07-.75-.2-.15-.14-.23-.36-.23-.66,0-.29.07-.5.22-.64s.37-.21.67-.21h.09v-2.26c0-.62-.09-1.07-.26-1.33-.17-.26-.46-.39-.87-.39-.43,0-.79.16-1.06.47s-.41.73-.41,1.25v2.26h.09c.3,0,.52.07.66.21.15.14.22.36.22.64,0,.31-.08.53-.23.66-.15.14-.4.2-.75.2h-1.94c-.35,0-.6-.07-.75-.2-.15-.14-.23-.36-.23-.66,0-.29.07-.5.22-.64.15-.14.37-.21.66-.21h.09v-3.78h-.13c-.28,0-.5-.07-.64-.21-.15-.14-.22-.35-.22-.63,0-.31.08-.53.23-.66.15-.14.41-.2.77-.2h1.33c.15,0,.26.03.33.09.08.06.11.14.11.25v.61c.24-.38.55-.66.92-.85.37-.19.8-.29,1.29-.29.83,0,1.45.25,1.86.76.41.5.61,1.28.61,2.31v2.61Z" style="fill:#e52139;"/><path d="m70.11,193.53c.06-.2.16-.36.29-.46s.3-.15.51-.15c.28,0,.48.08.6.25.12.17.18.46.18.88v1.28c0,.32-.07.55-.2.7-.13.15-.33.23-.6.23-.19,0-.35-.04-.48-.13-.13-.09-.27-.26-.41-.51-.21-.35-.48-.62-.82-.79-.34-.17-.75-.25-1.24-.25-.61,0-1.11.2-1.5.6-.39.4-.58.91-.58,1.53,0,.65.2,1.17.6,1.57.4.4.94.59,1.62.59.61,0,1.23-.17,1.83-.51.61-.34.98-.51,1.11-.51.19,0,.35.07.48.22.13.15.19.33.19.56,0,.49-.37.93-1.11,1.31s-1.62.58-2.64.58c-1.26,0-2.29-.35-3.07-1.06s-1.18-1.62-1.18-2.73.39-2,1.17-2.72,1.77-1.09,2.95-1.09c.4,0,.79.05,1.17.15.38.1.76.25,1.13.46Z" style="fill:#e52139;"/><path d="m77.39,192.94c1.27,0,2.29.35,3.08,1.06.79.71,1.18,1.62,1.18,2.73s-.39,2.03-1.18,2.73c-.79.71-1.81,1.06-3.08,1.06s-2.28-.35-3.07-1.06c-.79-.71-1.18-1.62-1.18-2.73s.39-2.02,1.18-2.73,1.81-1.06,3.07-1.06Zm0,1.65c-.61,0-1.11.2-1.5.6-.39.4-.59.91-.59,1.53s.2,1.14.59,1.55c.39.41.89.61,1.5.61s1.11-.2,1.51-.61c.4-.41.59-.93.59-1.55s-.2-1.13-.59-1.53c-.39-.4-.9-.6-1.51-.6Z" style="fill:#e52139;"/><path d="m87.49,193.64c.22-.23.47-.41.76-.54.29-.12.59-.18.92-.18.71,0,1.22.21,1.53.63s.47,1.12.47,2.11v2.96h.11c.24,0,.43.07.55.21.12.14.18.35.18.63,0,.31-.06.54-.19.67-.13.13-.35.2-.65.2h-1.33c-.14,0-.25-.03-.33-.09s-.12-.14-.12-.25v-4.41c0-.35-.05-.61-.16-.78s-.27-.26-.48-.26c-.26,0-.46.12-.61.35-.14.23-.21.56-.21,1v2.73h.12c.24,0,.42.07.55.21s.19.35.19.63c0,.31-.07.54-.2.67-.13.13-.35.2-.66.2h-1.33c-.14,0-.25-.03-.34-.09-.08-.06-.12-.14-.12-.25v-4.41c0-.35-.05-.61-.16-.78-.1-.17-.26-.26-.47-.26-.26,0-.46.12-.61.35s-.22.57-.22.99v2.73h.12c.24,0,.43.07.55.21.12.14.18.35.18.63,0,.31-.07.54-.2.67-.13.13-.35.2-.66.2h-1.77c-.3,0-.52-.07-.65-.2s-.2-.36-.2-.66c0-.28.06-.49.18-.63s.31-.21.55-.21h.11v-3.8h-.11c-.25,0-.43-.07-.56-.22s-.19-.36-.19-.64c0-.3.07-.52.2-.65s.35-.2.66-.2h1.05c.21,0,.36.04.43.13.08.09.11.25.11.5.19-.27.42-.47.7-.61.27-.14.57-.21.91-.21.3,0,.56.06.79.18.22.12.42.3.59.54Z" style="fill:#e52139;"/><path d="m97.69,198.62h1.68c.36,0,.61.07.77.2.15.13.23.35.23.65s-.08.53-.23.66c-.15.14-.41.2-.76.2h-5.28c-.35,0-.61-.07-.76-.2-.15-.14-.23-.36-.23-.66s.07-.52.22-.65.4-.2.77-.2h1.68v-3.8h-.88c-.35,0-.6-.07-.75-.2-.15-.13-.23-.35-.23-.66s.07-.53.22-.66c.15-.13.4-.2.76-.2h2.35c.15,0,.26.03.34.09s.12.14.12.25v5.17Zm-1.12-9.04c.38,0,.63.07.76.22s.19.5.19,1.05-.06.86-.17.99c-.11.13-.38.19-.79.19s-.67-.06-.79-.18-.18-.36-.18-.72c0-.67.06-1.09.18-1.27.12-.18.39-.27.8-.27Z" style="fill:#e52139;"/><path d="m109.48,198.6h.1c.29,0,.51.07.66.21.15.14.22.36.22.64,0,.31-.07.53-.22.66s-.4.2-.75.2h-1.92c-.35,0-.6-.07-.75-.2-.15-.14-.23-.36-.23-.66,0-.29.07-.5.22-.64s.37-.21.67-.21h.09v-2.26c0-.62-.09-1.07-.26-1.33-.17-.26-.46-.39-.87-.39-.43,0-.79.16-1.06.47s-.41.73-.41,1.25v2.26h.09c.3,0,.52.07.66.21.15.14.22.36.22.64,0,.31-.08.53-.23.66-.15.14-.4.2-.75.2h-1.94c-.35,0-.6-.07-.75-.2-.15-.14-.23-.36-.23-.66,0-.29.07-.5.22-.64.15-.14.37-.21.66-.21h.09v-3.78h-.13c-.28,0-.5-.07-.64-.21-.15-.14-.22-.35-.22-.63,0-.31.08-.53.23-.66.15-.14.41-.2.77-.2h1.33c.15,0,.26.03.33.09.08.06.11.14.11.25v.61c.24-.38.55-.66.92-.85.37-.19.8-.29,1.29-.29.83,0,1.45.25,1.86.76.41.5.61,1.28.61,2.31v2.61Z" style="fill:#e52139;"/><path d="m117.4,193.84v-.41c0-.1.04-.18.11-.24.08-.05.19-.08.34-.08h1.27c.36,0,.61.07.76.2.15.13.22.35.22.65,0,.28-.07.5-.21.64-.14.15-.35.22-.63.22h-.13v5.38c0,1.14-.31,1.97-.93,2.48-.62.52-1.61.77-2.98.77-.85,0-1.47-.08-1.87-.25s-.6-.43-.6-.79c0-.25.08-.45.24-.61.16-.16.38-.23.64-.23.07,0,.29.02.67.07.38.05.73.07,1.05.07.74,0,1.26-.14,1.54-.42.28-.28.43-.79.43-1.52v-.35c-.37.21-.74.37-1.1.47-.36.1-.74.15-1.13.15-1.05,0-1.9-.33-2.57-.98s-1-1.49-1-2.52.35-1.93,1.04-2.61,1.58-1.02,2.67-1.02c.47,0,.88.07,1.23.22.35.15.66.38.92.69Zm-1.94.73c-.51,0-.93.18-1.27.55s-.5.84-.5,1.41.17,1.03.5,1.39.76.55,1.27.55.94-.18,1.28-.55.5-.83.5-1.39-.17-1.04-.5-1.41-.76-.55-1.28-.55Z" style="fill:#e52139;"/><path d="m134.46,193.55h2.38c.36,0,.61.07.77.2.15.13.23.35.23.65s-.08.53-.23.66c-.15.14-.41.2-.76.2h-2.38v2c0,.56.09.95.26,1.16s.47.31.91.31c.41,0,.89-.12,1.44-.35.55-.23.92-.35,1.11-.35.21,0,.4.08.55.25.15.17.23.37.23.61,0,.4-.36.77-1.09,1.1s-1.55.5-2.47.5c-.54,0-1.01-.07-1.41-.22s-.73-.35-.96-.62c-.17-.21-.29-.46-.37-.75-.07-.29-.11-.78-.11-1.46v-2.17h-.73c-.35,0-.61-.07-.75-.2s-.22-.36-.22-.66.07-.52.22-.65c.15-.13.4-.19.76-.19h.73v-1.83c0-.36.07-.61.22-.76s.39-.22.74-.22.59.07.74.22.22.4.22.76v1.83Z" style="fill:#e52139;"/><path d="m144.25,196.09v2.53h1.84c.35,0,.61.07.75.2s.22.35.22.65-.07.53-.22.66-.4.2-.75.2h-4.37c-.36,0-.61-.07-.77-.2-.15-.14-.23-.36-.23-.66s.07-.52.22-.65c.15-.13.41-.2.77-.2h.6v-3.8h-.34c-.36,0-.61-.07-.76-.2-.15-.13-.22-.35-.22-.66s.07-.53.21-.66c.14-.13.4-.2.76-.2h1.66c.14,0,.25.03.33.09s.12.14.12.25v1.16c.57-.61,1.1-1.04,1.59-1.3s1.02-.39,1.59-.39c.52,0,.92.12,1.23.35.3.23.45.54.45.93,0,.3-.1.55-.31.75-.21.2-.48.29-.8.29-.23,0-.51-.09-.83-.26s-.54-.26-.67-.26c-.25,0-.54.11-.88.34-.34.22-.74.57-1.2,1.04Z" style="fill:#e52139;"/><path d="m157.39,198.62h.12c.28,0,.5.07.64.22s.22.36.22.64c0,.3-.08.52-.23.65-.15.13-.41.2-.76.2h-.73c-.26,0-.45-.05-.58-.15-.13-.1-.23-.28-.32-.54-.43.29-.89.5-1.38.66s-.97.23-1.47.23c-.84,0-1.5-.21-1.98-.62-.48-.42-.72-.99-.72-1.71,0-.78.31-1.39.93-1.82.62-.43,1.49-.65,2.61-.65.25,0,.52.01.8.04s.6.07.95.12v-.15c0-.47-.11-.83-.34-1.07s-.56-.37-1-.37c-.34,0-.78.13-1.32.38-.53.25-.93.38-1.18.38s-.44-.07-.59-.21c-.15-.14-.23-.33-.23-.57,0-.42.31-.76.93-1s1.46-.37,2.52-.37,1.9.21,2.38.64c.48.43.72,1.15.72,2.17v2.9Zm-1.89-1.51c-.26-.06-.5-.1-.72-.13s-.42-.04-.61-.04c-.57,0-1.02.1-1.35.29-.33.19-.49.46-.49.8,0,.3.1.53.31.69.21.16.51.24.9.24.36,0,.7-.05,1.02-.16.32-.1.63-.27.94-.48v-1.2Z" style="fill:#e52139;"/><path d="m164.3,193.34h1.68c.36,0,.61.07.77.2.15.13.23.35.23.65s-.08.52-.23.66c-.15.14-.41.2-.76.2h-1.68v3.57h1.55c.36,0,.61.07.77.2.15.13.23.35.23.65s-.08.53-.23.66c-.15.14-.41.2-.76.2h-4.3c-.36,0-.61-.07-.77-.2-.15-.14-.23-.36-.23-.66s.07-.52.22-.65.4-.2.77-.2h.83v-3.57h-.83c-.36,0-.61-.07-.77-.2-.15-.14-.23-.35-.23-.66s.07-.53.22-.66.4-.2.77-.2h.83v-.45c0-1.02.26-1.75.79-2.18.53-.43,1.42-.64,2.69-.64.66,0,1.14.08,1.45.23.31.16.46.4.46.73,0,.22-.07.39-.21.52-.14.13-.32.2-.56.2-.17,0-.42-.02-.73-.07-.32-.05-.54-.07-.66-.07-.48,0-.82.11-1.02.32s-.29.6-.29,1.14v.26Z" style="fill:#e52139;"/><path d="m173.9,193.34h1.68c.36,0,.61.07.77.2.15.13.23.35.23.65s-.08.52-.23.66c-.15.14-.41.2-.76.2h-1.68v3.57h1.55c.36,0,.61.07.77.2.15.13.23.35.23.65s-.08.53-.23.66c-.15.14-.41.2-.76.2h-4.3c-.36,0-.61-.07-.77-.2-.15-.14-.23-.36-.23-.66s.07-.52.22-.65.4-.2.77-.2h.83v-3.57h-.83c-.36,0-.61-.07-.77-.2-.15-.14-.23-.35-.23-.66s.07-.53.22-.66.4-.2.77-.2h.83v-.45c0-1.02.26-1.75.79-2.18.53-.43,1.42-.64,2.69-.64.66,0,1.14.08,1.45.23.31.16.46.4.46.73,0,.22-.07.39-.21.52-.14.13-.32.2-.56.2-.17,0-.42-.02-.73-.07-.32-.05-.54-.07-.66-.07-.48,0-.82.11-1.02.32s-.29.6-.29,1.14v.26Z" style="fill:#e52139;"/><path d="m184.1,198.62h1.68c.36,0,.61.07.77.2.15.13.23.35.23.65s-.08.53-.23.66c-.15.14-.41.2-.76.2h-5.28c-.35,0-.61-.07-.76-.2-.15-.14-.23-.36-.23-.66s.07-.52.22-.65.4-.2.77-.2h1.68v-3.8h-.88c-.35,0-.6-.07-.75-.2-.15-.13-.23-.35-.23-.66s.07-.53.22-.66c.15-.13.4-.2.76-.2h2.35c.15,0,.26.03.34.09s.12.14.12.25v5.17Zm-1.12-9.04c.38,0,.63.07.76.22s.19.5.19,1.05-.06.86-.17.99c-.11.13-.38.19-.79.19s-.67-.06-.79-.18-.18-.36-.18-.72c0-.67.06-1.09.18-1.27.12-.18.39-.27.8-.27Z" style="fill:#e52139;"/><path d="m194.93,193.53c.06-.2.16-.36.29-.46s.3-.15.51-.15c.28,0,.48.08.6.25.12.17.18.46.18.88v1.28c0,.32-.07.55-.2.7-.13.15-.33.23-.6.23-.19,0-.35-.04-.48-.13-.13-.09-.27-.26-.41-.51-.21-.35-.48-.62-.82-.79-.34-.17-.75-.25-1.24-.25-.61,0-1.11.2-1.5.6-.39.4-.58.91-.58,1.53,0,.65.2,1.17.6,1.57.4.4.94.59,1.62.59.61,0,1.23-.17,1.83-.51.61-.34.98-.51,1.11-.51.19,0,.35.07.48.22.13.15.19.33.19.56,0,.49-.37.93-1.11,1.31s-1.62.58-2.64.58c-1.26,0-2.29-.35-3.07-1.06s-1.18-1.62-1.18-2.73.39-2,1.17-2.72,1.77-1.09,2.95-1.09c.4,0,.79.05,1.17.15.38.1.76.25,1.13.46Z" style="fill:#e52139;"/><polyline points="115.18 223.5 125.56 233.88 115.65 243.78" style="fill:none; stroke:#e52139; stroke-miterlimit:10; stroke-width:2px;"/><line x1="569.38" y1="234.13" x2="768.03" y2="234.13" style="fill:none; stroke:#24a7e0; stroke-miterlimit:10; stroke-width:2px;"/><path d="m569.81,241.65c-4.15,0-7.52-3.37-7.52-7.52s3.37-7.52,7.52-7.52,7.52,3.37,7.52,7.52-3.37,7.52-7.52,7.52Z" style="fill:#fff;"/><path d="m569.81,242.65c4.7,0,8.52-3.82,8.52-8.52s-3.82-8.52-8.52-8.52-8.52,3.82-8.52,8.52,3.82,8.52,8.52,8.52-4.7,0,0,0Zm0-15.04c3.6,0,6.52,2.92,6.52,6.52s-2.92,6.52-6.52,6.52-6.52-2.92-6.52-6.52,2.92-6.52,6.52-6.52-3.6,0,0,0Z" style="fill:#24a7e0;"/><path d="m767.61,241.65c4.15,0,7.52-3.37,7.52-7.52s-3.37-7.52-7.52-7.52-7.52,3.37-7.52,7.52,3.37,7.52,7.52,7.52Z" style="fill:#fff;"/><path d="m767.61,242.65c-4.7,0-8.52-3.82-8.52-8.52s3.82-8.52,8.52-8.52,8.52,3.82,8.52,8.52-3.82,8.52-8.52,8.52,4.7,0,0,0Zm0-15.04c-3.6,0-6.52,2.92-6.52,6.52s2.92,6.52,6.52,6.52,6.52-2.92,6.52-6.52-2.92-6.52-6.52-6.52,3.6,0,0,0Z" style="fill:#24a7e0;"/><path d="m609.62,192.79v5.83h1.31c.35,0,.61.07.76.2s.23.35.23.64-.08.52-.23.66-.41.21-.76.21h-4.64c-.35,0-.61-.07-.76-.2s-.23-.36-.23-.66.08-.52.23-.65.41-.2.77-.2h1.31v-5.83h-1.31c-.35,0-.61-.07-.76-.2s-.23-.35-.23-.66.08-.53.23-.66.41-.2.77-.2h4.64c.37,0,.63.07.77.2s.22.35.22.66-.08.52-.23.66-.41.2-.77.2h-1.31Z" style="fill:#24a7e0;"/><path d="m621.49,198.6h.1c.29,0,.51.07.66.21s.22.36.22.64c0,.31-.07.53-.22.66s-.4.2-.75.2h-1.92c-.35,0-.6-.07-.75-.2s-.23-.36-.23-.66c0-.29.07-.5.22-.64s.37-.21.67-.21h.09v-2.26c0-.62-.09-1.07-.26-1.33s-.46-.39-.87-.39c-.43,0-.79.16-1.06.47s-.41.73-.41,1.25v2.26h.09c.3,0,.52.07.66.21s.22.36.22.64c0,.31-.08.53-.23.66s-.4.2-.75.2h-1.94c-.35,0-.6-.07-.75-.2s-.23-.36-.23-.66c0-.29.07-.5.22-.64s.37-.21.66-.21h.09v-3.78h-.13c-.28,0-.5-.07-.64-.21s-.22-.35-.22-.63c0-.31.08-.53.23-.66s.41-.2.77-.2h1.33c.15,0,.26.03.33.09s.11.14.11.25v.61c.24-.38.55-.66.92-.85s.8-.29,1.29-.29c.83,0,1.45.25,1.86.76s.61,1.28.61,2.31v2.61Z" style="fill:#24a7e0;"/><path d="m627.27,193.55h2.38c.36,0,.61.07.77.2s.23.35.23.65-.08.53-.23.66-.41.2-.76.2h-2.38v2c0,.56.09.95.26,1.16s.47.31.91.31c.41,0,.89-.12,1.44-.35s.92-.35,1.11-.35c.21,0,.4.08.55.25s.23.37.23.61c0,.4-.36.77-1.09,1.1s-1.55.5-2.47.5c-.54,0-1.01-.07-1.41-.22s-.73-.35-.96-.62c-.17-.21-.29-.46-.37-.75s-.11-.78-.11-1.46v-2.17h-.73c-.35,0-.61-.07-.75-.2s-.22-.36-.22-.66.07-.52.22-.65.4-.19.76-.19h.73v-1.83c0-.36.07-.61.22-.76s.39-.22.74-.22.59.07.74.22.22.4.22.76v1.83Z" style="fill:#24a7e0;"/><path d="m635.29,197.18c.14.58.4,1.01.79,1.3s.91.43,1.55.43,1.28-.16,1.91-.47,1.01-.47,1.14-.47c.19,0,.35.07.47.21s.18.33.18.55c0,.49-.36.91-1.09,1.27s-1.62.53-2.69.53c-1.26,0-2.29-.35-3.07-1.06s-1.18-1.62-1.18-2.73.39-2.02,1.18-2.73,1.81-1.06,3.07-1.06c1.12,0,2.06.33,2.8,1s1.11,1.48,1.11,2.44c0,.31-.07.52-.22.63s-.45.17-.92.17h-5.04Zm4.21-1.22c-.09-.48-.32-.86-.68-1.12s-.84-.4-1.43-.4-1.02.13-1.37.38-.59.63-.72,1.14h4.21Z" style="fill:#24a7e0;"/><path d="m646.66,196.09v2.53h1.84c.35,0,.61.07.75.2s.22.35.22.65-.07.53-.22.66-.4.2-.75.2h-4.37c-.36,0-.61-.07-.77-.2s-.23-.36-.23-.66.08-.52.22-.65c.15-.13.41-.2.77-.2h.6v-3.8h-.34c-.36,0-.61-.07-.76-.2-.15-.13-.22-.35-.22-.66s.07-.53.21-.66.4-.2.76-.2h1.66c.14,0,.25.03.33.09s.12.14.12.25v1.16c.57-.61,1.1-1.04,1.59-1.3s1.02-.39,1.59-.39c.52,0,.92.12,1.23.35s.45.54.45.93c0,.3-.1.55-.31.75s-.48.29-.8.29c-.23,0-.51-.09-.83-.26s-.54-.26-.67-.26c-.25,0-.54.11-.88.34s-.74.57-1.2,1.04Z" style="fill:#24a7e0;"/><path d="m659.9,198.6h.1c.29,0,.51.07.66.21s.22.36.22.64c0,.31-.07.53-.22.66s-.4.2-.75.2h-1.92c-.35,0-.6-.07-.75-.2s-.23-.36-.23-.66c0-.29.07-.5.22-.64s.37-.21.67-.21h.09v-2.26c0-.62-.09-1.07-.26-1.33s-.46-.39-.87-.39c-.43,0-.79.16-1.06.47s-.41.73-.41,1.25v2.26h.09c.3,0,.52.07.66.21s.22.36.22.64c0,.31-.08.53-.23.66s-.4.2-.75.2h-1.94c-.35,0-.6-.07-.75-.2s-.23-.36-.23-.66c0-.29.07-.5.22-.64s.37-.21.66-.21h.09v-3.78h-.13c-.28,0-.5-.07-.64-.21s-.22-.35-.22-.63c0-.31.08-.53.23-.66s.41-.2.77-.2h1.33c.15,0,.26.03.33.09s.11.14.11.25v.61c.24-.38.55-.66.92-.85s.8-.29,1.29-.29c.83,0,1.45.25,1.86.76s.61,1.28.61,2.31v2.61Z" style="fill:#24a7e0;"/><path d="m669.4,198.62h.12c.28,0,.5.07.64.22s.22.36.22.64c0,.3-.08.52-.23.65s-.41.2-.76.2h-.73c-.26,0-.45-.05-.58-.15s-.23-.28-.32-.54c-.43.29-.89.5-1.38.66s-.97.23-1.47.23c-.84,0-1.5-.21-1.98-.62s-.72-.99-.72-1.71c0-.78.31-1.39.93-1.82s1.49-.65,2.61-.65c.25,0,.52.01.8.04s.6.07.95.12v-.15c0-.47-.11-.83-.34-1.07s-.56-.37-1-.37c-.34,0-.78.13-1.32.38s-.93.38-1.18.38-.44-.07-.59-.21-.23-.33-.23-.57c0-.42.31-.76.93-1s1.46-.37,2.52-.37,1.9.21,2.38.64.72,1.15.72,2.17v2.9Zm-1.89-1.51c-.26-.06-.5-.1-.72-.13s-.42-.04-.61-.04c-.57,0-1.02.1-1.35.29s-.49.46-.49.8c0,.3.1.53.31.69s.51.24.9.24c.36,0,.7-.05,1.02-.16s.63-.27.94-.48v-1.2Z" style="fill:#24a7e0;"/><path d="m676.78,198.62h1.68c.36,0,.61.07.76.2s.22.35.22.65-.07.53-.22.66-.4.2-.75.2h-5.3c-.35,0-.6-.07-.75-.2s-.22-.36-.22-.66.07-.52.21-.65.39-.19.75-.19h1.68v-6.78h-.86c-.35,0-.61-.07-.76-.21s-.23-.36-.23-.66.08-.53.23-.66.41-.2.77-.2h2.34c.15,0,.26.03.34.09s.12.14.12.25v8.18Z" style="fill:#24a7e0;"/><path d="m694.48,193.55h2.38c.36,0,.61.07.77.2s.23.35.23.65-.08.53-.23.66-.41.2-.76.2h-2.38v2c0,.56.09.95.26,1.16s.47.31.91.31c.41,0,.89-.12,1.44-.35s.92-.35,1.11-.35c.21,0,.4.08.55.25s.23.37.23.61c0,.4-.36.77-1.09,1.1s-1.55.5-2.47.5c-.54,0-1.01-.07-1.41-.22s-.73-.35-.96-.62c-.17-.21-.29-.46-.37-.75s-.11-.78-.11-1.46v-2.17h-.73c-.35,0-.61-.07-.75-.2s-.22-.36-.22-.66.07-.52.22-.65.4-.19.76-.19h.73v-1.83c0-.36.07-.61.22-.76s.39-.22.74-.22.59.07.74.22.22.4.22.76v1.83Z" style="fill:#24a7e0;"/><path d="m704.27,196.09v2.53h1.84c.35,0,.61.07.75.2s.22.35.22.65-.07.53-.22.66-.4.2-.75.2h-4.37c-.36,0-.61-.07-.77-.2s-.23-.36-.23-.66.08-.52.22-.65c.15-.13.41-.2.77-.2h.6v-3.8h-.34c-.36,0-.61-.07-.76-.2-.15-.13-.22-.35-.22-.66s.07-.53.21-.66.4-.2.76-.2h1.66c.14,0,.25.03.33.09s.12.14.12.25v1.16c.57-.61,1.1-1.04,1.59-1.3s1.02-.39,1.59-.39c.52,0,.92.12,1.23.35s.45.54.45.93c0,.3-.1.55-.31.75s-.48.29-.8.29c-.23,0-.51-.09-.83-.26s-.54-.26-.67-.26c-.25,0-.54.11-.88.34s-.74.57-1.2,1.04Z" style="fill:#24a7e0;"/><path d="m717.41,198.62h.12c.28,0,.5.07.64.22s.22.36.22.64c0,.3-.08.52-.23.65s-.41.2-.76.2h-.73c-.26,0-.45-.05-.58-.15s-.23-.28-.32-.54c-.43.29-.89.5-1.38.66s-.97.23-1.47.23c-.84,0-1.5-.21-1.98-.62s-.72-.99-.72-1.71c0-.78.31-1.39.93-1.82s1.49-.65,2.61-.65c.25,0,.52.01.8.04s.6.07.95.12v-.15c0-.47-.11-.83-.34-1.07s-.56-.37-1-.37c-.34,0-.78.13-1.32.38s-.93.38-1.18.38-.44-.07-.59-.21-.23-.33-.23-.57c0-.42.31-.76.93-1s1.46-.37,2.52-.37,1.9.21,2.38.64.72,1.15.72,2.17v2.9Zm-1.89-1.51c-.26-.06-.5-.1-.72-.13s-.42-.04-.61-.04c-.57,0-1.02.1-1.35.29s-.49.46-.49.8c0,.3.1.53.31.69s.51.24.9.24c.36,0,.7-.05,1.02-.16s.63-.27.94-.48v-1.2Z" style="fill:#24a7e0;"/><path d="m724.33,193.34h1.68c.36,0,.61.07.77.2s.23.35.23.65-.08.52-.23.66-.41.2-.76.2h-1.68v3.57h1.55c.36,0,.61.07.77.2s.23.35.23.65-.08.53-.23.66-.41.2-.76.2h-4.3c-.36,0-.61-.07-.77-.2s-.23-.36-.23-.66.07-.52.22-.65.41-.2.77-.2h.83v-3.57h-.83c-.36,0-.61-.07-.77-.2s-.23-.35-.23-.66.07-.53.22-.66.41-.2.77-.2h.83v-.45c0-1.02.26-1.75.79-2.18s1.42-.64,2.69-.64c.66,0,1.14.08,1.45.23s.46.4.46.73c0,.22-.07.39-.21.52s-.32.2-.56.2c-.17,0-.42-.02-.73-.07s-.54-.07-.66-.07c-.48,0-.82.11-1.02.32s-.29.6-.29,1.14v.26Z" style="fill:#24a7e0;"/><path d="m733.93,193.34h1.68c.36,0,.61.07.77.2s.23.35.23.65-.08.52-.23.66-.41.2-.76.2h-1.68v3.57h1.55c.36,0,.61.07.77.2s.23.35.23.65-.08.53-.23.66-.41.2-.76.2h-4.3c-.36,0-.61-.07-.77-.2s-.23-.36-.23-.66.07-.52.22-.65.41-.2.77-.2h.83v-3.57h-.83c-.36,0-.61-.07-.77-.2s-.23-.35-.23-.66.07-.53.22-.66.41-.2.77-.2h.83v-.45c0-1.02.26-1.75.79-2.18s1.42-.64,2.69-.64c.66,0,1.14.08,1.45.23s.46.4.46.73c0,.22-.07.39-.21.52s-.32.2-.56.2c-.17,0-.42-.02-.73-.07s-.54-.07-.66-.07c-.48,0-.82.11-1.02.32s-.29.6-.29,1.14v.26Z" style="fill:#24a7e0;"/><path d="m744.12,198.62h1.68c.36,0,.61.07.77.2s.23.35.23.65-.08.53-.23.66-.41.2-.76.2h-5.28c-.35,0-.61-.07-.76-.2s-.23-.36-.23-.66.07-.52.22-.65.41-.2.77-.2h1.68v-3.8h-.88c-.35,0-.6-.07-.75-.2s-.23-.35-.23-.66.07-.53.22-.66.4-.2.76-.2h2.35c.15,0,.26.03.34.09s.12.14.12.25v5.17Zm-1.12-9.04c.38,0,.63.07.76.22s.19.5.19,1.05-.06.86-.17.99-.38.19-.79.19-.67-.06-.79-.18-.18-.36-.18-.72c0-.67.06-1.09.18-1.27s.39-.27.8-.27Z" style="fill:#24a7e0;"/><path d="m754.95,193.53c.06-.2.16-.36.29-.46s.3-.15.51-.15c.28,0,.48.08.6.25s.18.46.18.88v1.28c0,.32-.07.55-.2.7s-.33.23-.6.23c-.19,0-.35-.04-.48-.13s-.27-.26-.41-.51c-.21-.35-.48-.62-.82-.79s-.75-.25-1.24-.25c-.61,0-1.11.2-1.5.6s-.58.91-.58,1.53c0,.65.2,1.17.6,1.57s.94.59,1.62.59c.61,0,1.23-.17,1.83-.51s.98-.51,1.11-.51c.19,0,.35.07.48.22s.19.33.19.56c0,.49-.37.93-1.11,1.31s-1.62.58-2.64.58c-1.26,0-2.29-.35-3.07-1.06s-1.18-1.62-1.18-2.73.39-2,1.17-2.72,1.77-1.09,2.95-1.09c.4,0,.79.05,1.17.15s.76.25,1.13.46Z" style="fill:#24a7e0;"/><polyline points="650.31 223.5 660.69 233.88 650.78 243.78" style="fill:none; stroke:#24a7e0; stroke-miterlimit:10; stroke-width:2px;"/><line x1="314.85" y1="286.22" x2="314.85" y2="400.73" style="fill:none; stroke:#000; stroke-miterlimit:10; stroke-width:2px;"/><path d="m307.33,286.65c0-4.15,3.37-7.52,7.52-7.52s7.52,3.37,7.52,7.52-3.37,7.52-7.52,7.52-7.52-3.37-7.52-7.52Z" style="fill:#fff;"/><path d="m306.33,286.65c0,4.7,3.82,8.52,8.52,8.52s8.52-3.82,8.52-8.52-3.82-8.52-8.52-8.52-8.52,3.82-8.52,8.52,0-4.7,0,0Zm15.04,0c0,3.6-2.92,6.52-6.52,6.52s-6.52-2.92-6.52-6.52,2.92-6.52,6.52-6.52,6.52,2.92,6.52,6.52,0-3.6,0,0Z"/><path d="m307.33,400.3c0,4.15,3.37,7.52,7.52,7.52s7.52-3.37,7.52-7.52-3.37-7.52-7.52-7.52-7.52,3.37-7.52,7.52Z" style="fill:#fff;"/><path d="m306.33,400.3c0-4.7,3.82-8.52,8.52-8.52s8.52,3.82,8.52,8.52-3.82,8.52-8.52,8.52-8.52-3.82-8.52-8.52,0,4.7,0,0Zm15.04,0c0-3.6-2.92-6.52-6.52-6.52s-6.52,2.92-6.52,6.52,2.92,6.52,6.52,6.52,6.52-2.92,6.52-6.52,0,3.6,0,0Z"/><polyline points="106.56 400.73 106.56 337.77 523.14 337.77 523.14 400.73" style="fill:none; stroke:#000; stroke-miterlimit:10; stroke-width:2px;"/><path d="m114.08,400.3c0,4.15-3.37,7.52-7.52,7.52s-7.52-3.37-7.52-7.52,3.37-7.52,7.52-7.52,7.52,3.37,7.52,7.52Z" style="fill:#fff;"/><path d="m115.08,400.3c0-4.7-3.82-8.52-8.52-8.52s-8.52,3.82-8.52,8.52,3.82,8.52,8.52,8.52,8.52-3.82,8.52-8.52,0,4.7,0,0Zm-15.04,0c0-3.6,2.92-6.52,6.52-6.52s6.52,2.92,6.52,6.52-2.92,6.52-6.52,6.52-6.52-2.92-6.52-6.52,0,3.6,0,0Z"/><path d="m515.63,400.3c0,4.15,3.37,7.52,7.52,7.52s7.52-3.37,7.52-7.52-3.37-7.52-7.52-7.52-7.52,3.37-7.52,7.52Z" style="fill:#fff;"/><path d="m514.63,400.3c0-4.7,3.82-8.52,8.52-8.52s8.52,3.82,8.52,8.52-3.82,8.52-8.52,8.52-8.52-3.82-8.52-8.52,0,4.7,0,0Zm15.04,0c0-3.6-2.92-6.52-6.52-6.52s-6.52,2.92-6.52,6.52,2.92,6.52,6.52,6.52,6.52-2.92,6.52-6.52,0,3.6,0,0Z"/><path d="m124.35,480.5c0,1.8,0,3.49,0,5.17-.01,3.86-2.32,6.39-6.18,6.42-11.37.07-22.74.07-34.11,0-3.78-.02-6.18-2.66-6.18-6.46,0-12.94,0-25.88,0-38.82,0-4.57,2.36-6.95,6.92-6.96,3.46,0,6.92,0,10.5,0,0-1.66,0-3.22,0-4.78.01-4.41,2.39-6.82,6.8-6.83,11.01-.01,22.01-.01,33.02,0,4.09,0,6.63,2.55,6.64,6.67.01,13.02,0,26.04,0,39.06,0,4.02-2.42,6.49-6.46,6.53-3.59.04-7.18,0-10.96,0Zm-40.57-34.84v40.59h34.76c0-2.3,0-4.55,0-6.79,0-3.81.96-4.76,4.82-4.76,3.75,0,7.5,0,11.25,0h1.27v-40.59h-34.63c-.06.13-.11.2-.11.27-.01,2.34-.02,4.68-.02,7.01,0,3.16-1.13,4.27-4.32,4.27-4.31,0-8.62,0-13.02,0Z" style="fill:#2eac68;"/><path d="m92.47,477.43v-17.06c2.87,2.87,5.67,5.67,8.47,8.46-2.75,2.79-5.52,5.61-8.47,8.59Z" style="fill:#2eac68;"/><path d="m118.77,451.34c2.76-2.7,5.57-5.45,8.38-8.19v16.51c-2.75-2.73-5.55-5.52-8.38-8.32Z" style="fill:#2eac68;"/><path d="m104,448.59c1.52.02,2.93,1.45,2.91,2.96-.02,1.53-1.34,2.8-2.9,2.79-1.59-.02-2.94-1.38-2.89-2.93.05-1.55,1.36-2.83,2.88-2.82Z" style="fill:#2eac68;"/><path d="m112.72,460.23c0,1.52-1.31,2.82-2.86,2.82-1.54,0-2.89-1.28-2.92-2.78-.03-1.6,1.28-2.96,2.86-2.97,1.54,0,2.93,1.38,2.93,2.93Z" style="fill:#2eac68;"/><path d="m115.61,466.02c1.52.01,2.94,1.44,2.92,2.95-.02,1.53-1.33,2.8-2.89,2.79-1.59,0-2.94-1.37-2.9-2.92.04-1.55,1.35-2.84,2.87-2.83Z" style="fill:#2eac68;"/><path d="m291.01,473.34c-.8.13-1.47.27-2.14.33-1.18.1-2-.43-2.38-1.49-.37-1.04-.04-1.96.94-2.65.03-.02.06-.04.09-.05,2.72-1.29,2.5-2.84,1.48-5.64-.16-.44-.78-.8-1.27-1.02-.54-.24-1.19-.25-1.78-.4-1.22-.29-1.86-1.13-1.81-2.34.05-1.21.67-1.92,1.89-2.15.1-.02.2-.04.3-.05,2.54-.45,2.81-.73,3.23-3.26.3-1.85-.05-2.56-1.71-3.46-1.25-.68-1.78-1.8-1.39-2.93.39-1.14,1.48-1.69,2.89-1.45.03,0,.07,0,.1.02,2.66.51,4.16-.4,4.77-3.07.14-.6-.21-1.35-.45-1.99-.17-.46-.58-.83-.82-1.28-.5-.95-.32-1.99.43-2.7.75-.7,1.82-.83,2.73-.32.12.07.24.13.33.23,1.84,1.94,3.58,1.34,5.68-.74.36-.36.46-1.1.47-1.67,0-.73-.25-1.47-.31-2.2-.08-1.05.48-1.74,1.41-2.13.93-.39,1.94-.14,2.58.62.15.18.28.38.39.59,1.16,2.13,4.12,2.68,5.9,1.02.36-.34.54-.91.71-1.41.15-.44.15-.94.25-1.4.26-1.1,1.08-1.76,2.18-1.78,1.09-.02,1.97.63,2.26,1.68.06.23.11.46.15.7.45,2.35,2.21,3.59,4.59,3.1.59-.12,1.15-.64,1.62-1.08.33-.31.48-.81.74-1.2.63-.91,1.59-1.24,2.57-.89,1.06.37,1.66,1.21,1.57,2.33-.04.57-.15,1.14-.3,1.7-.25.93,0,1.71.71,2.29,1.07.87,2.13,1.9,3.7,1.43.5-.15.96-.48,1.39-.8,1.23-.93,2.37-.97,3.32-.09.95.88,1.02,2.05.19,3.29-1.44,2.14-1.22,3.91.81,5.55.44.35,1.16.46,1.76.48.59.02,1.19-.24,1.8-.31,1.12-.13,2.07.45,2.44,1.42.39,1.05.04,2.08-.94,2.74-.34.23-.71.4-1.05.63-.22.15-.46.3-.63.5-1.38,1.62-.16,5.27,1.9,5.72.43.09.87.15,1.3.24,1.07.23,1.83,1.15,1.86,2.25.03,1.05-.64,1.92-1.73,2.22-.26.07-.53.14-.79.18-2.01.27-2.53.72-2.89,2.53-.48,2.41-.25,2.98,1.6,4.07,1.88,1.11,2.18,3.07.51,4.04-.6.35-1.51.4-2.23.28-2.47-.4-4.38.76-4.72,3.24-.1.71.43,1.57.84,2.26.49.83,1.07,1.57.71,2.62-.51,1.49-2.24,2.1-3.55,1.23-.08-.06-.16-.12-.24-.18-2.1-1.56-4.2-1.25-5.7.93-.29.42-.35,1.06-.35,1.6,0,.56.21,1.13.3,1.69.19,1.14-.29,2.01-1.33,2.46-1,.44-1.94.22-2.64-.64-.28-.34-.52-.72-.71-1.11-.55-1.08-1.46-1.5-2.61-1.36-.77.09-1.53.29-2.27.52-.87.26-1.3.93-1.45,1.8-.02.1-.01.2-.02.3-.22,1.99-1,2.9-2.47,2.9-1.39,0-2.14-.88-2.42-2.85-.22-1.52-.61-1.99-2.1-2.35-.62-.15-1.26-.29-1.9-.32-1.03-.05-1.81.38-2.32,1.33-.95,1.79-1.93,2.33-3.23,1.87-1.31-.47-1.69-1.53-1.28-3.5.45-2.11-1.71-4.63-3.88-4.39-.65.07-1.23.64-1.87.91-.69.3-1.43.77-2.13.73-1.51-.09-2.4-1.8-1.81-3.2.13-.31.33-.59.53-.86,1.4-1.89.76-4.54-1.37-5.6-.32-.16-.71-.18-.95-.24Zm42.72-20.81c-2.77,1.61-5.55,3.2-8.3,4.84-.17.1-.23.51-.23.77,0,1.34,0,2.68.05,4.02.01.32.12.78.35.91,2.66,1.6,5.35,3.14,8.03,4.7,2-3.4,2.42-11.13.1-15.25Zm-20.41,27.14c0-3.29,0-6.51-.02-9.72,0-.19-.24-.44-.43-.56-1.18-.71-2.37-1.41-3.58-2.06-.28-.15-.77-.22-1.03-.08-2.07,1.15-4.11,2.36-6.17,3.55-2.09,1.21-2.11,1.22-.44,2.97,3.16,3.31,7.05,5.18,11.67,5.9Zm17.87-31.19c-1.23-3.04-7.62-7.37-12.98-7.67,0,3.19,0,6.37.02,9.55,0,.22.27.51.49.64,1.16.69,2.32,1.37,3.52,1.99.3.16.81.25,1.07.1,2.64-1.5,5.26-3.06,7.88-4.61Zm-33.47,19.19c.19-.06.3-.07.38-.11,2.62-1.48,5.24-2.95,7.85-4.47.21-.12.37-.52.37-.79,0-1.31-.14-2.63-.08-3.94.03-.63-.05-.97-.62-1.29-2.06-1.16-4.09-2.38-6.13-3.58-.57-.33-1.14-.66-1.82-1.05-1.92,5.18-2.09,10.18.05,15.22Zm15.6-26.97c-5.42.85-9.73,3.35-13.15,7.56.22.2.34.36.51.45,2.54,1.48,5.08,2.97,7.65,4.4.25.14.75,0,1.05-.17,1.13-.6,2.23-1.24,3.32-1.91.26-.16.58-.49.59-.74.04-3.15.03-6.29.03-9.6Zm4.89,38.96c5.29-.81,9.41-3.33,12.79-7.16.49-.56.02-.74-.36-.97-2.42-1.42-4.83-2.86-7.27-4.24-.27-.15-.8-.05-1.12.11-1.2.61-2.36,1.29-3.52,1.98-.22.13-.5.4-.5.6-.03,3.18-.02,6.36-.02,9.69Zm-2.36-23.12c-2.06-.02-3.72,1.6-3.74,3.63-.02,2.01,1.57,3.63,3.58,3.67,2.09.03,3.74-1.62,3.73-3.74,0-1.96-1.59-3.54-3.57-3.56Z" style="fill:#2eac68;"/><path d="m543.49,463.84l-.02-3.38,4.12-.02c3.83,0,6.95-3.11,6.95-6.94s-3.11-6.94-6.94-6.94h-3.7l.23-1.9c.07-.56.1-1.11.1-1.64,0-7.33-5.96-13.29-13.29-13.29-6.17,0-11.63,4.37-12.97,10.38l-.31,1.41-1.6-.11c-1.44-.1-2.88.17-4.21.73l-1.32-3.11c1.43-.61,2.95-.95,4.51-1.01,2.15-6.84,8.63-11.68,15.9-11.68,9.19,0,16.67,7.48,16.67,16.67,0,.05,0,.1,0,.16,5.68,0,10.29,4.63,10.29,10.31s-4.63,10.31-10.31,10.31l-4.11.02Z" style="fill:#2eac68;"/><path d="m518.16,463.14c4.5,0,9,0,13.5,0,3.25,0,5.14,1.88,5.14,5.13,0,6.92,0,13.83,0,20.75,0,2.98-1.87,4.94-4.84,4.95-9.27.03-18.55.03-27.82,0-2.93-.01-4.79-1.98-4.79-4.9,0-6.89,0-13.77,0-20.66,0-3.54,1.75-5.28,5.32-5.28,4.5,0,9,0,13.5,0Z" style="fill:#2eac68;"/><path d="m494.93,478.53c-.86,0-1.63.09-2.37-.02-2.76-.38-4.24-2.14-4.24-4.95,0-7.59,0-15.18,0-22.76,0-3.54,1.75-5.28,5.32-5.29,8.99,0,17.99,0,26.98,0,3.26,0,5.14,1.87,5.15,5.12,0,2.66,0,5.32,0,8.1-.4,0-.75,0-1.11,0-6.95,0-13.89,0-20.84,0-4.07,0-7.54,2.56-8.58,6.33-.22.78-.3,1.63-.31,2.44-.03,3.64-.01,7.28-.01,11.02Z" style="fill:#2eac68;"/><path d="m57.93,511.39v5.83h1.31c.35,0,.61.07.76.2.15.13.23.35.23.64s-.08.52-.23.66-.41.21-.76.21h-4.64c-.35,0-.61-.07-.76-.2-.15-.14-.23-.36-.23-.66s.08-.52.23-.65c.15-.13.41-.2.77-.2h1.31v-5.83h-1.31c-.35,0-.61-.07-.76-.2-.15-.14-.23-.35-.23-.66s.08-.53.23-.66c.15-.13.41-.2.77-.2h4.64c.37,0,.63.07.77.2.15.13.22.35.22.66s-.08.52-.23.66c-.15.14-.41.2-.77.2h-1.31Z" style="fill:#2dab66;"/><path d="m68.34,515.69v-4.3h-.43c-.34,0-.59-.07-.74-.2s-.22-.35-.22-.66.07-.52.22-.66.39-.21.74-.21h2.22c.34,0,.58.07.73.21.15.14.23.36.23.66,0,.28-.07.49-.21.64-.14.15-.35.22-.61.22h-.13v7.09c0,.25-.03.4-.08.46-.05.06-.17.09-.35.09h-.78c-.25,0-.43-.03-.53-.08s-.19-.14-.26-.27l-3.25-5.71v4.24h.45c.34,0,.58.07.73.2.15.13.22.35.22.65s-.07.53-.22.66-.39.2-.72.2h-2.24c-.34,0-.58-.07-.73-.2-.15-.14-.23-.36-.23-.66,0-.28.07-.49.21-.63s.35-.21.62-.21h.12v-5.83h-.12c-.27,0-.47-.07-.62-.22-.15-.15-.22-.36-.22-.64,0-.3.08-.52.23-.66.15-.14.4-.21.73-.21h1.28c.31,0,.52.04.62.12s.23.24.37.49l2.98,5.42Z" style="fill:#2dab66;"/><path d="m78.77,511.37h-1.63v5.83h1.31c.35,0,.6.07.75.2.15.14.23.35.23.66s-.08.53-.23.66c-.15.14-.4.2-.75.2h-4.64c-.34,0-.59-.07-.74-.2-.15-.14-.23-.36-.23-.66s.07-.53.22-.66.4-.2.75-.2h1.31v-5.83h-1.63l-.05,1.59v.2c0,.25-.07.45-.21.59-.14.14-.33.21-.57.21-.29,0-.51-.07-.64-.22-.14-.15-.21-.38-.21-.71v-.06l.09-2.34c.02-.46.08-.74.19-.84.11-.09.34-.14.68-.14h6.72c.34,0,.57.05.68.14.11.09.18.37.2.84l.08,2.34v.06c0,.33-.07.57-.2.71-.13.15-.34.22-.63.22s-.48-.07-.61-.21c-.12-.14-.19-.4-.2-.78l-.05-1.59Z" style="fill:#2dab66;"/><path d="m87.97,511.31h-3.63v2h1.38v-.09c0-.3.06-.52.2-.66.13-.15.33-.22.59-.22.23,0,.43.07.57.2s.22.3.22.5c0,.01,0,.04,0,.1,0,.06,0,.11,0,.17v1.62c0,.35-.06.6-.19.75s-.33.23-.61.23c-.27,0-.47-.07-.6-.21-.14-.14-.2-.35-.2-.62v-.14h-1.38v2.34h3.63v-.93c0-.35.07-.6.2-.75s.35-.23.65-.23.51.07.64.22c.13.15.19.4.19.75v1.89c0,.28-.05.47-.16.56s-.33.14-.65.14h-6.4c-.34,0-.59-.07-.74-.2s-.22-.36-.22-.66c0-.28.07-.49.21-.63s.35-.21.62-.21h.13v-5.83h-.13c-.27,0-.47-.07-.61-.22-.14-.15-.21-.36-.21-.64,0-.3.08-.52.23-.66.15-.14.4-.21.73-.21h6.4c.32,0,.53.05.64.14.11.1.17.29.17.57v1.75c0,.35-.07.61-.2.76-.13.15-.34.23-.63.23s-.52-.08-.65-.23-.2-.41-.2-.76v-.82Z" style="fill:#2dab66;"/><path d="m97.71,509.92c.1-.19.2-.32.32-.4.11-.08.25-.12.42-.12.25,0,.44.07.54.2.11.14.16.37.16.7l.02,2.03c0,.36-.06.6-.18.73s-.33.19-.64.19c-.22,0-.39-.05-.51-.16-.12-.11-.22-.3-.3-.58-.14-.5-.36-.86-.65-1.07-.29-.21-.7-.32-1.23-.32-.8,0-1.42.27-1.84.81-.42.54-.64,1.33-.64,2.35s.22,1.82.67,2.38,1.08.84,1.89.84c.19,0,.4-.02.64-.07.24-.04.52-.11.84-.21v-1.23h-.88c-.35,0-.61-.07-.75-.2s-.22-.35-.22-.65.07-.54.22-.67.4-.2.75-.2h2.82c.36,0,.62.07.77.2s.22.35.22.66c0,.28-.07.49-.22.64s-.36.22-.64.22h-.12v1.95c0,.17-.02.28-.05.35-.04.07-.11.13-.22.2-.3.18-.77.33-1.41.47-.65.14-1.3.2-1.96.2-1.36,0-2.47-.45-3.31-1.35s-1.27-2.08-1.27-3.53.43-2.57,1.28-3.49c.85-.93,1.94-1.39,3.25-1.39.36,0,.73.04,1.09.12.36.08.75.21,1.15.39Z" style="fill:#2dab66;"/><path d="m106.89,514.67c.14.08.27.23.4.45.02.03.04.06.05.08l1.27,2.02h.24c.3,0,.53.07.68.21.15.14.23.35.23.63,0,.31-.08.53-.23.66-.15.14-.41.2-.76.2h-.96c-.35,0-.63-.15-.83-.46l-.02-.02-1.91-2.95c-.07-.11-.16-.2-.25-.26s-.19-.09-.3-.09h-.73v2.06h.12c.28,0,.49.07.64.21.14.14.21.35.21.63,0,.31-.07.53-.22.66s-.4.2-.75.2h-2.02c-.35,0-.6-.07-.75-.2-.15-.14-.23-.36-.23-.66,0-.28.07-.49.21-.63.14-.14.35-.21.63-.21h.13v-5.83h-.13c-.27,0-.48-.07-.62-.22-.15-.15-.22-.36-.22-.64,0-.3.08-.52.23-.66.15-.14.4-.21.75-.21h3.6c1.1,0,1.94.21,2.51.64.57.43.85,1.06.85,1.9,0,.58-.16,1.09-.47,1.52-.32.43-.77.74-1.36.95Zm-3.21-3.33v2.21h1.05c.65,0,1.11-.08,1.37-.25.26-.17.39-.45.39-.85s-.12-.67-.36-.85c-.24-.17-.62-.26-1.14-.26h-1.31Z" style="fill:#2dab66;"/><path d="m118.47,517.22h.13c.28,0,.49.07.64.21.15.14.22.35.22.63,0,.31-.08.53-.23.66-.15.14-.41.2-.76.2h-2.35c-.36,0-.61-.07-.77-.2-.15-.13-.23-.36-.23-.67s.08-.52.23-.65c.15-.13.41-.2.77-.2h.27l-.32-.91h-3.38l-.34.91h.27c.35,0,.61.07.76.2.15.13.23.35.23.64s-.08.53-.23.66c-.15.14-.41.2-.76.2h-2.02c-.36,0-.61-.07-.77-.2s-.23-.36-.23-.66c0-.28.07-.49.22-.63s.36-.21.64-.21h.13l2.09-5.83h-.62c-.35,0-.61-.07-.76-.2-.15-.14-.23-.35-.23-.66s.08-.53.23-.66c.15-.14.41-.2.76-.2h2.93c.46,0,.79.25.98.75v.02l2.48,6.78Zm-4.09-5.83l-1.13,3.3h2.27l-1.13-3.3Z" style="fill:#2dab66;"/><path d="m126.78,511.37h-1.63v5.83h1.31c.35,0,.6.07.75.2.15.14.23.35.23.66s-.08.53-.23.66c-.15.14-.4.2-.75.2h-4.64c-.34,0-.59-.07-.74-.2-.15-.14-.23-.36-.23-.66s.07-.53.22-.66.4-.2.75-.2h1.31v-5.83h-1.63l-.05,1.59v.2c0,.25-.07.45-.21.59-.14.14-.33.21-.57.21-.29,0-.51-.07-.64-.22-.14-.15-.21-.38-.21-.71v-.06l.09-2.34c.02-.46.08-.74.19-.84.11-.09.34-.14.68-.14h6.72c.34,0,.57.05.68.14.11.09.18.37.2.84l.08,2.34v.06c0,.33-.07.57-.2.71-.13.15-.34.22-.63.22s-.48-.07-.61-.21c-.12-.14-.19-.4-.2-.78l-.05-1.59Z" style="fill:#2dab66;"/><path d="m134.75,511.39v5.83h1.31c.35,0,.61.07.76.2.15.13.23.35.23.64s-.08.52-.23.66-.41.21-.76.21h-4.64c-.35,0-.61-.07-.76-.2-.15-.14-.23-.36-.23-.66s.08-.52.23-.65c.15-.13.41-.2.77-.2h1.31v-5.83h-1.31c-.35,0-.61-.07-.76-.2-.15-.14-.23-.35-.23-.66s.08-.53.23-.66c.15-.13.41-.2.77-.2h4.64c.37,0,.63.07.77.2.15.13.22.35.22.66s-.08.52-.23.66c-.15.14-.41.2-.77.2h-1.31Z" style="fill:#2dab66;"/><path d="m143.34,509.41c1.28,0,2.34.46,3.16,1.38s1.24,2.09,1.24,3.51-.41,2.6-1.23,3.52c-.82.91-1.88,1.37-3.17,1.37s-2.33-.46-3.16-1.38c-.83-.92-1.25-2.09-1.25-3.5s.41-2.6,1.24-3.51c.83-.91,1.88-1.37,3.18-1.37Zm0,1.81c-.67,0-1.2.27-1.58.81s-.57,1.29-.57,2.26.19,1.72.58,2.27c.39.55.91.82,1.58.82s1.2-.27,1.59-.82c.39-.54.58-1.3.58-2.27s-.19-1.72-.57-2.26-.91-.81-1.59-.81Z" style="fill:#2dab66;"/><path d="m154.75,515.69v-4.3h-.43c-.34,0-.59-.07-.74-.2s-.22-.35-.22-.66.07-.52.22-.66.39-.21.74-.21h2.22c.34,0,.58.07.73.21.15.14.23.36.23.66,0,.28-.07.49-.21.64-.14.15-.35.22-.61.22h-.13v7.09c0,.25-.03.4-.08.46-.05.06-.17.09-.35.09h-.78c-.25,0-.43-.03-.53-.08s-.19-.14-.26-.27l-3.25-5.71v4.24h.45c.34,0,.58.07.73.2.15.13.22.35.22.65s-.07.53-.22.66-.39.2-.72.2h-2.24c-.34,0-.58-.07-.73-.2-.15-.14-.23-.36-.23-.66,0-.28.07-.49.21-.63s.35-.21.62-.21h.12v-5.83h-.12c-.27,0-.47-.07-.62-.22-.15-.15-.22-.36-.22-.64,0-.3.08-.52.23-.66.15-.14.4-.21.73-.21h1.28c.31,0,.52.04.62.12s.23.24.37.49l2.98,5.42Z" style="fill:#2dab66;"/><path d="m164.5,509.84c.08-.17.17-.28.27-.34.1-.06.25-.09.45-.09.3,0,.5.06.58.17s.13.33.14.67l.03,1.5v.09c0,.31-.06.52-.18.64-.12.12-.33.18-.62.18-.37,0-.65-.2-.83-.59-.03-.06-.05-.1-.06-.14-.16-.32-.38-.57-.66-.73-.28-.16-.6-.25-.98-.25-.47,0-.85.11-1.14.32s-.43.49-.43.83c0,.48.66.86,1.98,1.13.22.05.4.08.53.11,1,.22,1.72.55,2.17,1,.45.45.67,1.06.67,1.84,0,.96-.33,1.7-.98,2.21-.65.52-1.58.78-2.8.78-.47,0-.9-.03-1.27-.09-.37-.06-.73-.16-1.08-.29-.08.14-.18.23-.29.29s-.26.09-.45.09c-.33,0-.56-.06-.69-.19-.13-.12-.2-.35-.2-.66l-.03-1.84v-.09c0-.34.06-.58.19-.72.13-.14.35-.2.67-.2.34,0,.62.25.85.73.05.12.09.21.12.27.2.4.49.7.85.9.36.2.81.3,1.33.3.48,0,.85-.1,1.12-.3s.4-.48.4-.84c0-.56-.6-.98-1.8-1.27-.36-.08-.64-.15-.85-.21-1.01-.27-1.71-.6-2.1-1s-.59-.94-.59-1.64c0-.89.33-1.62,1-2.18.67-.57,1.54-.85,2.6-.85.35,0,.7.04,1.04.11.34.07.68.18,1.02.33Z" style="fill:#2dab66;"/><path d="m267.22,509.84c.08-.17.17-.28.27-.34.1-.06.25-.09.45-.09.3,0,.5.06.58.17s.13.33.14.67l.03,1.5v.09c0,.31-.06.52-.18.64-.12.12-.33.18-.62.18-.37,0-.65-.2-.83-.59-.03-.06-.05-.1-.06-.14-.16-.32-.38-.57-.66-.73-.28-.16-.6-.25-.98-.25-.47,0-.85.11-1.14.32s-.43.49-.43.83c0,.48.66.86,1.98,1.13.22.05.4.08.53.11,1,.22,1.72.55,2.17,1,.45.45.67,1.06.67,1.84,0,.96-.33,1.7-.98,2.21-.65.52-1.58.78-2.8.78-.47,0-.9-.03-1.27-.09-.37-.06-.73-.16-1.08-.29-.08.14-.18.23-.29.29s-.26.09-.45.09c-.33,0-.56-.06-.69-.19-.13-.12-.2-.35-.2-.66l-.03-1.84v-.09c0-.34.06-.58.19-.72.13-.14.35-.2.67-.2.34,0,.62.25.85.73.05.12.09.21.12.27.2.4.49.7.85.9.36.2.81.3,1.33.3.48,0,.85-.1,1.12-.3s.4-.48.4-.84c0-.56-.6-.98-1.8-1.27-.36-.08-.64-.15-.85-.21-1.01-.27-1.71-.6-2.1-1s-.59-.94-.59-1.64c0-.89.33-1.62,1-2.18.67-.57,1.54-.85,2.6-.85.35,0,.7.04,1.04.11.34.07.68.18,1.02.33Z" style="fill:#2dab66;"/><path d="m277.11,511.31h-3.63v2h1.38v-.09c0-.3.06-.52.2-.66.13-.15.33-.22.59-.22.23,0,.43.07.57.2s.22.3.22.5c0,.01,0,.04,0,.1,0,.06,0,.11,0,.17v1.62c0,.35-.06.6-.19.75s-.33.23-.61.23c-.27,0-.47-.07-.6-.21-.14-.14-.2-.35-.2-.62v-.14h-1.38v2.34h3.63v-.93c0-.35.07-.6.2-.75s.35-.23.65-.23.51.07.64.22c.13.15.19.4.19.75v1.89c0,.28-.05.47-.16.56s-.33.14-.65.14h-6.4c-.34,0-.59-.07-.74-.2s-.22-.36-.22-.66c0-.28.07-.49.21-.63s.35-.21.62-.21h.13v-5.83h-.13c-.27,0-.47-.07-.61-.22-.14-.15-.21-.36-.21-.64,0-.3.08-.52.23-.66.15-.14.4-.21.73-.21h6.4c.32,0,.53.05.64.14.11.1.17.29.17.57v1.75c0,.35-.07.61-.2.76-.13.15-.34.23-.63.23s-.52-.08-.65-.23-.2-.41-.2-.76v-.82Z" style="fill:#2dab66;"/><path d="m287.11,511.37h-1.63v5.83h1.31c.35,0,.6.07.75.2.15.14.23.35.23.66s-.08.53-.23.66c-.15.14-.4.2-.75.2h-4.64c-.34,0-.59-.07-.74-.2-.15-.14-.23-.36-.23-.66s.07-.53.22-.66.4-.2.75-.2h1.31v-5.83h-1.63l-.05,1.59v.2c0,.25-.07.45-.21.59-.14.14-.33.21-.57.21-.29,0-.51-.07-.64-.22-.14-.15-.21-.38-.21-.71v-.06l.09-2.34c.02-.46.08-.74.19-.84.11-.09.34-.14.68-.14h6.72c.34,0,.57.05.68.14.11.09.18.37.2.84l.08,2.34v.06c0,.33-.07.57-.2.71-.13.15-.34.22-.63.22s-.48-.07-.61-.21c-.12-.14-.19-.4-.2-.78l-.05-1.59Z" style="fill:#2dab66;"/><path d="m296.71,511.37h-1.63v5.83h1.31c.35,0,.6.07.75.2.15.14.23.35.23.66s-.08.53-.23.66c-.15.14-.4.2-.75.2h-4.64c-.34,0-.59-.07-.74-.2-.15-.14-.23-.36-.23-.66s.07-.53.22-.66.4-.2.75-.2h1.31v-5.83h-1.63l-.05,1.59v.2c0,.25-.07.45-.21.59-.14.14-.33.21-.57.21-.29,0-.51-.07-.64-.22-.14-.15-.21-.38-.21-.71v-.06l.09-2.34c.02-.46.08-.74.19-.84.11-.09.34-.14.68-.14h6.72c.34,0,.57.05.68.14.11.09.18.37.2.84l.08,2.34v.06c0,.33-.07.57-.2.71-.13.15-.34.22-.63.22s-.48-.07-.61-.21c-.12-.14-.19-.4-.2-.78l-.05-1.59Z" style="fill:#2dab66;"/><path d="m304.68,511.39v5.83h1.31c.35,0,.61.07.76.2.15.13.23.35.23.64s-.08.52-.23.66-.41.21-.76.21h-4.64c-.35,0-.61-.07-.76-.2-.15-.14-.23-.36-.23-.66s.08-.52.23-.65c.15-.13.41-.2.77-.2h1.31v-5.83h-1.31c-.35,0-.61-.07-.76-.2-.15-.14-.23-.35-.23-.66s.08-.53.23-.66c.15-.13.41-.2.77-.2h4.64c.37,0,.63.07.77.2.15.13.22.35.22.66s-.08.52-.23.66c-.15.14-.41.2-.77.2h-1.31Z" style="fill:#2dab66;"/><path d="m315.09,515.69v-4.3h-.43c-.34,0-.59-.07-.74-.2s-.22-.35-.22-.66.07-.52.22-.66.39-.21.74-.21h2.22c.34,0,.58.07.73.21.15.14.23.36.23.66,0,.28-.07.49-.21.64-.14.15-.35.22-.61.22h-.13v7.09c0,.25-.03.4-.08.46-.05.06-.17.09-.35.09h-.78c-.25,0-.43-.03-.53-.08s-.19-.14-.26-.27l-3.25-5.71v4.24h.45c.34,0,.58.07.73.2.15.13.22.35.22.65s-.07.53-.22.66-.39.2-.72.2h-2.24c-.34,0-.58-.07-.73-.2-.15-.14-.23-.36-.23-.66,0-.28.07-.49.21-.63s.35-.21.62-.21h.12v-5.83h-.12c-.27,0-.47-.07-.62-.22-.15-.15-.22-.36-.22-.64,0-.3.08-.52.23-.66.15-.14.4-.21.73-.21h1.28c.31,0,.52.04.62.12s.23.24.37.49l2.98,5.42Z" style="fill:#2dab66;"/><path d="m325.25,509.92c.1-.19.2-.32.32-.4.11-.08.25-.12.42-.12.25,0,.44.07.54.2.11.14.16.37.16.7l.02,2.03c0,.36-.06.6-.18.73s-.33.19-.64.19c-.22,0-.39-.05-.51-.16-.12-.11-.22-.3-.3-.58-.14-.5-.36-.86-.65-1.07-.29-.21-.7-.32-1.23-.32-.8,0-1.42.27-1.84.81-.42.54-.64,1.33-.64,2.35s.22,1.82.67,2.38,1.08.84,1.89.84c.19,0,.4-.02.64-.07.24-.04.52-.11.84-.21v-1.23h-.88c-.35,0-.61-.07-.75-.2s-.22-.35-.22-.65.07-.54.22-.67.4-.2.75-.2h2.82c.36,0,.62.07.77.2s.22.35.22.66c0,.28-.07.49-.22.64s-.36.22-.64.22h-.12v1.95c0,.17-.02.28-.05.35-.04.07-.11.13-.22.2-.3.18-.77.33-1.41.47-.65.14-1.3.2-1.96.2-1.36,0-2.47-.45-3.31-1.35s-1.27-2.08-1.27-3.53.43-2.57,1.28-3.49c.85-.93,1.94-1.39,3.25-1.39.36,0,.73.04,1.09.12.36.08.75.21,1.15.39Z" style="fill:#2dab66;"/><path d="m334.43,509.84c.08-.17.17-.28.27-.34.1-.06.25-.09.45-.09.3,0,.5.06.58.17s.13.33.14.67l.03,1.5v.09c0,.31-.06.52-.18.64-.12.12-.33.18-.62.18-.37,0-.65-.2-.83-.59-.03-.06-.05-.1-.06-.14-.16-.32-.38-.57-.66-.73-.28-.16-.6-.25-.98-.25-.47,0-.85.11-1.14.32s-.43.49-.43.83c0,.48.66.86,1.98,1.13.22.05.4.08.53.11,1,.22,1.72.55,2.17,1,.45.45.67,1.06.67,1.84,0,.96-.33,1.7-.98,2.21-.65.52-1.58.78-2.8.78-.47,0-.9-.03-1.27-.09-.37-.06-.73-.16-1.08-.29-.08.14-.18.23-.29.29s-.26.09-.45.09c-.33,0-.56-.06-.69-.19-.13-.12-.2-.35-.2-.66l-.03-1.84v-.09c0-.34.06-.58.19-.72.13-.14.35-.2.67-.2.34,0,.62.25.85.73.05.12.09.21.12.27.2.4.49.7.85.9.36.2.81.3,1.33.3.48,0,.85-.1,1.12-.3s.4-.48.4-.84c0-.56-.6-.98-1.8-1.27-.36-.08-.64-.15-.85-.21-1.01-.27-1.71-.6-2.1-1s-.59-.94-.59-1.64c0-.89.33-1.62,1-2.18.67-.57,1.54-.85,2.6-.85.35,0,.7.04,1.04.11.34.07.68.18,1.02.33Z" style="fill:#2dab66;"/><path d="m352.75,510.44c.08-.02.14-.04.19-.04s.09-.01.13-.01c.17,0,.31.07.42.2.11.13.17.3.17.5,0,.27-.09.5-.26.71-.17.21-.37.31-.58.31-.15,0-.38-.1-.71-.29-.33-.19-.59-.29-.79-.29-.19,0-.34.05-.45.16-.11.1-.17.25-.17.42,0,.22.11.48.34.8.05.05.08.09.1.12l1.87,2.62c.06-.18.13-.42.21-.72.17-.65.46-.98.87-.98h.6c.16,0,.3.07.41.22.11.15.17.33.17.55,0,.24-.06.42-.17.55-.11.13-.3.21-.55.25-.05.29-.12.55-.22.8s-.21.48-.36.7l.4.48h.13c.22,0,.39.06.5.18.11.12.17.29.17.51s-.07.42-.21.54c-.14.13-.34.19-.6.19h-.62c-.17,0-.3-.02-.39-.05s-.16-.09-.22-.18l-.24-.32c-.33.25-.72.45-1.15.59-.43.14-.86.21-1.3.21-.78,0-1.42-.23-1.92-.68s-.74-1.04-.74-1.75c0-.58.14-1.09.41-1.53s.72-.88,1.34-1.3l-.43-.69c-.11-.18-.2-.38-.27-.61-.07-.23-.1-.45-.1-.67,0-.62.21-1.11.64-1.47.42-.35,1.02-.53,1.78-.53.31,0,.59.04.84.11.25.08.51.2.76.37Zm-2.27,4.72c-.26.16-.45.34-.58.54-.13.2-.19.42-.19.66,0,.33.11.61.34.84s.51.34.85.34c.17,0,.34-.03.51-.1s.35-.17.55-.31l-1.47-1.95Z" style="fill:#2dab66;"/><path d="m248.52,529.92c.1-.19.21-.32.32-.4s.25-.12.41-.12c.25,0,.44.07.54.2.11.14.16.37.16.7l.02,2.03c0,.36-.06.6-.18.73s-.33.19-.64.19c-.22,0-.39-.05-.5-.16-.12-.11-.22-.3-.3-.58-.14-.5-.35-.85-.65-1.07-.3-.22-.71-.33-1.23-.33-.8,0-1.42.27-1.84.81-.43.54-.64,1.33-.64,2.35s.22,1.81.65,2.35c.43.55,1.05.82,1.85.82.55,0,1.15-.18,1.81-.55.66-.36,1.07-.55,1.25-.55.2,0,.37.09.51.26.14.17.21.39.21.64,0,.46-.4.89-1.21,1.3-.81.41-1.72.61-2.73.61-1.36,0-2.47-.45-3.31-1.35s-1.27-2.08-1.27-3.53.43-2.57,1.28-3.49c.85-.93,1.94-1.39,3.25-1.39.37,0,.73.04,1.09.12s.74.21,1.15.39Z" style="fill:#2dab66;"/><path d="m255.67,529.41c1.28,0,2.34.46,3.16,1.38s1.24,2.09,1.24,3.51-.41,2.6-1.23,3.52c-.82.91-1.88,1.37-3.17,1.37s-2.33-.46-3.16-1.38c-.83-.92-1.25-2.09-1.25-3.5s.41-2.6,1.24-3.51c.83-.91,1.88-1.37,3.18-1.37Zm0,1.81c-.67,0-1.2.27-1.58.81s-.57,1.29-.57,2.26.19,1.72.58,2.27c.39.55.91.82,1.58.82s1.2-.27,1.59-.82c.39-.54.58-1.3.58-2.27s-.19-1.72-.57-2.26-.91-.81-1.59-.81Z" style="fill:#2dab66;"/><path d="m267.08,535.69v-4.3h-.43c-.34,0-.59-.07-.74-.2s-.22-.35-.22-.66.07-.52.22-.66.39-.21.74-.21h2.22c.34,0,.58.07.73.21.15.14.23.36.23.66,0,.28-.07.49-.21.64-.14.15-.35.22-.61.22h-.13v7.09c0,.25-.03.4-.08.46-.05.06-.17.09-.35.09h-.78c-.25,0-.43-.03-.53-.08s-.19-.14-.26-.27l-3.25-5.71v4.24h.45c.34,0,.58.07.73.2.15.13.22.35.22.65s-.07.53-.22.66-.39.2-.72.2h-2.24c-.34,0-.58-.07-.73-.2-.15-.14-.23-.36-.23-.66,0-.28.07-.49.21-.63s.35-.21.62-.21h.12v-5.83h-.12c-.27,0-.47-.07-.62-.22-.15-.15-.22-.36-.22-.64,0-.3.08-.52.23-.66.15-.14.4-.21.73-.21h1.28c.31,0,.52.04.62.12s.23.24.37.49l2.98,5.42Z" style="fill:#2dab66;"/><path d="m277.19,531.31h-3.63v2h1.37v-.09c0-.29.07-.51.2-.66s.33-.22.6-.22c.23,0,.43.07.57.2s.22.3.22.5v1.89c0,.35-.06.6-.19.75s-.33.23-.61.23c-.27,0-.46-.07-.6-.21s-.2-.35-.2-.63v-.14h-1.37v2.29h.44c.34,0,.59.07.74.2s.22.35.22.64-.08.53-.23.66c-.15.14-.4.2-.73.2h-2.34c-.34,0-.58-.07-.73-.2-.15-.14-.23-.36-.23-.66,0-.28.07-.49.21-.63s.35-.21.62-.21h.13v-5.83h-.13c-.27,0-.47-.07-.61-.22-.14-.15-.21-.36-.21-.64,0-.3.08-.52.23-.66.15-.14.4-.21.73-.21h6.4c.32,0,.53.05.64.14.11.1.17.29.17.57v1.75c0,.35-.07.6-.2.76s-.35.23-.64.23-.51-.08-.64-.23c-.13-.15-.2-.41-.2-.76v-.82Z" style="fill:#2dab66;"/><path d="m285.48,531.39v5.83h1.31c.35,0,.61.07.76.2.15.13.23.35.23.64s-.08.52-.23.66-.41.21-.76.21h-4.64c-.35,0-.61-.07-.76-.2-.15-.14-.23-.36-.23-.66s.08-.52.23-.65c.15-.13.41-.2.77-.2h1.31v-5.83h-1.31c-.35,0-.61-.07-.76-.2-.15-.14-.23-.35-.23-.66s.08-.53.23-.66c.15-.13.41-.2.77-.2h4.64c.37,0,.63.07.77.2.15.13.22.35.22.66s-.08.52-.23.66c-.15.14-.41.2-.77.2h-1.31Z" style="fill:#2dab66;"/><path d="m296.45,529.92c.1-.19.2-.32.32-.4.11-.08.25-.12.42-.12.25,0,.44.07.54.2.11.14.16.37.16.7l.02,2.03c0,.36-.06.6-.18.73s-.33.19-.64.19c-.22,0-.39-.05-.51-.16-.12-.11-.22-.3-.3-.58-.14-.5-.36-.86-.65-1.07-.29-.21-.7-.32-1.23-.32-.8,0-1.42.27-1.84.81-.42.54-.64,1.33-.64,2.35s.22,1.82.67,2.38,1.08.84,1.89.84c.19,0,.4-.02.64-.07.24-.04.52-.11.84-.21v-1.23h-.88c-.35,0-.61-.07-.75-.2s-.22-.35-.22-.65.07-.54.22-.67.4-.2.75-.2h2.82c.36,0,.62.07.77.2s.22.35.22.66c0,.28-.07.49-.22.64s-.36.22-.64.22h-.12v1.95c0,.17-.02.28-.05.35-.04.07-.11.13-.22.2-.3.18-.77.33-1.41.47-.65.14-1.3.2-1.96.2-1.36,0-2.47-.45-3.31-1.35s-1.27-2.08-1.27-3.53.43-2.57,1.28-3.49c.85-.93,1.94-1.39,3.25-1.39.36,0,.73.04,1.09.12.36.08.75.21,1.15.39Z" style="fill:#2dab66;"/><path d="m302.07,531.39v4.09c0,.72.13,1.24.38,1.54.25.3.67.46,1.26.46s1.01-.15,1.27-.46c.25-.31.38-.82.38-1.54v-4.09h-.12c-.28,0-.49-.07-.63-.22-.14-.15-.21-.36-.21-.64,0-.31.07-.53.22-.66s.4-.2.75-.2h1.95c.35,0,.61.07.75.2s.22.36.22.66c0,.28-.07.5-.21.64-.14.15-.35.22-.63.22h-.13v4.05c0,1.31-.28,2.26-.85,2.85-.57.59-1.48.88-2.73.88s-2.25-.29-2.82-.86-.86-1.53-.86-2.86v-4.05h-.13c-.28,0-.5-.07-.64-.22-.15-.15-.22-.36-.22-.64,0-.31.08-.53.23-.66.15-.14.41-.2.76-.2h2.02c.35,0,.6.07.76.2s.23.36.23.66c0,.28-.07.5-.22.64s-.36.22-.64.22h-.12Z" style="fill:#2dab66;"/><path d="m315.23,534.67c.14.08.27.23.4.45.02.03.04.06.05.08l1.27,2.02h.24c.3,0,.53.07.68.21.15.14.23.35.23.63,0,.31-.08.53-.23.66-.15.14-.41.2-.76.2h-.96c-.35,0-.63-.15-.83-.46l-.02-.02-1.91-2.95c-.07-.11-.16-.2-.25-.26s-.19-.09-.3-.09h-.73v2.06h.12c.28,0,.49.07.64.21.14.14.21.35.21.63,0,.31-.07.53-.22.66s-.4.2-.75.2h-2.02c-.35,0-.6-.07-.75-.2-.15-.14-.23-.36-.23-.66,0-.28.07-.49.21-.63.14-.14.35-.21.63-.21h.13v-5.83h-.13c-.27,0-.48-.07-.62-.22-.15-.15-.22-.36-.22-.64,0-.3.08-.52.23-.66.15-.14.4-.21.75-.21h3.6c1.1,0,1.94.21,2.51.64.57.43.85,1.06.85,1.9,0,.58-.16,1.09-.47,1.52-.32.43-.77.74-1.36.95Zm-3.21-3.33v2.21h1.05c.65,0,1.11-.08,1.37-.25.26-.17.39-.45.39-.85s-.12-.67-.36-.85c-.24-.17-.62-.26-1.14-.26h-1.31Z" style="fill:#2dab66;"/><path d="m326.82,537.22h.13c.28,0,.49.07.64.21.15.14.22.35.22.63,0,.31-.08.53-.23.66-.15.14-.41.2-.76.2h-2.35c-.36,0-.61-.07-.77-.2-.15-.13-.23-.36-.23-.67s.08-.52.23-.65c.15-.13.41-.2.77-.2h.27l-.32-.91h-3.38l-.34.91h.27c.35,0,.61.07.76.2.15.13.23.35.23.64s-.08.53-.23.66c-.15.14-.41.2-.76.2h-2.02c-.36,0-.61-.07-.77-.2s-.23-.36-.23-.66c0-.28.07-.49.22-.63s.36-.21.64-.21h.13l2.09-5.83h-.62c-.35,0-.61-.07-.76-.2-.15-.14-.23-.35-.23-.66s.08-.53.23-.66c.15-.14.41-.2.76-.2h2.93c.46,0,.79.25.98.75v.02l2.48,6.78Zm-4.09-5.83l-1.13,3.3h2.27l-1.13-3.3Z" style="fill:#2dab66;"/><path d="m335.12,531.37h-1.63v5.83h1.31c.35,0,.6.07.75.2.15.14.23.35.23.66s-.08.53-.23.66c-.15.14-.4.2-.75.2h-4.64c-.34,0-.59-.07-.74-.2-.15-.14-.23-.36-.23-.66s.07-.53.22-.66.4-.2.75-.2h1.31v-5.83h-1.63l-.05,1.59v.2c0,.25-.07.45-.21.59-.14.14-.33.21-.57.21-.29,0-.51-.07-.64-.22-.14-.15-.21-.38-.21-.71v-.06l.09-2.34c.02-.46.08-.74.19-.84.11-.09.34-.14.68-.14h6.72c.34,0,.57.05.68.14.11.09.18.37.2.84l.08,2.34v.06c0,.33-.07.57-.2.71-.13.15-.34.22-.63.22s-.48-.07-.61-.21c-.12-.14-.19-.4-.2-.78l-.05-1.59Z" style="fill:#2dab66;"/><path d="m343.09,531.39v5.83h1.31c.35,0,.61.07.76.2.15.13.23.35.23.64s-.08.52-.23.66-.41.21-.76.21h-4.64c-.35,0-.61-.07-.76-.2-.15-.14-.23-.36-.23-.66s.08-.52.23-.65c.15-.13.41-.2.77-.2h1.31v-5.83h-1.31c-.35,0-.61-.07-.76-.2-.15-.14-.23-.35-.23-.66s.08-.53.23-.66c.15-.13.41-.2.77-.2h4.64c.37,0,.63.07.77.2.15.13.22.35.22.66s-.08.52-.23.66c-.15.14-.41.2-.77.2h-1.31Z" style="fill:#2dab66;"/><path d="m351.68,529.41c1.28,0,2.34.46,3.16,1.38s1.24,2.09,1.24,3.51-.41,2.6-1.23,3.52c-.82.91-1.88,1.37-3.17,1.37s-2.33-.46-3.16-1.38c-.83-.92-1.25-2.09-1.25-3.5s.41-2.6,1.24-3.51c.83-.91,1.88-1.37,3.18-1.37Zm0,1.81c-.67,0-1.2.27-1.58.81s-.57,1.29-.57,2.26.19,1.72.58,2.27c.39.55.91.82,1.58.82s1.2-.27,1.59-.82c.39-.54.58-1.3.58-2.27s-.19-1.72-.57-2.26-.91-.81-1.59-.81Z" style="fill:#2dab66;"/><path d="m363.1,535.69v-4.3h-.43c-.34,0-.59-.07-.74-.2s-.22-.35-.22-.66.07-.52.22-.66.39-.21.74-.21h2.22c.34,0,.58.07.73.21.15.14.23.36.23.66,0,.28-.07.49-.21.64-.14.15-.35.22-.61.22h-.13v7.09c0,.25-.03.4-.08.46-.05.06-.17.09-.35.09h-.78c-.25,0-.43-.03-.53-.08s-.19-.14-.26-.27l-3.25-5.71v4.24h.45c.34,0,.58.07.73.2.15.13.22.35.22.65s-.07.53-.22.66-.39.2-.72.2h-2.24c-.34,0-.58-.07-.73-.2-.15-.14-.23-.36-.23-.66,0-.28.07-.49.21-.63s.35-.21.62-.21h.12v-5.83h-.12c-.27,0-.47-.07-.62-.22-.15-.15-.22-.36-.22-.64,0-.3.08-.52.23-.66.15-.14.4-.21.73-.21h1.28c.31,0,.52.04.62.12s.23.24.37.49l2.98,5.42Z" style="fill:#2dab66;"/><path d="m372.84,529.84c.08-.17.17-.28.27-.34.1-.06.25-.09.45-.09.3,0,.5.06.58.17s.13.33.14.67l.03,1.5v.09c0,.31-.06.52-.18.64-.12.12-.33.18-.62.18-.37,0-.65-.2-.83-.59-.03-.06-.05-.1-.06-.14-.16-.32-.38-.57-.66-.73-.28-.16-.6-.25-.98-.25-.47,0-.85.11-1.14.32s-.43.49-.43.83c0,.48.66.86,1.98,1.13.22.05.4.08.53.11,1,.22,1.72.55,2.17,1,.45.45.67,1.06.67,1.84,0,.96-.33,1.7-.98,2.21-.65.52-1.58.78-2.8.78-.47,0-.9-.03-1.27-.09-.37-.06-.73-.16-1.08-.29-.08.14-.18.23-.29.29s-.26.09-.45.09c-.33,0-.56-.06-.69-.19-.13-.12-.2-.35-.2-.66l-.03-1.84v-.09c0-.34.06-.58.19-.72.13-.14.35-.2.67-.2.34,0,.62.25.85.73.05.12.09.21.12.27.2.4.49.7.85.9.36.2.81.3,1.33.3.48,0,.85-.1,1.12-.3s.4-.48.4-.84c0-.56-.6-.98-1.8-1.27-.36-.08-.64-.15-.85-.21-1.01-.27-1.71-.6-2.1-1s-.59-.94-.59-1.64c0-.89.33-1.62,1-2.18.67-.57,1.54-.85,2.6-.85.35,0,.7.04,1.04.11.34.07.68.18,1.02.33Z" style="fill:#2dab66;"/><path d="m477.3,514.93l1.49-4.43c.09-.29.22-.5.39-.64.17-.13.39-.2.66-.2h1.22c.35,0,.61.07.76.2.15.14.23.36.23.66,0,.28-.07.5-.22.64s-.36.22-.64.22h-.12l.22,5.83h.13c.28,0,.49.07.63.21s.21.35.21.63c0,.31-.07.53-.22.66s-.4.2-.75.2h-1.76c-.35,0-.61-.07-.75-.2s-.22-.36-.22-.67c0-.28.07-.49.21-.63.14-.14.36-.21.64-.21h.12l-.11-4.77-1.14,3.55c-.08.27-.2.46-.36.57-.15.12-.37.18-.64.18s-.49-.06-.64-.18c-.16-.12-.28-.31-.36-.57l-1.13-3.55-.11,4.77h.12c.28,0,.49.07.64.21.14.14.21.35.21.63,0,.31-.08.53-.23.66-.15.14-.4.2-.75.2h-1.77c-.35,0-.6-.07-.75-.2-.15-.14-.23-.36-.23-.66,0-.28.07-.49.21-.63.14-.14.36-.21.64-.21h.12l.23-5.83h-.12c-.28,0-.5-.07-.64-.22s-.22-.36-.22-.64c0-.31.08-.53.23-.66.15-.14.41-.2.76-.2h1.22c.27,0,.49.07.65.2s.3.34.4.64l1.53,4.43Z" style="fill:#2dab66;"/><path d="m485.28,511.39v4.09c0,.72.13,1.24.38,1.54.25.3.67.46,1.26.46s1.01-.15,1.27-.46c.25-.31.38-.82.38-1.54v-4.09h-.12c-.28,0-.49-.07-.63-.22-.14-.15-.21-.36-.21-.64,0-.31.07-.53.22-.66s.4-.2.75-.2h1.95c.35,0,.61.07.75.2s.22.36.22.66c0,.28-.07.5-.21.64-.14.15-.35.22-.63.22h-.13v4.05c0,1.31-.28,2.26-.85,2.85-.57.59-1.48.88-2.73.88s-2.25-.29-2.82-.86-.86-1.53-.86-2.86v-4.05h-.13c-.28,0-.5-.07-.64-.22-.15-.15-.22-.36-.22-.64,0-.31.08-.53.23-.66.15-.14.41-.2.76-.2h2.02c.35,0,.6.07.76.2s.23.36.23.66c0,.28-.07.5-.22.64s-.36.22-.64.22h-.12Z" style="fill:#2dab66;"/><path d="m495.64,511.39v5.83h3.55v-1.39c0-.36.06-.61.19-.77.13-.15.34-.23.64-.23s.51.08.65.23c.13.15.2.41.2.76v2.4c0,.28-.05.47-.16.56s-.33.14-.66.14h-7.09c-.34,0-.58-.07-.73-.2-.15-.14-.22-.36-.22-.66s.07-.52.21-.65c.14-.13.39-.2.73-.2h.69v-5.83h-.69c-.34,0-.58-.07-.73-.2-.15-.14-.22-.35-.22-.66s.08-.52.23-.66c.15-.14.4-.21.73-.21h3.33c.33,0,.58.07.73.21.15.14.23.36.23.66s-.08.52-.23.66c-.15.14-.4.2-.73.2h-.67Z" style="fill:#2dab66;"/><path d="m508.73,511.37h-1.63v5.83h1.31c.35,0,.6.07.75.2.15.14.23.35.23.66s-.08.53-.23.66c-.15.14-.4.2-.75.2h-4.64c-.34,0-.59-.07-.74-.2-.15-.14-.23-.36-.23-.66s.07-.53.22-.66.4-.2.75-.2h1.31v-5.83h-1.63l-.05,1.59v.2c0,.25-.07.45-.21.59-.14.14-.33.21-.57.21-.29,0-.51-.07-.64-.22-.14-.15-.21-.38-.21-.71v-.06l.09-2.34c.02-.46.08-.74.19-.84.11-.09.34-.14.68-.14h6.72c.34,0,.57.05.68.14.11.09.18.37.2.84l.08,2.34v.06c0,.33-.07.57-.2.71-.13.15-.34.22-.63.22s-.48-.07-.61-.21c-.12-.14-.19-.4-.2-.78l-.05-1.59Z" style="fill:#2dab66;"/><path d="m516.7,511.39v5.83h1.31c.35,0,.61.07.76.2.15.13.23.35.23.64s-.08.52-.23.66-.41.21-.76.21h-4.64c-.35,0-.61-.07-.76-.2-.15-.14-.23-.36-.23-.66s.08-.52.23-.65c.15-.13.41-.2.77-.2h1.31v-5.83h-1.31c-.35,0-.61-.07-.76-.2-.15-.14-.23-.35-.23-.66s.08-.53.23-.66c.15-.13.41-.2.77-.2h4.64c.37,0,.63.07.77.2.15.13.22.35.22.66s-.08.52-.23.66c-.15.14-.41.2-.77.2h-1.31Z" style="fill:#2dab66;"/><path d="m527.24,509.84c.08-.17.17-.28.27-.34.1-.06.25-.09.45-.09.3,0,.5.06.58.17s.13.33.14.67l.03,1.5v.09c0,.31-.06.52-.18.64-.12.12-.33.18-.62.18-.37,0-.65-.2-.83-.59-.03-.06-.05-.1-.06-.14-.16-.32-.38-.57-.66-.73-.28-.16-.6-.25-.98-.25-.47,0-.85.11-1.14.32s-.43.49-.43.83c0,.48.66.86,1.98,1.13.22.05.4.08.53.11,1,.22,1.72.55,2.17,1,.45.45.67,1.06.67,1.84,0,.96-.33,1.7-.98,2.21-.65.52-1.58.78-2.8.78-.47,0-.9-.03-1.27-.09-.37-.06-.73-.16-1.08-.29-.08.14-.18.23-.29.29s-.26.09-.45.09c-.33,0-.56-.06-.69-.19-.13-.12-.2-.35-.2-.66l-.03-1.84v-.09c0-.34.06-.58.19-.72.13-.14.35-.2.67-.2.34,0,.62.25.85.73.05.12.09.21.12.27.2.4.49.7.85.9.36.2.81.3,1.33.3.48,0,.85-.1,1.12-.3s.4-.48.4-.84c0-.56-.6-.98-1.8-1.27-.36-.08-.64-.15-.85-.21-1.01-.27-1.71-.6-2.1-1s-.59-.94-.59-1.64c0-.89.33-1.62,1-2.18.67-.57,1.54-.85,2.6-.85.35,0,.7.04,1.04.11.34.07.68.18,1.02.33Z" style="fill:#2dab66;"/><path d="m535.9,511.39v5.83h1.31c.35,0,.61.07.76.2.15.13.23.35.23.64s-.08.52-.23.66-.41.21-.76.21h-4.64c-.35,0-.61-.07-.76-.2-.15-.14-.23-.36-.23-.66s.08-.52.23-.65c.15-.13.41-.2.77-.2h1.31v-5.83h-1.31c-.35,0-.61-.07-.76-.2-.15-.14-.23-.35-.23-.66s.08-.53.23-.66c.15-.13.41-.2.77-.2h4.64c.37,0,.63.07.77.2.15.13.22.35.22.66s-.08.52-.23.66c-.15.14-.41.2-.77.2h-1.31Z" style="fill:#2dab66;"/><path d="m547.13,511.37h-1.63v5.83h1.31c.35,0,.6.07.75.2.15.14.23.35.23.66s-.08.53-.23.66c-.15.14-.4.2-.75.2h-4.64c-.34,0-.59-.07-.74-.2-.15-.14-.23-.36-.23-.66s.07-.53.22-.66.4-.2.75-.2h1.31v-5.83h-1.63l-.05,1.59v.2c0,.25-.07.45-.21.59-.14.14-.33.21-.57.21-.29,0-.51-.07-.64-.22-.14-.15-.21-.38-.21-.71v-.06l.09-2.34c.02-.46.08-.74.19-.84.11-.09.34-.14.68-.14h6.72c.34,0,.57.05.68.14.11.09.18.37.2.84l.08,2.34v.06c0,.33-.07.57-.2.71-.13.15-.34.22-.63.22s-.48-.07-.61-.21c-.12-.14-.19-.4-.2-.78l-.05-1.59Z" style="fill:#2dab66;"/><path d="m556.34,511.31h-3.63v2h1.38v-.09c0-.3.06-.52.2-.66.13-.15.33-.22.59-.22.23,0,.43.07.57.2s.22.3.22.5c0,.01,0,.04,0,.1,0,.06,0,.11,0,.17v1.62c0,.35-.06.6-.19.75s-.33.23-.61.23c-.27,0-.47-.07-.6-.21-.14-.14-.2-.35-.2-.62v-.14h-1.38v2.34h3.63v-.93c0-.35.07-.6.2-.75s.35-.23.65-.23.51.07.64.22c.13.15.19.4.19.75v1.89c0,.28-.05.47-.16.56s-.33.14-.65.14h-6.4c-.34,0-.59-.07-.74-.2s-.22-.36-.22-.66c0-.28.07-.49.21-.63s.35-.21.62-.21h.13v-5.83h-.13c-.27,0-.47-.07-.61-.22-.14-.15-.21-.36-.21-.64,0-.3.08-.52.23-.66.15-.14.4-.21.73-.21h6.4c.32,0,.53.05.64.14.11.1.17.29.17.57v1.75c0,.35-.07.61-.2.76-.13.15-.34.23-.63.23s-.52-.08-.65-.23-.2-.41-.2-.76v-.82Z" style="fill:#2dab66;"/><polyline points="522.91 337.69 620.9 337.69 620.9 601.64" style="fill:none; stroke:#0b5577; stroke-dasharray:0 12; stroke-miterlimit:10; stroke-width:2.25px;"/><polyline points="629.91 337.69 727.9 337.69 727.9 601.64" style="fill:none; stroke:#0b5577; stroke-dasharray:0 12; stroke-miterlimit:10; stroke-width:2.25px;"/><path d="m633.26,551.95c-.17-.08-.28-.17-.34-.27-.06-.1-.09-.25-.09-.45,0-.3.06-.5.17-.58s.33-.13.67-.14l1.5-.03h.09c.31,0,.52.06.64.18.12.12.18.33.18.62,0,.37-.2.65-.59.83-.06.03-.1.05-.14.06-.32.16-.57.38-.73.66-.16.28-.25.6-.25.98,0,.47.11.85.32,1.14s.49.43.83.43c.48,0,.86-.66,1.13-1.98.05-.22.08-.4.11-.53.22-1,.55-1.72,1-2.17.45-.45,1.06-.67,1.84-.67.96,0,1.7.33,2.21.98.52.65.78,1.58.78,2.8,0,.47-.03.9-.09,1.27-.06.37-.16.73-.29,1.08.14.08.23.18.29.29s.09.26.09.45c0,.33-.06.56-.19.69-.12.13-.35.2-.66.2l-1.84.03h-.09c-.34,0-.58-.06-.72-.19-.14-.13-.2-.35-.2-.67,0-.34.25-.62.73-.85.12-.05.21-.09.27-.12.4-.2.7-.48.9-.85.2-.36.3-.8.3-1.33,0-.48-.1-.85-.3-1.12s-.48-.4-.84-.4c-.56,0-.98.6-1.27,1.8-.08.36-.15.64-.21.85-.27,1.01-.6,1.71-1,2.1s-.94.59-1.64.59c-.89,0-1.62-.33-2.18-1-.57-.67-.85-1.54-.85-2.6,0-.35.04-.7.11-1.04.07-.34.18-.68.33-1.02Z"/><path d="m633.34,541.85c-.19-.1-.32-.21-.4-.32s-.12-.25-.12-.41c0-.25.07-.44.2-.54.14-.11.37-.16.7-.16l2.03-.02c.36,0,.6.06.73.18s.19.33.19.64c0,.22-.05.39-.16.5-.11.12-.3.22-.58.3-.5.14-.85.35-1.07.65-.22.3-.33.71-.33,1.23,0,.8.27,1.42.81,1.84.54.43,1.33.64,2.35.64s1.81-.21,2.35-.65c.55-.43.82-1.05.82-1.85,0-.55-.18-1.15-.55-1.81-.36-.66-.55-1.07-.55-1.25,0-.2.09-.37.26-.51.17-.14.39-.21.64-.21.46,0,.89.4,1.3,1.21.41.81.61,1.72.61,2.73,0,1.37-.45,2.47-1.35,3.31s-2.08,1.27-3.53,1.27-2.57-.43-3.49-1.28c-.93-.85-1.39-1.94-1.39-3.25,0-.37.04-.73.12-1.09s.21-.74.39-1.15Z"/><path d="m634.81,535.97h1.8v-2.55h-1.8v.12c0,.28-.07.5-.22.64s-.36.22-.64.22c-.31,0-.53-.08-.66-.23-.14-.15-.2-.41-.2-.76v-2.02c0-.35.07-.61.2-.75s.36-.22.66-.22c.28,0,.5.07.64.21.15.14.22.35.22.63v.13h5.83v-.13c0-.28.07-.49.21-.64.14-.14.35-.22.63-.22.31,0,.53.08.66.23.14.15.2.41.2.77v2.02c0,.36-.07.62-.2.77-.13.15-.36.23-.67.23-.28,0-.49-.07-.63-.22s-.21-.36-.21-.64v-.12h-2.3v2.55h2.3v-.12c0-.28.07-.5.21-.64s.35-.22.63-.22c.31,0,.53.08.66.23.14.15.2.41.2.76v2.02c0,.36-.07.62-.2.77-.13.15-.36.23-.67.23-.28,0-.49-.07-.63-.22-.14-.14-.21-.36-.21-.64v-.13h-5.83v.13c0,.28-.07.49-.22.63-.15.14-.36.21-.64.21-.31,0-.53-.07-.66-.22s-.2-.4-.2-.75v-2.02c0-.35.07-.6.2-.76s.36-.23.66-.23c.28,0,.5.07.64.22s.22.36.22.64v.12Z"/><path d="m634.73,522.85v3.63h2v-1.38h-.09c-.3,0-.52-.06-.66-.2-.15-.13-.22-.33-.22-.59,0-.23.07-.43.2-.57s.3-.22.5-.22c.01,0,.04,0,.1,0,.06,0,.11,0,.17,0h1.62c.35,0,.6.06.75.19s.23.33.23.61c0,.27-.07.47-.21.6-.14.14-.35.2-.62.2h-.14v1.38h2.34v-3.63h-.93c-.35,0-.6-.07-.75-.2s-.23-.35-.23-.65.07-.51.22-.64c.15-.13.4-.19.75-.19h1.89c.28,0,.47.05.56.16s.14.33.14.65v6.4c0,.34-.07.59-.2.74s-.36.22-.66.22c-.28,0-.49-.07-.63-.21s-.21-.35-.21-.62v-.13h-5.83v.13c0,.27-.07.47-.22.61-.15.14-.36.21-.64.21-.3,0-.52-.07-.66-.23-.14-.15-.21-.39-.21-.73v-6.4c0-.32.05-.53.14-.64.1-.11.29-.17.57-.17h1.75c.35,0,.61.07.76.2.15.13.23.34.23.63s-.08.52-.23.65-.41.2-.76.2h-.82Z"/><path d="m640.63,518.78h-5.83v.13c0,.28-.07.5-.22.64-.15.15-.36.22-.64.22-.3,0-.52-.08-.66-.23s-.21-.41-.21-.76v-1.93c0-1.09.05-1.88.14-2.39.09-.5.25-.93.47-1.29.38-.63.91-1.11,1.61-1.45s1.5-.5,2.41-.5c.96,0,1.81.19,2.53.57s1.27.93,1.64,1.63c.17.32.29.69.36,1.12.08.43.11,1.06.11,1.91v2.34c0,.36-.07.62-.2.77-.13.15-.36.23-.67.23-.28,0-.49-.07-.63-.22-.14-.14-.21-.36-.21-.64v-.13Zm-5.86-2.02h5.86v-.45c0-.98-.24-1.71-.72-2.18s-1.22-.7-2.22-.7-1.72.24-2.2.71-.73,1.2-.73,2.15c0,.12,0,.22,0,.29,0,.07,0,.12.01.18Z"/><path d="m634.81,507.5h4.09c.72,0,1.24-.12,1.54-.38.3-.25.46-.67.46-1.26s-.15-1.01-.46-1.27c-.31-.25-.82-.38-1.54-.38h-4.09v.12c0,.28-.07.49-.22.63-.15.14-.36.21-.64.21-.31,0-.53-.07-.66-.22s-.2-.4-.2-.75v-1.95c0-.35.07-.61.2-.75s.36-.22.66-.22c.28,0,.5.07.64.21.15.14.22.35.22.63v.13h4.05c1.31,0,2.26.28,2.85.85.59.57.88,1.48.88,2.73s-.29,2.25-.86,2.82-1.53.86-2.86.86h-4.05v.13c0,.28-.07.5-.22.64-.15.15-.36.22-.64.22-.31,0-.53-.08-.66-.23-.14-.15-.2-.41-.2-.76v-2.02c0-.35.07-.6.2-.76s.36-.23.66-.23c.28,0,.5.07.64.22s.22.36.22.64v.12Z"/><path d="m634.81,497.13h5.83v-3.55h-1.39c-.36,0-.61-.06-.77-.19-.15-.13-.23-.34-.23-.64s.08-.51.23-.65c.15-.13.41-.2.76-.2h2.4c.28,0,.47.05.56.16s.14.33.14.66v7.09c0,.34-.07.58-.2.73-.14.15-.36.22-.66.22s-.52-.07-.65-.21c-.13-.14-.2-.39-.2-.73v-.69h-5.83v.69c0,.34-.07.58-.2.73-.14.15-.35.22-.66.22s-.52-.08-.66-.23c-.14-.15-.21-.4-.21-.73v-3.33c0-.33.07-.58.21-.73.14-.15.36-.23.66-.23s.52.08.66.23c.14.15.2.4.2.73v.67Z"/><path d="m634.73,484.45v3.63h2v-1.38h-.09c-.3,0-.52-.06-.66-.2-.15-.13-.22-.33-.22-.59,0-.23.07-.43.2-.57s.3-.22.5-.22c.01,0,.04,0,.1,0,.06,0,.11,0,.17,0h1.62c.35,0,.6.06.75.19s.23.33.23.61c0,.27-.07.47-.21.6-.14.14-.35.2-.62.2h-.14v1.38h2.34v-3.63h-.93c-.35,0-.6-.07-.75-.2s-.23-.35-.23-.65.07-.51.22-.64c.15-.13.4-.19.75-.19h1.89c.28,0,.47.05.56.16s.14.33.14.65v6.4c0,.34-.07.59-.2.74s-.36.22-.66.22c-.28,0-.49-.07-.63-.21s-.21-.35-.21-.62v-.13h-5.83v.13c0,.27-.07.47-.22.61-.15.14-.36.21-.64.21-.3,0-.52-.07-.66-.23-.14-.15-.21-.39-.21-.73v-6.4c0-.32.05-.53.14-.64.1-.11.29-.17.57-.17h1.75c.35,0,.61.07.76.2.15.13.23.34.23.63s-.08.52-.23.65-.41.2-.76.2h-.82Z"/><path d="m638.09,475.13c.08-.13.23-.27.45-.4.03-.02.06-.04.08-.05l2.02-1.27v-.24c0-.3.07-.53.21-.68.14-.15.35-.23.63-.23.31,0,.53.08.66.23.14.15.2.41.2.76v.96c0,.36-.15.63-.46.83l-.02.02-2.95,1.91c-.11.07-.2.16-.26.25s-.09.19-.09.3v.73h2.06v-.12c0-.28.07-.49.21-.64.14-.14.35-.21.63-.21.31,0,.53.07.66.22s.2.4.2.75v2.02c0,.35-.07.6-.2.75-.14.15-.36.23-.66.23-.28,0-.49-.07-.63-.21-.14-.14-.21-.35-.21-.63v-.13h-5.83v.13c0,.27-.07.48-.22.62-.15.15-.36.22-.64.22-.3,0-.52-.08-.66-.23-.14-.15-.21-.4-.21-.75v-3.6c0-1.1.21-1.94.64-2.51.43-.57,1.06-.85,1.9-.85.58,0,1.09.16,1.52.47.43.32.74.77.95,1.36Zm-3.33,3.21h2.21v-1.05c0-.65-.08-1.11-.25-1.37-.17-.26-.45-.39-.85-.39s-.67.12-.85.36c-.17.24-.26.62-.26,1.14v1.31Z"/><path d="m749.55,552.39h-5.83v.13c0,.28-.07.5-.22.64-.15.15-.36.22-.64.22-.3,0-.52-.08-.66-.23s-.21-.41-.21-.76v-1.93c0-1.09.05-1.88.14-2.39.09-.5.25-.93.47-1.29.38-.63.91-1.11,1.61-1.45s1.5-.5,2.41-.5c.96,0,1.81.19,2.53.57s1.27.93,1.64,1.63c.17.32.29.69.36,1.12.08.43.11,1.06.11,1.91v2.34c0,.36-.07.62-.2.77-.13.15-.36.23-.67.23-.28,0-.49-.07-.63-.22-.14-.14-.21-.36-.21-.64v-.13Zm-5.86-2.02h5.86v-.45c0-.98-.24-1.71-.72-2.18s-1.22-.7-2.22-.7-1.72.24-2.2.71-.73,1.2-.73,2.15c0,.12,0,.22,0,.29,0,.07,0,.12.01.18Z"/><path d="m749.55,535.56v-.13c0-.28.07-.49.21-.64.14-.14.35-.22.63-.22.31,0,.53.08.66.23.14.15.2.41.2.76v2.35c0,.36-.07.62-.2.77-.13.15-.36.23-.67.23s-.52-.07-.65-.23c-.13-.15-.2-.41-.2-.77v-.27l-.91.32v3.38l.91.34v-.27c0-.35.07-.61.2-.76.13-.15.35-.23.64-.23s.53.08.66.23c.14.15.2.41.2.76v2.02c0,.36-.07.62-.2.77-.14.15-.36.23-.66.23-.28,0-.49-.07-.63-.22-.14-.14-.21-.36-.21-.64v-.13l-5.83-2.09v.62c0,.36-.07.61-.2.76-.14.15-.35.23-.66.23s-.53-.08-.66-.23c-.14-.15-.2-.41-.2-.76v-2.93c0-.46.25-.79.75-.98h.02l6.78-2.48Zm-5.83,4.09l3.3,1.13v-2.27l-3.3,1.13Z"/><path d="m743.71,527.26v1.63h5.83v-1.31c0-.35.07-.6.2-.75.14-.15.35-.23.66-.23s.53.08.66.23c.14.15.2.4.2.75v4.64c0,.34-.07.59-.2.74-.14.15-.36.23-.66.23s-.53-.07-.66-.22-.2-.4-.2-.75v-1.31h-5.83v1.63l1.59.05h.2c.25,0,.45.07.59.21.14.14.21.33.21.57,0,.29-.07.51-.22.64-.15.14-.38.21-.71.21h-.06l-2.34-.09c-.46-.02-.74-.08-.84-.19-.09-.11-.14-.34-.14-.68v-6.72c0-.34.05-.57.14-.68.09-.11.37-.18.84-.2l2.34-.08h.06c.33,0,.57.07.71.2.15.13.22.34.22.63s-.07.48-.21.61c-.14.12-.4.19-.78.2l-1.59.05Z"/><path d="m749.55,516.36v-.13c0-.28.07-.49.21-.64.14-.14.35-.22.63-.22.31,0,.53.08.66.23.14.15.2.41.2.76v2.35c0,.36-.07.62-.2.77-.13.15-.36.23-.67.23s-.52-.07-.65-.23c-.13-.15-.2-.41-.2-.77v-.27l-.91.32v3.38l.91.34v-.27c0-.35.07-.61.2-.76.13-.15.35-.23.64-.23s.53.08.66.23c.14.15.2.41.2.76v2.02c0,.36-.07.62-.2.77-.14.15-.36.23-.66.23-.28,0-.49-.07-.63-.22-.14-.14-.21-.36-.21-.64v-.13l-5.83-2.09v.62c0,.36-.07.61-.2.76-.14.15-.35.23-.66.23s-.53-.08-.66-.23c-.14-.15-.2-.41-.2-.76v-2.93c0-.46.25-.79.75-.98h.02l6.78-2.48Zm-5.83,4.09l3.3,1.13v-2.27l-3.3,1.13Z"/><path d="m746.35,508.07c.21-.57.49-.98.86-1.25s.82-.4,1.39-.4c.47,0,.91.12,1.3.34.39.23.71.56.96.98.15.25.25.53.32.84.07.31.1.75.1,1.32v4.08c0,.34-.07.59-.2.74s-.36.22-.66.22c-.28,0-.49-.07-.63-.21-.14-.14-.21-.35-.21-.62v-.13h-5.83v.13c0,.27-.07.48-.22.62-.15.14-.36.21-.64.21-.3,0-.52-.07-.66-.23-.14-.15-.21-.39-.21-.73v-3.59c0-1.1.21-1.93.64-2.5s1.05-.86,1.88-.86c.41,0,.76.09,1.07.26.31.18.56.43.76.78Zm-2.67,3.98h1.97v-1.05c0-.64-.08-1.09-.23-1.36-.15-.26-.41-.39-.77-.39-.34,0-.59.12-.74.36-.16.24-.23.62-.23,1.15v1.3Zm3.54,0h2.38v-1.17c0-.83-.09-1.41-.27-1.75-.18-.34-.49-.51-.91-.51s-.74.16-.92.48c-.18.32-.27.89-.27,1.7v1.25Z"/><path d="m749.55,497.15v-.13c0-.28.07-.49.21-.64.14-.14.35-.22.63-.22.31,0,.53.08.66.23.14.15.2.41.2.76v2.35c0,.36-.07.62-.2.77-.13.15-.36.23-.67.23s-.52-.07-.65-.23c-.13-.15-.2-.41-.2-.77v-.27l-.91.32v3.38l.91.34v-.27c0-.35.07-.61.2-.76.13-.15.35-.23.64-.23s.53.08.66.23c.14.15.2.41.2.76v2.02c0,.36-.07.62-.2.77-.14.15-.36.23-.66.23-.28,0-.49-.07-.63-.22-.14-.14-.21-.36-.21-.64v-.13l-5.83-2.09v.62c0,.36-.07.61-.2.76-.14.15-.35.23-.66.23s-.53-.08-.66-.23c-.14-.15-.2-.41-.2-.76v-2.93c0-.46.25-.79.75-.98h.02l6.78-2.48Zm-5.83,4.09l3.3,1.13v-2.27l-3.3,1.13Z"/><path d="m742.18,489.54c-.17-.08-.28-.17-.34-.27-.06-.1-.09-.25-.09-.45,0-.3.06-.5.17-.58s.33-.13.67-.14l1.5-.03h.09c.31,0,.52.06.64.18.12.12.18.33.18.62,0,.37-.2.65-.59.83-.06.03-.1.05-.14.06-.32.16-.57.38-.73.66-.16.28-.25.6-.25.98,0,.47.11.85.32,1.14s.49.43.83.43c.48,0,.86-.66,1.13-1.98.05-.22.08-.4.11-.53.22-1,.55-1.72,1-2.17.45-.45,1.06-.67,1.84-.67.96,0,1.7.33,2.21.98.52.65.78,1.58.78,2.8,0,.47-.03.9-.09,1.27-.06.37-.16.73-.29,1.08.14.08.23.18.29.29s.09.26.09.45c0,.33-.06.56-.19.69-.12.13-.35.2-.66.2l-1.84.03h-.09c-.34,0-.58-.06-.72-.19-.14-.13-.2-.35-.2-.67,0-.34.25-.62.73-.85.12-.05.21-.09.27-.12.4-.2.7-.48.9-.85.2-.36.3-.8.3-1.33,0-.48-.1-.85-.3-1.12s-.48-.4-.84-.4c-.56,0-.98.6-1.27,1.8-.08.36-.15.64-.21.85-.27,1.01-.6,1.71-1,2.1s-.94.59-1.64.59c-.89,0-1.62-.33-2.18-1-.57-.67-.85-1.54-.85-2.6,0-.35.04-.7.11-1.04.07-.34.18-.68.33-1.02Z"/><path d="m743.65,479.65v3.63h2v-1.38h-.09c-.3,0-.52-.06-.66-.2-.15-.13-.22-.33-.22-.59,0-.23.07-.43.2-.57s.3-.22.5-.22c.01,0,.04,0,.1,0,.06,0,.11,0,.17,0h1.62c.35,0,.6.06.75.19s.23.33.23.61c0,.27-.07.47-.21.6-.14.14-.35.2-.62.2h-.14v1.38h2.34v-3.63h-.93c-.35,0-.6-.07-.75-.2s-.23-.35-.23-.65.07-.51.22-.64c.15-.13.4-.19.75-.19h1.89c.28,0,.47.05.56.16s.14.33.14.65v6.4c0,.34-.07.59-.2.74s-.36.22-.66.22c-.28,0-.49-.07-.63-.21s-.21-.35-.21-.62v-.13h-5.83v.13c0,.27-.07.47-.22.61-.15.14-.36.21-.64.21-.3,0-.52-.07-.66-.23-.14-.15-.21-.39-.21-.73v-6.4c0-.32.05-.53.14-.64.1-.11.29-.17.57-.17h1.75c.35,0,.61.07.76.2.15.13.23.34.23.63s-.08.52-.23.65-.41.2-.76.2h-.82Z"/><circle cx="619.79" cy="639.48" r="21.89" style="fill:#706f6f;"/><path d="m650.31,641.51c-.48,5.73-2.87,11.17-6.4,15.55-3.54,4.4-8.23,7.84-13.48,9.87-5.24,2.03-11.12,2.56-16.61,1.26-5.5-1.27-10.51-4.3-14.3-8.39-3.81-4.09-6.43-9.24-7.46-14.71-1.05-5.46-.46-11.23,1.71-16.33,2.15-5.11,5.84-9.54,10.45-12.56,4.6-3.04,10.11-4.65,15.59-4.6v.86c-5.32.04-10.59,1.69-14.96,4.68-4.37,2.98-7.82,7.27-9.77,12.15-1.97,4.88-2.43,10.33-1.35,15.46,1.06,5.13,3.61,9.93,7.23,13.68,3.61,3.76,8.3,6.47,13.36,7.55,5.05,1.1,10.4.54,15.19-1.41,4.79-1.94,9.05-5.18,12.21-9.25,3.16-4.06,5.2-8.99,5.54-14.05l3.06.24Z" style="fill:#706f6f;"/><polygon points="640.67 646.25 641.79 647.61 648.51 642.05 653.57 649.15 655.01 648.13 648.85 639.47 640.67 646.25" style="fill:#706f6f;"/><path d="m619.58,643.08c-.12,0-.25-.03-.36-.09-.25-.13-.41-.4-.41-.68v-17.74c0-.43.35-.77.77-.77s.77.35.77.77v16.28l7.3-4.93c.35-.24.83-.14,1.07.21.24.35.15.83-.21,1.07l-8.5,5.75c-.13.09-.28.13-.43.13Z" style="fill:#fff;"/><circle cx="619.88" cy="621.18" r=".54" style="fill:#fff;"/><circle cx="619.88" cy="658.15" r=".54" style="fill:#fff;"/><circle cx="606.81" cy="626.59" r=".54" style="fill:#fff;"/><circle cx="632.95" cy="652.73" r=".54" style="fill:#fff;"/><circle cx="601.39" cy="639.66" r=".54" style="fill:#fff;"/><circle cx="638.36" cy="639.66" r=".54" style="fill:#fff;"/><circle cx="606.81" cy="652.73" r=".54" style="fill:#fff;"/><circle cx="632.95" cy="626.59" r=".54" style="fill:#fff;"/></g><g id="Data_Protection"><path d="m739.63,667.91c-.28-.16-.56-.35-.85-.49-5.94-2.88-10.57-6.98-12.23-13.65-.42-1.7-.4-3.53-.47-5.31-.05-1.36,0-2.73.13-4.09.11-1.15.82-1.95,1.92-2.31,5.85-1.89,11.77-3.07,17.91-1.55,1.92.47,3.84.94,5.75,1.45,1.47.39,2.3,1.43,2.35,2.9.09,2.92.26,5.86-.37,8.75-1.01,4.62-3.71,8.13-7.42,10.88-1.56,1.15-3.32,2.02-5,3.02-.24.14-.48.27-.73.4h-1Z" style="fill:#706f6f;"/><path d="m724.03,627.72c-6.28,0-12.56,0-18.83,0-.31,0-.62.01-.92-.02-1.42-.13-2.17-.7-2.25-2.11-.12-2.05-.18-4.14.03-6.18.24-2.41,1.72-3.6,4.15-3.74.28-.02.56,0,.84,0,11.41,0,22.82,0,34.23,0,3.24,0,4.89,1.65,4.89,4.89,0,1.45,0,2.9,0,4.35,0,1.98-.82,2.81-2.8,2.81-6.45,0-12.89,0-19.34,0Z" style="fill:#706f6f;"/><path d="m721.99,643.8c-.28,0-.56,0-.83,0-5.39,0-10.77,0-16.16,0-2.3,0-3.05-.76-3.05-3.07,0-2.04,0-4.07,0-6.11,0-2.04.8-2.87,2.83-2.87,12.81,0,25.62,0,38.43,0,2.2,0,2.95.79,2.95,3,0,.47,0,.94,0,1.5-.63-.07-1.17-.13-1.71-.2-6.07-.78-11.96.13-17.69,2.11-2.38.82-4.05,2.52-4.58,5.12-.03.16-.11.31-.19.51Z" style="fill:#706f6f;"/><path d="m724.11,659.87h-1.4c-5.3,0-10.6,0-15.91,0-3.21,0-4.86-1.64-4.86-4.83,0-1.53-.02-3.07,0-4.6.03-1.69.77-2.58,2.4-2.6,5.86-.05,11.71-.02,17.55-.02.14,2.08.11,4.15.48,6.16.36,1.97,1.12,3.87,1.72,5.89Z" style="fill:#706f6f;"/></g></svg>