<svg style="height:1.5rem; width:1.5rem;" 
      viewBox="0 0 48 46"
        fill="none"
        xmlns="http://www.w3.org/2000/svg">
    <path style="fill:#eab308"  d="M43.218 28.2327L43.6765 23.971C43.921 21.6973 44.0825 20.1957 43.9557 19.2497L44 19.25C46.071 19.25 47.75 17.5711 47.75 15.5C47.75 13.4289 46.071 11.75 44 11.75C41.929 11.75 40.25 13.4289 40.25 15.5C40.25 16.4366 40.5935 17.2931 41.1613 17.9503C40.346 18.4535 39.2805 19.515 37.6763 21.1128C36.4405 22.3438 35.8225 22.9593 35.1333 23.0548C34.7513 23.1075 34.3622 23.0532 34.0095 22.898C33.373 22.6175 32.9485 21.8567 32.0997 20.335L27.6262 12.3135C27.1025 11.3747 26.6642 10.5889 26.2692 9.95662C27.89 9.12967 29 7.44445 29 5.5C29 2.73857 26.7615 0.5 24 0.5C21.2385 0.5 19 2.73857 19 5.5C19 7.44445 20.11 9.12967 21.7308 9.95662C21.3358 10.589 20.8975 11.3746 20.3738 12.3135L15.9002 20.335C15.0514 21.8567 14.627 22.6175 13.9905 22.898C13.6379 23.0532 13.2487 23.1075 12.8668 23.0548C12.1774 22.9593 11.5595 22.3438 10.3238 21.1128C8.71968 19.515 7.6539 18.4535 6.83882 17.9503C7.4066 17.2931 7.75 16.4366 7.75 15.5C7.75 13.4289 6.07107 11.75 4 11.75C1.92893 11.75 0.25 13.4289 0.25 15.5C0.25 17.5711 1.92893 19.25 4 19.25L4.04428 19.2497C3.91755 20.1957 4.07905 21.6973 4.32362 23.971L4.782 28.2327C5.03645 30.5982 5.24802 32.849 5.50717 34.875H42.4928C42.752 32.849 42.9635 30.5982 43.218 28.2327Z" fill="#1C274C" />
    <path style="fill:#eab308"  d="M21.2803 45.5H26.7198C33.8098 45.5 37.3545 45.5 39.7198 43.383C40.7523 42.4588 41.4057 40.793 41.8775 38.625H6.1224C6.59413 40.793 7.24783 42.4588 8.2802 43.383C10.6454 45.5 14.1903 45.5 21.2803 45.5Z" fill="#1C274C" />
</svg>