<?xml version="1.0" encoding="UTF-8"?>
<svg xmlns="http://www.w3.org/2000/svg" version="1.1" viewBox="0 0 45.6 39.3">
  <defs>
    <style>
      .cls-1 {
        fill: #eaeaea;
      }

      .cls-2 {
        fill: #efefef;
      }

      .cls-3 {
        fill: #e5e5e5;
      }

      .cls-4 {
        fill: #fff;
      }

      .cls-5 {
        fill: #fafafa;
      }

      .cls-6 {
        fill: #f5f5f5;
      }
    </style>
  </defs>
  <!-- Generator: Adobe Illustrator 28.7.1, SVG Export Plug-In . SVG Version: 1.2.0 Build 142)  -->
  <g>
    <g id="Calque_2">
      <g id="Calque_2-2">
        <g id="Calque_1-2">
          <g>
            <polygon class="cls-5" points="40.4 5.2 31.4 10.4 14.1 10.4 5.2 5.2 13.9 0 31.6 0 40.4 5.2"/>
            <polygon class="cls-3" points="45.6 12.8 34.9 19.4 31.4 10.4 40.4 5.2 45.6 12.8"/>
            <polygon class="cls-1" points="45.6 12.8 22.7 39.3 34.9 19.4 45.6 12.8"/>
            <polygon class="cls-2" points="14.1 10.4 10.3 19.4 0 12.8 5.2 5.2 14.1 10.4"/>
            <polygon class="cls-1" points="22.7 39.3 0 12.8 10.3 19.4 22.7 39.3"/>
            <polygon class="cls-6" points="34.9 19.4 22.7 39.3 10.3 19.4 34.9 19.4"/>
            <polygon class="cls-4" points="34.9 19.4 10.3 19.4 14.1 10.4 31.4 10.4 34.9 19.4"/>
          </g>
        </g>
      </g>
    </g>
  </g>
</svg>