<?xml version="1.0" encoding="UTF-8"?>
<svg xmlns="http://www.w3.org/2000/svg" version="1.1" viewBox="0 0 107.3 113.4">
  <defs>
    <style>
      .cls-1 {
        fill: #0b5577;
      }

      .cls-2 {
        fill: #2eac68;
      }

      .cls-3 {
        fill: #fff;
      }
    </style>
  </defs>
  <!-- Generator: Adobe Illustrator 28.7.1, SVG Export Plug-In . SVG Version: 1.2.0 Build 142)  -->
  <g>
    <g id="Calque_1">
      <g>
        <path class="cls-1" d="M97.5,66.6c-.7-6.7-2.1-14.1-8.5-17.7-2.7-1.5-3.7-5.2-1.9-7.8,3.9-5.8,3.7-12.6,3-19.2-1.8-15.9-15.1-22.5-39.9-19.2-15.8,2.1-23.7,3.2-39.4,5.6-3.6.6-6.1,3.7-5.5,7.1,3.7,23.4,7.4,46.7,11.1,70.1h76.5c4-4.9,5.6-11.2,4.7-18.9ZM44.8,71.4c-.3-6.9-.5-10.3-.8-17.2-2.9-1.6-5-4.4-5.5-7.8-.8-5.9,3.5-11.4,9.7-12.2,6.2-.8,11.8,3.3,12.5,9.2.4,3.4-.9,6.7-3.2,9,1.5,6.7,2.3,10.1,3.8,16.8-6.6.9-9.9,1.3-16.5,2.2Z"/>
        <g>
          <rect class="cls-2" x="8.6" y="89" width="93.7" height="24.5"/>
          <g>
            <path class="cls-3" d="M40.2,111h-1.9s-3.4-9.9-3.4-9.9l-3.3,9.9h-1.9s-3.2-14.3-3.2-14.3h-.8c-.4,0-.6,0-.8-.2s-.2-.3-.2-.6,0-.4.2-.6.4-.2.8-.2h4.2c.4,0,.6,0,.8.2s.2.3.2.6,0,.4-.2.6-.4.2-.8.2h-2s2.8,12.2,2.8,12.2l3.3-9.8h1.8s3.4,9.7,3.4,9.7l2.6-12.2h-1.9c-.4,0-.6,0-.8-.2-.2-.1-.2-.3-.2-.6s0-.4.2-.6.4-.2.8-.2h4.2c.4,0,.6,0,.8.2s.2.3.2.6,0,.4-.2.6-.4.2-.8.2h-.7s-3.1,14.4-3.1,14.4Z"/>
            <path class="cls-3" d="M65.8,103.3h-15.7c.3,2.1,1.1,3.7,2.5,4.9,1.4,1.2,3.1,1.8,5.2,1.8s2.4-.2,3.6-.6c1.3-.4,2.3-.9,3.1-1.5.2-.2.4-.3.6-.3s.4,0,.5.2c.1.2.2.3.2.5s0,.4-.3.6c-.6.6-1.6,1.2-3.1,1.7-1.5.5-3,.8-4.6.8-2.6,0-4.9-.8-6.6-2.6-1.8-1.7-2.7-3.8-2.7-6.3s.8-4.2,2.5-5.8c1.7-1.6,3.7-2.4,6.2-2.4s4.6.8,6.2,2.4c1.6,1.6,2.4,3.8,2.4,6.4ZM64.2,101.8c-.3-1.7-1.1-3.1-2.4-4.1-1.3-1.1-2.9-1.6-4.7-1.6-1.8,0-3.3.5-4.6,1.6-1.3,1.1-2.1,2.5-2.4,4.2h14.1Z"/>
            <path class="cls-3" d="M74.1,87.8v10.2c1.9-2.4,4.1-3.7,6.8-3.7s4.2.8,5.8,2.4c1.6,1.6,2.4,3.6,2.4,6s-.8,4.4-2.4,6.1c-1.6,1.7-3.5,2.5-5.7,2.5s-4.9-1.2-6.8-3.6v3s-3.6,0-3.6,0c-.4,0-.6,0-.8-.2s-.2-.3-.2-.5,0-.4.2-.6c.2-.1.4-.2.8-.2h2.1s0-19.9,0-19.9h-2.1c-.4,0-.6,0-.8-.2s-.2-.3-.2-.6,0-.4.2-.6.4-.2.8-.2h3.6ZM87.6,102.9c0-1.9-.7-3.6-2-4.9-1.3-1.3-2.9-2-4.7-2s-3.3.7-4.7,2c-1.3,1.4-2,3-2,5s.7,3.6,2,4.9,2.9,2,4.7,2,3.3-.7,4.7-2c1.3-1.4,2-3,2-5Z"/>
          </g>
        </g>
      </g>
    </g>
  </g>
</svg>