<svg xmlns="http://www.w3.org/2000/svg" width="24" height="24" viewBox="0 0 24 24"><path d="M4 8h16" fill="none" stroke="#0b354a" stroke-width="2" stroke-linecap="round" stroke-linejoin="round"/><path d="M4 6a2 2 0 0 1 2 -2h12a2 2 0 0 1 2 2v12a2 2 0 0 1 -2 2h-12a2 2 0 0 1 -2 -2l0 -12" fill="none" stroke="#0b354a" stroke-width="2" stroke-linecap="round" stroke-linejoin="round"/><path d="M8 4v4" fill="none" stroke="#0b354a" stroke-width="2" stroke-linecap="round" stroke-linejoin="round"/><g transform="translate(11 11) scale(0.52)"><path d="M3 12a9 9 0 1 0 18 0a9 9 0 0 0 -18 0" fill="none" stroke="#0b354a" stroke-width="3.6" stroke-linecap="round" stroke-linejoin="round"/><path d="M12 7v5l3 3" fill="none" stroke="#0b354a" stroke-width="3.6" stroke-linecap="round" stroke-linejoin="round"/></g></svg>