<svg xmlns="http://www.w3.org/2000/svg" width="24" height="24" viewBox="0 0 24 24"><path d="M15 5l0 2" fill="none" stroke="#0b354a" stroke-width="2" stroke-linecap="round" stroke-linejoin="round"/><path d="M15 11l0 2" fill="none" stroke="#0b354a" stroke-width="2" stroke-linecap="round" stroke-linejoin="round"/><path d="M15 17l0 2" fill="none" stroke="#0b354a" stroke-width="2" stroke-linecap="round" stroke-linejoin="round"/><path d="M5 5h14a2 2 0 0 1 2 2v3a2 2 0 0 0 0 4v3a2 2 0 0 1 -2 2h-14a2 2 0 0 1 -2 -2v-3a2 2 0 0 0 0 -4v-3a2 2 0 0 1 2 -2" fill="none" stroke="#0b354a" stroke-width="2" stroke-linecap="round" stroke-linejoin="round"/></svg>