<?xml version="1.0" encoding="UTF-8"?><svg xmlns="http://www.w3.org/2000/svg" xmlns:xlink="http://www.w3.org/1999/xlink" viewBox="0 0 800 716.46"><defs><clipPath id="clippath"><rect x="275.46" y="197.42" width="249.08" height="69.76" style="fill:none;"/></clipPath><clipPath id="clippath-1"><rect x="275.46" y="197.42" width="249.08" height="69.76" style="fill:none;"/></clipPath></defs><g id="Calque_1"><g id="Illustration_3"><g style="clip-path:url(#clippath);"><rect x="364.84" y="244.84" width="85.59" height="22.34" style="fill:#2eac68;"/><g style="clip-path:url(#clippath-1);"><path d="m499.13,238.04c.15-1.16,1.18-1.94,2.37-1.79.92.12,1.69.88,1.75,1.87.13,1.38.23,2.47.33,3.52h14.63c-.22-1.64-.45-3.3-.75-5.48-.09-.74.22-1.48.82-1.84,3.1-2.22,4.98-6.17,5.93-11.42,2.14-11.92-6.62-17.23-17.28-18.45-6.84-.91-10.27-1.33-17.12-2.09-1.23-.14-2.29.66-2.42,1.82-1.36,12.49-2.71,24.98-4.06,37.46h15.34c.14-1.08.28-2.16.46-3.6m-1.42-20.63c2.3.52,3.45.78,5.75,1.31.79-.73,1.9-1.12,3.08-.94,2.02.3,3.43,2.11,3.13,4.04-.29,1.93-2.15,3.25-4.16,2.95-1.16-.17-2.11-.85-2.66-1.77-2.34-.13-3.51-.19-5.85-.29.29-2.12.43-3.18.72-5.29" style="fill:#0b5577;"/><path d="m480.94,234.87c.1-.97-.67-1.9-1.66-2-5.62-.57-8.43-.83-14.05-1.3-1.06-.09-1.85-1-1.76-2.03,0-.08,0-.12.02-.19.08-.97,1.01-1.74,2.07-1.65,4.06.34,6.09.52,10.15.91.99.1,1.94-.66,2.04-1.69.32-3.25.48-4.88.81-8.14.1-.97-.7-1.89-1.71-1.99-4.12-.4-6.18-.58-10.3-.93-1.08-.09-1.89-1-1.8-2.04.08-.97,1.03-1.74,2.11-1.65,5.77.48,8.65.75,14.41,1.34,1.01.1,1.98-.64,2.09-1.68.34-3.3.52-4.96.86-8.26.1-.97-.7-1.9-1.73-2-10.19-.97-20.36-1.81-30.57-2.53-1.1-.07-2.05.72-2.11,1.69-.81,13.23-1.62,26.46-2.43,39.7-.03.45.12.87.36,1.21h32.49c.25-2.39.42-4,.71-6.77" style="fill:#0b5577;"/><path d="m445.3,240.17c-2.27-8.14-3.45-12.2-5.87-20.33-.05-.26-.03-.65.04-.91,2.91-7.31,4.4-10.96,7.44-18.25.4-.95-.3-1.97-1.4-2.03-4.98-.28-7.47-.4-12.46-.6-.69-.03-1.33.4-1.55.98-1.99,5.25-2.97,7.87-4.9,13.13-.22.58-.84,1.01-1.52.99-.88-.03-1.53-.69-1.51-1.54.14-4.95.21-7.43.36-12.39.02-.84-.65-1.51-1.54-1.54-5.12-.14-7.68-.19-12.81-.24-.9,0-1.59.63-1.6,1.48-.12,13.49-.24,26.99-.36,40.48,0,.84.64,1.5,1.49,1.51,4.85.05,7.27.1,12.12.23.85.02,1.52-.61,1.54-1.45.13-4.59.2-6.89.33-11.48.02-.84.71-1.47,1.57-1.45.05,0,.08,0,.13,0,.66.02,1.18.43,1.43,1.02,1.67,5.07,2.48,7.6,4.09,12.68.24.59.74,1,1.39,1.03,1.12.05,2.11.09,3.04.13h10.16c.36-.37.55-.92.4-1.47" style="fill:#0b5577;"/><path d="m375.17,241.32c1.5-.05,2.7-1.32,2.65-2.81-.12-4.1-.19-6.15-.31-10.25-.03-.84.62-1.38,1.35-1.4.46-.01.87.17,1.15.62,3.23,4.82,4.83,7.24,7.97,12.09.47.9,1.39,1.4,2.43,1.39,4.22-.06,6.33-.07,10.55-.07,1.5,0,2.74-1.23,2.75-2.72.05-12.67.09-25.35.14-38.02,0-1.49-1.3-2.73-2.88-2.73-4.08,0-6.12.01-10.19.06-1.58.02-2.87,1.27-2.85,2.77.06,3.74.09,5.6.15,9.34.01.78-.66,1.31-1.4,1.32-.41,0-.88-.18-1.16-.56-3.29-4.53-4.95-6.79-8.33-11.28-.5-.76-1.48-1.25-2.52-1.22-4.46.15-6.69.23-11.15.44-1.58.07-2.83,1.37-2.75,2.86.63,12.66,1.27,25.31,1.9,37.97.06,1.25.99,2.26,2.17,2.52h2.19c2.92-.13,4.82-.21,8.14-.32" style="fill:#0b5577;"/><path d="m358.29,226.23c-.54-9.82-.81-14.73-1.35-24.55-.09-1.68-1.61-2.97-3.4-2.86-3.8.22-5.7.35-9.49.62-1.79.13-3.13,1.59-3,3.28.76,10.14,1.14,15.22,1.9,25.36.21,2.78-1.26,3.54-3.83,3.75-2.57.21-4.21-.3-4.45-3.08-.87-10.14-1.3-15.2-2.17-25.34-.14-1.68-1.7-2.92-3.49-2.75-3.76.34-5.64.52-9.4.9-1.85.19-3.15,1.7-2.97,3.37,1.04,9.88,1.57,14.83,2.61,24.71.56,5.9,3.1,9.75,6.81,12.02h23.94c5.48-2.7,8.96-7.6,8.3-15.41" style="fill:#0b5577;"/><path d="m317.08,233.11c-.33-3.03-.94-6.36-3.84-8-1.22-.69-1.69-2.35-.87-3.49,1.74-2.61,1.68-5.67,1.35-8.64-.79-7.16-6.81-10.14-17.96-8.67-7.12.94-10.67,1.45-17.77,2.54-1.64.25-2.74,1.68-2.5,3.21,1.67,10.52,3.33,21.04,5,31.56h34.46c1.79-2.22,2.52-5.05,2.14-8.53m-23.75,2.16c-.15-3.1-.22-4.64-.36-7.74-1.3-.72-2.25-1.97-2.47-3.51-.38-2.66,1.57-5.13,4.35-5.51,2.78-.38,5.31,1.49,5.65,4.15.2,1.54-.39,3-1.45,4.04.69,3.02,1.03,4.53,1.72,7.56-2.98.39-4.47.59-7.45,1.01" style="fill:#0b5577;"/><path d="m367.03,241.64h-2.2c.23.05.46.08.7.07.53-.02,1.03-.05,1.5-.07" style="fill:#0b5577;"/><path d="m393.75,264.95l-1.74.02-3.14-9.05-3.05,9.07h-1.74s-2.97-13.1-2.97-13.1h-.69c-.34,0-.58-.06-.72-.2-.15-.13-.22-.31-.22-.52,0-.2.07-.37.22-.5.15-.14.38-.2.72-.2h3.87c.34-.02.58.05.72.18.15.13.22.31.22.52,0,.2-.07.37-.22.5-.15.14-.39.2-.72.2h-1.79s2.54,11.17,2.54,11.17l2.97-8.93h1.68s3.12,8.91,3.12,8.91l2.36-11.18h-1.78c-.34,0-.58-.06-.73-.19-.15-.13-.23-.31-.23-.52,0-.2.07-.37.22-.5.14-.14.39-.2.74-.2h3.86c.35-.02.59.05.74.18.15.13.22.31.22.52,0,.2-.07.37-.22.5-.15.14-.39.2-.74.2h-.67s-2.82,13.11-2.82,13.11Z" style="fill:#fff;"/><path d="m417.1,257.94l-14.36.05c.25,1.82,1.02,3.29,2.31,4.39,1.29,1.11,2.87,1.66,4.76,1.65,1.05,0,2.15-.18,3.3-.53,1.15-.35,2.09-.81,2.81-1.39.21-.17.4-.25.55-.25.18,0,.34.07.47.21.13.14.2.31.2.5,0,.19-.09.37-.27.55-.54.56-1.49,1.09-2.85,1.58-1.37.49-2.77.74-4.22.75-2.42,0-4.43-.77-6.05-2.35-1.62-1.57-2.44-3.49-2.45-5.73,0-2.05.74-3.8,2.25-5.28,1.51-1.47,3.38-2.21,5.62-2.22,2.3,0,4.2.74,5.69,2.24,1.49,1.5,2.23,3.44,2.22,5.84m-1.43-1.42c-.28-1.55-1.03-2.81-2.22-3.78-1.19-.97-2.61-1.45-4.26-1.44-1.64,0-3.06.49-4.24,1.46-1.18.97-1.91,2.24-2.2,3.82l12.92-.05Z" style="fill:#fff;"/><path d="m424.73,243.78l.04,9.34c1.69-2.22,3.74-3.34,6.14-3.34,2.06,0,3.82.73,5.29,2.22,1.47,1.49,2.21,3.32,2.22,5.49,0,2.19-.73,4.05-2.2,5.58-1.48,1.53-3.23,2.29-5.25,2.3-2.46,0-4.52-1.09-6.17-3.3v2.77s-3.29.01-3.29.01c-.34,0-.58-.06-.72-.2-.15-.13-.22-.3-.22-.5,0-.21.07-.38.22-.51.14-.13.38-.19.72-.2h1.9s-.07-18.22-.07-18.22h-1.9c-.34,0-.58-.06-.72-.19-.15-.13-.22-.31-.22-.52,0-.2.07-.37.22-.5.15-.13.39-.2.72-.2h3.3Zm12.28,13.78c0-1.78-.62-3.28-1.85-4.51-1.22-1.23-2.65-1.84-4.28-1.84-1.63,0-3.06.63-4.27,1.87-1.21,1.24-1.82,2.75-1.81,4.53,0,1.78.62,3.28,1.85,4.51,1.22,1.23,2.65,1.84,4.28,1.84,1.63,0,3.06-.63,4.27-1.87,1.21-1.24,1.82-2.75,1.81-4.53" style="fill:#fff;"/></g></g></g><path d="m341.17,122.91c.1-.52.18-1.05.32-1.57,1.15-4.41,5.18-7.44,9.78-7.39,2.14.02,4.07.65,5.79,1.92.08.06.17.11.34.23,0-.23,0-.38,0-.53,0-2.73,0-5.45,0-8.18,0-1.42,1.09-2.27,2.4-1.91.81.23,1.32.9,1.32,1.8,0,2.77,0,5.54,0,8.31,0,2.83.02,5.66,0,8.49-.04,4.51-3.09,8.37-7.46,9.5-5.69,1.47-11.44-2.27-12.37-8.06-.03-.19-.07-.37-.11-.56,0-.69,0-1.37,0-2.06Zm16.22.97c-.01-3.41-2.83-6.22-6.25-6.22-3.44,0-6.25,2.81-6.24,6.26.01,3.49,2.8,6.25,6.3,6.23,3.4-.02,6.2-2.85,6.18-6.27Z" style="fill:#2496ed;"/><path d="m409.56,33.25c.35.22.46.53.46.94-.02,2.19,0,4.37,0,6.56,0,.72-.21.93-.93.94-2.48,0-4.97,0-7.45,0-.72,0-.92-.21-.92-.94,0-2.19,0-4.37,0-6.56,0-.41.11-.72.46-.94h8.4Z" style="fill:#2496ed;"/><path d="m428.56,62.15c-3.78-6.11-1.09-13.14,1.68-16.47,3.01,1.4,6.81,4.88,7.7,10.22,1.02-.08,2.03-.2,3.05-.25,2.04-.09,4.04.14,5.98.83,1.01.36,1.9.91,2.72,1.59.23.19.14.35.08.54-1.15,3.47-3.52,5.8-6.82,7.25-2.05.9-4.23,1.2-6.46,1.15-.37,0-.51.12-.64.44-1.76,4.44-3.86,8.7-6.65,12.6-5.38,7.51-12.55,12.51-21.35,15.22-6.2,1.91-12.56,2.54-19.02,2.28-3.96-.16-7.84-.73-11.66-1.83-6.51-1.87-10.92-6.08-13.66-12.17-1.64-3.65-2.63-7.49-3.04-11.47-.18-1.75-.22-3.5-.33-5.26-.11-1.88,1.32-3.13,3.1-3.13,19.49.03,38.98.02,58.46,0,2.19,0,4.32-.43,6.34-1.3.16-.07.32-.15.5-.25Z" style="fill:#2496ed;"/><path d="m425.74,125.9c.3.55.56,1.14.92,1.65,2.15,3.04,6.5,3.51,9.27,1.03.87-.78,1.99-.77,2.71.01.71.78.63,1.99-.21,2.76-2.11,1.92-4.61,2.72-7.43,2.52-4.34-.31-7.99-3.45-8.96-7.67-1.3-5.63,2.4-11.17,8.09-12.12,5.45-.91,10.65,2.82,11.51,8.27.06.41.1.83.11,1.24.04,1.47-.65,2.18-2.12,2.18-3.6,0-7.21,0-10.81,0h-2.95s-.08.08-.12.12Zm11.98-3.83c-.55-2.66-3.73-4.69-6.72-4.34-2.43.28-5.2,2.62-5.13,4.34h11.85Z" style="fill:#2496ed;"/><path d="m407.8,121.14c.24-.15.39-.24.53-.34,3.33-2.17,6.66-4.33,10-6.49,1.29-.83,2.85-.13,2.98,1.34.07.74-.21,1.32-.86,1.74-2.29,1.47-4.57,2.96-6.86,4.44-.13.09-.26.18-.43.3.57.65,1.12,1.27,1.67,1.89,1.96,2.2,3.92,4.41,5.88,6.61.53.59.76,1.24.49,2.01-.49,1.36-2.17,1.7-3.14.61-2.59-2.9-5.17-5.8-7.76-8.7-.11-.12-.22-.24-.34-.37-.67.44-1.32.84-1.95,1.29-.13.09-.21.34-.21.52-.01,1.98,0,3.96-.01,5.94,0,1.03-.62,1.77-1.57,1.93-1.04.18-2.05-.61-2.13-1.66-.01-.18-.01-.36-.01-.54,0-8.01,0-16.02,0-24.04,0-.28,0-.57.06-.84.2-.87,1.08-1.47,1.99-1.38.89.09,1.6.81,1.66,1.7.01.21.01.42.01.63,0,4.29,0,8.58,0,12.87,0,.15,0,.29,0,.54Z" style="fill:#2496ed;"/><path d="m373.03,113.95c5.59.02,10,4.45,9.97,10.04-.03,5.51-4.49,9.92-10.03,9.9-5.55-.02-9.94-4.47-9.91-10.05.02-5.53,4.44-9.9,9.97-9.89Zm6.23,9.97c0-3.44-2.81-6.26-6.24-6.26-3.42,0-6.22,2.79-6.25,6.22-.03,3.44,2.78,6.27,6.22,6.27,3.45,0,6.26-2.79,6.27-6.23Z" style="fill:#2496ed;"/><path d="m384.88,123.88c0-5.57,4.44-9.96,10.02-9.94,2.4,0,4.52.77,6.36,2.33.66.56.88,1.27.65,2.08-.34,1.22-1.84,1.68-2.91.91-.41-.29-.81-.62-1.25-.86-2.17-1.13-4.32-1.02-6.35.31-2,1.31-2.95,3.24-2.78,5.64.18,2.49,1.48,4.29,3.76,5.27,2.28.98,4.45.66,6.41-.9.9-.71,2.11-.63,2.76.18.66.82.5,1.95-.37,2.7-3.66,3.18-10.03,3.24-13.83-1.11-1.66-1.9-2.48-4.1-2.47-6.62Z" style="fill:#2496ed;"/><path d="m447.47,115.99c.95-.49,1.84-1.05,2.8-1.42,2.21-.85,4.48-.84,6.74-.15.38.11.74.32,1.06.56.78.57.98,1.51.53,2.34-.46.85-1.37,1.2-2.28.85-1.69-.64-3.38-.73-5.04.01-2.44,1.1-3.73,3.04-3.79,5.72-.05,2.71,0,5.42-.02,8.13,0,1.27-1.13,2.12-2.35,1.79-.72-.2-1.17-.68-1.32-1.42-.04-.22-.05-.44-.05-.67,0-5.21,0-10.42,0-15.63,0-.57.08-1.1.49-1.53.53-.57,1.32-.77,2.04-.5.7.26,1.17.9,1.2,1.67,0,.1,0,.21,0,.27Z" style="fill:#2496ed;"/><path d="m394.4,51.84c-1.25,0-2.5,0-3.75,0-.65,0-.9-.24-.9-.88,0-2.23,0-4.46,0-6.7,0-.63.24-.86.88-.86,2.53,0,5.06,0,7.59,0,.62,0,.85.24.86.88,0,2.23,0,4.46,0,6.7,0,.62-.25.87-.87.87-1.26,0-2.53,0-3.79,0Z" style="fill:#2496ed;"/><path d="m383.28,51.84c-1.24,0-2.47,0-3.71,0-.67,0-.91-.24-.91-.92,0-2.2,0-4.4,0-6.61,0-.7.22-.92.9-.92,2.51,0,5.03,0,7.54,0,.63,0,.86.24.86.87,0,2.23,0,4.46,0,6.7,0,.65-.25.88-.9.88-1.26,0-2.53,0-3.79,0Z" style="fill:#2496ed;"/><path d="m405.36,51.84c-1.25,0-2.5,0-3.75,0-.68,0-.91-.23-.91-.91,0-2.2,0-4.4,0-6.61,0-.69.22-.92.9-.92,2.5,0,5,0,7.5,0,.69,0,.91.22.91.91,0,2.2,0,4.4,0,6.61,0,.7-.23.92-.94.92-1.24,0-2.47,0-3.71,0Z" style="fill:#2496ed;"/><path d="m383.32,53.54c1.27,0,2.53,0,3.8,0,.6,0,.86.24.86.83,0,2.25,0,4.5,0,6.75,0,.63-.24.85-.88.85-2.52,0-5.04,0-7.55,0-.66,0-.88-.23-.88-.9,0-2.2,0-4.41,0-6.61,0-.71.23-.92.95-.92,1.24,0,2.47,0,3.71,0Z" style="fill:#2496ed;"/><path d="m394.42,53.54c1.25,0,2.5,0,3.75,0,.65,0,.89.23.89.89,0,2.22,0,4.43,0,6.65,0,.67-.23.89-.88.9-2.51,0-5.03,0-7.54,0-.66,0-.89-.23-.89-.89,0-2.22,0-4.43,0-6.65,0-.67.24-.9.93-.9,1.25,0,2.5,0,3.75,0Z" style="fill:#2496ed;"/><path d="m416.43,53.54c1.25,0,2.5,0,3.75,0,.62,0,.87.24.87.86,0,2.23,0,4.47,0,6.7,0,.63-.24.87-.87.87-2.53,0-5.07,0-7.6,0-.61,0-.85-.23-.85-.84,0-2.25,0-4.5,0-6.75,0-.62.25-.85.89-.85,1.27,0,2.53,0,3.8,0Z" style="fill:#2496ed;"/><path d="m372.37,53.54c1.27,0,2.53,0,3.8,0,.65,0,.89.23.89.88,0,2.22,0,4.44,0,6.66,0,.67-.22.89-.88.89-2.52,0-5.04,0-7.55,0-.64,0-.87-.23-.87-.86,0-2.23,0-4.47,0-6.7,0-.63.25-.87.87-.87,1.25,0,2.5,0,3.75,0Z" style="fill:#2496ed;"/><path d="m405.38,53.54c1.24,0,2.47,0,3.71,0,.69,0,.92.22.92.9,0,2.22,0,4.43,0,6.65,0,.65-.23.89-.88.89-2.52,0-5.03,0-7.55,0-.65,0-.87-.23-.88-.9,0-2.22,0-4.43,0-6.65,0-.65.23-.89.88-.89,1.26,0,2.53,0,3.79,0Z" style="fill:#2496ed;"/><path d="m451.96,133.75c-.74,0-1.32-.56-1.32-1.28,0-.72.58-1.28,1.32-1.28.74,0,1.32.56,1.32,1.28,0,.72-.57,1.28-1.32,1.28Zm0-.28c.56,0,.97-.42.97-1,0-.58-.4-1.01-.96-1.02-.56,0-1.02.46-1.01,1.03.01.56.44.99,1,.99Z" style="fill:#2496ed;"/><path d="m452.44,133.17c-.19-.19-.38-.39-.64-.66-.03.2-.03.26-.05.32-.04.1-.1.2-.16.3-.05-.11-.12-.22-.13-.33-.02-.3,0-.59,0-.97.24,0,.45-.02.67,0,.36.04.41.21.32.55-.06.21.04.47.07.71l-.07.08Z" style="fill:#2496ed;"/><rect x="231.92" y="176.02" width="336.17" height="109.21" rx="14.3" ry="14.3" style="fill:none; stroke:#0b5577; stroke-miterlimit:10;"/><line x1="34.25" y1="234.13" x2="232.9" y2="234.13" style="fill:none; stroke:#e52139; stroke-miterlimit:10; stroke-width:2px;"/><path d="m34.68,241.65c-4.15,0-7.52-3.37-7.52-7.52s3.37-7.52,7.52-7.52,7.52,3.37,7.52,7.52-3.37,7.52-7.52,7.52Z" style="fill:#fff;"/><path d="m34.68,242.65c4.7,0,8.52-3.82,8.52-8.52s-3.82-8.52-8.52-8.52-8.52,3.82-8.52,8.52,3.82,8.52,8.52,8.52-4.7,0,0,0Zm0-15.04c3.6,0,6.52,2.92,6.52,6.52s-2.92,6.52-6.52,6.52-6.52-2.92-6.52-6.52,2.92-6.52,6.52-6.52-3.6,0,0,0Z" style="fill:#e52139;"/><path d="m232.48,241.65c4.15,0,7.52-3.37,7.52-7.52s-3.37-7.52-7.52-7.52-7.52,3.37-7.52,7.52,3.37,7.52,7.52,7.52Z" style="fill:#fff;"/><path d="m232.48,242.65c-4.7,0-8.52-3.82-8.52-8.52s3.82-8.52,8.52-8.52,8.52,3.82,8.52,8.52-3.82,8.52-8.52,8.52,4.7,0,0,0Zm0-15.04c-3.6,0-6.52,2.92-6.52,6.52s2.92,6.52,6.52,6.52,6.52-2.92,6.52-6.52-2.92-6.52-6.52-6.52,3.6,0,0,0Z" style="fill:#e52139;"/><path d="m49.59,192.79v5.83h1.31c.35,0,.61.07.76.2.15.13.23.35.23.64s-.08.52-.23.66-.41.21-.76.21h-4.64c-.35,0-.61-.07-.76-.2-.15-.14-.23-.36-.23-.66s.08-.52.23-.65c.15-.13.41-.2.77-.2h1.31v-5.83h-1.31c-.35,0-.61-.07-.76-.2-.15-.14-.23-.35-.23-.66s.08-.53.23-.66c.15-.13.41-.2.77-.2h4.64c.37,0,.63.07.77.2.15.13.22.35.22.66s-.08.52-.23.66c-.15.14-.41.2-.77.2h-1.31Z" style="fill:#e52139;"/><path d="m61.47,198.6h.1c.29,0,.51.07.66.21.15.14.22.36.22.64,0,.31-.07.53-.22.66s-.4.2-.75.2h-1.92c-.35,0-.6-.07-.75-.2-.15-.14-.23-.36-.23-.66,0-.29.07-.5.22-.64s.37-.21.67-.21h.09v-2.26c0-.62-.09-1.07-.26-1.33-.17-.26-.46-.39-.87-.39-.43,0-.79.16-1.06.47s-.41.73-.41,1.25v2.26h.09c.3,0,.52.07.66.21.15.14.22.36.22.64,0,.31-.08.53-.23.66-.15.14-.4.2-.75.2h-1.94c-.35,0-.6-.07-.75-.2-.15-.14-.23-.36-.23-.66,0-.29.07-.5.22-.64.15-.14.37-.21.66-.21h.09v-3.78h-.13c-.28,0-.5-.07-.64-.21-.15-.14-.22-.35-.22-.63,0-.31.08-.53.23-.66.15-.14.41-.2.77-.2h1.33c.15,0,.26.03.33.09.08.06.11.14.11.25v.61c.24-.38.55-.66.92-.85.37-.19.8-.29,1.29-.29.83,0,1.45.25,1.86.76.41.5.61,1.28.61,2.31v2.61Z" style="fill:#e52139;"/><path d="m70.11,193.53c.06-.2.16-.36.29-.46s.3-.15.51-.15c.28,0,.48.08.6.25.12.17.18.46.18.88v1.28c0,.32-.07.55-.2.7-.13.15-.33.23-.6.23-.19,0-.35-.04-.48-.13-.13-.09-.27-.26-.41-.51-.21-.35-.48-.62-.82-.79-.34-.17-.75-.25-1.24-.25-.61,0-1.11.2-1.5.6-.39.4-.58.91-.58,1.53,0,.65.2,1.17.6,1.57.4.4.94.59,1.62.59.61,0,1.23-.17,1.83-.51.61-.34.98-.51,1.11-.51.19,0,.35.07.48.22.13.15.19.33.19.56,0,.49-.37.93-1.11,1.31s-1.62.58-2.64.58c-1.26,0-2.29-.35-3.07-1.06s-1.18-1.62-1.18-2.73.39-2,1.17-2.72,1.77-1.09,2.95-1.09c.4,0,.79.05,1.17.15.38.1.76.25,1.13.46Z" style="fill:#e52139;"/><path d="m77.39,192.94c1.27,0,2.29.35,3.08,1.06.79.71,1.18,1.62,1.18,2.73s-.39,2.03-1.18,2.73c-.79.71-1.81,1.06-3.08,1.06s-2.28-.35-3.07-1.06c-.79-.71-1.18-1.62-1.18-2.73s.39-2.02,1.18-2.73,1.81-1.06,3.07-1.06Zm0,1.65c-.61,0-1.11.2-1.5.6-.39.4-.59.91-.59,1.53s.2,1.14.59,1.55c.39.41.89.61,1.5.61s1.11-.2,1.51-.61c.4-.41.59-.93.59-1.55s-.2-1.13-.59-1.53c-.39-.4-.9-.6-1.51-.6Z" style="fill:#e52139;"/><path d="m87.49,193.64c.22-.23.47-.41.76-.54.29-.12.59-.18.92-.18.71,0,1.22.21,1.53.63s.47,1.12.47,2.11v2.96h.11c.24,0,.43.07.55.21.12.14.18.35.18.63,0,.31-.06.54-.19.67-.13.13-.35.2-.65.2h-1.33c-.14,0-.25-.03-.33-.09s-.12-.14-.12-.25v-4.41c0-.35-.05-.61-.16-.78s-.27-.26-.48-.26c-.26,0-.46.12-.61.35-.14.23-.21.56-.21,1v2.73h.12c.24,0,.42.07.55.21s.19.35.19.63c0,.31-.07.54-.2.67-.13.13-.35.2-.66.2h-1.33c-.14,0-.25-.03-.34-.09-.08-.06-.12-.14-.12-.25v-4.41c0-.35-.05-.61-.16-.78-.1-.17-.26-.26-.47-.26-.26,0-.46.12-.61.35s-.22.57-.22.99v2.73h.12c.24,0,.43.07.55.21.12.14.18.35.18.63,0,.31-.07.54-.2.67-.13.13-.35.2-.66.2h-1.77c-.3,0-.52-.07-.65-.2s-.2-.36-.2-.66c0-.28.06-.49.18-.63s.31-.21.55-.21h.11v-3.8h-.11c-.25,0-.43-.07-.56-.22s-.19-.36-.19-.64c0-.3.07-.52.2-.65s.35-.2.66-.2h1.05c.21,0,.36.04.43.13.08.09.11.25.11.5.19-.27.42-.47.7-.61.27-.14.57-.21.91-.21.3,0,.56.06.79.18.22.12.42.3.59.54Z" style="fill:#e52139;"/><path d="m97.69,198.62h1.68c.36,0,.61.07.77.2.15.13.23.35.23.65s-.08.53-.23.66c-.15.14-.41.2-.76.2h-5.28c-.35,0-.61-.07-.76-.2-.15-.14-.23-.36-.23-.66s.07-.52.22-.65.4-.2.77-.2h1.68v-3.8h-.88c-.35,0-.6-.07-.75-.2-.15-.13-.23-.35-.23-.66s.07-.53.22-.66c.15-.13.4-.2.76-.2h2.35c.15,0,.26.03.34.09s.12.14.12.25v5.17Zm-1.12-9.04c.38,0,.63.07.76.22s.19.5.19,1.05-.06.86-.17.99c-.11.13-.38.19-.79.19s-.67-.06-.79-.18-.18-.36-.18-.72c0-.67.06-1.09.18-1.27.12-.18.39-.27.8-.27Z" style="fill:#e52139;"/><path d="m109.48,198.6h.1c.29,0,.51.07.66.21.15.14.22.36.22.64,0,.31-.07.53-.22.66s-.4.2-.75.2h-1.92c-.35,0-.6-.07-.75-.2-.15-.14-.23-.36-.23-.66,0-.29.07-.5.22-.64s.37-.21.67-.21h.09v-2.26c0-.62-.09-1.07-.26-1.33-.17-.26-.46-.39-.87-.39-.43,0-.79.16-1.06.47s-.41.73-.41,1.25v2.26h.09c.3,0,.52.07.66.21.15.14.22.36.22.64,0,.31-.08.53-.23.66-.15.14-.4.2-.75.2h-1.94c-.35,0-.6-.07-.75-.2-.15-.14-.23-.36-.23-.66,0-.29.07-.5.22-.64.15-.14.37-.21.66-.21h.09v-3.78h-.13c-.28,0-.5-.07-.64-.21-.15-.14-.22-.35-.22-.63,0-.31.08-.53.23-.66.15-.14.41-.2.77-.2h1.33c.15,0,.26.03.33.09.08.06.11.14.11.25v.61c.24-.38.55-.66.92-.85.37-.19.8-.29,1.29-.29.83,0,1.45.25,1.86.76.41.5.61,1.28.61,2.31v2.61Z" style="fill:#e52139;"/><path d="m117.4,193.84v-.41c0-.1.04-.18.11-.24.08-.05.19-.08.34-.08h1.27c.36,0,.61.07.76.2.15.13.22.35.22.65,0,.28-.07.5-.21.64-.14.15-.35.22-.63.22h-.13v5.38c0,1.14-.31,1.97-.93,2.48-.62.52-1.61.77-2.98.77-.85,0-1.47-.08-1.87-.25s-.6-.43-.6-.79c0-.25.08-.45.24-.61.16-.16.38-.23.64-.23.07,0,.29.02.67.07.38.05.73.07,1.05.07.74,0,1.26-.14,1.54-.42.28-.28.43-.79.43-1.52v-.35c-.37.21-.74.37-1.1.47-.36.1-.74.15-1.13.15-1.05,0-1.9-.33-2.57-.98s-1-1.49-1-2.52.35-1.93,1.04-2.61,1.58-1.02,2.67-1.02c.47,0,.88.07,1.23.22.35.15.66.38.92.69Zm-1.94.73c-.51,0-.93.18-1.27.55s-.5.84-.5,1.41.17,1.03.5,1.39.76.55,1.27.55.94-.18,1.28-.55.5-.83.5-1.39-.17-1.04-.5-1.41-.76-.55-1.28-.55Z" style="fill:#e52139;"/><path d="m134.46,193.55h2.38c.36,0,.61.07.77.2.15.13.23.35.23.65s-.08.53-.23.66c-.15.14-.41.2-.76.2h-2.38v2c0,.56.09.95.26,1.16s.47.31.91.31c.41,0,.89-.12,1.44-.35.55-.23.92-.35,1.11-.35.21,0,.4.08.55.25.15.17.23.37.23.61,0,.4-.36.77-1.09,1.1s-1.55.5-2.47.5c-.54,0-1.01-.07-1.41-.22s-.73-.35-.96-.62c-.17-.21-.29-.46-.37-.75-.07-.29-.11-.78-.11-1.46v-2.17h-.73c-.35,0-.61-.07-.75-.2s-.22-.36-.22-.66.07-.52.22-.65c.15-.13.4-.19.76-.19h.73v-1.83c0-.36.07-.61.22-.76s.39-.22.74-.22.59.07.74.22.22.4.22.76v1.83Z" style="fill:#e52139;"/><path d="m144.25,196.09v2.53h1.84c.35,0,.61.07.75.2s.22.35.22.65-.07.53-.22.66-.4.2-.75.2h-4.37c-.36,0-.61-.07-.77-.2-.15-.14-.23-.36-.23-.66s.07-.52.22-.65c.15-.13.41-.2.77-.2h.6v-3.8h-.34c-.36,0-.61-.07-.76-.2-.15-.13-.22-.35-.22-.66s.07-.53.21-.66c.14-.13.4-.2.76-.2h1.66c.14,0,.25.03.33.09s.12.14.12.25v1.16c.57-.61,1.1-1.04,1.59-1.3s1.02-.39,1.59-.39c.52,0,.92.12,1.23.35.3.23.45.54.45.93,0,.3-.1.55-.31.75-.21.2-.48.29-.8.29-.23,0-.51-.09-.83-.26s-.54-.26-.67-.26c-.25,0-.54.11-.88.34-.34.22-.74.57-1.2,1.04Z" style="fill:#e52139;"/><path d="m157.39,198.62h.12c.28,0,.5.07.64.22s.22.36.22.64c0,.3-.08.52-.23.65-.15.13-.41.2-.76.2h-.73c-.26,0-.45-.05-.58-.15-.13-.1-.23-.28-.32-.54-.43.29-.89.5-1.38.66s-.97.23-1.47.23c-.84,0-1.5-.21-1.98-.62-.48-.42-.72-.99-.72-1.71,0-.78.31-1.39.93-1.82.62-.43,1.49-.65,2.61-.65.25,0,.52.01.8.04s.6.07.95.12v-.15c0-.47-.11-.83-.34-1.07s-.56-.37-1-.37c-.34,0-.78.13-1.32.38-.53.25-.93.38-1.18.38s-.44-.07-.59-.21c-.15-.14-.23-.33-.23-.57,0-.42.31-.76.93-1s1.46-.37,2.52-.37,1.9.21,2.38.64c.48.43.72,1.15.72,2.17v2.9Zm-1.89-1.51c-.26-.06-.5-.1-.72-.13s-.42-.04-.61-.04c-.57,0-1.02.1-1.35.29-.33.19-.49.46-.49.8,0,.3.1.53.31.69.21.16.51.24.9.24.36,0,.7-.05,1.02-.16.32-.1.63-.27.94-.48v-1.2Z" style="fill:#e52139;"/><path d="m164.3,193.34h1.68c.36,0,.61.07.77.2.15.13.23.35.23.65s-.08.52-.23.66c-.15.14-.41.2-.76.2h-1.68v3.57h1.55c.36,0,.61.07.77.2.15.13.23.35.23.65s-.08.53-.23.66c-.15.14-.41.2-.76.2h-4.3c-.36,0-.61-.07-.77-.2-.15-.14-.23-.36-.23-.66s.07-.52.22-.65.4-.2.77-.2h.83v-3.57h-.83c-.36,0-.61-.07-.77-.2-.15-.14-.23-.35-.23-.66s.07-.53.22-.66.4-.2.77-.2h.83v-.45c0-1.02.26-1.75.79-2.18.53-.43,1.42-.64,2.69-.64.66,0,1.14.08,1.45.23.31.16.46.4.46.73,0,.22-.07.39-.21.52-.14.13-.32.2-.56.2-.17,0-.42-.02-.73-.07-.32-.05-.54-.07-.66-.07-.48,0-.82.11-1.02.32s-.29.6-.29,1.14v.26Z" style="fill:#e52139;"/><path d="m173.9,193.34h1.68c.36,0,.61.07.77.2.15.13.23.35.23.65s-.08.52-.23.66c-.15.14-.41.2-.76.2h-1.68v3.57h1.55c.36,0,.61.07.77.2.15.13.23.35.23.65s-.08.53-.23.66c-.15.14-.41.2-.76.2h-4.3c-.36,0-.61-.07-.77-.2-.15-.14-.23-.36-.23-.66s.07-.52.22-.65.4-.2.77-.2h.83v-3.57h-.83c-.36,0-.61-.07-.77-.2-.15-.14-.23-.35-.23-.66s.07-.53.22-.66.4-.2.77-.2h.83v-.45c0-1.02.26-1.75.79-2.18.53-.43,1.42-.64,2.69-.64.66,0,1.14.08,1.45.23.31.16.46.4.46.73,0,.22-.07.39-.21.52-.14.13-.32.2-.56.2-.17,0-.42-.02-.73-.07-.32-.05-.54-.07-.66-.07-.48,0-.82.11-1.02.32s-.29.6-.29,1.14v.26Z" style="fill:#e52139;"/><path d="m184.1,198.62h1.68c.36,0,.61.07.77.2.15.13.23.35.23.65s-.08.53-.23.66c-.15.14-.41.2-.76.2h-5.28c-.35,0-.61-.07-.76-.2-.15-.14-.23-.36-.23-.66s.07-.52.22-.65.4-.2.77-.2h1.68v-3.8h-.88c-.35,0-.6-.07-.75-.2-.15-.13-.23-.35-.23-.66s.07-.53.22-.66c.15-.13.4-.2.76-.2h2.35c.15,0,.26.03.34.09s.12.14.12.25v5.17Zm-1.12-9.04c.38,0,.63.07.76.22s.19.5.19,1.05-.06.86-.17.99c-.11.13-.38.19-.79.19s-.67-.06-.79-.18-.18-.36-.18-.72c0-.67.06-1.09.18-1.27.12-.18.39-.27.8-.27Z" style="fill:#e52139;"/><path d="m194.93,193.53c.06-.2.16-.36.29-.46s.3-.15.51-.15c.28,0,.48.08.6.25.12.17.18.46.18.88v1.28c0,.32-.07.55-.2.7-.13.15-.33.23-.6.23-.19,0-.35-.04-.48-.13-.13-.09-.27-.26-.41-.51-.21-.35-.48-.62-.82-.79-.34-.17-.75-.25-1.24-.25-.61,0-1.11.2-1.5.6-.39.4-.58.91-.58,1.53,0,.65.2,1.17.6,1.57.4.4.94.59,1.62.59.61,0,1.23-.17,1.83-.51.61-.34.98-.51,1.11-.51.19,0,.35.07.48.22.13.15.19.33.19.56,0,.49-.37.93-1.11,1.31s-1.62.58-2.64.58c-1.26,0-2.29-.35-3.07-1.06s-1.18-1.62-1.18-2.73.39-2,1.17-2.72,1.77-1.09,2.95-1.09c.4,0,.79.05,1.17.15.38.1.76.25,1.13.46Z" style="fill:#e52139;"/><polyline points="115.18 223.5 125.56 233.88 115.65 243.78" style="fill:none; stroke:#e52139; stroke-miterlimit:10; stroke-width:2px;"/><line x1="569.38" y1="234.13" x2="768.03" y2="234.13" style="fill:none; stroke:#24a7e0; stroke-miterlimit:10; stroke-width:2px;"/><path d="m569.81,241.65c-4.15,0-7.52-3.37-7.52-7.52s3.37-7.52,7.52-7.52,7.52,3.37,7.52,7.52-3.37,7.52-7.52,7.52Z" style="fill:#fff;"/><path d="m569.81,242.65c4.7,0,8.52-3.82,8.52-8.52s-3.82-8.52-8.52-8.52-8.52,3.82-8.52,8.52,3.82,8.52,8.52,8.52-4.7,0,0,0Zm0-15.04c3.6,0,6.52,2.92,6.52,6.52s-2.92,6.52-6.52,6.52-6.52-2.92-6.52-6.52,2.92-6.52,6.52-6.52-3.6,0,0,0Z" style="fill:#24a7e0;"/><path d="m767.61,241.65c4.15,0,7.52-3.37,7.52-7.52s-3.37-7.52-7.52-7.52-7.52,3.37-7.52,7.52,3.37,7.52,7.52,7.52Z" style="fill:#fff;"/><path d="m767.61,242.65c-4.7,0-8.52-3.82-8.52-8.52s3.82-8.52,8.52-8.52,8.52,3.82,8.52,8.52-3.82,8.52-8.52,8.52,4.7,0,0,0Zm0-15.04c-3.6,0-6.52,2.92-6.52,6.52s2.92,6.52,6.52,6.52,6.52-2.92,6.52-6.52-2.92-6.52-6.52-6.52,3.6,0,0,0Z" style="fill:#24a7e0;"/><path d="m609.62,192.79v5.83h1.31c.35,0,.61.07.76.2s.23.35.23.64-.08.52-.23.66-.41.21-.76.21h-4.64c-.35,0-.61-.07-.76-.2s-.23-.36-.23-.66.08-.52.23-.65.41-.2.77-.2h1.31v-5.83h-1.31c-.35,0-.61-.07-.76-.2s-.23-.35-.23-.66.08-.53.23-.66.41-.2.77-.2h4.64c.37,0,.63.07.77.2s.22.35.22.66-.08.52-.23.66-.41.2-.77.2h-1.31Z" style="fill:#24a7e0;"/><path d="m621.49,198.6h.1c.29,0,.51.07.66.21s.22.36.22.64c0,.31-.07.53-.22.66s-.4.2-.75.2h-1.92c-.35,0-.6-.07-.75-.2s-.23-.36-.23-.66c0-.29.07-.5.22-.64s.37-.21.67-.21h.09v-2.26c0-.62-.09-1.07-.26-1.33s-.46-.39-.87-.39c-.43,0-.79.16-1.06.47s-.41.73-.41,1.25v2.26h.09c.3,0,.52.07.66.21s.22.36.22.64c0,.31-.08.53-.23.66s-.4.2-.75.2h-1.94c-.35,0-.6-.07-.75-.2s-.23-.36-.23-.66c0-.29.07-.5.22-.64s.37-.21.66-.21h.09v-3.78h-.13c-.28,0-.5-.07-.64-.21s-.22-.35-.22-.63c0-.31.08-.53.23-.66s.41-.2.77-.2h1.33c.15,0,.26.03.33.09s.11.14.11.25v.61c.24-.38.55-.66.92-.85s.8-.29,1.29-.29c.83,0,1.45.25,1.86.76s.61,1.28.61,2.31v2.61Z" style="fill:#24a7e0;"/><path d="m627.27,193.55h2.38c.36,0,.61.07.77.2s.23.35.23.65-.08.53-.23.66-.41.2-.76.2h-2.38v2c0,.56.09.95.26,1.16s.47.31.91.31c.41,0,.89-.12,1.44-.35s.92-.35,1.11-.35c.21,0,.4.08.55.25s.23.37.23.61c0,.4-.36.77-1.09,1.1s-1.55.5-2.47.5c-.54,0-1.01-.07-1.41-.22s-.73-.35-.96-.62c-.17-.21-.29-.46-.37-.75s-.11-.78-.11-1.46v-2.17h-.73c-.35,0-.61-.07-.75-.2s-.22-.36-.22-.66.07-.52.22-.65.4-.19.76-.19h.73v-1.83c0-.36.07-.61.22-.76s.39-.22.74-.22.59.07.74.22.22.4.22.76v1.83Z" style="fill:#24a7e0;"/><path d="m635.29,197.18c.14.58.4,1.01.79,1.3s.91.43,1.55.43,1.28-.16,1.91-.47,1.01-.47,1.14-.47c.19,0,.35.07.47.21s.18.33.18.55c0,.49-.36.91-1.09,1.27s-1.62.53-2.69.53c-1.26,0-2.29-.35-3.07-1.06s-1.18-1.62-1.18-2.73.39-2.02,1.18-2.73,1.81-1.06,3.07-1.06c1.12,0,2.06.33,2.8,1s1.11,1.48,1.11,2.44c0,.31-.07.52-.22.63s-.45.17-.92.17h-5.04Zm4.21-1.22c-.09-.48-.32-.86-.68-1.12s-.84-.4-1.43-.4-1.02.13-1.37.38-.59.63-.72,1.14h4.21Z" style="fill:#24a7e0;"/><path d="m646.66,196.09v2.53h1.84c.35,0,.61.07.75.2s.22.35.22.65-.07.53-.22.66-.4.2-.75.2h-4.37c-.36,0-.61-.07-.77-.2s-.23-.36-.23-.66.08-.52.22-.65c.15-.13.41-.2.77-.2h.6v-3.8h-.34c-.36,0-.61-.07-.76-.2-.15-.13-.22-.35-.22-.66s.07-.53.21-.66.4-.2.76-.2h1.66c.14,0,.25.03.33.09s.12.14.12.25v1.16c.57-.61,1.1-1.04,1.59-1.3s1.02-.39,1.59-.39c.52,0,.92.12,1.23.35s.45.54.45.93c0,.3-.1.55-.31.75s-.48.29-.8.29c-.23,0-.51-.09-.83-.26s-.54-.26-.67-.26c-.25,0-.54.11-.88.34s-.74.57-1.2,1.04Z" style="fill:#24a7e0;"/><path d="m659.9,198.6h.1c.29,0,.51.07.66.21s.22.36.22.64c0,.31-.07.53-.22.66s-.4.2-.75.2h-1.92c-.35,0-.6-.07-.75-.2s-.23-.36-.23-.66c0-.29.07-.5.22-.64s.37-.21.67-.21h.09v-2.26c0-.62-.09-1.07-.26-1.33s-.46-.39-.87-.39c-.43,0-.79.16-1.06.47s-.41.73-.41,1.25v2.26h.09c.3,0,.52.07.66.21s.22.36.22.64c0,.31-.08.53-.23.66s-.4.2-.75.2h-1.94c-.35,0-.6-.07-.75-.2s-.23-.36-.23-.66c0-.29.07-.5.22-.64s.37-.21.66-.21h.09v-3.78h-.13c-.28,0-.5-.07-.64-.21s-.22-.35-.22-.63c0-.31.08-.53.23-.66s.41-.2.77-.2h1.33c.15,0,.26.03.33.09s.11.14.11.25v.61c.24-.38.55-.66.92-.85s.8-.29,1.29-.29c.83,0,1.45.25,1.86.76s.61,1.28.61,2.31v2.61Z" style="fill:#24a7e0;"/><path d="m669.4,198.62h.12c.28,0,.5.07.64.22s.22.36.22.64c0,.3-.08.52-.23.65s-.41.2-.76.2h-.73c-.26,0-.45-.05-.58-.15s-.23-.28-.32-.54c-.43.29-.89.5-1.38.66s-.97.23-1.47.23c-.84,0-1.5-.21-1.98-.62s-.72-.99-.72-1.71c0-.78.31-1.39.93-1.82s1.49-.65,2.61-.65c.25,0,.52.01.8.04s.6.07.95.12v-.15c0-.47-.11-.83-.34-1.07s-.56-.37-1-.37c-.34,0-.78.13-1.32.38s-.93.38-1.18.38-.44-.07-.59-.21-.23-.33-.23-.57c0-.42.31-.76.93-1s1.46-.37,2.52-.37,1.9.21,2.38.64.72,1.15.72,2.17v2.9Zm-1.89-1.51c-.26-.06-.5-.1-.72-.13s-.42-.04-.61-.04c-.57,0-1.02.1-1.35.29s-.49.46-.49.8c0,.3.1.53.31.69s.51.24.9.24c.36,0,.7-.05,1.02-.16s.63-.27.94-.48v-1.2Z" style="fill:#24a7e0;"/><path d="m676.78,198.62h1.68c.36,0,.61.07.76.2s.22.35.22.65-.07.53-.22.66-.4.2-.75.2h-5.3c-.35,0-.6-.07-.75-.2s-.22-.36-.22-.66.07-.52.21-.65.39-.19.75-.19h1.68v-6.78h-.86c-.35,0-.61-.07-.76-.21s-.23-.36-.23-.66.08-.53.23-.66.41-.2.77-.2h2.34c.15,0,.26.03.34.09s.12.14.12.25v8.18Z" style="fill:#24a7e0;"/><path d="m694.48,193.55h2.38c.36,0,.61.07.77.2s.23.35.23.65-.08.53-.23.66-.41.2-.76.2h-2.38v2c0,.56.09.95.26,1.16s.47.31.91.31c.41,0,.89-.12,1.44-.35s.92-.35,1.11-.35c.21,0,.4.08.55.25s.23.37.23.61c0,.4-.36.77-1.09,1.1s-1.55.5-2.47.5c-.54,0-1.01-.07-1.41-.22s-.73-.35-.96-.62c-.17-.21-.29-.46-.37-.75s-.11-.78-.11-1.46v-2.17h-.73c-.35,0-.61-.07-.75-.2s-.22-.36-.22-.66.07-.52.22-.65.4-.19.76-.19h.73v-1.83c0-.36.07-.61.22-.76s.39-.22.74-.22.59.07.74.22.22.4.22.76v1.83Z" style="fill:#24a7e0;"/><path d="m704.27,196.09v2.53h1.84c.35,0,.61.07.75.2s.22.35.22.65-.07.53-.22.66-.4.2-.75.2h-4.37c-.36,0-.61-.07-.77-.2s-.23-.36-.23-.66.08-.52.22-.65c.15-.13.41-.2.77-.2h.6v-3.8h-.34c-.36,0-.61-.07-.76-.2-.15-.13-.22-.35-.22-.66s.07-.53.21-.66.4-.2.76-.2h1.66c.14,0,.25.03.33.09s.12.14.12.25v1.16c.57-.61,1.1-1.04,1.59-1.3s1.02-.39,1.59-.39c.52,0,.92.12,1.23.35s.45.54.45.93c0,.3-.1.55-.31.75s-.48.29-.8.29c-.23,0-.51-.09-.83-.26s-.54-.26-.67-.26c-.25,0-.54.11-.88.34s-.74.57-1.2,1.04Z" style="fill:#24a7e0;"/><path d="m717.41,198.62h.12c.28,0,.5.07.64.22s.22.36.22.64c0,.3-.08.52-.23.65s-.41.2-.76.2h-.73c-.26,0-.45-.05-.58-.15s-.23-.28-.32-.54c-.43.29-.89.5-1.38.66s-.97.23-1.47.23c-.84,0-1.5-.21-1.98-.62s-.72-.99-.72-1.71c0-.78.31-1.39.93-1.82s1.49-.65,2.61-.65c.25,0,.52.01.8.04s.6.07.95.12v-.15c0-.47-.11-.83-.34-1.07s-.56-.37-1-.37c-.34,0-.78.13-1.32.38s-.93.38-1.18.38-.44-.07-.59-.21-.23-.33-.23-.57c0-.42.31-.76.93-1s1.46-.37,2.52-.37,1.9.21,2.38.64.72,1.15.72,2.17v2.9Zm-1.89-1.51c-.26-.06-.5-.1-.72-.13s-.42-.04-.61-.04c-.57,0-1.02.1-1.35.29s-.49.46-.49.8c0,.3.1.53.31.69s.51.24.9.24c.36,0,.7-.05,1.02-.16s.63-.27.94-.48v-1.2Z" style="fill:#24a7e0;"/><path d="m724.33,193.34h1.68c.36,0,.61.07.77.2s.23.35.23.65-.08.52-.23.66-.41.2-.76.2h-1.68v3.57h1.55c.36,0,.61.07.77.2s.23.35.23.65-.08.53-.23.66-.41.2-.76.2h-4.3c-.36,0-.61-.07-.77-.2s-.23-.36-.23-.66.07-.52.22-.65.41-.2.77-.2h.83v-3.57h-.83c-.36,0-.61-.07-.77-.2s-.23-.35-.23-.66.07-.53.22-.66.41-.2.77-.2h.83v-.45c0-1.02.26-1.75.79-2.18s1.42-.64,2.69-.64c.66,0,1.14.08,1.45.23s.46.4.46.73c0,.22-.07.39-.21.52s-.32.2-.56.2c-.17,0-.42-.02-.73-.07s-.54-.07-.66-.07c-.48,0-.82.11-1.02.32s-.29.6-.29,1.14v.26Z" style="fill:#24a7e0;"/><path d="m733.93,193.34h1.68c.36,0,.61.07.77.2s.23.35.23.65-.08.52-.23.66-.41.2-.76.2h-1.68v3.57h1.55c.36,0,.61.07.77.2s.23.35.23.65-.08.53-.23.66-.41.2-.76.2h-4.3c-.36,0-.61-.07-.77-.2s-.23-.36-.23-.66.07-.52.22-.65.41-.2.77-.2h.83v-3.57h-.83c-.36,0-.61-.07-.77-.2s-.23-.35-.23-.66.07-.53.22-.66.41-.2.77-.2h.83v-.45c0-1.02.26-1.75.79-2.18s1.42-.64,2.69-.64c.66,0,1.14.08,1.45.23s.46.4.46.73c0,.22-.07.39-.21.52s-.32.2-.56.2c-.17,0-.42-.02-.73-.07s-.54-.07-.66-.07c-.48,0-.82.11-1.02.32s-.29.6-.29,1.14v.26Z" style="fill:#24a7e0;"/><path d="m744.12,198.62h1.68c.36,0,.61.07.77.2s.23.35.23.65-.08.53-.23.66-.41.2-.76.2h-5.28c-.35,0-.61-.07-.76-.2s-.23-.36-.23-.66.07-.52.22-.65.41-.2.77-.2h1.68v-3.8h-.88c-.35,0-.6-.07-.75-.2s-.23-.35-.23-.66.07-.53.22-.66.4-.2.76-.2h2.35c.15,0,.26.03.34.09s.12.14.12.25v5.17Zm-1.12-9.04c.38,0,.63.07.76.22s.19.5.19,1.05-.06.86-.17.99-.38.19-.79.19-.67-.06-.79-.18-.18-.36-.18-.72c0-.67.06-1.09.18-1.27s.39-.27.8-.27Z" style="fill:#24a7e0;"/><path d="m754.95,193.53c.06-.2.16-.36.29-.46s.3-.15.51-.15c.28,0,.48.08.6.25s.18.46.18.88v1.28c0,.32-.07.55-.2.7s-.33.23-.6.23c-.19,0-.35-.04-.48-.13s-.27-.26-.41-.51c-.21-.35-.48-.62-.82-.79s-.75-.25-1.24-.25c-.61,0-1.11.2-1.5.6s-.58.91-.58,1.53c0,.65.2,1.17.6,1.57s.94.59,1.62.59c.61,0,1.23-.17,1.83-.51s.98-.51,1.11-.51c.19,0,.35.07.48.22s.19.33.19.56c0,.49-.37.93-1.11,1.31s-1.62.58-2.64.58c-1.26,0-2.29-.35-3.07-1.06s-1.18-1.62-1.18-2.73.39-2,1.17-2.72,1.77-1.09,2.95-1.09c.4,0,.79.05,1.17.15s.76.25,1.13.46Z" style="fill:#24a7e0;"/><polyline points="650.31 223.5 660.69 233.88 650.78 243.78" style="fill:none; stroke:#24a7e0; stroke-miterlimit:10; stroke-width:2px;"/><polyline points="380.85 286.22 380.85 337.77 258.7 337.77 258.7 514.5" style="fill:none; stroke:#000; stroke-miterlimit:10; stroke-width:2px;"/><path d="m373.33,286.65c0-4.15,3.37-7.52,7.52-7.52s7.52,3.37,7.52,7.52-3.37,7.52-7.52,7.52-7.52-3.37-7.52-7.52Z" style="fill:#fff;"/><path d="m372.33,286.65c0,4.7,3.82,8.52,8.52,8.52s8.52-3.82,8.52-8.52-3.82-8.52-8.52-8.52-8.52,3.82-8.52,8.52,0-4.7,0,0Zm15.04,0c0,3.6-2.92,6.52-6.52,6.52s-6.52-2.92-6.52-6.52,2.92-6.52,6.52-6.52,6.52,2.92,6.52,6.52,0-3.6,0,0Z"/><path d="m251.18,514.08c0,4.15,3.37,7.52,7.52,7.52s7.52-3.37,7.52-7.52-3.37-7.52-7.52-7.52-7.52,3.37-7.52,7.52Z" style="fill:#fff;"/><path d="m250.18,514.08c0-4.7,3.82-8.52,8.52-8.52s8.52,3.82,8.52,8.52-3.82,8.52-8.52,8.52-8.52-3.82-8.52-8.52,0,4.7,0,0Zm15.04,0c0-3.6-2.92-6.52-6.52-6.52s-6.52,2.92-6.52,6.52,2.92,6.52,6.52,6.52,6.52-2.92,6.52-6.52,0,3.6,0,0Z"/><polyline points="111.48 400.73 111.48 337.77 380.85 337.77 380.85 400.73" style="fill:none; stroke:#000; stroke-miterlimit:10; stroke-width:2px;"/><path d="m119,400.3c0,4.15-3.37,7.52-7.52,7.52s-7.52-3.37-7.52-7.52,3.37-7.52,7.52-7.52,7.52,3.37,7.52,7.52Z" style="fill:#fff;"/><path d="m120,400.3c0-4.7-3.82-8.52-8.52-8.52s-8.52,3.82-8.52,8.52,3.82,8.52,8.52,8.52,8.52-3.82,8.52-8.52,0,4.7,0,0Zm-15.04,0c0-3.6,2.92-6.52,6.52-6.52s6.52,2.92,6.52,6.52-2.92,6.52-6.52,6.52-6.52-2.92-6.52-6.52,0,3.6,0,0Z"/><path d="m373.33,400.3c0,4.15,3.37,7.52,7.52,7.52s7.52-3.37,7.52-7.52-3.37-7.52-7.52-7.52-7.52,3.37-7.52,7.52Z" style="fill:#fff;"/><path d="m372.33,400.3c0-4.7,3.82-8.52,8.52-8.52s8.52,3.82,8.52,8.52-3.82,8.52-8.52,8.52-8.52-3.82-8.52-8.52,0,4.7,0,0Zm15.04,0c0-3.6-2.92-6.52-6.52-6.52s-6.52,2.92-6.52,6.52,2.92,6.52,6.52,6.52,6.52-2.92,6.52-6.52,0,3.6,0,0Z"/><circle cx="111.48" cy="464.04" r="40.84" style="fill:#0b5577;"/><line x1="91.6" y1="465.62" x2="131.16" y2="465.62" style="fill:none; stroke:#fff; stroke-linecap:round; stroke-miterlimit:10; stroke-width:2px;"/><line x1="91.6" y1="455.62" x2="131.16" y2="455.62" style="fill:none; stroke:#fff; stroke-linecap:round; stroke-miterlimit:10; stroke-width:2px;"/><line x1="91.6" y1="475.62" x2="131.16" y2="475.62" style="fill:none; stroke:#fff; stroke-linecap:round; stroke-miterlimit:10; stroke-width:2px;"/><circle cx="122.43" cy="465.61" r="3.86" style="fill:#2eac68;"/><circle cx="98.43" cy="455.61" r="3.89" style="fill:#2eac68;"/><circle cx="111.43" cy="475.61" r="3.84" style="fill:#2eac68;"/><circle cx="259.46" cy="578.87" r="40.84" style="fill:#0b5577;"/><path d="m245.04,595.59c0-3.4,6.47-6.16,14.46-6.16s14.46,2.76,14.46,6.16" style="fill:none; stroke:#2eac68; stroke-miterlimit:10; stroke-width:2px;"/><ellipse cx="259.42" cy="566.99" rx="14.46" ry="6.16" style="fill:none; stroke:#000; stroke-miterlimit:10; stroke-width:.88px;"/><path d="m273.88,594.79c0,3.4-6.47,6.16-14.46,6.16s-14.46-2.76-14.46-6.16" style="fill:none; stroke:#000; stroke-miterlimit:10; stroke-width:.88px;"/><path d="m244.96,594.79v-27.8c0,3.4,6.47,6.16,14.46,6.16s14.46-2.76,14.46-6.16v27.8" style="fill:none; stroke:#000; stroke-miterlimit:10; stroke-width:.88px;"/><ellipse cx="259.42" cy="566.99" rx="14.46" ry="6.16" style="fill:none; stroke:#fff; stroke-linecap:round; stroke-miterlimit:10; stroke-width:2px;"/><path d="m273.88,594.79c0,3.4-6.47,6.16-14.46,6.16s-14.46-2.76-14.46-6.16" style="fill:none; stroke:#fff; stroke-linecap:round; stroke-miterlimit:10; stroke-width:2px;"/><path d="m244.96,594.79v-27.8c0,3.4,6.47,6.16,14.46,6.16s14.46-2.76,14.46-6.16v27.8" style="fill:none; stroke:#fff; stroke-linecap:round; stroke-miterlimit:10; stroke-width:2px;"/><circle cx="380.85" cy="464.04" r="40.84" style="fill:#0b5577;"/><line x1="379.15" y1="442.86" x2="379.15" y2="461.52" style="fill:none; stroke:#2eac68; stroke-miterlimit:10; stroke-width:2px;"/><path d="m376.52,442.86c0-1.45,1.18-2.63,2.63-2.63s2.63,1.18,2.63,2.63-1.18,2.63-2.63,2.63-2.63-1.18-2.63-2.63Z" style="fill:#fff;"/><path d="m376.17,442.86c0,1.64,1.34,2.98,2.98,2.98s2.98-1.34,2.98-2.98-1.34-2.98-2.98-2.98-2.98,1.34-2.98,2.98,0-1.64,0,0Zm5.26,0c0,1.26-1.02,2.28-2.28,2.28s-2.28-1.02-2.28-2.28,1.02-2.28,2.28-2.28,2.28,1.02,2.28,2.28,0-1.26,0,0Z" style="fill:#2eac68;"/><path d="m376.52,461.52c0,1.45,1.18,2.63,2.63,2.63s2.63-1.18,2.63-2.63-1.18-2.63-2.63-2.63-2.63,1.18-2.63,2.63Z" style="fill:#fff;"/><path d="m376.17,461.52c0-1.64,1.34-2.98,2.98-2.98s2.98,1.34,2.98,2.98-1.34,2.98-2.98,2.98-2.98-1.34-2.98-2.98,0,1.64,0,0Zm5.26,0c0-1.26-1.02-2.28-2.28-2.28s-2.28,1.02-2.28,2.28,1.02,2.28,2.28,2.28,2.28-1.02,2.28-2.28,0,1.26,0,0Z" style="fill:#2eac68;"/><line x1="391.15" y1="442.86" x2="391.15" y2="461.52" style="fill:none; stroke:#2eac68; stroke-miterlimit:10; stroke-width:2px;"/><path d="m388.52,442.86c0-1.45,1.18-2.63,2.63-2.63s2.63,1.18,2.63,2.63-1.18,2.63-2.63,2.63-2.63-1.18-2.63-2.63Z" style="fill:#fff;"/><path d="m388.17,442.86c0,1.64,1.34,2.98,2.98,2.98s2.98-1.34,2.98-2.98-1.34-2.98-2.98-2.98-2.98,1.34-2.98,2.98,0-1.64,0,0Zm5.26,0c0,1.26-1.02,2.28-2.28,2.28s-2.28-1.02-2.28-2.28,1.02-2.28,2.28-2.28,2.28,1.02,2.28,2.28,0-1.26,0,0Z" style="fill:#2eac68;"/><path d="m388.52,461.52c0,1.45,1.18,2.63,2.63,2.63s2.63-1.18,2.63-2.63-1.18-2.63-2.63-2.63-2.63,1.18-2.63,2.63Z" style="fill:#fff;"/><path d="m388.17,461.52c0-1.64,1.34-2.98,2.98-2.98s2.98,1.34,2.98,2.98-1.34,2.98-2.98,2.98-2.98-1.34-2.98-2.98,0,1.64,0,0Zm5.26,0c0-1.26-1.02-2.28-2.28-2.28s-2.28,1.02-2.28,2.28,1.02,2.28,2.28,2.28,2.28-1.02,2.28-2.28,0,1.26,0,0Z" style="fill:#2eac68;"/><path d="m394.7,463.72h-1.43c.06-.48.09-.98.09-1.48,0-6.63-5.37-12-12-12-5.72,0-10.51,4.01-11.7,9.37-.2-.01-.39-.03-.59-.03-5,0-9.05,4.05-9.05,9.05s4.05,9.05,9.05,9.05l25.63-.15c3.81,0,6.91-3.09,6.91-6.91s-3.09-6.91-6.91-6.91Z" style="fill:#0b5577; stroke:#fff; stroke-miterlimit:10; stroke-width:2.7px;"/><line x1="372.15" y1="471.86" x2="372.15" y2="490.52" style="fill:none; stroke:#2eac68; stroke-miterlimit:10; stroke-width:2px;"/><path d="m369.52,471.86c0-1.45,1.18-2.63,2.63-2.63s2.63,1.18,2.63,2.63-1.18,2.63-2.63,2.63-2.63-1.18-2.63-2.63Z" style="fill:#fff;"/><path d="m369.17,471.86c0,1.64,1.34,2.98,2.98,2.98s2.98-1.34,2.98-2.98-1.34-2.98-2.98-2.98-2.98,1.34-2.98,2.98,0-1.64,0,0Zm5.26,0c0,1.26-1.02,2.28-2.28,2.28s-2.28-1.02-2.28-2.28,1.02-2.28,2.28-2.28,2.28,1.02,2.28,2.28,0-1.26,0,0Z" style="fill:#2eac68;"/><path d="m369.52,490.52c0,1.45,1.18,2.63,2.63,2.63s2.63-1.18,2.63-2.63-1.18-2.63-2.63-2.63-2.63,1.18-2.63,2.63Z" style="fill:#fff;"/><path d="m369.17,490.52c0-1.64,1.34-2.98,2.98-2.98s2.98,1.34,2.98,2.98-1.34,2.98-2.98,2.98-2.98-1.34-2.98-2.98,0,1.64,0,0Zm5.26,0c0-1.26-1.02-2.28-2.28-2.28s-2.28,1.02-2.28,2.28,1.02,2.28,2.28,2.28,2.28-1.02,2.28-2.28,0,1.26,0,0Z" style="fill:#2eac68;"/><line x1="384.15" y1="471.86" x2="384.15" y2="490.52" style="fill:none; stroke:#2eac68; stroke-miterlimit:10; stroke-width:2px;"/><path d="m381.52,471.86c0-1.45,1.18-2.63,2.63-2.63s2.63,1.18,2.63,2.63-1.18,2.63-2.63,2.63-2.63-1.18-2.63-2.63Z" style="fill:#fff;"/><path d="m381.17,471.86c0,1.64,1.34,2.98,2.98,2.98s2.98-1.34,2.98-2.98-1.34-2.98-2.98-2.98-2.98,1.34-2.98,2.98,0-1.64,0,0Zm5.26,0c0,1.26-1.02,2.28-2.28,2.28s-2.28-1.02-2.28-2.28,1.02-2.28,2.28-2.28,2.28,1.02,2.28,2.28,0-1.26,0,0Z" style="fill:#2eac68;"/><path d="m381.52,490.52c0,1.45,1.18,2.63,2.63,2.63s2.63-1.18,2.63-2.63-1.18-2.63-2.63-2.63-2.63,1.18-2.63,2.63Z" style="fill:#fff;"/><path d="m381.17,490.52c0-1.64,1.34-2.98,2.98-2.98s2.98,1.34,2.98,2.98-1.34,2.98-2.98,2.98-2.98-1.34-2.98-2.98,0,1.64,0,0Zm5.26,0c0-1.26-1.02-2.28-2.28-2.28s-2.28,1.02-2.28,2.28,1.02,2.28,2.28,2.28,2.28-1.02,2.28-2.28,0,1.26,0,0Z" style="fill:#2eac68;"/><path d="m68.7,526.2h-3.63v2h1.38v-.09c0-.3.06-.52.2-.66.13-.15.33-.22.59-.22.23,0,.43.07.57.2s.22.3.22.5c0,.01,0,.04,0,.1,0,.06,0,.11,0,.17v1.62c0,.35-.06.6-.19.75s-.33.23-.61.23c-.27,0-.47-.07-.6-.21-.14-.14-.2-.35-.2-.62v-.14h-1.38v2.34h3.63v-.93c0-.35.07-.6.2-.75s.35-.23.65-.23.51.07.64.22c.13.15.19.4.19.75v1.89c0,.28-.05.47-.16.56s-.33.14-.65.14h-6.4c-.34,0-.59-.07-.74-.2s-.22-.36-.22-.66c0-.28.07-.49.21-.63s.35-.21.62-.21h.13v-5.83h-.13c-.27,0-.47-.07-.61-.22-.14-.15-.21-.36-.21-.64,0-.3.08-.52.23-.66.15-.14.4-.21.73-.21h6.4c.32,0,.53.05.64.14.11.1.17.29.17.57v1.75c0,.35-.07.61-.2.76-.13.15-.34.23-.63.23s-.52-.08-.65-.23-.2-.41-.2-.76v-.82Z" style="fill:#0b5577;"/><path d="m77.87,530.59v-4.3h-.43c-.34,0-.59-.07-.74-.2s-.22-.35-.22-.66.07-.52.22-.66.39-.21.74-.21h2.22c.34,0,.58.07.73.21.15.14.23.36.23.66,0,.28-.07.49-.21.64-.14.15-.35.22-.61.22h-.13v7.09c0,.25-.03.4-.08.46-.05.06-.17.09-.35.09h-.78c-.25,0-.43-.03-.53-.08s-.19-.14-.26-.27l-3.25-5.71v4.24h.45c.34,0,.58.07.73.2.15.13.22.35.22.65s-.07.53-.22.66-.39.2-.72.2h-2.24c-.34,0-.58-.07-.73-.2-.15-.14-.23-.36-.23-.66,0-.28.07-.49.21-.63s.35-.21.62-.21h.12v-5.83h-.12c-.27,0-.47-.07-.62-.22-.15-.15-.22-.36-.22-.64,0-.3.08-.52.23-.66.15-.14.4-.21.73-.21h1.28c.31,0,.52.04.62.12s.23.24.37.49l2.98,5.42Z" style="fill:#0b5577;"/><path d="m83.93,526.28l1.88,5.54,1.94-5.54h-.21c-.34,0-.59-.07-.74-.2s-.22-.35-.22-.66.07-.53.22-.66.4-.2.75-.2h1.97c.35,0,.61.07.75.2s.22.36.22.66c0,.28-.07.49-.22.64-.15.15-.36.22-.63.22h-.12l-2.38,6.77c-.12.35-.25.57-.36.65-.11.08-.32.12-.6.12h-.96c-.45,0-.77-.24-.95-.72l-.02-.05-2.43-6.77h-.13c-.27,0-.47-.07-.61-.22-.14-.15-.21-.36-.21-.64,0-.31.07-.54.21-.67.14-.13.39-.2.73-.2h2.32c.34,0,.58.07.73.21.15.14.23.36.23.66s-.08.52-.23.66c-.15.14-.4.2-.73.2h-.21Z" style="fill:#0b5577;"/><path d="m96.27,526.28v5.83h1.31c.35,0,.61.07.76.2.15.13.23.35.23.64s-.08.52-.23.66-.41.21-.76.21h-4.64c-.35,0-.61-.07-.76-.2-.15-.14-.23-.36-.23-.66s.08-.52.23-.65c.15-.13.41-.2.77-.2h1.31v-5.83h-1.31c-.35,0-.61-.07-.76-.2-.15-.14-.23-.35-.23-.66s.08-.53.23-.66c.15-.13.41-.2.77-.2h4.64c.37,0,.63.07.77.2.15.13.22.35.22.66s-.08.52-.23.66c-.15.14-.41.2-.77.2h-1.31Z" style="fill:#0b5577;"/><path d="m106.81,529.56c.14.08.27.23.4.45.02.03.04.06.05.08l1.27,2.02h.24c.3,0,.53.07.68.21.15.14.23.35.23.63,0,.31-.08.53-.23.66-.15.14-.41.2-.76.2h-.96c-.35,0-.63-.15-.83-.46l-.02-.02-1.91-2.95c-.07-.11-.16-.2-.25-.26s-.19-.09-.3-.09h-.73v2.06h.12c.28,0,.49.07.64.21.14.14.21.35.21.63,0,.31-.07.53-.22.66s-.4.2-.75.2h-2.02c-.35,0-.6-.07-.75-.2-.15-.14-.23-.36-.23-.66,0-.28.07-.49.21-.63.14-.14.35-.21.63-.21h.13v-5.83h-.13c-.27,0-.48-.07-.62-.22-.15-.15-.22-.36-.22-.64,0-.3.08-.52.23-.66.15-.14.4-.21.75-.21h3.6c1.1,0,1.94.21,2.51.64.57.43.85,1.06.85,1.9,0,.58-.16,1.09-.47,1.52-.32.43-.77.74-1.36.95Zm-3.21-3.33v2.21h1.05c.65,0,1.11-.08,1.37-.25.26-.17.39-.45.39-.85s-.12-.67-.36-.85c-.24-.17-.62-.26-1.14-.26h-1.31Z" style="fill:#0b5577;"/><path d="m114.46,524.3c1.28,0,2.34.46,3.16,1.38s1.24,2.09,1.24,3.51-.41,2.6-1.23,3.52c-.82.91-1.88,1.37-3.17,1.37s-2.33-.46-3.16-1.38c-.83-.92-1.25-2.09-1.25-3.5s.41-2.6,1.24-3.51c.83-.91,1.88-1.37,3.18-1.37Zm0,1.81c-.67,0-1.2.27-1.58.81s-.57,1.29-.57,2.26.19,1.72.58,2.27c.39.55.91.82,1.58.82s1.2-.27,1.59-.82c.39-.54.58-1.3.58-2.27s-.19-1.72-.57-2.26-.91-.81-1.59-.81Z" style="fill:#0b5577;"/><path d="m125.88,530.59v-4.3h-.43c-.34,0-.59-.07-.74-.2s-.22-.35-.22-.66.07-.52.22-.66.39-.21.74-.21h2.22c.34,0,.58.07.73.21.15.14.23.36.23.66,0,.28-.07.49-.21.64-.14.15-.35.22-.61.22h-.13v7.09c0,.25-.03.4-.08.46-.05.06-.17.09-.35.09h-.78c-.25,0-.43-.03-.53-.08s-.19-.14-.26-.27l-3.25-5.71v4.24h.45c.34,0,.58.07.73.2.15.13.22.35.22.65s-.07.53-.22.66-.39.2-.72.2h-2.24c-.34,0-.58-.07-.73-.2-.15-.14-.23-.36-.23-.66,0-.28.07-.49.21-.63s.35-.21.62-.21h.12v-5.83h-.12c-.27,0-.47-.07-.62-.22-.15-.15-.22-.36-.22-.64,0-.3.08-.52.23-.66.15-.14.4-.21.73-.21h1.28c.31,0,.52.04.62.12s.23.24.37.49l2.98,5.42Z" style="fill:#0b5577;"/><path d="m133.68,529.82l1.49-4.43c.09-.29.22-.5.39-.64.17-.13.39-.2.66-.2h1.22c.35,0,.61.07.76.2.15.14.23.36.23.66,0,.28-.07.5-.22.64s-.36.22-.64.22h-.12l.22,5.83h.13c.28,0,.49.07.63.21s.21.35.21.63c0,.31-.07.53-.22.66s-.4.2-.75.2h-1.76c-.35,0-.61-.07-.75-.2s-.22-.36-.22-.67c0-.28.07-.49.21-.63.14-.14.36-.21.64-.21h.12l-.11-4.77-1.14,3.55c-.08.27-.2.46-.36.57-.15.12-.37.18-.64.18s-.49-.06-.64-.18c-.16-.12-.28-.31-.36-.57l-1.13-3.55-.11,4.77h.12c.28,0,.49.07.64.21.14.14.21.35.21.63,0,.31-.08.53-.23.66-.15.14-.4.2-.75.2h-1.77c-.35,0-.6-.07-.75-.2s-.23-.36-.23-.66c0-.28.07-.49.21-.63s.36-.21.64-.21h.12l.23-5.83h-.12c-.28,0-.5-.07-.64-.22s-.22-.36-.22-.64c0-.31.08-.53.23-.66.15-.14.41-.2.76-.2h1.22c.27,0,.49.07.65.2s.3.34.4.64l1.53,4.43Z" style="fill:#0b5577;"/><path d="m145.51,526.2h-3.63v2h1.38v-.09c0-.3.06-.52.2-.66.13-.15.33-.22.59-.22.23,0,.43.07.57.2s.22.3.22.5c0,.01,0,.04,0,.1,0,.06,0,.11,0,.17v1.62c0,.35-.06.6-.19.75s-.33.23-.61.23c-.27,0-.47-.07-.6-.21-.14-.14-.2-.35-.2-.62v-.14h-1.38v2.34h3.63v-.93c0-.35.07-.6.2-.75s.35-.23.65-.23.51.07.64.22c.13.15.19.4.19.75v1.89c0,.28-.05.47-.16.56s-.33.14-.65.14h-6.4c-.34,0-.59-.07-.74-.2s-.22-.36-.22-.66c0-.28.07-.49.21-.63s.35-.21.62-.21h.13v-5.83h-.13c-.27,0-.47-.07-.61-.22-.14-.15-.21-.36-.21-.64,0-.3.08-.52.23-.66.15-.14.4-.21.73-.21h6.4c.32,0,.53.05.64.14.11.1.17.29.17.57v1.75c0,.35-.07.61-.2.76-.13.15-.34.23-.63.23s-.52-.08-.65-.23-.2-.41-.2-.76v-.82Z" style="fill:#0b5577;"/><path d="m154.68,530.59v-4.3h-.43c-.34,0-.59-.07-.74-.2s-.22-.35-.22-.66.07-.52.22-.66.39-.21.74-.21h2.22c.34,0,.58.07.73.21.15.14.23.36.23.66,0,.28-.07.49-.21.64-.14.15-.35.22-.61.22h-.13v7.09c0,.25-.03.4-.08.46-.05.06-.17.09-.35.09h-.78c-.25,0-.43-.03-.53-.08s-.19-.14-.26-.27l-3.25-5.71v4.24h.45c.34,0,.58.07.73.2.15.13.22.35.22.65s-.07.53-.22.66-.39.2-.72.2h-2.24c-.34,0-.58-.07-.73-.2-.15-.14-.23-.36-.23-.66,0-.28.07-.49.21-.63s.35-.21.62-.21h.12v-5.83h-.12c-.27,0-.47-.07-.62-.22-.15-.15-.22-.36-.22-.64,0-.3.08-.52.23-.66.15-.14.4-.21.73-.21h1.28c.31,0,.52.04.62.12s.23.24.37.49l2.98,5.42Z" style="fill:#0b5577;"/><path d="m165.11,526.27h-1.63v5.83h1.31c.35,0,.6.07.75.2.15.14.23.35.23.66s-.08.53-.23.66c-.15.14-.4.2-.75.2h-4.64c-.34,0-.59-.07-.74-.2-.15-.14-.23-.36-.23-.66s.07-.53.22-.66.4-.2.75-.2h1.31v-5.83h-1.63l-.05,1.59v.2c0,.25-.07.45-.21.59-.14.14-.33.21-.57.21-.29,0-.51-.07-.64-.22-.14-.15-.21-.38-.21-.71v-.06l.09-2.34c.02-.46.08-.74.19-.84.11-.09.34-.14.68-.14h6.72c.34,0,.57.05.68.14.11.09.18.37.2.84l.08,2.34v.06c0,.33-.07.57-.2.71-.13.15-.34.22-.63.22s-.48-.07-.61-.21c-.12-.14-.19-.4-.2-.78l-.05-1.59Z" style="fill:#0b5577;"/><path d="m74.33,546.28l1.88,5.54,1.94-5.54h-.21c-.34,0-.59-.07-.74-.2s-.22-.35-.22-.66.07-.53.22-.66.4-.2.75-.2h1.97c.35,0,.61.07.75.2s.22.36.22.66c0,.28-.07.49-.22.64-.15.15-.36.22-.63.22h-.12l-2.38,6.77c-.12.35-.25.57-.36.65-.11.08-.32.12-.6.12h-.96c-.45,0-.77-.24-.95-.72l-.02-.05-2.43-6.77h-.13c-.27,0-.47-.07-.61-.22-.14-.15-.21-.36-.21-.64,0-.31.07-.54.21-.67.14-.13.39-.2.73-.2h2.32c.34,0,.58.07.73.21.15.14.23.36.23.66s-.08.52-.23.66c-.15.14-.4.2-.73.2h-.21Z" style="fill:#0b5577;"/><path d="m89.6,552.11h.13c.28,0,.49.07.64.21.15.14.22.35.22.63,0,.31-.08.53-.23.66-.15.14-.41.2-.76.2h-2.35c-.36,0-.61-.07-.77-.2-.15-.13-.23-.36-.23-.67s.08-.52.23-.65c.15-.13.41-.2.77-.2h.27l-.32-.91h-3.38l-.34.91h.27c.35,0,.61.07.76.2.15.13.23.35.23.64s-.08.53-.23.66c-.15.14-.41.2-.76.2h-2.02c-.36,0-.61-.07-.77-.2s-.23-.36-.23-.66c0-.28.07-.49.22-.63s.36-.21.64-.21h.13l2.09-5.83h-.62c-.35,0-.61-.07-.76-.2-.15-.14-.23-.35-.23-.66s.08-.53.23-.66c.15-.14.41-.2.76-.2h2.93c.46,0,.79.25.98.75v.02l2.48,6.78Zm-4.09-5.83l-1.13,3.3h2.27l-1.13-3.3Z" style="fill:#0b5577;"/><path d="m97.21,549.56c.14.08.27.23.4.45.02.03.04.06.05.08l1.27,2.02h.24c.3,0,.53.07.68.21.15.14.23.35.23.63,0,.31-.08.53-.23.66-.15.14-.41.2-.76.2h-.96c-.35,0-.63-.15-.83-.46l-.02-.02-1.91-2.95c-.07-.11-.16-.2-.25-.26s-.19-.09-.3-.09h-.73v2.06h.12c.28,0,.49.07.64.21.14.14.21.35.21.63,0,.31-.07.53-.22.66s-.4.2-.75.2h-2.02c-.35,0-.6-.07-.75-.2-.15-.14-.23-.36-.23-.66,0-.28.07-.49.21-.63.14-.14.35-.21.63-.21h.13v-5.83h-.13c-.27,0-.48-.07-.62-.22-.15-.15-.22-.36-.22-.64,0-.3.08-.52.23-.66.15-.14.4-.21.75-.21h3.6c1.1,0,1.94.21,2.51.64.57.43.85,1.06.85,1.9,0,.58-.16,1.09-.47,1.52-.32.43-.77.74-1.36.95Zm-3.21-3.33v2.21h1.05c.65,0,1.11-.08,1.37-.25.26-.17.39-.45.39-.85s-.12-.67-.36-.85c-.24-.17-.62-.26-1.14-.26h-1.31Z" style="fill:#0b5577;"/><path d="m105.87,546.28v5.83h1.31c.35,0,.61.07.76.2.15.13.23.35.23.64s-.08.52-.23.66-.41.21-.76.21h-4.64c-.35,0-.61-.07-.76-.2-.15-.14-.23-.36-.23-.66s.08-.52.23-.65c.15-.13.41-.2.77-.2h1.31v-5.83h-1.31c-.35,0-.61-.07-.76-.2-.15-.14-.23-.35-.23-.66s.08-.53.23-.66c.15-.13.41-.2.77-.2h4.64c.37,0,.63.07.77.2.15.13.22.35.22.66s-.08.52-.23.66c-.15.14-.41.2-.77.2h-1.31Z" style="fill:#0b5577;"/><path d="m118.4,552.11h.13c.28,0,.49.07.64.21.15.14.22.35.22.63,0,.31-.08.53-.23.66-.15.14-.41.2-.76.2h-2.35c-.36,0-.61-.07-.77-.2-.15-.13-.23-.36-.23-.67s.08-.52.23-.65c.15-.13.41-.2.77-.2h.27l-.32-.91h-3.38l-.34.91h.27c.35,0,.61.07.76.2.15.13.23.35.23.64s-.08.53-.23.66c-.15.14-.41.2-.76.2h-2.02c-.36,0-.61-.07-.77-.2s-.23-.36-.23-.66c0-.28.07-.49.22-.63s.36-.21.64-.21h.13l2.09-5.83h-.62c-.35,0-.61-.07-.76-.2-.15-.14-.23-.35-.23-.66s.08-.53.23-.66c.15-.14.41-.2.76-.2h2.93c.46,0,.79.25.98.75v.02l2.48,6.78Zm-4.09-5.83l-1.13,3.3h2.27l-1.13-3.3Z" style="fill:#0b5577;"/><path d="m126.69,548.91c.57.21.98.49,1.25.86s.4.82.4,1.39c0,.47-.11.91-.34,1.3-.23.39-.56.71-.98.96-.25.15-.53.25-.84.32-.31.07-.75.1-1.32.1h-4.08c-.34,0-.59-.07-.74-.2s-.22-.36-.22-.66c0-.28.07-.49.21-.63.14-.14.35-.21.62-.21h.13v-5.83h-.13c-.27,0-.48-.07-.62-.22-.14-.15-.21-.36-.21-.64,0-.3.08-.52.23-.66.15-.14.4-.21.73-.21h3.59c1.1,0,1.93.21,2.5.64s.86,1.05.86,1.88c0,.41-.09.76-.26,1.07-.17.31-.43.56-.78.76Zm-3.98-2.67v1.97h1.05c.64,0,1.09-.08,1.36-.23.26-.15.39-.41.39-.77,0-.34-.12-.59-.36-.74-.24-.16-.62-.23-1.15-.23h-1.3Zm0,3.54v2.38h1.17c.83,0,1.41-.09,1.75-.27.34-.18.51-.49.51-.91s-.16-.74-.48-.92c-.32-.18-.89-.27-1.7-.27h-1.25Z" style="fill:#0b5577;"/><path d="m132.82,546.28v5.83h3.55v-1.39c0-.36.06-.61.19-.77.13-.15.34-.23.64-.23s.51.08.65.23c.14.15.2.41.2.76v2.4c0,.28-.05.47-.16.56s-.33.14-.66.14h-7.09c-.34,0-.58-.07-.73-.2-.15-.14-.22-.36-.22-.66s.07-.52.21-.65c.14-.13.39-.2.73-.2h.69v-5.83h-.69c-.34,0-.58-.07-.73-.2-.15-.14-.22-.35-.22-.66s.08-.52.23-.66c.15-.14.4-.21.73-.21h3.33c.33,0,.58.07.73.21.15.14.23.36.23.66s-.08.52-.23.66c-.15.14-.4.2-.73.2h-.67Z" style="fill:#0b5577;"/><path d="m145.51,546.2h-3.63v2h1.38v-.09c0-.3.06-.52.2-.66.13-.15.33-.22.59-.22.23,0,.43.07.57.2s.22.3.22.5c0,.01,0,.04,0,.1,0,.06,0,.11,0,.17v1.62c0,.35-.06.6-.19.75s-.33.23-.61.23c-.27,0-.47-.07-.6-.21-.14-.14-.2-.35-.2-.62v-.14h-1.38v2.34h3.63v-.93c0-.35.07-.6.2-.75s.35-.23.65-.23.51.07.64.22c.13.15.19.4.19.75v1.89c0,.28-.05.47-.16.56s-.33.14-.65.14h-6.4c-.34,0-.59-.07-.74-.2s-.22-.36-.22-.66c0-.28.07-.49.21-.63s.35-.21.62-.21h.13v-5.83h-.13c-.27,0-.47-.07-.61-.22-.14-.15-.21-.36-.21-.64,0-.3.08-.52.23-.66.15-.14.4-.21.73-.21h6.4c.32,0,.53.05.64.14.11.1.17.29.17.57v1.75c0,.35-.07.61-.2.76-.13.15-.34.23-.63.23s-.52-.08-.65-.23-.2-.41-.2-.76v-.82Z" style="fill:#0b5577;"/><path d="m154.82,544.73c.08-.17.17-.28.27-.34.1-.06.25-.09.45-.09.3,0,.5.06.58.17s.13.33.14.67l.03,1.5v.09c0,.31-.06.52-.18.64-.12.12-.33.18-.62.18-.37,0-.65-.2-.83-.59-.03-.06-.05-.1-.06-.14-.16-.32-.38-.57-.66-.73-.28-.16-.6-.25-.98-.25-.47,0-.85.11-1.14.32s-.43.49-.43.83c0,.48.66.86,1.98,1.13.22.05.4.08.53.11,1,.22,1.72.55,2.17,1,.45.45.67,1.06.67,1.84,0,.96-.33,1.7-.98,2.21-.65.52-1.58.78-2.8.78-.47,0-.9-.03-1.27-.09-.37-.06-.73-.16-1.08-.29-.08.14-.18.23-.29.29s-.26.09-.45.09c-.33,0-.56-.06-.69-.19-.13-.12-.2-.35-.2-.66l-.03-1.84v-.09c0-.34.06-.58.19-.72.13-.14.35-.2.67-.2.34,0,.62.25.85.73.05.12.09.21.12.27.2.4.49.7.85.9.36.2.81.3,1.33.3.48,0,.85-.1,1.12-.3s.4-.48.4-.84c0-.56-.6-.98-1.8-1.27-.36-.08-.64-.15-.85-.21-1.01-.27-1.71-.6-2.1-1s-.59-.94-.59-1.64c0-.89.33-1.62,1-2.18.67-.57,1.54-.85,2.6-.85.35,0,.7.04,1.04.11.34.07.68.18,1.02.33Z" style="fill:#0b5577;"/><path d="m349.74,530.59v-4.3h-.43c-.34,0-.59-.07-.74-.2s-.22-.35-.22-.66.07-.52.22-.66.39-.21.74-.21h2.22c.34,0,.58.07.73.21.15.14.23.36.23.66,0,.28-.07.49-.21.64-.14.15-.35.22-.61.22h-.13v7.09c0,.25-.03.4-.08.46-.05.06-.17.09-.35.09h-.78c-.25,0-.43-.03-.53-.08s-.19-.14-.26-.27l-3.25-5.71v4.24h.45c.34,0,.58.07.73.2.15.13.22.35.22.65s-.07.53-.22.66-.39.2-.72.2h-2.24c-.34,0-.58-.07-.73-.2-.15-.14-.23-.36-.23-.66,0-.28.07-.49.21-.63s.35-.21.62-.21h.12v-5.83h-.12c-.27,0-.47-.07-.62-.22-.15-.15-.22-.36-.22-.64,0-.3.08-.52.23-.66.15-.14.4-.21.73-.21h1.28c.31,0,.52.04.62.12s.23.24.37.49l2.98,5.42Z" style="fill:#0b5577;"/><path d="m359.77,526.2h-3.63v2h1.38v-.09c0-.3.06-.52.2-.66.13-.15.33-.22.59-.22.23,0,.43.07.57.2s.22.3.22.5c0,.01,0,.04,0,.1,0,.06,0,.11,0,.17v1.62c0,.35-.06.6-.19.75s-.33.23-.61.23c-.27,0-.47-.07-.6-.21-.14-.14-.2-.35-.2-.62v-.14h-1.38v2.34h3.63v-.93c0-.35.07-.6.2-.75s.35-.23.65-.23.51.07.64.22c.13.15.19.4.19.75v1.89c0,.28-.05.47-.16.56s-.33.14-.65.14h-6.4c-.34,0-.59-.07-.74-.2s-.22-.36-.22-.66c0-.28.07-.49.21-.63s.35-.21.62-.21h.13v-5.83h-.13c-.27,0-.47-.07-.61-.22-.14-.15-.21-.36-.21-.64,0-.3.08-.52.23-.66.15-.14.4-.21.73-.21h6.4c.32,0,.53.05.64.14.11.1.17.29.17.57v1.75c0,.35-.07.61-.2.76-.13.15-.34.23-.63.23s-.52-.08-.65-.23-.2-.41-.2-.76v-.82Z" style="fill:#0b5577;"/><path d="m369.77,526.27h-1.63v5.83h1.31c.35,0,.6.07.75.2.15.14.23.35.23.66s-.08.53-.23.66c-.15.14-.4.2-.75.2h-4.64c-.34,0-.59-.07-.74-.2-.15-.14-.23-.36-.23-.66s.07-.53.22-.66.4-.2.75-.2h1.31v-5.83h-1.63l-.05,1.59v.2c0,.25-.07.45-.21.59-.14.14-.33.21-.57.21-.29,0-.51-.07-.64-.22-.14-.15-.21-.38-.21-.71v-.06l.09-2.34c.02-.46.08-.74.19-.84.11-.09.34-.14.68-.14h6.72c.34,0,.57.05.68.14.11.09.18.37.2.84l.08,2.34v.06c0,.33-.07.57-.2.71-.13.15-.34.22-.63.22s-.48-.07-.61-.21c-.12-.14-.19-.4-.2-.78l-.05-1.59Z" style="fill:#0b5577;"/><path d="m374.49,526.28l.28,4.58.96-3.38c.07-.25.19-.44.36-.56.17-.12.38-.19.65-.19s.48.06.64.18c.16.12.28.31.36.57l.98,3.38.27-4.58h-.21c-.3,0-.53-.07-.67-.21-.15-.14-.22-.36-.22-.65,0-.31.07-.54.22-.67.15-.13.4-.2.76-.2h1.88c.35,0,.61.07.75.2s.22.36.22.66c0,.28-.07.5-.21.64-.14.15-.35.22-.63.22h-.13l-.75,6.88c-.03.27-.08.45-.16.53s-.26.12-.55.12h-.37c-.22,0-.38-.04-.48-.12s-.2-.29-.3-.63l-1.43-4.64-1.38,4.64c-.09.33-.19.54-.29.62s-.26.13-.49.13h-.37c-.28,0-.46-.04-.54-.12-.08-.08-.13-.26-.15-.54l-.77-6.88h-.12c-.28,0-.49-.07-.63-.22s-.22-.36-.22-.64c0-.31.08-.53.23-.66s.4-.2.75-.2h1.89c.35,0,.61.07.75.2s.22.36.22.66-.07.51-.22.65c-.15.14-.37.21-.68.21h-.2Z" style="fill:#0b5577;"/><path d="m386.34,524.3c1.28,0,2.34.46,3.16,1.38s1.24,2.09,1.24,3.51-.41,2.6-1.23,3.52c-.82.91-1.88,1.37-3.17,1.37s-2.33-.46-3.16-1.38c-.83-.92-1.25-2.09-1.25-3.5s.41-2.6,1.24-3.51c.83-.91,1.88-1.37,3.18-1.37Zm0,1.81c-.67,0-1.2.27-1.58.81s-.57,1.29-.57,2.26.19,1.72.58,2.27c.39.55.91.82,1.58.82s1.2-.27,1.59-.82c.39-.54.58-1.3.58-2.27s-.19-1.72-.57-2.26-.91-.81-1.59-.81Z" style="fill:#0b5577;"/><path d="m397.89,529.56c.14.08.27.23.4.45.02.03.04.06.05.08l1.27,2.02h.24c.3,0,.53.07.68.21.15.14.23.35.23.63,0,.31-.08.53-.23.66-.15.14-.41.2-.76.2h-.96c-.35,0-.63-.15-.83-.46l-.02-.02-1.91-2.95c-.07-.11-.16-.2-.25-.26s-.19-.09-.3-.09h-.73v2.06h.12c.28,0,.49.07.64.21.14.14.21.35.21.63,0,.31-.07.53-.22.66s-.4.2-.75.2h-2.02c-.35,0-.6-.07-.75-.2-.15-.14-.23-.36-.23-.66,0-.28.07-.49.21-.63.14-.14.35-.21.63-.21h.13v-5.83h-.13c-.27,0-.48-.07-.62-.22-.15-.15-.22-.36-.22-.64,0-.3.08-.52.23-.66.15-.14.4-.21.75-.21h3.6c1.1,0,1.94.21,2.51.64.57.43.85,1.06.85,1.9,0,.58-.16,1.09-.47,1.52-.32.43-.77.74-1.36.95Zm-3.21-3.33v2.21h1.05c.65,0,1.11-.08,1.37-.25.26-.17.39-.45.39-.85s-.12-.67-.36-.85c-.24-.17-.62-.26-1.14-.26h-1.31Z" style="fill:#0b5577;"/><path d="m404.27,526.28v2.37l2.41-2.41c-.27-.03-.46-.11-.57-.23s-.16-.32-.16-.58c0-.31.07-.53.22-.66s.4-.2.75-.2h1.91c.35,0,.61.07.75.2s.22.36.22.66c0,.29-.07.5-.22.64s-.37.21-.65.21h-.18l-2.27,2.26c.42.31.81.72,1.16,1.23s.76,1.29,1.23,2.34h.26c.31,0,.54.07.69.21s.23.35.23.63c0,.31-.08.53-.23.66s-.41.2-.76.2h-.96c-.42,0-.76-.28-1.02-.85-.05-.1-.08-.19-.11-.25-.34-.73-.66-1.29-.95-1.69s-.62-.76-1.01-1.09l-.73.7v1.46h.12c.28,0,.5.07.64.21s.22.35.22.63c0,.31-.08.53-.23.66s-.41.2-.76.2h-2.02c-.36,0-.61-.07-.77-.2s-.23-.36-.23-.67c0-.28.07-.49.22-.63s.36-.21.64-.21h.13v-5.83h-.13c-.28,0-.49-.07-.63-.22s-.21-.36-.21-.64c0-.31.07-.53.22-.66s.4-.2.75-.2h2.02c.35,0,.6.07.76.2s.23.36.23.66c0,.28-.07.5-.22.64s-.36.22-.64.22h-.12Z" style="fill:#0b5577;"/><path d="m236.97,641.12l1.88,5.54,1.94-5.54h-.21c-.34,0-.59-.07-.74-.2s-.22-.35-.22-.66.07-.53.22-.66.4-.2.75-.2h1.97c.35,0,.61.07.75.2s.22.36.22.66c0,.28-.07.49-.22.64-.15.15-.36.22-.63.22h-.12l-2.38,6.77c-.12.35-.25.57-.36.65-.11.08-.32.12-.6.12h-.96c-.45,0-.77-.24-.95-.72l-.02-.05-2.43-6.77h-.13c-.27,0-.47-.07-.61-.22-.14-.15-.21-.36-.21-.64,0-.31.07-.54.21-.67.14-.13.39-.2.73-.2h2.32c.34,0,.58.07.73.21.15.14.23.36.23.66s-.08.52-.23.66c-.15.14-.4.2-.73.2h-.21Z" style="fill:#0b5577;"/><path d="m248.29,639.13c1.28,0,2.34.46,3.16,1.38s1.24,2.09,1.24,3.51-.41,2.6-1.23,3.52c-.82.91-1.88,1.37-3.17,1.37s-2.33-.46-3.16-1.38c-.83-.92-1.25-2.09-1.25-3.5s.41-2.6,1.24-3.51c.83-.91,1.88-1.37,3.18-1.37Zm0,1.81c-.67,0-1.2.27-1.58.81s-.57,1.29-.57,2.26.19,1.72.58,2.27c.39.55.91.82,1.58.82s1.2-.27,1.59-.82c.39-.54.58-1.3.58-2.27s-.19-1.72-.57-2.26-.91-.81-1.59-.81Z" style="fill:#0b5577;"/><path d="m257.05,641.12v5.83h3.55v-1.39c0-.36.06-.61.19-.77.13-.15.34-.23.64-.23s.51.08.65.23c.14.15.2.41.2.76v2.4c0,.28-.05.47-.16.56s-.33.14-.66.14h-7.09c-.34,0-.58-.07-.73-.2-.15-.14-.22-.36-.22-.66s.07-.52.21-.65c.14-.13.39-.2.73-.2h.69v-5.83h-.69c-.34,0-.58-.07-.73-.2-.15-.14-.22-.35-.22-.66s.08-.52.23-.66c.15-.14.4-.21.73-.21h3.33c.33,0,.58.07.73.21.15.14.23.36.23.66s-.08.52-.23.66c-.15.14-.4.2-.73.2h-.67Z" style="fill:#0b5577;"/><path d="m265.89,641.12v4.09c0,.72.13,1.24.38,1.54.25.3.67.46,1.26.46s1.01-.15,1.27-.46c.25-.31.38-.82.38-1.54v-4.09h-.12c-.28,0-.49-.07-.63-.22-.14-.15-.21-.36-.21-.64,0-.31.07-.53.22-.66s.4-.2.75-.2h1.95c.35,0,.61.07.75.2s.22.36.22.66c0,.28-.07.5-.21.64-.14.15-.35.22-.63.22h-.13v4.05c0,1.31-.28,2.26-.85,2.85-.57.59-1.48.88-2.73.88s-2.25-.29-2.82-.86-.86-1.53-.86-2.86v-4.05h-.13c-.28,0-.5-.07-.64-.22-.15-.15-.22-.36-.22-.64,0-.31.08-.53.23-.66.15-.14.41-.2.76-.2h2.02c.35,0,.6.07.76.2s.23.36.23.66c0,.28-.07.5-.22.64s-.36.22-.64.22h-.12Z" style="fill:#0b5577;"/><path d="m277.11,644.65l1.49-4.43c.09-.29.22-.5.39-.64.17-.13.39-.2.66-.2h1.22c.35,0,.61.07.76.2.15.14.23.36.23.66,0,.28-.07.5-.22.64s-.36.22-.64.22h-.12l.22,5.83h.13c.28,0,.49.07.63.21s.21.35.21.63c0,.31-.07.53-.22.66s-.4.2-.75.2h-1.76c-.35,0-.61-.07-.75-.2s-.22-.36-.22-.67c0-.28.07-.49.21-.63.14-.14.36-.21.64-.21h.12l-.11-4.77-1.14,3.55c-.08.27-.2.46-.36.57-.15.12-.37.18-.64.18s-.49-.06-.64-.18c-.16-.12-.28-.31-.36-.57l-1.13-3.55-.11,4.77h.12c.28,0,.49.07.64.21.14.14.21.35.21.63,0,.31-.08.53-.23.66-.15.14-.4.2-.75.2h-1.77c-.35,0-.6-.07-.75-.2s-.23-.36-.23-.66c0-.28.07-.49.21-.63s.36-.21.64-.21h.12l.23-5.83h-.12c-.28,0-.5-.07-.64-.22s-.22-.36-.22-.64c0-.31.08-.53.23-.66.15-.14.41-.2.76-.2h1.22c.27,0,.49.07.65.2s.3.34.4.64l1.53,4.43Z" style="fill:#0b5577;"/><path d="m288.94,641.04h-3.63v2h1.38v-.09c0-.3.06-.52.2-.66.13-.15.33-.22.59-.22.23,0,.43.07.57.2s.22.3.22.5c0,.01,0,.04,0,.1,0,.06,0,.11,0,.17v1.62c0,.35-.06.6-.19.75s-.33.23-.61.23c-.27,0-.47-.07-.6-.21-.14-.14-.2-.35-.2-.62v-.14h-1.38v2.34h3.63v-.93c0-.35.07-.6.2-.75s.35-.23.65-.23.51.07.64.22c.13.15.19.4.19.75v1.89c0,.28-.05.47-.16.56s-.33.14-.65.14h-6.4c-.34,0-.59-.07-.74-.2s-.22-.36-.22-.66c0-.28.07-.49.21-.63s.35-.21.62-.21h.13v-5.83h-.13c-.27,0-.47-.07-.61-.22-.14-.15-.21-.36-.21-.64,0-.3.08-.52.23-.66.15-.14.4-.21.73-.21h6.4c.32,0,.53.05.64.14.11.1.17.29.17.57v1.75c0,.35-.07.61-.2.76-.13.15-.34.23-.63.23s-.52-.08-.65-.23-.2-.41-.2-.76v-.82Z" style="fill:#0b5577;"/><path d="m550.89,571.55c.08-.17.17-.28.27-.34s.25-.09.45-.09c.3,0,.5.06.58.17s.13.33.14.67l.03,1.5v.09c0,.31-.06.52-.18.64s-.33.18-.62.18c-.37,0-.65-.2-.83-.59-.03-.06-.05-.1-.06-.14-.16-.32-.38-.57-.66-.73s-.6-.25-.98-.25c-.47,0-.85.11-1.14.32s-.43.49-.43.83c0,.48.66.86,1.98,1.13.22.05.4.08.53.11,1,.22,1.72.55,2.17,1s.67,1.06.67,1.84c0,.96-.33,1.7-.98,2.21s-1.58.78-2.8.78c-.47,0-.9-.03-1.27-.09s-.73-.16-1.08-.29c-.08.14-.18.23-.29.29s-.26.09-.45.09c-.33,0-.56-.06-.69-.19s-.2-.35-.2-.66l-.03-1.84v-.09c0-.34.06-.58.19-.72s.35-.2.67-.2c.34,0,.62.25.85.73.05.12.09.21.12.27.2.4.49.7.85.9s.81.3,1.33.3c.48,0,.85-.1,1.12-.3s.4-.48.4-.84c0-.56-.6-.98-1.8-1.27-.36-.08-.64-.15-.85-.21-1.01-.27-1.71-.6-2.1-1s-.59-.94-.59-1.64c0-.89.33-1.62,1-2.18s1.54-.85,2.6-.85c.35,0,.7.04,1.04.11s.68.18,1.02.33Z"/><path d="m560.99,571.63c.1-.19.21-.32.32-.4s.25-.12.41-.12c.25,0,.44.07.54.2s.16.37.16.7l.02,2.03c0,.36-.06.6-.18.73s-.33.19-.64.19c-.22,0-.39-.05-.5-.16-.12-.11-.22-.3-.3-.58-.14-.5-.35-.85-.65-1.07-.3-.22-.71-.33-1.23-.33-.8,0-1.42.27-1.84.81s-.64,1.33-.64,2.35.22,1.81.65,2.35,1.05.82,1.85.82c.55,0,1.15-.18,1.81-.55s1.07-.55,1.25-.55c.2,0,.37.09.51.26s.21.39.21.64c0,.46-.4.89-1.21,1.3s-1.72.61-2.73.61c-1.36,0-2.47-.45-3.31-1.35s-1.27-2.08-1.27-3.53.43-2.57,1.28-3.49,1.94-1.39,3.25-1.39c.37,0,.73.04,1.09.12s.74.21,1.15.39Z"/><path d="m566.86,573.1v1.8h2.55v-1.8h-.12c-.28,0-.5-.07-.64-.22s-.22-.36-.22-.64c0-.31.08-.53.23-.66s.41-.2.76-.2h2.02c.35,0,.61.07.75.2s.22.36.22.66c0,.28-.07.5-.21.64s-.35.22-.63.22h-.13v5.83h.13c.28,0,.5.07.64.21s.22.35.22.63c0,.31-.08.53-.23.66s-.41.2-.77.2h-2.02c-.36,0-.61-.07-.77-.2s-.23-.36-.23-.67c0-.28.07-.49.22-.63s.36-.21.64-.21h.12v-2.3h-2.55v2.3h.12c.28,0,.5.07.64.21s.22.35.22.63c0,.31-.08.53-.23.66s-.41.2-.76.2h-2.02c-.36,0-.61-.07-.77-.2s-.23-.36-.23-.67c0-.28.07-.49.22-.63s.36-.21.64-.21h.13v-5.83h-.13c-.28,0-.49-.07-.63-.22s-.21-.36-.21-.64c0-.31.07-.53.22-.66s.4-.2.75-.2h2.02c.35,0,.6.07.76.2s.23.36.23.66c0,.28-.07.5-.22.64s-.36.22-.64.22h-.12Z"/><path d="m579.98,573.02h-3.63v2h1.38v-.09c0-.3.07-.52.2-.66s.33-.22.59-.22c.23,0,.43.07.57.2s.22.3.22.5c0,.01,0,.04,0,.1s0,.11,0,.17v1.62c0,.35-.06.6-.19.75s-.33.23-.61.23c-.27,0-.47-.07-.6-.21s-.2-.35-.2-.62v-.14h-1.38v2.34h3.63v-.93c0-.35.07-.6.2-.75s.35-.23.65-.23.51.07.64.22.19.4.19.75v1.89c0,.28-.05.47-.16.56s-.33.14-.65.14h-6.4c-.34,0-.59-.07-.74-.2s-.22-.36-.22-.66c0-.28.07-.49.21-.63s.35-.21.62-.21h.13v-5.83h-.13c-.27,0-.47-.07-.61-.22s-.21-.36-.21-.64c0-.3.08-.52.23-.66s.4-.21.73-.21h6.4c.32,0,.53.05.64.14s.17.29.17.57v1.75c0,.35-.07.61-.2.76s-.34.23-.63.23-.52-.08-.65-.23-.2-.41-.2-.76v-.82Z"/><path d="m584.05,578.93v-5.83h-.13c-.28,0-.5-.07-.64-.22s-.22-.36-.22-.64c0-.3.08-.52.23-.66s.41-.21.76-.21h1.93c1.09,0,1.89.05,2.39.14s.93.25,1.29.47c.63.38,1.11.91,1.45,1.61s.5,1.5.5,2.41c0,.96-.19,1.81-.57,2.53s-.93,1.27-1.63,1.64c-.32.17-.69.29-1.12.36s-1.06.11-1.91.11h-2.34c-.36,0-.61-.07-.77-.2s-.23-.36-.23-.67c0-.28.07-.49.22-.63s.36-.21.64-.21h.13Zm2.02-5.86v5.86h.45c.98,0,1.71-.24,2.18-.72s.7-1.22.7-2.22-.24-1.72-.71-2.2-1.19-.73-2.15-.73c-.12,0-.22,0-.29,0s-.12,0-.18.01Z"/><path d="m595.33,573.1v4.09c0,.72.13,1.24.38,1.54s.67.46,1.26.46,1.01-.15,1.27-.46.38-.82.38-1.54v-4.09h-.12c-.28,0-.49-.07-.63-.22s-.21-.36-.21-.64c0-.31.07-.53.22-.66s.4-.2.75-.2h1.95c.35,0,.61.07.75.2s.22.36.22.66c0,.28-.07.5-.21.64s-.35.22-.63.22h-.13v4.05c0,1.31-.28,2.26-.85,2.85s-1.48.88-2.73.88-2.25-.29-2.82-.86-.86-1.53-.86-2.86v-4.05h-.13c-.28,0-.5-.07-.64-.22s-.22-.36-.22-.64c0-.31.08-.53.23-.66s.41-.2.76-.2h2.02c.35,0,.6.07.76.2s.23.36.23.66c0,.28-.07.5-.22.64s-.36.22-.64.22h-.12Z"/><path d="m605.7,573.1v5.83h3.55v-1.39c0-.36.06-.61.19-.77s.34-.23.64-.23.51.08.65.23.2.41.2.76v2.4c0,.28-.05.47-.16.56s-.33.14-.66.14h-7.09c-.34,0-.58-.07-.73-.2s-.22-.36-.22-.66.07-.52.21-.65.39-.2.73-.2h.69v-5.83h-.69c-.34,0-.58-.07-.73-.2s-.22-.35-.22-.66.08-.52.23-.66.4-.21.73-.21h3.33c.33,0,.58.07.73.21s.23.36.23.66-.08.52-.23.66-.4.2-.73.2h-.67Z"/><path d="m618.39,573.02h-3.63v2h1.38v-.09c0-.3.07-.52.2-.66s.33-.22.59-.22c.23,0,.43.07.57.2s.22.3.22.5c0,.01,0,.04,0,.1s0,.11,0,.17v1.62c0,.35-.06.6-.19.75s-.33.23-.61.23c-.27,0-.47-.07-.6-.21s-.2-.35-.2-.62v-.14h-1.38v2.34h3.63v-.93c0-.35.07-.6.2-.75s.35-.23.65-.23.51.07.64.22.19.4.19.75v1.89c0,.28-.05.47-.16.56s-.33.14-.65.14h-6.4c-.34,0-.59-.07-.74-.2s-.22-.36-.22-.66c0-.28.07-.49.21-.63s.35-.21.62-.21h.13v-5.83h-.13c-.27,0-.47-.07-.61-.22s-.21-.36-.21-.64c0-.3.08-.52.23-.66s.4-.21.73-.21h6.4c.32,0,.53.05.64.14s.17.29.17.57v1.75c0,.35-.07.61-.2.76s-.34.23-.63.23-.52-.08-.65-.23-.2-.41-.2-.76v-.82Z"/><path d="m627.7,576.38c.14.08.27.23.4.45.02.03.04.06.05.08l1.27,2.02h.24c.3,0,.53.07.68.21s.23.35.23.63c0,.31-.08.53-.23.66s-.41.2-.76.2h-.96c-.35,0-.63-.15-.83-.46l-.02-.02-1.91-2.95c-.07-.11-.16-.2-.25-.26s-.19-.09-.3-.09h-.73v2.06h.12c.28,0,.49.07.64.21s.21.35.21.63c0,.31-.07.53-.22.66s-.4.2-.75.2h-2.02c-.35,0-.6-.07-.75-.2s-.23-.36-.23-.66c0-.28.07-.49.21-.63s.35-.21.63-.21h.13v-5.83h-.13c-.27,0-.48-.07-.62-.22s-.22-.36-.22-.64c0-.3.08-.52.23-.66s.4-.21.75-.21h3.6c1.1,0,1.94.21,2.51.64s.85,1.06.85,1.9c0,.58-.16,1.09-.47,1.52s-.77.74-1.36.95Zm-3.21-3.33v2.21h1.05c.65,0,1.11-.08,1.37-.25s.39-.45.39-.85-.12-.67-.36-.85-.62-.26-1.14-.26h-1.31Z"/><path d="m706.41,578.93v-5.83h-.13c-.28,0-.5-.07-.64-.22s-.22-.36-.22-.64c0-.3.08-.52.23-.66s.41-.21.76-.21h1.93c1.09,0,1.89.05,2.39.14s.93.25,1.29.47c.63.38,1.11.91,1.45,1.61s.5,1.5.5,2.41c0,.96-.19,1.81-.57,2.53s-.93,1.27-1.63,1.64c-.32.17-.69.29-1.12.36s-1.06.11-1.91.11h-2.34c-.36,0-.61-.07-.77-.2s-.23-.36-.23-.67c0-.28.07-.49.22-.63s.36-.21.64-.21h.13Zm2.02-5.86v5.86h.45c.98,0,1.71-.24,2.18-.72s.7-1.22.7-2.22-.24-1.72-.71-2.2-1.19-.73-2.15-.73c-.12,0-.22,0-.29,0s-.12,0-.18.01Z"/><path d="m723.24,578.93h.13c.28,0,.5.07.64.21s.22.35.22.63c0,.31-.08.53-.23.66s-.41.2-.76.2h-2.35c-.36,0-.61-.07-.77-.2s-.23-.36-.23-.67.08-.52.23-.65.41-.2.77-.2h.27l-.32-.91h-3.38l-.34.91h.27c.35,0,.61.07.76.2s.23.35.23.64-.08.53-.23.66-.41.2-.76.2h-2.02c-.36,0-.61-.07-.77-.2-.15-.14-.23-.36-.23-.66,0-.28.07-.49.22-.63s.36-.21.64-.21h.13l2.09-5.83h-.62c-.35,0-.61-.07-.76-.2s-.23-.35-.23-.66.08-.53.23-.66.41-.2.76-.2h2.93c.46,0,.79.25.98.75v.02l2.48,6.78Zm-4.09-5.83l-1.13,3.3h2.27l-1.13-3.3Z"/><path d="m731.55,573.09h-1.63v5.83h1.31c.35,0,.6.07.75.2s.23.35.23.66-.08.53-.23.66-.4.2-.75.2h-4.64c-.34,0-.59-.07-.74-.2s-.23-.36-.23-.66.07-.53.22-.66.4-.2.75-.2h1.31v-5.83h-1.63l-.05,1.59v.2c0,.25-.07.45-.21.59s-.33.21-.57.21c-.29,0-.51-.07-.64-.22s-.21-.38-.21-.71v-.06l.09-2.34c.02-.46.08-.74.19-.84s.34-.14.68-.14h6.72c.34,0,.57.05.68.14s.18.37.2.84l.08,2.34v.06c0,.33-.07.57-.2.71s-.34.22-.63.22-.48-.07-.61-.21-.19-.4-.2-.78l-.05-1.59Z"/><path d="m742.45,578.93h.13c.28,0,.5.07.64.21s.22.35.22.63c0,.31-.08.53-.23.66s-.41.2-.76.2h-2.35c-.36,0-.61-.07-.77-.2s-.23-.36-.23-.67.08-.52.23-.65.41-.2.77-.2h.27l-.32-.91h-3.38l-.34.91h.27c.35,0,.61.07.76.2s.23.35.23.64-.08.53-.23.66-.41.2-.76.2h-2.02c-.36,0-.61-.07-.77-.2-.15-.14-.23-.36-.23-.66,0-.28.07-.49.22-.63s.36-.21.64-.21h.13l2.09-5.83h-.62c-.35,0-.61-.07-.76-.2s-.23-.35-.23-.66.08-.53.23-.66.41-.2.76-.2h2.93c.46,0,.79.25.98.75v.02l2.48,6.78Zm-4.09-5.83l-1.13,3.3h2.27l-1.13-3.3Z"/><path d="m750.73,575.73c.57.21.98.49,1.25.86s.4.82.4,1.39c0,.47-.11.91-.34,1.3s-.56.71-.98.96c-.25.15-.53.25-.84.32s-.75.1-1.32.1h-4.08c-.34,0-.59-.07-.74-.2s-.22-.36-.22-.66c0-.28.07-.49.21-.63s.35-.21.62-.21h.13v-5.83h-.13c-.27,0-.48-.07-.62-.22s-.21-.36-.21-.64c0-.3.08-.52.23-.66s.4-.21.73-.21h3.59c1.1,0,1.93.21,2.5.64s.86,1.05.86,1.88c0,.41-.09.76-.26,1.07s-.43.56-.78.76Zm-3.98-2.67v1.97h1.05c.64,0,1.09-.08,1.36-.23s.39-.41.39-.77c0-.34-.12-.59-.36-.74s-.62-.23-1.15-.23h-1.3Zm0,3.54v2.38h1.17c.83,0,1.41-.09,1.75-.27s.51-.49.51-.91-.16-.74-.48-.92-.89-.27-1.7-.27h-1.25Z"/><path d="m761.65,578.93h.13c.28,0,.5.07.64.21s.22.35.22.63c0,.31-.08.53-.23.66s-.41.2-.76.2h-2.35c-.36,0-.61-.07-.77-.2s-.23-.36-.23-.67.08-.52.23-.65.41-.2.77-.2h.27l-.32-.91h-3.38l-.34.91h.27c.35,0,.61.07.76.2s.23.35.23.64-.08.53-.23.66-.41.2-.76.2h-2.02c-.36,0-.61-.07-.77-.2-.15-.14-.23-.36-.23-.66,0-.28.07-.49.22-.63s.36-.21.64-.21h.13l2.09-5.83h-.62c-.35,0-.61-.07-.76-.2s-.23-.35-.23-.66.08-.53.23-.66.41-.2.76-.2h2.93c.46,0,.79.25.98.75v.02l2.48,6.78Zm-4.09-5.83l-1.13,3.3h2.27l-1.13-3.3Z"/><path d="m769.27,571.55c.08-.17.17-.28.27-.34s.25-.09.45-.09c.3,0,.5.06.58.17s.13.33.14.67l.03,1.5v.09c0,.31-.06.52-.18.64s-.33.18-.62.18c-.37,0-.65-.2-.83-.59-.03-.06-.05-.1-.06-.14-.16-.32-.38-.57-.66-.73s-.6-.25-.98-.25c-.47,0-.85.11-1.14.32s-.43.49-.43.83c0,.48.66.86,1.98,1.13.22.05.4.08.53.11,1,.22,1.72.55,2.17,1s.67,1.06.67,1.84c0,.96-.33,1.7-.98,2.21s-1.58.78-2.8.78c-.47,0-.9-.03-1.27-.09s-.73-.16-1.08-.29c-.08.14-.18.23-.29.29s-.26.09-.45.09c-.33,0-.56-.06-.69-.19s-.2-.35-.2-.66l-.03-1.84v-.09c0-.34.06-.58.19-.72s.35-.2.67-.2c.34,0,.62.25.85.73.05.12.09.21.12.27.2.4.49.7.85.9s.81.3,1.33.3c.48,0,.85-.1,1.12-.3s.4-.48.4-.84c0-.56-.6-.98-1.8-1.27-.36-.08-.64-.15-.85-.21-1.01-.27-1.71-.6-2.1-1s-.59-.94-.59-1.64c0-.89.33-1.62,1-2.18s1.54-.85,2.6-.85c.35,0,.7.04,1.04.11s.68.18,1.02.33Z"/><path d="m779.16,573.02h-3.63v2h1.38v-.09c0-.3.07-.52.2-.66s.33-.22.59-.22c.23,0,.43.07.57.2s.22.3.22.5c0,.01,0,.04,0,.1s0,.11,0,.17v1.62c0,.35-.06.6-.19.75s-.33.23-.61.23c-.27,0-.47-.07-.6-.21s-.2-.35-.2-.62v-.14h-1.38v2.34h3.63v-.93c0-.35.07-.6.2-.75s.35-.23.65-.23.51.07.64.22.19.4.19.75v1.89c0,.28-.05.47-.16.56s-.33.14-.65.14h-6.4c-.34,0-.59-.07-.74-.2s-.22-.36-.22-.66c0-.28.07-.49.21-.63s.35-.21.62-.21h.13v-5.83h-.13c-.27,0-.47-.07-.61-.22s-.21-.36-.21-.64c0-.3.08-.52.23-.66s.4-.21.73-.21h6.4c.32,0,.53.05.64.14s.17.29.17.57v1.75c0,.35-.07.61-.2.76s-.34.23-.63.23-.52-.08-.65-.23-.2-.41-.2-.76v-.82Z"/><circle cx="594.34" cy="518.54" r="25.58" style="fill:#706f6f;"/><path d="m630,520.92c-.56,6.7-3.35,13.05-7.48,18.18-4.14,5.14-9.61,9.17-15.76,11.53-6.13,2.38-12.99,2.99-19.41,1.47-6.42-1.49-12.28-5.02-16.71-9.81-4.45-4.78-7.52-10.8-8.72-17.19-1.23-6.39-.53-13.12,1.99-19.08,2.51-5.97,6.82-11.15,12.21-14.68,5.38-3.56,11.81-5.44,18.22-5.37v1.01c-6.22.04-12.38,1.97-17.48,5.47-5.11,3.48-9.13,8.5-11.42,14.2-2.3,5.7-2.84,12.07-1.58,18.06,1.24,6,4.22,11.6,8.45,15.99,4.22,4.4,9.7,7.56,15.61,8.82,5.91,1.29,12.16.63,17.75-1.65,5.6-2.26,10.58-6.06,14.27-10.81,3.7-4.74,6.08-10.5,6.47-16.42l3.58.28Z" style="fill:#706f6f;"/><polygon points="618.73 526.46 620.05 528.05 627.9 521.55 633.81 529.86 635.49 528.66 628.3 518.54 618.73 526.46" style="fill:#706f6f;"/><path d="m594.09,522.76c-.15,0-.29-.03-.42-.1-.3-.16-.48-.46-.48-.8v-20.73c0-.5.4-.9.9-.9s.9.4.9.9v19.03l8.53-5.76c.41-.28.97-.17,1.25.24.28.41.17.97-.24,1.25l-9.94,6.71c-.15.1-.33.15-.5.15Z" style="fill:#fff;"/><circle cx="594.44" cy="497.16" r=".63" style="fill:#fff;"/><circle cx="594.44" cy="540.37" r=".63" style="fill:#fff;"/><circle cx="579.16" cy="503.49" r=".63" style="fill:#fff;"/><circle cx="609.71" cy="534.04" r=".63" style="fill:#fff;"/><circle cx="572.83" cy="518.76" r=".63" style="fill:#fff;"/><circle cx="616.04" cy="518.76" r=".63" style="fill:#fff;"/><circle cx="579.16" cy="534.04" r=".63" style="fill:#fff;"/><circle cx="609.71" cy="503.49" r=".63" style="fill:#fff;"/><polyline points="432.27 286.22 432.27 337.77 595.13 337.77 595.13 469.6" style="fill:none; stroke:#0b5577; stroke-miterlimit:10; stroke-width:2px;"/><path d="m424.75,286.65c0-4.15,3.37-7.52,7.52-7.52s7.52,3.37,7.52,7.52-3.37,7.52-7.52,7.52-7.52-3.37-7.52-7.52Z" style="fill:#fff;"/><path d="m423.75,286.65c0,4.7,3.82,8.52,8.52,8.52s8.52-3.82,8.52-8.52-3.82-8.52-8.52-8.52-8.52,3.82-8.52,8.52,0-4.7,0,0Zm15.04,0c0,3.6-2.92,6.52-6.52,6.52s-6.52-2.92-6.52-6.52,2.92-6.52,6.52-6.52,6.52,2.92,6.52,6.52,0-3.6,0,0Z" style="fill:#0b5577;"/><path d="m587.62,469.17c0,4.15,3.37,7.52,7.52,7.52s7.52-3.37,7.52-7.52-3.37-7.52-7.52-7.52-7.52,3.37-7.52,7.52Z" style="fill:#fff;"/><path d="m586.62,469.17c0-4.7,3.82-8.52,8.52-8.52s8.52,3.82,8.52,8.52-3.82,8.52-8.52,8.52-8.52-3.82-8.52-8.52,0,4.7,0,0Zm15.04,0c0-3.6-2.92-6.52-6.52-6.52s-6.52,2.92-6.52,6.52,2.92,6.52,6.52,6.52,6.52-2.92,6.52-6.52,0,3.6,0,0Z" style="fill:#0b5577;"/><polyline points="741.13 469.6 741.13 337.77 595.13 337.77" style="fill:none; stroke:#0b5577; stroke-miterlimit:10; stroke-width:2px;"/><path d="m748.65,469.17c0,4.15-3.37,7.52-7.52,7.52s-7.52-3.37-7.52-7.52,3.37-7.52,7.52-7.52,7.52,3.37,7.52,7.52Z" style="fill:#fff;"/><path d="m749.65,469.17c0-4.7-3.82-8.52-8.52-8.52s-8.52,3.82-8.52,8.52,3.82,8.52,8.52,8.52,8.52-3.82,8.52-8.52,0,4.7,0,0Zm-15.04,0c0-3.6,2.92-6.52,6.52-6.52s6.52,2.92,6.52,6.52-2.92,6.52-6.52,6.52-6.52-2.92-6.52-6.52,0,3.6,0,0Z" style="fill:#0b5577;"/></g><g id="Data_Protection"><path d="m755.83,547.15c-.31-.18-.61-.37-.93-.53-6.44-3.12-11.45-7.57-13.25-14.79-.46-1.85-.43-3.83-.5-5.76-.06-1.47,0-2.96.14-4.43.12-1.25.89-2.12,2.09-2.5,6.34-2.05,12.75-3.33,19.42-1.69,2.08.51,4.16,1.02,6.23,1.57,1.59.42,2.5,1.55,2.54,3.15.09,3.17.29,6.35-.4,9.49-1.1,5.01-4.02,8.81-8.05,11.79-1.69,1.25-3.6,2.19-5.41,3.27-.26.15-.52.29-.79.44h-1.09Z" style="fill:#706f6f;"/><path d="m738.92,503.59c-6.8,0-13.61,0-20.41,0-.33,0-.67.01-1-.02-1.54-.14-2.35-.76-2.44-2.28-.13-2.23-.19-4.48.03-6.7.26-2.61,1.87-3.9,4.5-4.06.3-.02.6-.01.91-.01,12.37,0,24.74,0,37.11,0,3.51,0,5.3,1.79,5.3,5.3,0,1.57,0,3.14,0,4.72,0,2.14-.89,3.04-3.03,3.04-6.99,0-13.97,0-20.96,0Z" style="fill:#706f6f;"/><path d="m736.71,521.01c-.3,0-.6,0-.9,0-5.84,0-11.68,0-17.52,0-2.49,0-3.3-.82-3.31-3.33,0-2.21,0-4.42,0-6.62,0-2.22.87-3.11,3.07-3.11,13.89,0,27.77,0,41.66,0,2.38,0,3.2.85,3.2,3.25,0,.51,0,1.02,0,1.63-.68-.08-1.27-.14-1.85-.21-6.58-.84-12.97.15-19.18,2.29-2.58.89-4.39,2.73-4.97,5.55-.04.17-.12.33-.21.55Z" style="fill:#706f6f;"/><path d="m739.01,538.43h-1.52c-5.75,0-11.49,0-17.24,0-3.48,0-5.26-1.77-5.26-5.23,0-1.66-.02-3.33,0-4.99.03-1.83.84-2.8,2.61-2.81,6.35-.05,12.7-.02,19.03-.02.16,2.25.12,4.5.52,6.67.39,2.14,1.21,4.2,1.87,6.38Z" style="fill:#706f6f;"/></g></svg>