<svg xmlns="http://www.w3.org/2000/svg" width="24" height="24" viewBox="0 0 24 24"><path d="M12 15a3 3 0 1 0 6 0a3 3 0 1 0 -6 0" fill="none" stroke="#2eac68" stroke-width="2" stroke-linecap="round" stroke-linejoin="round"/><path d="M13 17.5v4.5l2 -1.5l2 1.5v-4.5" fill="none" stroke="#2eac68" stroke-width="2" stroke-linecap="round" stroke-linejoin="round"/><path d="M10 19h-5a2 2 0 0 1 -2 -2v-10c0 -1.1 .9 -2 2 -2h14a2 2 0 0 1 2 2v10a2 2 0 0 1 -1 1.73" fill="none" stroke="#0b354a" stroke-width="2" stroke-linecap="round" stroke-linejoin="round"/><path d="M6 9l12 0" fill="none" stroke="#0b354a" stroke-width="2" stroke-linecap="round" stroke-linejoin="round"/><path d="M6 12l3 0" fill="none" stroke="#0b354a" stroke-width="2" stroke-linecap="round" stroke-linejoin="round"/><path d="M6 15l2 0" fill="none" stroke="#0b354a" stroke-width="2" stroke-linecap="round" stroke-linejoin="round"/></svg>