<svg xmlns="http://www.w3.org/2000/svg" viewBox="0 0 1000 500"><path fill="#006" d="M0 0h1000v500H0z"/><path fill="#BD1021" d="M0 250L1000 0v500L0 250z"/><path fill="#FFF" d="M107.14 250L1000 26.79v446.42"/><path d="M766.471 277.926c6.665.512 6.437 7.12 6.437 7.12l23.602.526c3.019-8.229 6.152-7.276 11.886-3.212 5.448 3.861 11.393 5.585 11.393 5.585 2.279-11.81 19.026-9.422 19.026-9.422 7.14-17.054 7.747-16.827 3.494-18.987-4.253-2.16-5.988-5.814-5.988-5.814-4.037-4.873-6.164-11.922-6.62-16.246-.456-4.324-5.469 2.164-6.38.799-.911-1.364-8.355-.568-8.355-.568 1.823 1.933-4.405.796-4.405.796.608.455 0 2.274 0 2.274-.608-.796-5.317-1.592-5.317-1.592-.456 1.023-1.519 2.16-1.519 2.16-2.582-1.137-7.747-.91-7.747-.91-7.595-.114-12.152 2.274-14.279 3.525s-9.722 5.116-15.95 11.142-9.722 5.344-9.722 5.344c-1.823 6.708-16.709 14.894-16.709 14.894-2.43 2.16-9.874 3.183-13.671 0s0-8.868 0-8.868c1.405-2.658 2.798-2.548 2.953-11.77.105-6.236 6.542-11.182 13.149-18.43 8.078-8.861 19.368-23.449 19.368-23.449.057 4.477 2.506 5.202 2.506 5.202 2.222-4.562 5.412-8.229 5.412-8.229.171.384.627.64.627.64 2.506-3.411 4.044-4.775 4.044-4.775-.854-.341-7.861 0-14.412 5.713-6.551 5.713-11.051 3.795-11.051 3.795-4.557-1.45-4.956-4.946-4.956-4.946-3.327-14.317 9.741-24.558 9.741-24.558-17.545-4.178-4.899-26.434 16.861-35.899s21.532-13.729 21.532-13.729c1.253 1.45 2.279 4.008 2.279 4.008.228-.171 1.823-2.558 14.355-8.101 12.532-5.543 18.57-10.318 18.57-10.318 1.595 3.07 1.253 5.287 1.253 5.287 34.292-12.023 68.072-39.608 68.072-39.608.968 2.302.456 5.798.456 5.798 5.582-5.159 25.748-17.182 25.748-17.182.342 7.674-5.981 10.616-5.981 10.616.684 1.109 1.082 3.112 1.082 3.112 3.304-1.791 18.684-12.535 18.684-12.535 5.639 4.86.513 12.833.513 12.833 1.994-.298 3.475-2.046 3.475-2.046 1.424 8.271-7.747 15.562-7.747 15.562 1.595.043 4.272-1.535 4.272-1.535-1.709 9.039-18.855 19.058-18.855 19.058 2.506 2.217.114 5.159-1.937 6.481s-5.696 4.221-4.557 5.415 8.716-4.136 8.716-4.136c1.31 3.795-8.431 11.256-8.431 11.256 6.779.895 25.634-7.674 25.634-7.674-1.538 7.291-8.659 12.961-17.431 16.244-8.773 3.283-8.317 3.795-8.317 3.795 1.538 1.236 13.671-2.302 13.671-2.302-3.646 8.143-16.292 13.729-16.292 13.729 3.475 2.942 8.203-.469 12.931-3.709s11.165-6.012 18.285-8.399c7.121-2.388 12.133-.597 12.133-.597 5.924-1.876 10.937.767 10.937.767 11.393.938 12.532 5.074 12.532 5.074 1.253.298 2.222.81 5.127 2.942s2.734 8.74 2.62 11.981c-.114 3.24-1.025 3.24-1.595 4.136s-.627 1.919-.627 3.155-2.848 8.911-20.45 8.996c-17.602.085-26.678 0-26.678 0-1.453 0-3.19.853-3.19.853-7.405 3.667-3.494-2.501-12.304 4.747-8.81 7.248-13.292 5.997-13.292 5.997-1.443 1.734-10.671 10.318-15.95 13.729-5.279 3.411-4.329 3.098.266 5.088s11.545 0 11.545 0c-4.443 2.956-1.367 4.32-1.367 4.32 5.848-3.553 9.38-2.245 9.38-2.245 1.861 5.088-4.823 13.132-4.823 13.132 2.582.341 7.443 0 7.443 0-1.177 3.439-6.038 7.22-9.608 8.385-3.57 1.165-2.924 1.62-1.861 3.78s.152 4.349.152 4.349c-6.228-4.32-6.456-.455-6.456-.455-.719 5.12-.608 12.45-.608 12.45-4.405-2.217-4.633.739-4.633.739-1.139 4.661-6.532 10.062-6.532 10.062-.228-2.899-2.886-3.638-2.886-3.638-2.81 5.4-7.975 8.641-7.975 8.641-.684 4.661.608 11.199.608 11.199-3.342-.682-4.557-.625-5.089.171s.76 1.194.76 1.194l43.521 1.08c.608.057 3.19.341 3.266 5.059.076 4.718-3.798 4.946-3.798 4.946l-47.622-1.137s.228 1.307-2.279 2.615-1.671-1.478-2.355 4.377c-.684 5.855-10.178-.455-10.178-.455-1.519 2.274-5.241 5.23-5.241 5.23-2.127-6.424-4.329-8.413-7.747-2.842s6.152 4.605 6.152 4.605 55.901-8.243 58.939-8.527 6.38-.114 7.747 4.15-6.76 4.946-6.76 4.946l-57.344 6.253c-1.215 3.411-6 3.127-6 3.127.38 3.24-3.038 5.287-4.785 6.481-1.747 1.194-7.215.625-7.215.625-6.684 4.548-9.95.966-9.95.966-4.329 1.876-7.064 1.08-10.633-.455-3.57-1.535-3.266-5.855-3.266-5.855l-36.191 3.752a8.752 8.752 0 00-2.886 1.734c1.291 1.649-2.592 5.479-2.592 5.479 1.082.746 3.161 2.835 3.446 7.355.301 4.781-5.839 5.585-2.763 8.911s8.687.576 14.953-2.43 12.418-2.622 15.095-2.601c2.677.021 10.14 1.897 14.782 3.539 4.643 1.641 6.238.661 6.551-1.727s2.393-3.07 2.393-3.07c-.57 2.345.684 3.39.684 3.39 1.794.128 4.927-1.62 4.927-1.62-.285 1.727-2.563 2.814-2.563 2.814-4.557 3.048 1.709 1.919 1.709 1.919 12.475-2.558 16.918-2.302 20.165-1.961s18.57 6.864 18.57 6.864c.57-1.535.171-5.329.171-5.329 3.931 1.066 5.526 3.326 5.526 3.326 1.481-1.62.513-4.349.513-4.349 12.646 7.077-2.62 10.275-6.665 11.639-4.044 1.364-3.987 3.027-3.987 3.027 3.361-1.066 5.696-1.45 8.488-1.663 2.791-.213 1.823-.043 8.488-1.364 6.665-1.322 10.083 1.492 10.083 1.492-5.582.298-7.234 1.961-7.234 1.961 3.532 2.43.171 4.477.171 4.477-5.07-6.395-9.399.256-9.399.256 1.737-.256 6.836.81 8.288 1.727 1.124.709 3.76 2.004 7.035 3.517 4.625 2.137 3.76.767 7.348 2.132s2.222 4.818 2.222 4.818c-1.538-2.814-4.842-3.795-4.842-3.795-.285 3.795-4.101 4.434-4.101 4.434 4.671-5.202-5.412-7.461-10.14-7.376s-8.26 3.112-8.26 3.112c9.513 8.911 16.121 6.012 16.121 6.012-1.196 3.24-9.057 1.961-9.057 1.961 3.646 2.771 3.247 4.733 3.247 4.733-1.937-1.876-5.127-.938-11.962-5.372s-12.931-2.984-12.931-2.984c6.665 7.12-2.449 11.341-2.449 11.341-3.361 1.919 1.424 4.519 1.424 4.519-4.215.767-4.785-3.453-4.785-3.453-2.222-.426-5.412 2.26-5.412 2.26.228-4.349 5.924-2.174 6.095-6.694s-5.298-8.015-21.419-5.798-20.849-2.942-20.849-2.942c-1.367.043-1.652 1.407-1.652 1.407 2.677 2.558 3.874 3.624 3.418 5.415-.456 1.791.854 2.388.854 2.388-2.962-.171-3.19-3.709-3.19-3.709-.057 1.45-.684 1.578-1.652 3.112-.968 1.535-.057 3.496-.057 3.496-1.253-1.109-3.532-2.43-1.367-5.585 1.667-2.43-3.475-5.543-3.475-5.543-1.994-2.046-7.291-.128-7.291-.128-10.994 2.174-17.431-4.775-17.431-4.775-1.253 0-3.646-.682-3.646-.682-11.621 5.202-21.817-6.054-21.817-6.054-8.772 1.663-12.76-2.558-15.437-6.694-2.677-4.136-3.19-4.477-6.722-6.608-3.532-2.132-6.833-8.163-3.589-11.341 2.829-2.771 1.994-3.411 1.994-3.411-4.557-7.66 8.127-10.13 8.355-11.963.332-2.675 2.981-4.366 5.829-4.537 2.848-.171 2.848.085 4.728-1.833 1.88-1.919 5.469.469 5.469.469.741-.554 7.007-5.415 12.589-2.899 5.583 2.516 10.197.725 10.197.725 3.931-.853 36.571-5.287 36.571-5.287 2.108-3.155 3.589-6.95 12.589-8.996 9-2.046 15.836-7.632 15.836-7.632-1.595-1.705-4.272-1.62-5.639-1.791-1.367-.171-4.215-2.601-4.215-2.601-1.652.725-2.499.37-14.298 7.546-10.538 6.41-10.842-6.309-10.842-6.309l-22.994.042c-.399 4.86-4.101 6.779-4.101 6.779l-8.374.426c-4.671-2.473-4.728-10.701-4.728-10.701-25.292.384-39.362 9.422-39.362 9.422-28.653-14.667-51.097-17.992-51.097-17.992 34.805-3.795 53.204-13.473 53.204-13.473 19.197 11.512 37.255 11.81 37.255 11.81.684-6.95 5.355-8.655 5.355-8.655l5.296.288z"/><path d="M725.09 335.68c-7.273 4.265-5.958 6.594-5.325 7.904.646 1.336.721 2.615-1.253 4.605-1.975 1.99-1.785 2.681-1.785 2.681.304 7.069 5.311 8.57 7.399 10.304 1.749 1.452 4.715 6.002 4.715 6.002 3.722 5.344 7.671 5.4 10.595 5.4s2.664-.248 1.177-1.563c-1.398-1.237-4.329-3.638-4.329-3.638 3.911 1.364 7.633 5.457 7.633 5.457 7.39 8.086 14.203 7.021 17.203 6.623s2.468-2.132 2.468-2.132c-.158-.288-3.076-.512-3.076-.512-11.089-1.052-14.431-8.328-14.431-8.328 6.684 6.566 17.165 7.902 20.393 7.781s3.038.803 2.354.974-1.671 0-3.152-.114-1.481.256-1.139.881 1.737.689 3.503.625.342.128 4.927 3.688c4.586 3.56 16.007.682 16.007.682-7.377-1.833-8.402-5.159-8.402-5.159-10.026 1.172-14.099-4.839-14.099-4.839-1.794-1.791-7.151-4.56-7.151-4.56-5.666-2.432-6.549-7.56-6.549-7.56 1.595 2.27 4.7 4.872 8.63 5.959s5.041 1.663 5.041 1.663c-1.88.277-2.991-.341-2.991-.341-3.931-1.151-1.709.448-1.709.448 4.329 3.453 5.526 3.198 5.526 3.198 11.364 1.172 5.725-3.368 5.725-3.368 8.089 1.919 9.428-1.109 9.428-1.109 1.68 3.56 7.804 2.281 7.804 2.281-8.146 3.922-1.965 2.802-1.965 2.802 8.231-1.544 9.845.552 9.845.552 2.228 2.072 4.481 1.784 4.481 1.784s1.481.043 4.614.67 7.918 3.295 12.475 2.731 5.298.866 5.298.866c-.854-.295-2.848-.6-6.38.978s-9.627 2.089-18.513 0-9.57-1.833-9.57-1.833c2.108 1.577 3.987 3.795 4.386 5.329s1.937 1.62 1.937 1.62c.627-1.961 3.304-2.814 3.304-2.814 1.753 1.62 6.437 3.752 6.437 3.752.513-1.066 0-1.812 0-1.812 3.418 3.262 7.405 2.281 7.405 2.281 1.081-.765.741-2.601.741-2.601 1.367-.043 1.595.81 2.563 1.45s4.044.213 4.044.213c-1.139-.469-1.937-2.217-1.937-2.217 4.5-3.112 14.241-1.748 14.241-1.748 7.035 1.236 6.152 5.841 6.152 5.841 1.424.682 3.304 2.814 3.304 2.814.598-1.62.057-3.262.057-3.262 3.219 1.535 3.902 5.287 3.902 5.287 3.731-4.264-3.56-9.06-3.56-9.06 3.532-.448 7.434-.128 9.798.213s5.753 1.578 8.516 3.88 7.719 3.368 7.719 3.368c-.152-.951-2.791-2.558-3.389-2.899s-.854-1.172-.854-1.172c2.421.426 4.101.213 4.101.213-8.516-5.202-10.652-7.674-10.652-7.674 3.19.405 4.956-1.578 4.956-1.578-6.722.149-6.95-1.599-6.95-1.599.826.234 3.874.981 7.89.192s9.598.021 9.598.021c-2.905-4.669-14.156-3.88-17.744-3.688s-4.984-.277-4.984-.277c.57-.277 1.168-.874 3.987-.895 2.82-.021 5.582.213 8.772-1.983s7.567-1.471 7.567-1.471c-1.063-2.103-6.114-2.842-10.557 0s-8.469 1.933-8.469 1.933c7.026-.995 9.076-3.468 9.076-3.468-2.127-.512-3.304.171-7.519.995s-5.355-.625-5.355-.625c4.633-2.757 7.861-3.866 7.861-3.866-3.949-.824-7.595-2.51-7.595-2.51-4.101 3.857-7.291 6.034-15.152 1.913s-11.962-3.638-11.962-3.638c6.912-4.093 14.013-2.331 19.178.767s6.646.568 6.646.568c-1.633-1.023-1.405-1.904-1.405-1.904 12.532 6.395 17.963 2.416 20.735.54s-1.253-4.377-1.253-4.377c-.266 4.065-5.393 5.912-9.418 4.548s-7.747-3.098-13.538-5.514-13.045-1.165-19.805.256-7.633.739-8.241.199-.949-2.189-4.405-.767c-3.456 1.421-11.507-2.359-16.52-3.553s-13.219-.541-20.317 3.354-10.595 2.928-12.722 1.961-3.456-3.638-1.177-6.026 2.468-3.041 2.279-6.481c-.19-3.439-3.57-5.486-3.57-5.486 3.114-3.212 3.874-3.922 2.81-5.315-1.063-1.393.608-1.364 2.393-2.16s.987-.91.57-1.961c-.418-1.052-1.443-.881-1.443-.881-4.139.171-6.418-.966-6.418-.966-6.855-3.155-13.216 2.984-13.216 2.984-3.894-2.983-4.785-1.052-5.469-.313s-2.051 1.251-3.874 1.421c-1.658.155-4.164.804-5.033 2.353 0 0-.768 1.245.19 2.608 0 0 1.064 1.605-.872 3.544-1.937 1.94-2.62 2.409-2.022 4.242s.427 3.24-.313 4.434c0 0-.883-1.023-.655-2.281s.228-1.983-.057-2.665c0 0-1.908 1.876-2.25 3.219 0 0-.797-2.068 1.965-4.839s4.021-4.151 3.247-5.223c-.57-.789-2.591.488-3.077.773z" fill="#FFC221"/><path d="M732.94 366.24s-3.456-2.643-3.038-6.31.348-4.121-.035-4.889c0 0-.63.365-.611 1.791.018 1.338-.172 2.729-.304 2.984 0 0-1.785-3.041-2.506-3.61 0 0 .608-3.183-.38-4.548-.987-1.364-1.943-1.45-3.076-1.023-1.568.59-2.752 2.047 2.517 6.367 0 0 1.964 1.563 3.332 5.031 1.367 3.468 3.646 4.008 4.101 4.207zm17.128-10.147s-.266-2.075 1.595-5.742.745-6.391.327-7.301-.669-.572 1.208-2.148c2.31-1.939-.89-4.387 2.908-7.787 0 0 2.506-2.149 3.076-3.03 0 0-4.025 2.16-6.646 3.24-2.62 1.08-12.646 5.997-10.443 9.294s1.975 3.468 1.633 4.832c0 0-5.962-3.155-3.874-8.271 0 0 .947-2.061 3.456-4.377 2.279-2.103.911.455 5.544-2.189 0 0 3.684-2.189 5.62-5.145 0 0-2.43 1.535-3.304 1.791 0 0-5.355.966-7.519 3.24-2.165 2.274-6.76 6.225-5.203 10.63 0 0-5.355-.654-6.57-6.225 0 0-9.912 12.222 10.899 17.907.001.002 3.799 1.011 7.293 1.281z"/><path d="M841.606 315.23c7.772-1.175 52.815-7.982 56.908-8.397 4.481-.455 6.197-1.053 7.671 2.558 1.671 4.093-6.152 4.15-6.152 4.15l-53.699 6.088c-2.634.304-3.223-.701-3.223-.701-.465-.858-1.363-2-1.982-2.748 0-.001-.707-.771.477-.95z" fill="#FFC221"/><path d="M731.61 339.66s-5.81 12.236 17.032 15.263c0 0 .057-1.364.968-3.283s2.905-5.798 1.025-8.314 1.538-1.194 2.051-4.477-.342-2.814 1.253-4.946c0 0-7.177 2.601-9.912 5.756-2.734 3.155 3.703 5.543-.114 8.996 0 0-3.19-1.151-5.07-4.605.002.001-4.441.087-7.233-4.39z" fill="#5A3719"/><path d="M753.94 354.69s5.639 4.882 12.361 4.669 9.57-2.004 11.279-4.669c0 0 1.307 2.065 1.31 3.432 0 0 5.81-4.818 15.836-.64s6.95 3.03 9.171 3.327c0 0-4.262-.758-14.013 3.708-10.025 4.592-36.172 3.027-35.944-9.827z"/><path d="M744.597 333.096s2.535.384 5.07-2.473c0 0-3.418.64-5.07 2.473zm-19.155 22.725s-4.713-3.709-1.694-4.434c0 0 2.15-.341 1.694 4.434z" fill="#5A3719"/><path d="M828.049 379.017s2.506-4.48 9.741-4.48 8.089 3.326 17.203 3.965c0 0-10.944 3.084-18.57.256-3.987-1.478-7.576-.249-8.374.259z"/><path d="M756.446 357.952s10.823 6.566 20.45-.554c0 0 .798.767 1.481 2.515 0 0 7.291-7.036 20.336.554 0 0-1.603-.178-7.747 2.473-8.004 3.454-28.026 5.714-34.52-4.988z" fill="#5A3719"/><path d="M798.2 364.604s10.367 1.202 19.14.682c5.39-.319 11.222-1.306 8.317.52-2.905 1.825-1.481 1.996 10.937.845s-.114 2.345 8.431 3.453c0-.001-20.71 10.573-46.825-5.5z"/><path d="M825.429 357.995s6.095-2.217 11.735.426c5.639 2.643 4.785 2.857 8.545 3.24 0 0-2.62 3.752-8.829.725-6.21-3.027-7.855-3.611-11.451-4.391zm6.779 18.717s5.98-2.983 12.591.118c.827.388 2.631 1.137 4.327 1.502 0 0-5.065 1.57-10.254-.043-2.157-.67-3.873-1.193-6.664-1.577zm-29.565-10.702s13.33 1.236 20.564-.205c0 0-8.374 4.042 12.646 2.166 0 0 4.671-.512 4.101.213s-.911 1.279 1.367 1.961c.001.001-15.607 6.993-38.678-4.135z" fill="#5A3719"/><path d="M736.05 354.69s.114 1.023 3.076 2.345 4.557 3.688 5.184 4.967 2.136 3.193 4.586 3.803c0 0-10.45 2.181-15.133-3.255 0 0-3.551-3.916 2.174-7.86"/><path d="M818.31 378.8s-4.158-.256-9.798-2.217c-5.639-1.961-7.121-.298-10.31-2.686-3.19-2.388-9.627-.895-10.823-.725-1.196.171-4.614 0-.342-2.771 0 0-3.418-.085-4.728-1.791 0 0-1.538 1.492-7.291.938 0 0 2.563 4.026-7.747 2.866 0 0 3.076 3.572 6.779 4.297s5.247.485 7.633-.213c0 0-.684 3.112 4.101 4.306s5.753 2.132 8.203 3.112c0 0 .342-2.004-6.038-6.651 0 0 3.418-.171 8.317 1.023 4.897 1.194 16.005 4.051 22.044.512zm2.582 4.775s1.025 2.388 4.177 1.848 8.336-1.464 13.349 1.094c0 0 .854-4.264-9.209-4.562 0 0-6.304.341-8.317 1.62zm-85.218-27.372s-3.874 3.183-.361 6.495c3.209 3.025 8.165 2.757 10.538 2.672 0 0-1.424-.81-2.677-2.686s-1.296-3.144-3.931-4.349c-2.734-1.25-3.057-1.577-3.569-2.132zm-4.064-16.542s-5.81 12.236 17.032 15.263c0 0 .057-1.364.968-3.283s2.905-5.798 1.025-8.314 1.538-1.194 2.051-4.477-.342-2.814 1.253-4.946c0 0-7.177 2.601-9.912 5.756-2.734 3.155 3.703 5.543-.114 8.996 0 0-3.19-1.151-5.07-4.605.002.001-4.441.087-7.233-4.39z" fill="#5A3719"/><path d="M791.65 367.89s4.785-.767 16.975 3.795 17.26 3.411 19.083 3.283c0 0-6.876 3.592-17.526-1.097-9.417-4.147-10.044-2.57-18.532-5.981z"/><path d="M867.962 365.158s2.783-.095 4.405.668c0 0 1.063-.91 3.608-1.18 0 0-1.671-1.677-8.013.512zm-8.335-6.75s2.791-.128 3.627-1.464c0 0-1.405-1.791-3.551-2.643 0-.001.436 1.904-.076 4.107zm-93.668-31.153s-.513-1.364 2.392-1.791c2.905-.426 40.881-5.841 40.881-5.841s2.013-.003 2.298 1.322c.308 1.432-.228 2.503-9.399 3.575s-33.381 4.099-33.381 4.099-2.564.427-2.791-1.364z" fill="#FFC221"/><path d="M803.004 325.621s0 5.372 5.469 6.168c5.306.772 7.13-.331 8.545-3.125.371-.734 1.999-6.343-.357-6.771-.926-.168-2.569-.072-3.744.43-1.83.782-3.528 1.698-2.924 2.615 1.291 1.961 1.543 2.416 1.063 2.558-1.312.389-2.277-.764-2.544-1.563-.333-.996.723-1.637-2.848-1.109-1.46.216-2.66.171-2.66.797z" fill="#FFC221"/><path d="M825.752 321.491c2.794.322 2.582 6.233-.76 8.905-3.599 2.877-7.033 1.848-7.033 1.848-1.816-.767-1.588-.512-.183-2.643 1.33-2.018 1.957-4.734 1.215-6.623-.237-.604.418-1.094 1.345-1.293.002-.001 2.53-.527 5.416-.194z" fill="#FFC221"/><path d="M828.182 322.011s1.994 2.509-.495 7.134c0 0-1.1 1.364 1.368 1.165s7.975-2.842 7.405-6.225c0 0-.19-.824-1.633-.739-1.443.085-.266-.796.342-.966s2.487-.867-2.392-4.008c0 0-.805-.725-1.747-.426-.744.236-3.343 1.302-3.343 2.814.001.62.495 1.251.495 1.251z" fill="#FFC221"/><path d="M833.518 317.761s3.893 2.79 3.874 3.619c-.019.829-.361 1.952.665 1.853 1.025-.099 5.241-.995 4.082-3.78-1.158-2.786-2.317-3.766-4.272-4.448-1.956-.682-2.449.242-4.12 1.506-.001 0-1.216.739-.229 1.25zm-21.058 3.937s.646-2.075-2.848-2.842c0 0 1.481-1.222 4.443-.568 2.942.649 2.628 2.587 2.605 2.842 0 0-2.301-.086-4.2.568zm7.596-.483s4.048-.709 5.848-.483c0 0-1.994-4.462-7.386-2.942 0 0 1.936 2.189 1.538 3.425zm6.93-1.109s0-1.364 3.437-2.729c0 0-1.668-1.57-3.987-1.421-2.658.171-3.19 1.137-3.19 1.137s2.886 1.002 3.74 3.013zm1.348-4.661s2.127.54 3.456 1.677c0 0 2.016-2.2 3.722-2.672 0 0-3.342-1.791-7.178.995z" fill="#FFC221"/><path d="M716.514 304.701s9.383-7.95 14.64-6.992c5.256.957 2.62.298 8.374-.597 5.753-.895 11.678-1.492 14.07-1.194 0 0-6.95-4.988-19.368-4.903 0 0-8.772 3.027-14.811 7.035 0 0-11.621-6.481-23.64-2.601 0 0 13.045 4.732 20.735 9.252z" fill="#5A3719"/><path d="M816.286 318.472l1.566-.263s2.644 3.274.723 3.311c-1.501.03-.894-.462-1.178-1.414-.285-.952-.797-1.378-1.111-1.634zm-11.791.256s-.94 1.169.826.895c2.151-.333 1.737.072 4.101-1.528 0 0 1.453-1.542 4.158-.582 0 0 2.279.746 4.13-.149s2.279-.831 3.275-.746c.997.085.93.3 2.26-.671 1.329-.971 3.636-.225 5.089-1.44 1.453-1.215 3.275-.192 0-2.537 0 0-.684-.682-.627-1.258 0 0 1.253.362 2.25 1.258.997.895 2.649.618 2.934.469 0 0 .171-2.921 3.076-5.607 2.905-2.686 2.934-2.899 1.225-2.921-1.709-.021-4.586-.682-5.554 0s-9.485 6.267-14.44 7.205c-4.956.939-9.513 2.346-12.703 7.612zm-132.242-30.555s15.209 3.922 18.627 5.571c0 0 .816-2.544-6.095-4.534 0 0 16.785-.512 34.558 7.561 0 0 8.567-7.346 36.137-5.072 0 0 .054-2.435.244-4.308 0 0-19.368-.568-37.141-11.369 0-.001-15.911 7.83-46.33 12.151zm84.534 7.347c-1.063-15.548 4.899-16.94 4.899-16.94s2.808.016 5.848.483c0 0-4.709 5.599-3.456 16.713 0 0 .494 1.791-3.494 1.791-3.924 0-3.797-2.047-3.797-2.047z" fill="#FFC221"/><path d="M760.85 305.81s-2.886-2.956-3.19-6.367c0 0-.076-.881 2.848-.796s3.306-.281 4.025 1.421c.7 1.655 2.544 5.145 3 5.543l-6.683.199z" fill="#5A3719"/><path d="M767.096 298.048a36.973 36.973 0 01-.321-5.91c.19-8.669 1.629-7.899 2.199-6.818l2.966.054s-2.165-9.778-4.709-4.065c-2.5 5.612-2.317 9.266-2.013 13.7.175 2.554.512 4.144.797 5.1l1.081-2.061z" fill="#FFC221"/><path d="M800.593 298.071s5.725.874-3.048 2.963c0 0 .427 10.6 10.795 3.176 0 0 6.124-3.915 10.367-5.507 0 0 2.136-.739 1.88-2.338 0 0 .171-1.883-2.051-1.514 0 0-1.75.041-2.877-.37 0 0-1.225-1.442-2.051-.888s-2.763.234-1.253 2.068c1.51 1.833 1.965 1.364 2.706.831.741-.533 4.016-1.833.997.874s-5.383-1.492-6.352-2.26l-9.113 2.965zm-28.653 1.201l-2.544-.057s-1.367 2.047-2.3-1.167l-1.08 2.06s3.152 11.382 5.924-.836z" fill="#5A3719"/><path d="M768.332 286.14s-1.291 7.447.342 12.052l27.533.512s-.342-5.344.076-12.563h-3.911s-.532 5.997-.038 9.692l-.645.013s-.494-5.186.037-9.705h-3.228s-.532 5.543-.114 9.749h-.608s-.456-4.86.076-9.749h-3.19s-.586 5.02.041 9.68l-.762-.016s-.646-5.088.038-9.664h-3.532s-.873 4.69-.038 9.721h-.722s-.797-4.804.076-9.721h-3.532s-.835 5.315-.114 9.721h-.684s-.57-5.145.19-9.721h-3.304s-.873 4.491-.152 9.721h-.722s-.532-3.894.152-9.721h-3.265zm29.09 13.587s-.762-13.474 1.823-16.94c2.585-3.466 3.114-2.786 7.519 0 4.405 2.785 10.102 5.798 11.013 6.139.911.341 2.203.682 2.203 3.127s.456 3.183-3.342.114c-.569-.46-2.345-2.085-3.627-2.494-3.403-1.086.818.762 2.032 2.494 1.029 1.468 1.823 1.307-.835 1.99s-11.849 3.751-16.786 5.57z" fill="#FFC221"/><path d="M807.06 290.08s-1.994-2.519.541-3.095 2.734 3.986 3.161 6.736c.428 2.75-3.189-2.779-3.702-3.641zm-3.702 11.742s-2.962 1.087-1.025 2.046 7.405-3.581 5.526-3.283c-1.881.299-4.501 1.237-4.501 1.237zm4.016-4.157s2.62-.256 2.108.874c-.513 1.13-1.453.412-1.851.163-.4-.248-2.251-.888-.257-1.037z"/><path d="M821.328 294.141s.703 5.13 5.108 6.431c0 0 2.544.632 2.013-1.613 0 0-.437-1.876-.797-2.658-.361-.782-2.127-1.279-2.317-1.364s-.418-.625.798-.227c1.215.398 1.405.441 1.31-.412-.095-.853-.81-.51-1.926-1.055-.429-.21.046-.494.502-.394.456.099 1.538.426 1.557-1.336 0 0 .241-.98-1.101-1.052-1.462-.078-1.348-.732-.892-.831.456-.099 1.986.961 2.411-.782.437-1.791-2.108-.76-1.766-1.684s2.145.528 2.295-.568c.145-1.066 1.602-1.53-.879-1.874-1.177-.163-.089-.685 1.233-.499 1.415.199 2.269-1.549 3.086-2.118.817-.568 5.431-3.325-.721-2.416-6.153.909-7.956 3.894-8.355 4.491-.401.596-2.11 4.12-1.559 9.961z" fill="#FFC221"/><path d="M835.661 298.117c.791-.152 1.538.063 1.807.614 1.013 2.078-1.31 1.336-2.601 2.871s-1.329 1.222-3.152.685c-1.823-.537-2.506-3.3-2.506-3.3-.204-.848.584-.92 1.528-.812-.001.001 3.022.309 4.924-.058zm-6.662-1.105s.128.622 1.172.707c1.044.085 4.078.348 5.882-.234 0 0 .665-.131.366-1.306 0 0-.024-.762-1.648-.453s-3.973 0-4.756-.171c-.783-.17-1.42.015-1.016 1.457zm-.247-3.723s-.057 1.62 1.576 1.833c1.633.213 3.666.205 4.513.038.646-.128 1.81-.364 1.905-1.317.095-.952.361-1.663-1.652-1.165-2.013.497-4.443.171-4.69.114-.247-.057-1.614-.47-1.652.497zm.741-3.269s-.399.739-.342 1.45c.057.711 1.234.952 3.361.981s4.025-.284 4.158-.995c.133-.711.646-1.535-1.025-1.279-1.671.256-3.779.327-4.614-.014-.836-.342-1.398-.46-1.538-.143z" fill="#FFC221"/><path d="M907.571 298.263s-.028 1.482 1.139 2.942l-59.029-1.695s.862-.533 1.082-2.832l56.808 1.585z" fill="#5A3719"/><path d="M829.967 287.576s-.513 1.492.551 1.791c1.063.298 2.886.625 5.298.242 0 0 1.215.085 1.633-1.208s.375-.568-3.059-1.251c0 0-1.081-.315 2.053-.327 0 0 1.747.057 2.013-.242.266-.298 2.582-2.132-.418-2.018-3 .114-1.519-.526 0-.526s1.994.313 2.487-.171c.494-.483.038-.156-.779-.981-.816-.824-.247-.583.342-.128s.949.597 1.614.014c.665-.583-.513-1.435 0-1.336.513.099.76 1.073 2.696.135s4.557-.448 5.269.085c.712.533 2.734 1.215 3.959-.043s-1.453-2.281-.313-2.452 1.937.234 2.393-.682c.456-.917-1.766-1.791.37-2.366 2.136-.576.342-6.566-.399-7.12 0 0-2.392 1.407-5.013 5.649s-4.158 6.715-7.719 5.415c-5.136-1.876-7.761.821-8.556 1.307-1.232.753 2.575 1.123.354 1.165-2.222.043-2.222.234-2.449.576-.228.341-.029.64.37.661.399.021 1.253.874-.114.831-1.367-.043-2.336-.256-1.934 1.197 0 0 .025.317.823.402.797.085 1.082.917-.399.917-.95.002-1.045.37-1.073.464zm5.459 14.801s-1.054.746.399.831 2.222.362 2.677-.416c.456-.778 2.421-.458 1.111-1.546-1.31-1.086-2.193-.468-4.187 1.131z" fill="#FFC221"/><path d="M841.52 284.62s4.915-4.626 9.023-1.492 4.506 3.603 4.563 3.667.484.405-.627 1.386-.029.959 1.196.362 1.31-.043 1.908.618 1.398 1.045-.497 1.066-5.968 0-5.968 0-2.763.234-1.367-.895c1.396-1.13 1.196-2.473.484-2.558s-.057.682-.484 1.215-1.396 1.023-2.364 1.002-1.823.701-.285 1.257c1.538.555-.171.919-.968.897s-4.643.298-.74.767c3.902.469-.352.356 2.506 1.989 3.161 1.806.883 5.643-.313 5.984 0 0-1.31.713.342.516 1.652-.196 2.563-.431 1.396.464-1.168.895-3.503 3.88-6.75 1.599 0 0-1.481-.703 1.168-.831s-2.165-.694-2.962-1.232-3.845-3.65-1.937-3.266 1.225-.725.085-1.13-1.367-2.153-.085-1.769 2.791 1.098 3.817 1.05c1.025-.048.741-.475-1.453-1.157-2.193-.682-3.105-.789-2.592-2.643s2.905.725 2.336-.661-2.649-.703-1.538-2.537c1.111-1.833 1.367-1.045 1.88-.81s1.333.06-.114-1.023c-.913-.684.082-1.609.34-1.835z" fill="#FFC221"/><path d="M845.053 285.899s-.029-.618.854-.512c.883.107.655-.32.911-.448s2.466.658.399 1.407c-.764.277-1.964.079-2.164-.447z"/><path d="M849.753 291.143s-1.661.846-.157 2.589c1.282 1.486 1.275 1.957 1.168 2.945-.108.988 56.807 1.585 56.807 1.585s-.1-3.656 2.336-5.713c0 .001-31.102-.724-60.154-1.406z" fill="#FFC221"/><path d="M908.54 297.261s.231-3.084 1.937-4.106c.94-.563 2.18-.235 2.721 2.251.77 3.536-2.227 6.544-3.618 5.201-1.325-1.278-1.04-3.346-1.04-3.346z" fill="#5A3719"/><path d="M843.32 310.56s3.788-3.219 4.358-4.669c0 0 10.254 7.264 9.627.594 0 0 .029-1.788.313-3.493 0 0 3.707.364 4.272-2.596l-9.57-.282s-.997-.213-2.478 1.386-4.529 3.349-7.377 1.823c0 0-1.192-1.035-2.405-.161s-1.27 1.13-.273 2.068c.998.939 3.134 3.817 3.533 5.33zm22.017-20.06l-5.611-.213s-2.051-2.878-6.038-6.076c0 0-1.168-.512 1.082-2.302 2.25-1.791 2.905-3.709 2.991-4.583s-.142-2.238.712-1.194c.854 1.045 6.665 6.289 7.491 4.733s.968-2.281 1.111-2.75.342-1.919 1.168-.405 1.393 1.127 1.424 5.052c0 0 .142 3.88.741 5.287-.002 0-7.35-2.354-5.071 2.451zm-24.353-11.938s4.272 2.388 6.38-.853c2.108-3.24 3.532-3.752 1.937-6.864s.044-4.562 1.247-5.841 2.228-1.066 2.399-6.012 3.589-6.608 5.127-8.143 5.412-3.88-.456-4.86c-5.867-.981-17.488-4.008-20.507-8.527s-4.386-1.833-4.443-1.663c-.057.171-1.025 3.496 1.994 9.508s5.582 9.877 8.488 11.824c2.905 1.947 5.526 3.013 4.044 7.021-1.482 4.007-4.045 11.17-6.21 14.41z" fill="#7B3C20"/><path d="M856.76 265.78s.741 10.275 8.26 13.942c0 0 1.709-4.008 1.025-7.973 0 0 2.449.213 3.133 1.322 0 0 .114-2.984-3.418-4.072-3.532-1.087-1.823-7.781-.57-8.548s.854-2.103 0-3.311-1.082-3.041 1.88-2.274 2.506-.81.741-2.26-1.709-3.24.797-3.24 6.665-2.43 4.158-3.198c-2.506-.767-3.304-1.577.114-2.558s5.07-2.217 2.506-2.515c-2.563-.298-4.272-1.194-1.766-1.62s-.456-2.984-3.361-3.112-9.171 1.066-4.215-2.899-7.121-1.066-2.165-3.667-1.652-1.45-2.563-1.492-.901 0-.565-1.322c.337-1.322-.689-1.919-2.113-1.109s-1.424.81-1.367-1.023-1.709-.469-2.791 0-3.817 2.515-4.899 1.407-1.709-2.26-5.07-.213c-3.361 2.046-2.563.213-2.506-.682s1.31-4.434-3.304-.64c-4.614 3.795-.854-4.093-4.5-1.407s-4.044 3.155-4.614 1.961-1.26-2.174-5.273.384-1.05-1.535-.481-2.43 2.279-6.694-1.253-2.174c0 0-1.709 3.155-5.526-2.473 0 0-4.044 5.591-5.07 3.115-1.025-2.475-2.051-2.731-3.361-1.111s-.342-.085-.911-1.45-.911-3.88-7.633 1.023 2.336 1.322-2.791 3.539-17.488 9.209-6.152 7.589-5.526 4.434-1.595 5.543 2.677 4.519 17.431.469 12.361-.64 19.88-3.88-1.709 1.109 8.374.895c10.083-.213 1.709.043 3.646 2.132s10.481 7.035 18.456 7.845 9.912-2.174 7.633 1.279-3.076 4.775-4.443 5.969-5.127 3.922-5.184 8.698c-.057 4.775-6.266 5.543-3.987 10.829a600.8 600.8 0 005.413-5.288z" fill="#5A3719"/><path d="M869.88 277.27s-1.823-1.279-1.785-3.553c0 0 1.291.227 1.785 1.052 0 0 4.595-5.202-.893-7.077-5.487-1.876-2.754-6.85-.893-6.879s2.185-.54.618-2.615-1.453-2.16 1.661-2.7 2.691-1.194 1.307-1.961c-1.383-.767-2.444-2.018-2.444-2.018s8.808-3.837 5.959-5.599 0-1.307 2.544-3.127c2.544-1.819 2.886-2.16 3.266-2.871 0 0-2.515.256-4.371-.114 0 0 2.198-1.08 0-2.871-2.199-1.791-3.11-3.411-6.604-2.587s-2.355-.341-.987-1.791c1.367-1.45.721-2.274-1.747-2.643 0 0 .304-1.478 2.165-3.326 0 0-4.747.341-6.342-.483 0 0 1.899-1.307 2.051-2.871 0 0-2.62.853-5.924.54 0 0 1.937-1.677 1.937-3.155 0 0-5.734 1.279-8.393 3.297 0 0-.57-.114-1.025-.739-.456-.625-.798-1.251-7.14.767 0 0 .722-2.814 2.241-3.951s1.291-3.411-8.583 2.757c0 0-1.329-.796-2.43-3.752 0 0-2.127 3.013-3.76 4.036 0 0-1.367.574-1.196-1.347s-.968-.552-1.994 0c-1.025.552-1.709 1.916-1.196-1.964s-1.367-4.69-1.367-4.69-3.076 4.349-4.842 4.818c0 0-3.247-3.155-4.386-5.244s-1.139-2.857-2.279.767c-1.139 3.624-2.563 3.922-2.563 3.922s-1.937-1.663-2.165-2.558c0 0-.342.981-.968 1.407 0 0-1.709-2.004-1.652-4.903 0 0-10.595 5.841-11.905 9.38 0 0-10.026-.597-14.184.171 0 0 1.025-3.24 3.646-4.86 0 0-2.62-.298-2.734-2.984 0 0 2.108.298 3.418-.043s-1.823-4.136 1.481-4.221 5.412 1.577 3.93-2.814c-1.481-4.391-.797-4.391-.797-4.391s5.753 3.411 6.665 2.558-.741-2.686 4.386-1.833 3.703-2.089 5.696-2.217c1.994-.128 3.076 1.279 1.823-8.015s6.209 4.605 1.139-9.422c0 0-1.282-4.242-4.329-6.054 0 0-.684 3.07-4.13.362s-10.225-3.667-7.377-5.798c2.848-2.132 4.187-4.988 3.361-6.779 0 0-3.359 3.511-9.2 1.002-4.614-1.983-5.582 1.663-10.31.597 0 0 .085-1.215 4.073-4.349s-2.307 1.045-4.785 1.599-3.19.107 2.051-3.944c5.241-4.05 15.608-11.213 14.184-17.097 0 0 2.449 3.112 8.886.853s11.222-3.07 13.159-6.395c1.937-3.326 7.007-6.694 8.317-7.419s3.076-1.236 1.082 1.919-5.241 8.57-14.127 12.236c-8.886 3.667-12.304 6.353-13.899 8.271-1.595 1.919-9.684 6.225-4.443 5.5s14.355.128 10.083-1.109c-4.272-1.236-9.114.767-5.184-2.814s4.614-4.775 10.31-7.163 12.019-7.845 11.393-2.047c-.627 5.798-11.222 11.981-13.842 13.856-2.62 1.876-1.652 1.578-1.595 2.345s-.399 2.345-1.481 3.07-.741 1.535-.456 3.155-.285 2.26.513 2.515 1.595.384 1.823 1.535.826 1.3 2.364 1.172 2.506.021 2.62.917c.114.895 1.566 2.11 1.737-.618.171-2.729 1.168-3.262-1.623-2.004s-3.389.81-3.332-.49-.256-1.002-1.424-1.109-1.567-1.748.513-2.835c2.079-1.087 2.051.021 4.643-2.132s2.592-2.75 2.991-3.752-3.703 2.921-5.668 3.816-1.453-.618-1.111-2.857 5.241-5.159 7.491-5.202 7.32 1.279 5.127 4.349-8.402 6.715-5.725 6.992 3.105-.767 4.643.597.114 4.136-.598 5.607-2.193 3.326-2.848 3.667c0 0-2.82-5.031-2.734-1.045s-.598 5.415 0 5.564 3.731 2.238 4.728 2.281-5.412 3.006-2.734 3.198c2.677.192 6.921-1.172 8.402-3.944 0 0-5.44-1.322-7.633-3.368 0 0 6.352-1.492 4.586-7.61 0 0 6.323 1.727 3.589 4.583-2.734 2.857-4.386 2.43-2.022 3.24s3.532 1.492 3.532 1.492 1.617.81.68 2.132-.965 3.326-.168 3.283 3.475-1.279 1.225-2.643 2.563-1.13.513-2.281c-2.051-1.151-2.592-1.428-3.133-1.983-.541-.554 25.748-15.967 12.475-10.19 0 0 2.763-5.99 6.636-6.012s4.158 3.048 1.965 5.372-3.617 5.948-8.772 6.8c0 0 7.367 3.61-1.339 9.508 0 0-1.889.895-1.206 1.549.684.654 5.848-2.274 6.57-3.922.722-1.649 1.823-2.928 3.798-3.894s11.697-7.589 14.621-12.592 3.722-5.173 9.418-9.749 4.709-3.667 5.431-4.775 1.025-2.928 3.646-4.406 12.798-7.134 15.988-9.437c3.19-2.302 9.722-6.537 12.532-10.119 2.81-3.581 10.378-8.156 12.266-7.305 1.889.851-.19 3.525-4.633 6.907s-15.456 12.279-17.241 13.643-11.127 8.186-14.621 8.641-3.114 1.677-5.203 3.951-6.912 7.049-8.545 8.357c-1.633 1.307-5.507 3.979-5.734 5.855-.228 1.876.684 2.103-2.43 5.031s-12.228 9.55-15.532 10.602c0 0 5.848 1.933 2.354 5.884s-3.266 3.382-3.532 3.638c0 0 8.88-1.307 2.582 5.599 0 0-1.215 1.99 1.595-.085 3.004-2.218 1.709-5.258 1.367-5.685 0 0 4.709-2.928 10.14-3.013s5.241-.455.38-1.848c0 0 3.456-4.207 6.38-2.132s1.975 3.269-1.101 4.917c-3.076 1.649-7.633 2.331-11.013 4.207 0 0 6.418 1.251 9.874-1.364s3.608-1.307 4.063-.853c.456.455.836 1.307-.684 3.496s-1.671 2.302-1.595 2.786c.076.483-.114 1.99-3.228 2.501-3.114.512-4.519 1.819-3.456 3.297s1.101 5.145-1.557 4.804-1.937-2.444-2.962-3.269c-1.025-.824-2.468-2.103-7.102.313-4.633 2.416-5.013-.455-4.785-1.961 0 0-3 2.615-5.507.199-2.506-2.416-.228-3.354 1.215-4.576s7.329-3.78 3.798-3.326-8.81.682-10.026-2.046c-1.215-2.729 2.62-2.416 3.228-2.16s3.114 2.274 3.19-.37c.076-2.643 3.987-2.928 2.658-3.468s-3.19 1.137-3.722 1.791c0 0-2.734-3.809-7.139-2.558s1.405.739 2.582.938.494 2.388-3.456 5.941-2.165 2.473.76 2.473c2.924 0 10.102.028 5.924 3.439s-5.848 5.116-8.013 4.519.266-2.018 1.215-2.615 1.519-1.649-.532-.881-2.772.91-4.405-1.99c-1.633-2.899-.949-2.046-.266-3.951.684-1.904 2.279-3.922.38-3.212s-1.709.767-1.557-1.421c.152-2.189-2.165-2.672-2.165-2.672s.911 2.189.076 3.581-.873 1.876.494 2.245c1.367.37 2.658 1.535.797 2.814s-1.633 1.109-.456 1.876 2.886 1.649 1.063 3.439-.304 1.251.608 1.251 2.974.767 3.006 2.53c.032 1.762-.12 2.189 2.842.54s8.886-1.45 8.81.853c-.076 2.302-.76 2.871 2.393.91s4.557 1.848 6.722 0 3.532-3.638 6.038-.483 1.725 4.109-1.329 6.338 1.481.512 3.798-.682 8.81-1.99 12.532-.341 4.785 1.279 7.519.142 4.139-1.393 8.279 1.364c4.139 2.757 7.367 3.269 9.532 3.212 0 0-4.595 1.791-9.76 2.132s-7.747 1.307-8.772 2.103c0 0 3.106 1.876 3.718 4.178 0 0 3.384-.455 5.055.227 0 0-.873 2.444 1.215 3.752 2.089 1.307 3.532 1.791 1.975 3.581-1.557 1.791 2.393 1.023.152 3.553s-2.848 3.809-2.924 5.855c-.076 2.047.494 2.359-1.519 2.558s.342 2.444-.57 5.116c-.911 2.672-6.532 2.388-6.304 9.55 0 0 1.557-3.496 4.899-6.566s3.456-3.354 3.38-5.202-.228-1.421 1.557-2.814-.797-2.7.987-4.69c1.785-1.99.228-1.592 2.317-3.61s-1.823-2.274.304-4.349-5.127-4.434-3.038-5.77 5.696-3.183-6.456-2.984c0 0 2.924-4.832 13.178-3.78 0 0-2.696 1.904-2.924 3.78 0 0 1.177.597 1.899.767 0 0-.397 1.375-2.354 3.041 0 0 5.431 3.041 6.304 4.832 0 0-3.304 1.023-4.139 2.473 0 0 1.443 1.649 1.937 3.78 0 0-3.684-.455-4.177 2.302-.494 2.757-1.595.881-1.595 2.501s.114 2.274-1.177 2.53-.228 1.62 0 2.53.646 2.984.456 3.638c0 0-1.861.028-2.734.284 0 0 .57 3.951-1.633 4.519s1.177 1.364-1.177 1.791c-2.355.426-2.051.568-4.937 5.742 0 0 2.468-1.393 5.013-3.07 2.544-1.677-.19-1.165 4.025-5.315s3.456-4.463 3.114-6.566-.418-3.809 1.101-5.798c1.519-1.99 2.013-4.264 7.405-3.979 0 0-1.595-3.588-3.57-4.522 0 0 2.582-1.788 5.317-2.043 0 0-2.393-2.871-7.291-5.656 0 0 4.025-3.468 4.975-5.116 0 0-1.861.284-3.342-.057 0 0 .698-1.659 4.329-4.036 0 0 1.937 1.876 1.861 3.837 0 0 6.228-3.581 9.76-3.183 0 0 1.785 4.491-6.874 12.904 0 0 5.355.512 7.633.199 0 0-1.291 4.15-7.785 6.594s1.404 5.301-5.241 4.804-4.595 1.791-4.405 5.173.418 6.85.266 7.788c0 0-5.317-1.734-5.203 3.411s-2.734 6.225-3.304 6.708c0 0-1.543-1.379-3.874-2.189-.005.005-3.303 6.267-8.626 9.925z" fill="#5A3719"/><path d="M862.28 212.78s1.823-.298 4.899 1.62 6.095-2.046 2.677-3.07.057-2.217 3.133.256 4.272 1.236 5.412.384 2.506-1.322.399-2.771c-2.108-1.45 1.424-.767 3.019.256s.968 2.089.741 2.388-.399 3.624 2.734.512 4.671-6.225 4.614-7.76c0 0 1.709 1.066 1.937 3.027s2.62-1.066 3.418-2.132c.797-1.066 2.165-3.756 1.994-5.779 0 0 2.108 3.26 5.241 0s1.766-1.213 5.526-2.194 8.488-3.752 11.051-6.864 2.734-1.023 6.038-1.791c3.304-.767 9.969-5.372 10.595-7.888.627-2.515.513-4.05-.456-3.198s-.57.171-1.994-.725c-1.424-.895-3.532 1.151-3.532 1.151s2.108 1.62.513 2.302-3.133 2.942-6.152 2.089-6.152 2.771-6.152 2.771 2.62 2.174-.911 3.539c-3.532 1.364-2.962 1.833-5.127.341 0 0-3.76 4.775-5.924 5.756 0 0-1.025-.085-1.709-.981 0 0-2.449 2.771-3.703 3.326 0 0-1.538-1.492-2.962-1.961 0 0-2.962 3.667-5.469 4.818 0 0-.741-1.364-2.336-2.302 0 0-.788 4.796-6.038 7.632 0 0 .342-1.279-2.279-3.027 0 0-6.494 5.628-9.057 6.182s-.171-1.194.171-1.919 1.937-3.112-1.196-4.093-2.62.682-3.304.981c-.684.298-.741-.554-2.848-.256-2.108.298-1.766 1.236-2.677 1.578-.911.341-4.557-.597-4.386 1.833s1.88 4.093-1.31 5.5c-3.192 1.407 1.195 1.109 5.41.469z" fill="#7B3C20"/><path d="M875.44 205.92s.741-3.07-1.937-4.562c0 0 17.203-2.643 4.215-9.209 0 0 15.437-3.198 11.792-8.143-3.646-4.946-7.19-3.837-7.725-3.752s3.282-2.857 4.307-2.473 13.444 5.159 10.254 1.066-2.905-3.837-3.418-5.031c0 0 4.101 0 10.311 6.054 0 0 1.31-1.364 1.139-3.837 0 0 4.443 1.236 5.81 2.558 0 0 .741-1.535.456-2.388 0 0 3.817 2.046 5.127 4.221 0 0 1.766-1.535 2.051-3.283 0 0 3.817 1.578 4.785 2.771 0 0 1.253-1.663.797-4.05 0 0 6.323 1.876 7.177-2.046 0 0 6.361 1.379 2.227 3.855-5.313 3.183-.537-.785-5.987 3.009-4.226 2.942-6.589 6.395-8.621 5.685-1.493-.522-3.285 3.823-5.336 1.691s-2.051-1.151-3.475 1.066-3.646 4.477-3.646 4.477-1.109-.64-1.95-1.492c0 0-1.24 2.046-2.835 3.581 0 0-1.253-1.663-3.247-2.686 0 0-3.133 3.624-5.07 4.86 0 0-1.823-1.791-3.76-2.388 0 0-.285 4.903-4.101 7.419 0 0-.797-1.62-3.247-2.601.002 0-1.935 3.1-6.093 5.628z" fill="#5A3719"/><path d="M866.39 198.41s-2.09 1.606-.741 3.326c1.349 1.719 1.424-.298 3.133-.469s22.786-3.795 3.703-9.508c0 0 .797-.725 4.101-1.023s15.266-3.539 9.684-7.802c-5.582-4.264-10.225 1.449-5.526-3.667 3.76-4.093.741-6.097.741-6.097s-11.108 7.419-13.557 8.783-5.981 3.965-1.823 5.329 7.007-4.519 7.405-3.198c.399 1.322-8.374 6.182-7.12 8.442 1.253 2.26.968 4.136 3.133 3.709 2.165-.426 8.032 1.109 3.247.938s-6.38 1.237-6.38 1.237z" fill="#5A3719"/><path d="M874.02 187.798s-1.937 1.361.627.679c2.563-.682 7.69-1.791 6.722-3.112-.97-1.322-4.387.262-7.349 2.433z"/><path d="M907.86 165.8s9.798-.256 13.842 2.473 5.981 4.519 7.177 4.903c0 0-.171 3.709-6.437 1.066 0 0 .342 1.791-.342 3.539 0 0-2.336-1.535-5.013-2.217 0 0-.456 1.407-1.31 2.217 0 0-2.791-2.814-5.924-3.667 0 0-.627 1.407-1.196 1.919 0 0-3.361-1.919-5.924-1.876 0 0 .513 2.047 0 2.857 0 0-7.121-5.585-13.444-4.86 0 0 3.076 4.477 5.07 6.694 0 0-12.817-1.023-10.709-7.93s-.171-5.172 8.203-5.123 16.007.005 16.007.005z" fill="#7B3C20"/><path d="M847.76 184.88s-1.481 1.207 0 2.231c1.481 1.023 6.551-2.643 7.234-3.155.684-.512 2.506-.426 0 1.45s-5.07 3.922-6.665 5.969c0 0 8.488-2.302 14.013-7.077s-.257-1.682 9.171-6.225 14.355-11.853 9.285-11.085c-5.07.767-9.627 6.566-13.557 8.783s-6.152 2.515-5.526 1.236c.627-1.279 3.532-.767 8.943-5.116 5.412-4.349 4.215-4.05 4.272-5.585s-2.051-5.329 6.095-9.593 33.495-19.101 35.659-24.174c0 0-7.405.81-17.146 8.015s-14.956 10.574-17.646 11.469-2.348.298-4.114 2.388c-1.766 2.089-11.393 11.384-13.159 12.748s-2.279 2.26-2.43 5.041c-.066 1.267-11.068 9.554-14.429 12.68z" fill="#5A3719"/><path d="M881.25 165.56s-1.88.873-3.703 0-1.253-4.796 3.133-7.141 12.361-5.841 16.406-6.353c0 0-.57 5.074-13.159 9.337 0 0 .798 2.642-2.677 4.157z" fill="#5A3719"/><path d="M885.7 162.26s.366 1.248 0 2.388c0 0 23.412 2.26 35.489-11.981 0 0-16.577 1.535-23.184 5.5 0 0 4.158-5.202 16.577-9.508 12.418-4.306 17.488-9.636 18.57-12.577 0 0-15.705 5.5-23.184 5.5 0 0-1.481-.043-2.905.767s-11.45 8.101-14.127 9.337c0 0 5.639-.469 7.633-2.302-.001 0-3.92 10.539-14.869 12.876z" fill="#AA5323"/><path d="M840.87 175.64s-3.019 2.132-1.766 3.198 3.411 1.279 8-2.558 15.697-13.388 8.678-13.771c0 0-8.988-.554-8.678 4.946.314 5.554-5.783 7.836-6.234 8.185zm-20.735-3.241s5.924 3.453 3.703 6.31c0 0 18.172-15.434 13.045-18.76s-9.171 2.942-7.918 3.581c1.253.64 3.93-.554 2.962.64s-10.652 7.718-11.792 8.229zm-4.728-4.988s3.987 1.194 4.158 2.899 12.019-8.357 8.886-12.577c-1.437-1.935-8.032-2.729-8.317 1.066s5.924-.384 3.76 2.345c-2.838 3.578-7.632 5.67-8.487 6.267zm42.642-8.408s-2.539 1.842-.26 2.951 3.76-.64 4.899-1.663 6.779-5.159 8.089-7.802 3.247-3.453 5.298-4.818c2.051-1.364 16.52-8.57 25.406-16.543s5.184-5.926 14.412-11.043c9.228-5.116 15.266-9.806 17.203-15.349 0 0-4.272 1.407-8.032 3.837s-12.247 7.76-13.956 8.484-4.101.853-5.355 2.174c-1.253 1.322-1.139 2.899-5.583 6.566-4.443 3.667-27.4 19.868-30.191 22.17-2.791 2.305-11.93 11.036-11.93 11.036z" fill="#5A3719"/><path d="M839.58 164.37s2.506-1.382 7.215-1.06c4.709.321 23.317-17.699 28.71-21.337s22.254-15.804 24.533-18.021 2.658-4.605 4.633-5.912 3.798-1.137 8.355-3.752 26.431-15.69 25.14-23.307c0 0-32.583 19.555-40.103 25.922-7.519 6.367-28.406 20.806-32.128 23.137s-6.684 6.367-12.912 11.426-12.379 9.322-13.443 12.904z" fill="#AA5323"/><path d="M832.74 157.44s6.03-.617 6.836 2.331c0 0 12.912-8.868 15.874-12.506s-.987-1.535 6.38-6.367 31.824-21.943 35.318-25.013 10.102-7.106 15.418-10.687c5.317-3.581 26.128-13.757 23.773-22.114 0 0-15.266 10.232-18.684 12.45-3.418 2.217-4.861.966-8.355 3.695s-11.165 8.186-12.532 9.891-13.064 10.687-18.76 14.496-18.456 11.199-24.609 16.543c-6.153 5.343-18.077 15.235-20.659 17.281z" fill="#AA5323"/><path d="M813.95 155.69s3.051.044 3.962 1.238c0 0 5.64-4.947 11.64-.058 0 0 22.026-14.894 24.229-18.646s5.772-3.809 14.355-10.062 13.975-8.868 19.672-13.302c5.696-4.434 10.481-9.437 14.583-12.108 4.101-2.672 14.431-9.437 12.684-15.292 0 0-8.355 4.775-13.823 10.744s-5.013.853-10.557 5.855c-5.545 5.003-14.127 11.824-21.267 15.349s-2.81 3.127-7.975 6.424-4.785 2.786-6.684 3.24c-1.899.455-4.785 1.819-6.684 4.036s-6.988 5.23-12.532 8.357c-5.545 3.126-19.178 11.241-21.603 14.225z" fill="#AA5323"/><path d="M820.59 144.26s-1.196-2.473.911-4.221c2.108-1.748 5.924-6.353 6.551-9.252s.171-2.43 6.266-4.946c6.095-2.515 19.937-8.996 27.742-13.814 7.804-4.818 19.653-12.577 22.102-14.453s8.393-6.054 10.804-8.015c0 0 1.158 3.283-1.462 5.543s-12.703 9.337-14.355 10.446-10.937 7.333-13.785 8.911-9.912 5.159-12.418 7.248-2.184 2.729-13.368 8.186-11.697 6.012-11.355 6.438 5.355-1.748 7.747-3.155c2.393-1.407 11.564-5.585 14.298-7.76 2.734-2.174 7.348-5.585 9.342-6.694s18.513-11 23.241-14.496 6.038-4.647 7.064-4.05c1.025.597 2.677.64.57 2.643-2.108 2.004-8.829 7.888-11.393 9.593-2.563 1.705-10.595 6.481-12.817 7.632s-3.076 3.283-4.329 4.178-4.899 3.496-9.342 4.519-5.241 4.349-8.146 6.225-23.579 13.004-24.206 13.558c0 0 1.25-1.28.338-4.264z" fill="#AA5323"/><path d="M892.13 97.834s-1.139 1.009-.513 1.578c.827.75 3.703 2.771 7.291-.789 3.589-3.56 13.23-11.32 16.356-13.153s4.607-3.581 4.493-6.097c.001 0-14.81 7.888-27.627 18.461zm20.393-1.364s2.279-3.795 7.861-7.376 13.963-8.795 15.095-10.062c0 0 1.994 2.26-2.392 5.031s-12.931 8.442-13.956 9.252-2.734 2.046-6.608 3.155z" fill="#AA5323"/><path d="M799 137.78s-6.209 3.326-3.987 5.415 5.526 1.45 6.893.853 3.987-1.236 4.386-1.364 5.81-1.663 7.177-4.178 5.013-5.415 7.918-7.504 3.93-4.178 3.532-5.67c-.001-.001-24.453 11.55-25.919 12.448zm-36.913 28.694s4.29-2.551 10.311-.938c0 0-.285-1.467-1.196-2.226 0 0 7.291-1.91 8.886-5.15s1.937-2.558 3.361-3.496 11.279-8.868 10.14-10.574-1.367-3.922-2.222-4.818c0 0-2.051 2.814-11.621 7.461s-20.222 8.143-27.969 18.589-6.95 16.5 2.506 19.143c0 0 6.665-4.178 22.9-2.729 16.235 1.45 21.76 7.546 22.786 8.655 1.025 1.109 4.329 5.116 1.139 11.895 0 0 3.247 1.407 3.532-1.705s.456-2.388 1.196-1.919c.741.469 1.652.554 1.31-1.833-.342-2.388-1.481-7.717-2.962-9.55s.171-1.023 1.139-.64c.968.384 4.386 3.155 2.336-1.961-2.051-5.116-2.563-2.601-2.62-2.345s-.456 1.535-4.899-1.791-8.488-4.946-11.507-5.798-.911-.853.854-1.492c1.766-.64 4.158-1.023 4.956-2.984 0 0-1.766.426-5.013-.725s-9.741-1.279-14.982 2.643c0 0 1.652-6.054-3.133-5.713s-8.146.213-13.216 4.221c0 0-.285-6.097 4.5-9.252s4.158-1.236 6.836-2.046 2.905-3.496 1.766-4.349c0 0 6.266 1.066 16.804-7.674 0 0-5.662 7.419-12.544 8.911 0 0-1.09 3.949-7.337 4.818-6.246.869-6.094 4.477-6.037 5.372z" fill="#7B3C20"/><path d="M744.1 202.61s3.074-18.372 20.279-19.702c15.076-1.165 19.861.711 22.862 1.677s10.329 3.127 7.481 5.486-4.481 1.933-4.481 1.933 3.304-3.667.304-4.292-3.266 1.194-3.684 2.729-.608 3.382-2.089 4.576c0 0-1.519-1.762-3.684-.227s-.304 1.592.57 1.336c.873-.256 2.013-.711 1.785.625s-1.443 3.638-5.013 5.514-3.38 1.762-7.633 2.444-8.203 2.359-13.633 7.021c-5.431 4.661-11.374 3.106-12.57-2.103-1.025-4.467-.494-7.017-.494-7.017z" fill="#5A3719"/><path d="M763.794 202.035s1.652-3.624-1.31-5.287c0 0-9.058 1.553-11.735-1.194 0 0 9.855-.512 15.95-2.899 6.095-2.388 4.272-4.05 2.165-4.434-2.108-.384-5.981.554-6.38 2.473 0 0-1.196-2.046.342-3.411s3.931-1.62 6.095-.981c2.165.64 4.101 1.578 11.222-2.132 0 0 4.101.938 4.215 3.709.114 2.771-.285 3.922-.627 4.349-.342.426-.854 1.236-1.709 1.151-.854-.085-1.937-.298-3.019 1.62-1.082 1.919-1.732 3.581-3.543 4.86 0 0 2.119-5.969-3.122-7.376 0 0-4.329 2.558-7.633 2.686 0 .002 4.216 3.924-.911 6.866z"/><path d="M773.25 191.078s-1.994-2.196.627-2.43c2.62-.234 6.095 1.684 5.412 3.304-.684 1.62-3.76 1.556-6.039-.874z" fill="#5A3719"/><path d="M921.3 161.96s-4.785 1.364-.342 4.306 6.608 5.5 9.855 6.353 6.608 2.046 6.551 5.287c-.057 3.24-.684 4.519-2.449 6.736-1.766 2.217.968 3.198 3.304 1.919s4.329-1.961 5.867-2.857 4.101-.767 1.766.426c-2.336 1.194-4.785 1.919-1.766 2.004s21.191.426 25.007-.81 8.772-1.62 9.228-6.566c0 0 .171-2.196 1.595-3.112 1.424-.917 2.393-3.027.313-1.599-2.079 1.428-3.674 2.153-4.073 1.727s-.513-.725.997-1.428 2.364-.043 3.76-2.11c1.396-2.068 1.259-1.727.516-2.515-.744-.789-2.31-1.364-1.541-2.366s1.538-3.986-1.794-2.238-9.893 6.253-12.931 6.964-5.355 1.635-9.456 2.466-6.646 1.712-11.013 4.128-4.063-1.334-3.304-1.847c0 0 1.671 2.927 6.114-.882s2.997-.238 13.861-3.809 8.203-4.15 12.456-6.367 8.279-2.302 5.317-5.258-3.304-3.212-7.139 0c-3.836 3.212-14.431 8.385-20.773 8.527 0 0 24.495-10.574 21.988-12.108-2.506-1.535-5.203-2.899-6.912-3.269s-2.165-.796-6.114.966-4.595 2.189-5.734 2.302-4.443.767-9.114 3.183-7.177 3.382-10.292 5.287c0 0 2.165-4.377 11.811-7.276s14.583-5.571 13.519-6.054c-1.063-.483-3.456-.881-5.279-.597s-1.291-.142-7.177 2.189-3.38 1.819-8.127 2.842-6.684 2.075-9.038 3.07c0 0 .96-1.28 4.158-2.452 1.643-.601-1.798-1.221 2.763-1.406.372-.015.828.093 1.281-.036 5.896-1.691 12.342-4.008 11.355-4.178-.987-.171-6.722-.767-12.532 1.904-5.81 2.672-3.152 1.762-5.203 2.189-2.051.426-6.38 3.155-7.823 4.32-1.444 1.164-3.456 2.045-3.456 2.045z" fill="#FFF"/><path d="M777.84 188.43s2.279.682 2.848 2.281 1.994-.703 1.937-1.428-1.453-3.922-3.931-2.43-1.235 1.439-.854 1.577z" fill="#5A3719"/><path d="M771.484 220.027s4.863-2.287 8.943-2.004c0 0-1.595-5.756 1.253-4.775 2.848.981 2.051.597 2.62.554 0 0 .171-3.795-.57-5.287 0 0 2.905.682 5.867.725 0 0-2.791-5.457.285-9.209 0 0 1.689 3.581 5.487 4.477 0 0 .018-1.535 0-3.155 0 0 2.26-.256 4.026.682s3.247-9.891-1.994-12.279c0 0-1.253 2.046-6.152 3.07-4.899 1.023-4.859 2.007-6.873 5.694s-3.779 3.729-7.881 6.372c-4.101 2.643-6.594 8.015-6.829 8.484.002 0 2.16 2.643 1.818 6.651z" fill="#7B3C20"/><path d="M934.91 157.12c1.781-.312-1.798-1.221 2.763-1.406.372-.015.828.093 1.281-.036 5.896-1.691 12.342-4.008 11.355-4.178-.987-.171-6.722-.767-12.532 1.904-5.81 2.672-3.152 1.762-5.203 2.189-2.051.426-6.38 3.155-7.823 4.32s-3.456 2.046-3.456 2.046-4.785 1.364-.342 4.306 6.608 5.5 9.855 6.353 6.608 2.046 6.551 5.287c-.057 3.24-.684 4.519-2.449 6.736-1.766 2.217.968 3.198 3.304 1.919s4.329-1.961 5.867-2.857 4.101-.767 1.766.426c-2.336 1.194-4.785 1.919-1.766 2.004s21.191.426 25.007-.81 8.772-1.62 9.228-6.566c0 0 .171-2.196 1.595-3.112 1.424-.917 2.393-3.027.313-1.599-2.079 1.428-3.674 2.153-4.073 1.727s-.513-.725.997-1.428 2.364-.043 3.76-2.11c1.396-2.068 1.259-1.727.516-2.515-.382-.405-.98-.753-1.368-1.132 0 0-1.094-.957-2.366-.147s-6.855 3.169-9.095 3.439c-2.241.27-4.557 1.222-8.583 3.183s-10.709 5.955-11.773 2.245c0 0-2.915 1.04-3.551 1.364-4.489 2.288-4.097-.959-3.304-1.847 0 0-2.354 2.643-2.26.241.095-2.402 1.614-1.99 4.234-2.757s6.76-2.473 5.051-3.894-3.513 1.411-5.412 2.276-5.696 1.632-6.285-1.125-.57-4.676-5.715-4.974-4.956-3.51-3.551-4.889 2.641-3.738 7.464-4.583z" fill="#999"/><path d="M951.263 182.053s8.013-3.695 15.38-5.429c7.367-1.734 1.595.227.342.625s-12.722 4.178-15.418 5.429c-2.697 1.251-2.141.181-.304-.625zm1.861 1.62s9-2.984 10.671-1.734c1.671 1.251.304.625-1.671.91-1.975.284-7.405 1.194-8.848 1.165-1.444-.028-.152-.341-.152-.341zm14.431-3.126s1.709-.313 1.899.313c.19.625-.76.711-1.709.597-.95-.114-1.785-.655-.19-.91z"/><path d="M729.838 258.967s-.336-7.902 3.651-11.91 23.355-24.163 26.317-29.797c0 0 2.506 1.742 2.62 4.94 0 0 3.247-5.592 5.81-7.699 0 0 2.279 2.327 1.88 6.974 0 0 4.671-2.473 11.906-2.515 0 0-2.677 3.155-2.791 4.988 0 0 10.026-1.109 15.266-.256 0 0-13.785 7.717-9.912 8.399s7.918-.043 7.918-.043-4.386 4.477-11.393 5.372c0 0 8.886-.128 10.652 1.876 0 0-8.659 1.322-15.608 6.608 0 0-.649-.298-.695-2.26 0 0-.216 1.748-2.21 3.411s-6.779 5.202-8.545 6.992c-1.766 1.791-5.07 5.329-8.602 5.159 0 0 .797-2.729-1.823-3.581-2.62-.853-5.639-.256-7.747 2.004 0 0-9.342.128-12.304.554 0 0 2.108-3.368 4.044-3.283 1.937.085 9.741 1.151 10.424-4.178.684-5.329-5.013-3.922-2.848-7.077s1.652-3.027 1.709-3.326c0 0-1.766.981-2.791 3.795s-1.766 4.988-5.469 7.802c-3.703 2.814-5.236 4.518-6.261 6.479.002.002-1.687.237-3.198.572z" fill="#FFF"/><path d="M738.82 254.19s.304-1.08 3.038-1.535 2.848-1.762 2.506-2.331-1.975-.568.684-3.581c0 0 .949.256 1.595.995s3.645 7.163-7.823 6.452z" fill="#FFF"/><path d="M732.257 248.61c.142 5.265 7.042 3.309 7.042 3.309-2.458 1.868-3.961 3.247-4.993 4.537.456-2.558-3.891-3.198-3.891-3.198.358-1.564.93-3.219 1.842-4.648zm25.371-28.138c.999-1.307 1.756-2.406 2.179-3.211 0 0 2.506 1.742 2.62 4.94 0 0 3.247-5.592 5.81-7.699 0 0 2.279 2.327 1.88 6.974 0 0 4.671-2.473 11.905-2.515 0 0-2.677 3.155-2.791 4.988 0 0 10.026-1.109 15.266-.256 0 0-13.785 7.717-9.912 8.399 3.874.682 7.918-.043 7.918-.043s-4.386 4.477-11.393 5.372c0 0 8.886-.128 10.652 1.876 0 0-2.53.386-5.952 1.576 0 0-2.555-2.4-9.96-2.059 0 0 5.76-3.223 10.329-4.264 0 0-2.013-2.643-5.165-.227 0 0-6.266-4.32-1.101-7.987 0 0-3.646-.767-6.038.938 0 0 .114-2.956 2.772-4.292 0 0-7.026-1.137-8.772 4.036 0 0-1.329-2.132-.722-4.548 0 0-4.253 2.446-6.19 5.217.002.001-.639-5.254-3.335-7.215m-13.616 33.416c-1.261.31-2.949.443-5.187.304 0 0 .192-.681 1.639-1.189 0 0 .415.864 3.548.885" fill="#999"/><path d="M756.787 233.969s3.19 2.515 4.329 4.05c0 0 2.905-2.047 3.987-3.709 0 0 2.279 1.492 3.076 3.709 0 0 1.595-1.109 1.937-2.643 0 0 4.022.853 5.343 2.174 0 0 .615-3.88 0-6.31 0 0 2.803.213 4.512.938 0 0-1.589-2.558 6.525-5.841 0 0-6.136 1.317-8.462 4.008 0 0-2.62.128-3.76-.682 0 0 .171 3.922.057 5.798 0 0-1.581-.64-4.664-1.364 0 0-.747 1.279-1.26 1.577 0 0-1.937-1.535-2.791-3.496 0 0-2.963 2.691-4.101 3.837 0 0-2.791-1.961-4.728-2.046z"/><path d="M738.44 273.88s1.253.597 4.215-1.791 11.336-7.717 12.133-11.981-2.677-4.519-5.412-3.283c-2.734 1.236-1.595 3.624-1.481 4.391s.171 3.752-4.272 7.888c-4.443 4.137-5.183 4.776-5.183 4.776z" fill="#FFC221"/><path d="M737.477 275.24s-6.722-2.814-.684-5.841 8.716-3.837 9.399-6.353c.684-2.516.285-2.089-1.937-1.023s-10.766 4.903-12.076 1.322c0 0 3.532 1.364 7.918-.767s7.975-2.771 5.184-3.667c-2.791-.895-12.874.213-14.526.682-1.652.469-1.253.384-1.538 2.046-.285 1.663-2.165 5.159-2.848 6.182-.684 1.023-2.336 5.287.741 7.163 3.075 1.876 7.951 1.747 10.367.256z" fill="#FFC221"/><path d="M734.858 260.573s-1.54.213-1.255.81c.285.597.687.512 1.255.554s1.423-.298 1.536-.682c.114-.383-.965-.809-1.536-.682z"/><path d="M737.078 273.748s-3.19-1.535.399-3.496 7.462-3.837 7.975-4.647c0-.001-1.709 2.429-8.374 8.143z" fill="#FFF"/></svg>