<svg viewBox="0 0 1000 500" xmlns="http://www.w3.org/2000/svg"><path d="M0 0h1000v500H0z" fill="#c8102e"/><path d="M0 0h500v250H0z" fill="#012169"/><path d="M0 0v27.95L444.1 250H500v-27.95L55.9 0zm500 0v27.95L55.9 250H0v-27.95L444.1 0z" fill="#fff"/><path d="M208.333 0v250h83.334V0zM0 83.333v83.334h500V83.333z" fill="#fff"/><path d="M0 100v50h500v-50zM225 0v250h50V0zM0 250l166.667-83.333h37.266L37.267 250zM0 0l166.667 83.333H129.4L0 18.633zm296.067 83.333L462.733 0H500L333.333 83.333zM500 250l-166.667-83.333H370.6l129.4 64.7z" fill="#c8102e"/><path d="M865.361 106.664v211.737c0 56.557-113.062 74.933-113.062 74.933s-113.062-18.376-113.062-74.933V106.664z" fill="#fff"/><path d="M865.361 318.401c0 56.557-113.062 74.933-113.062 74.933s-113.062-18.376-113.062-74.933c0 0 0-4.555 2.301-7.145 0 0-1.246 9.407 5.981 16.522 0 0-5.669-10.037-.125-19.901 0 0-2.056 12.691 5.856 19.979 0 0-4.361-10.367.561-21.927 0 0-2.43 18.911 6.168 22.681 0 0 2.367-10.869-1.059-17.843 0 0 5.919 2.387 5.607 18.157 0 0 1.869-2.325 2.367-13.697 0 0 .249 13.005 4.735 16.021 0 0 1.371-1.319-.498-7.225s.81-7.979 1.246-7.854c0 0-.983 6.534 4.493 11.435 0 0-2.374-10.241.928-11.623 0 0-.685 8.67 6.168 10.618 0 0 .498-2.513-.997-5.34 0 0-1.308-3.353-.312-5.918 0 0 2.181 7.865 5.171 9.185 0 0-1.807-4.61-.125-9.185 0 0 .374 6.546 6.23 9.247 0 0-3.858-5.067-2.334-10.639l37.659 1.843 19.501.93 58.502-4.134 10.093-8.67s3.987 5.529-2.305 14.262c0 0 6.23-1.131 8.224-10.869 0 0 2.554 5.403-.935 11.372 0 0 6.916-6.911 7.912-14.765 0 0 2.679 7.602-3.863 15.77 0 0 5.856-1.948 8.349-10.618 0 0 1.994 5.222-3.676 12.601 0 0 10.591-5.627 10.28-17.25 0 0 4.423 6.408-.623 15.204 0 0 5.42-4.838 5.919-12.063 0 0 2.991 3.267-.249 12.251 0 0 6.604-6.22 7.601-12.943 0 0 1.433 6.22-4.237 14.073 0 0 3.863-.942 7.539-8.607 0 0 .997 3.016-2.367 8.545 0 0 3.614-.628 6.043-7.539 0 0 .436 4.147-.623 7.854 0 0 2.804-1.822 3.427-9.676 0 0 1.566 2.576 1.593 5.78.025 3.205-.002 1.101-.002 1.101z" fill="#2f8f22"/><g stroke="#000"><path d="M807.139 195.999s-3.929.668-8.975-.87c-5.046-1.537-7.086-.913-8.652 0 0 0 2.048-4.055-2.936-7.257 0 0 1.62 4.094-.623 6.006 0 0-.997.938-2.181-.475 0 0-1.744-1.791-3.582-3.173 0 0 4.237-1.476 3.458-5.78s-3.084-4.869-4.33-5.403c0 0 .436 1.948 0 3.267 0 0-4.61-2.576 1.651-6.22s5.109-5.78 3.987-7.634c-1.121-1.853-3.52-3.895-4.704-4.618 0 0 1.246 1.948 1.028 3.613s-3.053 2.733-2.492-.188c.561-2.922-.031-2.419-.094-5.529 0 0 5.576 1.885 7.757-3.55 0 0 2.149-5.623-4.891-8.419 0 0 1.713 2.293.872 4.021 0 0-1.495 2.827-3.271.534s-2.897-2.733-2.71-5.435c0 0 6.386.88 4.642-6.063 0 0-1.028 4.618-9.314-1.602 0 0 5.389-5.529 3.302-9.99 0 0-.654-2.042-6.511-.848 0 0 5.078-3.204 2.928-5.937 0 0-1.09-1.822-5.825.565 0 0 1.838-3.173-2.804-6.597 0 0-3.115 1.634-4.766 3.141 0 0-3.177-4.021-5.202-5.623 0 0-3.676 1.414-4.61 5.623 0 0-1.713-2.042-5.607-2.984 0 0-1.869 3.456.561 6.471 0 0-1.807-.063-5.109-1.508 0 0-3.769-1.791-3.209 1.445s.841 3.958 1.589 5.466c0 0-8.458-1.964-8.099 2.607.249 3.173 1.433 5.906 4.05 8.199 0 0-4.735 6.189-8.785 1.539 0 0-1.402 1.508 1.62 5.466 0 0 3.022 3.33.53 5.435 0 0-3.333 2.67-4.953-2.513 0 0-5.389 5.372.966 9.487 0 0 4.081 2.325 8.255-1.257 0 0-1.277 10.304-5.265 8.325 0 0-2.399-1.759 1.9-3.864 0 0-6.199-.785-7.196 5.215 0 0-.765 4.774 4.641 6.503 0 0 4.174 1.508-.156 4.744 0 0-3.053 2.325-1.059 5.78 0 0 2.399 3.801-3.676 4.178 0 0-3.302-.031-4.486-.471 0 0-1.332 2.477-.401 5.307 0 0-3.025-2.254-9.91.24-6.884 2.495-6.355.736-6.916 1.49s-1.9 3.298-1.9 3.298 3.614 4.398 3.676 4.304-.685 5.026-.685 5.026l1.776.848 14.174-6.314 14.392-7.5 11.571.709 7.338 1.747 9.639.702 6.903-3.682h9.999l10.998 5.48 12.552 7.489 6.542 1.147 5.04-.269v-10.166z" fill="#c8102e" stroke-linejoin="round" stroke-width=".831"/><path d="M692.974 207.886s5.483 2.796 7.772-.597c0 0 2.991-5.702-3.575-7.681 0 0 3.575-4.288-.257-8.246 0 0-2.009-2.12-5.514-.565 0 0-1.449-3.016-4.86-2.922 0 0-2.99-.047-4.018 3.251 0 0-4.112-1.696-6.402.754 0 0-3.785 4.241 1.495 7.587l3.8.346 3.738-1.728 4.174 1.194c.003-.001-1.072 4.225 3.647 8.607z" fill="#c8102e" stroke-linejoin="round" stroke-width=".831"/><path d="M815.359 197.859c6.605-.622 8.937 4.952 8.937 4.952 3.462 8.122-3.89 12.458-3.89 12.458.561 1.822.623 4.209.623 4.209 10.342 1.257 8.534 12.88 8.534 12.88l-3.425-2.827c-5.981-2.325-12.149 2.764-16.572 11.309s-2.305 12.566-1.558 22.681c.748 10.115 17.195 16.147 17.195 16.147s-7.788 20.042-12.834 32.922-15.576 7.539-18.628 4.826c-3.053-2.713-3.816-1.206-5.358 0s6.916 7.802-8.473 14.022-18.068 10.995-20.622 12.566-13.208.503-14.267-.817c-1.059-1.319-.436-1.319-4.423-3.77-3.987-2.45-10.716-4.586-18.068-8.168-7.352-3.581-7.165-8.168-7.102-9.11.062-.942 2.554-8.607-6.056-2.513s-15.937-2.902-15.937-2.902c-1.682-2.211-8.847-21.412-8.847-21.412-1.931-7.162-5.732-15.519-5.732-15.519.187-.063-.374.88 5.981-2.764s9.201-9.707 11.401-15.707.062-16.272-.748-18.346c-.81-2.073-5.545-11.579-11.408-13.571s-9.795 2.953-9.795 2.953-1.809-11.623 8.534-12.88c0 0 .062-2.387.623-4.209 0 0-7.352-4.335-3.89-12.458 0 0 2.332-5.574 8.937-4.952l-1.598 3.022s-1.663 16.587 22.616 5.466 23.55-13.194 37.381-6.22l10.093-.188s14.579-6.744 19.251-3.843c4.673 2.901 21.494 12.325 21.494 12.325s16.261 6.098 19.438-5.15z" fill="#64b4d1" stroke-width=".623"/></g><path d="M742.31 269.772s-.844-5.091-1.731-8.388c0 0-1.802-5.174 1.272-8.806l3.812-4.387s2.369-3.187 5.302-3.62c0 0 2.933-.087 3.213-.684s3.489-5.877 11.121 0c0 0 2.43-3.895 6.168-4.555 0 0 4.038-1.225 5.991 1.791 0 0 4.538-3.441 8.432 2.097 0 0 5.389-3.031 9.314 2.996 0 0 5.327-2.598 8.598 2.94s2.617 7.8 2.617 7.8l2.428 8.796 8.6 10.618-19.999 7.539h-8.971l-17.943 4.806-31.867 2.45-8.878-10.461z" fill="#fff" stroke="#012169" stroke-miterlimit="10" stroke-width=".831"/><g stroke="#000" stroke-width=".831"><path d="M715.374 322.736s-4.766.283-7.196 1.508-4.299 2.545-7.102 4.335c0 0-1.308 1.743-6.822.683 0 0-9.532-2.285-9.532 5.16 0 0-11.401.942-6.729 10.932 0 0 3.177 7.822 9.719 2.262 0 0-4.205 6.031 3.925 8.388 0 0 5.794 1.414 7.476-4.524 0 0 .935-2.356-1.308-5.278 0 0 2.804-.565 4.766-3.581 0 0-5.981 7.559.561 10.282 0 0 8.221 2.063 8.69-6.513 0 0-.671-3.958 2.515-5.372 0 0 6.551-1.508 9.541-8.812.001.001-9.419-5.016-8.504-9.47zm-19.247-75.168s-7.352-3.386-10.841 0c0 0-4.86-3.009-9.968 0 0 0-4.86 3.176-8.224 6.674 0 0-2.367 2.027-1.495 8.417 0 0 1.246 4.505.498 6.767 0 0-1.62-.321-4.86 3.518 0 0-4.112 4.762-7.725.559 0 0 1.121 5.85 7.912 4.907 0 0-3.302 2.576-.436 9.236 0 0 2.118 4.712-1.246 10.618 0 0 5.919-2.387 5.669-9.361 0 0-.498-4.712 1.246-8.042 0 0-1.744 3.028 2.305 9.487 0 0 3.115 4.649.561 9.487 0 0 5.856-2.136 5.296-9.236s-4.112-4.147-1.807-10.681c0 0 .561 3.347 2.305 5.035s3.987 4.515 3.053 9.227c0 0 3.489-4.335 2.679-8.796s-1.682-5.81-1.682-5.81l11.027-6.253 5.483-9.927z" fill="#c8102e" stroke-linejoin="round"/><path d="M679.368 275.583s-4.548-.314-5.296-3.833m-7.975-2.324s1.585-.063 3.018 1.382c0 0 1.094 1.634 2.652 1.445" fill="none" stroke-miterlimit="10"/></g><path d="M686.096 262.201s-2.367 0-3.676-1.131c0 0-1.371-.942-2.181.565 0 0-1.246 2.136 1.059 3.079 0 0 2.866 1.445-1.682 4.335 0 0 5.42-1.948 3.24-4.586 0 0-2.367-1.696-1.495-2.325 0 0 .249-.503 1.184.126.935.628 2.804.377 3.551-.063z"/><path d="M760.408 274.204l-18.218-62.913-.667.179 16.098 63.676z" fill="#784421" stroke="#000" stroke-width=".623"/><path d="M696.964 344.785s-4.299-2.415-7.85.412c0 0 .363-1.571 3.079-2.262 0 0 1.47-4.147 5.581-3.77 0 0-1.682 2.01-3.925 3.707 0 0 2.368.245 3.115 1.913z"/><path d="M681.825 354.778s-6.822-4.288-3.131-11.498c0 0 1.075-2.073 3.131-1.649 0 0 4.252 1.319.935 7.21-.001 0-1.683 3.817-.935 5.937zm13.831 6.786s-9.719-4.429-6.729-11.969c0 0 .924-2.545 3.079-2.356 0 0 3.748.188 2.998 5.183 0 0-1.124 4.901.652 9.142z" fill="#64b4d1" stroke="#012169" stroke-miterlimit="2.613" stroke-width=".623"/><path d="M693.6 333.427s-2.92 2.157-4.108 3.602c0 0-1.188-1.476-2.745-2.372 0 0 1.793-.236 2.745.571 0 0 1.491-1.445 4.108-1.801z"/><path d="M702.244 359.679s7.616-1.932 6.215-9.801c0 0-.748-3.44-3.972-2.969 0 0-3.885.992-1.355 5.994 0 0 1.495 3.572-.888 6.776z" fill="#64b4d1" stroke="#012169" stroke-miterlimit="2.613" stroke-width=".623"/><path d="M736.656 193.201s4.906 1.504 7.57 2.59c0 0 7.102 3.204 16.121 0 0 0 6.099-2.415 6.912-2.59l-4.67 7.114-.234 3.675 2.922 4.288s-1.753.707-6.987-2.498c0 0-5.794-4.476-12.71 0 0 0-3.785 2.564-6.962 2.498l4.486-5.009-1.729-4.51z" fill="#f5ce00" stroke="#000" stroke-miterlimit="2.613" stroke-width=".831"/><path d="M705.188 350.278s.28-.377-.047-.542c0 0-.327-.141-.561.318 0 0-.794 1.26-.122 2.986 0 0 .636 1.196.327 2.445 0 0-.042.353.239.401 0 0 .269-.094.321-.353 0 0 .38-1.219-.274-2.412.001-.001-.794-1.853.117-2.843z" fill="#fff"/><g stroke="#000"><path d="M810.687 207.886s-5.483 2.796-7.772-.597c0 0-2.99-5.702 3.575-7.681 0 0-3.575-4.288.257-8.246 0 0 2.009-2.12 5.514-.565 0 0 1.449-3.016 4.86-2.922 0 0 2.99-.047 4.018 3.251 0 0 4.112-1.696 6.401.754 0 0 3.785 4.241-1.495 7.587l-3.8.346-3.738-1.728-4.174 1.194c-.002-.001 1.073 4.225-3.646 8.607z" fill="#c8102e" stroke-linejoin="round" stroke-width=".831"/><path d="M767.262 203.457s-.138 1.131-1.26 1.257c0 0-1.17.377-1.852-1.08 0 0-.079-.33-.097-.491-.078-.681-.311-2.639 1.807-4.241 0 0 3.458-2.827 10.062.597 0 0 5.233 2.513 8.847 4.649 0 0 9.345 5.026 10.467 5.403 0 0 4.112 2.073 10.404 2.325 0 0 8.598.628 12.242-5.403 0 0 2.772-4.586 0-7.508 0 0-1.121-1.319-2.965-1.076-.774.102-1.629.458-2.455 1.422 0 0-1.339 1.948.218 3.393 0 0 2.025 1.241 2.741-1.382 0 0 .031-.188.093.047.04.152.498 2.152-.576 3.848 0 0-5.187 7.849-19.454-.285l-18.815-10.553s-9.439-4.838-15.077 2.733c0 0-4.548 6.283 1.308 10.398 0 0 4.361 2.607 7.102-1.539 0 0 2.274-4.084-1.308-5.874 0 0-3.146-1.476-4.392 1.665s2.43 3.958 2.772 1.728c.001-.002.095-.536.188-.033z" fill="#f5ce00" stroke-miterlimit="2.613" stroke-width=".831"/><g stroke-width=".623"><path d="M692.68 235.844v-11.78c0-.925.007-1.696 1.408-2.827s2.897-2.922 5.046 2.168c0 0 4.205-4.429 5.607-5.089 0 0 2.43-2.073 4.112.942 0 0 2.243-3.393 4.018-4.241 0 0 4.205-2.733 4.392 5.466l3.271-3.016s2.523-2.073 5.327.754c0 0 4.766 4.618 5.42 5.937 0 0 1.052 1.429 1.133 3.683 0 0-.012 2.537 1.296 3.95 0 0 1.494 1.319 2.943 1.602 0 0 3.411.094 4.626 3.298 0 0 .561-.555 2.243 14.801v27.985l-18.878 22.524-30.279-8.67-12.055-4.995-2.71-8.859 11.682-7.539 6.355-17.152-2.056-12.063z" fill="#e4cb5e" stroke-miterlimit="2.613"/><path d="M776.109 250.703l1.433-2.136 3.427-2.639s5.233 13.734 5.483 16.731v4.262s7.85 2.003 9.221 14.066l-6.479 11.937-10.155-5.655-2.928-2.136v-34.43z" fill="#784421"/></g></g><path d="M679.932 345.001s.374-.495.117-.707c0 0-.164-.236-.607.33 0 0-2.064 2.307-.421 5.855 0 0 .187.506.514.341 0 0 .28-.141.023-.565.001 0-1.471-2.922.374-5.254z" fill="#fff"/><g stroke="#000"><path d="M710.546 342.684s.311-1.068-.436-2.199c0 0-.498-.817-.312-1.885" fill="none" stroke-miterlimit="10" stroke-width=".831"/><path d="M717.265 220.483s.028 2.946.869 5.114 3.681 5.917 3.868 7.943" fill="none" stroke-miterlimit="10" stroke-width=".623"/><path d="M788.476 322.736s4.766.283 7.196 1.508 4.299 2.545 7.102 4.335c0 0 1.308 1.743 6.822.683 0 0 9.532-2.285 9.532 5.16 0 0 11.401.942 6.729 10.932 0 0-3.177 7.822-9.719 2.262 0 0 4.205 6.031-3.925 8.388 0 0-5.794 1.414-7.476-4.524 0 0-.935-2.356 1.308-5.278 0 0-2.804-.565-4.766-3.581 0 0 5.981 7.559-.561 10.282 0 0-8.221 2.063-8.69-6.513 0 0 .671-3.958-2.515-5.372 0 0-6.551-1.508-9.541-8.812 0 .001 9.419-5.016 8.504-9.47z" fill="#c8102e" stroke-linejoin="round" stroke-width=".831"/><g stroke-width=".623"><path d="M713.505 233.536l7.778 62.78m-5.981-62.916l8.723 58.519m-7.088-58.791l10.047 58.037" fill="none" stroke-miterlimit="10"/><path d="M735.613 285.227l-18.219-62.913-.667.179 16.099 63.677z" fill="#784421"/><path d="M722.511 230.823l18.398 46.488m-19.626-45.736l17.756 48.563" fill="none" stroke-miterlimit="10"/></g></g><path d="M692.136 357.103s-2.135-2.047-1.838-5.717c0 0 .125-.785-.267-.894 0 0-.418-.174-.48.737 0 0-.592 3.833 1.994 6.031 0 0 .176.22.462.157-.001 0 .305-.068.129-.314z" fill="#fff"/><g stroke="#000"><path d="M723.341 230.192l18.969 42.407m-24.157-39.772l11.635 57.112" fill="none" stroke-miterlimit="10" stroke-width=".623"/><path d="M813.327 275.146c-8.31-4.715-10.132-15.176-10.132-15.176-2.009-10.414 2.056-18.66 2.056-18.66 5.374-11.356 14.582-13.469 14.582-13.469s-9.021 6.259-11.544 14.694c0 0-1.963 7.115-.841 14.136 1.121 7.021.701 5.23 2.43 10.649z" fill="#f5ce00" stroke-miterlimit="2.613" stroke-width=".831"/><path d="M777.542 248.567l-34.917 11.025-1.904 15.554c-8.286 12.003-25.124 14.133-25.124 14.133l13.1 13.948 25.17 5.278 13.208-10.178 11.962-11.058c-1.246-5.906-.561-14.67-.561-14.67 0-1.476.561-4.932.561-4.932s-2.056-14.199-1.495-19.1z" fill="#784421" stroke-width=".38"/><g fill="none" stroke-miterlimit="10" stroke-width=".623"><path d="M741.2 271.238s22.997-7.181 36.71-12.947m-47.749 26.056s28.69-5.183 48.876-16.68l7.414-5.008"/><path d="M786.451 266.921l-7.975 5.678s-32.086 14.796-56.516 15.191m56.51-4.677s-24.665 12.701-38.808 12.89"/></g><path d="M807.883 247.568s7.352-3.386 10.841 0c0 0 4.86-3.009 9.968 0 0 0 4.86 3.176 8.224 6.674 0 0 2.367 2.027 1.495 8.417 0 0-1.246 4.505-.498 6.767 0 0 1.62-.321 4.86 3.518 0 0 4.112 4.762 7.725.559 0 0-1.121 5.85-7.912 4.907 0 0 3.302 2.576.436 9.236 0 0-2.118 4.712 1.246 10.618 0 0-5.919-2.387-5.669-9.361 0 0 .498-4.712-1.246-8.042 0 0 1.744 3.028-2.305 9.487 0 0-3.115 4.649-.561 9.487 0 0-5.856-2.136-5.296-9.236.561-7.1 4.112-4.147 1.807-10.681 0 0-.561 3.346-2.305 5.035-1.744 1.688-3.987 4.515-3.053 9.227 0 0-3.489-4.335-2.679-8.796s1.682-5.81 1.682-5.81l-11.027-6.253-5.483-9.927z" fill="#c8102e" stroke-linejoin="round" stroke-width=".831"/></g><path d="M682.968 287.301s1.028-4.87 5.701-2.954c0 0 1.589-7.979 10.093-8.261 8.504-.283 8.971 8.293 8.971 8.859 0 0 2.498-3.682 6.669-3.255 0 0 7.191-.424 4.513 11.122l1.36 1.448s5.494-12.897 16.802-9.504c0 0 11.027 3.361 3.832 14.042 0 0 5.442 7.068 10.057 6.408s8.727-2.073 13.306-10.178 15.233-9.33 17.943-8.859 4.851 2.231 5.293 4.147c0 0 5.641-18.827 25.92-15.869l8.13 4.089 3.084 1.414-4.597 12.974-11.199 25.314-8.502 2.614-8.878-5.089-3.084 1.653-.252 7.582-11.71 8.429-8.13 3.351-8.971 6.126-2.087 5.476s-4.955-2.087-10.547 0l-1.851-4.533-5.233-4.995-20.33-9.59-3.673-11.846-3.711-1.653-4.154 4.758-6.074.708-9.065-6.126z" fill="#fff" stroke="#012169" stroke-miterlimit="10" stroke-width=".831"/><g stroke="#000"><g stroke-miterlimit="2.613"><g stroke-width=".831"><path d="M771.499 195.132s-7.759-.345-7.478 7.697" fill="none"/><path d="M822.54 280.562c-13.504-4.147-17.195-18.66-17.195-18.66-2.757-10.885 1.682-20.403 1.682-20.403 6.168-14.485 16.604-14.482 16.604-14.482 5.233-.141 5.861 4.335 5.861 4.335.494 3.173-1.733 4.319-1.733 4.319-3.582 1.948-5.841-.691-5.841-.691-1.495-1.948-.343-3.675-.343-3.675.919-1.288 2.679-.723 2.679-.723 1.394.432 1.246 2.175 1.246 2.175.008.047.039.047.039.047.062-.016.039-.039.039-.039s.311-2.136-1.776-2.356c0 0-4.065-.88-8.831 5.058 0 0-6.276 8.011-6.261 18.377 0 0-.794 19.461 19.485 24.503 0 0-2.196 3.157-6.074 14.56 0 0-4.392 14.655-8.585 22.578 0 0-5.574 11.302-18.003 6.684 0 0-7.401-3.251-7.383-8.623 0 0-.514-4.901 3.925-5.278 0 0 4.346-.33 4.299 3.393 0 0 .117 4.029-4.626 3.11 0 0-1.659-.353-1.355-1.979 0 0 .265-1.461 2.266-.825 0 0 .062.008.07-.024 0 0 .023-.035-.047-.055 0 0-.774-.346-1.592-.06 0 0-.733.244-.791 1.387 0 0-.047.919.935 1.437 0 0 1.192.424 2.126.33 0 0 1.257 2.537 4.101 3.397 3.959 1.197 7.22.044 9.216-1.548 2.171-1.732 3.575-4.759 3.995-5.501s4.065-8.906 6.806-17.686c0 0 2.399-7.571 4.314-11.529z" fill="#f5ce00"/><path d="M784.434 317.458s2.523-.342 2.523 1.908c0 0-.154 3.287-4.159 2.568 0 0-3.948-.864-2.547-5.278 0 0 .935-3.11 4.673-2.662 0 0 3.621.165 5.21 5.113 0 0 1.215 4.171-.864 7.751-2.321 3.996-8.193 6.621-11.027 7.783 0 0-11.355 4.461-14.742 7.013 0 0-5.194 3.856-2.897 7.445 0 0 .888 1.367 2.22 1.367 0 0 1.519.071 1.776-1.484 0 0 .008-.031-.016-.071 0 0-.023 0-.031.039 0 0-.109.95-.935 1.304 0 0-1.106.558-2.266-.424 0 0-1.23-1.178-.202-3.008 0 0 1.347-2.254 4.486-.919 0 0 2.765 1.367 1.628 4.304 0 0-1.012 2.703-4.346 2.696 0 0-2.51-.083-4.115-1.766-2.505-2.626-2.641-7.741-.433-10.386 0 0 2.087-2.812 6.277-4.524 2.427-.992 7.009-2.984 11.775-4.853 3.35-1.314 6.418-2.887 8.411-5.246 0 0 1.776-1.979 2.29-5.372 0 0 .491-2.545-1.059-3.102 0 0-.787-.353-1.651-.236 0 0-.023.001-.029.016-.002.001-.037.039.05.024z" fill="#f5ce00"/><path d="M784.645 317.442s2.788-.503 4.532 2.812c0 0 1.028 2.136 1.194 3.372m.908-11.85s-2.792.484-1.354 4.434c1.355 3.723 3.872 4.944 4.619 5.462" fill="none"/><path d="M736.653 203.456s.138 1.131 1.26 1.257c0 0 1.17.377 1.852-1.08 0 0 .079-.33.097-.491.078-.681.311-2.639-1.807-4.241 0 0-3.458-2.827-10.062.597 0 0-5.233 2.513-8.847 4.649 0 0-9.345 5.026-10.467 5.403 0 0-4.112 2.073-10.404 2.325 0 0-8.598.628-12.242-5.403 0 0-2.772-4.586 0-7.508 0 0 1.121-1.319 2.965-1.076.774.102 1.629.458 2.455 1.422 0 0 1.339 1.948-.218 3.393 0 0-2.025 1.241-2.741-1.382 0 0-.031-.188-.094.047-.04.152-.498 2.152.576 3.848 0 0 5.187 7.849 19.454-.285l18.815-10.553s9.439-4.838 15.077 2.733c0 0 4.548 6.283-1.308 10.398 0 0-4.361 2.607-7.102-1.539 0 0-2.274-4.084 1.308-5.874 0 0 3.146-1.476 4.392 1.665s-2.43 3.958-2.772 1.728c0-.001-.094-.535-.187-.033zm-46.065 71.69c8.31-4.715 10.132-15.176 10.132-15.176 2.009-10.414-2.056-18.66-2.056-18.66-5.374-11.356-14.582-13.469-14.582-13.469s9.021 6.259 11.544 14.694c0 0 1.963 7.115.841 14.136-1.121 7.021-.701 5.23-2.43 10.649z" fill="#f5ce00"/><path d="M732.416 195.132s7.759-.345 7.478 7.697" fill="none"/><path d="M681.375 280.562c13.504-4.147 17.195-18.66 17.195-18.66 2.757-10.885-1.682-20.403-1.682-20.403-6.168-14.485-16.604-14.482-16.604-14.482-5.233-.141-5.861 4.335-5.861 4.335-.494 3.173 1.733 4.319 1.733 4.319 3.582 1.948 5.841-.691 5.841-.691 1.495-1.948.343-3.675.343-3.675-.919-1.288-2.679-.723-2.679-.723-1.394.432-1.246 2.175-1.246 2.175-.008.047-.039.047-.039.047-.062-.016-.039-.039-.039-.039s-.312-2.136 1.776-2.356c0 0 4.065-.88 8.831 5.058 0 0 6.276 8.011 6.261 18.377 0 0 .794 19.461-19.485 24.503 0 0 2.196 3.157 6.074 14.56 0 0 4.392 14.655 8.585 22.578 0 0 5.574 11.302 18.003 6.684 0 0 7.401-3.251 7.383-8.623 0 0 .514-4.901-3.925-5.278 0 0-4.346-.33-4.299 3.393 0 0-.117 4.029 4.626 3.11 0 0 1.659-.353 1.355-1.979 0 0-.265-1.461-2.266-.825 0 0-.062.008-.07-.024 0 0-.023-.035.047-.055 0 0 .774-.346 1.592-.06 0 0 .733.244.791 1.387 0 0 .047.919-.935 1.437 0 0-1.192.424-2.126.33 0 0-1.257 2.537-4.101 3.397-3.959 1.197-7.22.044-9.216-1.548-2.171-1.732-3.575-4.759-3.995-5.501s-4.065-8.906-6.806-17.686c0 0-2.399-7.571-4.314-11.529z" fill="#f5ce00"/><path d="M719.481 317.458s-2.523-.342-2.523 1.908c0 0 .154 3.287 4.159 2.568 0 0 3.948-.864 2.547-5.278 0 0-.935-3.11-4.673-2.662 0 0-3.621.165-5.21 5.113 0 0-1.215 4.172.864 7.751 2.321 3.996 8.193 6.621 11.027 7.783 0 0 11.355 4.461 14.742 7.013 0 0 5.194 3.856 2.897 7.445 0 0-.888 1.367-2.22 1.367 0 0-1.519.071-1.776-1.484 0 0-.008-.031.016-.071 0 0 .023 0 .031.039 0 0 .109.95.935 1.304 0 0 1.106.558 2.266-.424 0 0 1.23-1.178.202-3.008 0 0-1.347-2.254-4.486-.919 0 0-2.765 1.367-1.628 4.304 0 0 1.012 2.703 4.346 2.696 0 0 2.51-.083 4.115-1.766 2.505-2.626 2.641-7.741.433-10.386 0 0-2.087-2.812-6.277-4.524-2.427-.992-7.009-2.984-11.775-4.853-3.35-1.314-6.418-2.887-8.411-5.246 0 0-1.776-1.979-2.29-5.372 0 0-.491-2.545 1.059-3.102 0 0 .787-.353 1.651-.236 0 0 .023.001.029.016.002 0 .037.039-.05.024z" fill="#f5ce00"/><path d="M719.27 317.442s-2.788-.503-4.532 2.812c0 0-1.028 2.136-1.194 3.372m-.908-11.851s2.792.484 1.354 4.434c-1.355 3.723-3.872 4.944-4.619 5.462m35.836-119.296s6.75-4.227 13.644.454" fill="none"/></g><path d="M706.798 243.667s.935-3.77-3.364-10.367c0 0-2.804-6.031-4.299-9.895m9.719-4.147s2.434 5.929 3.271 8.584c0 0 3.019 7.437 3.659 8.945" fill="none" stroke-width=".623"/></g><g stroke-width=".623"><path d="M710.069 247.813s2.538 2.733 2.25 7.351m-10.661-10.272s2.804 1.351 2.619 8.796c0 0-.282 5.435 3.923 8.168m-6.922 1.916s8.775-.958 9.258 4.445c0 0 .187 5.183 3.177 5.749 0 0 4.479.424 5.367 4.571m-15.039-8.765s1.542 2.309 3.037 3.298m8.224-9s2.229 3.377 2.649 5.356m7.008-46.022s2.056 2.796 4.05 4.115m4.174 12.441s4.361 2.136 3.614 13.131c0 0-.561 6.448 1.246 9.967" fill="none" stroke-miterlimit="10"/><path d="M712.639 232.499l.28 1.037s7.819.33 12.04-4.995l-.452-1.021s-6.822-.346-11.868 4.979z" fill="#784421"/><path d="M740.807 274.447s27.042-8.062 37.464-12.762" fill="none" stroke-miterlimit="10"/></g><path d="M737.591 223.687l13.375-5.089.316.895-13.378 5.081z" fill="#784421" stroke-width=".38"/></g><g fill="none" stroke-miterlimit="10"><path d="M739.039 224.143l8.878 43.524m-7.337-44.109l10.168 43.324m-8.438-43.981l11.121 43.007m-6.761-44.663l15.161 32.283m-13.155-33.045l16.167 32.094m-14.682-32.658l17.488 31.772m-20.332 16.321l6.862-2.261m-12.057-2.045s20.114-5.875 35.337-12.015m-35.607 14.217s25.492-6.745 35.606-11.666m-27.827 32.399l1.335 4.084 3.649-1.168-1.246-4.047m6.558-1.803l1.335 4.083 3.65-1.167-1.247-4.047m-21.04-22.984l-.315-5.525 33.425-10.149 1.807 4.649m-21.057 1.196l1.821 4.878m9.864-8.426l2.129 4.639m.642-5.48l1.991 4.389m.655-5.193l2.093 4.585m.055-5.237l3.676-2.073 1.558 4.083m-3.427-3.029l1.872 4.227" stroke="#000" stroke-width=".623"/><g stroke="#012169" stroke-width=".831"><path d="M694.649 306.526s-6.542-6.625 0-13.114c0 0-7.102-3.473-5.981-9.065m17.663 27.428s-6.775.923-4.766-12.27c0 0-2.804 5.23-3.77 7.918-.723 2.012-.245 5.26 2.623 7.016 1.146.702 7.221 2.284 9.183-1.74m-10.84-21.11s-2.757 2.545-.794 7.21m3.644-6.598s.327 4.524 2.57 7.068m-.632-8.858s-.021 5.325 3.81 8.623m-1.905-10.461s.036 5.984 4.475 9.66m17.569-.896s2.243-4.901 6.962-4.665c0 0-2.29 1.037-2.243 3.33 0 0-.28 3.785 3.785 4.162 0 0 3.271.424 4.906-1.367"/><path d="M738.666 319.72s-11.635-5.466-10.42-13.335c0 0 .467-4.806 5.166-7.068m-2.456 4.994s-1.028 3.393 1.262 5.749m1.354-8.058s-1.402 3.723.935 6.503m1.867-8.31s-1.68 3.079.329 5.859m-10.934 14.466s6.355 5.514 11.308 5.561m-13.317-3.817s5.939 4.806 9.651 5.513m-11.894-4.152s7.341 6.461 11.894 6.932m17.964 5.938s-7.216 3.888-1.622 7.999m-2.957-12.287s8.177-4.288 11.728-5.89m-8.784 8.105s11.822-7.21 15.326-8.764m-9.252 9.235s10.093-6.738 15.513-9.66m-8.831 9.424s6.962-5.466 13.691-9.424m2.383-6.832s-3.411-4.995-14.625 0c0 0 4.112-3.732 12.242-6.625m11.321-21.46s.919 4.052-.062 6.503"/><path d="M769.318 309.966s2.336-3.44 8.271-5.136c0 0 1.6 4.005 6.215 3.11 0 0 6.962-1.367 4.86-9 0 0-1.448-5.702-9.4-6.267m23.651-9.56s8.084 1.455 7.944 8.052c0 0 .654 9.895-9.766 11.827m8.618-15.816s2.221-4.823 7.174-6.803m-6.019-2.826s2.208 3.54 3.717 4.055m-4.872-1.228s2.081 2.543 2.782 2.968m-3.457-.518s1.096 1.619 2.067 2.129m-43.654-40.383s1.573-2.553 5.483-1.469m15.965 20.605s2.477-10.332 11.121-6.516m-3.505-.846s.888-4.763-1.262-7.189m-4.626 6.857s1.101 1.97.159 3.58"/></g></g><path d="M808.195 361.563s9.719-4.429 6.729-11.969c0 0-.924-2.545-3.079-2.356 0 0-3.748.188-2.998 5.183 0 .001 1.123 4.902-.652 9.142z" fill="#64b4d1" stroke="#012169" stroke-miterlimit="2.613" stroke-width=".623"/><path d="M811.715 357.103s2.136-2.047 1.838-5.717c0 0-.125-.785.267-.894 0 0 .418-.175.48.736 0 0 .592 3.833-1.994 6.031 0 0-.176.22-.462.157.001.001-.306-.067-.129-.313z" fill="#fff"/><path d="M822.026 354.778s6.822-4.288 3.131-11.498c0 0-1.075-2.073-3.131-1.649 0 0-4.252 1.319-.935 7.21 0 0 1.682 3.817.935 5.937z" fill="#64b4d1" stroke="#012169" stroke-miterlimit="2.613" stroke-width=".623"/><path d="M823.731 345s-.374-.495-.117-.707c0 0 .164-.236.607.33 0 0 2.064 2.307.421 5.855 0 0-.187.506-.514.341 0 0-.28-.141-.023-.565 0 0 1.472-2.921-.374-5.254z" fill="#fff"/><path d="M801.606 359.679s-7.616-1.932-6.215-9.801c0 0 .748-3.44 3.972-2.969 0 0 3.885.992 1.355 5.994 0 0-1.495 3.571.888 6.776z" fill="#64b4d1" stroke="#012169" stroke-miterlimit="2.613" stroke-width=".623"/><path d="M798.662 350.278s-.28-.377.047-.542c0 0 .327-.141.561.318 0 0 .794 1.26.122 2.986 0 0-.636 1.196-.327 2.445 0 0 .042.353-.239.401 0 0-.269-.094-.321-.353 0 0-.38-1.219.274-2.412 0-.001.795-1.853-.117-2.843z" fill="#fff"/><path d="M807.073 344.785s4.299-2.415 7.85.412c0 0-.363-1.571-3.079-2.262 0 0-1.469-4.147-5.581-3.77 0 0 1.682 2.01 3.925 3.707 0 0-2.367.245-3.115 1.913zm3.178-11.358s2.92 2.157 4.108 3.602c0 0 1.188-1.476 2.745-2.372 0 0-1.793-.236-2.745.571 0 0-1.492-1.445-4.108-1.801z"/><path d="M793.305 342.684s-.312-1.068.436-2.199c0 0 .498-.817.312-1.885m30.589-63.017s4.548-.314 5.296-3.833m7.975-2.324s-1.585-.063-3.018 1.382c0 0-1.094 1.634-2.652 1.445" fill="none" stroke="#000" stroke-miterlimit="10" stroke-width=".831"/><path d="M817.914 262.201s2.367 0 3.676-1.131c0 0 1.371-.942 2.181.565 0 0 1.246 2.136-1.059 3.079 0 0-2.866 1.445 1.682 4.335 0 0-5.42-1.948-3.24-4.586 0 0 2.367-1.696 1.495-2.325 0 0-.249-.503-1.184.126-.935.628-2.804.377-3.551-.063z"/><path d="M821.134 204.987s1.069-1.455.632-5.821 3.354-4.868 4.812-3.613c0 0 1.507 1.305.121 4.074-.8 1.598-2.077 3.667-5.565 5.36z" fill="#64b4d1" stroke="#012169" stroke-miterlimit="2.613" stroke-width=".623"/><path d="M822.559 201.727s1.421-1.528.743-4.845c0 0-.005-.327.183-.349 0 0 .345-.087.403.24 0 0 .763 3.536-.841 5.457 0 0-.293.284-.489 0 .001-.001-.215-.204.001-.503z" fill="#fff"/><path d="M819.923 203.399s-.112-1.76-3.154-4.751-.541-5.747 1.322-5.724c0 0 1.93.03 2.625 2.971.401 1.699.741 4.048-.793 7.504z" fill="#64b4d1" stroke="#012169" stroke-miterlimit="2.613" stroke-width=".623"/><path d="M819.45 199.572s.054-2.156-2.7-4.406c0 0-.224-.262-.096-.401 0 0 .204-.293.47-.066 0 0 2.966 2.373 3.038 4.965 0 0-.033.419-.373.316-.001-.002-.303-.026-.339-.408z" fill="#fff"/><path d="M815.792 202.076s-.795-1.434-4.552-2.767-2.742-4.615-1.161-5.317c0 0 1.641-.722 3.397 1.477 1.015 1.272 2.236 3.112 2.316 6.607z" fill="#64b4d1" stroke="#012169" stroke-miterlimit="2.613" stroke-width=".623"/><path d="M814.146 199.44s-.854-1.977-4.294-2.843c0 0-.313-.142-.255-.323 0 0 .062-.353.398-.26 0 0 3.683.886 4.834 3.205 0 0 .146.394-.206.445 0 .001-.284.108-.477-.224z" fill="#fff"/><path d="M818.146 203.512s-1.752.492-5.775-1.449-5.785 1.437-5.08 3.244c0 0 .737 1.87 3.851 1.542 1.798-.19 4.206-.661 7.004-3.337z" fill="#64b4d1" stroke="#012169" stroke-miterlimit="2.613" stroke-width=".623"/><path d="M808.791 204.794s1.824 1.125 5.134-.155c0 0 .337-.065.392.117 0 0 .15.325-.178.443 0 0-3.521 1.404-5.783.171 0 0-.344-.238-.085-.484.001 0 .174-.252.52-.092z" fill="#fff"/><path d="M812.26 190.797s2.009.974 1.542 3.33" fill="none" stroke="#000" stroke-miterlimit="2.613" stroke-width=".831"/><path d="M821.138 191.127s.786 2.488-.082 3.828" fill="none" stroke="#000" stroke-miterlimit="10" stroke-width=".831"/><path d="M682.528 204.987s-1.069-1.455-.632-5.821-3.354-4.868-4.812-3.613c0 0-1.507 1.305-.121 4.074.8 1.598 2.076 3.667 5.565 5.36z" fill="#64b4d1" stroke="#012169" stroke-miterlimit="2.613" stroke-width=".623"/><path d="M681.102 201.727s-1.421-1.528-.743-4.845c0 0 .005-.327-.183-.349 0 0-.345-.087-.403.24 0 0-.763 3.536.841 5.457 0 0 .293.284.489 0-.001-.001.216-.204-.001-.503z" fill="#fff"/><path d="M683.738 203.399s.112-1.76 3.154-4.751.541-5.747-1.322-5.724c0 0-1.93.03-2.625 2.971-.401 1.699-.741 4.048.793 7.504z" fill="#64b4d1" stroke="#012169" stroke-miterlimit="2.613" stroke-width=".623"/><path d="M684.212 199.572s-.054-2.156 2.7-4.406c0 0 .224-.262.096-.401 0 0-.204-.293-.47-.066 0 0-2.966 2.373-3.038 4.965 0 0 .033.419.373.316 0-.002.302-.026.339-.408z" fill="#fff"/><path d="M687.869 202.076s.795-1.434 4.552-2.767 2.742-4.615 1.161-5.317c0 0-1.641-.722-3.397 1.477-1.015 1.272-2.236 3.112-2.316 6.607z" fill="#64b4d1" stroke="#012169" stroke-miterlimit="2.613" stroke-width=".623"/><path d="M689.515 199.44s.854-1.977 4.294-2.843c0 0 .313-.142.255-.323 0 0-.062-.353-.398-.26 0 0-3.683.886-4.834 3.205 0 0-.146.394.206.445 0 .001.284.108.477-.224z" fill="#fff"/><path d="M685.515 203.512s1.752.492 5.775-1.449 5.785 1.437 5.08 3.244c0 0-.737 1.87-3.851 1.542-1.798-.19-4.206-.661-7.004-3.337z" fill="#64b4d1" stroke="#012169" stroke-miterlimit="2.613" stroke-width=".623"/><path d="M694.87 204.794s-1.824 1.125-5.134-.155c0 0-.337-.065-.392.117 0 0-.15.325.178.443 0 0 3.521 1.404 5.783.171 0 0 .344-.238.085-.484-.001 0-.173-.252-.52-.092z" fill="#fff"/><path d="M691.401 190.797s-2.009.974-1.542 3.33" fill="none" stroke="#000" stroke-miterlimit="2.613" stroke-width=".831"/><path d="M682.523 191.127s-.786 2.488.082 3.828" fill="none" stroke="#000" stroke-miterlimit="10" stroke-width=".831"/><path d="M769.739 168.273s1.273 3.634.724 6.927c-.491 2.945.179 3.706 1.243 4.289.921.504 3.055-.378 3.312-2.687 0 0 2.523 4.924-2.383 8.246 0 0-3.528 2.168-6.518-.73-1.054-1.021-1.519-3.84-1.005-6.456 0 0 .772-3.546-.514-7.186 0 0 2.009 2.144 1.495 6.419 0 0-1.028 7.67 4.649 7.293 0 0 3.925-.047 4.042-4.806 0 0-1.472 1.696-3.294 1.131-1.291-.4-2.477-1.649-2.266-3.618.221-2.065.795-5.665.515-8.822zm-6.433 12.597s-.312 6.063-5.856 7.539c0 0 .779-1.099-.467-4.115 0 0-1.215-1.759-1.121-4.492 0 0-1.765 1.381.249 5.026 1.215 2.199.156 4.838-.218 4.932-.375.094 9.158-1.257 7.413-8.89zm-7.196-6.032s-1.339-1.508-1.433-4.995c-.093-3.487-.748-4.335-1.215-4.744 0 0 .685 3.016.498 4.869s.125 2.922.374 3.801c0 0-3.022.471-4.922-3.927-1.816-4.204-3.645-3.864-4.548-3.833 0 0 1.053.117 3.177 3.958 2.122 3.838 2.711 4.62 8.069 4.871zm-14.142-9.11s1.745 4.178 1.807 6.377c0 0-4.05-1.351-5.14-4.869 0 0-4.33 1.476-2.741 6.471 0 0-3.738-1.319-5.42-4.367 0 0 2.087 1.571 4.018 2.262 0 0-.218-4.021 4.828-5.529 0 0 .751 3.602 3.271 4.461 0 .001-.187-2.261-.623-4.806zm6.666-7.162s1.402 2.042 4.268 2.136c1.37.045 2.844-.264 4.268-2.136 0 0-.187 3.55-4.268 3.581 0 0-4.268.157-4.268-3.581zm-17.655 24.267s2.126 1.932 2.57 2.568c0 0 1.495 1.461 2.779-.428 0 0 1.637-3.021 3.646-2.941 0 0-1.425.99-3.027 3.846 0 0-.431 1.054-1.623 1.172-.558.055-1.262.236-2.327-.877 0 0-.92-1.125-2.018-3.34zm21.923-38.498c-4.268-.002-.67 3.298-.67 3.298.093 5.23-4.104 6.84-6.962 5.325-2.858-1.516-.623-5.325-.623-5.325s-3.224 2.12-1.168 5.183 7.445 1.696 9.423-1.131c1.978 2.827 7.367 4.194 9.423 1.131s-1.168-5.183-1.168-5.183 2.235 3.809-.623 5.325c-2.858 1.515-7.056-.094-6.962-5.325-.001.001 3.597-3.3-.67-3.298zm2.585-5.654s1.495 2.545 1.168 6.408c0 0 1.355-3.864-1.168-6.408zm-13.083 5.984s-.327-2.78-3.037-3.016c0 0 2.289 1.65 3.037 3.016zm21.027 0s.327-2.78 3.037-3.016c0 0-2.29 1.65-3.037 3.016zm-25.326 4.241s2.149.66 3.458-.942c0 0-2.477.659-3.458.942zm-6.962-17.058s2.5-.283 5 3.44c0 0-2.477 1.319-3.084 2.12 0 0 0-1.225 1.215-2.309-.001.001-.468-1.884-3.131-3.251zm41.867 0s-2.5-.283-5 3.44c0 0 2.477 1.319 3.084 2.12 0 0 0-1.225-1.215-2.309 0 .001.467-1.884 3.131-3.251zm-19.298 2.778s2.243.615 5.046-.94c0 0 3.458-1.838 5.654 0 0 0-1.916-.853-5.607.94 0 0-3.692 2.024-5.093 0z"/><path d="M756.048 136.89s1.916-3.36 7.757-2.693c0 0-1.589 4.672-7.757 2.693z" fill="#fff"/><ellipse cx="760.077" cy="135.848" fill="#784421" rx="1.155" ry="1.464"/><ellipse cx="760.077" cy="135.848" rx=".686" ry=".898"/><path d="M743.525 129.728s3.691.236 5.934 1.649c0 0 2.383 1.414 5.093-.613 0 0 2.947-1.696 4.838-4.052 0 0-4.511 3.11-6.193 3.581 0 0-1.542-1.178-2.149-2.874 0 0 .234-1.272 2.663-3.628 0 0-3.271.99-3.925 3.77 0 0 .607 1.696 1.869 3.016 0 0-.607.283-2.196-.707 0-.001-3.457-1.179-5.934-.142zm9.377 22.17c-3.193 2.757 0 2.474 0 2.474s3.193.283 0-2.474zm-1.848-17.272s-2.243.615-5.047-.94c0 0-3.458-1.838-5.654 0 0 0 1.916-.853 5.607.94.001 0 3.692 2.024 5.094 0z"/><path d="M748.718 136.89s-1.916-3.36-7.757-2.693c0 0 1.589 4.672 7.757 2.693z" fill="#fff"/><ellipse cx="744.689" cy="135.848" fill="#784421" rx="1.155" ry="1.464"/><ellipse cx="744.689" cy="135.848" rx=".686" ry=".898"/><path d="M865.723 106.664v211.737c0 56.557-113.062 74.933-113.062 74.933s-113.062-18.376-113.062-74.933V106.664z" fill="none" stroke="#000" stroke-width="2"/></svg>