<svg xmlns="http://www.w3.org/2000/svg" xmlns:xlink="http://www.w3.org/1999/xlink" viewBox="0 0 1440 720">
<rect width="1440" height="720" fill="#f7e017"/>
<path d="M0,50V370L1440,520V350z" fill="#fff"/>
<path d="M0,220V370L1440,670V520z" fill="#000"/>
<g fill="#cf1126">
<path d="M695.74,569.72c-19.36-2.57-37.11-8.73-49.44-17.17-2.39-1.64-4.64-2.98-4.99-2.98-0.36,0-0.65,1.82-0.65,4.07,0,6.37-2.56,9.58-9,11.25-6.16,1.6-15.56-1.63-23.18-7.95-7.89-6.55-17-11.55-24.71-13.55-6.35-1.66-14.78-1.39-20.87,0.65-2.83,0.95-6.05,2.29-7.17,2.98-1.11,0.69-2.36,1.25-2.76,1.25-1.08,0-0.93-6.85,0.2-9.04,1.49-2.87,5.16-5.7,9.44-7.26,2.16-0.79,3.93-1.8,3.93-2.25s-0.73-2.1-1.62-3.65c-2.9-5.08-1.71-10,3.35-13.87,5.18-3.96,13.95-4.64,21.7-1.69,1.95,0.74,3.77,1.35,4.04,1.35,1.02,0,0.4-1.43-2.41-5.52-3.24-4.74-3.88-7.08-3.48-12.72,0.52-7.14,6.34-12.98,13.47-13.5,5.82-0.42,9.44,1.54,18.03,9.72,25.65,24.46,53.54,37.94,86.07,41.59,8.21,0.92,24.73,0.43,34.42-1.03,29.27-4.41,58.76-19.13,81.79-40.82,6.38-6.01,9.45-7.6,14.68-7.62,4.55-0.02,7.74,1.45,11,5.05,2.97,3.3,3.98,6.43,3.66,11.44-0.21,3.21-0.73,4.79-2.64,7.9-2.82,4.59-2.34,5.01,3.24,2.85,7.54-2.94,16.83-1.58,21.84,3.18,4.41,4.19,4.83,8.38,1.4,14.06-1.25,2.08-2.27,4.03-2.27,4.34,0,0.57,0.95,0.84,5.53,1.58,5.99,0.96,9.42,5.41,9.42,12.21,0,2.04-0.25,3.7-0.56,3.7-0.3,0-2.57-0.83-5.04-1.85-6.98-2.88-10.95-3.62-19.11-3.57-6.21,0.04-8.35,0.33-12.68,1.74-6.63,2.17-13.72,6.35-19.5,11.5-6.37,5.68-10.38,7.47-16.58,7.42-5.76-0.06-9.7-1.73-11.78-5.02-1.11-1.76-1.27-2.83-1-6.81,0.18-2.59,0.14-4.71-0.07-4.71-0.22,0-2.46,1.42-4.99,3.17-6.64,4.56-10.87,6.82-18.47,9.83-23.18,9.17-56.63,13.14-82.24,9.75z"/>
<path d="m706.34,525.17c-38.58-3.7033-75.494-23.798-97.939-55.657-24.37-33.235-32.05-77.117-24.611-117.24,3.9535-18.267,11.929-36.546,25.544-49.554-10.85,23.003-14.516,49.369-8.7299,74.29,8.989,49.753,51.036,91.87,101.34,99.156,19.9,5.761,40.487-0.32356,59.496-6.4934,41.935-14.779,73.879-54.583,77.777-99.079,3.3363-24.078-0.36023-49.114-11.207-70.916,6.1825,3.2692,13.987,16.087,18.589,24.707,16.003,31.003,16.734,68.155,7.3126,101.24-12.78,42.097-44.965,78.978-87.511,92.382-19.308,6.3081-39.842,8.2315-60.058,7.1679z"/>
<g id="hand">
<path d="m512.02,469.9c-2.5284-0.39577-5.3161,2.092-4.3628,4.6971,1.823,2.633,4.9641,3.9201,7.798,5.1795,6.7915,2.7224,14.179,3.7823,21.471,3.6055-2.5133-0.006,0.86258,0.026,1.8015-0.00068,5.774,0.0171,11.516-1.0234,16.944-2.98,3.018-1.0614,6.8641-2.0244,8.1009-5.3629,1.2069-2.1744-0.98008-4.3462-3.1859-3.9108-3.0714,0.67078-5.9433,2.064-8.9896,2.8576-6.5725,1.8534-13.494,2.5704-20.303,2.0116-4.9792-0.60782-9.8039-2.2005-14.41-4.1433-1.5972-0.70457-3.0962-1.7322-4.8648-1.9536z"/>
<path d="m514.83,459.52c-2.5558-0.38057-4.7577,2.5607-3.6917,4.9076,1.965,2.8484,5.2671,4.3651,8.356,5.6992,5.3706,2.1486,11.204,3.0471,16.975,2.8752-2.1917-0.006,0.75258,0.026,1.5651-0.00068,4.9069,0.006,9.7882-0.96448,14.325-2.8311,2.7732-1.0787,6.1693-2.1246,7.3241-5.177,0.89621-1.6768,0.21293-4.1165-1.8997-4.2476-1.9288-0.0953-3.5928,1.1322-5.3782,1.6831-6.4849,2.6815-13.622,3.8183-20.614,3.2146-4.3567-0.56071-8.519-2.1681-12.47-4.0312-1.4847-0.71699-2.8205-1.8356-4.4909-2.092z"/>
<path d="m518.28,449.57c-2.1908-0.26295-3.6978,2.2088-3.3288,4.1816,0.32687,1.7334,1.8824,2.8984,3.1689,3.9607,5.3292,3.8973,12.083,5.5573,18.626,5.3398-2.5415-0.009,3.4093,0.0418,1.5947-0.007,4.1442-0.0169,8.2378-1.0309,11.966-2.825,2.4889-1.0824,5.4115-2.3356,6.2502-5.1771,0.40122-1.3236,0.65233-3.227-0.84101-3.97-1.5638-0.87412-3.1169,0.47031-4.5388,1.0156-4.7891,2.4374-10.125,3.7932-15.507,3.7682-4.6507,0.15705-9.0334-1.799-13.068-3.9072-1.464-0.74578-2.6708-2.0422-4.3214-2.3798z"/>
<path d="m481.53,302.7c-3.2575,3.2606-0.7701,9.2712-0.94626,13.543,1.6879,13.158,3.785,26.484,8.697,38.87,6.015,12.102,18.791,18.573,26.533,29.268,2.7675,5.155,1.7849,11.355,2.3681,16.994,0.45808,15.366,0.31593,30.743,0.047,46.111,6.9387,3.4817,14.474,6.9863,22.456,5.6471,4.7306-1.13,13.512-1.8326,14.496-6.5436-0.38235-26.5-0.6304-53.01-0.98289-79.506-2.6903-8.1185-10.951-12.32-17.129-17.514-5.0992-5.0259-9.844-10.435-14.188-16.099-2.6218-4.4175-12.868-6.0092-9.1612,1.6764,2.1735,6.6538,7.7204,11.61,9.1091,18.602,0.30342,3.8316,4.8776,10.879,0.97314,13.114-2.4837-4.2216-6.0823-7.815-10.682-9.9574-4.4324-3.3044-11.759-4.68-13.359-10.517-1.1745-8.2799-5.4152-15.782-10.887-21.986,1.4102-7.4368,0.005-16.737-6.4234-21.49l-0.92101-0.21254-0.00013-0.00002z"/>
<path d="m491.44,304.19c-2.9629,0.47847-2.8621,4.2538-1.491,6.239,1.4583,4.2881,1.8554,8.9449,1.0659,13.409,5.2675,6.1665,9.3467,13.543,10.576,21.64,0.0299,3.0437,3.2327,4.0512,5.309,5.5551,4.8712,3.1016,10.348,5.3512,14.686,9.2326,0.91286,0.97602,1.6017,2.0271,0.9566,0.035-0.67695-2.5463-1.0251-5.3576-3.0207-7.2849-2.7345-2.939-6.15-5.5628-10.133-6.4593-0.33199-4.114-2.2913-7.8931-4.1017-11.532-2.0066-3.4792-4.1026-7.2065-7.5407-9.4626,0.13834-6.098,0.0385-12.495-2.5857-18.122-0.7696-1.4455-1.9032-3.163-3.7197-3.2499z"/>
<path d="m499.73,306.62c-2.0642,0.61274-1.6695,3.1587-1.0158,4.7165,0.98881,4.3156,1.1436,8.7732,1.063,13.184,3.7911,3.0003,6.1624,7.3501,8.3216,11.586,1.3534,2.8304,2.6366,5.7518,3.1556,8.8651,3.0757,1.0188,5.7672,2.946,8.171,5.0773-0.95256-2.8824-3.0766-5.1129-4.5042-7.7441-1.5516-2.7372-3.0336-5.5913-3.6904-8.6923-2.9581-3.1576-4.5872-7.6305-3.9408-11.952,0.13267-4.7762-1.4093-9.7114-4.6059-13.311-0.8049-0.79276-1.7658-1.6692-2.954-1.7296z"/>
<path d="m509.16,307.97c-1.1224,0.1984-1.8054,1.2662-2.4064,2.1373-0.23225,0.87316,0.83776,1.8114,1.0081,2.7596,1.3127,3.2919,1.8084,6.903,1.4162,10.426-0.0864,2.5018,0.80881,4.9458,2.0839,7.0649,0.36793-1.5628,1.8164-2.6864,3.3865-2.8406,0.57114-0.10043,1.4107,0.18835,1.0779-0.68251-0.39881-4.7853-1.128-9.5978-2.8007-14.119-0.64833-1.615-1.3844-3.3147-2.7835-4.4203-0.28367-0.20186-0.62304-0.3745-0.98205-0.32512z"/>
</g>
<use xlink:href="#hand" transform="matrix(-1,0,0,1,1440,0)"/>
<path d="m715.67,475.98c-13.493-1.2846-25.667-11.12-29.829-24,0.22423-2.2187,2.9867,1.2413,4.2917,1.4741,2.4503,1.3606,5.0998,2.4802,7.9211,2.6539,3.5571,1.529,5.7565,5.0346,9.1516,6.8629,1.5764,1.2278,7.1544,3.641,6.1182-0.26421-1.307-2.04-2.2057-4.6242-1.0806-6.9613,1.8918-4.1503,4.8018-7.7638,7.7306-11.226,2.1527-0.71996,3.5939,3.5262,5.1338,4.9568,2.1308,3.2786,4.7004,7.2793,3.447,11.352-1.2198,1.5087-2.0216,6.0472,1.2409,4.5219,4.0213-1.7692,7.3158-4.7418,10.651-7.5175,2.9183-2.0384,6.6539-2.1824,9.7125-3.9699,1.4177-0.35921,4.3706-3.1946,4.9861-1.6225-1.6759,4.4876-4.4822,8.5068-7.4822,12.211-4.8588,5.5503-11.432,9.7247-18.786,10.902-4.3459,0.79562-8.806,0.96352-13.207,0.62747z"/>
<path d="m731.53,460.22c0.29719-2.7079-0.31965-5.4735-1.703-7.9349-2.123-4.3258-5.1213-8.1663-8.0456-11.961-2.7573-1.615-4.2871,3.6582-6.1205,5.1714-2.8566,4.2769-6.4434,8.6562-6.617,14.036-1.6071,2.5012-4.6044-2.0411-5.8962-3.5357-2.4673-3.4911-4.3356-7.6206-4.0297-11.987-0.29227-7.0356,1.0571-14.041,3.6204-20.581,1.9348-5.5826,5.0755-11.006,4.7564-17.105,0.22416-4.5905-0.70745-9.6582-4.4262-12.745-3.538-2.7758,2.2916-3.3674,4.1432-1.928,3.1686,0.21257,4.8825,5.4481,7.7771,4.152,1.1532-2.7346,1.3824-5.9968,3.7595-8.1295,2.3338-3.1959,4.773,1.3562,5.5715,3.488,1.6467,1.8723-0.0931,6.5066,2.5817,6.6282,3.2062-2.2473,5.4923-6.0227,9.5918-6.8447,1.6623-0.94835,4.5034-0.12664,2.3114,1.7848-3.0339,2.8443-5.6262,6.4002-6.1786,10.631-0.92788,5.3074,0.39912,10.69,2.7124,15.47,4.4468,9.3901,7.8854,19.996,5.6361,30.444-1.0432,4.644-4.1982,8.6454-8.0313,11.341-0.4847,0.29274-1.2499,0.27192-1.4134-0.39473z"/>
<path d="m726.73,389.63c-1.4562-2.6239-3.2238-5.2103-5.673-6.9945-2.3812-0.005-3.8508,2.9985-5.468,4.5721-1.134,2.11-2.5118,5.6386-5.3053,2.8796-4.4442-2.5928-5.2306-8.2748-5.202-12.958-0.27951-7.5908,2.777-14.674,5.4923-21.587,1.7275-4.3277,1.3019-9.1991,0.24806-13.634-1.3266-5.0918-5.4137-8.6231-8.5601-12.595,0.214-1.5365,4.235-0.69686,5.7483-0.40478,3.3588,0.85136,5.3664,3.8249,7.8703,5.9259,1.7818-0.53937,1.0545-4.1395,1.8839-5.833,0.0613-2.3821,3.233-5.5228,4.5407-2.1121,1.9588,2.1674-0.0626,6.4643,2.4686,7.8144,2.4113-0.89283,3.6009-3.5283,5.8666-4.72,2.2295-1.5204,5.3776-1.69,7.7781-0.49647,0.84484,2.2126-2.6402,4.0548-3.6496,5.9771-4.052,5.0056-5.4756,11.91-3.7401,18.112,1.3759,4.8649,3.8133,9.4058,4.6546,14.434,1.0126,5.6525,0.97903,11.589-0.48403,17.159-0.87455,3.3816-3.8021,5.6402-6.8258,7.0448-0.74602-0.69428-1.1395-1.7142-1.6436-2.583z"/>
<path d="M711.61,326.89c-3.36-2.46-4.47-4.81-4.47-9.46,0-2.38,0.44-3.67,2.01-5.83,2.31-3.2,1.89-4.21-1.38-3.27-5.26,1.51-7.77,0.13-7.95-4.35-0.08-2.19,0.38-3.12,3.33-6.66,2.36-2.84,3.22-4.33,2.75-4.8-0.46-0.46-3.25,1.96-8.98,7.79-4.57,4.65-9.71,9.4-11.42,10.56-9.84,6.64-19.24,7.67-23.53,2.56-2.2-2.61-2.08-4.08,0.46-5.66,1.17-0.72,3.14-2.38,4.39-3.69,2.95-3.07,11.74-9.41,16.1-11.61,3.54-1.79,4.38-3,2.08-3-2.98,0-12.54,6.22-19.79,12.88-2.13,1.97-5.2,4.16-6.81,4.87-3.62,1.6-10.73,2.19-13.89,1.15-2.23-0.74-6.3-4.58-6.3-5.95,0-0.36,0.93-1.16,2.06-1.77,1.13-0.6,3.16-2.07,4.5-3.24,5.8-5.09,16.79-10.33,25.51-12.16,2.77-0.58,1.75-1.98-1.34-1.84-5.99,0.26-17.88,5.83-24.98,11.69-8.32,6.86-20.87,6.21-24.91-1.29-0.7-1.29-1.11-2.5-0.91-2.69,0.19-0.19,2.66-0.93,5.49-1.65,3.06-0.77,9.12-3.28,14.91-6.17,9.11-4.54,11.81-5.51,18.08-6.52,2.82-0.45,2.97-1.83,0.23-2.15-3.53-0.42-8.94,1.35-18.5,6.05-12.28,6.04-15.72,7.08-22.19,6.7-5.9-0.36-9.23-1.87-14.02-6.4-3.13-2.97-7.57-10.51-6.7-11.38,0.21-0.21,1.65,0,3.2,0.45,1.72,0.51,6.65,0.85,12.59,0.86,8.31,0.02,10.52-0.2,14.95-1.48,7.41-2.14,17.26-7.15,24-12.18,12.89-9.64,23.4-13.51,36.8-13.57,12.37-0.05,20.24,2.81,27.21,9.88,2.36,2.39,4.37,3.94,4.7,3.61,0.31-0.31,0.65-4.49,0.75-9.29,0,0,3.64-0.35,4.41,0.67,0,7.79,0.09,8.4,1.22,8.4,0.74,0,1.53-0.76,2.02-1.94,1.06-2.55,4.98-6.04,9.17-8.16,9.05-4.59,24.71-4.73,37.29-0.34,5.3,1.86,11.18,5.18,16.78,9.5,5.62,4.32,17.11,10.1,23.9,12.03,6.87,1.95,18.98,2.44,25.19,1.03,2.56-0.58,4.96-1.06,5.34-1.06,2.29,0-1.61,7.63-6.19,12.1-8.37,8.18-19.26,8.14-34.58-0.12-9.55-5.14-20.97-7.95-20.97-5.15,0,0.58,0.6,0.97,1.49,0.97,3.32,0,9.73,2.23,18.67,6.47,9.67,4.6,15.1,6.54,18.32,6.54,2.34,0,2.41,1.45,0.23,4.65-2.31,3.41-6.23,5.1-11.77,5.09-5.29-0.02-8.23-1.18-12.96-5.11-7.91-6.58-27.62-13.92-26.86-10,0.15,0.78,1.1,1.26,3.13,1.57,6.86,1.05,14.91,4.89,23.15,11.06,2.54,1.91,5.18,3.79,5.85,4.19,1.13,0.66,1.15,0.86,0.26,2.53-1.48,2.76-5.21,4.9-9.25,5.32-5.23,0.54-9.78-1.02-14.49-4.96-9.94-8.32-19.31-14.34-22.31-14.34-2.45,0-1.35,1.35,2.97,3.64,5.68,3.01,11.52,7.08,15.82,11.03,2.03,1.88,4.32,3.74,5.08,4.15,1.8,0.96,1.73,2.37-0.25,4.96-2.02,2.64-5.36,3.8-9.69,3.34-8.64-0.91-15.38-5.08-25.97-16.07-4.14-4.29-7.83-7.8-8.21-7.8-1.41,0-0.58,1.91,2.15,4.97,3.38,3.78,4.03,5.91,2.75,8.98-1.13,2.72-3.01,3.35-6.87,2.31-3.95-1.07-4.57-0.1-1.98,3.12,3.86,4.81,3.29,10.7-1.44,14.75-1.47,1.25-3.01,2.28-3.43,2.28-0.41,0-1.45-1.07-2.32-2.38-3.04-4.62-5.71-4.59-8.67,0.08-1.03,1.63-1.9,2.95-1.93,2.94-0.04-0.01-1.43-1.01-3.08-2.23z"/>
<path d="M726.67,233.03,721.54,237.09,716.94,233.62,716.94,261.36,726.67,261.48z"/>
<path d="M694.89,204.25c-1.02,13.11-4.35,22.26-8.98,32.35l11.1-10.29,7.72,9.17,8.36-9.33,8.53,7.88,8.2-8.2,8.52,9.97,7.4-8.2,12.54,9c-4.55-10.09-10.71-18.64-9.94-32.84-12.15,9.03-41.02,10.66-53.45,0.49z"/>
<path d="M716.95,197.56c-4.46,0.08-9.16,0.14-13.39,0.97-2.93,0.58-5.59,1.53-7.81,3.1,0.36,8.53,41,12.09,51.9,0.16-2.29-1.67-5.09-2.66-8.17-3.26-4.07-0.79-8.57-0.87-12.84-0.94,0,2.34,0.02,4.69,0.02,7.04l-9.71-0.03v-7.04z"/>
<path d="M724.9,153.97,718.59,154.02,718.59,203.4,725.03,203.43z"/>
<path d="M724.89,155.24,722.48,178.88,746.8,190.76,734.49,174.3,751.3,168.85z"/>
<path d="M722.18,149.08c-3.69,0-6.42,1.38-6.42,3.02s2.73,3.03,6.42,3.03,6.4-1.39,6.4-3.03-2.71-3.02-6.4-3.02z"/>
</g>
<g fill="#f7e017">
<path d="M711.05,563.82c3.99-1.32,6.26-3.74,7.89-8.4,0.81-2.32,1.36-4.73,1.22-5.36-0.34-1.49-2.06-1.41-3.96,0.17-1.3,1.09-1.46,1.64-1.09,3.86,0.95,5.6-1.04,6.99-11.64,8.13-1.05,0.11-4.09-0.07-6.77-0.4-5.04-0.63-6.84-0.13-5.01,1.39,0.55,0.46,1.95,1.08,3.11,1.37,2.83,0.73,13.22,0.24,16.25-0.76z"/>
<path d="M733.02,562.89c0.6-0.55,2.66-1.5,4.58-2.12,2.56-0.82,3.88-1.7,4.96-3.31,3.11-4.63,2.53-8.62-2.04-14-2.48-2.92-3.58-2.84-5.56,0.4-1.71,2.8-1.67,2.98,0.79,3.62,1.29,0.33,2.53,1.28,3.21,2.45,2.68,4.64,1.89,7.51-2.08,7.54-3.6,0.03-4.59,0.54-5.56,2.87-0.51,1.21-0.92,2.5-0.92,2.87,0,0.98,1.36,0.81,2.62-0.32z"/>
<path d="M725.81,557.65c0.68-1.84,0.92-5.15,0.84-11.9-0.05-5.14-0.25-9.5-0.45-9.7-0.6-0.6-3.56,1.31-3.95,2.54-0.2,0.64,0.13,2.12,0.73,3.28,0.92,1.79,1.04,3.46,0.76,10.47-0.36,8.86,0.22,10.35,2.07,5.31z"/>
<path d="M708.89,553.43c0.36-1.65,0.82-5.03,1.03-7.5s0.72-5.59,1.12-6.94c1.02-3.46-0.01-4.37-2.74-2.43l-2.03,1.45,0.42,4.97c0.39,4.48-0.32,12.83-1.35,16.07-0.28,0.86,0.12,0.64,1.25-0.68,0.91-1.06,1.95-3.29,2.3-4.94z"/>
<path d="m693.88,555.84c3.6514-3.0546,3.2318-8.2704,4.04-12.52-0.0835-2.8248,1.8038-6.2116,0.58588-8.6828-3.4119,0.62408-5.5147,3.8554-3.7684,7.0746,0.14546,3.7382,0.0129,7.8076-1.9089,11.113-1.5698,2.1618-6.5419,1.6234-6.3131-1.4406,1.2477-4.6065-4.2718-2.3648-6.4264-1.1571-1.6657,1.1597-5.1825,1.2451-3.9601-1.6569-0.80663-3.8664-5.7798-1.4479-8.4816-1.4651-2.552-0.0466-0.21096-5.1708-3.8736-4.271-6.8058-0.53675-14.319,0.0602-20.21-4.0515-3.4486-1.6577-2.937-5.8052-1.1415-8.4888,2.1442-3.6651,2.7555-8.249,6.1588-11.093,3.369-3.231-3.1775-1.8666-4.6517-0.77788-3.2819,1.7962-0.23302,6.4226-2.9192,8.9886-1.5695,2.6611-3.6362,6.3361-7.2698,5.8296-5.2398-0.9908-8.2605-5.8651-12.017-9.1317-3.218-0.64222-1.4087,5.2218,0.25284,6.4543,3.2878,2.4618,7.1291,4.2558,11.092,5.3187,3.9439-0.63072,4.0717,4.5336,7.4444,5.3437,6.1873,2.883,13.083,3.7467,19.833,4.0986,2.6511,0.22107,1.16,4.9425,4.6458,4.0096,1.948,0.50493,6.3478-0.72487,6.5682,1.5381-2.9527,3.5059,2.8341,3.4276,4.9757,2.7999,2.742-0.41905,6.2461-1.4668,6.9708,2.2924,2.289,2.413,6.4921,2.057,9.2796,0.67619,0.39162-0.22691,0.75972-0.49483,1.0937-0.80043z"/>
<path d="M634.12,525.57c1.11-1.41,2.77-4.26,3.69-6.34,0.91-2.09,2.28-4.46,3.03-5.27,1.76-1.9,0.78-3.07-2.06-2.44-1.5,0.33-2.11,0.88-2.36,2.18-0.85,4.24-2.39,8.58-3.76,10.6-2.48,3.66-2.54,3.81-1.52,3.81,0.53,0,1.87-1.14,2.98-2.54z"/>
<path d="M596.66,502.09c-2.8,0-2.92,1.77-0.19,2.72,1.32,0.46,2.44,1.57,3.34,3.38,2.66,5.29,4.22,6.23,11.28,6.84l4.53,0.41,0.22,2.75c0.11,1.52,0.47,2.78,0.82,2.78s2.1-0.76,3.87-1.66c3.32-1.68,6.47-5.6,6.47-8.03,0-1.59-2.65-3.31-5.06-3.31-1.07,0-3.11,0.86-4.72,2.03-5.04,3.65-10.43,2.91-13.38-1.84-2.42-3.92-4.95-6.07-7.18-6.07zm24.46,9.75c1.34,0,1.67,0.99,0.94,2.88-0.5,1.3-2.13,1.34-2.62,0.06-0.58-1.51,0.23-2.94,1.68-2.94z"/>
<path d="M810.84,505.69c-1.83,0.07-2.37,0.47-3.53,2.19-1.9,2.82-2.09,8.93-0.34,11.09,1.09,1.34,1.25,1.37,3.56,0.41,3.22-1.35,3.76-1.3,3.75,0.43-0.02,4.42-6.36,12.94-13,17.47-1.79,1.22-3.39,2.58-3.56,3.03-0.48,1.26,1.98,0.98,5-0.56,4.12-2.1,9.53-7.62,11.75-11.97,1.76-3.47,2.01-4.65,2.22-10.72,0.19-5.59,0.04-7.23-0.91-9.09-1.06-2.09-1.4-2.28-4.06-2.28-0.32,0-0.61-0.01-0.88,0zm0.22,3.9c1.38,0,1.62,0.31,1.78,2.29,0.14,1.64-0.15,2.64-1.06,3.46-1.24,1.12-1.34,1.11-2.44-0.56-1.54-2.36-0.59-5.19,1.72-5.19z"/>
<path d="M780.7,552.27c5.85-2.88,9.3-6.12,11.52-10.81,1.05-2.23,1.91-4.33,1.91-4.69,0-0.81-2.88-2.15-4.61-2.15-1.72,0-2.07-1.19-1.33-4.48,0.72-3.21-0.15-7.23-1.56-7.23-0.51,0-1.41,0.75-2.01,1.66-0.92,1.41-0.97,2.01-0.29,4.06,1,3.04,0.21,5.31-2.51,7.25-1.29,0.92-2,1.98-2,3.01,0,0.87,0.11,1.58,0.24,1.58,0.14,0,1.56-0.74,3.16-1.63l2.92-1.63,1.72,1.35c0.94,0.74,1.72,1.95,1.72,2.69,0,3.56-10.15,9.54-17.12,10.1-3.71,0.3-4.34,0.17-5.63-1.11-1.05-1.05-1.35-1.93-1.09-3.17,0.2-0.95,0.56-2.68,0.8-3.84,0.64-3.1-0.69-2.68-2.99,0.94-1.89,2.99-2.45,6.18-1.39,7.86,0.87,1.37,6.65,2.68,10.74,2.43,2.57-0.15,5.11-0.87,7.8-2.19z"/>
<path d="M819.74,530.49c3.68-3.67,5.24-8.14,5.26-15.05l0.01-5.19,3.04-1.44c3.95-1.88,7.69-5.62,7.69-7.7,0-2.14-0.95-2.03-2.67,0.3-1.25,1.69-2.92,2.71-9.03,5.52-1.54,0.71-1.64,1.09-1.99,7.55-0.41,7.45-1.42,10.24-5.58,15.33-2.55,3.1-2.64,3.51-0.87,3.51,0.73,0,2.59-1.27,4.14-2.83z"/>
<path d="M779.66,526.33c0.35-1.07-1.68-1.83-2.56-0.96-0.37,0.37-0.47,1.01-0.22,1.42,0.58,0.93,2.42,0.62,2.78-0.46z"/>
<path d="M834.93,512.02c0.36-1.07-1.68-1.83-2.55-0.96-0.38,0.38-0.48,1.02-0.23,1.43,0.58,0.93,2.42,0.62,2.78-0.47z"/>
<path d="m768.41,473.28c-1.4296,0.68071-2.1713,2.2244-3.165,3.4028-0.71516,0.48622-0.14203,0.9405,0.26976,1.3988,2.5225,2.7171,3.5898,6.3866,4.7883,9.8088,1.177,4.0402,2.659,8.3784,1.4283,12.588-0.48423,1.6123-1.7525,3.2813-3.6466,2.746-3.0304-0.18916-6.0122-0.99351-9.0512-0.96152-2.705,0.14095-4.7956,2.6024-7.5614,2.3341-1.767,0.11638-1.6925-3.618-3.3341-2.6194-0.8128,1.9472-0.41254,4.1196-0.50932,6.1787,0.30628,0.29508,1.165,0.0377,1.6799,0.1242h5.4451c0.38492,1.8802,0.33677,4.0358,1.6875,5.5312,1.8899,0.67214,4.0159,0.0917,5.8116-0.64309,1.9256-0.89569,2.1834-3.2112,2.7274-5.0153,0.57858-1.9384,3.117-1.4302,4.6149-2.1913,3.6648-1.0697,6.0666-4.8789,5.852-8.6268-0.23686-5.722-2.4198-11.105-4.0759-16.521-0.83346-2.386-1.4104-4.875-2.377-7.2045-0.11331-0.20034-0.34573-0.36894-0.58432-0.32903zm-9.07,32.72c2.0364-0.13276,2.9212,2.3697,2.4899,4.0293-0.76215,2.2555-3.5349,0.80928-4.0958-0.81602-1.0301-1.4517-0.39353-3.4044,1.6058-3.2133z"/>
<path d="M683.94,487.22c-0.91-0.02-1.93,0.32-2.94,1.03-5.31,3.72-6.67,8.12-3.06,9.84,2.65,1.27,1.98,2.76-2.19,4.85-5.97,2.98-11.24,2.61-21.25-1.53-2.46-1.02-3.1-0.63-2.53,1.62,0.55,2.21,2.57,3.42,7.59,4.56,5.4,1.24,11.93,0.84,16.13-0.97,2.05-0.88,4.48-2.73,6.53-4.96l3.25-3.57,3.78,0.47c4.66,0.57,4.75,0.62,4.75,2.85,0,1.77,0.1,1.81,4.38,2.21,2.41,0.23,5.58,0.44,7.06,0.44,1.89,0.01,2.96,0.34,3.59,1.22,0.84,1.17,1.34,1.23,8.38,0.6,6.58-0.6,7.87-0.55,10.84,0.46,2.11,0.72,4.43,1.01,6.19,0.82,5.04-0.57,11.99-4.69,13-7.72,0.12-0.37,1.95-1.02,4.06-1.44,5.09-1.02,5.31-2.13,0.56-2.72-2.06-0.26-5.15-1.01-6.87-1.69-1.73-0.68-4.09-1.25-5.25-1.25-2.56,0-4.97,1.6-4.97,3.25,0,1.08,0.38,1.19,3.41,0.88,2.85-0.29,3.68-0.13,5.18,1.06,0.99,0.78,1.65,1.7,1.44,2.03-0.67,1.09-6.62,3.8-9.25,4.22-1.76,0.28-3.18,0.09-4.56-0.62-2.31-1.2-5.71-1.38-6.35-0.35-0.27,0.45-1,0.16-2-0.78l-1.56-1.47-3.53,1.47c-3.59,1.49-4.91,1.43-4.91-0.28,0-0.78-1.05-0.87-6.34-0.53-5.83,0.38-6.44,0.28-7.53-0.94-1.01-1.12-1.03-1.51-0.31-2.66,0.66-1.06,0.66-1.52,0.03-2.15s-1.45-0.62-3.75,0c-5.8,1.55-7.44,0.68-7.44-3.85,0-2.72-1.56-4.37-3.56-4.4zm-1.44,4.16c0.31,0,0.57,0.19,0.97,0.59,0.51,0.51,0.78,1.4,0.56,1.97-0.52,1.35-2.98,1.3-3.5-0.06-0.25-0.66,0.07-1.4,0.81-1.94,0.52-0.38,0.85-0.57,1.16-0.56z"/>
<path d="M672.1,495.6c3.53-2.24,3.45-2.07,3.96-8.29,0.35-4.39,0.29-4.72-0.9-4.72-1.73,0-2.63,1.9-2.63,5.52,0,2.32-0.36,3.36-1.6,4.59-2.94,2.94-10.24,1.6-11.16-2.05-0.31-1.25,0.09-2.38,1.62-4.55,3.19-4.53,2.47-5.64-1.44-2.2-2.69,2.35-3.17,2.42-2.66,0.39,0.47-1.87-0.51-2.61-2.7-2.06-1.12,0.28-1.73,0.98-2,2.34-0.26,1.33-0.87,2.07-1.93,2.33-1.77,0.45-4.79-1.23-4.79-2.66,0-1.06,4.52-6.58,10.32-12.6,2.19-2.28,3.98-4.4,3.98-4.72s-1.17-0.58-2.6-0.58c-2.09,0-2.6,0.23-2.6,1.2,0,0.66-2.92,4.49-6.5,8.52-7.46,8.4-8.08,10.15-4.39,12.39,2.97,1.82,6.78,1.68,9.77-0.35l2.42-1.65v2.99c0,3.82,0.76,5.19,3.76,6.78,3.77,1.99,8.33,1.75,12.07-0.62z"/>
<path d="m828.66,443.69c-2.7668,1.6519-0.60168,5.1236-0.18254,7.4288-1.1299,3.146-5.1718,3.9934-8.1183,4.5774-4.1736,0.69135-7.1308,4.1827-8.7186,7.8921-0.86037,2.4089-2.9366,6.1445-5.1993,2.4767-1.9667-1.9933-5.5819-3.5732-7.9078-1.2462-1.7668,1.6824-2.2148,4.1568-2.8735,6.4025-1.0427-1.7262-1.5104-4.2966-3.7201-4.8424-3.5276,0.49628-2.2527,4.9439-0.594,6.7779,1.5076,2.1378,2.9558,4.9578,1.4779,7.4969-1.303,3.0516-5.8095,5.11-8.4565,2.4995-2.4722-1.305-0.81896-5.9649-3.254-6.221-1.204,0.86977-1.3032,5.7458-3.2303,3.1024-1.3906-2.2586-0.65318-5.3523-2.3547-7.3843-2.0106,0.24966-3.6272,3.7115-2.9583,5.5709,2.6825,3.6176,3.7849,8.1558,4.8314,12.467,0.65196,1.7264-0.0951,5.2267,1.5199,5.9106,1.1196-2.7787,0.0791-5.9306,0.96044-8.7358,2.6182-0.32901,5.5303,0.86591,8.2761,0.23077,3.9286-0.50981,6.9646-3.825,8.3424-7.3555,0.41644-2.6542-0.079-5.3476-0.15274-8.0168,3.1034,0.48084,6.3281,0.47101,9.3135,1.4788,1.4804,2.2709-0.46974,5.4485-0.87913,7.9295-1.5586,5.0524-5.5163,8.7194-9.366,12.097-1.6101,0.95299-1.8264,3.4782,0.55162,2.118,5.1735-2.2122,9.0295-6.8975,11.248-11.969,1.619-3.9019,0.31744-8.2474,1.3744-12.238,1.5617-2.9959,5.3215-2.3646,8.1035-2.3553,2.879-0.10959,5.3363-3.464,4.3747-6.2619-0.91607-3.2468,2.519-4.8109,4.8661-5.9714,3.1119-1.5702,5.4981-4.7591,5.2571-8.3583-0.12787-1.8402-0.0371-5.3318-2.5312-5.5zm-11.031,18.75c3.3336,0.88568-0.60342,7.2524-2.375,3.2188-0.54528-1.539,0.75001-3.2741,2.375-3.2188zm-15.47,4.56c4.3385-0.25338,2.7806,6.0812-0.88479,3.2048-1.9006-0.95441-1.2718-3.3229,0.88479-3.2048z"/>
<path d="M645.1,491.48c0.12-0.63-0.2-1.08-0.77-1.08-1.21,0-1.94,1.06-1.37,1.98,0.59,0.95,1.89,0.41,2.14-0.9z"/>
<path d="M695.94,485.8c0-0.93-0.35-1.28-1.13-1.13-1.7,0.32-1.89,2.48-0.22,2.48,0.93,0,1.35-0.42,1.35-1.35z"/>
<path d="m633.03,455.28c-2.029-0.41667-3.3053,1.3004-4,2.9375-1.5174,2.5503-3.3705,5.1587-6.0931,6.5091-1.9578,0.54422-4.0937-0.20046-5.7819-1.2102-2.0147-1.0029-1.5567-3.4259-2.4202-5.1005-1.457-1.1443-4.0407,0.4921-3.9834,2.2714-0.16115,2.3862,2.0713,3.7641,3.9242,4.6869,1.5747,0.96445,3.8577,1.5009,4.4871,3.4529-0.0437,1.6587,0.6235,3.5571,2.6435,2.9166,2.2597-0.0372,2.8449,2.7155,1.9326,4.3671-0.92932,1.8613-1.5564,4.0416-1.1119,6.1154,1.08,0.90934,2.1827-1.5301,2.9652-2.2268,0.53138-0.70851,1.0628-1.417,1.5941-2.1255,3.9984,0.21679,7.9929,0.72673,12.001,0.5846,2.8505-0.0516,5.2778-1.8114,7.0906-3.875,2.5633-2.6802,4.6693-5.8294,7.597-8.142,2.0839-0.50859,0.96439-4.4336-1.2124-3.3001-1.9608,0.7355-2.578,2.9513-3.9368,4.3632-2.3146,2.8028-4.6762,5.6471-7.5941,7.8434-2.1245,0.8812-4.5705,0.49663-6.7532-0.00022-0.91062-0.79618,1.8087-1.445,2.188-2.33,1.252-1.2507,2.7385-2.438,3.4639-4.0814-0.69398-1.5148-2.8167-1.6373-4.3126-1.6678-3.6856,0.44249-6.5007,3.5363-10.223,3.8277-2.8253,0.099-1.355-2.9607-0.0813-4.0046,2.4916-2.9589,5.1844-5.7458,7.7858-8.6074,0.73816-0.88845,3.4086-1.732,1.7006-2.98-0.59723-0.21503-1.2431-0.21478-1.8694-0.22424zm1.8125,14.969c1.8586,1.0454-1.1858,2.7567-2.4681,2.5229-1.6823,0.50416-1.7125-1.2116-0.2183-1.5533,0.8401-0.43711,1.7274-0.89316,2.6864-0.96961zm-5.7188,3.9062c1.0579-0.0202,3.2748,0.99623,1.1931,1.6469-1.4494,1.1234-3.0867-1.1434-1.1931-1.6469z"/>
<path d="M674.15,476.74c0-1.41-2.53-1.21-2.81,0.22-0.18,0.92,0.11,1.14,1.29,0.97,0.84-0.12,1.52-0.65,1.52-1.19z"/>
<path d="M786.2,466.82c0.26-1.35-1.62-2.25-2.61-1.26s-0.08,2.87,1.26,2.61c0.62-0.12,1.23-0.73,1.35-1.35z"/>
<path d="M611.82,453.09c1.76-1.51,1.78-1.61,1.02-4.93-1.08-4.65-1.01-5.15,0.76-5.59,2.24-0.57,7.93,2.48,9.19,4.92,0.98,1.89,0.95,2.02-0.71,3.56-1.79,1.65-1.78,3.58,0.01,3.58,1.48,0,5.57-3.87,5.57-5.26,0-1.93-4.54-6.49-8.13-8.16-2.22-1.04-4.44-1.52-7.01-1.53-4.6,0-5.22,0.99-3.98,6.34,1.46,6.27-0.52,7.12-5.57,2.39-3.75-3.51-5.23-7.16-5.21-12.91,0.01-6.17,2.37-9.22,7.69-9.94,3.53-0.47,3.44-1.3-0.19-1.84-5.3-0.8-9.78,2.74-11.48,9.06-1.89,7.01,2.44,15.55,10.1,19.95,4.01,2.3,5.61,2.37,7.94,0.36z"/>
<path d="M820.66,445.4c0.43-0.43,0.78-1.4,0.78-2.15s0.73-2.36,1.62-3.57c0.9-1.21,1.63-2.45,1.63-2.75,0-1.23-2.03-1.19-3.63,0.08-1.64,1.28-2.87,1.31-2.87,0.06,0-0.31,0.78-0.95,1.74-1.42,2.38-1.16,2.58-2.31,0.57-3.23-2.58-1.17-5.17,0.97-5.44,4.5-0.17,2.36,0.02,2.77,1.84,3.84,1.66,0.98,1.97,1.5,1.69,2.9-0.48,2.43,0.53,3.28,2.07,1.74z"/>
<path d="M840.29,443.18c1.44-1.29,2.61-2.76,2.61-3.25s1.24-1.79,2.76-2.88c4.31-3.1,5.26-6.23,3.33-11.04-0.75-1.89-3.11-4.5-8.24-9.12-3.94-3.56-7.57-6.47-8.04-6.47-1.4,0-1.15,5.15,0.27,5.6,2.56,0.82,4.11,1.87,8.14,5.5,4.68,4.23,6.84,8.18,5.66,10.38-1.13,2.13-2.63,1.47-6.76-2.96-2.17-2.33-4.32-4.23-4.76-4.23-0.48,0.01-0.82,0.85-0.82,2.03,0,1.48,0.79,2.89,2.93,5.27,3.49,3.88,3.83,6.21,1.21,8.27-0.94,0.74-1.91,1.35-2.15,1.35-0.23,0-1-1.16-1.7-2.57-1.46-2.96-10.39-12.39-11.73-12.39-0.61,0-0.91,0.76-0.91,2.26,0,1.81,0.36,2.45,1.8,3.19,1.77,0.92,6.15,5.33,10.55,10.65,1.26,1.52,2.5,2.75,2.77,2.76,0.26,0,1.65-1.06,3.08-2.35z"/>
<path d="M849.05,418.11c-0.58-1.87-12.56-14.2-13.79-14.2-0.64,0-0.84,0.76-0.69,2.72,0.17,2.38,0.43,2.79,2.07,3.22,1.02,0.27,4.18,2.75,7.01,5.5,2.82,2.75,5.3,4.84,5.5,4.63,0.2-0.2,0.16-1.04-0.1-1.87z"/>
<path d="m777.5,556.89a1.7806,1.6322,0,1,1,-3.5612,0,1.7806,1.6322,0,1,1,3.5612,0z"/>
<path d="m783.79,554.79a1.7806,1.6322,0,1,1,-3.5612,0,1.7806,1.6322,0,1,1,3.5612,0z"/>
</g>
</svg>
