<svg xmlns="http://www.w3.org/2000/svg" viewBox="0 0 1000 600"><path d="M0 0h1000v600H0z" fill="#d90f19" fill-rule="evenodd"/><path d="M0 60h1000v480H0z" fill="#171696" fill-rule="evenodd"/><circle cx="500" cy="300" r="175" fill="#fff"/><path d="M408.913 366.938a33.7 33.7 0 0 0-.95 5.129c0 .474-.473 3.039.95 3.133 1.045.1 1.33-2.66 1.33-2.66s-.952 3.039.284 3.419c1.71.376 1.9-3.324 1.9-3.324-.19 1.045-1.33 3.7.286 3.985 1.708.288 2.184-3.608 2.184-3.608s-1.424 3.9.284 3.99c1.614.093 1.614-3.8 1.614-3.8s-.856 4.655 1.424 4.275c1.232-.191 1.519-1.806 1.8-2.755.379-1.423 1.234-3.227.19-6.172-.758-2.184-.473-2.753-.473-2.753s-2.66 2-4.748 3.323c-.952.569-6.08-2.184-6.08-2.184zm27.73-4.088c-.474-.287-.379 1.709-.57 2.656-.095.952.192 3.04 3.42 2.851 3.132-.286 6.268-.95 8.26-.476a27.392 27.392 0 0 0 6.554.665 9.618 9.618 0 0 0 3.416-.476c.667-.282 2.091.382 2.754.382s1.709-1.045 1.614-1.71c-.1-1.236-1.232-1.236-2.849-1.329a27.314 27.314 0 0 1-4.651-.855 28.778 28.778 0 0 0-5.318-1.9s-4.558.192-5.505.192-6.554.282-7.125 0z" fill="#ad7d5a" stroke="#000" stroke-miterlimit="3.111" stroke-width=".475"/><path d="M421.355 369.6l-.191-4.368 1.805 1.522.474-3.325c.759-.19 2 1.33 2 1.33l-.191-3.322 2.748 3.035a8.134 8.134 0 0 1 .758-4.084s2.088 1.805 2.088 3.894c0 1.808 1.805-2.564 1.805-2.564l1.519 4.844 1.232-1.806 1.046 3.8 2.277-3.323 1.8 3.9 4.084-.287.477 2.28 1.8-1.994 2.374 1.519a15.581 15.581 0 0 1 3.039-.569c1.045 0 2.279 1.328 2.279 1.328a6.286 6.286 0 0 1 1.52-1.8c.758-.476 1.8.757 2.086 1.517l1.521-2.753a15.686 15.686 0 0 1 2.277 2.753 11.427 11.427 0 0 1 .761-3.039c.476-.758 1.232.287 1.805 1.236l1.233-4.083a3.931 3.931 0 0 1 2.277 1.8c1.046 1.517 1.046-2.282 1.046-2.282a20.874 20.874 0 0 1 2.85 5.129m57.167-.76a10.4 10.4 0 0 1 1.8-3.132s1.994 2.376 1.994 3.134a13.3 13.3 0 0 0 1.614-1.042l1.519 1.516 1.806-1.232 1.709 1.519 3.135-1.329 1.232 1.329 4.841-.568 1.807.757 1.708-2.181 1.615 1.707 2.563-2.561a6.442 6.442 0 0 1 1.519 1.8 9.167 9.167 0 0 0 2.564-1.8s1.993-.76 2.278.471c0 0 1.232-.95 1.138-1.994s1.424-.283 1.9 1.047c0 0 .57-2.09 2.091-2.282a4.726 4.726 0 0 1 .756 3.516 12.971 12.971 0 0 1 3.325-1.994 11.088 11.088 0 0 1-.284 4.844s2.374-3.9 2.849-2.565a10.921 10.921 0 0 1 .19 5.127l2.089-1.329.759 2.566 2.277-.476M473.23 381.7a17.933 17.933 0 0 1 2.753-3.608 10.392 10.392 0 0 1 3.038 4.084 10.411 10.411 0 0 1 1.046-2.847s2.848 1.325 3.322 3.133a8.954 8.954 0 0 1 1.805-2.277c.759-.574 1.52 1.991 1.52 3.511 0 0 1.8-1.9 2.849-2 0 0 1.994.949 2.563 4.275 0 0 1.9-1.8 2.564-1.521 0 0 2.279 1.521 1.708 3.609-.283 1.138 2.28-1.327 5.413-2.088l2.754 2.088s2.563-3.418 3.322-4.56c0 0 2.091.759 2.091 2 0 0 .95-3.612 1.708-3.988.759-.475 1.8 1.138 1.8 2.184 0 0 .285-2.754 1.806-3.325 0 0 1.519 1.043 1.519 2.091 0 0 1.614-3.134 2.849-3.9" fill="none" stroke="#060" stroke-miterlimit="3.111" stroke-width=".475"/><path d="M421.355 369.6l-.191-4.368 1.805 1.522.474-3.325c.759-.193 2 1.33 2 1.33l-.191-3.326L428 364.47a8.143 8.143 0 0 1 .758-4.086s2.088 1.806 2.088 3.895c0 1.808 1.805-2.565 1.805-2.565l1.519 4.844 1.232-1.805 1.046 3.8 2.28-3.324 1.8 3.9 4.083-.287.476 2.277 1.8-1.992 2.374 1.519a15.572 15.572 0 0 1 3.04-.57c1.045 0 2.279 1.332 2.279 1.332a6.327 6.327 0 0 1 1.519-1.811c.757-.471 1.806.762 2.087 1.521l1.521-2.753a15.73 15.73 0 0 1 2.277 2.753 11.361 11.361 0 0 1 .76-3.038c.476-.76 1.232.286 1.8 1.236l1.231-4.084a3.933 3.933 0 0 1 2.279 1.805c1.043 1.518 1.043-2.278 1.043-2.278a20.736 20.736 0 0 1 2.847 5.126s-15.722 5.4-26.81 3.922c-13.052-1.737-23.8-4.206-23.8-4.206m107.786-.474a10.4 10.4 0 0 1 1.806-3.136s1.993 2.377 1.993 3.136a13.2 13.2 0 0 0 1.614-1.045l1.518 1.518 1.806-1.232 1.711 1.517 3.131-1.33 1.234 1.33 4.842-.567 1.8.758 1.709-2.184 1.615 1.708 2.563-2.564a6.486 6.486 0 0 1 1.519 1.806 9.043 9.043 0 0 0 2.564-1.806s1.994-.759 2.278.476c0 0 1.234-.952 1.141-1.994s1.423-.286 1.9 1.043c0 0 .569-2.087 2.087-2.278a4.718 4.718 0 0 1 .759 3.516 12.877 12.877 0 0 1 3.323-2 11.1 11.1 0 0 1-.284 4.846s2.374-3.9 2.85-2.565a10.9 10.9 0 0 1 .19 5.125l2.088-1.328.757 2.565 2.278-.476a122.715 122.715 0 0 1-26.181.854 108.975 108.975 0 0 1-24.616-5.7m-9.388 9.428c.616-.381-4.242 10-16.025 10.547-16.393.767-30.406-7.411-30.406-7.411a18 18 0 0 1 2.753-3.61 10.394 10.394 0 0 1 3.038 4.083 10.438 10.438 0 0 1 1.046-2.847s2.849 1.326 3.322 3.133a8.958 8.958 0 0 1 1.806-2.277c.759-.573 1.52 1.991 1.52 3.514 0 0 1.8-1.9 2.848-2 0 0 2 .951 2.565 4.275 0 0 1.9-1.8 2.563-1.521 0 0 2.279 1.521 1.708 3.609-.284 1.142 2.279-1.326 5.413-2.087l2.753 2.087s2.563-3.416 3.323-4.56c0 0 2.091.763 2.091 2 0 0 .95-3.61 1.708-3.989.759-.474 1.8 1.139 1.8 2.186 0 0 .287-2.755 1.806-3.324 0 0 1.52 1.043 1.52 2.09 0 0 1.61-3.136 2.846-3.9z" fill="#5ac800"/><path d="M531.6 183.263a4.8 4.8 0 0 1-2.184-.855l2.184.852" fill="#6f6"/><path d="M531.6 183.263a4.8 4.8 0 0 1-2.184-.855" fill="none" stroke="#060" stroke-miterlimit="3.111" stroke-width=".475"/><path d="M507.005 202.065l1.236.761 1.328.19s1.425 1.328 3.04 2.564c1.232 1.045 1.232-.189 1.232-.189l.76 3.039h1.044a29.477 29.477 0 0 0-.287 3.036l1.805-1.522 2.086 1.806s1.519-1.327 2.279-1.327a1.192 1.192 0 0 0 1.043-.763h.094c-5.031-2.369-7.215-4.843-5.7-7.407 2.469-4.271 6.552-1.518 7.881-.949l18.422 9.875s1.234-.756.378-1.518a3.792 3.792 0 0 1-1.043-3.416c.282-.76 2.37 2.373 3.417 2.657s3.419.667 3.419.667l-.1-.952s3.038 2.09 3.038 3.136c0 0 2.184-1.141 1.424-1.807s3.323 1.616 3.607 2.851l.856-.955a9.962 9.962 0 0 1 1.332-4.463 4.659 4.659 0 0 1 1.994-1.8s.95-1.615 1.9-1.615a4.759 4.759 0 0 1-1.327-1.423 3.47 3.47 0 0 0-1.615-1.138 14.884 14.884 0 0 0 1.8-1.522 1.486 1.486 0 0 1 .76-.662 11.408 11.408 0 0 0-3.7-2.091s-.093-2.466-1.992-2.656h.854s-1.423-2.657-2.753-2.753a3.491 3.491 0 0 1 1.615-1.043s-1.615-2.09-3.8-1.33l1.428-.569s-1.045-1.141-4.275-.572a2.461 2.461 0 0 0-1.138-2.373s-1.235.094-1.235 1.047a4.266 4.266 0 0 0-2.563-1.047c-1.424 0 .474 1.519.474 1.519s-1.9-1.232-3.038-.856c0 0 .473-2.181-.759-3.322a4.518 4.518 0 0 0-1.806 1.71l-.38-.952s-1.9 2.282-2.277 1.614a8.091 8.091 0 0 1-.569-1.991l-1.139 1.71.189-2.376a6.758 6.758 0 0 0-2.372 3.231 4.209 4.209 0 0 0-1.331 2.372 1.22 1.22 0 0 0-1.992 0c-.855 1.33 0 1.045 0 1.045a2.335 2.335 0 0 1-1.33.665l.192.758a3.475 3.475 0 0 0-2.184-.378l.473 1.138s-2.469.191-2.563-1.8c0 0-2.088-1.045-2.374.094 0 0-1.71 0-1.519.948a2.305 2.305 0 0 0-1.331-1.138c-.949-.286-.19 1.232-.19 1.232a2.858 2.858 0 0 0-1.422-1.71c-1.139-.471-.192 1.046-.192 1.046s-1.517-1.234-.756-2.184c0 0-1.425 1.33-.76 2.566l-.952.663s-.473-.471-.379-.856-1.615 1.14-1.615 1.14-1.045-2.469 0-2.469a2.143 2.143 0 0 0-2.087 2.091 11.376 11.376 0 0 0-2.375.47c-1.237.383.853 1.237.853 1.237a5.123 5.123 0 0 0-2.849.187l.666.855s-.665-.662-2.277-.093c-1.712.474.378.76.378.76a5.493 5.493 0 0 0-2.562 0c-.855.381.282 1.045.282 1.045s-3.131-.95-3.607-.665 1.045 1.806 1.045 1.806-1.9.474-2.278 1.9l1.709.666a2.835 2.835 0 0 0-1.139 1.136c-.378.762 1.139.383 1.139.383s-2.088 1.518-2.088 2.658a2.8 2.8 0 0 0 2.658-.666c1.141-1.136.382-.757.382-.757l.093.757s2.183-.948 2.183-1.518c0-.473-.376.759-.376.759l2.184-1.139 1.424.949" fill="none"/><path d="M505.2 172.433l-.475-2.084a23.176 23.176 0 0 1 4.844.569l.855-1.994a15.112 15.112 0 0 1 3.039 1.8s4.462-1.138 5.792-.662l-.57 2.089a33.5 33.5 0 0 1 5.412.759c1.234.474-.569 1.521-.569 1.521s4.652.568 6.645 1.8c2.091 1.234 2.091 2.281 1.046 2.567l2.562 4.082s-4.083.474-4.844 1.521-1.519-1.047-1.519-1.047l-.758 2.85a23.494 23.494 0 0 1-3.609-2.28s-1.237 1.521-.476 2.28a5.318 5.318 0 0 1-4.655-3.041s-1.994-.283-1.994 1.521c0 0-2.279-2.563-2.849-3.325l-2.565.762a4.018 4.018 0 0 0-1.708-1.332c-1.045-.189-.286 1.332-.286 1.332l-1.521-1.8-1.517-1.807s-1.332 1.8-2.377 1.8c-.952 0-.952-1.236-.761-2.091.284-.758-3.039-.949-3.323 0 0 0-.952-3.8 2.562-4.844l3.612-.95" fill="none"/><path d="M528.843 184.5s.57-1.33 1.615-.57c.95.759 1.232 4.084 1.232 4.084l-1.519.758s.856-1.232-1.328-4.272zm-8.633 29.82s.758-1.043-.285-3.325l1.518-.474a6.317 6.317 0 0 1-.19 3.8h-1.045m26.3-5.229l-3.608 2.186 1.8.855 4.367-2.565-2.567-.476m-48.335 14.15c-.952.76-1.046 2.09-1.615 2.849-.472.758-1.9 1.8-1.993 2.942a6.173 6.173 0 0 0 .189 3.42c.567 1.518 2.943 8.26 1.993 13.391-1.045 5.127-.663 7.311-.282 8.074s1.518 2.846 2.184 2.846c1.518-.189.854-.662 1.422-1.614 1.424-2.469 0-21.558-.665-26.876a26.457 26.457 0 0 0-2.562-8.167c-.19-.478-.57-1.711-.856-2.471-1.423-3.42-3.133-6.361-3.133-13.487 0 0-4.654 1.045-8.641-7.979-2.088-4.558-5.128-4.083-8.735-5.6l1.614-1.048s3.039 1.522 4.558 1.522S482.7 188 482.7 188l1.519-1.521v6.65c0 3.039 4.178 7.218 6.646 8.452 1.521.757 3.515-2.375 3.041-5.413a31.992 31.992 0 0 1 0-7.122l2.088 1.232a3.936 3.936 0 0 0-.569 2.091c.283.76 1.327-.76 2.087-1.522 0 0 .189.192.95.192 0 0-1.519 2.562-2.277 3.893-.758 1.236-.758 6.08-.758 7.885s.664 5.981.664 7.309c0 .952 1.8 4.844 3.23 7.221a201.98 201.98 0 0 1 1.613 3.416c1.139 1.805 1.232 3.04 1.9 4.561a24.84 24.84 0 0 1 1.519 6.744c.191.948.38 4.558.667 6.93.283 2.279 2.184.476 4.46-1.139 2.278-1.708 2.278-5.793 2.278-5.793s1.806-1.521 1.52-.665c-.19.95.952 1.9.952 1.9-1.424 3.227-.569 2.848.854 2.753 1.424-.192 6.36-3.894 6.36-3.894.665-.192 3.609-.192 3.135 0-.57.286-1.33 1.71-1.33 1.71l3.228-.381c-1.138.855-5.413 3.322-6.36 3.894a88.085 88.085 0 0 1-8.355 3.989c-2.184.949-6.459 3.039-6.648 5.223-.095 2.186.285 8.074 0 9.971-.189 1.9-.95 10.353-.95 10.353H494s1.994-7.409-.1-9.4c-1.994-2.091-6.647-8.17-9.685-10.261-3.041-1.992 1.992-.471 1.992-.471V244.7l4.653 5.607s8.07-7.124 0-16.81c-2.564-3.04-5.128-7.692-7.121-8.17a9.21 9.21 0 0 0-6.648 0c-3.608 1.044-12.25 1.044-15.858-4.656l3.041-.474 2.56-1.045s-1.043 3.609 6.173 3.609c7.121 0 8.166 0 7.6-6.647l2.088-1.046 1.521 1.522s-1.045 3.609-.476 5.127c.476 1.519 3.04 2.565 5.034 4.083a3.138 3.138 0 0 0 2.089.761c.854-.095 1.043-.095 2.184-1.235a26.059 26.059 0 0 1 3.04-3.326s.855-1.33 1.045-1.521l1.046 2.755z" fill="#d67c59" stroke="#000" stroke-miterlimit="3.111" stroke-width=".475"/><path d="M499.694 218.209a20.882 20.882 0 0 0 1.805-3.039c1.138-1.9 2.47-3.038 3.987-5.413a10.673 10.673 0 0 0 1.423-7.691l1.329.761.1 3.609a21.906 21.906 0 0 1 2.565-1.9l.757.378a81.25 81.25 0 0 0-11.018 15.386l-.95-2.088zm-49.942-19.749c.76 1.325 1.521 3.894 3.8 5.887l1.519-.475s-3.513-4.083-3.513-5.886l-1.805.473m8.923-2.286s.474 4.844-.759 6.648l1.519-.756s1.043-3.324.758-5.13l-1.519-.758zm50.045-15.288s-.287 6.836 1.046 11.016l1.8-.568a1.613 1.613 0 0 1 1.235-1.807 25.036 25.036 0 0 0 6.931-3.514l-.568-1.518a28.475 28.475 0 0 1-4.083 2.754c-1.234.476-1.993 1.043-3.039.76s-2.277-2-1.52-5.891zm20.122 31.915a44.744 44.744 0 0 0-.189 6.934l1.615.381s-.378-5.794.663-6.269l-2.089-1.045m7.224 3.611s-1.8 3.134-3.892 3.42l3.323-.665a9.767 9.767 0 0 0 2.375-1.993l-1.806-.761" fill="#d67c59" stroke="#000" stroke-miterlimit="3.111" stroke-width=".475"/><path d="M507.012 202.062l1.232.756 1.33.194s1.423 1.329 3.039 2.562c1.232 1.045 1.232-.19 1.232-.19l.758 3.039h1.045a29.767 29.767 0 0 0-.285 3.04l1.8-1.522 2.089 1.805s1.519-1.329 2.278-1.329a1.2 1.2 0 0 0 1.045-.758h.1c-5.034-2.376-7.215-4.844-5.7-7.409 2.47-4.273 6.552-1.521 7.881-.948l18.421 9.874s1.234-.758.379-1.521a3.8 3.8 0 0 1-1.045-3.416c.285-.759 2.373 2.372 3.416 2.658s3.418.667 3.418.667l-.1-.95s3.039 2.088 3.039 3.134c0 0 2.184-1.139 1.423-1.8s3.325 1.616 3.609 2.852l.854-.952a9.911 9.911 0 0 1 1.329-4.465 4.675 4.675 0 0 1 1.994-1.8s.952-1.615 1.9-1.615a4.753 4.753 0 0 1-1.33-1.423 3.445 3.445 0 0 0-1.615-1.141 15.135 15.135 0 0 0 1.806-1.519 1.519 1.519 0 0 1 .76-.667 11.372 11.372 0 0 0-3.7-2.084s-.094-2.472-1.993-2.66h.856s-1.424-2.66-2.754-2.754a3.517 3.517 0 0 1 1.614-1.046s-1.614-2.087-3.8-1.328l1.423-.567s-1.045-1.139-4.271-.57a2.462 2.462 0 0 0-1.139-2.375s-1.234.093-1.234 1.044a4.27 4.27 0 0 0-2.562-1.044c-1.425 0 .474 1.521.474 1.521s-1.9-1.236-3.04-.855c0 0 .475-2.184-.759-3.326a4.561 4.561 0 0 0-1.805 1.71l-.378-.949s-1.9 2.279-2.277 1.614a8.235 8.235 0 0 1-.57-1.992l-1.137 1.71.188-2.377a6.77 6.77 0 0 0-2.373 3.228 4.227 4.227 0 0 0-1.329 2.372 1.223 1.223 0 0 0-1.994 0c-.856 1.33 0 1.048 0 1.048a2.344 2.344 0 0 1-1.33.662l.19.758a3.459 3.459 0 0 0-2.184-.377l.473 1.139s-2.468.19-2.562-1.8c0 0-2.089-1.047-2.374.093l-1.52.951a2.3 2.3 0 0 0-1.33-1.139c-.952-.285-.19 1.232-.19 1.232a2.856 2.856 0 0 0-1.423-1.709c-1.138-.472-.189 1.047-.189 1.047s-1.519-1.236-.758-2.184c0 0-1.423 1.329-.759 2.565l-.95.662s-.476-.473-.382-.854-1.613 1.139-1.613 1.139-1.046-2.468 0-2.468a2.145 2.145 0 0 0-2.088 2.091 11.375 11.375 0 0 0-2.375.471c-1.232.381.856 1.236.856 1.236a5.105 5.105 0 0 0-2.849.19l.665.855s-.665-.665-2.279-.1c-1.71.475.379.76.379.76a5.5 5.5 0 0 0-2.563 0c-.855.381.285 1.045.285 1.045s-3.135-.95-3.609-.662 1.044 1.8 1.044 1.8-1.9.474-2.277 1.9l1.708.662a2.848 2.848 0 0 0-1.139 1.141c-.376.76 1.139.378 1.139.378s-2.087 1.522-2.087 2.661a2.8 2.8 0 0 0 2.659-.665c1.138-1.139.379-.76.379-.76l.1.76s2.184-.948 2.184-1.516c0-.477-.378.755-.378.755l2.184-1.139 1.423.952v0z" fill="#338a00" stroke="#030" stroke-miterlimit="3.111" stroke-width=".475"/><path d="M505.2 172.438l-.475-2.088 4.844.566.853-1.993a15.112 15.112 0 0 1 3.039 1.8s4.461-1.138 5.793-.662l-.57 2.09a33.822 33.822 0 0 1 5.414.756c1.234.476-.569 1.522-.569 1.522s4.652.569 6.648 1.8c2.088 1.232 2.088 2.279 1.045 2.562l2.562 4.084s-4.082.474-4.842 1.517-1.519-1.042-1.519-1.042l-.76 2.848a23.459 23.459 0 0 1-3.607-2.279s-1.232 1.522-.475 2.279l-4.653-3.039s-2-.284-2 1.522c0 0-2.277-2.567-2.847-3.327l-2.566.761a4 4 0 0 0-1.709-1.33c-1.045-.187-.284 1.331-.284 1.331l-1.519-1.805-1.52-1.8s-1.33 1.8-2.375 1.8c-.952 0-.952-1.232-.759-2.088.285-.76-3.039-.949-3.322 0 0 0-.952-3.8 2.562-4.842l3.607-.951zm-18.414 13.011l-1.615 1.521-.95-.476-1.9 2.089-.38-1.142-1.046 1.711-1.613-.57-.759 1.235-1.423-.286a9 9 0 0 1-2 1.426c-.758.192 0-1.708 0-1.708s-1.139 1.9-1.994 1.9c-.757 0-.473-.855-.473-.855s-.474 1.232-1.423 1.423c-.856.1-.476-.948-.476-.948l-1.521 1.139v-.95l-.663-.284s.378-1.71 1.045-2.089-.665-1.517-.665-1.517l.662-.761s-1.9-.475-1.9-.093c0 0 .952-2.563 2.277-3.043l.1-2.847a5.566 5.566 0 0 1 2.563-1.236c1.329-.19-.378-2.184-.378-2.184l3.038-1.8.378-2.184 4.653.376.95-1.992 3.706.948 3.131-1.615 2.278 2.66 3.418.285s-.093 2.373-.093 3.039a38.3 38.3 0 0 1 4.557 1.615 25.674 25.674 0 0 0-.76 2.943 14.329 14.329 0 0 1 3.7-.569s.286 2.66.378 3.322c0 0 4.842 1.522 5.128 2.377a6.274 6.274 0 0 0-1.615 1.517 36.426 36.426 0 0 1 .57 3.894l-.381.57a6.66 6.66 0 0 0-2.563-1.519l-.952 2.088-1.708-1.139-1.044.095s-.855-1.045-1.521-1.045l-.095-.949-1.329.854s-2.09-1.045-2.09-1.71c0-.57.1-1.522.1-1.522l-2.184 1.522a4.4 4.4 0 0 1-.378-1.615c.095-.474-.856 1.141-.856 1.141a9.3 9.3 0 0 1-1.044-2.376l-.286 1.615s-2.278-.756-2.562-2.278v0z" fill="#338a00" stroke="#030" stroke-miterlimit="3.111" stroke-width=".475"/><path d="M456.4 194.754s3.99 2 3.99 2.946c0 0 1.045-2.09.474-2.85l1.521 1.045s.471-1.9-.1-2.469c-.476-.475 3.416-2.086 4.272.476 0 0 2.375-2.469-2.184-4.56 0 0-.377-1.519 2.375-1.138a2.189 2.189 0 0 0-.855-1.33h2.66a9.125 9.125 0 0 0-3.989-1.71c-2.277-.381-.855-.663-.95-1.142a8.142 8.142 0 0 1 0-2.184 3.292 3.292 0 0 0-2.375.095l.381-.476s-2.471-.663-3.417-.093a2.031 2.031 0 0 1-1.235-2.091 2.226 2.226 0 0 0-2.086 1.423 4.7 4.7 0 0 1-3.134 1.522 7.456 7.456 0 0 1-1.708-.762l-1.141 2.66-1.8-.094.569 1.043s-2.753-.756-3.608 0a4.5 4.5 0 0 1 .759 2.754 10.672 10.672 0 0 0-2.659.762c-.569.376.759.662.759.662s-2.468.76-3.04 1.521l.952.756-1.14 1.524.952.186s-1.615.476-2.469.762 1.519.476 1.519.476l-1.139 1.042 1.806.283a28.1 28.1 0 0 0-1.519 5.606s2.184-2.66 2.753-2.849l-1.708 2.849s3.229-1.043 3.514-1.522c.282-.569.568-1.043.568-1.043l.095 1.615a13.837 13.837 0 0 0 1.425-2.375c.1-.663 1.993.665 1.993.665v-.952s1.71.569 2.277.666c.666.094.76-.285.76-.285l1.615-.19-.286 1.328a4.355 4.355 0 0 0 1.422-1.519c.19-.761.759 0 .759 0l.757-3.039h1.613zm-13.011 13.487l1.519 3.134a7.8 7.8 0 0 0-3.038 1.518c.284 5.225-1.043 4.939-1.043 4.939a5.149 5.149 0 0 1-.243 2.712l7.553-4.515.1-.475 8.927-4.18.282.474 2.566-1.423 1.8 4.746-1.8 1.045c.1 1.615 2 4.466 2 4.466l2.374-.568 2.563-.951s.1 1.423.1.952c0-.383 2.752-1.33 2.752-1.33l1.234 1.234c.952-.093 2.658-2.376 2.658-2.376l2 .762a5.053 5.053 0 0 0 .664-1.994c0-.76 2.468-.76 2.468-.76l1.711 1.232 2.184-1.8s.664 1.329 1.519 1.517c.952.1 3.323 1.9 3.323 1.521a16.136 16.136 0 0 1 1.045-2.469l3.988 1.615a22.324 22.324 0 0 0-1.9-3.988s1.9-1.517 1.519-1.9-1.52 0-1.52 0l1.139-2.279H490.3l.472-.568-2.472-1.042 1.329-2.66c-.569-.668-7.121-2-7.121-2l1.519-1.423s-.76-1.139-1.519-1.139-4.749.1-4.938-.281a10.711 10.711 0 0 0-1.711-1.808l-2.469 1.808-1.232-.381-2.184.855s0 1.234-.288.379a15.536 15.536 0 0 0-2.278-2.753c-.378.662-2.942 3.7-2.942 3.7s-.38 1.616-1.235.474c-.952-1.138-2.944-2.372-3.229-1.423-.285 1.046-2.087 1.994-2.47 1.711s-2.468-.095-2.658.474c-.1.663-2.374 2.372-2.374 2.372a7.711 7.711 0 0 0-3.706-.281 5.564 5.564 0 0 0-.756 1.9l-4.652 1.233h0v0zm42.922 38.459v-2l2.277 1.519 1.33-1.521 1.708 1.708 1.046-1.708v2.756l2.563-2.277 1.518.662v-2.184s1.806-3.039 1.045-3.607l1.52-.474a41.233 41.233 0 0 0-3.318-3.033 3.4 3.4 0 0 0-1.8-.568 15.272 15.272 0 0 0-3.323-2.564 1.74 1.74 0 0 0-2 .567 3.631 3.631 0 0 0-2.087-1.8c-1.232-.283-1.232 1.046-1.232 1.046a7.136 7.136 0 0 0-2.184-1.426c-1.234-.566-.38 1.139-.38 1.139l-4.368-1.326.568 1.326-4.081-1.04.472 1.519-2.847-.478-.19 1.239-4.084.757.76 1.329-2.564-1.046v1.806l-2.849 1.043 1.045.952s-3.8 1.805-4.559 2.374c-.758.473 1.521 1.517 1.521 1.517l-4.084-.57 1.52 1.331-3.609 3.326 2.563 1.8-1.519 2.278 3.8.757L462 254.4l3.133-.57v2.847l4.558-3.606s3.325 2.943 3.609 2.089a24.631 24.631 0 0 0 .189-3.323h1.611v-2.563l1.232 1.044 2.09-3.041 2.752 3.8 2.088-4.842 3.039.475zm18.611-11.489l-.475-4.368-1.327 1.33.566-4.084-2.086-.381.757-3.987-1.518-.761.377-1.9 1.522-1.14 2.753-2.66 6.359.1.759-2.091 4.559.761c.758.855 3.131-1.71 3.131-1.71h.952l1.046 1.991s3.322-.476 4.841.57l-1.805 2.468 3.323.284 2.277.476 2.376-.76 3.039-.192.759 1.234h2.849l-.949 1.139 3.7 1.708-.758.762a13.241 13.241 0 0 0 3.608.758h.758s.759 1.8-.286 2.562c0 0 1.045 2.565 3.322 3.041s2.279.475 2.564 1.043a2.485 2.485 0 0 1-2.563 3.041v2.566a13.123 13.123 0 0 0-2.277 2.561l-1.522-1.045a5.562 5.562 0 0 0-1.325 2.566s-3.325-4.371-4.56-4.561c-1.329-.284-1.045 2.47-1.045 2.47l-3.607-3.039-.476 2.088-3.038-2.562-1.8 1.23-3.23-3.323-3.132.383 1.232-1.616h-3.8l-.759-3.323-.569 2.753-2.277-1.518-2.944 3.228a5.267 5.267 0 0 1-.855-1.9c-.473-1.52-1.8 1.8-1.8 1.8l-1.045-2.372-1.232 2.372a7.675 7.675 0 0 0-2.091-2.372c-.949-.475-1.992 2.846-2.276 4.368zm.569 9.968l.189-1.517 5.412-2.091 4.559-1.708 2.278-1.046 1.045 1.805 1.329-2.562 2.088 2.657 1.141-1.425 1.8 1.329h1.52l.284 2s3.8.283 4.082-.474.759 2.562.759 2.562l3.608.474.759 4.084s1.8 3.8 1.234 5.32c-.476 1.614-2-2-2-2a26.577 26.577 0 0 1-.569 3.609c-.189.757-4.842-.76-4.842-.76l-1.994 3.8s-2.089-3.039-3.038-3.039c-1.046 0-1.046 3.039-1.046 3.039s-3.038-3.609-4.368-5.13c-1.235-1.517-1.521 1.521-1.521 1.521s-1.993-3.325-1.993-4.274c0-1.043-1.805-2.091-1.805-2.091s-3.136 3.611-5.415 4.562c0 0 .285-2.281-.474-3.041s-3.038 1.519-3.038 1.519a9.363 9.363 0 0 1 0-7.124z" fill="#338a00" stroke="#030" stroke-miterlimit="3.111" stroke-width=".475"/><path d="M530.561 188.575l.476 1.9a11.976 11.976 0 0 1 2.848-.285 9.685 9.685 0 0 1-.664 2.184s2.277-.379 3.322.284l-.474 1.139 2.66 1.141-2.469 1.993s3.985 1.423 4.747 2.565c0 0-2.563 1.8-2.943 1.71-.38-.192-.1.756.569 1.611l-2.184-.093a8.993 8.993 0 0 1 .758 2.753c-.1.76-3.609.568-3.609.568m13.67-5.121s.664-3.8-.378-4.749c0 0 2.468 2.091 4.082 2.184 1.71.1-.1-3.134-.1-3.134a24.331 24.331 0 0 0 3.514 1.519c1.138.19-.856-2.375-.856-2.375s.664-1.236 2.563-.1m-44.147-15.1a2.123 2.123 0 0 0-.288-1.329c-2.277-3.134 2.375 2.376 3.323 2.565m4.366 0a6.184 6.184 0 0 0 2.279 1.138c.759 0-.474-3.039-.855-3.417s2.754 1.232 3.894 1.424c1.139.284 1.328-1.9 1.328-1.9a22.473 22.473 0 0 1 4.275 1.045m-24.408-.663s-.284-1.993-.378-2.848m-23.543 12.349c-.191-.381.952-2.09.476-2.849a3.146 3.146 0 0 0 1.328.665c.569.094.377-2.185.377-2.185l.76.284s2-.952 1.615-1.711 1.329 1.138 1.329 1.138 1.14-1.138 1.14-1.612 1.328 1.136 1.328 1.136 1.423-.285 1.423-1.138 1.8.283 1.8.283a3.286 3.286 0 0 0 .666-1.709m-19.181 9.5s.853-1.993-.1-3.323m-22.964 9.588c.1-.949.569-3.513.1-3.894s.952.381 2.089.666m9.014-.375c-1.138-1.141-1.8-1.71-3.606-1.71m-15.667 8.066a5.959 5.959 0 0 0 .475-3.228m24.306 50.334l1.233-2.565 1.52 3.608 1.043-2.279.38.76 2.277-2.469 2.47 3.7m39.6-16.047l1.615-3.228 2.184 1.139 1.045-3.133 2.278 1.424 1.329-2.944 2.563.663.189-2.088a8.963 8.963 0 0 1 2.279 1.8c.567.762 0-2.56 0-2.56l2.087.948a1.346 1.346 0 0 0-.569-2.376" fill="none" stroke="#004b00" stroke-miterlimit="3.111" stroke-width=".475"/><path d="M523.533 226.1l2.277 3.325 1.9-2.184 1.71 3.7 2.184-1.329 3.132 1.8 1.424-1.139 3.419 2.469L541 229.8l3.038.949 1.993-3.416M464 218.405s1.33-2.282.854-3.326c-.569-1.045 2.754 1.8 2.754 1.8s.757-2.28.284-3.323c-.57-1.045 3.8 3.04 3.8 3.04s.761-3.514 0-4.275 4.179 1.045 4.179 1.045 2-.568 1.235-1.614 3.323 1.518 3.323 1.518.948-2.561 0-3.514c-1.046-1.042 3.038 1.236 3.038 1.236l-1.519-2.756 3.322.19-.283-3.039m29.434 43.869l2.184-1.045 1.9 1.9 2.088-3.323 2.563 2.467.38-2.467 2.753 1.141.57-1.523 3.038 1.618.284-2.28 1.518.476.285-1.522" fill="none" stroke="#004b00" stroke-miterlimit="3.111" stroke-width=".475"/><path d="M464.751 357.343a67.889 67.889 0 0 1-5.794-12.629l41.116-36.185 41.118 36.087a62.828 62.828 0 0 1-5.983 12.918l-.327.526q-1.548-.59-3.092-1.191a5.454 5.454 0 0 1-2.371 1.328 3.529 3.529 0 0 1-2.66-1.232 5.292 5.292 0 0 1-3.607 1.232 3.564 3.564 0 0 1-2.565-1.329s-1.9 1.519-3.23 1.234a4.84 4.84 0 0 1-2.087-1.143 3.161 3.161 0 0 1-2.754 1.143 10.382 10.382 0 0 1-2.943-1.143 18.6 18.6 0 0 1-3.892 1.234c-1.518.288-2.849-1.33-2.849-1.33a9.225 9.225 0 0 1-2.753 1.33 18.464 18.464 0 0 1-3.608-1.33 22.386 22.386 0 0 1-3.988.951 18.855 18.855 0 0 1-3.892-1.232 22.747 22.747 0 0 1-3.987.756 11.122 11.122 0 0 1-3.23-.756s-2.275 1.044-3.512.756a12.944 12.944 0 0 1-2.375-.756 9.317 9.317 0 0 1-4.083.756 12.812 12.812 0 0 1-3.323-1.326s-.285.76-3.229 1.326h-.1" fill="#9dc9e2"/><path d="M500.078 266.93v41.6l-41.117 36.37a81.86 81.86 0 0 1-4.271-26.4v-51.57h45.388" fill="#fff" stroke="#000" stroke-miterlimit="3.111" stroke-width=".665"/><path d="M500.078 266.93v41.6L541.1 344.9a81.849 81.849 0 0 0 4.273-26.4v-51.57h-45.295" fill="#ffe682" stroke="#000" stroke-miterlimit="3.111" stroke-width=".665"/><path d="M473.552 348.7c3.091 1.675 2.044 1.148 8.452 3.416 5.222 1.808 11.3 2.66 20.128 2.66 7.726 0 12.076-.613 14.523-1.288 2.538-.728 3.139-1.753 3.139-1.753l-6.361 6.459s-25.568 1.379-30.2-1.614c-1.8-.952-5.7-4.084-9.684-7.882z" fill="#d67c59" stroke="#000" stroke-miterlimit="3.111" stroke-width=".475"/><path d="M511.063 336.641s8.167 4.652 0 13.58m-36.746-1.045l11.775-11.21-1.33 15.007m6.169 1.126V329.23m20.132 25.07v-26.591M500.9 354.776v-28.584" fill="none" stroke="#000" stroke-linecap="round" stroke-miterlimit="3.111" stroke-width=".475"/><path d="M490.931 330.565l-5.319 1.71 5.319.57v-2.281m9.968-3.9l-5.6 2.09 5.6.19zm10.164 1.521l-5.6 2.091 5.6.283v-2.374zm3.323 12.068c-.285-1.14 3.324-1.043 3.324-1.043s1.045 3.8 0 6.169l-3.038-.569a13.984 13.984 0 0 0-.285-4.558z" fill="#d90f19" stroke="#000" stroke-linejoin="round" stroke-width=".475"/><path d="M476.119 347.654l9.971-9.688-.477 5.8s-5.125 3.323-5.125 5.7l-4.368-1.8m5.31 2a9.011 9.011 0 0 1 3.892-4.558l-.284 6.077-3.607-1.521zm14.345-16.811a26.792 26.792 0 0 1 7.121 0s-.476 4.084 0 4.843c0 0-5.6-1.33-7.88.757 0 0-.76-3.8.76-5.6zm-8.643 1.046a26.758 26.758 0 0 1 7.122 0s-.759 4.561-.286 5.32c0 0-4.559-2.567-6.837-.479 0 0-1.52-3.131 0-4.841z" fill="#fff" stroke="#000" stroke-linejoin="round" stroke-width=".475"/><path d="M486.843 339.2a32.118 32.118 0 0 1 7.121 0s-.474 4.084 0 4.844c0 0-5.317-1.234-7.6.76.003-.004-1.042-3.804.479-5.604zm8.167-.756s5.888-.756 8.924-.282c0 0-1.234 3.323.287 5.6 0 0-6.362-1.71-8.736.283 0 0-1.994-3.8-.476-5.6zm-8.634 6.366l7.879.569s-.757 5.793-.284 6.552c0 0-6.36-1.521-7.6.568 0 0-2.088-5.316 0-7.691h0zm8.923 0s6.834-.476 9.97 0c0 0-1.807 4.371.19 8.166 0 0-8.927-2.56-10.164-.476 0 0-2.084-5.316 0-7.69zm10.444-11.966a26.8 26.8 0 0 1 7.122 0s-.474 4.084 0 4.843c0 0-5.6-1.33-7.879.757-.003-.002-.763-3.8.757-5.602zm0 5.6a32.121 32.121 0 0 1 7.122 0s-.474 4.084 0 4.844c0 0-5.6-1.234-7.879.76 0 0-.763-3.8.757-5.6zm.476 5.89a27.487 27.487 0 0 1 7.215 0s-1.045 6.362-.569 7.121c0 0-4.649-2.184-6.836-.281 0 0-1.327-5.033.191-6.84z" fill="#fff" stroke="#000" stroke-linecap="round" stroke-linejoin="round" stroke-width=".475"/><path d="M514.666 344.808s1.327 4.841 3.037 5.413l-2.277 2.753s-2.754-1.994-3.04-4.27a12.452 12.452 0 0 0 2.279-3.895z" fill="#fff" stroke="#000" stroke-miterlimit="3.111" stroke-width=".475"/><path d="M535.021 357.912c-6.551 10.923-17.281 21.177-34.942 27.54-17.948-6.456-28.866-17.187-35.324-28.016l.1-.095c2.943-.572 3.23-1.329 3.23-1.329a12.86 12.86 0 0 0 3.322 1.33 9.375 9.375 0 0 0 4.083-.76 12.908 12.908 0 0 0 2.374.761c1.232.283 3.512-.76 3.512-.76a11.062 11.062 0 0 0 3.228.761 22.638 22.638 0 0 0 3.988-.76 18.91 18.91 0 0 0 3.893 1.232 22.37 22.37 0 0 0 3.986-.949 18.478 18.478 0 0 0 3.609 1.33 9.256 9.256 0 0 0 2.754-1.331s1.327 1.614 2.846 1.331a18.512 18.512 0 0 0 3.894-1.234 10.208 10.208 0 0 0 2.943 1.139 3.163 3.163 0 0 0 2.754-1.139 4.779 4.779 0 0 0 2.088 1.139c1.329.286 3.228-1.234 3.228-1.234a3.565 3.565 0 0 0 2.564 1.329 5.3 5.3 0 0 0 3.609-1.232 3.516 3.516 0 0 0 2.657 1.232 5.449 5.449 0 0 0 2.372-1.329s2.374.758 3.228 1.045" fill="#006ac8"/><path d="M533.407 360.385c-1.423.1-1.614-.855-1.614-.855s-1.895 1.617-3.7 1.331a4.2 4.2 0 0 1-2.753-1.518s-1.994 1.615-3.324 1.328a4.475 4.475 0 0 1-2.278-1.141 3.4 3.4 0 0 1-2.848 1.142 7.924 7.924 0 0 1-3.04-1.141 26.822 26.822 0 0 1-4.178 1.332c-1.615.286-2.944-1.519-2.944-1.519a34.858 34.858 0 0 1-4.461 1.235 15.942 15.942 0 0 1-3.515-1.236 7.706 7.706 0 0 1-2.847 1.14 17.978 17.978 0 0 1-4.178-1.33 23.981 23.981 0 0 1-4.18.761 12.039 12.039 0 0 1-3.323-.762s-2.469 1.046-3.8.763a13 13 0 0 1-2.374-.763 10.494 10.494 0 0 1-4.272.763 13.98 13.98 0 0 1-3.514-1.33s-.284.663-3.416 1.33h-.1" fill="none" stroke="#000" stroke-miterlimit="3.111" stroke-width=".475"/><path d="M474.439 364.259s-.265.62-2.742 1.166c-.053 0-.672.146-.672.146.229-.041.415-.074.614-.116q-.346.128-.7.233a43.44 43.44 0 0 0 11.361 10.661c4.372 2.946 9.4 6.461 17.948 8.97 8.993-3.511 11.392-4.847 17.27-8.783 5.877-4.293 8.939-6.967 12.217-11.371-2.566 1.457-2.2 1.474-3.528 1.283a5.192 5.192 0 0 1-2.305-1.254 3.6 3.6 0 0 1-2.828 1.255 8.813 8.813 0 0 1-3.033-1.254 8.118 8.118 0 0 1-4.2 1.341 5.126 5.126 0 0 1-2.947-1.517 35.172 35.172 0 0 1-4.463 1.225 15.832 15.832 0 0 1-3.5-1.225 7.8 7.8 0 0 1-2.858 1.137 17.794 17.794 0 0 1-4.172-1.342 23.862 23.862 0 0 1-4.171.759 12.115 12.115 0 0 1-3.324-.757s-2.369 1.043-3.792.758a13.233 13.233 0 0 1-2.393-.758 10.42 10.42 0 0 1-4.258.759 14.3 14.3 0 0 1-3.528-1.312z" fill="#006ac8" stroke="#000" stroke-miterlimit="3.111" stroke-width=".569"/><path d="M500.254 385.324c9.29-3.866 10.967-4.919 16.587-8.353-.98.026-3.83-.895-2.8-1.188a4.131 4.131 0 0 1-2.281 1.029 18.544 18.544 0 0 1-4.084-1.325 24.033 24.033 0 0 1-4.176.756 12.128 12.128 0 0 1-3.324-.756s-2.469 1.042-3.8.756a12.86 12.86 0 0 1-2.375-.756s-2.753 1.042-4.272.756a13.835 13.835 0 0 1-3.515-1.328 13.908 13.908 0 0 1-3.8 1.381 52.043 52.043 0 0 0 17.842 9.028z" fill="#006ac8" stroke="#000" stroke-miterlimit="3.111" stroke-width=".569"/><path d="M461.746 270.469c-.658-.017-1.448.37-2.662 1.471-1.918 1.731-2.608 3.515-.092 5.671l12.465 11.334c1.82 1.77 4.365 2.094 5.433 3.011l12.669 12.956c1.6 1.379 2.361 2.357 1.458 3.535-1 1.939.071 2.2.3 2.259 1.734.39.792-.695 1.015-1.256a5.1 5.1 0 0 1 2.515-2.7c.6-.233.926-.11 1.076.21.546.219 1.124-.6.319-1.461-.693-.965-1.776.6-3 .234a9.791 9.791 0 0 1-2.347-1.959c-1.076-1.2-2.462-2.271-3.259-3.3a130.766 130.766 0 0 0-8.857-9.99c-1.391-.908-1.075-4.342-2.07-5.407-.084-.744-9.67-10.231-13.09-13.662a3.5 3.5 0 0 0-1.873-.946z" fill="#d67c59" stroke="#000" stroke-miterlimit="6.667" stroke-width=".475"/><path d="M462.352 275.572l13.028 12.873" fill="none" stroke="#000" stroke-miterlimit="3.111" stroke-width=".467"/><path d="M479.992 281.452c.2-.387.642-1.374 1.108-2.451.184-.426 3.689-6.015 5.436-6.179 0 0 10.9 7.929 10.907 8.033.037.428-4.728 7.554-5.143 7.013 0 0-12.768-5.361-12.307-6.416z" fill="#e8e8e6" stroke="#000" stroke-miterlimit="3.111" stroke-width=".533"/><path d="M486.936 283.319c-1.493-1.159-3.959-2.289-5.95-3.617l-.9 1.867c.72.806 9.789 5.021 11.278 5.833a34.718 34.718 0 0 0-4.433-4.083z" fill="#ccb8c8"/><path d="M480.981 279.464c1.166.817 3.383 2.217 4.783 3.034 2.683 1.866 4.382 3.923 6.3 5.016" fill="none" stroke="#000" stroke-miterlimit="3.111" stroke-width=".373"/><path d="M458.9 313.429l24.814-30.71a2.171 2.171 0 0 1 3.079 1.929l-23.5 32.03a6.24 6.24 0 0 1-4.391-3.249zm83.178.336a5.493 5.493 0 0 1-2.308.84c-1.613-1.9-2.945-3.894-5.223-6.362l-24.785-30.484 2.563-2.468 22.314 26.115A114.466 114.466 0 0 1 542.9 311s.325 1.9-.825 2.772z" fill="#d67c59" stroke="#000" stroke-miterlimit="3.111" stroke-width=".475"/><path d="M518.213 281.648l-3.99-4.748s-3.038.378-3.606 1.994c0 0-2.184 3.609-7.977 3.99a17.427 17.427 0 0 0 8.36 10.35s2.469-6.934 4.842-8.168c0 0 2.468-1.8 2.375-3.416z" fill="#e8e8e6" stroke="#000" stroke-miterlimit="3.111" stroke-width=".475"/><path d="M508.244 302.733c-.569-.192-1.138 0-2 .476-.757.476-1.708.283-1.614-.668.1-.854 0-.757 1.045-1.421a6.076 6.076 0 0 1 4.749-.477l-2.185 2.091m27.061-26.975a2.1 2.1 0 0 1 .285-2.181c.664-.76.664-2.091-.952-1.426s-2.184 2.47-.853 5.224l1.517-1.618z" fill="#d67c59" stroke="#000" stroke-miterlimit="3.111" stroke-width=".475"/><path d="M507.674 303.3l28.108-27.921 6.93 7.408s-1.423-.572-1.994-.193c-.475.381.569 1.805.569 1.805s-1.328-.474-1.9-.1c-.665.378 0 1.994 0 1.994s-1.138-.854-1.71-.476c-.473.382 0 2.184 0 2.184s-1.518-.473-1.9-.095 0 2 0 2-1.522-.76-2.279 0 .379 1.805.379 1.805-1.9-.761-2.659.378a1.886 1.886 0 0 0 .095 2.184s-1.518-.758-1.9-.381 0 2.184 0 2.184-1.328-.759-2.183.193a1.345 1.345 0 0 0 .095 1.9s-1.232-.762-1.9-.383.19 2.185.19 2.185-1.232-.856-2.089 0a1.41 1.41 0 0 0 0 1.9 1.477 1.477 0 1 0-2.088 2.091s-1.518-.759-2.088 0c-.664.756.189 1.805.189 1.805s-1.138-.665-1.9-.289 0 2.091 0 2.091-1.139-1.235-1.613-.568c-.569.663.095 2.278.095 2.278s-1.045-1.235-1.615-.568c-.664.569.379 1.994.379 1.994s-1.9-.854-1.423-.854z" fill="#e8e8e6" stroke="#000" stroke-miterlimit="3.111" stroke-width=".475"/><path d="M534.163 277.663l-2.184 2.184.475 7.5s.475-2.184 1.138-.667c0 0 .191-1.8.666-1.517-.383-.193-.1-7.5-.094-7.5m-4.079 4.08l-1.615 1.518.569 7.5s.476-2.849 1.139-.569c0 0-.1-1.9-.1-2.565v-5.888m-17 16.819l-1.52 1.612.381 4.56s.474-2.943 1.139-.666c0 0-.191-1.895-.191-2.563 0 .476.191-2.945.191-2.945" fill="#4d4d4d"/><path d="M511.185 279.754c1.045 1.045 3.989 4.841 3.989 4.841m-2.655-2.751a7.755 7.755 0 0 1-1.422 3.04m1.889-2.666a4.42 4.42 0 0 1-1.422 2.85m1.9-2.271a3.232 3.232 0 0 1-.758 1.614m1.047-1.045c0 .474-.283.569-.378.855m-3.131-2.666a23.048 23.048 0 0 1-4.653 2.753m3.887-1.708a13.869 13.869 0 0 1-3.038 2.091m2.758-.952a13.75 13.75 0 0 1-2.277 1.615m1.708-.476a5.434 5.434 0 0 1-1.423 1.141" fill="none" stroke="#4d4d4d" stroke-miterlimit="3.111" stroke-width=".855"/><path d="M492.144 285.923a27.239 27.239 0 0 1 1.556-2.723 9.119 9.119 0 0 1 1.751-1.983" fill="none" stroke="#4d4d4d" stroke-linecap="square" stroke-miterlimit="3.111" stroke-width=".855"/><path d="M400.471 362.476c1.424.663 0-4.654.473-6.648.57-2.089 4.653 5.128 6.65 6.08 2.089 1.043 14.812-5.035 14.812-5.035l3.039-5.7 1.614 4.652s3.513-4.084 4.558-5.6 0 3.04-1.045 4.559 3.038 2.09 2.562 5.128 4.083-2.089 4.083-2.089l11.774 1.046s1.991-7.125 5.126-11.208l.95 4.561 4.842-4.937c5.413 14.247 16.809 29.727 40.166 38.178 21.934-7.977 33.235-22.13 39.12-35.617l6.552 6.748a59.583 59.583 0 0 0 6.078-2.09c1.043-.476 12.058 3.895 12.058 3.895a16.629 16.629 0 0 1 3.04 1.521c1.043.758.283-3.326.283-3.326s5.6 1.044 5.127 4.084c0 0 1.235-2.849 2.281-3.323s3.512 2.564 4.083 3.607c.475.952 12.535 2.47 14.243 3.514a5.562 5.562 0 0 1 1.33 2.565s2.564-.286 4.559-.286a2.847 2.847 0 0 0-1.519 2.374 3.771 3.771 0 0 1-2.279 3.513c-1.52.761 0 1.328 1.994 1.522 2.089.282 0 2.846-4.083 4.369 0 0-.951 2.278.759 3.036 0 0-3.515.288-4.083-.758a11.581 11.581 0 0 0-1.232 3.609s-3.8-1.237-4.844-1.805c0 0-1.52 1.517-.476 2.277 0 0-6.929-.758-8.26-3.322 0 0-2.47.758-2 1.614 0 0-4.842-3.322-6.361-3.322l-1.045 1.7s-3.323-1.993-4.368-1.993c-.952 0-.19 1.519-.19 1.519l-4.651-2.85-1.8 2.85a53.522 53.522 0 0 1-4.843-2.564c-.952-.759-1.232 1.519-1.993 1.8 0 0-1.52-2.086-3.609-1.8 0 0-.758 2.562-.474 3.323 0 0-5.887-1.233-6.93-1.521s-.475 1.235 0 2.281c0 0-4.369-1.234-5.319-2l-.285 2s-3.605-.286-4.365-1.045L524.3 384.7h-3.324l-.758 2.753s-5.741-2.111-6.269-.669a6.048 6.048 0 0 0-.378 2.473l-4.716-.316-1.447 2.543s-6.37-2.437-7.889-1.488a34.747 34.747 0 0 1-4.343 2.388 10.236 10.236 0 0 0-4.583-2.841c-1.674-.263-5.317 1.991-6.648 1.232 0 0 0-1.806-1.042-2.28a2.835 2.835 0 0 0-3.516.761s-.756-1.046-2.087-3.04c-1.233-2.091-3.039.19-3.039.19l-.285-2.471-3.514-.286a3.045 3.045 0 0 1-2.563-2.09s-5.412.569-6.171.287l1.328-1.236s-7.405 1.522-8.923.952c-1.614-.474 1.708-2.565 1.708-2.565S449 377.29 447.671 377c-1.232-.285-8.642 1.23-9.687 1.23s-1.519-1.71-1.519-1.71a12.29 12.29 0 0 1-3.325 2s-1.234-3.038-.473-3.324c0 0-4.842 1.33-5.128 2.567 0 0-1.232-2-1.045-2.85 0 0-2.278 3.609-3.323 4.368s-.19-1.805-.19-1.805-2.847 3.608-3.892 3.894v-2.565s-8.167 4.368-10.445 3.8c0 0 0-1.809.759-2.281l-5.128-.285c-1.232-.188-2.754-.756-4.082-1.044-1.232-.191 1.805-1.518 3.894-.95 0 0-5.7-2.089-7.408-1.045 0 0-.76-2.088 2.277-2.85 0 0-3.893-3.8-6.173-3.513 0 0 2.567-1.518 4.655-.761 0 0-2.375-6.455-3.894-7.214 0 0 5.413-.95 6.932-.187z" fill="#358b03" stroke="#060" stroke-miterlimit="3.111" stroke-width=".475"/><path d="M392.585 251.072l69.127-35.8c.331-1.851-.719-3.3-1.8-4.751-19.768 9.7-37.759 21.461-59.726 28.589-1.234.476-12.154 5.032-17.757 11.777a7.444 7.444 0 0 0-1.908 4.409s.136 3.015.77 3.829a2.579 2.579 0 0 0 1.2 1.49 1.681 1.681 0 0 0 1.088.157c.5.093 1.318.088 2.458-1.909a51.027 51.027 0 0 1 6.553-7.789z" fill="#d67c59" stroke="#000" stroke-miterlimit="3.111" stroke-width=".475"/><path d="M448.231 215.652l8.924-4.275s3.04 2.279 2.753 4.844c0 0 .666 5.887 7.979 9.97a25.2 25.2 0 0 1-17 8.358s1.241-10.152-1.036-13.1c0 0-.381.364-.215-.14.323-.988-.22-4.375-1.6-5.121-.171-.094.108-.37.2-.54z" fill="#e8e8e6" stroke="#000" stroke-miterlimit="3.111" stroke-width=".475"/><path d="M458.674 216.884c-1.9.76-8.07 3.987-8.07 3.987m5.131-2.092c-.1.949-.666 3.229 0 4.843m-.859-4.554a7.564 7.564 0 0 0 .1 4.464m-1.039-3.988a3.961 3.961 0 0 0 0 2.566m-.765-2a2.663 2.663 0 0 0 0 1.232m5.6-1.521a36.593 36.593 0 0 0 4.368 6.362m-3.985-4.561a18.84 18.84 0 0 0 2.753 4.561m-2.94-2.946a16.5 16.5 0 0 0 1.9 3.609m-1.9-1.7a6.125 6.125 0 0 0 1.139 2.377" fill="none" stroke="#4d4b4d" stroke-miterlimit="3.111" stroke-width=".76"/><path d="M520.884 198.923c-1.264.152-2.4 1.015-3.685 3.2-2.24 4.284-1.695 6.621 5.071 9.554h0l25.39 12.435c5.089 2.474 6.921.184 9.792 1.433l50.114 25.527c4.3 1.879 6.706 2.48 6.087 4.7-.084 2.867.929 3.261 1.626 3.4 1.08.452 1.916.707 2.144-.541.165-.248-.136-.649-.456-1.175a3.073 3.073 0 0 1-.576-1.921 3.123 3.123 0 0 1 .391-1.484 16.8 16.8 0 0 1 1.507-1.732 1.849 1.849 0 0 1 1.172-.69 1.758 1.758 0 0 1 1.057.286c.463.27.866.584 1.28.876 1.67-.135.182-2.506-.977-3.408-2.521-1.182-2.809 1.5-5.465 1.217a41.7 41.7 0 0 1-6.459-3.037c-3.148-1.714-7.545-3.748-8.545-4.863-3.2-.6-27.283-14.148-40.927-20.948-1.464-1.224-2.262-5.755-5.137-7.272-.845-1.222-19.315-9.656-28.975-14.485-1.78-.665-3.169-1.223-4.433-1.071z" fill="#d67c59" stroke="#000" stroke-miterlimit="6.667" stroke-width=".475"/><path d="M439.681 221.625c-.19.57-.665.19-.665.381-.378 1.993-.284 3.036-.758 4.177a7.591 7.591 0 0 1-2.944 2.469c-1.9.569-4.176 2.85-7.878.759a2.462 2.462 0 0 1-.569-.474 5.091 5.091 0 0 1-2.753 5.791c-1.33.665-14.719 7.694-14.719 7.694a8.671 8.671 0 0 0-.476 6.078c.1.569.285 1.044-.285 1.424a11.957 11.957 0 0 0-3.418 5.6s-2.849-1.236-2.849-3.039 1.139-2.753 1.424-4.086c.284-1.232 1.043-4.368.665-5.318-.379-1.045-2.089-1.424-2.754-1.8-.569-.383-1.33.378-1.234 1.232.1.952.759.759 1.52.952a7.855 7.855 0 0 0-.759 3.131l-8.64 4.464s1.139 1.518 1.519 2.184 1.232 9.5 3.8 13.677 3.418 3.039 3.988 3.609c.474.474 1.232 1.232 1.9 1.805.665.476 3.607.758 4.179-.854a8.319 8.319 0 0 1 2.943-3.9c1.805-1.421 5.507-5.031 5.507-6.647 0 0 2.184 6.268 1.9 11.492a102.742 102.742 0 0 0 15.1 1.8c7.124.1 10.731-1.422 10.731-1.422s.95-5.983.567-7.123a30.738 30.738 0 0 0 2 5.223c.95 1.611 1.993 4.935 4.081 5.126a4.5 4.5 0 0 0 3.893-2.846v-6.27h8.071c0-.093 3.609 1.33 4.748 1.139 1.139-.095 1.8-1.139.759-1.519l-.378-.283a6.607 6.607 0 0 1 2.373.663h3.986c.1-.1 0-.383-.1-.476-.284-1.139-2.374-2.091-3.892-2.754a20.218 20.218 0 0 0-4.368-1.328 18.466 18.466 0 0 0-5.793.381 19.72 19.72 0 0 0-5.413 1.232c-.476.286-.952.38-.759-.854.286-1.331.19-7.313-1.232-9.878a7 7 0 0 1-.76-4.842 79.117 79.117 0 0 0 0-8.265c-.285-1.518-2.374-3.609-6.169-4.083-3.609-.476-6.649-3.42-6.838-5.793a35.752 35.752 0 0 1 .76-8.64" fill="#ad7c59" fill-opacity=".99" stroke="#000" stroke-miterlimit="3.733" stroke-width=".475"/><path d="M423.543 210.9a33.4 33.4 0 0 0-.569 8.64 19.856 19.856 0 0 0 1.9 6.268 7.664 7.664 0 0 0 2.563 3.609c3.326 2.184 6.459-.19 8.263-.95a5.988 5.988 0 0 0 2.564-2.279c.474-1.139.283-1.993.758-4.177a2.466 2.466 0 0 0 .665-.381 17.239 17.239 0 0 0 1.138-2.85c.476-.951-.567-1.994-1.708-1.8a9.194 9.194 0 0 0 .377-5.511c-.188-.568.476-2.086-.567-1.71-4.275 1.71-9.306 1.331-13.864 1.331-.379 0-.665-.761-1.232-.663-.1 0-.191.283-.287.472" fill="#b68a6a" stroke="#000" stroke-miterlimit="3.733" stroke-width=".475"/><path d="M423.161 212.507c-.474-.379-.57-1.232 0-3.039.664-1.8 0-1.9 1.045-2.942s.759-1.522 1.423-1.8c.663-.193 2.659-.193 3.323-.475a8.463 8.463 0 0 1 2.752-.855 10.249 10.249 0 0 1 5.6.568c1.426.758 2.376 2.66 3.23 3.323.952.662 1.521 3.418 1.332 7.41-.287 3.986-1.046 3.227-1.046 3.227s-1.14-1.9-2.088-.287a19.754 19.754 0 0 1 .189-2.661c.095-1.136-.569-3.226.095-4.651 0 0-5.413 1.71-8.167 1.614-2.848-.189-6.834-.855-7.025-1.518l-.666 2.088" stroke="#000" stroke-miterlimit="3.733" stroke-width=".475"/><path d="M425.914 209.193c-.285-.569-1.71-2.66-.569-3.322 1.045-.573.38 2.561 1.807 3.226 0 0-.476 1.424-1.232.095z" fill="#fff" stroke="#fff" stroke-miterlimit="3.733" stroke-width=".475"/><path d="M429.05 216.977c-.474 1.617-.664 2-.855 2.946m9.881 1.516c.19.569.377.283.853.378m.379-3.7c.476-.569 1.138-.283.758 1.142" fill="none" stroke="#000" stroke-miterlimit="3.733" stroke-width=".475"/><path d="M423.543 214.7a26.109 26.109 0 0 1 2.565.952c1.425.569.57 2.655.191 3.985-.191.668-.952 1.806-.57 2.378.476.756 1.046.282 1.9.376 0-.283.569-.474.758-.474.665-.094 1.046.473 1.519.286.569-.287.476-1.142.286-1.615m-.1-4.18c.095-.376.95-.756 1.424-.854 1.993-.378 3.416-.664 5.033.476m-5.319 10.346c-1.614.381-3.322.663-4.842-.192m0-.751c.759-.38 1.045-.761 2-.287a4.627 4.627 0 0 1 1.045-.379 3.5 3.5 0 0 1 2 .758m-5.128.282a12.861 12.861 0 0 1 5.034.095" fill="none" stroke="#000" stroke-miterlimit="3.733" stroke-width=".475"/><path d="M423.45 216.977c.666-.093 1.424-.855 2.944.286 1.045.665-1.71 1.331-1.234 1.236-1.232.188-1.615-.474-1.706-1.047 0-.189-.191-.475 0-.475zm7.784.756c.665-1.331 1.71-1.045 2.66-.761a4.239 4.239 0 0 1 1.52.573c-1.046.189-.76.283-1.522.663-.854.38-1.612.569-2.184.192-.19-.192-.664-.474-.664-.855a.205.205 0 0 0 .19.189z" fill="#fff" stroke="#000" stroke-linecap="round" stroke-linejoin="round" stroke-width=".283"/><path d="M424.775 218.116a.734.734 0 0 0 .665-.76.723.723 0 1 0-1.422 0 .746.746 0 0 0 .757.76zm8.074.187c.378 0 .664-.376.664-.855a.746.746 0 0 0-.758-.756.676.676 0 0 0-.665.756.836.836 0 0 0 .76.856z" stroke="#000" stroke-miterlimit="3.733" stroke-width=".285"/><g stroke="#000" stroke-miterlimit="3.733"><path d="M473.393 266.93a3.586 3.586 0 0 0-1.708-1.236l-1.9-.948c-.665-.381-1.615-.474-2.184-.855m.379 2.47c-.286-.19-.474-.284-.758-.476-.286-.094-.665-.094-.952-.19-.095 0-.095-.19-.189-.19a3.251 3.251 0 0 1-2.278-1.232m-58.59-8.739c.853.662 2.941 2.09 3.132 4.844a9.772 9.772 0 0 0 .952 2.847m-12.251-7.309c.476 1.612.569 6.931 5.6 12.535M398 248.506c-.381 1.045-.855 1.994.188 2.753m13.485 9.977c1.046-2.375 4.273-2.185 4.273-4.463" fill="none" stroke-width=".475"/><path d="M416.422 260.947c-.286-2.66-.855-4.177-.378-8.07a33.808 33.808 0 0 0 0-7.6s1.519 7.31-3.419 8.738m32.1 11.681a16.66 16.66 0 0 1 .855-5.8c1.139-5.219-1.045-7.215-.19-8.544.758-1.139 1.9-3.515.38-8.264 0 0 2.658 9.784-4.179 9.784-6.93 0-6.646-2.564-6.646-2.564" fill="none" stroke-width=".475"/><path d="M416.039 245.276c0 1.993 0 7.884 8.452 7.884 2.562 0 5.317-1.8 6.835-3.039m2.092-2.567a44.839 44.839 0 0 1-.285-6.459m-12.726-3.22a53.687 53.687 0 0 1 8.358-.569m.285-5.9c.476 2.091-.284 5.413 3.608 5.889m4.083-6.645a20.085 20.085 0 0 0-.76 4.083m.191 2.572c1.614 0 4.652-1.046 8.45-.286m1.331 21.267c.759 1.521.95 3.514 3.323 5.793m-29.625-10.637c.191 1.236-1.614 5.318-.285 8.645a11.49 11.49 0 0 1-1.046 10.349m6.175-17.753c-.758 1.518-2.088 3.039-2.374 4.368m6.164-1.521c0 .95-2.561 8.167-4.368 10.16 0 0 3.322 1.33 2.846 6.174m6.842-19.657c0 1.236-.191 1.522.855 2.278m2.281 0c1.232 1.519 5.126 6.08 4.271 8.643m-6.838-6.077a22.345 22.345 0 0 1-.569 8.359m-1.988-.192a2.963 2.963 0 0 0-2.849 2.564m8.16-2.853c1.043-.286 3.131 1.517 3.131 6.648m14.63-9.588c-1.994.569-2.849 1.616-2.277 1.045a18.987 18.987 0 0 1-2 1.424" fill="none" stroke-width=".475"/><path d="M421.07 252.3a.967.967 0 0 0 1.044-.855c0-.382-.474-.76-1.044-.76a.82.82 0 1 0 0 1.617zm21.56.29a.937.937 0 0 0 .952-.855.863.863 0 0 0-.952-.756c-.566 0-1.043.285-1.043.756a.966.966 0 0 0 1.043.856z" stroke-width=".285"/><path d="M412.437 291.337c1.138-7.408 4.652-13.58 4.747-14.152a93.906 93.906 0 0 0 9.874 1.33 45.7 45.7 0 0 0 10.73.186c2.753-.282 6.361-.756 6.361-.756a13.013 13.013 0 0 1 1.235 4.558c.284 4.842 2.087 25.832 2.277 31.435 0 0 .759 3.322.759 11.489 0 8.93 2.469 27.067 2.469 36.757l-2.468.476s-13.483 1.045-13.483-.76c0-1.991-.759-25.261 1.234-39.317a44.6 44.6 0 0 0-1.234-5.129c-.759-2.281-4.084-9.4-4.084-10.92 0 0-5.315 15-5.6 17.57-.284 2.373-1.045 35.8-1.521 38.558 0 0-7.691 5.888-8.736 6.459-1.043.476-8.45-3.136-8.64-4.084-.286-1.043.76-12.348 4.273-30.964 1.33-6.648.569-7.878.569-9.684s.1-25.641 1.234-33.049z" fill="#e8e8e6" stroke-width=".475"/><path d="M425.251 324.106a9.566 9.566 0 0 1-3.322 5.417m-2.567-50.058c-.284 1.234-2.089 6.836-6.647 10.161m13.292-9.116c-1.045 3.325-5.126 21.18-5.889 42.358m-.28 6.652c-.19 1.993-1.234 16.811-1.519 19.372m-.758 2.851A66.148 66.148 0 0 0 415 369.122m30.1-33.526c-.19 1.8-.952 14.624 3.323 26.115m-17.276-80.249c-.285 2.088-.759 15.576-.759 16.619s1.521 2.564 2.279 2.851c0 0-1.519.476-1.8 5.6m-3.8-12.061a81.926 81.926 0 0 1-2.851 10.542m12.25-23.74s4.558.951 4.842 0c0 0 1.519 27.545 3.608 42.831m-10.438-39.321c0 1.8-.57 15.386-.57 15.386m2.278 1.993s1.8 2.562 1.33 3.8m-16.619-26.2c1.522.474 2.85.758 2.85.758m4.841 1.519a33.232 33.232 0 0 0-.569 4.275m8.167 36.279a4.185 4.185 0 0 1 .759 4.085" fill="none" stroke-width=".475"/><path d="M416.515 277s0-3.039 1.139-4.561c0 0 3.227.668 7.786 1.142 4.652.474 8.353.855 11.774.474a63.443 63.443 0 0 0 6.935-1.232s.948 4.464.471 5.129a56.935 56.935 0 0 1-7.784.948 79.359 79.359 0 0 1-13.483-.756c-3.136-.383-5.889-.952-6.838-1.142z" fill="#d67c59" stroke-width=".475"/><path d="M419.455 277.374l.568-4.558.952.094-.191 4.749zm20.609-3.8l.1 5.13 1.138-.192-.093-5.224zm-14.626 0l-.379 4.938h.666l.665-4.938z" fill="#fff" stroke-width=".475"/><path d="M408.918 366.938a33.677 33.677 0 0 0-.95 5.129c0 .474-.473 3.039.95 3.133 1.045.1 1.33-2.66 1.33-2.66s-.952 3.038.284 3.419c1.71.376 1.9-3.324 1.9-3.324-.19 1.045-1.33 3.7.286 3.985 1.708.288 2.184-3.608 2.184-3.608s-1.425 3.9.283 3.99c1.615.093 1.615-3.8 1.615-3.8s-.856 4.655 1.423 4.275c1.232-.191 1.52-1.806 1.805-2.755.379-1.423 1.233-3.227.19-6.172-.758-2.184-.473-2.753-.473-2.753s-2.66 1.994-4.748 3.323c-.952.569-6.08-2.184-6.08-2.184zm27.73-4.088c-.475-.287-.379 1.709-.57 2.656-.095.952.192 3.04 3.42 2.851 3.131-.286 6.267-.95 8.26-.476a27.387 27.387 0 0 0 6.554.665 9.618 9.618 0 0 0 3.416-.476c.666-.282 2.091.382 2.753.382s1.71-1.045 1.615-1.71c-.1-1.236-1.232-1.236-2.849-1.33a27.321 27.321 0 0 1-4.651-.854 28.806 28.806 0 0 0-5.318-1.9s-4.558.192-5.5.192-6.554.282-7.125 0z" fill="#653024" stroke-width=".475"/></g><path d="M389.262 244.707c-.473.286-1.046-1.9.379-2.753 0 0 .379-1.8 1.9-2a3.709 3.709 0 0 1 3.04-1.518s2.086-1.423 2.847-1.235a5.755 5.755 0 0 1 2.753 2.66 2.743 2.743 0 0 1-.476 2.279c-.569.567-.95-.095-1.045-.855a1.766 1.766 0 0 1-.758 1.993c-1.139.667-1.046.193-1.139-.57 0 0-.286 1.522-1.045 1.711-.759.285-1.232-.381-1.805-.381 0 0 .952.762.286 1.331a1.558 1.558 0 0 1-1.9-.093c-.476-.476-1.045-1.711-3.04-.569z" fill="#ad7c59" stroke="#000" stroke-linecap="round" stroke-linejoin="round" stroke-width=".475"/><path d="M398.567 241.2a3.714 3.714 0 0 0-3.8-2.659m2.091 4.077c-.285-.381-.381-.761-.664-1.138-.855-1.427-2.66-1.329-4.179-1.71m2.276 4.276c-.569-.379-.758-1.14-1.33-1.422a5.524 5.524 0 0 0-3.039-.667" fill="#ad7c59" stroke="#000" stroke-linecap="round" stroke-miterlimit="3.733" stroke-width=".475"/><path d="M560.465 221.625c.665-.286.476.569.569.855a23.605 23.605 0 0 0 .759 3.7c.568 1.045.758 1.424 1.708 1.9 1.519.855 5.98 3.325 9.116 1.329a2.881 2.881 0 0 0 .665-.474 4.954 4.954 0 0 0 2.753 5.793c1.232.663 14.624 7.693 14.624 7.693a9 9 0 0 1 .569 6.078c-.191.569-.379 1.043.189 1.424a11.912 11.912 0 0 1 3.515 5.6s2.75-1.236 2.75-3.039-1.139-2.754-1.423-4.084c-.187-1.235-.949-4.369-.567-5.318.378-1.043 1.993-1.424 2.657-1.807s1.425.378 1.234 1.232c-.095.952-.758.763-1.519.952a6.449 6.449 0 0 1 .76 3.132l8.734 4.464s-1.139 1.521-1.52 2.184c-.476.667-1.33 9.5-3.892 13.676s-3.42 3.04-3.894 3.609c-.569.475-1.329 1.236-1.994 1.806-.57.476-3.514.76-4.179-.854a8.324 8.324 0 0 0-2.943-3.9c-1.8-1.422-5.506-5.031-5.506-6.648 0 0-2.184 6.273-1.9 11.493a101.091 101.091 0 0 1-15.1 1.808c-7.124.1-10.732-1.427-10.732-1.427s-.95-5.982-.569-7.123a38.085 38.085 0 0 1-1.9 5.223c-1.045 1.612-2.088 4.938-4.084 5.127-2.087.1-3.7-1.993-3.985-2.847v-6.269h-8.071c0-.093-3.515 1.329-4.748 1.142-1.139-.1-1.71-1.142-.759-1.522l.38-.284a6.592 6.592 0 0 0-2.374.663H525.8c0-.1.1-.383.1-.476.287-1.137 2.376-2.091 3.988-2.753a19.475 19.475 0 0 1 4.273-1.328 18.52 18.52 0 0 1 5.793.38 19.1 19.1 0 0 1 5.411 1.234c.474.284 1.044.378.759-.854-.285-1.331-1.139-5.225.287-7.789a8.24 8.24 0 0 0 .758-4.844c-.19-1.613-1.043-5.224-1.043-6.836 0-5.32 4.083-7.5 7.691-8.645 3.987-1.232 6.645-2.565 6.458-4.935-.1-2.47.568-6.552.189-8.455" fill="#653024" stroke="#000" stroke-miterlimit="3.733" stroke-width=".475"/><path d="M576.519 210.9c.854 3.132 1.045 3.892 1.045 4.937 0 1.139-.476 1.33-.1 2.567.665 2.277-.665 4.748-2.278 7.407-.759 1.232-1.33 2.849-2.563 3.608-3.134 1.993-6.933-.38-8.927-1.238a3.481 3.481 0 0 1-1.9-1.993 27.711 27.711 0 0 1-.759-3.7c0-.286.1-1.139-.57-.855-1.138-1.329-.949-1.9-1.421-2.847s.855-2 1.9-1.806a9.17 9.17 0 0 1-.284-5.511c.19-.567-.474-2.086.476-1.709 4.272 1.709 9.3 1.331 13.864 1.331.376 0 .662-.758 1.232-.663.09 0 .186.285.28.474" fill="#653024" stroke="#000" stroke-miterlimit="3.733" stroke-width=".475"/><path d="M576.9 212.506c.474-.379.191-2.184-.285-4.083-.19-.949-.951-1.329-1.994-2.373a4.494 4.494 0 0 0-2.087-1.329c-.569-.193-1.9-.193-2.563-.476-.569-.286-2.089-.1-3.515.1-1.9.283-2.943.188-4.368.95a5.6 5.6 0 0 0-3.038 3.039c-.379 1.043-1.045 2.372-.76 6.362.192 3.987.952 3.228.952 3.228s1.046-1.519 1.71-.57c0 0-.1-2.09-.284-3.322a12.127 12.127 0 0 1 .476-4.275 28.394 28.394 0 0 0 8.449 1.617c2.85 0 6.552-.286 6.648-.95l.663 2.086z" stroke="#000" stroke-miterlimit="3.733" stroke-width=".475"/><path d="M571.012 216.977c.569 1.617.1 1.141.381 2.184m-9.593 1.9c0 .758-.57.569-.952.569" fill="none" stroke="#000" stroke-miterlimit="3.733" stroke-width=".475"/><path d="M577 215.745c-.855-.665-2.469-.19-3.23.095-1.423.663-.664 2.091-.19 3.42.19.663.952 1.612.476 2.277-.379.759-.665.383-1.52.476.1-.286-.758 0-1.042 0-.57-.093-.854.377-1.33.19-.568-.285-.474-1.139-.286-1.615m.094-4.18c0-.376-1.233-.756-2.563-.854-2.088-.095-2.279.1-3.893 1.234m10.73 8.356c-.378-.568-.95-.855-1.994-.378 0-.191-1.423-.379-1.423-.379a4.135 4.135 0 0 0-1.994.663m5.215.57c-.855-.57-3.039-.187-5.223-.187m.193.756a6.535 6.535 0 0 0 4.842 0" fill="none" stroke="#000" stroke-miterlimit="3.733" stroke-width=".475"/><path d="M576.612 216.977c-.665-.093-.95-.855-2.943.286-1.045.569 1.71 1.331 1.33 1.235a1.228 1.228 0 0 0 1.615-1.047c0-.189.188-.474 0-.474zm-7.784.756c0-.762-1.708-1.045-2.657-.762a3.756 3.756 0 0 0-1.425.573c.952.189.665.282 1.425.662.853.381 1.045.76 2.184.193a1.385 1.385 0 0 0 .758-.855c-.094.093-.189.189-.285.189z" fill="#fff" stroke="#000" stroke-linecap="round" stroke-linejoin="round" stroke-width=".285"/><path d="M575.38 218.116a.749.749 0 0 1-.759-.738v-.022a.777.777 0 0 1 .759-.855.769.769 0 0 1 .664.855.734.734 0 0 1-.664.76zm-8.167.186c-.379 0-.664-.376-.664-.855a.743.743 0 0 1 .757-.756.673.673 0 0 1 .665.756.772.772 0 0 1-.758.853z" stroke="#000" stroke-miterlimit="3.733" stroke-width=".285"/><g stroke="#000" stroke-miterlimit="3.733"><path d="M526.7 266.927a3.586 3.586 0 0 1 1.708-1.236l1.9-.948c.664-.381 1.615-.474 2.184-.855m-.379 2.469c.286-.189.474-.283.758-.476.285-.093.664-.093.952-.189.1 0 .1-.19.189-.19a3.251 3.251 0 0 0 2.278-1.232m58.59-8.739c-.853.662-2.942 2.09-3.132 4.844a9.759 9.759 0 0 1-.952 2.846m12.251-7.308c-.476 1.612-.569 6.93-5.6 12.535m4.651-19.945c.381 1.045.855 1.994-.189 2.753m-13.484 9.977c-1.046-2.375-4.273-2.186-4.273-4.463" fill="none" stroke-width=".475"/><path d="M583.67 260.944c.285-2.66.855-4.177.378-8.071a33.8 33.8 0 0 1 0-7.6s-1.52 7.31 3.419 8.738m-32.1 11.681a16.653 16.653 0 0 0-.855-5.8c-1.139-5.22 1.045-7.215.189-8.544-.758-1.139-1.9-3.515-.38-8.264 0 0-2.657 9.784 4.18 9.784 6.93 0 6.645-2.565 6.645-2.565" fill="none" stroke-width=".475"/><path d="M584.052 245.273c0 1.993 0 7.884-8.451 7.884-2.562 0-5.317-1.8-6.835-3.039m-2.092-2.567a44.846 44.846 0 0 0 .285-6.459m12.725-3.22a53.637 53.637 0 0 0-8.358-.57m-.284-5.9c-.476 2.09.283 5.413-3.609 5.889m-4.082-6.645a20.085 20.085 0 0 1 .76 4.083m-.191 2.571c-1.614 0-4.652-1.045-8.45-.285m-1.331 21.267c-.759 1.521-.95 3.514-3.323 5.793m29.624-10.635c-.19 1.236 1.615 5.318.286 8.645a11.493 11.493 0 0 0 1.045 10.349m-6.171-17.753c.759 1.518 2.089 3.039 2.375 4.368m-6.164-1.521c0 .95 2.561 8.167 4.368 10.16 0 0-3.323 1.329-2.847 6.174m-6.841-19.657c0 1.236.19 1.522-.855 2.278m-2.281 0c-1.232 1.519-5.126 6.079-4.271 8.642m6.838-6.076a22.34 22.34 0 0 0 .569 8.358m1.988-.191a2.963 2.963 0 0 1 2.849 2.564m-8.16-2.853c-1.043-.286-3.131 1.517-3.131 6.648m-14.63-9.588c1.993.569 2.848 1.616 2.277 1.045a18.761 18.761 0 0 0 2 1.423" fill="none" stroke-width=".475"/><path d="M579.022 252.3a.968.968 0 0 1-1.044-.855c0-.382.473-.76 1.044-.76a.82.82 0 1 1 0 1.617zm-21.56.29a.937.937 0 0 1-.952-.855.863.863 0 0 1 .952-.756c.566 0 1.043.285 1.043.756a.966.966 0 0 1-1.043.856z" stroke-width=".285"/><path d="M587.655 291.334c-1.139-7.408-4.653-13.58-4.747-14.152a93.777 93.777 0 0 1-9.875 1.329 45.65 45.65 0 0 1-10.729.187c-2.754-.282-6.361-.756-6.361-.756a12.981 12.981 0 0 0-1.235 4.558c-.284 4.842-2.087 25.832-2.277 31.435 0 0-.759 3.322-.759 11.489 0 8.93-2.469 27.067-2.469 36.757l2.468.476s13.483 1.045 13.483-.76c0-1.991.759-25.261-1.234-39.317a44.363 44.363 0 0 1 1.234-5.129c.759-2.281 4.084-9.4 4.084-10.921 0 0 5.315 15 5.6 17.571.284 2.373 1.045 35.8 1.521 38.558 0 0 7.691 5.887 8.736 6.459 1.043.476 8.45-3.136 8.64-4.084.286-1.043-.76-12.348-4.273-30.964-1.33-6.649-.569-7.878-.569-9.684s-.1-25.642-1.234-33.049z" fill="#e8e8e6" stroke-width=".475"/><path d="M574.84 324.1a9.573 9.573 0 0 0 3.323 5.417m2.567-50.058c.284 1.233 2.089 6.836 6.647 10.161m-13.293-9.116c1.046 3.324 5.127 21.18 5.89 42.358m.28 6.652c.19 1.992 1.234 16.811 1.519 19.372m.758 2.851a66.148 66.148 0 0 1 2.563 17.379M555 335.593c.19 1.8.952 14.623-3.323 26.115m17.276-80.249c.285 2.088.759 15.576.759 16.619s-1.522 2.564-2.279 2.85c0 0 1.519.476 1.8 5.6m3.8-12.061a82.07 82.07 0 0 0 2.85 10.542m-12.249-23.74s-4.558.95-4.842 0c0 0-1.519 27.545-3.608 42.831m10.438-39.321c0 1.805.57 15.386.57 15.386m-2.278 1.992s-1.8 2.563-1.33 3.795m16.618-26.2c-1.521.474-2.849.758-2.849.758m-4.841 1.519a33.232 33.232 0 0 1 .569 4.275m-8.167 36.279a4.185 4.185 0 0 0-.759 4.085" fill="none" stroke-width=".475"/><path d="M583.576 277s0-3.039-1.138-4.561c0 0-3.227.668-7.786 1.142-4.652.474-8.354.855-11.774.474a63.443 63.443 0 0 1-6.935-1.232s-.948 4.464-.471 5.129a56.935 56.935 0 0 0 7.784.948 79.359 79.359 0 0 0 13.483-.756c3.136-.383 5.889-.952 6.837-1.142z" fill="#d67c59" stroke-width=".475"/><path d="M580.636 277.371l-.567-4.558-.952.094.19 4.749zm-20.608-3.8l-.1 5.13-1.139-.192.094-5.224zm14.626 0l.379 4.938h-.666l-.665-4.938z" fill="#fff" stroke-width=".475"/><path d="M591.174 366.934a33.718 33.718 0 0 1 .95 5.13c0 .474.473 3.039-.95 3.132-1.045.1-1.33-2.66-1.33-2.66s.952 3.039-.284 3.42c-1.71.376-1.9-3.324-1.9-3.324.19 1.045 1.33 3.7-.286 3.985-1.708.287-2.184-3.608-2.184-3.608s1.424 3.895-.284 3.99c-1.614.093-1.614-3.8-1.614-3.8s.856 4.655-1.424 4.275c-1.232-.191-1.519-1.806-1.8-2.756-.379-1.422-1.234-3.226-.19-6.171.758-2.184.473-2.753.473-2.753s2.66 1.994 4.748 3.323c.952.569 6.08-2.185 6.08-2.185zm-27.73-4.088c.474-.286.379 1.71.57 2.657.1.952-.192 3.04-3.42 2.851-3.132-.286-6.268-.95-8.26-.476a27.443 27.443 0 0 1-6.554.665 9.618 9.618 0 0 1-3.416-.476c-.667-.282-2.091.382-2.754.382s-1.71-1.049-1.61-1.711c.1-1.235 1.232-1.235 2.849-1.329a27.216 27.216 0 0 0 4.651-.855 28.866 28.866 0 0 1 5.318-1.9s4.558.191 5.5.191 6.554.283 7.125 0z" fill="#653024" stroke-width=".475"/></g><path d="M609.466 248.123c.474.192 1.8-1.9.474-2.847 0 0-.474-1.8-1.994-1.9 0 0-1.234-1.8-3.04-1.522 0 0-1.993-1.422-2.751-1.325a6.157 6.157 0 0 0-2.85 2.753 3.342 3.342 0 0 0 .474 2.278c.57.476.952-.1 1.046-.952a1.923 1.923 0 0 0 .758 2.09c1.138.663 1.045.094 1.138-.662 0 0 .287 1.517 1.046 1.8s1.233-.381 1.806-.381c0 0-.952.76-.286 1.235a1.435 1.435 0 0 0 1.9-.1c.57-.378.285-1.613 2.278-.476z" fill="#653024" stroke="#000" stroke-linecap="round" stroke-miterlimit="3.733" stroke-width=".475"/><path d="M600.925 244.613a3.589 3.589 0 0 1 3.8-2.66m-1.994 4.088a6.3 6.3 0 0 1 .569-1.142c.854-1.422 2.752-1.422 4.271-1.71m-2.376 4.178c.569-.381.76-1.044 1.331-1.326a4.927 4.927 0 0 1 3.039-.667" fill="#653024" stroke="#000" stroke-linecap="round" stroke-linejoin="round" stroke-width=".475"/><path d="M600.757 241.832a5.571 5.571 0 0 0-1.778 2.128 3.322 3.322 0 0 0 .466 2.277c.514.43.887-.016 1.022-.73a1.8 1.8 0 0 0 .787 1.867c1.139.663 1.043.089 1.139-.672 0 0 .289 1.527 1.049 1.811s1.236-.38 1.809-.38c0 0-.958.751-.292 1.225a1.432 1.432 0 0 0 1.9-.087c.569-.383.28-1.608 2.277-.467.249.1.75-.423.962-1.08l-7.176-5.161z" fill="#653024"/><path d="M599.236 243.157c-1.4 2.41.467 3.857 1.087 2.446-.181 2.226 1.5 2.137 2.132 1.434.613 2.345 1.708 1.3 2.714 1.087-1.141 2.137 1.382 1.5 1.979 1.01.862-1.272 1.266-.259 1.9-.389l1.087-1.164m-7.445-5.32a3.875 3.875 0 0 0-2.367 3.454m4.541-2.054a3.873 3.873 0 0 0-2.366 3.454m5.045-1.634c-1.575.838-1.647 1.608-2.327 2.638" fill="#653024" stroke="#000" stroke-miterlimit="3.733" stroke-width=".475"/><path d="M500.078 419.363c21.366.192 34-7.6 40.927-12.251 16.237-10.921 19.656-11.3 22.316-11.113 3.039.29 7.5 1.332 7.691 3.992.285 4.084-6.362 5.888-10.162 5.888-3.892 0-14.055-2.565-14.055-2.565l-2.66 1.806c1.805.856 22.6 7.786 26.589 1.236 4.081-6.649 8.167-17.382 8.167-17.382a17.4 17.4 0 0 0-14.721-8.167c-10.255 0-20.225 6.459-26.871 11.3s-15 11.492-37.225 11.492-30.67-6.648-37.315-11.492-16.618-11.3-26.778-11.3a17.466 17.466 0 0 0-14.812 8.167s4.082 10.733 8.165 17.382c3.987 6.549 24.785-.381 26.586-1.236l-2.563-1.807s-10.254 2.564-14.055 2.564c-3.893 0-10.54-1.8-10.255-5.886.191-2.66 4.652-3.7 7.691-3.991 2.66-.186 6.078.193 22.315 11.113 6.934 4.653 19.564 12.156 41.024 12.251" fill="#ffe682"/><path d="M465.7 394.191s0-1.808-.288-4.465c-.379-3.419-2.372-4.273-3.985-3.8-1.046.374-3.133 2.943-3.133 2.943v.1a30.172 30.172 0 0 0-2.945-1.8c.76-.856 5.128-3.514 6.172-3.514.952 0 14.054 5.317 18.23 8.925 1.045.952 1.806 6.84 1.234 8.736a45.128 45.128 0 0 1-15.288-7.027v-.095m-6.269 13.3a12.229 12.229 0 0 0-2.944 8.072c-.1 6.172 4.369 6.459 7.312 6.362 3.514-.1 6.361-2.088 6.268-8.641a70.753 70.753 0 0 1-10.637-5.794m74.929-13.3s.1-1.808.382-4.465c.375-3.419 2.276-4.274 3.891-3.8 1.045.375 3.133 2.944 3.133 2.944v.1a29.994 29.994 0 0 1 2.941-1.8c-.757-.856-5.124-3.514-6.076-3.514-1.044 0-14.146 5.317-18.324 8.925-.953.952-1.712 6.84-1.235 8.736a44.248 44.248 0 0 0 15.288-7.027v-.095m6.263 13.3a12.235 12.235 0 0 1 2.944 8.072c.19 6.172-4.37 6.459-7.311 6.362-3.516-.1-6.268-2.088-6.268-8.641a70.858 70.858 0 0 0 10.637-5.794" fill="#ffe682"/><path d="M453.26 403.31s-10.161 2.565-13.958 2.565c-3.892 0-10.54-1.8-10.255-5.888.192-2.66 4.654-3.7 7.693-3.987 2.278-.193 5.222.093 16.522 7.31m93.539 0s10.159 2.565 14.055 2.565c3.8 0 10.443-1.8 10.158-5.888-.188-2.66-4.651-3.7-7.691-3.987-2.279-.193-5.223.093-16.522 7.31m-81.1-9.026a89.179 89.179 0 0 1-3.041-2.277c-1.424-1.047-2.849-2-4.368-3.04 0 0 2.088-2.66 3.132-2.945 1.614-.569 3.607.282 3.985 3.7.287 2.66.287 4.563.287 4.563m-6.93 26.784a8.535 8.535 0 0 0 5.035.856c3.514-.1 6.361-2.089 6.267-8.641a58.741 58.741 0 0 0 11.489 3.893 8.052 8.052 0 0 1 1.328 4.272c.288 2.377-1.329 4.937-3.226 4.751 0 0-9.972-1.806-16.047-2.847-3.515-.665-4.844-2.281-4.844-2.281m75.589-26.79l3.132-2.277c1.33-1.047 2.753-2 4.272-3.04 0 0-2.087-2.66-3.132-2.945-1.615-.569-3.514.282-3.892 3.7-.286 2.659-.381 4.562-.381 4.562m6.927 26.785a8.53 8.53 0 0 1-5.034.856c-3.513-.1-6.267-2.089-6.267-8.641a59.163 59.163 0 0 1-11.4 3.893 7.617 7.617 0 0 0-1.423 4.272c-.189 2.377 1.426 4.937 3.229 4.751 0 0 10.065-1.806 16.048-2.847 3.514-.665 4.842-2.281 4.842-2.281" fill="#171696"/><path d="M500.078 419.363c21.366.19 34-7.6 40.927-12.251 16.237-10.921 19.656-11.3 22.315-11.111 3.039.284 7.5 1.33 7.69 3.988.287 4.083-6.361 5.886-10.162 5.886-3.892 0-14.053-2.561-14.053-2.561l-2.658 1.806c1.8.855 22.6 7.787 26.586 1.232 4.084-6.647 8.165-17.379 8.165-17.379a17.4 17.4 0 0 0-14.718-8.173c-10.255 0-20.226 6.46-26.873 11.3s-15 11.491-37.222 11.491-30.67-6.648-37.315-11.491-16.62-11.3-26.778-11.3a17.463 17.463 0 0 0-14.812 8.17s4.081 10.731 8.165 17.378c3.988 6.552 24.785-.378 26.587-1.232l-2.562-1.806s-10.257 2.561-14.053 2.561c-3.9 0-10.541-1.8-10.257-5.886.191-2.66 4.652-3.7 7.692-3.99 2.657-.189 6.076.192 22.313 11.111 6.935 4.655 19.563 12.158 41.023 12.252z" fill="none" stroke="#000" stroke-miterlimit="3.111" stroke-width=".665"/><path d="M453.26 403.31s-10.161 2.565-13.956 2.565c-3.894 0-10.541-1.805-10.258-5.888.192-2.66 4.654-3.705 7.693-3.987 2.277-.193 5.222.093 16.522 7.31zm93.532 0s10.161 2.565 14.054 2.565c3.8 0 10.443-1.805 10.16-5.888-.19-2.66-4.651-3.705-7.689-3.987-2.279-.193-5.225.1-16.522 7.31zm-81.092-9.026a89.179 89.179 0 0 1-3.041-2.277c-1.421-1.047-2.847-2-4.368-3.04 0 0 2.09-2.66 3.133-2.945 1.615-.569 3.608.282 3.986 3.7.289 2.655.289 4.558.289 4.558z" fill="none" stroke="#000" stroke-miterlimit="3.111" stroke-width=".665"/><path d="M465.7 394.191s0-1.807-.288-4.465c-.377-3.419-2.372-4.273-3.985-3.8-1.046.378-3.136 2.943-3.136 2.943v.1a30.862 30.862 0 0 0-2.943-1.8c.759-.856 5.127-3.514 6.173-3.514.952 0 14.053 5.317 18.231 8.928 1.045.952 1.8 6.837 1.234 8.737a45.306 45.306 0 0 1-15.292-7.028m-6.266 13.2a12.243 12.243 0 0 0-2.943 8.072c-.1 6.169 4.368 6.457 7.311 6.362 3.514-.1 6.36-2.088 6.269-8.645a70.612 70.612 0 0 1-10.636-5.794z" fill="none" stroke="#000" stroke-miterlimit="3.111" stroke-width=".665"/><path d="M461.811 408.91a11.274 11.274 0 0 0-2.658 6.267c-.19 3.041 1.8 4.748 4.368 4.558 3.607-.187 5.034-5.126 3.323-7.881z" fill="none" stroke="#000" stroke-miterlimit="3.111" stroke-width=".665"/><path d="M458.767 421.071a8.535 8.535 0 0 0 5.033.856c3.514-.1 6.36-2.091 6.269-8.643a58.869 58.869 0 0 0 11.49 3.894 8.029 8.029 0 0 1 1.328 4.274c.287 2.374-1.328 4.938-3.225 4.747 0 0-9.973-1.8-16.048-2.847-3.517-.667-4.846-2.279-4.846-2.279zm75.592-26.787q1.569-1.139 3.133-2.277c1.331-1.047 2.754-2 4.275-3.04 0 0-2.088-2.66-3.134-2.945-1.614-.569-3.514.282-3.892 3.7q-.249 2.274-.379 4.558h0z" fill="none" stroke="#000" stroke-miterlimit="3.111" stroke-width=".665"/><path d="M534.359 394.191s.1-1.807.382-4.465c.377-3.419 2.276-4.273 3.891-3.8 1.045.378 3.133 2.943 3.133 2.943v.1a30.738 30.738 0 0 1 2.943-1.8c-.759-.856-5.127-3.514-6.078-3.514-1.045 0-14.146 5.317-18.324 8.928-.953.952-1.712 6.837-1.235 8.737a44.413 44.413 0 0 0 15.288-7.028m6.263 13.2a12.235 12.235 0 0 1 2.944 8.072c.19 6.169-4.37 6.457-7.313 6.362-3.513-.1-6.266-2.088-6.266-8.645a70.627 70.627 0 0 0 10.635-5.794z" fill="none" stroke="#000" stroke-miterlimit="3.111" stroke-width=".665"/><path d="M538.251 408.91a11.277 11.277 0 0 1 2.66 6.267 3.9 3.9 0 0 1-4.37 4.558c-3.607-.187-4.937-5.126-3.323-7.881z" fill="none" stroke="#000" stroke-miterlimit="3.111" stroke-width=".665"/><path d="M541.285 421.071a8.538 8.538 0 0 1-5.034.856c-3.512-.1-6.264-2.091-6.264-8.643a59.3 59.3 0 0 1-11.395 3.894 7.611 7.611 0 0 0-1.424 4.274c-.19 2.374 1.424 4.938 3.229 4.747 0 0 10.065-1.8 16.045-2.847 3.515-.667 4.844-2.279 4.844-2.279z" fill="none" stroke="#000" stroke-miterlimit="3.111" stroke-width=".665"/><path d="M480.8 418.887s3.133 2.282-.665 5.13m-8.734-6.651l9.591 4.18m-7.985-2l7.024 3.037m-4.551-4.838l5.317 2.377m38.55-1.239s-3.229 2.282.57 5.13m8.736-6.651l-9.591 4.18m8.069-2l-7.025 3.037m4.468-4.838l-5.223 2.377" fill="none" stroke="#fff" stroke-miterlimit="3.111" stroke-width=".664"/><path d="M443.256 389.674a1.953 1.953 0 0 1 .266.687 2.536 2.536 0 0 1-.028.807 2.282 2.282 0 0 1-1.127 1.6 2.941 2.941 0 0 1-2.1.313 3.592 3.592 0 0 1-1.058-.375 4.244 4.244 0 0 1-.863-.579c-.1.125-.214.243-.324.366l-.456-.086c.146-.919.291-1.839.444-2.757.149.028.3.056.462.089a5.855 5.855 0 0 0 .162.977 3.238 3.238 0 0 0 .359.864 2.3 2.3 0 0 0 .6.661 2.333 2.333 0 0 0 1.593.4 1.183 1.183 0 0 0 .528-.2 1.272 1.272 0 0 0 .358-.389 1.7 1.7 0 0 0 .2-.561 1.66 1.66 0 0 0-.1-.947 1.715 1.715 0 0 0-.7-.784q-.393-.248-.789-.487t-.765-.491a2.646 2.646 0 0 1-.912-1 2.079 2.079 0 0 1-.138-1.359 1.988 1.988 0 0 1 .352-.812 2.18 2.18 0 0 1 .67-.6 2.432 2.432 0 0 1 .872-.315 2.8 2.8 0 0 1 .974.015 2.868 2.868 0 0 1 .973.36 4.771 4.771 0 0 1 .732.549l.308-.336c.153.028.3.056.457.088l-.459 2.663c-.153-.031-.308-.058-.465-.09-.024-.31-.061-.62-.112-.927a3.453 3.453 0 0 0-.267-.834 1.9 1.9 0 0 0-.5-.638 1.791 1.791 0 0 0-.835-.359 1.336 1.336 0 0 0-.991.171 1.116 1.116 0 0 0-.543.765 1.452 1.452 0 0 0 .085.9 1.781 1.781 0 0 0 .607.7 9.026 9.026 0 0 0 .759.5c.249.149.485.3.719.457a5.189 5.189 0 0 1 .6.457 2.644 2.644 0 0 1 .461.539m11.65 1.633a3.518 3.518 0 0 0-.452-.17 1.384 1.384 0 0 0-.541-.082.8.8 0 0 0-.5.345 5.473 5.473 0 0 0-.556.85c-.57 1.032-1.144 2.066-1.712 3.1a2.348 2.348 0 0 1-.82.892 2.441 2.441 0 0 1-1.055.354 3.15 3.15 0 0 1-1.064-.071 4.105 4.105 0 0 1-.918-.358 4.184 4.184 0 0 1-1.07-.806 2.927 2.927 0 0 1-.6-.931 2.148 2.148 0 0 1-.152-.945 2.014 2.014 0 0 1 .252-.862l2.329-4.218a.866.866 0 0 0 .105-.332.692.692 0 0 0-.121-.345 1.476 1.476 0 0 0-.261-.3 3.281 3.281 0 0 0-.3-.229l.2-.358c1.008.555 2.008 1.109 3.015 1.661l-.2.355a2.967 2.967 0 0 0-.382-.15 1.891 1.891 0 0 0-.362-.1.4.4 0 0 0-.341.078.868.868 0 0 0-.228.27q-1.088 1.974-2.177 3.944a3.251 3.251 0 0 0-.261.635 1.721 1.721 0 0 0-.077.725 1.667 1.667 0 0 0 .292.747 2.394 2.394 0 0 0 .842.69 2.573 2.573 0 0 0 1.036.348 1.8 1.8 0 0 0 .852-.131 1.9 1.9 0 0 0 .607-.406 2.419 2.419 0 0 0 .415-.549l1.615-2.927a4.7 4.7 0 0 0 .423-.962.872.872 0 0 0 .019-.593 1.481 1.481 0 0 0-.376-.465 3.48 3.48 0 0 0-.431-.342l.2-.354q1.48.812 2.959 1.63l-.2.358m4.191 7.254a2 2 0 0 1 .2.846 1.82 1.82 0 0 1-.269.943 1.885 1.885 0 0 1-.709.731 2.117 2.117 0 0 1-.91.27 2.843 2.843 0 0 1-.959-.089 3.942 3.942 0 0 1-.952-.387l-3.391-1.952.206-.355c.084.043.205.093.376.159a1.673 1.673 0 0 0 .375.117.52.52 0 0 0 .332-.062.692.692 0 0 0 .237-.261q1.462-2.535 2.924-5.076a.93.93 0 0 0 .117-.331.539.539 0 0 0-.111-.341 1.609 1.609 0 0 0-.272-.31 2.9 2.9 0 0 0-.285-.23c.066-.117.136-.235.2-.352q1.65.948 3.3 1.9a4.246 4.246 0 0 1 .694.5 2.663 2.663 0 0 1 .513.647 1.608 1.608 0 0 1 .217.756 1.574 1.574 0 0 1-.224.84 1.757 1.757 0 0 1-.52.578 1.627 1.627 0 0 1-.672.283 2.442 2.442 0 0 1-.722.028 3.235 3.235 0 0 1-.772-.161l-.028.046a4.833 4.833 0 0 1 .6.546 2.779 2.779 0 0 1 .491.719zm-.609-1.767a1.4 1.4 0 0 0 .53-.317 2.7 2.7 0 0 0 .42-.56 1.463 1.463 0 0 0 .2-1.1 1.559 1.559 0 0 0-.826-.921c-.105-.059-.243-.137-.407-.227s-.308-.166-.412-.221l-1.568 2.719.636.364a2.441 2.441 0 0 0 .769.305 1.232 1.232 0 0 0 .657-.042zm-.594 2.657a1.585 1.585 0 0 0 .168-1.273 1.962 1.962 0 0 0-.991-1.106 29.328 29.328 0 0 0-.546-.308c-.149-.08-.263-.137-.34-.178-.479.835-.955 1.662-1.433 2.491a.6.6 0 0 0-.019.62 1.55 1.55 0 0 0 .627.569 1.707 1.707 0 0 0 1.4.233 2.116 2.116 0 0 0 1.134-1.047zm18.386 4.2a3.452 3.452 0 0 0-.467-.123 1.391 1.391 0 0 0-.545-.028.81.81 0 0 0-.465.393 5.709 5.709 0 0 0-.469.9l-1.394 3.257a2.366 2.366 0 0 1-.725.971 2.5 2.5 0 0 1-1.015.457 3.129 3.129 0 0 1-1.066.031 3.991 3.991 0 0 1-.952-.262 4.213 4.213 0 0 1-1.143-.7 3.025 3.025 0 0 1-.695-.866 2.173 2.173 0 0 1-.242-.924 2.031 2.031 0 0 1 .163-.887l1.9-4.428a.884.884 0 0 0 .075-.336.7.7 0 0 0-.154-.332 1.536 1.536 0 0 0-.293-.271 3.6 3.6 0 0 0-.317-.2l.158-.374 3.164 1.355c-.056.124-.107.249-.162.372a3.4 3.4 0 0 0-.394-.112 2.223 2.223 0 0 0-.37-.065.4.4 0 0 0-.333.109.933.933 0 0 0-.2.293l-1.772 4.14a3.313 3.313 0 0 0-.2.653 1.742 1.742 0 0 0 0 .733 1.632 1.632 0 0 0 .365.713 2.386 2.386 0 0 0 .907.605 2.583 2.583 0 0 0 1.069.242 1.777 1.777 0 0 0 .831-.214 2 2 0 0 0 .567-.462 2.519 2.519 0 0 0 .359-.588l1.316-3.073a4.77 4.77 0 0 0 .327-1 .88.88 0 0 0-.043-.592 1.436 1.436 0 0 0-.42-.425 3.67 3.67 0 0 0-.461-.3l.159-.372 3.1 1.33c-.057.122-.111.246-.163.37m8.931 10.492l-3.5-1.014.112-.392c.131.032.3.065.5.1a1.507 1.507 0 0 0 .438.026.784.784 0 0 0 .325-.171.7.7 0 0 0 .178-.313l1.646-5.7a1.18 1.18 0 0 0-.085-.023c-1.533 1.972-3.1 3.915-4.637 5.889-.092-.026-.182-.054-.279-.08-.187-2.52-.422-5.036-.609-7.553a.875.875 0 0 0-.073-.021l-1.35 4.676a4.578 4.578 0 0 0-.21 1.055.989.989 0 0 0 .115.584 1.371 1.371 0 0 0 .448.368 3.1 3.1 0 0 0 .47.257l-.114.391-3.2-.924.115-.393a4.779 4.779 0 0 0 .555.069.992.992 0 0 0 .479-.058.864.864 0 0 0 .408-.4 5.825 5.825 0 0 0 .379-1.045l1.157-4.008a1.709 1.709 0 0 0 .081-.591.934.934 0 0 0-.136-.429 1.2 1.2 0 0 0-.363-.342 1.99 1.99 0 0 0-.476-.229l.112-.392 2.7.782c.177 2.18.4 4.359.578 6.54 1.109-1.459 2.25-2.9 3.36-4.356a4.38 4.38 0 0 0 .349-.518 2.679 2.679 0 0 0 .195-.371l2.585.749-.112.39a3.528 3.528 0 0 0-.41-.063 2.325 2.325 0 0 0-.382-.022.428.428 0 0 0-.321.149.923.923 0 0 0-.163.316l-1.633 5.647a.761.761 0 0 0-.028.342.624.624 0 0 0 .19.306 1.345 1.345 0 0 0 .331.2 3.255 3.255 0 0 0 .392.173c-.039.126-.078.258-.116.389m8.488-2.578a2.035 2.035 0 0 1 .515.7 1.8 1.8 0 0 1 .12.97 1.953 1.953 0 0 1-.37.95 2.239 2.239 0 0 1-.734.6 2.963 2.963 0 0 1-.922.292 3.936 3.936 0 0 1-1.029.009q-1.94-.243-3.879-.488l.051-.406a3.9 3.9 0 0 0 .41 0 1.652 1.652 0 0 0 .392-.037.5.5 0 0 0 .282-.187.7.7 0 0 0 .119-.329l.73-5.813a.959.959 0 0 0-.019-.35.552.552 0 0 0-.236-.273 1.628 1.628 0 0 0-.371-.179 2.861 2.861 0 0 0-.351-.1l.051-.4 3.785.477a4.226 4.226 0 0 1 .833.192 2.586 2.586 0 0 1 .721.4 1.655 1.655 0 0 1 .494.613 1.587 1.587 0 0 1 .112.86 1.686 1.686 0 0 1-.76 1.259 2.568 2.568 0 0 1-.656.3 3.346 3.346 0 0 1-.775.152l-.009.051a4.819 4.819 0 0 1 .77.271 2.739 2.739 0 0 1 .725.468zm-1.245-1.393a1.437 1.437 0 0 0 .369-.5 2.713 2.713 0 0 0 .168-.682 1.448 1.448 0 0 0-.239-1.092 1.552 1.552 0 0 0-1.118-.527 24 24 0 0 0-.46-.054l-.474-.045c-.131 1.038-.259 2.076-.392 3.113l.728.091a2.5 2.5 0 0 0 .832-.016 1.256 1.256 0 0 0 .585-.292zm.479 2.681a1.591 1.591 0 0 0-.336-1.239 1.958 1.958 0 0 0-1.341-.637 19.104 19.104 0 0 0-1.009-.108c-.121.955-.239 1.9-.358 2.854a.61.61 0 0 0 .223.579 1.586 1.586 0 0 0 .8.283 1.691 1.691 0 0 0 1.377-.327 2.123 2.123 0 0 0 .644-1.4zm11.117 2.567h-2.229c-.485-.77-.938-1.416-1.328-1.979s-.836-1.117-1.3-1.714h-.846v2.586a.943.943 0 0 0 .064.348.449.449 0 0 0 .275.236 1.86 1.86 0 0 0 .366.075c.176.022.323.035.443.041v.409H496v-.409c.092-.006.226-.022.409-.041a1.5 1.5 0 0 0 .366-.075.5.5 0 0 0 .254-.217.722.722 0 0 0 .075-.368v-5.894a1.033 1.033 0 0 0-.056-.357.439.439 0 0 0-.275-.234 2.252 2.252 0 0 0-.378-.1 2.952 2.952 0 0 0-.4-.054v-.407h3.812a4.385 4.385 0 0 1 .985.1 2.763 2.763 0 0 1 .831.346 1.7 1.7 0 0 1 .575.6 1.756 1.756 0 0 1 .216.9 2.248 2.248 0 0 1-.144.832 1.732 1.732 0 0 1-.433.626 2.472 2.472 0 0 1-.627.427 5.091 5.091 0 0 1-.808.309c.4.536.749.977 1.018 1.343s.6.8.989 1.325a2.457 2.457 0 0 0 .874.778 1.208 1.208 0 0 0 .378.113 2.98 2.98 0 0 0 .378.047v.408zm-3.062-6.072a1.492 1.492 0 0 0-1.646-1.607h-.989v3.492h.762a1.786 1.786 0 0 0 1.875-1.884zm12.572 5.465l-3.425.262-.03-.411a3.4 3.4 0 0 0 .749-.171c.191-.074.286-.149.28-.233 0-.035-.014-.074-.022-.126a.46.46 0 0 0-.044-.131c-.269-.59-.552-1.176-.823-1.768l-2.891.218c-.088.278-.16.513-.208.719s-.1.394-.142.565a3.527 3.527 0 0 0-.075.408 1.383 1.383 0 0 0-.009.255c.009.152.14.256.392.326a2.884 2.884 0 0 0 .836.087l.031.41-3.1.234a18.196 18.196 0 0 0-.031-.408 1.849 1.849 0 0 0 .372-.1 1.193 1.193 0 0 0 .361-.174 1.437 1.437 0 0 0 .336-.356 1.855 1.855 0 0 0 .213-.482c.326-1.052.715-2.228 1.109-3.54s.77-2.473 1.076-3.5l.465-.034c1.075 2.275 2.2 4.525 3.276 6.8a1.566 1.566 0 0 0 .224.347 1.243 1.243 0 0 0 .33.245 1.143 1.143 0 0 0 .358.107 1.674 1.674 0 0 0 .364.034c.012.14.023.279.032.415zm-3.564-3.072c-.487-1.017-1-2.03-1.489-3.052-.321 1.083-.667 2.159-.991 3.24zm15.278-6.429l-.416.112a3.085 3.085 0 0 0-.747-.8 1.283 1.283 0 0 0-.868-.357 5.447 5.447 0 0 0-.42.079c-.163.04-.342.084-.548.138l-1.335.364.855 3.157c.3-.084.611-.168.916-.25a1.95 1.95 0 0 0 .625-.261 1.054 1.054 0 0 0 .318-.368 1.209 1.209 0 0 0 .1-.441 2.269 2.269 0 0 0-.027-.582l.42-.114q.425 1.551.84 3.094c-.136.037-.28.074-.42.114a2.767 2.767 0 0 0-.264-.524 1.6 1.6 0 0 0-.339-.389.852.852 0 0 0-.5-.172 2.24 2.24 0 0 0-.64.1l-.915.249.735 2.708a.712.712 0 0 0 .166.308.551.551 0 0 0 .317.161 1.573 1.573 0 0 0 .392-.01 2.62 2.62 0 0 0 .441-.056l.107.395-3.453.937-.108-.395c.112-.036.26-.092.441-.16a1.551 1.551 0 0 0 .347-.162.5.5 0 0 0 .187-.28.782.782 0 0 0-.016-.363l-1.54-5.674a1.05 1.05 0 0 0-.149-.311.519.519 0 0 0-.322-.156 2.282 2.282 0 0 0-.437-.019 2.229 2.229 0 0 0-.431.046l-.107-.4q3.128-.846 6.25-1.694l.533 1.976m9.205-.7l.9 2.259-5.814 2.807-.178-.368c.082-.047.2-.117.35-.215a1.371 1.371 0 0 0 .294-.224.491.491 0 0 0 .138-.311.765.765 0 0 0-.093-.36l-2.537-5.255a.9.9 0 0 0-.208-.282.49.49 0 0 0-.347-.1 1.515 1.515 0 0 0-.4.037 1.841 1.841 0 0 0-.392.1c-.056-.122-.119-.248-.176-.369l3.138-1.516.177.369a2.918 2.918 0 0 0-.351.232 2.165 2.165 0 0 0-.3.25.4.4 0 0 0-.14.329.77.77 0 0 0 .088.351l2.38 4.932a3.015 3.015 0 0 0 .289.508.513.513 0 0 0 .3.218.69.69 0 0 0 .414-.055 5.67 5.67 0 0 0 .681-.293c.131-.06.259-.132.4-.2a4.134 4.134 0 0 0 .377-.23 2.849 2.849 0 0 0 .3-.254.574.574 0 0 0 .161-.245 5.15 5.15 0 0 0 .155-.966 6.351 6.351 0 0 0 .019-.97l.372-.178m4.35-8.075a4.067 4.067 0 0 1 1.425.732 5.01 5.01 0 0 1 1.165 1.363 4.844 4.844 0 0 1 .625 1.677 4.036 4.036 0 0 1-.065 1.607 4 4 0 0 1-3.344 2.94 3.723 3.723 0 0 1-1.531-.129 3.935 3.935 0 0 1-1.4-.747 4.875 4.875 0 0 1-1.123-1.309 4.824 4.824 0 0 1-.633-1.692 4.239 4.239 0 0 1 .058-1.6 3.855 3.855 0 0 1 .663-1.386 3.816 3.816 0 0 1 1.149-1.029 3.908 3.908 0 0 1 1.487-.524 3.742 3.742 0 0 1 1.522.093zm2.19 5.42a3.822 3.822 0 0 0-.191-1.264 6.7 6.7 0 0 0-.622-1.342 6.989 6.989 0 0 0-.924-1.245 3.838 3.838 0 0 0-1.03-.777 2.329 2.329 0 0 0-1.081-.247 2.176 2.176 0 0 0-1.092.326 2.085 2.085 0 0 0-.855.878 2.519 2.519 0 0 0-.258 1.131 3.98 3.98 0 0 0 .228 1.237 7.045 7.045 0 0 0 .6 1.3 7.2 7.2 0 0 0 .887 1.209 3.811 3.811 0 0 0 1.009.776 2.379 2.379 0 0 0 1.086.274 2.212 2.212 0 0 0 1.13-.331 2.239 2.239 0 0 0 .819-.821 2.3 2.3 0 0 0 .292-1.107zm10.242-5.56c-.6.429-1.213.861-1.818 1.288-.837-.347-1.584-.612-2.225-.843s-1.334-.429-2.048-.648l-.694.489 1.5 2.109a1.142 1.142 0 0 0 .252.246.475.475 0 0 0 .362.033 1.692 1.692 0 0 0 .343-.151 3.819 3.819 0 0 0 .383-.224l.237.334q-1.423 1.011-2.847 2.018c-.079-.107-.159-.221-.238-.331.075-.057.175-.146.311-.267a1.488 1.488 0 0 0 .256-.276.472.472 0 0 0 .078-.323.736.736 0 0 0-.146-.342q-1.708-2.4-3.409-4.809a1.018 1.018 0 0 0-.252-.255.416.416 0 0 0-.357-.034 2.946 2.946 0 0 0-.718.327l-.238-.335 3.108-2.2a4.5 4.5 0 0 1 .862-.483 2.656 2.656 0 0 1 .878-.2 1.706 1.706 0 0 1 .812.152 1.737 1.737 0 0 1 .7.606 2.1 2.1 0 0 1 .364.766 1.711 1.711 0 0 1 .014.757 2.488 2.488 0 0 1-.267.71 4.7 4.7 0 0 1-.483.718c.641.208 1.179.364 1.61.506s.957.305 1.573.511a2.452 2.452 0 0 0 1.164.128 1.312 1.312 0 0 0 .373-.126 2.988 2.988 0 0 0 .336-.181c.076.112.159.224.235.336zm-6.006-3.183a1.5 1.5 0 0 0-2.277-.361l-.809.573 2.023 2.852.625-.443a1.792 1.792 0 0 0 .437-2.621zm12.81-1.951c.226.768.454 1.539.686 2.305l-6.432 2.385c-.047-.126-.1-.255-.143-.382a4.337 4.337 0 0 0 .42-.209 1.612 1.612 0 0 0 .33-.2.566.566 0 0 0 .165-.3.706.706 0 0 0-.053-.354q-1.021-2.748-2.038-5.5a.953.953 0 0 0-.178-.294.527.527 0 0 0-.334-.126 1.985 1.985 0 0 0-.436.023 2.063 2.063 0 0 0-.424.082c-.046-.126-.1-.256-.141-.383l5.993-2.224.682 1.843c-.136.053-.276.1-.408.153a2.627 2.627 0 0 0-.793-.694 1.231 1.231 0 0 0-.882-.249 3.546 3.546 0 0 0-.411.116c-.165.056-.34.115-.543.189l-1.215.451c.373 1.01.752 2.025 1.125 3.034.291-.108.579-.216.876-.325a1.811 1.811 0 0 0 .588-.308.852.852 0 0 0 .241-.381 1.438 1.438 0 0 0 .051-.5 2.733 2.733 0 0 0-.071-.532l.41-.151 1.111 3c-.138.053-.277.1-.411.152a3.119 3.119 0 0 0-.318-.509 1.467 1.467 0 0 0-.358-.34.846.846 0 0 0-.484-.131 2.067 2.067 0 0 0-.6.146l-.877.325c.285.767.566 1.531.851 2.3a2.7 2.7 0 0 0 .252.525.53.53 0 0 0 .3.231.824.824 0 0 0 .435-.014c.173-.046.411-.121.711-.231.121-.047.277-.1.476-.175a3.493 3.493 0 0 0 .488-.21 4 4 0 0 0 .4-.238.678.678 0 0 0 .252-.271 3.431 3.431 0 0 0 .238-.98 5.355 5.355 0 0 0 .066-.9c.13-.051.259-.1.394-.149m6.907-5.658a3.984 3.984 0 0 1 1.026 1.232 4.982 4.982 0 0 1 .535 1.711 4.737 4.737 0 0 1-.081 1.787 4.057 4.057 0 0 1-.688 1.456 3.784 3.784 0 0 1-1.135 1 3.863 3.863 0 0 1-1.47.5 3.771 3.771 0 0 1-1.618-.109 3.676 3.676 0 0 1-1.363-.716 3.98 3.98 0 0 1-.989-1.232 4.715 4.715 0 0 1-.525-1.646 4.844 4.844 0 0 1 .079-1.8 4.213 4.213 0 0 1 .685-1.448 3.867 3.867 0 0 1 2.614-1.512 3.951 3.951 0 0 1 1.572.1 3.771 3.771 0 0 1 1.358.685zm-.106 5.845a3.858 3.858 0 0 0 .323-1.24 7.083 7.083 0 0 0-.052-1.477 6.825 6.825 0 0 0-.364-1.506 3.756 3.756 0 0 0-.637-1.119 2.346 2.346 0 0 0-.9-.65 2.2 2.2 0 0 0-1.131-.128 2.071 2.071 0 0 0-1.137.473 2.49 2.49 0 0 0-.681.939 4.03 4.03 0 0 0-.271 1.226 7.187 7.187 0 0 0 .387 2.892 3.666 3.666 0 0 0 .627 1.108 2.275 2.275 0 0 0 .886.678 2.187 2.187 0 0 0 1.172.136 2.227 2.227 0 0 0 1.072-.431 2.322 2.322 0 0 0 .7-.9z" stroke="#000" stroke-miterlimit="3.111" stroke-width=".653"/><path d="M468.7 266.93h62.719m5.133 0h8.818v51.57c0 10.256-1.423 51.095-45.3 66.956-43.965-15.861-45.389-56.7-45.389-66.956v-51.57h8.881" fill="none" stroke="#000" stroke-miterlimit="3.111" stroke-width=".949"/><path d="M494.077 132.865c-3.4.028-7.166 1.66-11.032 5.807v0c9.3-2.73 13.4 3.438 17.282 7.373a154.346 154.346 0 0 0-33.489 3.724c-3.6-7.951-16.312-17.628-26.189-2.982 9-4.25 14.057 1.643 18.6 4.883a152.738 152.738 0 0 0-26.761 10.251c-.031-.062-.051-.142-.082-.2-3.71-7.09-23.02-15.741-27.565 3.831 9.515-9.872 18.98 1.046 24.626-2.1a154.058 154.058 0 0 0-24.427 15.873c-.04-.05-.074-.119-.114-.166-5.159-6.131-25.9-10.457-26.088 9.628 7.01-11.443 18.293-3.387 23.288-7.089A154.847 154.847 0 0 0 380 204.375c-.119-.13-.232-.294-.352-.41-5.751-5.587-26.82-7.827-24.984 12.174 5.981-12.411 18.545-4.761 22.839-9.7a5.528 5.528 0 0 0-1.182 2.77 153.765 153.765 0 0 0-15.644 26.637c-7.1-3.8-27.9-.277-20.687 18.451h0c2.368-13.556 16.555-9.57 19.336-15.478-.029.061-.036.129-.062.192a152.757 152.757 0 0 0-9.655 31.155c-8.745.213-23 8.491-12.662 23.151-.739-9.889 6.671-12.425 11.357-15.465a155.013 155.013 0 0 0-1.579 22.067c0 2.223.056 4.431.15 6.631-7.894 3.43-18.259 17.781-1.895 26.715-4.63-7.824-.4-13.106 2.539-17.614a153.063 153.063 0 0 0 5.616 28.308c-7.391 4.758-14.929 18.064.612 25.875-4.956-7.754-.762-13.212 2.024-17.851a153.221 153.221 0 0 0 12.64 26.709c-5.928 6.406-9.846 22.132 7.829 25.1-7.209-6.077-4.572-12.679-3.327-17.991a154.74 154.74 0 0 0 19.942 23.945c-5.585 6.666-8.667 22.916 9.349 24.707-8.678-6.367-4.588-14.309-4.265-19.935a154.332 154.332 0 0 0 28.688 20.345c-1.569 8.6 3.094 23.256 19.493 17.266-8.871-1.641-10.2-8.125-11.67-13.255A152.711 152.711 0 0 0 466.541 450c-.153 8.708 5.755 20.944 20.742 14.3-9.119-1.061-10.79-7.642-12.646-12.7a154.85 154.85 0 0 0 25.967 2.194c1.683 0 3.356-.038 5.026-.092 1.9 8.527 12.018 20.314 24.782 8.347-9.682 2.158-13.3-4.628-16.979-8.793A153.141 153.141 0 0 0 547 446.664c5.266 7.006 18.057 13.312 25.511-1.621-7.249 4.651-12.57 1.348-17.067-1.329a153.309 153.309 0 0 0 25.518-12.561c6.572 5.355 25.046 7.671 24.775-11.254-4.8 8.265-11.965 6.708-17.49 6.488a154.72 154.72 0 0 0 24.4-21.032c7.736 4.137 23.674 4.152 22.61-13.392-4.4 8.463-11.625 7.248-17.151 7.276a154.283 154.283 0 0 0 18.1-26.576c8.61 1.465 24.344-4.025 16.875-20.4h0c-1.044 9.229-7.9 10.808-13.018 12.718a152.678 152.678 0 0 0 10.837-31.992c8.6-1.864 20.5-11.84 8.542-24.548 1.761 8.027-2.753 11.818-6.748 14.971a155.006 155.006 0 0 0 1.783-23.493c0-1.1-.019-2.192-.042-3.285 8.376-2.675 19.293-13.814 6.078-25.3 2.879 8.778-2.618 13.034-6.478 16.859a153.576 153.576 0 0 0-4.16-25.726c7.39-4.4 15.816-19.928-1.543-26.732 5.946 7.64 1.592 13.683-.694 18.7a152.868 152.868 0 0 0-10.745-25.98c6.243-6.056 10.988-21.976-6.8-25.541 7.082 6.366 4.107 12.949 2.708 18.246a154.366 154.366 0 0 0-16.1-22.217c3.307-8.1 1.779-23.336-15.482-20.856 7.3 3 8.131 8.447 8.48 13.333a154.7 154.7 0 0 0-19.808-16.82c2.384-8.252-1.94-25.1-19.287-18.6v0c9.195 1.622 10.358 8.486 11.946 13.675a153.275 153.275 0 0 0-27.522-13.714c1.461-8.482-4.563-24.615-21.088-16.465 10.287.772 11.462 8.933 13.942 13.962a153.279 153.279 0 0 0-39.313-7.214c-1.327-5.8-7.031-13.443-14.492-13.382zm6.527 17.008c.764 0 1.524.018 2.285.029-5.171 3.1-9.62 13.307-20.739 10.459 11.978 13.532 25.127-1.9 26.579-10.267a149.61 149.61 0 0 1 38.541 7.185c-5.781 1.771-13.174 8.324-21.93 2.177 6.265 16.633 23.684 7.356 28.35.085a149.529 149.529 0 0 1 29.8 15.286c-6.03.337-14.705 7.734-23.463.173 4.525 17.062 22.6 9.77 28.105 3.034a150.807 150.807 0 0 1 22.458 19.827 4.953 4.953 0 0 0 1.6 2.357c-5.2-3.993-17.436 4.877-25.427-5.823.761 18.676 22.289 13.9 27.852 7.975a150.329 150.329 0 0 1 16.432 23.356c-5.241-2.981-16.693-1.178-20.088-12.279-5.429 17.255 14.846 20.332 22.744 17.152a149.06 149.06 0 0 1 10.99 27.37c-4.922-3.484-15.735-4.1-17.061-15.209-8.161 15.573 9.926 22.229 18.617 21a150.057 150.057 0 0 1 4.219 29c-1.929-5.77-14.631-9.582-11.83-21.722-13.79 12.7 3.8 25.812 11.97 26.185.015.9.032 1.795.032 2.7a150.9 150.9 0 0 1-2.64 28.118 4.568 4.568 0 0 0-.6 1.97c.334-6.515-13.982-11.425-9.691-24.043-14.981 11.249 1.128 26.019 9.225 27.239a148.938 148.938 0 0 1-11.923 33.467c-.354-5.988-8.931-14.279-1.713-23.665-17.3 5.717-7.931 23.875-.713 28.352a150.307 150.307 0 0 1-19.449 27.806c1.956-5.679-3.24-16.59 6.966-22.854-18.66-.806-15.874 20.5-10.482 26.7a150.714 150.714 0 0 1-25.954 21.875c1.291-5.862-2.127-15.91 7.647-21.315-17.247-1.53-16.948 16.761-12.748 24.574a149.371 149.371 0 0 1-27.965 13.276 4.907 4.907 0 0 0-2.669.026c6.263-1.982 5.852-17.008 19.265-17.461-16.07-10.075-24.353 10.7-22.4 18.45.067.265.193.548.293.824a149.585 149.585 0 0 1-33.779 6.315c5.4-2.7 10.54-12.7 21.491-9.112-11.439-14.836-26.3 1.39-27.412 9.411-1.59.05-3.183.085-4.785.085a150.96 150.96 0 0 1-28.155-2.643 4.683 4.683 0 0 0-1.8-1.328c6.1 2.433 15.429-9.408 26.058-1.28-5.917-17.925-25.643-7.145-29.108.062a9.055 9.055 0 0 0-.527 1.426 149 149 0 0 1-36.244-13.415c-.021-.01-.034-.029-.055-.039 5.923 2.837 16.032-8.353 26.084.472-4.658-18.172-24.835-8.965-28.955-2.018a150.327 150.327 0 0 1-26.364-18.584c5.9 1.149 14.785.24 18.659 9.479 3.684-17.741-16.893-18.771-24.4-14.8a150.675 150.675 0 0 1-21.606-26.493c5.153 3.141 17 .609 20.837 11.865 4.933-17.626-15.983-19.9-23.555-16.3a149.212 149.212 0 0 1-13.828-30.765c2.111 6.1 17.029 5.93 17.366 19.15 10.28-15.839-10.517-24.239-18.362-22.392a149.554 149.554 0 0 1-5.668-31.091c4.136 4.369 15.532 6.075 15.427 17.637 10.057-14.39-6.932-23.252-15.726-23.164a151.795 151.795 0 0 1-.124-5.817 151.319 151.319 0 0 1 1.778-23.145c2.177 5.6 10.843 12.021 5.781 22.012 16.028-8.841 3.2-25.1-4.717-28.044a148.907 148.907 0 0 1 6.882-24.066c1.9 5.286 4.475 11.614-1.1 18.031 15.809-4.2 10.766-19.693 4.551-26.367a149.751 149.751 0 0 1 12.627-22.588c.358 5.281.44 11.3-6.061 15.57 15.965.2 15.751-15.271 11.868-23.545a150.815 150.815 0 0 1 18.418-19.707c-.253 5.779.3 13.19-7.728 17.383 16.158 1.819 17.264-14.2 14.021-22.715a150.1 150.1 0 0 1 19.339-13.164c-1.49 5.58-2.59 12.877-11.293 15.244 15.368 5.222 19.926-10.149 18.617-19.16a149.019 149.019 0 0 1 28.333-10.73c-4.536 3.962-7.384 14.5-18.7 13.425 14.312 11.795 25.047-6.648 24.626-14.876a150.62 150.62 0 0 1 32.806-3.6z" fill="#338a00" stroke="#075400" stroke-miterlimit="6.667" stroke-width=".497"/><path d="M408.918 366.938a33.7 33.7 0 0 0-.95 5.129c0 .474-.473 3.039.95 3.133 1.045.1 1.33-2.66 1.33-2.66s-.952 3.039.284 3.419c1.71.376 1.9-3.324 1.9-3.324-.19 1.045-1.33 3.7.286 3.985 1.708.288 2.184-3.608 2.184-3.608s-1.425 3.9.283 3.99c1.615.093 1.615-3.8 1.615-3.8s-.856 4.655 1.423 4.275c1.233-.191 1.52-1.806 1.805-2.755.379-1.423 1.234-3.227.19-6.172-.758-2.184-.473-2.753-.473-2.753s-2.66 2-4.748 3.323c-.952.569-6.08-2.184-6.08-2.184zm27.73-4.088c-.475-.287-.379 1.709-.57 2.656-.095.952.192 3.04 3.42 2.851 3.131-.286 6.267-.95 8.26-.476a27.387 27.387 0 0 0 6.554.665 9.618 9.618 0 0 0 3.416-.476c.666-.282 2.091.382 2.753.382s1.71-1.045 1.615-1.71c-.1-1.236-1.232-1.236-2.849-1.329a27.314 27.314 0 0 1-4.651-.855 28.806 28.806 0 0 0-5.318-1.9s-4.558.192-5.5.192-6.554.282-7.125 0z" fill="#ad7d5a" stroke="#000" stroke-miterlimit="3.111" stroke-width=".475"/><path d="M421.36 369.6l-.191-4.368 1.8 1.522.475-3.325c.759-.19 2 1.33 2 1.33l-.191-3.322 2.753 3.038a8.134 8.134 0 0 1 .758-4.084s2.088 1.805 2.088 3.894c0 1.808 1.8-2.564 1.8-2.564.476 1.521 1.52 4.844 1.52 4.844l1.232-1.806 1.045 3.8 2.278-3.323 1.8 3.9 4.084-.287.476 2.28 1.8-1.994 2.375 1.519a15.564 15.564 0 0 1 3.039-.569c1.045 0 2.279 1.328 2.279 1.328a6.294 6.294 0 0 1 1.519-1.8c.759-.476 1.805.757 2.086 1.517l1.522-2.753a15.686 15.686 0 0 1 2.277 2.753 11.427 11.427 0 0 1 .761-3.039c.476-.758 1.232.287 1.8 1.236l1.234-4.083a3.931 3.931 0 0 1 2.277 1.8c1.046 1.517 1.046-2.282 1.046-2.282a20.874 20.874 0 0 1 2.85 5.129m57.167-.76a10.4 10.4 0 0 1 1.8-3.132s1.994 2.376 1.994 3.134a13.3 13.3 0 0 0 1.614-1.042l1.519 1.516 1.806-1.232 1.709 1.519 3.135-1.329 1.232 1.329 4.841-.568 1.807.757 1.708-2.181 1.615 1.707 2.563-2.561a6.442 6.442 0 0 1 1.519 1.8 9.167 9.167 0 0 0 2.564-1.8s1.993-.76 2.277.471c0 0 1.232-.95 1.139-1.994s1.423-.283 1.9 1.047c0 0 .57-2.09 2.091-2.282a4.726 4.726 0 0 1 .756 3.516 12.971 12.971 0 0 1 3.325-1.994 11.088 11.088 0 0 1-.284 4.844s2.374-3.9 2.849-2.565a10.923 10.923 0 0 1 .189 5.127l2.09-1.329.759 2.566 2.277-.476M473.235 381.7a17.933 17.933 0 0 1 2.753-3.608 10.4 10.4 0 0 1 3.038 4.084 10.428 10.428 0 0 1 1.045-2.847s2.849 1.325 3.323 3.133a8.93 8.93 0 0 1 1.805-2.277c.759-.574 1.519 1.991 1.519 3.511 0 0 1.805-1.9 2.85-2 0 0 1.994.949 2.563 4.275 0 0 1.9-1.8 2.564-1.521 0 0 2.278 1.521 1.708 3.609-.284 1.138 2.28-1.327 5.413-2.088l2.753 2.088s2.564-3.418 3.323-4.56c0 0 2.091.759 2.091 2 0 0 .95-3.612 1.708-3.988.759-.475 1.8 1.138 1.8 2.184 0 0 .286-2.754 1.806-3.325 0 0 1.519 1.043 1.519 2.091 0 0 1.615-3.134 2.85-3.9" fill="none" stroke="#060" stroke-miterlimit="3.111" stroke-width=".475"/><path d="M421.36 369.6l-.191-4.368 1.8 1.522.475-3.325c.759-.193 2 1.33 2 1.33l-.191-3.326 2.753 3.04a8.143 8.143 0 0 1 .758-4.086s2.088 1.806 2.088 3.895c0 1.808 1.8-2.565 1.8-2.565.476 1.521 1.52 4.844 1.52 4.844l1.232-1.805 1.046 3.8 2.28-3.324 1.8 3.9 4.084-.287.476 2.277 1.8-1.992 2.374 1.519a15.572 15.572 0 0 1 3.04-.57c1.045 0 2.279 1.332 2.279 1.332a6.327 6.327 0 0 1 1.519-1.811c.757-.471 1.806.762 2.087 1.521l1.521-2.753a15.775 15.775 0 0 1 2.277 2.753 11.388 11.388 0 0 1 .759-3.038c.476-.76 1.232.286 1.805 1.236l1.231-4.084a3.933 3.933 0 0 1 2.279 1.805c1.043 1.518 1.043-2.278 1.043-2.278a20.736 20.736 0 0 1 2.847 5.126s-15.723 5.4-26.811 3.922c-13.051-1.737-23.8-4.206-23.8-4.206m107.786-.474a10.4 10.4 0 0 1 1.806-3.136s1.992 2.377 1.992 3.136a13.144 13.144 0 0 0 1.615-1.045l1.518 1.518 1.806-1.232 1.711 1.517 3.131-1.33 1.234 1.33 4.842-.567 1.8.758 1.709-2.184 1.615 1.708 2.563-2.564a6.486 6.486 0 0 1 1.532 1.797 9.043 9.043 0 0 0 2.564-1.806s1.994-.759 2.277.476c0 0 1.235-.952 1.141-1.994s1.424-.286 1.9 1.043c0 0 .569-2.087 2.087-2.278a4.718 4.718 0 0 1 .759 3.516 12.877 12.877 0 0 1 3.323-2 11.1 11.1 0 0 1-.284 4.846s2.373-3.9 2.849-2.565a10.9 10.9 0 0 1 .191 5.125l2.088-1.328.757 2.565 2.278-.476a122.715 122.715 0 0 1-26.181.854 109.009 109.009 0 0 1-24.617-5.7m-9.388 9.428c.617-.381-4.242 10-16.024 10.547-16.393.767-30.406-7.411-30.406-7.411a18 18 0 0 1 2.753-3.61 10.4 10.4 0 0 1 3.038 4.083 10.4 10.4 0 0 1 1.046-2.847s2.849 1.326 3.322 3.133a8.958 8.958 0 0 1 1.806-2.277c.759-.573 1.52 1.991 1.52 3.514 0 0 1.8-1.9 2.848-2 0 0 2 .951 2.565 4.275 0 0 1.9-1.8 2.562-1.521 0 0 2.279 1.521 1.708 3.609-.283 1.142 2.279-1.326 5.414-2.087l2.753 2.087s2.563-3.416 3.323-4.56c0 0 2.091.763 2.091 2 0 0 .95-3.61 1.708-3.989.759-.474 1.8 1.139 1.8 2.186 0 0 .287-2.755 1.806-3.324 0 0 1.519 1.043 1.519 2.09 0 0 1.611-3.136 2.847-3.9z" fill="#5ac800"/></svg>