<svg xmlns="http://www.w3.org/2000/svg" xmlns:xlink="http://www.w3.org/1999/xlink" viewBox="0 0 1000 500">
<rect width="1000" height="500" fill="#0021ad"/>
<path d="M0,0H1000V500z" fill="#1c8a42"/>
<circle cx="500" cy="250" r="90.32" fill="#ffc639"/>
<path fill="#1c8a42" d="m444.84,209.43c6.1786,8.4767,15.542,22.689,23.072,18.979,5.8763,0.0202,8.9102,0.43341,9.7064,4.3442,13.859,2.3586,37.153-3.4875,51.647-22.366,0,0,1.2196,0.16127,0.79627-7.0152,0.0806-3.1246,4.2736-2.4997,4.3744-1.4817,0.5846,1.5522,0.4838,2.7114,1.27,2.7517,1.784-0.59468,4.2233-4.5962,6.2694-7.1362,0.55436-1.1188,0.25198-2.2981,0.38301-3.7092,1.0785-2.6509,3.7697-2.0763,4.3341-0.68539,0.51404,0.89706,0.52412,1.5825,1.0281,2.4795,2.7315,1.8244,7.6603,0.12095,8.0433,0.12095,0.48381-2.2275,1.9151-2.0159,1.9151-2.0159,1.8244-0.40317,1.1087-0.24191,2.3082,0.38302-1.0583,12.005,2.3586,12.539,2.0764,18.697,0.12095,6.8741-2.0764,8.8295-2.0764,11.45,0.69548,3.2052,10.835,3.3161,7.2672,6.0275-3.1347,1.6732,0.0101,4.8078-4.7071,6.0275-13.728,6.9648-16.359,12.942-16.359,12.942s-3.4471,6.5113-3.8302,6.5113c-2.2981,4.3442-5.211,1.9756-6.8338,4.0922-0.80635,2.661-1.7135,8.5574-0.1008,11.622,0.80635,4.2132-0.10079,6.5113-1.1087,10.724-0.90714,8.7892-4.3946,10.12-4.7978,13.204-1.6127,3.296,0.3427,18.778-1.1894,18.778-10.22,0.20159-18.052-1.9554-22.094-2.7617,3.941-16.984,2.409-31.901,2.409-33.433-1.0079-12.146-18.193-9.1924-20.824-10.805-2.1772-0.46366-3.5479-2.2376-4.314-3.0036-2.4291-0.26207-3.3363-0.81643-5.7654-1.0684-1.2095,0.60477-0.48381,1.2297-3.1851,2.0663-6.854,0.82651-9.8778-5.9771-9.8778-5.9771,0.33262-2.288-15.411,0.46365-23.969-1.522-3.5076,1.9554-5.0397,7.741-7.9123,8.4263-0.0806,1.7941-4.7272-1.4716-5.6646-3.2355-0.19151-5.1304,4.4752-7.3982,4.4752-7.3982,3.7092-2.6106,5.9065-3.0339,7.6906-4.8381,0.89706-4.4652,0.44349-7.7712,2.3485-11.128,1.6127-2.5602,3.9914-1.3607,5.6041-2.5098,1.7336-1.149,2.4694-8.6682,0.86683-10.724,0,0-6.9346-6.2593-7.3176-6.6423-2.2578-6.4709,2.6408-10.644,4.0418-10.17z"/>
<path fill="#ffc639" d="m877.93,97.555c-4.0922-16.194-40.721-51.071-68.247-73.265-6.5717-4.4773-10.855-1.8103-9.9987,4.573,3.427,5.716,5.9972,12,9.4242,17.716,0.95754,3.81,2.7618,6.477,3.7193,10.286,0,0,0.28222,6.5728,0.85674,7.1442,8.5675,9.4333,9.7165,17.432,9.7165,17.432,4.949,9.526,9.3335,16.478,18.002,24.29,9.7165,6.098,2.5702,25.047,2.8525,35.147,0,6.3802-4.566,5.6243-8.5674,4.8582-31.528-28.958-62.774-29.049-90.301-37.435-10.765-1.139-10.956,4.0015-7.4285,6.854,19.242,20.582,37.334,34.582,61.151,46.294,4.0015,2.4795,8.003,4.959,12.005,7.4386,4.566,3.81,9.142,7.62,13.708,11.43,10.573,6.854,11.44,13.143,11.44,13.708,0.28222,12.861-6.5818,22.86-8.5775,26.861-3.6084,13.637-10.855,16.006-10.855,16.006-58.874,39.723-89.737,50.004-185.18,37.717-1.4313-0.75595-10.573,0.76603,0,4.576,24.291,8.0937,83.961,21.076,141.69-6.2593,13.859-9.7165,23.132-6.5314,33.171-12.347,16.49-10.17,40.035-22.83,44.319-24.251,12.861-6.864,48.865-14.575,57.16-21.439,9.5149-0.76603,19.393-2.0159,20.058-10.2,3.1246-2.026,7.7006-0.54428,11.097-7.2168,7.5494-1.3103,6.2794-4.0116,6.2794-4.0116-1.905-5.332-8.9606-7.5293-14-11.43-7.4386-2.4795-12.579-3.2456-18.012-0.57452-1.7135,0.76603-3.427,1.522-5.1405,2.288,0,0-8.003-1.149-8.003-1.7135-17.78-0.9777-16.046-59.902-22.336-84.478z"/>
<path fill="#1c8a42" d="m919.63,194.01a4.4025,2.7511,15.947,0,1,-8.3961,-2.6368,4.4025,2.7511,15.947,0,1,8.3961,2.6368z"/>
<g fill="#fff">
<path id="s" d="m188.16,190.94-12.751-11.936-12.904,11.77,1.383-17.405-17.249-2.753,14.475-9.7743-8.6056-15.197,16.668,5.2197,6.5177-16.204,6.3099,16.287,16.734-5.0072-8.8005,15.086,14.348,9.959-17.283,2.5313,1.1585,17.424z"/>
<path d="m233.39,335.53-13.752-9.1669-13.391,9.6641,4.7117-15.568-13.582-9.4155,16.667-0.44539,4.9883-15.496,5.5945,15.299,16.667-0.15537-13.21,9.9023,5.3073,15.382z"/>
<use xlink:href="#s" x="2.5215" y="269.0608"/>
<use xlink:href="#s" x="-112.0655" y="123.2228"/>
<use xlink:href="#s" x="108.4275" y="85.0268"/>
</g>
</svg>
