<svg xmlns="http://www.w3.org/2000/svg" xmlns:xlink="http://www.w3.org/1999/xlink" viewBox="0 0 900 600"><path fill="#fff" d="M0 0h900v600H0z"/><path id="a" d="M463.1 506.741a1.01 1.01 0 01-.347-.245l-.125-.117a21.523 21.523 0 01-1.582-1.643c-1.332-1.513-3.119-3.728-4.69-5.685-3.115-3.883-5.689-7.228-6.174-7.858l-.793-1.032-7.767-2.395-5.671-2.644 3.03-3.406 10.408 4.456 7.767 1.594 14.363 10.564-.011.009c-.029.024-2.089 1.738-4.136 3.6-.913.83-2.064 1.9-2.877 2.783-.335.359-.646.74-.93 1.14a9.004 9.004 0 00-.465.88m-53.34-16.02a39.63 39.63 0 01-19.895-5.567h-.007v-.008a10.24 10.24 0 012.878-3.1c1.941-1.425 5.442-3.128 11.1-3.15h.117c6.7 0 14.9 2.278 24.373 6.771a36.022 36.022 0 01-18.566 5.054l.01.01-.01-.01zm-29.37-6.51a4.241 4.241 0 01-3.17-1.333A6.439 6.439 0 01375.8 480a14.656 14.656 0 01-.351-4.217 4.336 4.336 0 011.562-.354h.112c2.511 0 4.49 2.178 5.338 4.337a4.35 4.35 0 01.274 3.067 2.417 2.417 0 01-2.34 1.37l-.005.009zm51.68-5.99c-17.359-2.479-24.717-8.755-27.833-13.583a15.705 15.705 0 01-2.634-9.96v-.014h.013c.872-.2 1.764-.299 2.658-.293 4.618 0 16.43 2.323 27.8 23.842l.007.014-.02-.01.009.004zm-35.58-3.44c-7.416 0-13.062-1.28-16.782-3.8a10.304 10.304 0 01-3.686-4.125 6.75 6.75 0 01-.594-2.023 22.704 22.704 0 017.765-1.65c.383-.018.769-.029 1.174-.03 5.732 0 14.448 1.87 23.646 10.78l.009.009h-.011a90.034 90.034 0 01-11.53.84l.009-.001zm-35.91-1.38c-7.82 0-18.563-2.388-25.263-9.087l-.007-.008h.02a78.487 78.487 0 0115.523-2.062c.488-.012.98-.018 1.475-.019 7.332 0 12.944 1.422 16.682 4.225a4.942 4.942 0 012.178 2.783 2.28 2.28 0 01-1.056 2.15c-1.683 1.271-4.692 1.949-8.945 2.017l-.6.02-.007-.019zm-25.34-13a3.206 3.206 0 01-2.479-1.167 5.87 5.87 0 01-1.108-2.522 14.298 14.298 0 01-.291-3.674v-.018c.382-.176.797-.27 1.217-.275a3.784 3.784 0 012.589 1.158 6.956 6.956 0 011.688 2.645 4.03 4.03 0 01.18 2.635 1.915 1.915 0 01-1.8 1.21l.004.008zm58.53-1.32a4.241 4.241 0 01-3.17-1.333 6.45 6.45 0 01-1.422-2.878 14.656 14.656 0 01-.351-4.217 4.336 4.336 0 011.562-.354h.112c2.511 0 4.49 2.178 5.338 4.337a4.35 4.35 0 01.274 3.067 2.413 2.413 0 01-2.34 1.37l-.003.008zm-28.51-1.18c-15.737-.554-23.9-5.027-27.984-8.683a18.3 18.3 0 01-4.24-5.447 11.649 11.649 0 01-.908-2.438l.021-.009a13.461 13.461 0 013.885-.579h.368c5.307 0 16.111 2.229 28.852 17.153v.01l.006-.007zm17.09-1.59c-12.661-1.928-19.834-7.363-23.622-11.585a24.177 24.177 0 01-5.213-8.738 18.622 18.622 0 013.9-.469c.169 0 .345-.007.524-.007s.365 0 .553.007c6.368.139 17.934 3.023 23.855 20.785h.01l-.007.007zm-65-6.08a49.336 49.336 0 01-11.96-1.432c-6.629-1.658-9.473-4.189-10.691-6.021a6.318 6.318 0 01-1.031-2.534 4.282 4.282 0 01-.031-1.073l.031-.011a45.238 45.238 0 0110.464-1.328c.239 0 .48-.006.725-.006a43.806 43.806 0 018.564.83 27.146 27.146 0 0116.053 10.14v.009h-.013a49.635 49.635 0 01-12.12 1.42l.009.006zm29.39-10.68a4.244 4.244 0 01-3.172-1.3 6.49 6.49 0 01-1.42-2.908 14.4 14.4 0 01-.351-4.185 4.336 4.336 0 011.562-.354h.112c2.506 0 4.488 2.179 5.339 4.338a4.25 4.25 0 01.243 3.034 2.356 2.356 0 01-2.31 1.38l-.003-.005zm-22.1-3.03a48.225 48.225 0 01-11.967-5.225c-5.544-3.413-12.326-9.45-13.153-18.83h.014a7.14 7.14 0 011.278-.154c.1 0 .217-.006.334-.006 1.656 0 5.046.466 9.147 3.584 5.22 3.98 10.04 10.92 14.35 20.65l-.003-.019zm14.43-.53a39.027 39.027 0 01-9.469-6.084 60.759 60.759 0 01-16.716-23.33 7.698 7.698 0 013.655-.718c2.411.068 6.083 1.07 10.154 5.463 4.676 5.047 8.85 13.34 12.4 24.651l.01.032-.03-.01-.004-.004zm-37.39-1.09c-4.821 0-6.471-2.615-6.957-3.74a7.783 7.783 0 01-.554-3.707v-.02a10.615 10.615 0 012.4-.314h.165a9.918 9.918 0 018.084 3.841c.255.379 1.037 1.694.39 2.721-.52.81-1.7 1.22-3.53 1.22l.002-.001zM291 421.431a63.914 63.914 0 01-11.141-.952c-4.294-.781-6.728-4.432-8.013-7.356a25.55 25.55 0 01-1.8-6.254h.012c13.282.39 19.555 4.271 22.478 7.457a11.713 11.713 0 013.206 6.922h-.009c-.02 0-1.89.18-4.74.18l.007.003zm13.83-13.82a53.867 53.867 0 01-3.033-4.228c-1.573-2.445-3.028-5-3.028-7.084 0-2.016-.474-6.266-.757-8.619-.358-2.985-.72-5.54-.75-5.757h.013c.337.123 8.308 3.114 8.308 10.591s-.738 15.014-.745 15.089v.011h-.01l.002-.003zm-10.33-.71c-.084 0-.167-.008-.25-.021-2.356-.393-6.5-2.194-11.073-4.818-5.082-2.914-9.209-6.036-11.62-8.791-2.2-2.512-3.5-6.457-3.88-11.726a43.595 43.595 0 01.087-7.163 4.135 4.135 0 011.315-.2c1.764.029 3.647.823 6.189 2.574a49.763 49.763 0 016.49 5.514 99.384 99.384 0 017.2 7.971l.032.04c.265.475 2.537 4.571 4.307 8.558a27.554 27.554 0 012.024 5.746c.174.581.174 1.2 0 1.781a.902.902 0 01-.385.448c-.139.06-.289.091-.44.09l.004-.003z" fill="#4e5b31"/><use xlink:href="#a" transform="matrix(-1 0 0 1 900 0)"/><path d="M727.132 103.967l-2.355.938-.923.368-2.854-.157-2.673 1.283-4.74 3.239-.209.15-1.767.461-1.641-.708-.932.424-.321 1.92-.887 1.379-1.092.767-3.783.387-3.19 1.645-4.15-1.111-1.928.755-4.1 3.692-2.095.992-.732-.042-2.778-.143-1.173.384-1.752 1.693-3.315.258-1.033.715-1.618 3.26-1.753 1.808-1 .212-1.087-.4-.817.144-.37 2.086-.793.874-2.219.764-1.773 1.477-1.556.8-2.084-.052h-.479l-2.076 1.146-3.9.342-1.624 1.549-.358.331-.758.458-1.24.74-.3.184-1.5-.267-1.75.693-.708-1.089-1.211.727-1.6.069-2-.889-1.522-.678-1.113.161-.387 1.94-.039.206-1.17 1.557-2.184 1.323-.3.387-2.485 3.208-4.722 4.966-3.993 2.028-4.139 1.259-2.9 2.38-7.6 3.767-11.995 5.973-2.453.786-3.52.562-6.278 2.312-5.539 1.671-.308.094-1.1.332-7.81 2.363-3.635-.384-2.153.782-5.605-.622-3.9.077-2.467.513-4.637 2.224-7.827 3.762-2.586 2.366-4.027 2.1-4.715 1.493.011-1.981-.028-.084-1.636.517-1.181.373-3.825.59h-2.128l-1.321-.384-.2.069-7.818 2.569-8.719.842-4.363 1.4-3.26-.052-2.038.606-4 .489-1.428-.381-.322-.088-11.75.51-5.372-.607-2.564.583-4.3-1.446-6.269-.727-1.465-.439-3.3-.978-1.491.859-1.116.119-2.667-.967-.96-.024-2.2.8-1.267-.325-1.177-.938-2.761-.411-1.682-1.414-9.4 1.246-2.551-.75-8.554-2.492-1.361.069-1.7 1.271-2.548.929-2.212.575-3.012.1-3.5-.918-3.606-1.748-1.333-.317-2.974.3-.91.082-5.466-2.932-7.042-4.4-4.778-2.3-1.794-.291-.241.853.89 2.8.3 2.774-.091 2.563-.049 1.587.446 1.425 1.725 1.912.719 1.92.526 5.284-.006 5.362-.839 8.551-.283 1.3-1 4.43-.914 4.069-3.546 10.833-.974 1.343-2.391 1.631-5.419 3.688-3.99 2.3-1.263.523-3.239.245-2.018-.1-2.513-1.361-2.467-.635-3.232-2.324-3.6-.744-3.941-2.278-1.026-1.233-2.146-.2-2.976-.893v-.005l-1.093-.327-.755-.22-3.8-.1-3.54-1.634-1.864-.45-2.547-.129-2.666 1.239-1.351.629-1.707-.678-1.235.077-1.4 2.115-.172.323-.964.51-1.2-.017-.939-.025-1.016.444-1.368.593-1.208.527-.59.255-.01-.01-.363.073-.645.112-.8.153-1.41-.824-.75-.442-1.257-.256-.677.489-.133 2.3-.618 1.378-1.961 1.734-1.993 1.755-1.389 2.047-3.676 8.39-2.3 3.385-.715.789-2.418 2.66-2.136 1.657-4.922 3.815-4.659 1.741-4.013.82-1.951.008-3.7-.492-3.323-1.02-3.65-2.282-4-3.217-5.794-5.724-.82-.493-.171-.114-1.825-1.167-1.354.035-.53.874-.29 1.263-.245 1.12-.664 6.367.049.369.349 2.622 4.4 6.15 1.358 3.267.223.373.908 1.525.691 1.163.069.118 1.5 4.488-1.057 2.534.534 1.7-1.336 1.037-.245 1.465 3.951 4.953.862 2.185-.963 3.029-1.536 1.671-.429.457.216 1.28 1.818 1.635 3.089 2.75 1.647 4.086 1.253 1.1 1.456-.31.81.618 1.228-.021 1.208 1.208.782.379 1.236.616.977 1.272.216 3.911 1.822 4.86.028 2.635.01.374 1.134 1.948.356 1.538-.6 4.069 1.445 1.306 1.567-.32 1.012.16 1.626 1.354 1.969 3 1.926-.282 1.222.589 5.9 5.334 1.339.676.074.042.963.483 1.2 1.208 1.856-1.232.206-.021 2.018-.178.886.6 1.7 1.149 2.234-.029 4.844 1.485 2.119.543 4.261 2.648 1.811 1.12 1.072.871 1.424 1.161 2.845 1.224 2.44.584 1.322.314 1 .384.025-.062h.014l-.024.063 5.284 2.023 2.862.668 2.648.975 1.927.7 1.414.023 2-1.682 1.937-.112 1.609.4 1.57-.263 2.485-1.531.485-.719 1.762-.839 5.944-.738 1.737.564 4.46-1.94 2.988.831 2.645-.938 5.779 1.284 1.536 1.081 1.717 1.965.21.009 1.912.037-.8 1.331 2.523 2.647 2.279 3.445.154.455 1.657 4.864 1.232 1.723.862 2.405.042 1.568-1.34 1.022-.22.583-.076.216.272.655.506-.276.963-.533 1.172-.182 2.066.22 1.364.143 2.154-1.069 1.427-.71 2.293.987 2.52-.028 1.058.471 3 1.358 1.529.144.565-.371.36-.856-.185-1L397 377.23l-2.531-2.938-1.036-1.51-.789-2.186-.244-2.796-.174-1.885.314-2.477.68-.884.5-1.968h.009l.129-.515 1.406-1.866 3.724-2.393 4-3.582 3.162-2.085 3.26-1.412.087-.4.363.146 8.292-2.819.137-.016 3.692-.643 24.92 1.755.924-.279v-.006l.83-2.33.447-.432.3-.282 2.74-1.206 1.281-.183 3.556.878 1.456.359 2.332-1.307 1.654.028 3.417-1.866 2.111.053.8-.321 4.112-2.955 3.961-1.135 1.03-.548.363-.2 4.06-2.144 2.579-1.981 2.226-1.183 2.438-.629 6.38-.449 1.283-2.138 2.744-.366 1.657-1.87 1.9-.771 1.359-1.958 1.139-1.641 1.591-.921 5.1-.32 6.045.749.8-.485 1.366-4.875 1.43-.915 3.851-5.612.013-2.045v-1.708l.633-2.432-.43-4.391.51-4.446 2.394-5.65 2.109-2.279 3.4-2.3 1.729-.753 2.449-.412v.001l.36-.061.624-.107 8.433-.116c.117-.087 3.067-.042 3.067-.042l2.812-.038 7.116 1.264.506.088 2.4.779 2.774 2.157 2.938 2.869.551.535 1.9.8.575.251 1.571-.251 2.237-1.165 1.688-1.427 2.3-1.257.056-.08 1.295-1.948.039-.04.028.007v-.011h-.022l.511-.775 4.447-1.733 5.23-.3.588-.318.327-.175 1.382-1.623 1.295-.01 3.135 1.134 2.2-.438 1.75.7 1.36-.161 2.565-.3 2.754 1.937 1.605.2 5.658 3.31.294.048.152.028.324.054.671-.2 1-.289.132-.039.126.175.643.907.882.126 1.044-1.393-.415-.632-.157-.23-2.021-.411-1.815-3.1 1.728-1.861-2.711-3.326-.45-.551-.153-.234-.937-1.423-4.746-7.235-6.182-4.935-2.165-1.732-.014-.01-.758-.6-3.3-3.358-2.358-3.13-.309-.674-.487-1.062-1.413-3.078-2.462-1.9-2.006-2.191-.1-.129-4.14-5.626-.68-.943-.978-.565-2.066-.014-.2-.2-.116-.121.07-.074.991-.985 1.105-.278.476-1.089-2.108-6.1-.014-.213-.157-1.95 1.718-8.855.22-1.079 2.928-5.958 1.814-1.486 1.98-3.892 1.7-2.488 1.625-1.582.284-.168 2.934-1.776 2.465-.347 2.348-.331 4.1 1.264 3.9-.076.761-.081 1.77-.2 2.911-.917 1.374-.848.713-1.093 1.487-4.987.478-1.587.917-1.724 5.306-6.108 4.011-3.71 9.019-6.613 4.415-2.639 2.254-1.347 20.126-8.946 5.23-5.3 2.725-2.758 4.821-3.235 5.641-2.311 4.854-3.842 1.06-1.334 1.336-4.3 1.113-.269 1-2.174.286-.618 3.961-2.792.448-.223 15.388-7.71 2.236.307 1.2-1.793 4.477-.751.824-.14 1.1-.551.939-1.6v-.316l.129-4.273.956-1.155.521-2.816.491-.65.513-.676 1.268-.891-.22-.531.032.031z" fill="#d57800"/></svg>