<svg clip-rule="evenodd" fill-rule="evenodd" image-rendering="optimizeQuality" shape-rendering="geometricPrecision" text-rendering="geometricPrecision" viewBox="0 0 216958.34 116416.66" xmlns="http://www.w3.org/2000/svg"><path d="M0-.005h216958.33V116416.66H0z" fill="#c62139"/><path d="M5291.666 5291.667h206375v105833.331h-206375z" fill="#00297b"/><path d="M108537.167 28617.296s-18122.53 14420.028-18122.53 29399.058c0 14981.029 18122.541 29783.057 18122.541 29783.057s18006.53-13724.025 18006.53-29783.057c0-16057.03-18006.54-29399.058-18006.54-29399.058z" fill="#92dbfc"/><path d="M92419.719 67159.562c4716.233 11327.588 16117.447 20639.81 16117.447 20639.81s11603.943-8844.17 16181.373-20640.687" fill="#008ce7"/><path d="M124781.681 63890.343c-2794.003 1999.002-18515.022 1039-18515.022 1039l-879.002 2238.004 18719.024 57.999c78-306.998 265-672 330-982.002z" fill="#9c8431"/><path d="M96651.642 73153.356c796.01 26.008 1589.01 193.997 2301.011 576 1273 668 2011.001 662.999 3383 683.999 1436.002 21.987 2563.004 1079.003 4115.006 1123.003 2859.004 80 4061.005 1500.001 1838.002 1499.001-1050.002-1.059-3301.004-706.001-4389.006-558.001-1654.002 168-2610 294.002-3834.001 1267.003-1166.001-1400.001-2332.002-2940.004-3414.012-4591.005zm5656.011 7128.008c709.002-485.002 1197.002-864.002 1885.002-885.002 1337.002-41 1793.003-868 3338.005-867 1756.003 322 4136.005-211 5529.007-520.002 2473.004-570 1300.002-2300.004-197-2928.003-1210.002-518.001-3478.004-26.009-4885.006-540.001-1065.002-416-187-1079.001 386-1220.001 578-106 1198.002 85 1917.002 201.999 1284.002 113.001 2897.004-7.011 4025.006-182 2331.002-356.998 2235.001-1041 3360.005-1057.002 821-38 1446.002-281.998 2006-682.001 658.002-439 1343.003-1340.002 2139.004-1304l468.002 20.003c-4916.007 9510.012-13745.019 15753.018-13745.019 15753.018s-2853.004-2184.001-6226.008-5790.005z" fill="#ffde52"/><path d="M113608.667 73315.355c305.001 1180.003 628.002 1581.003 1868.003 1884.001 1224.002 303.001 3094.003-887 1935.004-2042.003-1103.004-1074-2265.005-1349-3253.005-2316.003-1533.002-1520-3636.006-4662.006-4635.006-7633.01-1093.002-3248.003-903.002-12392.016-854.002-17024.022 1.006-54 133-86 148-108 71-102 139 33 28.001-646-29-174-167-354-166-530 1.005-314.002-1084.001 343-1370.003 903-65 128 208.001 493 208.001 565 37 4444.006-441 13218.017 739 17190.024 730.001 2459.003 2062.003 4358.006 3268.005 6115.007 723.001 1126.001 1769.002 2341.003 2084.002 3642.006z" fill="#8c4200"/><g fill-rule="nonzero"><path d="M100086.654 60304.335c-14-2.117-69-8.996-122-16.007-377-46-780-204.999-1075.001-425-420-313-698-814.002-791-1429.003-26.01-172-25.01-615 1-784 74-474.999 248-894.002 498-1200 74-90.001 216-228.002 303-293.002 205-156 470-278.002 749-346 200-50 323-65 563-72 334.001-7.99 569.001 22.013 833.001 110 338 111.002 600.005 291 785.005 537.002 125 165.999 287 534.998 310 705.001 12 92.998-25.001 162-107 196.998-26.001 11.006-156 50.001-290 86-269.004 72.002-307.004 74.002-367.004 23.998-40-33.999-54-60-89-169-16-46-55-139.999-88-207-51-102.999-72-134-141-203-69-69.999-99-90.999-202-141-228-111.001-484.001-149-779.001-113.001-216 26.008-450 114.001-597 225.001-327 246-509.001 732-490 1306.001 25 783 357 1214.002 1040 1351.003 131 26.008 417 26.008 557 0 204-38 503-155.001 672-263.001l61-38v-249l1.01-250.002-539-3.995-539-3.996-34-23.997c-19-13.997-45-40-58-59-24-33-24-38.002-24-331.002 1-293 1-298 25-331 13-18.996 40-45 59-58.001l34-25.003 923 2.117 924 2.117 33 23.997c19 12.99 45 42 59 64l24.001 39.003 2.01 765c2.011 815 0 848-49 907-13.999 17.013-78 69-141 115.002-436 320.998-900 511.998-1377 567-123.001 13.996-481.001 18.996-557.001 7.99zm4829.003 41.003c-483-37.002-848.002-181.002-1114.002-438.002-262-253-392-570-450-1098-17-147-18-302.002-17-1496.004 2.01-1286 3-1334 23-1373 11.002-22.014 37-53.002 57-69l38-28.002 317.001-2.99c306-2.116 319-2.116 364 20.003 28 13.996 56 39.002 71 62l24.001 39.003 4 1380c3.001 1216.003 5.001 1393.001 20 1489.002 40 250 80 343.002 197 460 147 146 300 200.002 590 210 267.002 7.99 450.002-22.013 607.002-99 181-88 263-226.998 325-544.999 23-120.002 23-139.002 32-1501.004 9.001-1543 2.011-1415 85-1478l39-29h330.002c368 1.057 357-1.059 416 76.999l30 39 1.005 1238.001c1.006 1242.003-5 1502.003-38 1736.005-71 497.998-236 812.998-554 1059-107 82.999-151 111-256.001 162.999-161 81-347 136.001-558 166-110 16.007-471.001 27-583.001 18.996zm4322.006-67.001c-14-2.99-45-26.008-70-50-51-51.002-65-98-50-162 18.998-79.002 1583.001-4115.006 1608.001-4147.005 49-66 63-68 429-67 366.001 0 380.001 2.99 430.001 68 12.999 18.998 401.001 958.001 862.002 2089 732 1797.004 837 2062.003 837 2110.004 0 60.999-24 103-81 144-34 23.997-35 23.997-401 22.991h-367l-40-30.998c-51-39-50-35.002-287.002-655-108-283.001-201-523.002-207-533-9-17.992-55-18.997-735-20.003-681.002-1.058-726.002 0-733 17.013-4.002 10-96.002 261.998-205.002 559.998-108 297-206 556.001-218 575.001-11.999 18.997-37 45-55 58.002-33 23.997-39 23.997-363 25.003-181 1.058-340-1.058-354-3.995zm2343.002-2066.003c-15.999-45-404-1083-414-1108-4-11.008-9.001-6.007-17 16.006-18 54.001-415 1113.002-420 1122.001-3 3.995 191 7.99 430 8.996h436.001zm3314.005 2062.003c-46-13.997-96-67-109-116.002-7.002-27.998-9.002-713-4.001-2121.001l7.001-2079.002 28-38c56-73 51-72 552-71 417 1.057 452 2.115 487.002 20.001 20.002 11.007 46.998 35 58.999 53 11.986 17.013 244.999 702 517.001 1520.003 273 818.002 498 1488.002 501 1488.002 2.99 0 235-665.002 516-1477.003 319.002-924 521-1493 538.003-1519 56-81 50.998-80 510-79 390.999 0 408.999 1.058 446 22.013 21.009 11.985 49.999 40 65 61l26.01 40-2.99 2091.003c-3.995 1971-5.001 2093.001-22.992 2125.002-10.002 17.992-36.002 46.998-58.002 63l-39 29.998-319-1.058c-316 0-319 0-353-25.003-18.997-12.99-45-39.002-58.002-58.002l-25.003-33.999-2.99-1200.002-2.99-1199-55.999 158.999c-31 88-221.001 632-422.002 1209-353 1011.003-368 1052.003-409 1094.003-25.002 26.01-56 46-77 50.001-20.003 3.995-153.002 6.985-297 6.985-251-1.058-264-2.117-309-25.003-26.009-12.99-57.002-39-69-56.999-12.013-17.992-207-581.002-433.002-1251.001-226-669.002-415-1217.002-419-1217.002-5 0-8.998 542.002-10.998 1206-2.011 1351.003 4 1252.004-80 1308.003l-43 28.001-298 1.058c-164.002 1.06-313.002-2.99-331.002-8.996z" fill="#fff"/><path d="M100058.654 60119.336c-542-62-1030-302.001-1324.001-652-248-294-408-682-461-1118.003-17-143.999-16-484 2.01-621.998 62-475.002 250-918.002 519-1223.003 459-521 1412-731.003 2186.001-481 488 156.999 778 454.999 943 966 23 71 40 131 38 134-6.001 3.996-422 117.002-453 123-18 2.99-27-13.997-54-93.999-77-226.002-194-414.001-324-518.001-284-226-684-309-1153-238.001-300 46-598 200.002-769 398-257.001 297.003-384.001 661-400.001 1142.003-15 476 71 839 270 1139 323 488 1075 706.002 1744.001 506 214-64 447-174.997 611-292l75.999-53.998 1.006-385v-386.002l-604.005-1.058-605-1.058 1.01-236.001v-236l864 2.116 864.001 1.059-2.011 752.001-1.006 752-95 70c-389 286.002-779.004 459.003-1196.004 533.001-154 27.001-522 37-678 18.997zm4787.003 36.999c-392-43-697.002-169-913.002-379-197-191-310-428-369-772.998-42-248.003-45-376.003-43-1696.005l2.01-1293.001 265.001 1.059h264l2.011 1379c2.011 1467.002 1.006 1443.002 57 1664.004 71 282 281 491 581.002 578 240 70 564 71 837 2.99 324-81 498-255 586-585.001 68-253 67.002-229 74-1690.002l7.002-1345.001 265 1.058h264l-3 1247c-1.005 718-7.001 1317.001-14 1413.003-45 632-209 974-592 1233-151 103-356 181-582 223-98 17.992-576.001 31.001-688.001 18.997zm4474.006-113.998c12.999-33.002 366-948.002 785-2034.004l763.002-1974.002 286-2.117 287-2.99 822.001 2020.003c452 1111.002 825.001 2029.003 829.001 2040.004 7.001 18.998-11.001 20.003-292 20.003l-300-1.058-52-135.001c-29-74-134-351-235-614l-183.002-478.003-862-3.995-862.002-5-224 616-224 616.001-281-1.059h-280zm2534.002-1625.003c-3-11.007-121-326-261-700.001-140-374-298-808-350-966.002-52-157-97-288-99-291-3-2.99-23 66-44 153.001-69 289-135 487-381 1137.003-133 354.999-246 654-250 664.998-8.002 18.997 30 20.003 691 21.008 660 1.06 699 0 694-18.997zm3112.005-354l4-2039.001 400 3.995 399 3.995 540 1625.003c297 893 557.001 1680.002 577.001 1749.003 21.008 68 40 121.999 43 119.999 2.117-2.99 69.001-196.001 148-430.001 80.003-233 350.002-1017.001 601.002-1742.003l457.002-1318.001 358-2.116 358-2.117-3.995 2038.002-3.995 2039.004-253-1.058h-253l2.99-1713.003c2.115-942.002-1.06-1707.003-7.013-1701.002-5 6.006-256 718-557.001 1582.003-300.998 864-568 1629-593 1700l-46 129.002h-477.999l-582.002-1726.003c-320-949-586-1733.003-591-1743.002-5-8.996-10.999 767.001-12.999 1725.003l-4 1741.001h-253l-253-1.058z" fill="#bd0728"/></g><path d="M97273.642 44871.316c77 106.001 66 563.001 66 563.001 63 38 1085.01-870.001 1085.01-829.001 1 191.001 24 585.001 24 585.001s1058.001-1006.001 1102.001-900.001c49 119-4 702.001-4 702.001s704-776.001 833-916.001c93.001-100 78.001 126 87.001 491 2.01 65 1153.998-850 1223.998-866 149-32 195 475 187 602-6 94 1063.002-610 1016.002-517l79 541c298-41 1008.001-306 1435.001-237 137 22 130 91 8.001 141-2058.002 833.001-3641.002 2089.002-4563.002 3839.005-314 596-410 1116.001-327 1247.001 0 0 370-796 787-921 56-16 93 510 150 480 0 0 316-798.002 544-1092.002 61-79 163 419.001 228 345.001 0 0 164-534.001 484.999-906.001 46-53 129 505 180 458 333.001-307 646.001-1077 771.001-1134 87-68 102 640 185 579 0 0 475.002-954.002 759.002-1127.002 182-112 175 521 175 521 362-357 761-949 950-1206 87.002-118 39 780 132 815 119 46 899.002-688 987.002-703 58-10.002 126 209-26 385-12.002 13.999-964.001 1112.001-964.001 1112.001 185 35 257-17 390 18 395 104-740.001 755.001-721.001 877.001 0 0 547-10.002 364 96-132 77-855 1008-855 975.002 0-17 363 8 361 112-3 193-601 1188-607 1182-33-33 321-43 369 55 88 181.002-614.001 986.002-477.001 1123.002 18.999 19 401 6.001 571 44 82 18 312 1462.002 254 1404.002-12.997-13.999 246.002-1354.001 403.002-1762.002 96-247 403 373 428 318-12.999 0-62-881.001-19-1282.001 12-112 233 117 230 10.002-8-243.002-28-503.002 22-740.002 38-179 226 323 299.001 188 0 0-228-872-133-1118 63-162.002 215 392 315 414 0 0-56-678.002 49-853.002l317 340.001c69-109 56-1165.001 120-1264.001 53-83 382.001 396 431.001 321 44-68-139-852.002-98-914.002 58-89 419.001 218 426 212.001 147-148 142.001-517.001 204.001-654.001 166-371 1118.001-419 1230.001-155 55.001 128 17 293-5 492 9.001 8.001 477 42 481 6.001 0 0-56 437-23 918.002 5 64 475-16 481 48 43 453-61 495-61 495 4 33 317.001-48 322.001-12.999 34 221-37 490-177 749-21 37.002 448-36 455 7.002 57 340 68 610.001 9.001 1090.001-5 39 459.001-339 466.001-300 70 404-10.999 840 31 1258.001 10.001 97.001 307-289 334-177 27 110-66 910.001-21 955.001 0 0 497.001-25 541.001 17 394.001 370 319 1016.001 319 1016.001 108-80 67.001-858-42-1570.002-12-75 382.001-46 370.001-116 0 0-432-260-574-984.002-30.001-155 417-123 417-123-124-285-342-339-527.001-613-60-90 464-131 464-157 1.006-273-442-403-671-687-98-121 478-127.002 478-127.002-169-235-726-338-1010-649-155-169 565-335 556-364-79-249-756-327-1084.002-608.002-68-58 428.001-254 428.001-254-50-106-1131.001-817-581-752 232 28 703 358 740 308 0 0-20-415 28-465 181-188.002 805.001 798 1017.001 758 0 0 78-706 174.001-725 228-43 506 1028 731 1028 30 0 47-619 163-653 131.001-38 278.001 694 444.001 856.001 154.001 149 156.001-572.001 246.001-435.001 153 221 190 682.001 399 885.002 136 132 161-636.002 312-533.002 175 119.001 134 517.002 331.001 713.002 94 93 157-507 264-419 95 77 159 811 261.001 927 130 148 280-387 415-302 97 62 74 697 164 833 184 282.002 280.002-341 402.001-245 85 65 269 795.002 346.001 853.002 171 130 265-332 395-267 94 46 284 986 362 962 51-15.999 177-2142.002-641.002-3039.004-1333-1462.002-3720.003-2306.002-5668.005-2327.002 0 0 979.001-195 1005-357 52.001-323 538.002-285 877.002-211 60 12.999 28-571.002 36-574.002 303-7 574.001 172 864.001 348 90 55-183-585-87-530 372 215 786 278 1037.001 539 66 69.002-76-493-76-493 186-45 553.001 223 697.001 474 70 124.002-4-655 51-517 0 0 648 220 718 493 0 0 53.002-494 140-468 260.001 68 488.003 507 691.002 570 0 0-84-440-17.992-423 488 123 1018.001 425 1017.001 423-275-688-1318.002-1409.001-3153.004-1602.002-337-34.999-1704.002-91-2863.004 178.002-950 220-1700.002 345-1546.002 195 628.002-615.002 1643.002-690.002 1922.003-833.002 200-102-673-439-500-487 172-41 952-106 952-106 169-132-567-390.001-457-582.002 220-385 1521.002-35 1632.003-181 36-49-559.002-401-534.002-453 95-195 1253.002 144 1280.002-26 0 0-351-262-601-477.001-30-26 1034-312 1034-312-20-20-182-134-426-229-223-87 934.002-388 934.002-388-1466.002-670.002-5271.008 1236-6026.008 3214.003-196 472-202-41-161-441.001 39-430 93-807 47-1202.002-14-117-311 311.001-331 197.001-76-420 149-881.001 46-1347.001-34-157-428.002 463-480.002 306-144-431 108-1037.002 6.001-1631.002-40-232-413 497-538 289-146-241-82-1134.002-151-1269.002-56-108-388.001 428-416.001 327-450-1637.002 148-1841.002-716-918-30.001 32-222.001-968.002-255.001-934.002-354 758.002-934.002-540-1132.002-419-148 92 404 594 410 820 3.001 109-508 116-508 116 11 187 972.002 711.002 1003.002 916.002 25 169-680.002 127-680.002 127 22 229 823.002 447 867.002 690.002 25 134-375 164-362 300 21 209 774 622 799 835.001 17 148-481 209-493 347-15 167 1000 727.001 1001 884.001 1.006 222-404 108-588 220-259 157.001 831 793.001 877.002 974.002 36 159-436.002 19-452.002 164-20 190 534.002 477.001 661.002 803.001 127 322-3.001 404-185.001 276-365-257-1837.002-1821.002-2228.003-2238.003-568-606-1731.002-1285-2891.004-1325-121 37 624.002 564 629.002 755 1.005 49-335.001 122-320.001 137 206 206 847.001 451 847.001 451l-184 331.001c43 97 347 123 834 283 0 0-365 226-338 247 258 206 758.002 358 758.002 358l-492.001 165c-29 95 1107.001 550.002 1107.001 550.002s-355 306-339 322c87 87 922 280 922 280 14 14-590 202-586 206 219 219 823.002 290.001 964.002 652.002 0 0 83 206-156 167-940.002-341-2396.004-1047.001-5219.004-770.001-2886.011 376.001-5085.013 2885.003-5047.013 3135.004 0 0 1032-740.001 1141.001-590z" fill="#109421"/><g fill="#8c4200" transform="translate(201503.018 49556.295)"><ellipse cx="-76406.734" cy="-54552.762" rx="609.989" ry="646.731" transform="rotate(-32.773) skewX(.012)"/><ellipse cx="80113.359" cy="46920.699" rx="696.674" ry="738.637" transform="matrix(-.84082 -.54131 -.5415 .8407 0 0)"/><ellipse cx="80494.336" cy="47852.852" rx="743.691" ry="788.485" transform="matrix(-.84082 -.54131 -.5415 .8407 0 0)"/></g><path d="M102199.713 69706.336h919v687h-919z"/><path d="M97603.708 70148.337s6037.009 459.999 9739.011-334.999c0 0 311.001 210.999-136 732.999-447 521.001-1578 632.999-2199.001 745 0 0-149 335-137 509 12.999 174.001 392 156.001 578 118.002l186-37.002s-87 652.002-2372.001 739.002c-750.001 28.998-3222.999 81-3745.999-652.002 0 0 453 37.002 571 0 118-36.999 32-509-12.01-578.001-42.99-67.998-1603 0-2422-757.999-203-216.001-300-446-300-528 0-7.012 250 44 250 44zm3146.01 1267s1651.998 211 3553 0c0 0 50 360-37.001 497.001-87 136.999-2280.001 242.001-3385.999 50.001-178-57.002-184-275.003-130-547.002z" fill="#8c4200"/><path d="M98443.718 69854.337s2240-2382.001 1554-7352.007c0 0 2333.998 601.001 4713 4034.005 0 0 694 697 1510.001 3183.001z" fill="#fdf9ff"/><path d="M108540.72 26889.305S89359.708 41168.314 89359.708 58005.326c0 16839.012 19181.012 31522.022 19181.012 31522.022s19058.02-13472.01 19058.02-31522.022c0-18049.013-19058.02-31116.021-19058.02-31116.021zm-7 3456.003S91469.708 43048.315 91469.708 58027.326c0 14981.012 17064.012 28044.022 17064.012 28044.022s16955.02-11985.01 16955.02-28044.022c0-16057.011-16955.02-27682.018-16955.02-27682.018z" fill="#c62139"/></svg>