<svg xmlns="http://www.w3.org/2000/svg" xmlns:xlink="http://www.w3.org/1999/xlink" viewBox="0 0 660 440">
<rect fill="#00785E" width="660" height="440"/>
<polygon fill="#FBD116" points="330 82.958 315.792 126.693 352.995 99.666 307.005 99.666 344.208 126.693 "/>
<g id="h">
<path fill="#FFF" d="M330 303.99h-93.937c-1.184-1.2-2.35-2.423-3.488-3.667H330c0.751 0.269 1.267 0.958 1.306 1.736C331.348 302.903 330.818 303.694 330 303.99zM330 275.265c0.545-1.114 1.607-3.694 1.125-6.921 -0.218-1.463-0.692-2.644-1.125-3.492 -5.271 4.988-15.175 12.981-29.785 17.401 -6.821 2.064-14.055 3.173-21.548 3.173h-57.872c1.706 2.507 3.494 4.954 5.364 7.333h55.945C300.346 292.76 317.058 286.179 330 275.265zM229.539 252.628c-2.785 1.072-5.772 1.741-8.887 1.926 13.629 15.415 33.545 25.144 55.723 25.144 21.066 0 40.091-8.775 53.625-22.867 2.297-15.839 3.968-33.969 4.167-53.998 0.232-23.321-1.581-44.2-4.167-62.032 -6.045 5.419-17.371 17.128-22.71 35.079 -1.998 6.72-3.072 13.837-3.072 21.203 0 15.291 4.623 29.506 12.547 41.329 -9.731-12.57-15.526-28.338-15.526-45.454 0-11.369 2.558-22.144 7.126-31.783 -3.154-3.334-5.551-7.392-6.904-11.902 -6.121 10.804-9.618 23.284-9.618 36.581 0 16.539 5.409 31.819 14.552 44.172 -15.923-16.693-38.377-27.099-63.25-27.099 -1.336 0-2.667 0.034-3.989 0.093 2.503 2.333 4.604 5.089 6.188 8.157 24.742 0.038 47.078 10.377 62.964 26.949 -15.171-12.672-34.698-20.303-55.995-20.303 -11.902 0-23.25 2.382-33.594 6.696 10.629 28.085 37.78 48.075 69.574 48.075 2.059 0 4.1-0.093 6.116-0.258 -4.29 0.771-8.709 1.174-13.22 1.174C261.128 273.51 242.92 265.554 229.539 252.628zM330 334.01h-48.684c15.067 5.988 31.492 9.281 48.684 9.281 0.414-0.788 1.125-2.395 1.146-4.542C331.168 336.492 330.417 334.804 330 334.01zM330 311.552h-85.83c2.322 1.99 4.711 3.902 7.169 5.729H330c0.197-0.201 1.167-1.236 1.167-2.865S330.197 311.753 330 311.552zM330 323.01h-70.304c4.257 2.686 8.675 5.139 13.242 7.333H330c0.33-0.523 1.112-1.917 1.063-3.844C331.018 324.78 330.335 323.54 330 323.01z"/>
<polygon fill="#FBD116" points="237.639 150.67 224.197 179.509 252.019 164.076 220.444 160.202 243.712 181.901"/>
<polygon fill="#FBD116" points="260.663 112.27 269.966 142.699 280.328 112.607 254.26 130.861 286.079 131.413"/>
</g>
<use xlink:href="#h" transform="matrix(-1,0,0,1,660,0)"/>
</svg>
