<svg xmlns="http://www.w3.org/2000/svg" viewBox="0 0 900 600">
<rect width="900" height="600" fill="#000"/>
<rect width="900" height="206.25" fill="#fff"/>
<rect width="900" height="187.5" fill="#007168"/>
<rect y="393.5" width="900" height="206.5" fill="#fff"/>
<rect y="412.5" width="900" height="187.5" fill="#fce100"/>
<path d="M 0,0 V 600 L 393.75,300 z" fill="#d21034"/>
<path d="M 189.54603,214.56867 L 128.78569,171.99623 L 69.930531,217.0706 L 91.643351,146.12847 L 30.587837,104.08263 L 104.76744,102.81043 L 125.88822,31.750306 L 150.02091,101.90617 L 224.12978,100.03443 L 164.86501,144.66535 z" transform="matrix(1.221793,2.542786e-2,-2.542786e-2,1.221793,-21.7604,145.5065)" fill="#fce100"/>
<path d="M 77.1122,167.913 L 118.946,167.913 C 122.312,171.689 129.822,173.229 136.975,167.868 C 150.087,160.688 175.454,167.913 175.454,167.913 L 180.449,162.606 L 168.273,122.645 L 163.902,117.962 C 163.902,117.962 154.537,112.343 136.741,114.216 C 118.946,116.089 112.702,113.592 112.702,113.592 C 112.702,113.592 97.0927,115.465 92.7219,117.65 C 92.2414,118.039 87.7268,122.645 87.7268,122.645 z" transform="matrix(1.259719,0,0,1.259719,-29.41569,140.9042)" fill="#fff" fill-rule="evenodd" stroke="#000" stroke-width="1.25" stroke-linecap="round" stroke-linejoin="round"/>
<path d="M 85.5415,157.611 C 85.5415,157.611 125.502,152.616 137.054,167.913 C 130.53,172.377 124.786,172.745 118.634,168.226 C 119.614,166.593 132.995,152.616 167.024,157.299" transform="matrix(1.259719,0,0,1.259719,-29.41569,140.9042)" fill="none" stroke="#000" stroke-width="1.25" stroke-linecap="round" stroke-linejoin="round"/>
<path d="M 128.312,117.65 L 128,161.67 M 163.902,118.274 L 171.395,153.24 M 93.1339,117.725 L 88.9756,135.757" transform="matrix(1.259719,0,0,1.259719,-29.41569,140.9042)" stroke="#000" stroke-width="1.25" stroke-linecap="round" stroke-linejoin="round"/>
<path d="M 49.9417,172.706 L 59.7799,184.241 C 60.9352,184.93 61.9614,184.886 62.9876,184.241 L 77.5681,166.745 L 83.6919,159.163 C 84.6401,158.04 84.9428,156.787 84.8583,155.664 L 96.5657,145.261 C 97.5234,145.327 98.0938,145.435 99.0515,145.5 C 97.92,145.207 97.0898,144.656 97.9807,143.416 L 100.605,141.375 L 102.646,143.999 C 102.646,143.999 99.7304,147.79 99.4388,147.79 C 99.1472,147.79 96.2311,147.79 96.2311,147.79 L 90.1073,153.331 L 92.7843,155.697 L 96.8143,166.745 L 101.772,163.245 L 98.5639,151.873 L 105.563,144.291 L 102.938,140.208 L 104.688,137.875 C 104.688,137.875 128.91,153.125 138.242,149.043 C 138.494,149.134 138.806,138.167 138.806,138.167 C 138.806,138.167 113.728,135.543 113.144,130.585 C 112.561,125.628 118.685,125.045 118.685,125.045 L 116.06,121.254 L 116.644,119.212 L 121.018,124.753 L 130.933,116.296 L 189.254,182.783 C 192.438,181.492 193.118,180.713 193.337,177.534 C 193.255,177.454 136.182,111.922 136.182,111.922 L 140.556,107.257 C 141.418,106.285 141.721,105.872 141.722,104.34 L 148.429,98.5082 C 150.446,99.2011 151.732,100.41 152.803,102.007 L 171.242,86.3801 C 171.728,86.8661 173.204,87.3521 174.206,86.8055 L 204.691,57.5442 L 171.466,81.0116 L 170.3,80.1368 C 170.3,79.1647 171.505,78.9243 170.3,77.2207 C 169.009,75.6716 167.092,78.6788 166.801,78.6788 C 166.509,78.6788 161.992,77.0824 161.002,75.06 L 160.677,80.4284 L 152.22,88.3019 L 145.805,88.0103 L 136.473,97.0501 L 135.307,100.549 L 136.765,103.466 C 136.765,103.466 131.807,107.84 131.807,107.548 C 131.807,107.257 130.805,106.259 130.762,106.13 L 135.015,102.299 L 135.598,99.6747 L 134.179,97.4589 C 133.749,97.7714 128.308,103.466 128.016,102.882 C 127.53,102.338 112.27,85.0942 112.27,85.0942 L 113.144,81.8865 L 103.23,71.0969 C 99.6155,69.849 93.8982,69.6389 92.7318,77.5123 C 91.8235,79.3616 84.2751,77.8039 84.2751,77.8039 L 80.1926,78.6788 L 57.1554,111.339 L 69.9862,126.794 L 96.2311,93.5508 L 97.0102,84.1332 L 102.517,90.2905 C 104.353,90.5264 106.102,90.5471 107.766,89.7073 L 123.315,107.063 L 120.726,109.589 C 121.601,110.561 122.203,111.182 123.078,112.154 C 123.953,111.571 124.788,110.871 125.663,110.287 C 125.955,110.677 126.441,111.416 126.733,111.805 C 125.43,112.514 124.516,113.458 123.213,114.167 C 121.128,112.808 119.115,111.116 119.268,108.423 L 110.52,115.713 L 110.228,117.171 L 84.2751,138.75 L 81.9422,139.042 L 81.359,145.749 L 98.2723,131.752 L 98.2723,129.71 L 100.022,131.168 L 113.144,120.671 C 113.144,120.671 114.019,121.837 113.728,121.837 C 113.436,121.837 102.063,132.335 102.063,132.335 L 101.772,133.501 L 99.7304,135.251 L 98.5639,134.376 L 82.817,148.373 L 80.4842,148.373 L 71.7359,157.122 C 69.4795,157.318 67.5243,157.557 65.6121,158.871 z" transform="matrix(1.259719,0,0,1.259719,-29.41569,140.9042)" fill="#000" fill-rule="evenodd" stroke="#000" stroke-width="1.25" stroke-linecap="round" stroke-linejoin="round"/>
</svg>
