<svg xmlns="http://www.w3.org/2000/svg" viewBox="0 0 920 460">
<rect width="920" height="460" fill="#007934"/>
<rect width="360" height="460" x="280" fill="#fff"/>
<path fill="#007934" d="m463.32,30.575c-0.80416,8.7038-1.61,17.412-2.4141,26.116-2.9476,0.44414-5.8944,0.88632-8.842,1.3304-0.00002,0,6.141,3.4483,7.2132,6.9121,0.1716,0.55476,0.103,1.0139-0.1454,1.3593-0.0816,0.10798-0.20658,0.22795-0.31994,0.31813-1.7789,1.3671-7.0388,0.72303-7.0388,0.72303,0-0.00002,6.968,5.8794,7.5041,8.0111,0.012,0.0499,0.028,0.0964,0.029,0.14472-0.00068,0.03992,0.008,0.1058,0,0.14452-0.008,0.03074-0.0458,0.08562-0.0582,0.11576-0.0476,0.1046-0.1334,0.2225-0.23268,0.31813-1.6382,1.5132-9.3656,1.9377-9.3656,1.9377s8.5677,6.1091,9.1038,9.5728c0.48584,3.1391,0.0784,4.9777,0,5.2925-0.59872-0.51141-14.415-12.122-23.327-8.7341-0.44388,0.2306-0.70656,0.45033-0.8144,0.66518-0.0474,0.10718-0.0574,0.24076-0.029,0.34705,0.62434,1.9313,13.227,3.9097,22.018,11.511-0.21806,1.9022-25.055-6.0507-25.973-1.0701,0.77684,1.4044,26.729,5.145,28.649,8.5317-9.5578,0.3554-29.303-2.1035-28.649,1.0412-1.9974,3.6306,18.649,1.58,27.311,4.5406,2.5391,2.869,2.294,5.2791-2.1233,5.5817-8.3488-3.9693-27.034-6.9188-27.079-1.8509,0.00044,0.006-0.00092,0.0238,0,0.0289,0.002,0.006,0.027,0.024,0.029,0.0289,0.008,0.016,0.016,0.0433,0.0292,0.0579,0.0298,0.0285,0.0962,0.0603,0.1454,0.0868,2.11,1.0525,19.51,0.53911,26.061,4.8587-9.2879,2.1008-40.782-4.2618-40.982-1.1568,0.89722,1.4502,5.8807,7.8149,14.456,7.5483,8.5749-0.26653,28.414,3.4668,29.755,6.1312,0.0418,0.0832,0.0414,0.16866,0.029,0.23138-0.58064,1.8582-26.126-5.6683-35.95-1.0412-10.182,4.7967,29.198,1.8889,35.63,7.7508,6.4314,5.8619-12.856-0.54949-12.856-0.54949,0.00002,0-26.783-3.7157-30.802-1.8509-4.0199,1.8657-8.5803,6.1312-8.5803,6.1312s2.6722,5.3166,5.3518,4.2514c0.40822-0.16248,0.68724-0.19562,0.8435-0.14452,0.004,0.002,0.0254-0.002,0.0292,0,0.004,0.002,0.0256,0.0269,0.0292,0.0289,0.006,0.004,0.0238,0.024,0.0292,0.0289,0.004,0.006,0.0244,0.0234,0.029,0.0289,0.002,0.002,0.0274,0.0257,0.0292,0.0289,0.012,0.0267,0.0246,0.083,0.029,0.11578,0.0632,0.79931-1.8324,3.1235-1.8324,3.1235s37.532,9.0411,45.839,17.034c8.3068,7.9942-47.7-12.523-47.7-12.523,0-0.00002-22.51,8.2588,1.3379,8.7919-2.6581,3.8668,1.101,6.2468,1.3379,6.3915,0,0,39.668,8.2679,43.687,14.663,4.0199,6.395-27.063-6.1386-34.03-9.6017-6.7217-3.3423-25.432,1.7676-26.497,3.3259-0.008,0.012-0.0238,0.0459-0.029,0.0579-0.002,0.006,0.002,0.0232,0,0.0289-0.002,0.012-0.00088,0.0473,0,0.0579,0.00092,0.006-0.00094,0.0238,0,0.0289,0.002,0.006-0.002,0.0238,0,0.0289,0.002,0.006,0.0266,0.0236,0.029,0.0289,0.002,0.006-0.002,0.0236,0,0.0289,0.012,0.0214,0.0414,0.0653,0.0582,0.0868,0.004,0.006,0.0242,0.0236,0.029,0.0289,1.1986,1.3133,9.5504,3.1219,9.8019,5.3793,0.00092,0.01-0.00068,0.02,0,0.0289,0.004,0.12056-0.0334,0.2632-0.0874,0.37598-1.052,2.0283-11.016,2.8911-11.431,4.8009-0.006,0.0327-0.029,0.0824-0.029,0.11578-0.00002,2.1323,50.125,12.524,63.523,23.715s-39.382-13.333-39.382-13.333,2.9477,3.995,0,5.0612c-2.9477,1.0652-13.419-14.92-30.569-5.0612-3.1236,4.0563,14.974,7.2758,19.575,7.7218-1.5711,4.0166-2.9411,5.3453,3.4903,9.3415,0.70332,0.43718,1.0982,0.7013,1.2507,0.83872,0.004,0.004,0.025,0.0248,0.0292,0.029l0.029,0.029c0.002,0.002-0.00092,0.0264,0,0.029-0.00058,0.002,0.00092,0.0276,0,0.029-0.002,0.0004-0.0256-0.00012-0.029,0-0.004-0.0002-0.0246,0.00048-0.0292,0-0.99616-0.155-12.55-6.0591-13.758-6.3048-0.012-0.002-0.0492,0.00072-0.0582,0-0.004,0.00022-0.0262-0.00054-0.029,0,0,0.53304,1.3379,6.941,1.3379,6.941-5.9372-4.7958-13.114-6.2418-19.836-1.3303-0.01,0.28412-0.0592,4.8825,6.6897,7.7219-3.8039,7.7286,4.2986,5.329,17.161,12.523-19.116-4.9679-20.647,4.2602-6.9805,6.3915s51.19,3.4668,60.033,14.923c1.8653,2.4168,2.3715,3.632,2.0069,4.02-1.4749,1.3291-15.044-8.4295-17.015-8.7919-0.004,0.002-0.025-0.004-0.0292,0-0.004,0.004-0.025,0.0244-0.0292,0.029-0.025,0.0312-0.0624,0.093-0.0874,0.1446-0.48156,1.06-0.93074,5.6685-0.93074,5.6685-5.7166-3.2901-10.962-6.2414-17.8-7.6351-0.5361,1.0652-0.42372,2.5788-0.95982,3.644-6.2053-4.4496-11.611-7.578-20.622-8.0111-0.3574,1.4215-0.71878,2.8588-1.0762,4.2803,0.00002-0.00002-7.5122-9.3259-22.251,0-8.2296,5.8665,31.089,2.1242,37.52,9.0522,6.4314,6.9271,1.338,7.9822,1.338,7.9822-5.3592-1.9537-10.696-3.8883-16.055-5.842,0,0-19.044-3.4819-24.403,0.78086-5.3592,4.2636,78.243,14.658,80.654,26.116,1.626,6.2136-19.642-6.5065-38.044-11.973-0.7118,2.0339-1.4405,4.0684-2.1523,6.1023-0.43642-0.4293-7.5548-7.3139-15.532-8.5027-0.002,0.004-0.027,0.0222-0.0292,0.029-0.00094,0.01,0.00024,0.0448,0,0.058,0.012,0.87446,1.6288,7.1145,1.6288,7.1145-0.00002,0.00002-20.613-9.6029-31.063-4.5406-10.451,5.0623,36.433,7.726,40.72,12.523,0.46888,0.52454,0.66404,0.90692,0.63988,1.1569-0.008,0.0432-0.0374,0.109-0.0582,0.1444-1.0356,1.5081-15.017-4.0618-16.404-1.3014-1.6083,3.1975-24.38-5.8533-24.112-1.5907,0.26804,4.2636,3.2285,6.6518,3.2285,6.6518-0.00002,0,47.43,4.5269,49.038,10.122,1.6074,5.5954-26.264-3.1813-26.264-3.1813s-2.6961,3.9772-0.55262,5.842c0.0838,0.0728,0.1506,0.1426,0.1744,0.1734,0.0007,0.002-0.00016,0.0274,0,0.029-0.002-0.00064-0.0254,0.00092-0.0292,0-0.96878-0.31776-16.07-10.153-14.601-2.6029-5.9093-2.3396-21.166-9.5864-19.022-3.9911,2.112,5.5131,41.905,13.363,43.076,13.593-1.0523,0.0824-17.881,1.4824-17.102,5.871-22.555-13.663-22.502-5.4696-21.989-4.8298,0.00092,0.00088-0.00094,0.0282,0,0.029-1.2671-0.1992-29.016-7.073-6.9515,4.8009,11.833,6.3674,14.717,8.8497,14.776,9.8042,0.00038,0.021,0.002,0.0672,0,0.0868-0.004,0.0254-0.0202,0.064-0.029,0.0868-0.002,0.006-0.0262,0.0236-0.0292,0.029-0.01,0.016-0.018,0.0434-0.029,0.0578-0.004,0.004-0.025,0.0244-0.0292,0.029-0.004,0.004-0.0244,0.0248-0.0292,0.029-0.004,0.004-0.024,0.025-0.029,0.029-0.006,0.004-0.0236,0.0252-0.0292,0.029-0.45872,0.2918-1.5672,0.1696-1.8906,0.1734-0.014,0.0005-0.0482-0.00092-0.0582,0-0.006,0.002-0.028,0.026-0.029,0.029l0.029,0.029c0.3148,0.46536,2.046,5.1646,1.9487,5.9866-0.002,0.014-0.0256,0.0472-0.0292,0.0578-0.002,0.004,0.002,0.0248,0,0.029-0.00092,0.002-0.0276-0.002-0.0292,0-0.002,0.00092,0.002,0.028,0,0.029-0.002,0.00052-0.027-0.00036-0.0292,0-0.002-0.00024-0.026,0.00048-0.0292,0-0.96696-0.24222-15.581-8.0078-20.593-8.5316-5.0921-0.5331-29.215,6.6534-3.4903,17.844s41.526-2.6693,55.728-1.0701c14.202,1.5983,20.914,4.0015,19.575,8.5317-1.3403,4.5293-14.528-14.85-28.388,1.9088-15.766-3.1022-26.462-4.8974-18.324,6.6229-25.747-9.5675-41.47,2.9189-9.0456,7.9822,31.862,0.93378,51.452-7.7219,51.452-7.7219,0,0.00002,5.375,9.878,13.147,2.9499,7.4065-6.6024,7.9891,1.8005,8.2603,2.6029,0.004,0.012,0.025,0.0222,0.0292,0.029,0.002,0.002-0.002,0.0278,0,0.029,0.002,0,0.026,0.0004,0.029,0,0.57222-0.143,7.475-3.2102,7.475-3.2102,0.62546,0.00002,1.2651,0,1.8906,0v63.944c8.6643,0.0888,17.309,0.1714,25.973,0.2603,0,0-8.3071-55.674-3.752-63.134,4.4136-7.2271,8.5863-6.447,8.842-6.3915,0,0,16.885,5.051,18.76,4.2514,0.0218-0.01,0.0664-0.018,0.0874-0.029,0.014-0.008,0.045-0.021,0.0582-0.029,0.0326-0.0206,0.0866-0.0628,0.1164-0.0868,0.006-0.004,0.0232-0.024,0.0292-0.029,1.3722-1.2456-0.0258-6.1609,8.5512-5.4082,2.6483-0.95788,1.6378-5.1559,3.3448-6.1891,0.0302-0.018,0.0846-0.0424,0.1164-0.0578,0.0644-0.0302,0.161-0.065,0.23268-0.0868,0.1-0.0286,0.23388-0.0462,0.34902-0.0578,2.6796-0.26652,54.392,14.376,65.646,0.52058-2.9477-7.7267-13.143-0.52682-15.823-0.2603-2.4116,0.00002-12.602-4.7958-18.498,0-5.3592-3.9962-29.726-6.6518-29.726-6.6518-3.2157-3.1975,58.149,1.5881,61.632-0.80978,7.2347-7.1946-13.392-6.389-16.608-3.9911-5.7166-3.464-12.9-3.2077-17.277-0.80976-2.0988-4.992-22.024-2.8299-33.099-4.2514-3.5452-2.0675-2.9549-3.2542-0.55262-4.5406,23.134,0.97728,46.151,3.9809,69.398,2.9499,6.2834-8.145-7.9101-11.217-16.608-4.2803-5.1061-8.3496-15.545-0.2714-22.512-1.0701-6.9666-0.79962-3.7521-9.3139,5.09-7.9822,8.843,1.3327,24.655-0.5435,27.602-4.5406,2.9467-3.9962-1.7596-8.0449-16.346-4.2514-4.9367-4.7976-15.792-0.008-20.884,1.5907-6.7739-3.7574-22.534-0.52288-27.893,0.80978-5.2466-3.2428,27.602-8.5316,27.602-8.5316,12.679-0.22304,19.831-2.4044,23.85-3.4705,19.168-10.215-0.26688-11.3-10.325-3.8754-6.2434-4.8467-12.173,0.41904-17.8,2.2848-5.2756,1.7483-15.032,3.0217-16.23,2.5161-0.014-0.006-0.0468-0.0218-0.0582-0.029-0.002-0.002-0.0262-0.0264-0.0292-0.029l-0.029-0.029c-0.00092-0.002,0.00064-0.026,0-0.029,0-0.002-0.00046-0.0256,0-0.029,0.004-0.012,0.0208-0.044,0.029-0.0578,0.79028-1.2183,15.241-10.036,15.241-10.036,0-0.00002,18.76-1.3468,22.512-1.8798,2.2862-0.32486,10.299-4.0965,10.296-5.495-0.0672-0.86806-3.4056-0.78834-13.525,1.7642-9.111,0.79958-14.462,0.28294-17.946,0.54946-5.6028-0.57596-7.9633-1.1632-8.4348-1.6774-0.018-0.0218-0.047-0.0652-0.0582-0.0868-0.0392-0.0928-0.014-0.20012,0.0582-0.28922,0.018-0.0206,0.0634-0.0664,0.0874-0.0868,1.3734-1.0907,10.238-1.8799,10.238-1.8799,0,0.00002,27.063-2.4678,28.853-3.8754,0.006-0.006,0.0234-0.0234,0.029-0.029,0.01-0.012,0.0228-0.0468,0.029-0.0578,0.002-0.006,0.0276-0.0236,0.0292-0.029,0.55686-11.002-22.959-5.9217-23.588-5.842,0.0672-7.7363-21.224-0.1136-22.221,0-0.002-0.00028-0.0278,0.00052-0.0292,0-0.91604-0.53664-1.3153-1.1029-1.3961-1.6196-0.0262-0.197-0.00092-0.41868,0.0582-0.60734,0.53332-1.5952,3.752-2.8342,3.752-2.8342,5.8953-1.4206,14.71-1.8641,17.015-3.7308,0,0,16.639-0.1456,18.615-4.5406-4.0831-11.201-35.213,1.9828-39.382,3.9911-0.8353,0-1.3468-0.20866-1.5997-0.5495-1.3688-1.9886,5.3863-8.5371,5.6135-8.763,0.002-0.002,0.0238-0.0268,0.029-0.029,1.0295-0.29038,25.884-1.5549,37.753-17.555,0.83768-9.8933-14.194,5.5817-14.194,5.5817-1.1225-12.831-16.345,0.81374-25.188,1.8799-8.8421,1.0652-9.101-4.0012-2.9377-4.8009,6.1624-0.79868,13.124-0.2758,16.608-9.6017,3.4829-9.3259,13.947,0.54304,15.823-2.921,1.8169-3.3558-3.4237-6.2163-3.752-6.3915,0.00002,0,7.7656-8.0173-4.8282-7.7508-12.467,0.26386-28.585-1.5536-28.911-1.5906,0.78186-0.29674,13.48-5.0591,25.421-4.8009,12.327,0.26652,5.6245-8.792-6.1662-8.792-11.79,0-17.946-3.9911-17.946-3.9911,6.6995-2.4867,13.399-4.9749,20.098-7.4616-0.44678-1.8648-0.89122-3.7169-1.338-5.5817,0,0,11.786-9.3326-4.8282-7.2013-16.614,2.1323-18.498,2.4004-18.498,2.4004-0.00002,0-32.705,4.9833-33.478,5.0612-0.002,0-0.026,0.00034-0.0292,0-0.31656-0.0493-3.5559-1.0501-4.1592-2.2848-0.018-0.0405-0.0456-0.1036-0.0582-0.14452-0.014-0.0493-0.0244-0.12356-0.0292-0.17346-0.004-0.0583-0.01-0.14332,0-0.20244,0.135-0.65065,1.1438-1.3542,3.723-1.9955,8.5749-2.1314,38.87-8.251,43.425-6.6518,0.58728,0.20602,1.016,0.15948,1.2798-0.0579,1.708-1.5368-3.9744-11.338-17.917-12.725-16.078-1.5983-25.973,3.9911-25.973,3.9911s-10.462-3.7435-0.8144-6.941c9.6462-3.1966,24.926,1.0701,24.926,1.0701-0.00002,0,17.14-5.07,2.9376-7.2013-14.202-2.1323-18.68,1.9171-25.188,2.1402-2.5977-3.2243,22.297-3.9855,23.85-6.6518-2.6256-4.7976-18.028,0-27.05,0-3.8374-1.6186-4.0913-4.2523,0.26178-5.8709,9.2004-0.35538,17.849,0.18184,27.05-0.17346-0.26804-4.8846,0.006-10.675-0.26176-15.559-11.67-2.1203-25.355,1.5527-31.907,1.2436,1.7526-5.3298,26.949-6.7055,29.755-8.1557,5.7892-7.1953-24.167-0.11118-24.897,0-5.3173-0.78111-4.9953-4.123-1.6288-6.1312,7.7707-0.88844,25.197,1.1323,23.879-4.1068-1.0098-4.9093-12.082-2.2808-16.637-1.2147-4.555,1.0652-11.256,0.26028-11.256,0.26028-2.917-3.905,26.27-2.3089,26.003-5.3214-0.38064-3.4587-18.501-1.0763-24.665-0.8098-4.7404-3.2522,22.286-5.4145,23.559-5.842,0.006-0.004,0.0256-0.02594,0.0292-0.02894,1.0099-8.8575-18.76,0-22.512,0-0.64484,0-1.1329-0.16008-1.4834-0.43382-0.0782-0.06328-0.167-0.1577-0.2327-0.23136-1.288-1.4941-0.1454-4.9166-0.1454-4.9166s7.0453-3.1479,7.475-3.9043c0.002-0.006,0.027-0.02316,0.0292-0.02894,0.00086-0.002-0.00062-0.02616,0-0.02894-0.00008-0.002,0.00032-0.02654,0-0.02894-0.002-0.004-0.0262-0.02456-0.0292-0.02894-0.016-0.02236-0.0552-0.06068-0.0874-0.08682-0.82702-0.63325-5.673-2.2317-6.3115-2.2848-0.004-0.00022-0.025,0-0.0292,0-0.004-0.0015-0.0252-0.02674-0.029-0.02894-0.008-0.006-0.0222-0.02036-0.0292-0.02894-0.004-0.004-0.0258-0.02336-0.0292-0.02894-0.365-0.74486,0.0874-6.0445,0.0874-6.0445s5.5825-4.1597,5.9335-5.8131c0.002-0.014-0.002-0.04452,0-0.05788,0.002-0.014-0.00068-0.04512,0-0.05788,0.0003-0.012,0.0005-0.0455,0-0.05788-0.00088-0.012,0.002-0.0461,0-0.05788-0.00092-0.006,0.00092-0.02336,0-0.02894-0.004-0.016-0.0228-0.04232-0.0292-0.05788-0.002-0.006,0.002-0.02376,0-0.02894-0.002-0.004-0.0264-0.02396-0.0292-0.02894-0.006-0.01-0.0226-0.02-0.0292-0.02894-0.01-0.014-0.018-0.0455-0.029-0.05788-0.004-0.004-0.0246-0.02496-0.0292-0.02894-0.0224-0.018-0.0604-0.04152-0.0874-0.05788-0.012-0.006-0.0464-0.02296-0.0582-0.02894-1.4099-0.67313-7.2423,1.3304-7.2423,1.3304-0.00002-1.7763,0-3.5451,0-5.3215-0.00002,0,5.1065-0.55195,5.6426-2.9499,0.0314-0.14052,0.016-0.27865,0-0.4049-0.008-0.0501-0.014-0.12556-0.0292-0.17346-0.0332-0.103-0.0834-0.22493-0.1456-0.31813-0.01-0.014-0.0476-0.04392-0.0582-0.05788-1.1684-1.4997-5.9335-1.7063-5.9335-1.7063-0.89348-9.3256-1.7823-18.641-2.6759-27.966zm-4.77,91.332,0,3.673c0.00002,0-6.0093-0.30606-7.126-1.2436-0.006-0.004-0.0244-0.0244-0.0292-0.0289-0.004-0.004-0.0246-0.0242-0.0292-0.0289-0.004-0.004-0.025-0.0242-0.0292-0.0289-0.004-0.004-0.0254-0.0242-0.0292-0.0289-0.01-0.014-0.0216-0.0431-0.0292-0.0579-0.002-0.004,0.002-0.024,0-0.0289-0.002-0.004-0.0276-0.024-0.029-0.0289-0.00092-0.004,0.00088-0.024,0-0.0289-0.00092-0.01,0.0001-0.0475,0-0.0579,0.00022-0.006-0.0005-0.0238,0-0.0289,0.0008-0.006-0.00092-0.0236,0-0.0289,0.006-0.0214,0.018-0.0649,0.029-0.0868,0.002-0.006,0.026-0.0234,0.0292-0.0289,0.014-0.0224,0.0392-0.0641,0.0582-0.0868,0.006-0.006,0.0236-0.0232,0.0292-0.0289,0.012-0.012,0.0454-0.0461,0.0582-0.0579,0.0402-0.0353,0.0928-0.079,0.1454-0.11578,2.0161-1.4035,6.0415-1.3704,6.8351-1.5906,0.006-0.002,0.023,0.002,0.0292,0,0.006-0.002,0.024-0.0267,0.029-0.0289,0.004-0.002,0.0254,0.002,0.0292,0,0.004-0.002,0.0262-0.0265,0.0292-0.0289zm8.5221,4.8876c0.20764,0,11.97,0.1006,13.001,1.6196,0.008,0.012,0.0226,0.0447,0.0292,0.0579,0.008,0.02,0.0242,0.0665,0.0292,0.0868,0.002,0.014-0.00072,0.0439,0,0.0579-0.00014,0.021,0.004,0.0655,0,0.0868-0.006,0.0216-0.02,0.0647-0.0292,0.0868-0.89816,1.8972-12.798,3.0367-12.798,3.0367l-0.23268-5.0322zm-0.66898,7.2591c0.004,0.002,0.0248-0.002,0.029,0,0.004,0.002,0.0232-0.002,0.0292,0,0.69832,0.18344,5.5701,0.34048,6.1662,1.1568,0.006,0.008,0.0246,0.0212,0.0292,0.0289,0.002,0.004-0.002,0.025,0,0.0289,0.004,0.008,0.0264,0.0208,0.0292,0.0289,0.00092,0.004-0.00086,0.025,0,0.0289,0.00044,0.004-0.00026,0.0248,0,0.0289,0.00002,0.004,0.00016,0.0247,0,0.0289-0.0004,0.004,0.00058,0.0246,0,0.0289-0.0008,0.004,0.00092,0.0246,0,0.0289-0.002,0.004-0.0276,0.0244-0.0292,0.0289-0.002,0.004,0.002,0.0244,0,0.0289-0.008,0.014-0.02,0.0439-0.0292,0.0579-0.004,0.004-0.0256,0.0242-0.0292,0.0289-0.004,0.004,0.004,0.0242,0,0.0289-1.0099,1.2272-5.5056,1.5618-5.7299,1.5618-0.002-0.0004-0.0274,0.00074-0.0292,0-0.002-0.00092,0.002-0.0275,0-0.0289-0.004-0.006-0.0254-0.0226-0.029-0.0289-0.20552-0.4149-0.40722-3.0656-0.40722-3.0656zm-35.863,9.6596c3.8405-0.1984,11.462,0.70093,25.77,4.6274,0,0.30278,0.28972,3.9918,0.1744,4.5984-0.00092,0.004-0.0278,0.0246-0.0292,0.0289-0.00092,0.004,0.00094,0.0261,0,0.0289-0.002,0.002-0.0258,0.0285-0.0292,0.0289-0.2243-0.11198-26.031-7.4859-28.388-7.3748-0.0644,0.002-0.1424,0.006-0.2036,0-0.052-0.006-0.1256-0.018-0.1744-0.0289-0.0642-0.016-0.1472-0.0611-0.20358-0.0868-0.0208-0.01-0.0678-0.018-0.0874-0.0289-0.006-0.004-0.0228-0.025-0.0292-0.0289-0.0784-0.0529-0.1562-0.13314-0.20358-0.20244-0.004-0.006-0.0258-0.0234-0.0292-0.0289-0.006-0.012-0.0238-0.0465-0.029-0.0579-0.002-0.006,0.002-0.023,0-0.0289-0.004-0.012-0.0264-0.0459-0.0292-0.0579-0.00092-0.006,0.00092-0.0228,0-0.0289-0.00092-0.012,0.0003-0.0453,0-0.0579,0.00024-0.012-0.00092-0.0451,0-0.0579,0.004-0.0321,0.018-0.0828,0.0292-0.11578,0.0318-0.079,0.097-0.18084,0.1744-0.26028,0.39462-0.38378,1.3829-0.76932,3.2867-0.86764zm13.379,10.903c4.1136-0.14672,13.969,2.211,14.514,2.0823-0.00002,0.78143,0.4361,4.475-0.0582,5.2347-0.004,0.006-0.0242,0.023-0.0292,0.0289-0.004,0.006-0.024,0.024-0.0292,0.0289-0.006,0.004-0.0238,0.0251-0.0292,0.0289-0.01,0.006-0.0466,0.0244-0.0582,0.0289-0.006,0.002-0.0228-0.00092-0.0292,0-0.012,0.00092-0.045,0.00092-0.0582,0-0.006-0.00092-0.022,0.002-0.0292,0-0.83768-0.20822-15.382-4.8016-15.939-6.6807-0.008-0.0309-0.00066-0.0862,0-0.11578,0.006-0.0655,0.038-0.14552,0.0874-0.20244,0.006-0.006,0.0224-0.023,0.0292-0.0289,0.006-0.006,0.022-0.023,0.0292-0.0289,0.27922-0.22006,0.85536-0.34943,1.5997-0.37597zm40.487,10.122c3.9283-0.0764,6.7017,0.25803,5.6717,1.446-2.8052,3.2354-22.192,5.8999-22.192,5.8999l-0.34902-5.8999c0.41636-0.0609,10.267-1.3177,16.87-1.446zm-55.495,18.394c3.2967-0.17446,10.974,1.6257,28.068,8.8209l0.1164,4.2514c0.00002,0-28.948-8.73-29.958-10.18-0.49704-0.71379-1.421-2.7229,1.7742-2.8921zm56.717,6.3337c0.88072-0.0445,1.5006,0.0441,1.716,0.26028,0.006,0.006,0.0244,0.0228,0.029,0.0289,0.012,0.02,0.0222,0.0657,0.0292,0.0868,0.004,0.0218,0.0296,0.0631,0.0292,0.0868-0.012,0.12196-0.104,0.28623-0.26178,0.46274-2.6936,3.0133-17.161,6.0155-17.161,6.0155s-0.00002-3.7923,0-3.9043c0.002,0.0002,0.026-0.00004,0.0292,0,0.65948-0.0224,11.279-2.8188,15.59-3.0367zm-63.465,0.52057c4.3217-0.22785,14.08,2.0514,35.95,12.349-0.00002,0.1068,0.1948,3.6583,0.1162,3.9911-0.002-0.00042-0.0262,0.00082-0.0292,0-1.2966-0.41556-39.353-13.708-39.353-13.708-0.0406-0.14572-0.61308-2.4246,3.3158-2.6318zm72.452,16.63c1.1059-0.0462,1.8315,0.049,2.0069,0.2892,0.016,0.0278,0.027,0.0836,0.0292,0.1158-0.004,0.1156-0.1006,0.26294-0.29088,0.4338-3.451,3.099-25.453,6.8535-26.235,6.9121-0.004,0-0.0258,0.00044-0.0292,0-0.002-0.00092-0.026,0.002-0.029,0-0.002-0.002-0.0264-0.0262-0.0292-0.029-0.008-0.01-0.023-0.0438-0.0292-0.0578-0.002-0.006,0.002-0.0236,0-0.029-0.004-0.012-0.0262-0.0448-0.0292-0.0578-0.1398-0.7183,0.31564-3.2338,0.34902-3.5862,0.00032-0.006,0-0.0254,0-0.029,0.00092,0.00092,0.027-0.00092,0.0292,0,0.004,0.00068,0.0242,0.0286,0.029,0.029,0.006,0.00028,0.0226-0.00008,0.0292,0,1.4083-0.0234,18.27-3.7446,24.199-3.9911zm-64.686,9.6885c6.5501-0.33646,26.397,8.7127,27.37,8.9944,0.002,0.0005,0.0272-0.00006,0.0292,0-0.102,0.40426-0.1188,3.6714-0.20358,4.1935-0.002,0.014,0.002,0.0502,0,0.0578-0.0008,0.002-0.0284-0.0009-0.0292,0-0.53504-0.28494-27.736-11.51-28.94-10.614-0.75036-1.7681,0.0276-2.5421,1.7742-2.6318zm58.52,2.3715c1.3629-0.0596,2.3605,0.00064,2.6759,0.1734,0.0382,0.024,0.0732,0.0576,0.0874,0.0868,0.002,0.004-0.00092,0.0238,0,0.029,0.00024,0.006,0.00048,0.0236,0,0.029-0.002,0.012,0.006,0.0462,0,0.0578-0.004,0.006-0.0248,0.0228-0.0292,0.029-0.02,0.0254-0.0556,0.0588-0.0874,0.0868-2.0197,1.7852-20.767,5.466-20.767,5.466s-0.0874-3.4536-0.0874-3.7886c0.53248-0.1132,12.635-1.9246,18.208-2.1691zm-1.5125,11.944c1.3191-0.0436,2.2543,0.0312,2.4723,0.26028l0.029,0.029c0.006,0.01-0.002,0.0472,0,0.0578,0.0009,0.006,0.0288,0.0234,0.0292,0.029-0.00028,0.006-0.0282,0.0232-0.0292,0.029-0.002,0.012,0.006,0.0452,0,0.0578-0.004,0.006-0.0252,0.0224-0.029,0.029-0.016,0.0262-0.0348,0.0596-0.0582,0.0868-0.018,0.0206-0.064,0.0658-0.0874,0.0868-2.0235,1.7366-17.917,5.0611-17.917,5.0611s-0.43628-3.7923-0.43628-3.9043c0.44088,0.01,11.067-1.6583,16.026-1.822zm-67.071,0.95438c3.8347-0.24108,13.337,1.3301,36.793,9.8042l0.78532,4.5695c0,0.00002-39.055-12.536-40.167-12.928,0.002,0-0.00084-0.0258,0-0.029,0.00092-0.0242-0.006-0.0828,0-0.1448,0.014-0.1148,0.0724-0.2955,0.20358-0.46276,0.27524-0.33548,0.90404-0.71664,2.385-0.80976zm51.452,9.9199c0.47064,0.1,7.0193,0.31614,8.2312,1.3304,0.006,0.004,0.0238,0.0242,0.0292,0.029,0.004,0.004,0.0242,0.024,0.0292,0.029,0.004,0.004,0.025,0.024,0.0292,0.029,0.012,0.016,0.02,0.0426,0.0292,0.0578,0.002,0.006,0.0264,0.0238,0.029,0.029,0.01,0.021,0.0238,0.0652,0.0292,0.0868,0.00092,0.006-0.00082,0.0234,0,0.029,0.00054,0.006-0.00024,0.0234,0,0.029-0.00004,0.012,0.00092,0.0466,0,0.0578-0.0009,0.006,0.00092,0.0232,0,0.029-0.002,0.012-0.025,0.046-0.0292,0.0578-0.002,0.006,0.002,0.023,0,0.029-0.006,0.012-0.0218,0.0458-0.029,0.0578-1.0099,1.5622-7.8531,2.1402-7.8531,2.1402s-0.33622-3.0612-0.49446-4.02zm15.852,8.9076c1.5249-0.0364,2.6194,0.1372,2.8504,0.5784,0.13,0.29904-0.1202,0.74078-0.84346,1.3304-5.6105,4.5746-17.83,5.466-17.83,5.466v-5.0322c0.002,0.00024,0.0234,0.00038,0.0292,0,0.69412-0.082,10.731-2.2219,15.794-2.3426zm15.561,4.6852c1.9368-0.073,2.7713,0.24986,3.0249,0.6941,0.0204,0.0394,0.0464,0.1032,0.0582,0.1448,0.018,0.0752,0.0354,0.18,0.0292,0.26032-0.0624,0.57318-0.68666,1.26-1.1634,1.7063-1.908,1.7852-32.314,11.366-32.314,11.366s-0.22894-6.355-0.1164-6.9121c17.777-5.357,26.472-7.1081,30.482-7.2591zm-19.662,17.989c1.9331-0.0716,3.4447,0.042,3.8975,0.49162,0.0278,0.0298,0.0688,0.0828,0.0874,0.1158,0.01,0.0202,0.0224,0.0654,0.029,0.0868,0.006,0.0216-0.002,0.064,0,0.0868,0.00094,0.0386,0.01,0.1026,0,0.1448-0.022,0.0852-0.0806,0.19-0.1456,0.28922-2.6014,2.5386-15.241,2.921-15.241,2.921v-3.1524c2.3735-0.0796,7.6569-0.84556,11.372-0.9833zm12.652,5.1768c0.60092-0.014,0.96738,0.083,1.018,0.2603,0.002,0.014,0.002,0.043,0,0.0578-0.0304,0.1476-0.20694,0.37124-0.58172,0.63624-5.0493,3.5695-24.025,7.2302-24.025,7.2302s0.23512-2.4946,0.34902-3.0945c0.5278-0.008,18.699-4.9795,23.239-5.0901zm10.645,3.9622c2.236-0.021,3.9426,0.30708,4.9155,1.0122,0.002,0,0.0274-0.00048,0.0292,0,0.00072,0.002-0.00054,0.0258,0,0.029,0.00034,0.004-0.00016,0.025,0,0.029-0.00046,0.01,0.00092,0.0464,0,0.0578-0.0952,0.69158-1.5167,3.945-6.5152,5.3504-6.2343-0.5537-32.693,7.2241-33.216,7.3459-0.002-0.002-0.0278,0.002-0.029,0-0.002-0.01,0.00092-0.0434,0-0.0578-0.014-0.49822,0.34904-3.1813,0.34902-3.1813,9.1205-5.4234,25.695-10.503,34.466-10.585zm-67.74,15.27c0.0584-0.00092,0.1124-0.0002,0.1744,0,11.445,1.2272,15.72,5.4873,16.928,7.2013-2.2821,3.982-20.37-4.9484-18.469-6.8542,0.21758-0.1932,0.6654-0.33254,1.367-0.34706zm65.588,0.75196c0.45456-0.018,0.8697,0.0752,1.1634,0.26028,0.12,0.0798,0.2384,0.1944,0.31996,0.31812,0.1102,0.1776,0.1836,0.41798,0.2036,0.6941-1.1956,1.837-7.3791,1.0351-7.7659,0.9833,0.3115-0.1104,3.8818-2.1726,6.0789-2.2558zm-24.519,12.378c0.84862-0.0348,1.5537,0.0504,1.9487,0.28918,0.0478,0.0308,0.1076,0.0794,0.1454,0.1158,0.012,0.012,0.0474,0.0446,0.0582,0.0578,0.016,0.02,0.0454,0.0652,0.0582,0.0868,0.012,0.022,0.02,0.0632,0.0292,0.0868,0.072,0.21614,0.044,0.51458-0.1454,0.86762-1.7954,3.3474-9.6564,2.1112-9.6564,2.1112v-2.3426c0.002,0.00066,0.0272-0.00054,0.029,0,0.44278,0.0374,4.7752-1.1598,7.5332-1.2725zm-46.304,8.8209c2.4185-0.1214,4.5324,1.4562,6.7479,2.7185,4.9367-1.0041,15.066,0.78088,15.066,0.78088v4.4538c0,0.004-0.0228,0.0258-0.0292,0.029-0.004,0.002-0.023-0.002-0.029,0-0.92204,0.1596-12.793-0.3561-15.444-2.0244-2.1624,0-8.284-3.2125-8.7548-4.8587-0.004-0.014-0.0262-0.0442-0.0292-0.0578-0.004-0.0204,0.002-0.0668,0-0.0868-0.00066-0.014-0.00026-0.045,0-0.058,0.00068-0.012-0.002-0.0456,0-0.0578,0.00092-0.006-0.00094-0.0228,0-0.029,0.002-0.012,0.0252-0.0462,0.0292-0.0578,0.002-0.006-0.002-0.0232,0-0.029,0.84598-0.44826,1.6703-0.68424,2.4432-0.72302zm51.918,2.198c1.8569-0.0994,2.6442,0.47132,1.1925,2.5161-4.0394,5.6898-14.485,3.3548-14.485,3.3548l-0.43628-3.5284c3.6843,0.143,10.418-2.1652,13.728-2.3426zm-39.033,11.539c4.2236-0.1958,8.8129,1.475,8.8129,1.475,0.1082,0.21432,2.27,4.4517,0.34904,5.8709-0.0714,0.0512-0.1498,0.1014-0.23268,0.1446-2.3567,1.2272-13.62-0.95902-14.281-5.466,1.3254-1.3911,3.289-1.9289,5.3517-2.0245zm-43.541,2.198c3.8627-0.23048,8.1774,2.1356,8.6675,2.3715,0.006,0.002,0.0254-0.00092,0.029,0,0,0.1334-0.1454,4.2803-0.1454,4.2803s-7.6465-2.1195-10.064-6.3915c0.48468-0.1314,1.0023-0.22986,1.5125-0.2603zm73.558,0.57842c4.3081-0.0272,9.5129,0.97916,10.267,2.4294,0.1426,0.2966,0.1002,0.62358-0.1744,0.9544-2.1323,2.5654-14.252,0.23136-14.252,0.23136v-3.1234c1.0783-0.31364,2.5636-0.4816,4.1592-0.49168z"/>
</svg>
