<svg xmlns="http://www.w3.org/2000/svg" xmlns:xlink="http://www.w3.org/1999/xlink" viewBox="0 0 1000 600">
<defs>
<linearGradient id="cap1" gradientUnits="userSpaceOnUse" x1="498.738" y1="289.055" x2="500.626" y2="283.42">
<stop stop-color="#510000" offset="0"/>
<stop stop-color="#8a0000" offset="0.3"/>
<stop stop-color="#a00" offset="1"/>
</linearGradient>
<linearGradient id="cap2" gradientUnits="userSpaceOnUse" x1="501.444" y1="291.373" x2="502.927" y2="287.449">
<stop stop-color="#ff2a2a" offset="0"/>
<stop stop-color="#f00" offset="1"/>
</linearGradient>
<linearGradient id="mountain" gradientUnits="userSpaceOnUse" x1="484.764" y1="311.709" x2="484.764" y2="317.647">
<stop stop-color="#F5F549" offset="0"/>
<stop stop-color="#97C924" offset="1"/>
</linearGradient>
<linearGradient id="seafgrad">
<stop stop-color="#025" offset="0"/>
<stop stop-color="#04a" offset="0.5"/>
<stop stop-color="#025" offset="1"/>
</linearGradient>
<linearGradient id="seabgrad" xlink:href="#seafgrad" gradientUnits="userSpaceOnUse" x1="444.509" y1="317.486" x2="634.411" y2="317.486"/>
<clipPath id="shield">
<path fill="#000" d="m500,226.375 -63.7015,110.332h127.401z"/>
</clipPath>
</defs>
<rect width="1000" height="600" fill="#0067C6"/>
<rect width="1000" height="200" y="200" fill="#fff"/>
<g id="text" fill="#c8a400">
<path d="m410,299.329c3.32634,0.22223,6.65268,0.44445,9.97902,0.66668,0.0329-0.48587,0.064-0.97205,0.0981-1.45773-1.30824-0.0873-2.61644-0.17511-3.92471-0.26198,0.0986-1.60327,0.23297-3.20473,0.3036-4.80942,1.38833-1.00412,2.77759-2.00697,4.16149-3.01719,0.0412-0.61599,0.0823-1.23197,0.12346-1.84796-1.46281,1.06196-2.92562,2.12393-4.38843,3.18589-0.14757-1.03794-0.72165-2.10727-1.76463-2.46788-0.91323-0.33059-2.03168-0.3884-2.82311,0.26424-1.00326,0.738-1.18359,2.05857-1.31388,3.20783-0.17463,2.17695-0.29658,4.35998-0.45091,6.53752zm1.51943-1.36222c0.12006-1.63759,0.19451-3.27916,0.35147-4.91355,0.12284-0.80837,0.27116-1.7421,0.97877-2.25692,0.63951-0.42451,1.58455-0.10865,1.84624,0.61403,0.52201,1.24667,0.29033,2.62159,0.22338,3.93021-0.0632,0.94689-0.12655,1.89378-0.18977,2.84068-1.06985-0.0707-2.14151-0.14232-3.21009-0.21445z"/>
<path d="m411.299,284.006c3.24602,0.75791,6.49205,1.51582,9.73807,2.27373,0.73769-3.1594,1.47537-6.31879,2.21306-9.47819-0.4612-0.10769-0.92241-0.21537-1.38361-0.32306-0.62753,2.68761-1.25507,5.37521-1.8826,8.06282-0.98811-0.2308-1.97626-0.4614-2.96437-0.69221,0.56551-2.42194,1.13101-4.84387,1.69651-7.26581-0.45886-0.10714-0.91773-0.21428-1.37659-0.32142-0.5655,2.42194-1.13099,4.84388-1.69649,7.26582-0.87427-0.20424-1.7486-0.40821-2.62286-0.61249,0.60401-2.58683,1.208-5.17367,1.812-7.7605-0.46355-0.10824-0.92711-0.21647-1.39066-0.32471-0.71415,3.05867-1.42831,6.11735-2.14246,9.17602z"/>
<path d="m414.807,270.929c3.14837,1.09493,6.29675,2.18986,9.44512,3.28479,0.15992-0.45982,0.31983-0.91964,0.47975-1.37946-1.2384-0.4307-2.47682-0.86135-3.71521-1.29209,0.48491-1.42877,1.01619-2.8425,1.46212-4.28396,0.31982-1.1769,0.56684-2.55272-0.12567-3.64707-0.56233-0.80874-1.56218-1.32766-2.54938-1.29642-1.08858,0.0466-1.97544,0.84759-2.45833,1.77548-0.71429,1.34208-1.11369,2.81798-1.63458,4.23987-0.30127,0.86629-0.60255,1.73257-0.90382,2.59886zm1.82516-0.91156c0.50573-1.41719,0.96234-2.85276,1.50949-4.25451,0.34032-0.74874,0.75526-1.63711,1.61685-1.87541,0.70884-0.16219,1.45167,0.38249,1.5132,1.10855,0.17309,1.3358-0.4107,2.59669-0.82087,3.83664-0.25986,0.74722-0.51973,1.49444-0.77958,2.24166-1.01301-0.35237-2.02604-0.70467-3.03909-1.05693z"/>
<path d="m420.024,258.833c1.78079,1.03286,3.54652,2.09256,5.33751,3.10726,1.01015,0.54316,2.29139,0.85386,3.34732,0.24536,1.44062-0.79757,2.34305-2.27069,3.05103-3.70714,0.55788-1.21033,0.96223-2.71397,0.25161-3.95061-0.76525-1.23498-2.15613-1.80264-3.34366-2.54015-1.15241-0.67405-2.30482-1.34811-3.45723-2.02216-0.2446,0.4182-0.4892,0.83639-0.7338,1.25459,1.69411,0.99759,3.40038,1.97522,5.08648,2.98594,0.80638,0.49107,1.47446,1.38051,1.33556,2.36857-0.15909,1.178-0.83235,2.21182-1.50327,3.1639-0.5532,0.77126-1.48261,1.39382-2.46901,1.18523-1.02907-0.19727-1.86511-0.87054-2.7694-1.35707-1.13311-0.66277-2.26623-1.32553-3.39934-1.9883-0.24459,0.41819-0.48923,0.83643-0.7338,1.25458z"/>
<path d="m427.227,247.062c2.64728,2.02559,5.29456,4.05117,7.94184,6.07676,1.2324-1.60897,2.45998-3.22252,3.70139-4.82374,0.71204-1.0218,1.36783-2.35063,0.88541-3.60415-0.43852-0.99742-1.46605-1.76954-2.56718-1.82076-0.49731-0.0682-1.14581,0.30822-1.41493,0.47419,0.28305-1.06581-0.58942-2.0679-1.57186-2.35041-1.18182-0.42013-2.38052,0.33763-3.16221,1.17835-0.9204,1.00107-1.68892,2.12852-2.53072,3.19463-0.42725,0.55838-0.85449,1.11675-1.28174,1.67513zm2.01433-0.29772c0.92943-1.19063,1.80918-2.42176,2.78303-3.57628,0.45282-0.50395,1.17935-1.07479,1.88161-0.70532,0.64009,0.27772,0.79787,1.08511,0.49233,1.66627-0.48521,1.03983-1.28618,1.88276-1.95401,2.80542-0.36367,0.47529-0.72737,0.95057-1.09102,1.42588-0.70398-0.53866-1.40796-1.07732-2.11194-1.61597zm3.23588,2.47597c0.96434-1.2336,1.87255-2.51286,2.89009-3.70336,0.51954-0.54354,1.17239-1.22856,1.99705-1.07233,0.70444,0.16212,1.21664,0.92689,0.97341,1.63628-0.39626,1.30911-1.37599,2.31142-2.16426,3.39599-0.4137,0.54068-0.82742,1.08134-1.2411,1.62203-0.81839-0.62621-1.6368-1.2524-2.45519-1.87861z"/>
<path d="m436.231,236.455,6.8675,7.26894,5.88255-5.55767-0.97575-1.03279-4.70554,4.44565-0.12052,0.11387-0.0869-0.092-5.80486-6.14418z"/>
<path d="m445.035,228.752,6.09535,7.92761,1.18915-0.91429-6.09535-7.92762z"/>
<path d="m453.991,222.67c-0.98774,0.61544-1.78425,1.33504-2.39782,2.17554-0.6112,0.83726-0.94122,1.71049-0.98884,2.62241-0.0476,0.91165,0.19536,1.79452,0.73286,2.6572,0.49251,0.79046,1.15266,1.40385,1.97619,1.84418,0.82023,0.43856,1.70565,0.60098,2.67598,0.49235,0.96511-0.10804,2.05508-0.53501,3.26884-1.29126,1.16547-0.72616,1.99135-1.56229,2.50028-2.52478,0.48822-0.92337,0.62578-1.90365,0.41645-2.94732l-1.38296,0.5422c0.36225,1.99857-0.92658,2.9588-2.36991,3.87479-2.2587,1.37399-4.45973,1.27451-5.80828-0.78982-1.39827-2.32778,0.12974-4.25089,2.05166-5.49964,1.36386-0.85119,2.70794-1.43321,3.98724-0.61857l1.08262-0.9642c-0.74564-0.51452-1.59209-0.75257-2.55559-0.6994-1.01162,0.0558-2.06822,0.42819-3.18872,1.12632z"/>
<path d="m465.808,216.773-1.047,11.2056,1.55741-0.62791,0.31478-3.47417,0.006-0.003,5.05831-2.03938,2.63645,2.28431,1.5574-0.62791-8.52648-7.34584-1.5574,0.62791zm1.36835,1.14857,3.32461,2.87791-3.72338,1.50118,0.39877-4.37909z"/>
<path d="m487.726,210.591c0.20805,3.32683,0.41609,6.65367,0.62414,9.9805,1.80444-0.12174,3.6118-0.20647,5.41405-0.35597,1.4176-0.16233,2.93884-0.53067,3.9077-1.65878,1.2513-1.3881,1.42875-3.46194,0.88129-5.18861-0.4596-1.52076-1.82744-2.6711-3.37555-2.9629-1.52435-0.29289-3.07841-0.0617-4.61381,0.008-0.94594,0.0591-1.89188,0.11841-2.83782,0.1774zm1.5393,1.32733c1.43646-0.0757,2.87074-0.21585,4.30969-0.22392,0.81646-0.0241,1.62864,0.21461,2.28786,0.70072,1.00072,0.68405,1.58799,1.91553,1.45667,3.12503-0.0712,1.38985-1.09329,2.66855-2.44413,3.02043-0.77283,0.19999-1.57593,0.25601-2.36712,0.34365-0.93214,0.0583-1.86428,0.11665-2.79643,0.17483-0.14939-2.38021-0.29825-4.76046-0.44654-7.14074z"/>
<path d="m501.664,210c-0.19023,3.3279-0.38046,6.6558-0.57069,9.9837,3.23909,0.18516,6.47818,0.37031,9.71727,0.55547,0.027-0.47284,0.0541-0.94567,0.0811-1.41851-2.75541-0.1572-5.51074-0.31562-8.26619-0.47205,0.0573-1.01308,0.11603-2.02606,0.17328-3.03914,2.48308,0.14086,4.96605,0.28372,7.44909,0.42535,0.0269-0.47043,0.0538-0.94086,0.0807-1.41129-2.48304-0.14163-4.966-0.28449-7.44908-0.42535,0.0507-0.89637,0.10241-1.79268,0.15347-2.68903,2.65213,0.15053,5.30416,0.30305,7.95625,0.45434,0.0272-0.47524,0.0543-0.95049,0.0815-1.42573-3.13557-0.17925-6.27113-0.35851-9.4067-0.53776z"/>
<path d="m527.774,214.166-3.61612,9.3233,1.28604,0.4988,2.86698-7.3919,0.14904-0.38427,0.15998,0.42657,3.44815,9.91881,1.68397,0.65315,3.61613-9.3233-1.28934-0.50007-2.86569,7.38853-0.1464,0.37752-0.158-0.42191-3.45405-9.91335z"/>
<path d="m541.208,219.937-4.54582,8.90705-1.33607-0.68187,4.54582-8.90705z"/>
<path d="m548.751,224.356c-0.97142-0.64089-1.95772-1.06453-2.97756-1.27147-1.01591-0.20614-1.9472-0.14174-2.79583,0.19546-0.84836,0.3371-1.54936,0.92626-2.1091,1.77467-0.51289,0.77738-0.79492,1.63325-0.85151,2.56539-0.0563,0.92841,0.16547,1.80086,0.66904,2.63737,0.50084,0.83202,1.34364,1.64445,2.53733,2.432,1.14619,0.75621,2.25064,1.15792,3.33769,1.21888,1.04287,0.0584,1.99114-0.22553,2.85229-0.85122l-1.06975-1.03062c-1.66517,1.16306-3.07555,0.39239-4.5102-0.53714-2.19107-1.47947-3.01898-3.52128-1.70555-5.60813,1.53212-2.24195,3.91737-1.65565,5.8541-0.43,1.3426,0.88435,2.43232,1.86302,2.22572,3.36554l1.32796,0.58161c0.15651-0.89231,0.0197-1.76089-0.43062-2.61434-0.47283-0.89607-1.25205-1.70096-2.35401-2.428z"/>
<path d="m558.272,231.538-10.4535,4.16977,1.26814,1.10073,3.2365-1.30154,0.005,0.005,4.1188,3.57507-0.83343,3.38738,1.26814,1.10073,2.65816-10.936-1.26815-1.10073zm-0.39961,1.74123-1.0486,4.27035-3.03182-2.63158,4.08042-1.63877z"/>
<path d="m565.825,238.486c-2.572,2.12101-5.14401,4.24201-7.71601,6.36302,0.30955,0.37576,0.6199,0.75094,0.92896,1.12706,1.01157-0.83421,2.02316-1.66839,3.03473-2.50261,1.02878,1.23361,2.02924,2.49136,3.07954,3.70663-0.32075,1.6831-0.6431,3.36591-0.95647,5.05041,0.39278,0.4763,0.78555,0.95259,1.17833,1.42889,0.33526-1.77628,0.67051-3.55257,1.00577-5.32885,0.86447,0.70788,2.1276,1.06331,3.16016,0.50203,0.88803-0.42012,1.67042-1.22768,1.7162-2.25661,0.10773-1.37866-0.87542-2.49623-1.66235-3.51871-1.25571-1.5241-2.5136-3.04745-3.76886-4.57126zm-0.17038,2.03353c1.08022,1.33434,2.21438,2.62669,3.24602,3.99893,0.47574,0.70741,1.06859,1.70139,0.52294,2.52797-0.44979,0.70689-1.43474,0.64494-2.03913,0.18646-1.2247-0.82376-2.0334-2.08693-2.9893-3.18371-0.40756-0.49424-0.81514-0.98846-1.2227-1.4827,0.82739-0.68229,1.6549-1.36466,2.48217-2.04695z"/>
<path d="m577.523,254.401-11.2426,0.51528,0.83758,1.45542,3.48429-0.16949,0.003,0.006,2.72039,4.72706-1.89709,2.92745,0.83758,1.45542,6.09396-9.46182-0.83758-1.45542zm-0.94796,1.51425-2.38965,3.69121-2.00246-3.47954,4.39211-0.21167z"/>
<path d="m583.939,267.638c-0.62517-1.69658-1.61122-3.43366-3.27989-4.28241-1.85658-0.93284-4.32804-0.47908-5.6446,1.15572-1.14698,1.35925-1.20561,3.28116-0.89925,4.9518,0.36199,1.91793,1.24128,3.74411,2.56297,5.18542-0.24899,0.0895-0.49798,0.17897-0.74697,0.26846,0.15949,0.44375,0.31898,0.88751,0.47847,1.33126,1.56145-0.56118,3.12289-1.12237,4.68434-1.68356-0.60724-1.6861-1.21448-3.37219-1.82172-5.05829-0.36076,0.12966-0.72152,0.25931-1.08228,0.38897,0.44666,1.24274,0.89326,2.4855,1.33997,3.72822-0.52894,0.19019-1.05794,0.38024-1.5869,0.57038-1.39993-1.20263-2.18095-2.98027-2.58642-4.74823-0.30073-1.32658-0.3127-2.91664,0.69375-3.96056,1.15449-1.20086,3.20117-1.57383,4.58696-0.54964,1.36679,1.00022,2.13826,2.6215,2.52811,4.233,0.26694,1.05995,0.22329,2.32-0.58098,3.14709-0.22477,0.16883,0.13155,0.40385,0.19251,0.60544,0.12747,0.21048,0.25493,0.42097,0.3824,0.63145,0.84766-0.66844,1.36007-1.71422,1.34362-2.79667,0.0283-1.06426-0.20642-2.12058-0.56409-3.11785z"/>
<path d="m586.811,275.447-5.59255,1.08792c-1.03793,0.20191-1.81583,0.53072-2.3346,0.96809-0.51784,0.43655-0.84913,1.05225-1.00889,1.87102-0.15808,0.81019-0.13548,1.80286,0.0969,3.01081,0.002,0.009,0.004,0.0182,0.005,0.0277,0.23733,1.207,0.58855,2.13574,1.03883,2.82758,0.45504,0.69917,0.99299,1.14578,1.63672,1.35637,0.64489,0.21099,1.48934,0.2242,2.52725,0.0223l5.59255-1.08792-0.27754-1.42669-5.45747,1.06164c-2.44995,0.47659-3.27516-0.81293-3.69596-3.01869-0.002-0.009-0.003-0.0183-0.005-0.0277-0.43677-2.20264-0.15514-3.70748,2.2948-4.18408l5.45748-1.06164-0.27752-1.4267z"/>
<path d="m589.879,292.467-10.3479-4.42525,0.12129,1.67483,3.21126,1.36264,0.00051,0.007,0.39395,5.43971-2.98142,1.8111,0.1213,1.67484,9.60233-5.87006-0.1213-1.67483zm-1.51216,0.95131-3.75709,2.28466-0.28998-4.00412,4.04707,1.71946z"/>
<rect width="1.5" height="6.3" x="-322.944" y="414.199" transform="scale(-1,1) rotate(14.748924)"/>
<rect width="1.5" height="6.3" x="644.14" y="159.606" transform="rotate(14.748924)"/>
<path d="m433.217,343.989-11.1807,1.28621,0.93557,1.39445,3.46441-0.40839,0.004,0.006,3.03863,4.52906-1.69156,3.05083,0.93557,1.39445,5.42972-9.85801-0.93556-1.39445zm-0.84172,1.57578-2.13049,3.84662-2.23671-3.33381,4.3672-0.51281z"/>
<path d="m437.497,350.098-7.12714,6.66478,0.95177,1.0178,6.00626-5.61661-3.15096,8.66999,1.09151,1.16724,8.61117-2.61405-5.89802,5.51541,0.95176,1.0178,7.12714-6.66478-1.44571-1.54602-8.75099,2.61438,3.27652-8.46862z"/>
<path d="m447.878,360.689c-2.00517,2.66278-4.01035,5.32555-6.01552,7.98833,2.59171,1.95166,5.18343,3.90333,7.77514,5.85499,0.2849-0.37833,0.5698-0.75667,0.8547-1.135-2.2047-1.6602-4.40935-3.32047-6.61409-4.98063,0.61036-0.8106,1.2208-1.62113,1.83116-2.43173,1.98679,1.49606,3.97352,2.9922,5.96029,4.48829,0.28345-0.37641,0.5669-0.75281,0.85035-1.12922-1.98677-1.49609-3.9735-2.99224-5.96029-4.4883,0.54002-0.71722,1.08018-1.43435,1.62017-2.1516,2.12207,1.59791,4.24406,3.19593,6.3661,4.79388,0.28635-0.38026,0.5727-0.76052,0.85905-1.14078-2.50902-1.88941-5.01804-3.77882-7.52706-5.66823z"/>
<path d="m457.662,367.85c-1.56999,2.94092-3.13997,5.88185-4.70996,8.82277,0.42937,0.22948,0.85923,0.45816,1.2883,0.68814,0.61751-1.15665,1.23489-2.31336,1.85248-3.46997,1.42112,0.74871,2.82545,1.53016,4.25943,2.25383,0.34467,1.67837,0.68772,3.35708,1.03974,5.03393,0.54461,0.29074,1.08923,0.58147,1.63384,0.87221-0.36674-1.77005-0.73349-3.5401-1.10023-5.31015,1.06896,0.32516,2.37225,0.17258,3.11309-0.73977,0.62944-0.70484,1.05797-1.69332,0.75635-2.63927-0.35132-1.30341-1.63425-1.98592-2.71701-2.61729-1.80294-0.96908-3.61175-1.92868-5.41603-2.89443zm0.61719,1.94509c1.50709,0.8222,3.04815,1.58484,4.52472,2.46067,0.68458,0.46205,1.55319,1.0947,1.46717,2.02654-0.0761,0.81768-0.95762,1.2541-1.70343,1.08062-1.45923-0.24188-2.68995-1.11223-3.9896-1.76124-0.60467-0.32278-1.20931-0.64561-1.814-0.96836,0.50503-0.94608,1.01013-1.89215,1.51514-2.83823z"/>
<path d="m468.957,373.756-3.77856,9.25864,1.38879,0.5668,3.77856-9.25864z"/>
<path d="m477.975,376.871c-1.1045-0.36671-2.16696-0.51975-3.20557-0.45482-1.03459,0.0647-1.91722,0.36866-2.6492,0.91462-0.73176,0.5458-1.25576,1.29675-1.57605,2.26139-0.29347,0.88389-0.34361,1.78363-0.15626,2.6985,0.18663,0.9112,0.62734,1.69614,1.33082,2.37323,0.69968,0.67346,1.72451,1.23922,3.08173,1.68985,1.30322,0.43271,2.4741,0.5339,3.5397,0.31054,1.02228-0.21431,1.8643-0.73475,2.53348-1.56255l-1.30064-0.71755c-1.30612,1.5555-2.86822,1.17743-4.495,0.65224-2.50004-0.85988-3.82967-2.61674-3.10307-4.97303,0.89751-2.56285,3.35319-2.61592,5.54172-1.93512,1.52616,0.50545,2.8326,1.16765,3.02317,2.67228l1.43343,0.2169c-0.0805-0.90234-0.43816-1.70562-1.09461-2.41289-0.68925-0.74259-1.65072-1.31757-2.90365-1.73359z"/>
<path d="m488.029,379.122-6.54019,9.15906,1.66192,0.24047,2.01921-2.8446,0.007,0.001,5.39774,0.78104,1.13004,3.30029,1.66192,0.24048-3.6757-10.6373-1.66191-0.24047zm0.60512,1.6809,1.42636,4.15944-3.97323-0.57492,2.54687-3.58452z"/>
<path d="m511.47,379.193c-1.14266,0.22076-2.14408,0.60727-3.01802,1.1722-0.87056,0.56274-1.4915,1.25979-1.86263,2.09414-0.37102,0.83409-0.46045,1.74541-0.26766,2.74338,0.17666,0.91443,0.57327,1.7236,1.1844,2.42972,0.6087,0.70328,1.37718,1.1721,2.32202,1.41827,0.93976,0.24486,2.11036,0.23669,3.51447-0.0346,1.34825-0.26047,2.41884-0.74526,3.23879-1.46156,0.7866-0.6872,1.26619-1.55314,1.44461-2.60254l-1.4854,0.0108c-0.37773,1.99571-1.925,2.43052-3.60068,2.76868-2.601,0.47368-4.62033-0.40766-5.13988-2.81808-0.47161-2.67419,1.64391-3.9223,3.88562-4.3997,1.57827-0.30613,3.04163-0.36804,3.94421,0.85082l1.35617-0.51239c-0.51183-0.74748-1.21684-1.27295-2.13544-1.56846-0.96449-0.31025-2.08436-0.34112-3.38058-0.0907z"/>
<path d="m518.148,378.01c0.94813,3.19565,1.89626,6.39129,2.84439,9.58694,3.11037-0.92283,6.22073-1.84565,9.3311-2.76848-0.13471-0.45405-0.26943-0.90809-0.40414-1.36214-2.64589,0.78505-5.29182,1.57-7.93769,2.35511-0.28864-0.97278-0.57724-1.94559-0.86588-2.91837,2.38433-0.70751,4.7687-1.41486,7.15305-2.12231-0.13403-0.45173-0.26805-0.90347-0.40208-1.3552-2.38435,0.70745-4.76872,1.4148-7.15305,2.12231-0.25541-0.86072-0.51069-1.72147-0.76615-2.58217,2.54667-0.75567,5.09338-1.51119,7.64007-2.2668-0.1354-0.45636-0.27079-0.91271-0.40619-1.36907-3.01114,0.89339-6.02229,1.78679-9.03343,2.68018z"/>
<path d="m528.966,374.61c1.39945,3.02534,2.79891,6.05067,4.19836,9.07601,0.41731-0.19304,0.83461-0.38607,1.25192-0.57911-1.16723-2.5233-2.33445-5.04661-3.50169-7.5699,3.2371,1.46816,6.45494,2.97935,9.68455,4.46424,0.21532,0.18677,0.43059,0.0619,0.64586-0.0532,0.41968-0.19414,0.83935-0.38827,1.25903-0.5824-1.39945-3.02534-2.79891-6.05067-4.19836-9.07601-0.41837,0.19353-0.83673,0.38706-1.2551,0.58059,1.16571,2.52002,2.33141,5.04004,3.49712,7.56005-3.32359-1.50694-6.62903-3.05445-9.94557-4.57714-0.54537,0.25228-1.09075,0.50455-1.63612,0.75683z"/>
<path d="m539.947,369.452,0.7834,1.1903,3.57155-2.3506,0.13556-0.0892,0.0676,0.10271,4.64663,7.0602,1.2141-0.79904-4.64663-7.06021-0.0676-0.10271,0.13849-0.0912,3.58924-2.36224-0.7834-1.1903z"/>
<path d="m550.009,362.562c2.25912,2.45158,4.51825,4.90315,6.77737,7.35473,0.35826-0.32963,0.71559-0.66044,1.07443-0.98933-0.88853-0.9642-1.77701-1.92843-2.66556-2.89261,1.17531-1.0949,2.3759-2.16325,3.53179-3.27856,1.69818,0.22782,3.39617,0.45717,5.09534,0.67753,0.45399-0.41836,0.90799-0.83671,1.36198-1.25507-1.79202-0.23715-3.58403-0.4743-5.37605-0.71145,0.65931-0.90206,0.94479-2.18281,0.32762-3.18296-0.46831-0.86361-1.31769-1.60043-2.34759-1.58963-1.38249-0.0318-2.44436,1.01126-3.42205,1.85319-1.45278,1.3374-2.90492,2.6777-4.35728,4.01416zm2.0398,0.0584c1.27303-1.15184,2.50096-2.35547,3.81453-3.46086,0.6802-0.51389,1.64011-1.16046,2.49542-0.66105,0.73053,0.41027,0.7228,1.39714,0.29822,2.02581-0.75622,1.26942-1.97455,2.14713-3.01826,3.16305-0.46989,0.433-0.93977,0.866-1.40966,1.299-0.72675-0.78859-1.45368-1.57749-2.18025-2.36595z"/>
<path d="m561.643,350.918,4.47337,10.3272,1.06321-1.29975-1.39553-3.1971,0.004-0.005,3.45322-4.22148,3.41028,0.73412,1.06321-1.29976-11.009-2.33754-1.06322,1.29975zm1.75217,0.34857,4.29916,0.9234-2.54189,3.1074-1.75727-4.0308z"/>
<path d="m565.998,345.253,8.39039,5.44074,4.40302-6.79009-1.19211-0.77303-3.52205,5.43147-0.0902,0.13913-0.10617-0.0688-7.09208-4.59886z"/>
</g>
<g clip-path="url(#shield)">
<g id="rays">
<path fill="#fff" d="m500.001,226.408 -31.4786,54.5355 -15.42,26.7015h93.7971l-14.7145,-25.4844 -32.1841,-55.7526z"/>
<g id="rays5">
<g id="ray">
<path fill="#17c0eb" stroke="#17c0eb" stroke-width="0.12869333" opacity="0.62040818" d="m500.001,226.408-2.35655,4.08164,2.35655,54.9769,2.35656-54.9769z"/>
<path fill="#fff" d="m500.001,277.475c-0.044,0 -0.0891,0.002 -0.1335,0.003l0.1335,3.11123 0.13351-3.11123c-0.0443,-0.00097 -0.0892,-0.003 -0.13351,-0.003z"/>
</g>
<use xlink:href="#ray" transform="rotate(72,500.001,285.46654)"/>
<use xlink:href="#ray" transform="rotate(144,500.001,285.46654)"/>
<use xlink:href="#ray" transform="rotate(216,500.001,285.46654)"/>
<use xlink:href="#ray" transform="rotate(288,500.001,285.46654)"/>
</g>
<use xlink:href="#rays5" transform="rotate(8,500.001,285.46654)"/>
<use xlink:href="#rays5" transform="rotate(16,500.001,285.46654)"/>
<use xlink:href="#rays5" transform="rotate(24,500.001,285.46654)"/>
<use xlink:href="#rays5" transform="rotate(32,500.001,285.46654)"/>
<use xlink:href="#rays5" transform="rotate(40,500.001,285.46654)"/>
<use xlink:href="#rays5" transform="rotate(48,500.001,285.46654)"/>
<use xlink:href="#rays5" transform="rotate(56,500.001,285.46654)"/>
<use xlink:href="#rays5" transform="rotate(64,500.001,285.46654)"/>
</g>
<g id="rainbow">
<path fill="#f00" d="m500,265.844c-11.0666,0-21.1953,4.05143-28.9688,10.75l-14.656,25.406c-0.50136,2.67038-0.75,5.43402-0.75,8.25h5.03125c0-21.7264,17.6173-39.3438,39.3438-39.3438,21.7264,0,39.3438,17.6173,39.3438,39.3438h5.03125c0-2.81337-0.24954-5.58193-0.75-8.25l-14.6562-25.4062c-7.77293-6.69663-17.904-10.75-28.9688-10.75z"/>
<path fill="#f60" d="m500,266.656c-11.764,0-22.4393,4.67488-30.2812,12.25l-12.031,20.844c-0.83351,3.36611-1.28125,6.87625-1.28125,10.5h4.25c0-21.7264,17.6173-39.3438,39.3438-39.3438,21.7264,0,39.3438,17.6173,39.3438,39.3438h4.25c0-3.62494-0.44735-7.16414-1.28125-10.5312l-12.0312-20.8125c-7.841-7.57455-18.5177-12.25-30.2812-12.25z"/>
<path fill="#ff0" d="m500,267.469c-12.7024,0-24.1008,5.52218-31.9375,14.3125l-8.71875,15.0938c-1.38396,4.20847-2.125,8.70346-2.125,13.375h3.4375c0-21.7264,17.6173-39.3438,39.3438-39.3438,21.7264,0,39.3438,17.6173,39.3438,39.3438h3.4375c0-4.67311-0.74037-9.16532-2.125-13.375l-8.719-15.095c-7.836-8.788-19.237-14.312-31.938-14.312z"/>
<path fill="#0f0" d="m500,268.25c-14.5495,0-27.3723,7.41414-34.9062,18.6562l-2.8125,4.875c-2.735,5.574-4.282,11.842-4.282,18.469h2.65625c0-21.7264,17.6173-39.3438,39.3438-39.3438,21.7264,0,39.3438,17.6173,39.3438,39.3438h2.6562c0-6.61555-1.55577-12.8712-4.28125-18.4375l-2.844-4.937c-7.536-11.227-20.337-18.625-34.875-18.625z"/>
<path fill="#0cf" d="m500,269.062c-22.7472,0-41.1875,18.4403-41.1875,41.1875h1.84375c0-21.7264,17.6173-39.3438,39.3438-39.3438,21.7264,0,39.3438,17.6173,39.3438,39.3438h1.84375c0-22.7472-18.4403-41.1875-41.1875-41.1875z"/>
<path fill="#00f" d="m500,269.844c-22.3058,0-40.375,18.1004-40.375,40.4062h1.34375c0-21.5594,17.4718-39.0312,39.0312-39.0312s39.0312,17.4718,39.0312,39.0312h1.375c0-22.3058-18.1004-40.4062-40.4062-40.4062z"/>
<path fill="#800080" d="m500.001,270.657c-21.8638,0-39.5887,17.7249-39.5887,39.5887,0,0.24501,0.003,0.48981,0.007,0.73377h0.8008c-0.005-0.24405-0.007-0.48864-0.007-0.73377,0-21.4222,17.3658-38.7879,38.7879-38.7879,21.4222,0,38.7879,17.3658,38.7879,38.7879,0,0.24513-0.002,0.48972-0.007,0.73377h0.79727c0.004-0.24396,0.007-0.48876,0.007-0.73377,0-21.8638-17.7214-39.5887-39.5852-39.5887z"/>
</g>
<g id="cap">
<path fill="#510000" d="m500.395,288.134c-0.64444-0.12422-1.22556-0.48362-1.77526-0.60947-0.75553,0.72433-0.83505,1.45617-0.73118,2.07933,0.26291,0.13958,0.31133,0.353,0.87825,0.86011s0.49599,0.7732,0.46178,1.96543c-0.0144,0.50237,0.0702,1.58063,0.57906,1.682,0.54856,0.1093,0.93237-0.34645,1.08988-1.16049,0.15297-0.79058,0.4179-1.2158,0.69822-1.70182,0.30651-1.85224-0.19317-2.50796-1.20075-3.11509z"/>
<path fill="#f00" d="m497.168,283.524c-0.5954,0.015-1.52849,1.01222-1.94312,0.4754-0.2385-0.30879-0.2787-0.90191-0.037-1.40011,0.55866-1.15143,1.12448-1.71603,2.16738-2.33046,2.37772-1.40083,3.8889-0.95056,5.07395,1.06271,1.0982,1.77292,2.15196,3.72986,2.24612,5.37194,0.0291,0.50093,0.28239,1.40776-0.15623,1.85983-1.34779,1.38922-4.59607-1.43513-6.49718-0.9882-0.63913,0.15025-1.37729,0.6166-1.98048,0.21781-0.46922-0.31025-0.0771-0.99697,0.27265-1.29413,0.61215-0.52003,1.50103-2.36524,1.38013-3.16441-0.0677-0.44682-0.08,0.17838-0.52586,0.18962z"/>
<path fill="url(#cap1)" d="m496.927,282.548c-1.08326,0.4452-0.96582,1.07615-1.50945,1.59022,0.15386,0.0578,0.7653,0.31056,1.36345-0.30126,0.25817-0.21386,0.54788-0.29339,0.67713-0.36245-0.30513,0.22158-0.52326,0.55469-0.68366,0.68484-0.40495,0.32861-1.03464,1.08239-1.34095,1.84608-0.30631,0.76368-0.43013,1.67294-0.37506,1.78203,0.0551,0.1091,0.42587,0.77878,1.5653,1.23156,2.03098,0.80708,2.41713,2.43864,4.47768,2.43864,1.61336,0,1.35441-1.05575,2.64581-0.83159,1.1192,0.19425,1.71404-0.69654,0.63574-1.23178-1.371-0.46864-4.09192-0.19196-5.37247,0.0332-0.41337-4.08361-0.0551-2.64985-0.15181-4.40521-0.0968-1.75536-0.62285-1.86055,0.0724-3.28125-0.57778,0.87239-1.27677,0.73447-2.004,0.807z"/>
<path fill="#ff2a2a" d="m500.938,279.795c-0.0401,0.22319-0.0767,0.51644-0.0555,0.6,0.087,0.33854,0.17464,0.69288,0.27745,0.99375,0.11493,0.33621,0.16173,0.57942,0.24047,0.92812,0.0812,0.35981,0.40101,0.50003,0.69364,0.72188,0.36987,0.28044,0.0839,1.03755,0.31445,1.06875,0.18399,0.025,0.48828-1.07134,0.49017-1.24688,0-0.23637-0.001-0.42692-0.037-0.64687-0.1351-0.29493-0.27167-0.58548-0.42543-0.87188-0.002-0.004-0.007-0.006-0.009-0.009-0.0604-0.11211-0.12197-0.22206-0.19422-0.32812-0.21674-0.3182-0.48469-0.61247-0.78613-0.8625-0.0186-0.0154-0.0367-0.0318-0.0555-0.0469-0.0843-0.0645-0.17013-0.13028-0.25896-0.1875-0.0629-0.0405-0.12933-0.0758-0.19422-0.1125z"/>
<path fill="url(#cap2)" d="m501.249,287.398c-0.71834-0.18768-1.42584-0.54264-2.03712-0.72519-1.20046-0.3585-2.47993-1.13407-3.3655-0.81346-0.31696,0.14032-0.28927,0.45588-0.39018,0.90946-0.0419,0.53363-0.59621,1.31951-0.13634,1.06243,0.68545-0.38318,2.49069,0.73271,3.09544,1.10617,0.28651,0.17693,0.89218,0.52377,1.08153,1.02169,0.18934,0.49792,0.092,1.75593,0.0412,2.29553-0.0533,0.56606,0.11902,1.83505,0.68594,1.98695,0.61122,0.16378,1.07804-0.32245,1.31579-1.2298,0.23091-0.8812,0.40519-1.38725,0.75742-1.91526s0.75591-0.75584,1.31984-0.86236c0.56393-0.10651,1.38228,0.46186,1.38228-0.20334,0-0.43694-0.38382-0.85479-0.22071-1.45374,0.12846-0.47174-0.40137-0.37766-0.84179-0.57224-1.03591-0.31872-1.96945-0.41916-2.6878-0.60684z"/>
<path fill="#910000" d="m498.363,288.902c-0.32675-0.17761-2.3152-1.4778-3.04281-1.07105-0.22993,0.12854-0.31747-0.0162-0.32062-0.25731-0.004-0.24106,0.10913-0.59399,0.18399-0.86612,0.0749-0.27214,0.19591-0.79179,0.5164-1.06192,0.68731-0.5793,2.2686,0.57503,3.1082,0.88679-0.0717,0.4352-0.47012,2.35517-0.44516,2.36961z"/>
<path fill="#ff3a3a" d="m501.763,291.361c0.91566-1.60289,1.50762-1.39687,2.61336-1.37357,0.36843,0.008,0.47628-0.32925,0.39238-0.66749-0.278,0.62397-1.66206-0.069-2.41497,0.26261-1.57249,0.69255-1.28027,3.76979-2.02634,4.07028,0.77552,0.65117,1.1236-1.74573,1.43557-2.29183z"/>
</g>
<g id="seab" fill="url(#seabgrad)">
<path fill="#fff" d="m453.103,307.645-9.95545,17.2366,113.708,0-9.95545-17.2366-93.7972,0z"/>
<g id="wavesb3">
<path id="waveb1" d="m449.705,321.364c-1.65776,0-3.19731,0.16736-4.70961,0.35278l-0.48684,0.84666c2.43344-0.21658,4.69724-0.64924,7.14027-0.70908,3.29349,0.0801,6.2835,0.82902,9.78611,0.82902,1.51792,0.0147,3.02697-0.0297,4.5262,0,3.49923,0,6.48854-0.74896,9.78259-0.82902,3.29576,0.0801,6.30397,0.82902,9.80375,0.82902,1.51769,0.005,3.17747-0.0238,4.52973,0,3.49922,0,6.47429-0.74896,9.76495-0.82902,3.29293,0.0801,6.26925,0.82902,9.76848,0.82902,1.53042,0.0148,3.03299-0.0299,4.54381,0,3.49923,0,6.49037-0.74896,9.78612-0.82902,3.29632,0.0795,6.28114,0.82902,9.78258,0.82902,1.51624,0.0145,3.03114-0.0297,4.52976,0,3.49867,0,6.47485-0.74896,9.76495-0.82902,2.55081,0.062,4.92094,0.51761,7.48601,0.72319l-0.51507-0.89252c-1.40293-0.16829-2.8346-0.32103-4.36741-0.32103-1.52925-0.0208-3.03636,0.0308-4.54734,0-3.4992,0-6.47369,0.74842-9.76495,0.82902-3.29632-0.0801-6.28347-0.82902-9.78612-0.82902-1.51274-0.0209-3.0301,0.0312-4.52617,0-3.49921,0-6.49263,0.74897-9.7861,0.82902-3.29407-0.0801-6.28337-0.82902-9.7826-0.82902-1.52189-0.0207-3.04194,0.0308-4.54734,0-3.49922,0-6.4754,0.74897-9.76495,0.82902-3.29404-0.0801-6.26924-0.82902-9.76847-0.82902-1.52279-0.0213-3.02634,0.0313-4.52618,0-3.5026,0-6.48979,0.74897-9.78611,0.82902-3.29405-0.0806-6.28335-0.82902-9.78259-0.82902-1.52022-0.0209-3.04332,0.0313-4.54733,0z"/>
<use xlink:href="#waveb1" y="-1.1132812"/>
<use xlink:href="#waveb1" y="-2.2304687"/>
</g>
<use xlink:href="#wavesb3" y="-3.34375"/>
<use xlink:href="#wavesb3" y="-6.6914063"/>
<path d="m453.23,307.458 -0.12347,0.21519h93.7901l-0.12348,-0.21519h-93.5432zm-0.21872,0.37746 -0.127,0.21873h94.2346l-0.127,-0.21873h-93.9806zm-0.20109,0.34572 -0.20461,0.35631h94.792l-0.2046,-0.35631h-94.3828zm-0.3175,0.55033 -0.25047,0.43392h95.5187l-0.25048,-0.43392h-95.0178zm-0.39864,0.69144 -0.25047,0.43392h96.316l-0.25047,-0.43392h-95.815zm-0.39864,0.69144 -0.24695,0.43039h97.1062l-0.24693,-0.43039h-96.6123zm-0.39864,0.69144 -0.25048,0.43039h97.9106l-0.25048,-0.43039h-97.4096zm-0.43039,0.74436 -0.30339,0.52916h98.8772l-0.30339,-0.52916h-98.2704z"/>
<path d="m457.357,312.287c3.45019,0.6621 3.7818,0 3.7818,0zm81.5028,0s0.3316,0.6621 3.7818,0z"/>
</g>
<g id="mountains" fill="#ccd11e">
<g id="mountain1">
<path fill="url(#mountain)" d="m530.631,297.043c-1.70879,0-2.23164,0.86208-2.23164,0.86208-2.73683,10.5758-11.8078,21.3327-22.6008,21.3327h-8.08019v10.7684c0,0.003,0.0112,0,0.017,0h61.4976l-6.18652-10.9539c-9.70777-1.44879-17.6397-11.3728-20.1666-21.1472-0.0003,0-0.54017-0.86208-2.24897-0.86208z"/>
<path fill="#97c924" d="m530.631,297.465c-0.78411,0-1.26009,0.18069-1.53836,0.35499-0.26383,0.16497-0.31454,0.2757-0.32096,0.28758,0,0.007-0.0151,0.01-0.0176,0.0168-1.39971,5.32242-4.35191,10.6683-8.33374,14.7065-4.01201,4.06971-9.06971,6.82929-14.605,6.82929h-7.67481v9.92268h60.8557l-5.68004-10.0578c-4.68763-0.61173-8.97309-3.16302-12.4584-6.69417-3.98569-4.03827-6.93211-9.38349-8.33374-14.7065,0,0-0.0164-0.0165-0.017-0.0168-0.007-0.012-0.0696-0.10431-0.33797-0.27057-0.28308-0.17556-0.75393-0.372-1.53804-0.372z"/>
<path fill="#ede71f" d="m530.63,297.465c0.14713,0,0.27966,0.0211,0.4057,0.0341,0.0238,3.01731,0,8.10909,0,10.8013-0.0287,2.34006-0.83034,4.2225-2.01175,6.44085-0.54742,1.5541-0.98612,0.96232-2.34929,2.85666-1.83161,0.65398-3.18666,0.90876-5.13836,1.21655-2.51753,0.39758-8.12164,0.75027-10.8869,0.13523,3.64106-1.06725,6.96079-3.26938,9.77096-6.11954,0.74649-0.7573,1.45945-1.5595,2.12967-2.40011,1.11812-1.40047,2.12751-2.91291,3.00924-4.47944,0.35269-0.6264,0.68645-1.24901,0.99749-1.89326,0.46683-0.9661,0.88335-1.95059,1.25119-2.94104,0.12279-0.3305,0.24396-0.66588,0.35485-0.99747,0.22233-0.66372,0.41706-1.32961,0.59179-1.99495,0.002-0.006,0.0151-0.0103,0.0168-0.0168,0.006-0.0119,0.0579-0.12225,0.32077-0.28724,0.13578-0.0849,0.3316-0.17039,0.57502-0.23692,0.005-0.001,0.0124,0.001,0.0168,0,0.25153-0.0665,0.55446-0.11793,0.9461-0.11793z"/>
<path fill="#c6cb24" d="m529.938,298.902c-0.41166,6.03407-2.27735,13.1917-6.64434,17.8107-1.60658,1.33664-3.65998,2.54995-5.64577,2.2546,6.77038-5.51045,10.8853-13.9468,12.2901-20.0653z"/>
<path fill="#9ecb34" d="m524.494,309.281c-1.00181,2.72142-4.78784,6.74649-8.84,10.0451-1.15058,0.0352-1.75967,0.10115-2.80422,0.0379,2.46776-0.22502,8.22171-5.08258,11.6442-10.0829z"/>
</g>
<use xlink:href="#mountain1" x="-15.340665"/>
<g id="mountain3" fill="#c6cb24">
<path fill="url(#mountain)" d="m502.218,297.911c2.73458,10.5755,11.7902,21.3327,22.5831,21.3327h8.08853v10.7681c0,0.003-0.0144,0-0.017,0h-65.7947c-0.006,0-0.0167,0.003-0.0167,0v-10.7681h8.07151c10.7926,0,19.863-10.7575,22.6001-21.3327,0,0,0.53408-0.86562,2.24287-0.86562s2.24287,0.86562,2.24287,0.86562z"/>
<path fill="#97c924" d="m499.975,297.465c0.78378,0,1.25463,0.19644,1.53836,0.372,0.26865,0.16626,0.33123,0.25869,0.33829,0.27057,0,0,0.017,0.0168,0.017,0.0168,1.40164,5.32275,4.34806,10.6683,8.33375,14.7065,4.0165,4.06971,9.08671,6.82929,14.6226,6.82929h7.64046v9.92238h-64.9804v-9.92238h7.67448c5.53561,0,10.593-2.75991,14.6053-6.82929,3.98184-4.03827,6.93371-9.38379,8.33374-14.7065,0.003-0.007,0.0151-0.01,0.017-0.0168,0.006-0.012,0.0575-0.12228,0.32096-0.28758,0.2786-0.1743,0.75458-0.35499,1.53837-0.35499z"/>
<path fill="#ede71f" d="m499.263,297.53c-0.0864,0.0162-0.16714,0.0347-0.24243,0.0546-0.004,0.001-0.0128-0.001-0.0176,0-0.24288,0.0665-0.43572,0.15144-0.5715,0.23636-0.26398,0.16499-0.31454,0.27385-0.32103,0.28575-0.002,0.006-0.016,0.0111-0.0176,0.0176-0.17526,0.66535-0.37034,1.333-0.59266,1.99672-0.11089,0.33159-0.23352,0.66433-0.35631,0.99484-0.36838,0.99044-0.782,1.97606-1.24883,2.94216-0.31158,0.64425-0.64567,1.26802-0.99836,1.89442-0.88173,1.56653-1.89108,3.07628-3.0092,4.47675-0.67076,0.84061-1.38428,1.64511-2.13077,2.40242-2.80963,2.85016-6.12791,5.04991-9.76842,6.11716,2.76473,0.61504,4.03154-0.056,6.54853-0.45356,1.95224-0.30779,4.21092-0.5631,6.04308-1.21708,1.3637-1.89434,0.89896-1.29988,1.44639-2.85397,1.18086-2.21836,2.90542-4.22182,3.33375-6.68161,1.61858-3.02147,1.90301-8.6137,1.90304-10.2126z"/>
<path d="m499.275,298.902c-0.41166,6.03407-2.27681,13.1917-6.6438,17.8107-1.60658,1.33664-3.65998,2.54995-5.64577,2.2546,6.77038-5.51045,10.8848-13.9468,12.2896-20.0653z"/>
<path fill="#9ecb34" d="m493.832,309.281c-1.00204,2.72139-4.78809,6.74682-8.84021,10.0453-1.15033,0.035-1.75951,0.10077-2.80424,0.0375,2.46787-0.2253,8.22237-5.08266,11.6444-10.0828z"/>
<path fill="#ede71f" d="m500.951,297.584c0.004,0.001,0.0128-0.001,0.0176,0,0.24288,0.0665,0.43572,0.15144,0.5715,0.23636,0.26398,0.16499,0.31454,0.27385,0.32103,0.28575,0.002,0.006,0.016,0.0111,0.0176,0.0176,0.17526,0.66535,0.37034,1.333,0.59266,1.99672,0.11089,0.33159,0.23352,0.66433,0.35631,0.99484,0.36838,0.99044,0.782,1.97606,1.24883,2.94216,0.31158,0.64425,0.64567,1.26802,0.99836,1.89442,0.88173,1.56653,1.89108,3.07628,3.0092,4.47675,0.67076,0.84061,1.38428,1.64511,2.13077,2.40242,2.80963,2.85016,6.12791,5.44502,9.76842,6.51227-7.24491,0.0274-10.3888-0.63-13.022-4.01661-2.63318-3.38661-3.60599-4.86816-4.1405-6.93644-0.53451-2.06829-2.02539-6.57045-1.86986-10.8063z"/>
<path d="m501.476,298.902c0.41166,6.03407,2.2209,12.0063,6.58735,16.6253,1.60659,1.33664,3.65999,2.54994,5.64577,2.2546-7.33482-5.00192-10.8288-12.7615-12.2331-18.8799z"/>
</g>
<g id="mountain4">
<path fill="url(#mountain)" d="m484.749,297.043c-1.70911,0-2.24833,0.86208-2.24833,0.86208-2.52242,9.74649-11.825,22.3182-21.4962,23.8113l-4.78983,8.28981h49.0144v-11.3486c-8.82472-2.37071-15.8893-11.6292-18.2484-20.7525-0.00034,0-0.52284-0.86208-2.23164-0.86208z"/>
<path fill="#97c924" d="m484.749,297.465c-0.7841,0-1.25495,0.19644-1.53836,0.372-0.26864,0.16626-0.33123,0.25869-0.33797,0.27057-0.00033,0-0.017,0.0168-0.017,0.0168-1.40164,5.32275-4.67746,10.7045-8.07974,14.9888-3.40228,4.28421-9.71968,8.61825-14.0417,9.07638l-4.28272,7.39371h48.0605v-10.6937c-3.55405-1.09062-6.79917-3.26637-9.5523-6.05864-3.98183-4.03827-6.93371-9.38379-8.33374-14.7065-0.002-0.007-0.0154-0.01-0.017-0.0168-0.006-0.012-0.0578-0.12228-0.32128-0.28758-0.27891-0.1743-0.7549-0.35499-1.53868-0.35499z"/>
<path fill="#93bc30" d="m483.445,298.903c-0.61721,9.04327-5.65334,20.4536-11.3402,22.4194-1.85433,0.64154-5.09834,0.86441-6.22727,1.00883,9.94892-4.73151,15.8284-15.8536,17.5675-23.4282z"/>
<path fill="#ede71f" d="m484.746,297.465c-0.14713,0-0.27966,0.0211-0.4057,0.0341-0.0233,3.01731,0,8.10909,0,10.8013,0.0292,2.34006,0.83088,4.2225,2.01175,6.44085,0.0687,0.1942,0.13577,0.35377,0.20285,0.49009,0.41003,1.08564,0.7135,1.46267,2.28222,2.6538,4.9869,3.78651,11.1698,4.35287,14.8082,4.04021-1.13975-0.89849-2.35794-1.71529-3.4317-2.46772,1.71152-0.0552,3.3511-0.24883,4.51358-0.5074-3.64051-1.06725-6.96079-3.26938-9.77042-6.11954-0.48955-0.49658-0.94501-1.02182-1.40319-1.55518-0.20826-0.29156-0.50091-0.69725-0.59178-0.81139-1.11812-1.40047-2.26275-2.94699-3.14448-4.51352-0.35269-0.6264-0.6859-1.24901-0.99748-1.89326-0.46683-0.9661-0.88282-1.95059-1.25119-2.94104-0.1228-0.3305-0.24397-0.66588-0.35486-0.99747-0.22232-0.66372-0.41652-1.32961-0.59178-1.99495-0.002-0.006-0.0152-0.0103-0.0168-0.0168-0.006-0.0119-0.0573-0.12225-0.32132-0.28724-0.13578-0.0849-0.3316-0.17039-0.57502-0.23692-0.005-0.001-0.0124,0.001-0.0168,0-0.25153-0.0665-0.55446-0.11793-0.9461-0.11793z"/>
<path d="m485.446,298.902c0.41166,6.03407,2.27735,13.1917,6.6438,17.8107,1.60658,1.33664,3.65998,2.54995,5.64577,2.2546-6.77038-5.50991-10.8853-13.9468-12.2896-20.0653z"/>
<path fill="#9ecb34" d="m489.613,307.247c2.36901,5.83689,8.37001,11.2893,14.5434,14.9536,1.15032,0.035,1.49118,0.003,2.53623-0.06-4.41834-2.3709-11.5382-5.75379-17.0796-14.8936z"/>
</g>
<use xlink:href="#mountain4" x="-15.429624" fill="#c6cb24"/>
</g>
<g id="seaf">
<path fill="#fff" d="m556.5,324.692c-0.57438,0.20274-4.4212-0.18918-6.43291-0.0441l-1.27942,0.33561c-1.12352-0.008-2.2382,0.0249-3.33025,0-3.60215,0-6.64947,0.94833-10.0754,0.94896-3.43268,0-6.47005-0.94896-10.0754-0.94896-1.11911-0.008-2.23365,0.025-3.33025,0-3.6015,0-6.64626,0.94896-10.0754,0.94896-3.42915,0-6.47326-0.94896-10.0754-0.94896-1.13086-0.007-2.24155,0.0238-3.34789,0-3.60182,0-6.63215,0.94896-10.0578,0.94896-3.42883,0-6.45594-0.94896-10.0578-0.94896-0.26736,0-0.51646,0.009-0.77612,0.0177-0.17781-0.004-0.37669-0.0177-0.55739-0.0177-0.11972,0-0.22152-0.003-0.33867,0-0.11714-0.003-0.23659,0-0.35631,0-0.18069,0-0.3443,0.0138-0.52212,0.0177-0.25964-0.008-0.51195-0.0177-0.77963-0.0177-3.60535,0-6.64241,0.94929-10.0754,0.94896-3.42914,0-6.47358-0.94896-10.0754-0.94896-0.2619,0-0.52159,0.01-0.77611,0.0177-0.1807-0.004-0.33885-0.0177-0.52212-0.0177-0.12421,0-0.25198-0.003-0.37394,0-0.11715-0.003-0.23659,0-0.35631,0-0.1807,0-0.36162,0.0138-0.53975,0.0177-0.25902-0.008-0.50844-0.0177-0.77612-0.0177-2.87883,0-6.21806,0.60744-8.93592,0.8502l-6.27243,10.8584,62.9712-0.007,64.3753,0.007z"/>
<path fill="url(#seafgrad)" d="m547.993,323.111c-0.19914,0-0.3979,0-0.5962,0.007-3.24025,0.0945-5.56407,1.1148-11.2007,1.1148-5.63662,0-6.21814-1.01862-12.5836-0.87843-5.9467,0.13098-8.44224,1.2612-11.6699,1.21707-3.22765-0.0441-8.47272-0.69756-12.5095-0.27513-4.03677,0.4224-8.8283,1.28394-11.9733,1.29114-3.90833-0.0174-7.81956-0.73101-11.9062-0.32454-4.08669,0.40647-5.99703,1.49994-11.0631,1.48518-4.35525-0.0126-9.08294-0.69768-12.7459-0.69498-3.43476,0.003-7.26655,0.95724-10.0859,1.44288l-0.84314,1.46403c2.24704-0.26058,8.55148-1.21821,10.802-1.27707,2.34423-0.0613,10.717,0.48306,15.3352,0.32457,4.61831-0.15849,5.15872-1.17123,10.6186-1.17123,3.80095,0,6.66602,0.39864,10.5657,0.39864,2.43414,0,4.64322-1.24179,8.34319-1.24179,0.93595-0.0267,1.86447-0.0608,2.794-0.0914,3.11857-0.51522,8.38344,0.0449,12.0474,0.23274,3.31532,0.17289,5.45733-0.61554,8.9147-0.73023,1.49575-0.0682,2.99739-0.0659,4.47322-0.1483,3.46061-0.11481,6.42225,0.64053,9.68022,0.62442,3.24998-0.20046,6.40346-0.9225,9.86013-1.03716,1.51123-0.0717,2.99793-0.0723,4.49087-0.1482,2.28616-0.0758,5.83581,0.0784,8.27264,0.50094l-0.83962-1.4499c-2.37954-0.0756-5.31192-0.63528-8.18091-0.63501z"/>
<g id="wavesf3">
<path id="wavef1" fill="url(#seafgrad)" d="m450.312,334.748c-3.4571,0-6.40225,0.85314-9.65206,0.94542-1.21068-0.0338-2.36647-0.18372-3.53485-0.34572l-0.49037,0.8502c0.48641,0.0323,0.97518,0.0635,1.48873,0.0635,1.50121,0.0181,2.99033-0.0362,4.47333,0,3.4571,0,6.38201-0.85251,9.63442-0.94545,3.25403,0.0923,6.20548,0.94545,9.66617,0.94545,1.5011,0.0185,2.99216-0.0362,4.47329,0,3.45743,0,6.41213-0.85317,9.66616-0.94545,3.25601,0.0923,6.23024,0.94545,9.68735,0.94545,1.49515,0.018,2.99325-0.0361,4.46979,0,3.45745,0,6.40128-0.85317,9.65206-0.94545,3.25339,0.0923,6.19143,0.94545,9.64853,0.94545,1.51281,0.0184,2.99932-0.0362,4.49089,0,3.45713,0,6.41051-0.85317,9.66617-0.94545,3.25762,0.0917,6.21,0.94545,9.66971,0.94545,1.49537,0.018,2.99209-0.0361,4.46978,0,3.45709,0,6.40095-0.85317,9.65206-0.94545,3.25303,0.0923,6.20903,0.94545,9.66616,0.94545,1.49931,0.0181,2.99554-0.0361,4.47325,0,0.60565,0,1.19636-0.0342,1.77801-0.0776l-0.46213-0.79728c-1.06409,0.14412-2.13376,0.27615-3.235,0.3069-3.25439-0.0923-6.19497-0.94542-9.65207-0.94542-1.51059-0.0196-2.99775,0.0292-4.49089,0-3.4571,0-6.39678,0.85314-9.64853,0.94542-3.25694-0.0916-6.2058-0.94542-9.66617-0.94542-1.49604-0.0198-2.99286,0.0297-4.47325,0-3.45713,0-6.41243,0.85314-9.66617,0.94542-3.25435-0.0923-6.20904-0.94542-9.66617-0.94542-1.50326-0.0196-3.00351,0.0292-4.4909,0-3.45712,0-6.39874,0.85314-9.64852,0.94542-3.25406-0.0923-6.19497-0.94542-9.65206-0.94542-1.5058-0.02-2.98967,0.0296-4.47325,0-3.46037,0-6.40921,0.8538-9.66618,0.94542-3.25436-0.0923-6.20873-0.94542-9.66617-0.94542-1.50222-0.0201-3.00578,0.0298-4.49089,0z"/>
<use xlink:href="#wavef1" y="-1.2894435"/>
<use xlink:href="#wavef1" y="-2.5745998"/>
</g>
<use xlink:href="#wavesf3" y="-3.8671875"/>
<use xlink:href="#wavesf3" y="-7.7286534"/>
</g>
<path fill="#97c924" d="m443.846,324.705-2.42711,4.191c2.83897-0.47073,7.10222-1.70307,10.6345-1.70568,3.66291-0.003,8.08192,0.90279,12.4372,0.91545,5.06609,0.0147,6.97643-1.07871,11.0631-1.48521,4.08668-0.40644,7.99791,0.52761,11.9062,0.54507,3.14498-0.007,7.93651-1.08924,11.9733-1.51167,4.03678-0.42243,7.73721,0.29346,12.603,0.3687,4.86583,0.0753,5.62964-1.17963,11.5763-1.31061,6.36544-0.14022,6.94696,0.8784,12.5836,0.8784,4.24149,0.22824,7.88284-0.8541,11.6664-1.12182,3.78351-0.26772,5.53834,0.043,8.3044,0.10938l-1.83798-3.25263c-0.0306,0-0.0608,0.003-0.0917,0.004l-101.246,2.2256z"/>
<path fill="#fff" d="m550.067,324.648s2.71009,0.1485,3.84748,0.27558c1.13739,0.12711,2.95452,0.25356,2.95452,0.25356l-0.36909-0.48504c-0.57438,0.20274-4.4212-0.18918-6.43291-0.0441z"/>
</g>
<path fill="#c8a400" d="m500,224.874 -32.1418,55.6856 -32.8579,56.8991 64.2977,-0.007 65.7018,0.007 -32.153,-55.683 -32.847,-56.902zm0,3.00212 31.5491,54.652 30.8506,53.4278 -63.1018,-0.004 -61.7012,0.004 31.5597,-54.6448z"/>
</svg>
