<svg xmlns="http://www.w3.org/2000/svg" viewBox="0 0 1200 660"><path d="M0 0h1200v660H0z" fill="#0038a8"/><path d="M0 0h1200v440H0z" fill="#fff"/><path d="M0 0h1200v220H0z" fill="#d52b1e"/><path d="M683.656 329.978A83.656 83.656 0 1 1 600 246.344a83.657 83.657 0 0 1 83.656 83.634z" fill="#fff" stroke="#000" stroke-miterlimit="10" stroke-width="3.687"/><path d="M640.448 317.02c-2.031-.08-2.043 2.158-2.043 2.158s.07-.662.012.09c-.039.743.333 2.555 1.833 2.7 1.583.139 2.109-1.711 2.122-2.609 0-.356-.116-2.3-1.924-2.34" fill="#009b3a" stroke="#000" stroke-width=".985"/><path d="M547.516 363.468l-.717-1.187a4.618 4.618 0 0 0-.558-.675.818.818 0 0 0-.554-.273.987.987 0 0 0-.652.132.925.925 0 0 0-.49.675 1.911 1.911 0 0 0 .393 1.2l.725 1.235zm7.08-.408l-9.1 5.412-2.778-4.668a7.86 7.86 0 0 1-.95-2.122 2.373 2.373 0 0 1 .156-1.6 2.92 2.92 0 0 1 1.23-1.313 3.154 3.154 0 0 1 1.48-.457 2.98 2.98 0 0 1 1.426.365 4.562 4.562 0 0 1 .955.768 3.465 3.465 0 0 1-.113-.934 5.96 5.96 0 0 1 .221-.73 7.091 7.091 0 0 1 .313-.729l1.839-2.928 1.875 3.18-1.875 3.157a2.6 2.6 0 0 0-.4.92 1.485 1.485 0 0 0 .195.807l.156.258 3.687-2.194zm-16.02-7.41l-2.778-8.3 2.142-.72 1.74 5.2 1.606-.54-1.636-4.83 2.058-.671 1.616 4.806 1.97-.637-1.778-5.355 2.273-.774 2.822 8.458zm.3-16.9l-.112-.777a2.033 2.033 0 0 0-.47-1.284 1.135 1.135 0 0 0-.9-.282 1.3 1.3 0 0 0-.79.417 1.627 1.627 0 0 0-.192 1.28l.089.934zm-4.116 3.79l-.631-5.394a3.809 3.809 0 0 1 .524-2.734 3.212 3.212 0 0 1 2.293-1.152 3.259 3.259 0 0 1 2.6.657 4.283 4.283 0 0 1 1.236 2.82l.2 1.776 3.9-.453.382 3.264zm-.367-20.64l.338-3.25 6.282.676a5.511 5.511 0 0 1 1.71.482 3.549 3.549 0 0 1 1.362 1.074 3.756 3.756 0 0 1 .736 1.4 6.511 6.511 0 0 1 .1 2.31 11.886 11.886 0 0 1-.294 1.654 4.269 4.269 0 0 1-.593 1.469 3.841 3.841 0 0 1-1.019 1.03 3.328 3.328 0 0 1-1.289.55 5.822 5.822 0 0 1-1.812.112l-6.253-.66.337-3.255 6.416.7a1.691 1.691 0 0 0 2.023-1.6 1.783 1.783 0 0 0-.339-1.371 1.816 1.816 0 0 0-1.293-.623zm10.523-8.892l.564-1.566a1.923 1.923 0 0 0 .1-1.236.98.98 0 0 0-.642-.578.907.907 0 0 0-.828.068 1.861 1.861 0 0 0-.672 1.03l-.558 1.576zm-3.924-1.376l.475-1.329a1.584 1.584 0 0 0 .087-1.1.867.867 0 0 0-.612-.52.909.909 0 0 0-.774.034 1.566 1.566 0 0 0-.578.895l-.5 1.366zm-5 1.755L538 307.6a3.418 3.418 0 0 1 1.509-1.97 2.519 2.519 0 0 1 2.04-.152 2.563 2.563 0 0 1 1.322 1.095.983.983 0 1 0 1.724.048 2.612 2.612 0 0 1 1.779.04 2.935 2.935 0 0 1 1.26.84 3.141 3.141 0 0 1 .632 1.334 3.719 3.719 0 0 1-.089 1.279c-.166.744-.264 1.215-.348 1.435l-1.862 5.33zm5.392-13.555l1.71-2.791 6.811 4.128 2.652-4.356 2.22 1.356-4.322 7.145zm6.986-10.406l2.1-2.5 8.07 6.823-2.106 2.5zm14.657-5.686l2.75-1.176a5.475 5.475 0 0 1 .582 2.135 4.092 4.092 0 0 1-.39 1.92 6.472 6.472 0 0 1-1.534 1.815 6.981 6.981 0 0 1-2.5 1.415 4.659 4.659 0 0 1-2.592-.151 6.161 6.161 0 0 1-2.66-1.97 5.562 5.562 0 0 1-1.5-3.988 6.283 6.283 0 0 1 5.066-4.994 4.627 4.627 0 0 1 2.886.807l-1.807 2.344a2.19 2.19 0 0 0-.7-.34 1.588 1.588 0 0 0-.878-.01 1.847 1.847 0 0 0-.8.4 1.919 1.919 0 0 0-.74 1.784 3.88 3.88 0 0 0 .975 1.883 4.025 4.025 0 0 0 1.956 1.507 2.087 2.087 0 0 0 2.327-1.755 3.249 3.249 0 0 0-.432-1.625m10.7-6.355l-2.763-2.86.7 3.924zm1.647 1.736l-3.312 1.684.338 1.794-2.975 1.512-1.26-11.23 3.18-1.625 8.346 7.623-3.043 1.556zm12.855-11.022l.813 5.71.795-.117a3.3 3.3 0 0 0 1.425-.424 1.562 1.562 0 0 0 .544-.895 4.658 4.658 0 0 0 0-1.843 3.575 3.575 0 0 0-.863-2.194 2.343 2.343 0 0 0-1.9-.35zm-3.557-1.912l4.8-.691a5.844 5.844 0 0 1 2.332.059 3.842 3.842 0 0 1 1.622.9 4.593 4.593 0 0 1 1.059 1.556 7.455 7.455 0 0 1 .548 2 6.487 6.487 0 0 1-.01 2.641 4.468 4.468 0 0 1-.833 1.716 3.521 3.521 0 0 1-1.343 1.027 7.324 7.324 0 0 1-1.9.579l-4.812.677zm14.391-2.05l8.727.647-.162 2.251-5.464-.408-.127 1.678 5.068.374-.183 2.145-5.041-.36-.148 2.063 5.621.417-.176 2.383-8.895-.656zm13.446 1.234l3.142.876-2.172 7.685 4.906 1.386-.716 2.49-8.052-2.28zm17.84 11.732l.676.438a2.11 2.11 0 0 0 1.28.456.984.984 0 0 0 .78-.486 1.3 1.3 0 0 0 .2-.895 1.773 1.773 0 0 0-.863-.962l-.78-.526zm-.26-5.569l4.544 3a3.682 3.682 0 0 1 1.74 2.163 3.1 3.1 0 0 1-.585 2.5 3.214 3.214 0 0 1-2.175 1.546 4.181 4.181 0 0 1-2.95-.856l-1.494-.992-2.147 3.273-2.74-1.814zm11.472 16.122l1.842-3.525-3.5 1.892zm-1.117 2.1l-2.652-2.606-1.6.876-2.376-2.335 4.884-2.256 5.381-2.487 2.528 2.5-4.6 10.335-2.43-2.412zm9.821 4.587l.745 1.177a4.374 4.374 0 0 0 .583.656.873.873 0 0 0 .57.249.91.91 0 0 0 .626-.156 1 1 0 0 0 .486-.69 1.944 1.944 0 0 0-.437-1.177l-.755-1.206zm-7.07.627l8.913-5.69 2.926 4.586a9 9 0 0 1 1.053 2.082 2.585 2.585 0 0 1-.138 1.6 2.934 2.934 0 0 1-1.17 1.344 2.778 2.778 0 0 1-1.49.5 3.22 3.22 0 0 1-1.436-.293 5.456 5.456 0 0 1-.965-.753 3.707 3.707 0 0 1 .141.924 5.741 5.741 0 0 1-.186.73 3.884 3.884 0 0 1-.318.748l-1.725 2.987-2-3.118 1.8-3.2a2.221 2.221 0 0 0 .357-.948 1.175 1.175 0 0 0-.225-.8l-.142-.242-3.626 2.31zm12.5 14.24l3.17-2.393-3.963.22zm-1.924 1.416l-1.27-3.5-1.8.126-1.152-3.137 11.3.132 1.221 3.336-8.58 7.354-1.176-3.23zm5.06 11.246l2.176-.287.63 5.04-4.473.54a10.037 10.037 0 0 1-1.641-2.375 8.267 8.267 0 0 1-.69-2.577 6.089 6.089 0 0 1 .268-3.123 4.428 4.428 0 0 1 1.656-2.082 6.431 6.431 0 0 1 2.8-1 5.925 5.925 0 0 1 3.076.34 4.643 4.643 0 0 1 2.192 1.824 6.564 6.564 0 0 1 .861 2.812 7.275 7.275 0 0 1 .01 2.631 3.167 3.167 0 0 1-.8 1.56 4.092 4.092 0 0 1-1.554 1.061l-.95-3.05a1.693 1.693 0 0 0 .823-.778 2.171 2.171 0 0 0 .172-1.206 2.246 2.246 0 0 0-.95-1.614 3.652 3.652 0 0 0-2.437-.34 3.814 3.814 0 0 0-2.352.938 2.423 2.423 0 0 0-.5 1.892 3.41 3.41 0 0 0 .284 1.007 6.607 6.607 0 0 0 .676 1.085l1-.137zm6.694 15.856l-.372 3.238-6.252-.7a5.306 5.306 0 0 1-1.726-.492 3.8 3.8 0 0 1-1.352-1.074 3.754 3.754 0 0 1-.72-1.386 6.879 6.879 0 0 1-.09-2.325c.07-.506.169-1.065.29-1.663a4.267 4.267 0 0 1 .618-1.464 4.135 4.135 0 0 1 1.01-1.017 3.645 3.645 0 0 1 1.3-.54 5.517 5.517 0 0 1 1.814-.1l6.262.714-.372 3.23-6.4-.736a1.85 1.85 0 0 0-1.407.327 1.781 1.781 0 0 0-.621 1.26 1.76 1.76 0 0 0 .327 1.371 1.916 1.916 0 0 0 1.28.647zM655.8 349.76l3.984.142-3.216-2.345zm-2.363-.12l1.206-3.507-1.476-1.056 1.1-3.156 8.693 7.223-1.2 3.379-11.26.277 1.107-3.239zm5.837 9.734l-1.839 3.127-4.164.014 1.993 3.658-1.827 3.089-3.214-6.66-3.812-2.246 1.675-2.826 3.808 2.262z"/><path d="M670.01 330a70.028 70.028 0 1 1-70.024-70.011A70.032 70.032 0 0 1 670.01 330z" fill="none" stroke="#000" stroke-miterlimit="10" stroke-width="1.475"/><path d="M652.093 329.754a52.113 52.113 0 1 1-52.109-52.1 52.1 52.1 0 0 1 52.109 52.1z" fill="none" stroke="#000" stroke-miterlimit="10" stroke-width="1.475"/><path d="M599.99 311.012l4.377 12.53 13.244.3-10.554 8.026 3.837 12.7-10.9-7.548-10.908 7.548 3.818-12.7-10.57-8.026 13.27-.3z" fill="#fedf00" stroke="#000" stroke-width=".602"/><path d="M624.052 365.729a8.869 8.869 0 0 1-2.69.648c-.476.062-2.343.081-3.133.11-.435.03-1.273.151-1.709.151-3.828-.436 6.219-.375 7.532-.91m-10.031-2.96c.25-.448 1.5-3.24 1.956-4.033s1.5-2.856 2.12-3.72c.32-.468 1.569-1.824 1.867-1.217-2.175 1.88-3.89 5.163-4.8 7.37a18.188 18.188 0 0 1-1.1 1.789c-.256.315-.151.912-.552.96-.423.053-.127.13-.127.13s.362-.808.637-1.28zm14.431 2.135a19.168 19.168 0 0 1-2.8-.638 14.357 14.357 0 0 0-4.391-.6 12.035 12.035 0 0 0-4.135.948 10.282 10.282 0 0 1-2.823.5s-.9.141-.48-.067c.4-.2 1.8-1.29 1.8-1.29l.9-1.235c.26-.072 4.836-6.077 4.338-7.689.7-1.186 1.522-3.3 1.214-3.672a13.233 13.233 0 0 0-4.312 1.764 7.446 7.446 0 0 0-1.74 3.212c-.254.894-1.568 1.633-1.568 1.633-1.068.768-1.842 3.2-2.205 5.19-.367 1.964-5.208 3.053-5.208 3.053s-1.343.5-.151.88c.2.058.737.957 1.164.971.592.069 3.6-1.218 4.063-1.116q1.531.348 3.028.828a4.437 4.437 0 0 0 2.895.292 5.923 5.923 0 0 1 2.848-.01 5.175 5.175 0 0 0 2.371-.064 18.9 18.9 0 0 0 2.152-1.046s1.686-.73 2.66-1.187.383-.656.383-.656" fill="#009b3a" stroke="#000" stroke-width=".754"/><path d="M615.3 370.745s-6.665-3.487-7.023-3.57c-.21-.029-3.024-1.58-4.311-1.98a8.955 8.955 0 0 0-2.676-.35 19.977 19.977 0 0 0-2.889.561l1.656.677s1.554.763 2.314 1.172c1.087.574 1.136 1.273 1.136 1.273l6.035 2.655 1.224.88s1.114-1.537 4.534-1.318" fill="#009b3a" stroke="#000" stroke-width=".602"/><path d="M622 356.9c2.1-1.87 3.121-4.528 4.846-6 .28.2.28.534-.062 1.123-.326.58-.76.78-.95 1.082a24.754 24.754 0 0 0-1.686 1.868 3.613 3.613 0 0 1-1.493 1.718c-.91.544-.624 1.409-.7 1.772-.073.4-1.475 1.4-2.152 2.645-.129 1.294-.187.751-.972 1.211A54.559 54.559 0 0 0 622 356.9m-4.711 5.917c-.135.283-4.269 2.63-2.976 2.282s5.1-1.717 6.19-2.2c1.327-.579 2.123-1.8 3.12-2.783 1.017-1.01 4.163-4.017 4.707-5.176.532-1.194 1.016-2.854-1.117-6.582a4.787 4.787 0 0 1-1.126 1.41 20.865 20.865 0 0 1-1.958 1.5l-1.368 1.293s-4.831 8.875-5.472 10.255" fill="#009b3a" stroke="#000" stroke-width=".794"/><path d="M634.086 359.7s-2.646-.237-2.876-.237c-.25 0-1.7-.2-3.808-.2a4.055 4.055 0 0 0-3.42 1.307c-.593.653-2.24 2.16-2.24 2.16l.888-.078a5.5 5.5 0 0 1 4.42-1.092 9.462 9.462 0 0 0 3.63-.706c2.15-.754 2.024-.048 1.788.024a11.13 11.13 0 0 1-3.192.644c-1.6.088-3 .4-3.624.4s-5.29 1.275-5.29 1.275 5.04.3 5.584.475a2.825 2.825 0 0 0 2.088-.219 15.063 15.063 0 0 1 3.6-1.24 7.074 7.074 0 0 0 1.75-.695 3.337 3.337 0 0 0 .98-1.176c.485-.876-.276-.639-.276-.639m2.474-13.81a10.53 10.53 0 0 1 1.956-3.371 6.788 6.788 0 0 1 1.871-.856c.2-.068 1.648-.138-.16.359a3.748 3.748 0 0 0-2.214 1.4 10.835 10.835 0 0 1-2.358 4.4 8.84 8.84 0 0 0-1.408 2.083l-.924.32c1.694-1.037 2.43-2.961 3.237-4.337zm8.193-.988a4.785 4.785 0 0 0-1.3.588c-2.16.648-3.044 2-3.99 3.108-.48.578-1.156 1.01-3.435 1.987a18.234 18.234 0 0 0-3.732 2.278s-.66.135-.534.456c.049.152.612.03.612.03s4.29-.612 6.078-1.7a7.821 7.821 0 0 0 2.87-2.91c.485-.739 1.029-2.13 1.054-1.235.084 2.373-3.6 4.674-5.208 5.384a16.842 16.842 0 0 1-3.5.763c-1.481.273-2.382.191-2.274-.135.151-.472.324-.57.715-1.036.706-.841 2.41-1.139 3.665-1.728a10.92 10.92 0 0 0 3.6-2.48 4.313 4.313 0 0 0 1.166-1.871c.55-1.869.578-2.9 1.093-3.571 1.812-2.232 2.077-2.952 2.166-3.948.019-.23-.941.529-1.44.806a10.638 10.638 0 0 1-3.337 1.1c-2.03.506-1.985 1.814-2.3 2.432a4.927 4.927 0 0 1-1.308 1.464 7.5 7.5 0 0 0-1.714 2.412c-.264.6-.736 1.026-1.113.978-.4-.074.76-4.4 1.014-5.112a9.2 9.2 0 0 0 .329-2.564c0-.447.016-1.624-.768-1.756s-.816-1.209-.816-1.209c-1.876 1.625-.828 4.488-.626 6.185a21.513 21.513 0 0 1-.387 4.8c1.812.774.387 2.976-.176 3.688-.593.723-1.716.855-2.22 1.493-.534.656-4.331 5.943-4.331 5.943l4.723-1.338s.44.078-.265-.456c-.715-.512.23-2.5.838-2.982a2.954 2.954 0 0 1 2.73-.248 10.253 10.253 0 0 0 4.875-.73c2.244-.885 3.209-2.32 4.272-3.4a27.729 27.729 0 0 0 2.3-3.695c.4-.668 1.122-1.937.68-1.786" fill="#009b3a" stroke="#000" stroke-width=".754"/><path d="M631.36 357.6c.36-.146.414-.211 1.075-.932a1.15 1.15 0 0 0-.929-1.887c-.492.033-1.015-.081-1.982 1.22-.934 1.3.447 1.778.972 1.832a2.169 2.169 0 0 0 .864-.233" fill="#009b3a" stroke="#000" stroke-width=".84"/><path d="M628.918 349.363c-.626 1.047-.96 2.249-.468 2.62a2.039 2.039 0 0 0 .914.444 3.175 3.175 0 0 0 1.975-1.4c.587-.876 1.067-1.838-.133-2.436a1.591 1.591 0 0 0-2.288.768" fill="#009b3a" stroke="#000" stroke-width=".858"/><path d="M632.491 336.58s.1-.161-.313-.588a17.571 17.571 0 0 1-1.468-1.857 3.471 3.471 0 0 0-1.73 2.715 16.2 16.2 0 0 1 .02 3.195 10.358 10.358 0 0 1-.784 2.583 4.91 4.91 0 0 0 .24 3.6c.112.516.648 2.12.648 2.12a4.056 4.056 0 0 1 .68-.364 5.314 5.314 0 0 1 .892-.024 7.093 7.093 0 0 0 .81-2.2 16.551 16.551 0 0 0-.352-3.07 8.665 8.665 0 0 1-.1-4.047 3.82 3.82 0 0 1 1.455-2.063" fill="#009b3a" stroke="#000" stroke-width=".754"/><path d="M634.428 338.77a1.886 1.886 0 0 0 1.108-.844 2.839 2.839 0 0 0 .345-1.662 1.5 1.5 0 0 0-2.676-.427c-1.374 2.81 1.222 2.934 1.222 2.934" fill="#009b3a" stroke="#000" stroke-width=".828"/><path d="M638.315 334.714c-1.7.088-2.542 3.15-2.542 3.15a3.024 3.024 0 0 1-1.184 1.342c-.966.6-.4 1.455-.4 2.98a15.937 15.937 0 0 1-1.063 4.22l-.4.914s.037.686.658-.56c1.056-2.1 2.214-1.587 2.65-3.843.276-1.678 3.054-2.212 3.054-2.212l-.781-.146c-2.887-1.353.167-4.727.66-5.325.524-.6 1.023-.6-.66-.52" fill="#009b3a" stroke="#000" stroke-width=".984"/><path d="M637.829 338.346c-.78 1.673 1.44 1.754 1.952 1.462a4.8 4.8 0 0 0 .676-.677c.9-1.294.077-2.17-.393-2.295-.452-.15-1.417-.265-2.235 1.51" fill="#009b3a" stroke="#000" stroke-width=".838"/><path d="M633.612 331.854c.583 1.085 2.21 4.1 2.592 3.916.24-.117.05-.735.05-.735a10.1 10.1 0 0 0-.314-1.805c-.26-1-.2-2.271-.716-3.088s-1.714-1.785-2.19-3.074a10.747 10.747 0 0 1-.062-4.041c.048-.282.191-.1-.06-.389a17.511 17.511 0 0 0-2.31-1.411 13.583 13.583 0 0 1 .07 2.243c-.02.35-.118.758-.172 1.366-.048.579.3 1.308 1.143 2.972.979 1.926 1.45 3.108 1.969 4.046m12.336-14.363a12.522 12.522 0 0 1-.8 1.206c-.22.22-3.571 3.1-3.762 3.22-.162.127-1.912.686-3.5 4.99a17.715 17.715 0 0 0-.906 8.3l.774-.1.132-.42s.26-1.424.46-2.5c.222-1.065 1.416-2.554 2.209-3.653a14.952 14.952 0 0 0 1.365-2.62 39.335 39.335 0 0 1 2.22-4.69c.035 1.5-5.677 10.742-6.289 13.886l1.692-.258a41.725 41.725 0 0 0 4.317-5.5 14.782 14.782 0 0 0 1.935-5.462c.21-1.148.162-6.4.162-6.4" fill="#009b3a" stroke="#000" stroke-width=".754"/><path d="M634.56 318.442a5.056 5.056 0 0 0-1.534-1.037 25.252 25.252 0 0 1 .206 2.52c0 .957.084 2.563.034 3.42-.034.854-.46 2.27.147 3.656a24.567 24.567 0 0 0 1.818 2.923 39.8 39.8 0 0 1 1.277 5.217 69.424 69.424 0 0 1-.042-7.59 16.55 16.55 0 0 0-.048-5.491 8.935 8.935 0 0 0-1.858-3.618m3.943-5.776a9.573 9.573 0 0 0 1.122-3.143 17.642 17.642 0 0 0 .132-2.528c-.019-.507-.22-1.386 0-1.445.2-.048.033.274.144 1.024.054.267-.13 1.008-.164 1.956a8.2 8.2 0 0 1-.413 2.418c-.294.9-.028 1.908-.209 2.19s-.715 1.371-.715 1.371a4.787 4.787 0 0 0-.264 1.673c.029.816.078 1.7.078 1.7a1.731 1.731 0 0 1 1.22-.817s.191-1.368.191-1.8a30.526 30.526 0 0 1 .828-4.086 11.8 11.8 0 0 0 .045-5.973 26.805 26.805 0 0 1-.29-2.83s-.808.647-1.288 3.093c-.148.744.166 2.738.043 4.864a47.061 47.061 0 0 1-1.325 6.22" fill="#009b3a" stroke="#000" stroke-width=".754"/><path d="M638.5 312.666l-.054.1a.22.22 0 0 0 .054-.1" fill="#009b3a" stroke="#000" stroke-width=".754"/><path d="M635.317 300.335c.432 0 .432.467.343.836a8.714 8.714 0 0 0-.058 1.23 13.081 13.081 0 0 0 .324 1.7 3 3 0 0 1 .308 1.794c-.08.682-.78 1.483-.534 2.641a11.249 11.249 0 0 0 .784 1.77 8.46 8.46 0 0 1 .132 1.986 2.124 2.124 0 0 0 .411 1.19s-.485.906-.647-.227a9.706 9.706 0 0 0-.484-2.466 5.34 5.34 0 0 1-.148-4.033 3.753 3.753 0 0 0 .192-1.308c0-.579-.356-1.568-.425-2.18-.06-.487-.02-1.513-.02-1.884m-2.265 5.44a8.373 8.373 0 0 0 1.166 2.748 17.065 17.065 0 0 1 .921 2.3 7.726 7.726 0 0 1 .192 1.075c0 .141.093 1.148.093 1.148v.418s-2.294-1.337-3.3-2.052-2.136-1.708-2.862-2.305c-.823-.677-2.784-3-2.808-4.864l-.9-.817a7.755 7.755 0 0 0 2.557 6.818 16.241 16.241 0 0 0 4.136 2.6c2.186 1.008 1.9 1.909 2.81 3.845a28.973 28.973 0 0 1 1.572 3.614c.078.588-.249 8.857-.249 8.857l.078.75s2-7.66 2.958-8.515c0 0-1.9-.293-1.754-3.288l-.334-1.975a7.878 7.878 0 0 1 .334-3.847 14.022 14.022 0 0 0 .559-5.034c-.181-1.4-.246-1.814-.416-3.152a47.276 47.276 0 0 0-1.187-5.418 13.076 13.076 0 0 0-.715-2.032c-.1-.292-.285-1.256-.593-1.27-.177-.01-.447 1.24-.447 1.24s-.4 1.362-.484 1.731a21.342 21.342 0 0 0-1.146 4.494c-.05.448-.1 1.654-.153 1.815a4.587 4.587 0 0 0-.029 1.118" fill="#009b3a" stroke="#000" stroke-width=".754"/><path d="M634.933 317.273a5.478 5.478 0 0 0-.672-1.119c-.68-.8-1.6-1.483-4.2-2.757-2.6-1.294-3.284-3.42-4.607-4.3a5.585 5.585 0 0 0-1.783-.618s1.156 1.591 1.43 2.14a6.3 6.3 0 0 0 1.867 2.51 9.966 9.966 0 0 0 4.273 2.136 16.854 16.854 0 0 1 3.695 2m-8.185-12.292a14.106 14.106 0 0 0 2.146 4.272c2.15 2.718 6.291 4.66 6.291 4.66a18.3 18.3 0 0 0-1.6-4.514c-1.883-3.04-6.855-4.53-6.855-4.53s-.088-.116.014.112m5.936 1.282c1.114-2.44-2.212-4.77-3.15-6.47.347-.276.759.448 1.14.93.545.724 2.079 2.82 2.079 2.82l.475-2.232-3.961-3.6c-.048.524-1.272.955-1.272.955-.593 3.336 4.69 7.6 4.69 7.6" fill="#009b3a" stroke="#000" stroke-width=".754"/><path d="M625.787 300.61a3.947 3.947 0 0 1-1.294.428l.533 1.414.31.384s1.244 1.8 1.969 2.024a11.718 11.718 0 0 1 6.338 3.447s-3.884-4.38-5.373-7.664l-.5-1.892-1.408.093s.387 1.329-.573 1.767" fill="#009b3a" stroke="#000" stroke-width=".754"/><path d="M611.251 297.809a13.862 13.862 0 0 0 2.112 1.566 19.154 19.154 0 0 0 5.175 2.32c.432.068 2.752.36 2.752.36a1.3 1.3 0 0 1 1.2-1.105l-3.287-.36a8.867 8.867 0 0 1-6.238-3.078c2.106 1.277 5.134 3.288 7.588 3.18 10.075-.99-3.036-1.24-4.173-1.969a10.773 10.773 0 0 1-2.234-1.98l-2.954-.132s-1.452-.091.063 1.2" fill="#009b3a" stroke="#000" stroke-width=".754"/><path d="M623.113 303.546c.652-.048 1.108-.17 1.255-.884a1.257 1.257 0 0 0-1.132-1.587 1.469 1.469 0 0 0-1.852.789c-.416.972 1.1 1.6 1.1 1.6a1.357 1.357 0 0 0 .632.086m1.13-5.776c-.853 0-1.142.7-.96 2.052.225 1.368 2.317.77 2.317.77l.387-.2s.285-.22.127-1.308c-.147-1.114-1.014-1.314-1.872-1.314m3.426.96h-.033c-.016.01.033 0 .033 0" fill="#009b3a" stroke="#000" stroke-width=".754"/><path d="M627.636 298.73a1.988 1.988 0 0 1 .3-.1c.435-.165.876-1.212.876-1.212a1.469 1.469 0 0 0-.792-1.764c-1.707-.34-1.751 1.157-1.751 1.157-.47 1.95 1.112 1.931 1.362 1.92m-7.6-6.7a4.711 4.711 0 0 0 1.158 1.747 22.134 22.134 0 0 1 1.74 1.92c.4.551 1.716 3.043 1.716 3.043a.489.489 0 0 0 .328-.228c.23-.388-.884-3.408-1-3.616a8.515 8.515 0 0 0-1.745-2.316 16.066 16.066 0 0 1-1.308-1.565 62.533 62.533 0 0 1 5.151 7.794s-.109-2.056-.222-3.16a9.429 9.429 0 0 0-1.489-4.683 5.215 5.215 0 0 0-2.544-2.014c-.861-.312-1.881-.74-2.973-1.09-1.128-.344-.26.672.156 1.548a10.127 10.127 0 0 1 1.03 2.621" fill="#009b3a" stroke="#000" stroke-width=".754"/><path d="M615.835 297.329a6.052 6.052 0 0 0 3.92 1.94c2.327.365 2.523.21 2.523.21s1.207-.583.594-1.094c-3.42-1.5-6.658-3.294-8.3-5.307 0 0 .285-.277 1.47.91a13.764 13.764 0 0 0 1.569 1.372 24.947 24.947 0 0 0 3.024 1.794 13.419 13.419 0 0 0 2.312.748s.235-.5.445-.559-.127-.833-1.563-2a11.477 11.477 0 0 1-2.1-2.277s-1.7-.372-3.542-.679c-1.373-.218-3.955-2.222-3.91-1.678a9.241 9.241 0 0 0 1.083 3.4 13.6 13.6 0 0 0 2.474 3.216" fill="#009b3a" stroke="#000" stroke-width=".754"/><path d="M596.61 366.914c-1.008.3-8.572 3.137-8.572 3.137l-2.112.846a7.188 7.188 0 0 1 5.15.813l8.425-3.9s-.024-.128-.234-.279a3.952 3.952 0 0 0-2.657-.617" fill="#009b3a" stroke="#000" stroke-width=".602"/><path d="M585.607 371.153c-.056.048-.113.248.034.312.42.233.307.325 2.216.554 1.925.209 3.18-.156 3.509-.52.386-.423-4.769-1.211-5.76-.346" fill="#009b3a" stroke="#000" stroke-width=".644"/><path d="M573.5 343.944l-.35-2.364s-.44-6.392-1.166-7.674c-.139-.284-.076-.948-.537-.959-.882-.066-.882 2.013-.989 3.9-1.434 9.5 6.143 16.754 6.143 16.754z" fill="#009b3a" stroke="#000" stroke-width=".836"/><path d="M611 372.092s-.795-.177-.292-.8a4.035 4.035 0 0 1 2.2-.906 6.966 6.966 0 0 1 1.684.225c.6.149 1.438.681 1.194 1.067a2.814 2.814 0 0 1-2.187.825 7 7 0 0 1-1.869-.144c-.408-.155-.733-.269-.733-.269" fill="#009b3a" stroke="#000" stroke-width=".77"/><path d="M602.785 367.572s-2.6-1.2-5.066-2.4c-3.25-1.587-7.155-3.79-9.874-7.832a39.406 39.406 0 0 0-7.081-8.223c-.736-.54-.842-.74-1.112-.36-.245.33-.074.617.132.967.7 1.139 2.421 3.278 3.038 4.427 1.063 2.052 3.264 4.293 3.244 5.622 0 .185-.642-.132-.642-.132a12.827 12.827 0 0 1-7.236-8c-1.52-4.524-.874-5.853-1.227-8.113-.6-4.018-.725-4.344-2.714-8.848-.054-.112-1.216-1.994-1.372-1.576a8.372 8.372 0 0 0 .2 2.554l.211 2.32s-.168 5.15-.168 5.462-1.3 3.526 4.214 8.93c0 0 .084.918-.656.11-.524-.578-4.469-3.608-5.669-8.592-1.236-4.986-1.416-9.976-.48-12.048.847-1.872 2.548-6.45 1.823-10.448-.084-.417-.2-1.644-.466-1.322-.112.156-.608 2.18-.907 2.88-.416.958-1.063 1.9-1.263 2.562-.388 1.123-2.289 2.86-1.917 6.055a20.258 20.258 0 0 0 1.1 5.555c.151.476.52 1.692.28 1.814-.221.117-1-1.454-1-1.454s-3.49-6.858-1.338-12.422c2.176-5.54 7.634-10.793 7.634-10.793s4.434-3.677 5.337-4.533c.353-.33.269-.578.151-.54a16.936 16.936 0 0 0-12.633 12.206s-.156.428-.377.322c-.275-.123 0-.6 0-.6s1.877-7.206 7.143-10.475c5.748-3.585 5.073-3.06 6.974-4.188a10.667 10.667 0 0 0 3.616-3.954 6.128 6.128 0 0 0 .608-1.756c-.06-.218-.318.083-.44.448a9.293 9.293 0 0 1-4.064 3.36c-2.444.847-4.43-.36-6.884 2.354a36.118 36.118 0 0 0-4.415 6.508s-.642.978-.784.948c-.27-.082.132-1.04.132-1.04s3.283-6.965 5.92-8.38a52.494 52.494 0 0 0 6.492-3.95 74.705 74.705 0 0 0 6.1-6.137c.24-.258 1.926-1.966 2.3-2.52.225-.3.76-.74.672-.816-.24-.18-1.839.588-1.839.588a27.4 27.4 0 0 0-14.1 10.567 13.555 13.555 0 0 1-1.164 1.476 4.463 4.463 0 0 0-.867 1.6c-.353-.292 3.058-4.555 3.058-4.555l.6-2.758a23.463 23.463 0 0 1 3.132-7.068c.21-.266 1.464-1.531 1.676-1.794.42-.456-.8.4-.584.209 0 0-8.11 5.822-8.11 13.157 0 1.317-.818 2.52-1.95 4.158a13.054 13.054 0 0 0-2.337 5.9q-.359 1.785-.745 3.564s.078 1.047-.26.969-.23-.944-.23-.944a68.593 68.593 0 0 1 1.416-7.15c.573-1.634.95-2.747.95-2.747s-.338-4.11.574-6.363a45.376 45.376 0 0 1 3.038-5.2 14.339 14.339 0 0 0 1.293-4.226c.035-.282-.186-.048-.553.772-.892 2.01-1.637 2.535-3.1 4.426 0 0-3.758 2.724-5.12 10.826 0 0-.045 3.02-.5 7.754a31.61 31.61 0 0 0 .342 8.672c.25 1.2.726 1.206.432 1.351-.183.093.116.016-.31-.888a11.911 11.911 0 0 1-.918-5.06c0-4.227.367-7.62.367-7.62s.276-6.83-2.556-9.909c-.137-.16.5 1.382.78 2.919a17.179 17.179 0 0 1-.47 5.583c-.181 1.036-2.069 5.55-1.4 9.786 0 0 1.6 7.184 3.655 10.666 0 0 1.28 1.5.148.094s-3.426-7-3.626-7.472a19.908 19.908 0 0 0-3.382-5.35 26.3 26.3 0 0 0-3.013-2.076s-1.2-.915-.29.3c.72.96 1.687 2.68 2.146 3.43a40.149 40.149 0 0 1 2.549 4.823c.74 1.626 2.46 6.407 2.46 6.407l1.1 3.032a13.273 13.273 0 0 1 2.85 2.142 20.769 20.769 0 0 1 3.944 6.678 12.87 12.87 0 0 0 1.908 3.132s-.27.519-1.4-1.44c-1.116-1.986-2.21-5.71-4.9-8.607-2.044-2.224-7.543-4.465-7.543-4.465s3.533 6.157 4.41 7.256c1.485 1.76 3.631 4.231 4.185 4.884.573.666 3.9 4.77 4.386 5.428a15.882 15.882 0 0 0 1.69 1.9c.876.933 3.473 2.636 3.675 2.9.038.272.09.048-.13-.113-1.152-.687-2.527-1.771-3.948-2.695-1.416-.939-6.884-3.273-10.568-8.35-.873-1.5-1.289-2.1-1.583-1.945-.451.239 2.48 9.936 8.507 13.02 0 0 6.649 2.957 8.124 3.847a33.918 33.918 0 0 1 3.2 1.814c.431.356-.392.336-.446.326-3.533-.276-8.6-.744-11.717-2.55 0 0-1.337-.938-.24.381a15.278 15.278 0 0 0 5.724 4.951 34.244 34.244 0 0 0 9.551 2.31c1.67.093 7.628.122 8.77.492 1.117.378 3.019 1.6 4.107 1.947.989.32 3.973 1.464 3.973 1.464a14.04 14.04 0 0 0 1.378.666c.539.215 2.774.195 2.932-.223.15-.375-.639-.946-.639-.946" fill="#009b3a" stroke="#000" stroke-width=".602"/><path d="M641.423 317.075c.675.247.974 2.251.974 2.251s-.059-1.147-.059-1.712-.278-2.7-.278-2.7l-.6.428a4.347 4.347 0 0 0-1.112 1.576 2.416 2.416 0 0 1 1.074.16" fill="#009b3a" stroke="#000" stroke-width=".754"/></svg>