<?xml version="1.0" standalone="no"?><svg version="1.1" xmlns="http://www.w3.org/2000/svg" width="1211.1005859375" height="1156"><svg x="1129.57421875" y="27.5" width="81.5263671875" height="544"><path d="M4,22L68.5263671875,22Q78.5263671875,22,78.5263671875,32L78.5263671875,508Q78.5263671875,518,68.5263671875,518L58.5263671875,518L68.5263671875,518Q78.5263671875,518,78.5263671875,508L78.5263671875,32Q78.5263671875,22,68.5263671875,22L4,22L4,22ZM14,18L14,26M58.5263671875,514L68.5263671875,518L58.5263671875,522" fill="none" stroke="#D3D3D3" stroke-width="1"></path><text x="7" y="19" style="font-family: &quot;Open Sans&quot;, sans-serif; font-size: 14px; font-weight: normal; fill: transparent;">1</text><text x="61.5263671875" y="515" style="font-family: &quot;Open Sans&quot;, sans-serif; font-size: 14px; font-weight: normal; fill: transparent;">*</text></svg><svg x="833.89013671875" y="27.5" width="134.40576171875" height="48"><path d="M4,22L62.702880859375,22Q62.702880859375,22,62.702880859375,22L62.702880859375,22Q62.702880859375,22,62.702880859375,22L121.40576171875,22L62.702880859375,22Q62.702880859375,22,62.702880859375,22L62.702880859375,22Q62.702880859375,22,62.702880859375,22L4,22L4,22M4,18L14,22L4,26M111.40576171875,18L111.40576171875,26" fill="none" stroke="#D3D3D3" stroke-width="1"></path><text x="7" y="19" style="font-family: &quot;Open Sans&quot;, sans-serif; font-size: 14px; font-weight: normal; fill: transparent;">*</text><text x="110.40087890625" y="19" style="font-family: &quot;Open Sans&quot;, sans-serif; font-size: 14px; font-weight: normal; fill: transparent;">1</text></svg><svg x="1129.57421875" y="27.5" width="65.1875" height="263"><path d="M4,22L52.1875,22Q62.1875,22,62.1875,32L62.1875,227Q62.1875,237,52.1875,237L42.1875,237L52.1875,237Q62.1875,237,62.1875,227L62.1875,32Q62.1875,22,52.1875,22L4,22L4,22ZM14,18L14,26M42.1875,233L52.1875,237L42.1875,241" fill="none" stroke="#D3D3D3" stroke-width="1"></path><text x="7" y="19" style="font-family: &quot;Open Sans&quot;, sans-serif; font-size: 14px; font-weight: normal; fill: transparent;">1</text><text x="45.1875" y="234" style="font-family: &quot;Open Sans&quot;, sans-serif; font-size: 14px; font-weight: normal; fill: transparent;">*</text></svg><svg x="504.64599609375" y="308.5" width="132.380859375" height="180"><path d="M4,154L51.6904296875,154Q61.6904296875,154,61.6904296875,144L61.6904296875,32Q61.6904296875,22,71.6904296875,22L119.380859375,22L71.6904296875,22Q61.6904296875,22,61.6904296875,32L61.6904296875,144Q61.6904296875,154,51.6904296875,154L4,154L4,154M14,150L14,158M119.380859375,18L109.380859375,22L119.380859375,26" fill="none" stroke="#D3D3D3" stroke-width="1"></path><text x="7" y="151" style="font-family: &quot;Open Sans&quot;, sans-serif; font-size: 14px; font-weight: normal; fill: transparent;">1</text><text x="108.669921875" y="19" style="font-family: &quot;Open Sans&quot;, sans-serif; font-size: 14px; font-weight: normal; fill: transparent;">*</text></svg><svg x="486.0537109375" y="93.5" width="45.59228515625" height="395"><path d="M22.59228515625,369L32.59228515625,369Q42.59228515625,369,42.59228515625,359L42.59228515625,32Q42.59228515625,22,32.59228515625,22L4,22L32.59228515625,22Q42.59228515625,22,42.59228515625,32L42.59228515625,359Q42.59228515625,369,32.59228515625,369L22.59228515625,369L22.59228515625,369ZM32.59228515625,365L32.59228515625,373M4,18L14,22L4,26" fill="none" stroke="#D3D3D3" stroke-width="1"></path><text x="25.59228515625" y="366" style="font-family: &quot;Open Sans&quot;, sans-serif; font-size: 14px; font-weight: normal; fill: transparent;">1</text><text x="7" y="19" style="font-family: &quot;Open Sans&quot;, sans-serif; font-size: 14px; font-weight: normal; fill: transparent;">*</text></svg><svg x="504.64599609375" y="440.5" width="132.380859375" height="230"><path d="M4,22L51.6904296875,22Q61.6904296875,22,61.6904296875,32L61.6904296875,194Q61.6904296875,204,71.6904296875,204L119.380859375,204L71.6904296875,204Q61.6904296875,204,61.6904296875,194L61.6904296875,32Q61.6904296875,22,51.6904296875,22L4,22L4,22M14,18L14,26M119.380859375,200L109.380859375,204L119.380859375,208" fill="none" stroke="#D3D3D3" stroke-width="1"></path><text x="7" y="19" style="font-family: &quot;Open Sans&quot;, sans-serif; font-size: 14px; font-weight: normal; fill: transparent;">1</text><text x="108.669921875" y="201" style="font-family: &quot;Open Sans&quot;, sans-serif; font-size: 14px; font-weight: normal; fill: transparent;">*</text></svg><svg x="486.0537109375" y="27.5" width="150.97314453125" height="81"><path d="M4,22L60.986572265625,22Q70.986572265625,22,70.986572265625,32L70.986572265625,45Q70.986572265625,55,80.986572265625,55L137.97314453125,55L80.986572265625,55Q70.986572265625,55,70.986572265625,45L70.986572265625,32Q70.986572265625,22,60.986572265625,22L4,22L4,22M14,18L14,26M137.97314453125,51L127.97314453125,55L137.97314453125,59" fill="none" stroke="#D3D3D3" stroke-width="1"></path><text x="7" y="19" style="font-family: &quot;Open Sans&quot;, sans-serif; font-size: 14px; font-weight: normal; fill: transparent;">1</text><text x="127.26220703125" y="52" style="font-family: &quot;Open Sans&quot;, sans-serif; font-size: 14px; font-weight: normal; fill: transparent;">*</text></svg><svg x="209.86328125" y="27.5" width="87.388671875" height="197"><path d="M4,171L29.1943359375,171Q39.1943359375,171,39.1943359375,161L39.1943359375,32Q39.1943359375,22,49.1943359375,22L74.388671875,22L49.1943359375,22Q39.1943359375,22,39.1943359375,32L39.1943359375,161Q39.1943359375,171,29.1943359375,171L4,171L4,171M4,167L14,171L4,175M64.388671875,18L64.388671875,26" fill="none" stroke="#D3D3D3" stroke-width="1"></path><text x="7" y="168" style="font-family: &quot;Open Sans&quot;, sans-serif; font-size: 14px; font-weight: normal; fill: transparent;">*</text><text x="63.3837890625" y="19" style="font-family: &quot;Open Sans&quot;, sans-serif; font-size: 14px; font-weight: normal; fill: transparent;">1</text></svg><svg x="209.86328125" y="27.5" width="87.388671875" height="48"><path d="M4,22L39.1943359375,22Q39.1943359375,22,39.1943359375,22L39.1943359375,22Q39.1943359375,22,39.1943359375,22L74.388671875,22L39.1943359375,22Q39.1943359375,22,39.1943359375,22L39.1943359375,22Q39.1943359375,22,39.1943359375,22L4,22L4,22M4,18L14,22L4,26M64.388671875,18L64.388671875,26" fill="none" stroke="#D3D3D3" stroke-width="1"></path><text x="7" y="19" style="font-family: &quot;Open Sans&quot;, sans-serif; font-size: 14px; font-weight: normal; fill: transparent;">*</text><text x="63.3837890625" y="19" style="font-family: &quot;Open Sans&quot;, sans-serif; font-size: 14px; font-weight: normal; fill: transparent;">1</text></svg><svg x="833.896484375" y="209.5" width="134.3994140625" height="114"><path d="M4,88L52.69970703125,88Q62.69970703125,88,62.69970703125,78L62.69970703125,32Q62.69970703125,22,72.69970703125,22L121.3994140625,22L72.69970703125,22Q62.69970703125,22,62.69970703125,32L62.69970703125,78Q62.69970703125,88,52.69970703125,88L4,88L4,88M14,84L14,92M121.3994140625,18L111.3994140625,22L121.3994140625,26" fill="none" stroke="#D3D3D3" stroke-width="1"></path><text x="7" y="85" style="font-family: &quot;Open Sans&quot;, sans-serif; font-size: 14px; font-weight: normal; fill: transparent;">1</text><text x="110.6884765625" y="19" style="font-family: &quot;Open Sans&quot;, sans-serif; font-size: 14px; font-weight: normal; fill: transparent;">*</text></svg><svg x="0" y="0"><rect x="0" y="0" width="213.86328125" height="33" fill="#316896"></rect><text x="10" y="19.75" style="font-family: &quot;Open Sans&quot;, sans-serif; font-size: 13px; font-weight: bold; fill: rgb(255, 255, 255);">bw_selects</text></svg><svg x="0" y="33"><rect x="0" y="0" width="213.86328125" height="33" fill="#F2F2F2"></rect><text x="10" y="19.75" style="font-family: &quot;Open Sans&quot;, sans-serif; font-size: 13px; fill: rgb(111, 111, 111);">setting_id</text><text x="127.29150390625" y="19.75" style="font-family: &quot;Open Sans&quot;, sans-serif; font-size: 13px; fill: rgb(111, 111, 111);">varchar[256]</text></svg><svg x="0" y="66"><rect x="0" y="0" width="213.86328125" height="33" fill="#F2F2F2"></rect><text x="10" y="19.75" style="font-family: &quot;Open Sans&quot;, sans-serif; font-size: 13px; fill: rgb(111, 111, 111);">value</text><text x="127.29150390625" y="19.75" style="font-family: &quot;Open Sans&quot;, sans-serif; font-size: 13px; fill: rgb(111, 111, 111);">varchar[256]</text></svg><svg x="284.251953125" y="0"><rect x="0" y="0" width="205.8017578125" height="33" fill="#316896"></rect><text x="10" y="19.75" style="font-family: &quot;Open Sans&quot;, sans-serif; font-size: 13px; font-weight: bold; fill: rgb(255, 255, 255);">bw_settings</text></svg><svg x="284.251953125" y="33"><rect x="0" y="0" width="205.8017578125" height="33" fill="#F2F2F2"></rect><text x="10" y="19.75" style="font-family: &quot;Open Sans&quot;, sans-serif; font-size: 13px; fill: rgb(111, 111, 111);">id</text><text x="119.22998046875" y="19.75" style="font-family: &quot;Open Sans&quot;, sans-serif; font-size: 13px; fill: rgb(111, 111, 111);">varchar[256]</text></svg><svg x="284.251953125" y="66"><rect x="0" y="0" width="205.8017578125" height="33" fill="#F2F2F2"></rect><text x="10" y="19.75" style="font-family: &quot;Open Sans&quot;, sans-serif; font-size: 13px; fill: rgb(111, 111, 111);">name</text><text x="119.22998046875" y="19.75" style="font-family: &quot;Open Sans&quot;, sans-serif; font-size: 13px; fill: rgb(111, 111, 111);">varchar[256]</text></svg><svg x="284.251953125" y="99"><rect x="0" y="0" width="205.8017578125" height="33" fill="#F2F2F2"></rect><text x="10" y="19.75" style="font-family: &quot;Open Sans&quot;, sans-serif; font-size: 13px; fill: rgb(111, 111, 111);">plugin_id</text><text x="126.6630859375" y="19.75" style="font-family: &quot;Open Sans&quot;, sans-serif; font-size: 13px; fill: rgb(111, 111, 111);">varchar[64]</text></svg><svg x="284.251953125" y="132"><rect x="0" y="0" width="205.8017578125" height="33" fill="#F2F2F2"></rect><text x="10" y="19.75" style="font-family: &quot;Open Sans&quot;, sans-serif; font-size: 13px; fill: rgb(111, 111, 111);">context</text><text x="141.54833984375" y="19.75" style="font-family: &quot;Open Sans&quot;, sans-serif; font-size: 13px; fill: rgb(111, 111, 111);">contexes</text></svg><svg x="284.251953125" y="165"><rect x="0" y="0" width="205.8017578125" height="33" fill="#F2F2F2"></rect><text x="10" y="19.75" style="font-family: &quot;Open Sans&quot;, sans-serif; font-size: 13px; fill: rgb(111, 111, 111);">default</text><text x="111.796875" y="19.75" style="font-family: &quot;Open Sans&quot;, sans-serif; font-size: 13px; fill: rgb(111, 111, 111);">varchar[4096]</text></svg><svg x="284.251953125" y="198"><rect x="0" y="0" width="205.8017578125" height="33" fill="#F2F2F2"></rect><text x="10" y="19.75" style="font-family: &quot;Open Sans&quot;, sans-serif; font-size: 13px; fill: rgb(111, 111, 111);">help</text><text x="119.22998046875" y="19.75" style="font-family: &quot;Open Sans&quot;, sans-serif; font-size: 13px; fill: rgb(111, 111, 111);">varchar[512]</text></svg><svg x="284.251953125" y="231"><rect x="0" y="0" width="205.8017578125" height="33" fill="#F2F2F2"></rect><text x="10" y="19.75" style="font-family: &quot;Open Sans&quot;, sans-serif; font-size: 13px; fill: rgb(111, 111, 111);">label</text><text x="119.22998046875" y="19.75" style="font-family: &quot;Open Sans&quot;, sans-serif; font-size: 13px; fill: rgb(111, 111, 111);">varchar[256]</text></svg><svg x="284.251953125" y="264"><rect x="0" y="0" width="205.8017578125" height="33" fill="#F2F2F2"></rect><text x="10" y="19.75" style="font-family: &quot;Open Sans&quot;, sans-serif; font-size: 13px; fill: rgb(111, 111, 111);">regex</text><text x="111.796875" y="19.75" style="font-family: &quot;Open Sans&quot;, sans-serif; font-size: 13px; fill: rgb(111, 111, 111);">varchar[1024]</text></svg><svg x="284.251953125" y="297"><rect x="0" y="0" width="205.8017578125" height="33" fill="#F2F2F2"></rect><text x="10" y="19.75" style="font-family: &quot;Open Sans&quot;, sans-serif; font-size: 13px; fill: rgb(111, 111, 111);">type</text><text x="110.24169921875" y="19.75" style="font-family: &quot;Open Sans&quot;, sans-serif; font-size: 13px; fill: rgb(111, 111, 111);">settings_types</text></svg><svg x="284.251953125" y="330"><rect x="0" y="0" width="205.8017578125" height="33" fill="#F2F2F2"></rect><text x="10" y="19.75" style="font-family: &quot;Open Sans&quot;, sans-serif; font-size: 13px; fill: rgb(111, 111, 111);">multiple</text><text x="119.22998046875" y="19.75" style="font-family: &quot;Open Sans&quot;, sans-serif; font-size: 13px; fill: rgb(111, 111, 111);">varchar[128]</text></svg><svg x="624.02685546875" y="0"><rect x="0" y="0" width="213.86328125" height="33" fill="#316896"></rect><text x="10" y="19.75" style="font-family: &quot;Open Sans&quot;, sans-serif; font-size: 13px; font-weight: bold; fill: rgb(255, 255, 255);">bw_services_settings</text></svg><svg x="624.02685546875" y="33"><rect x="0" y="0" width="213.86328125" height="33" fill="#F2F2F2"></rect><text x="10" y="19.75" style="font-family: &quot;Open Sans&quot;, sans-serif; font-size: 13px; fill: rgb(111, 111, 111);">service_id</text><text x="134.724609375" y="19.75" style="font-family: &quot;Open Sans&quot;, sans-serif; font-size: 13px; fill: rgb(111, 111, 111);">varchar[64]</text></svg><svg x="624.02685546875" y="66"><rect x="0" y="0" width="213.86328125" height="33" fill="#F2F2F2"></rect><text x="10" y="19.75" style="font-family: &quot;Open Sans&quot;, sans-serif; font-size: 13px; fill: rgb(111, 111, 111);">setting_id</text><text x="127.29150390625" y="19.75" style="font-family: &quot;Open Sans&quot;, sans-serif; font-size: 13px; fill: rgb(111, 111, 111);">varchar[256]</text></svg><svg x="624.02685546875" y="99"><rect x="0" y="0" width="213.86328125" height="33" fill="#F2F2F2"></rect><text x="10" y="19.75" style="font-family: &quot;Open Sans&quot;, sans-serif; font-size: 13px; fill: rgb(111, 111, 111);">value</text><text x="119.8583984375" y="19.75" style="font-family: &quot;Open Sans&quot;, sans-serif; font-size: 13px; fill: rgb(111, 111, 111);">varchar[4096]</text></svg><svg x="624.02685546875" y="132"><rect x="0" y="0" width="213.86328125" height="33" fill="#F2F2F2"></rect><text x="10" y="19.75" style="font-family: &quot;Open Sans&quot;, sans-serif; font-size: 13px; fill: rgb(111, 111, 111);">suffix</text><text x="187.97509765625" y="19.75" style="font-family: &quot;Open Sans&quot;, sans-serif; font-size: 13px; fill: rgb(111, 111, 111);">int</text></svg><svg x="624.02685546875" y="165"><rect x="0" y="0" width="213.86328125" height="33" fill="#F2F2F2"></rect><text x="10" y="19.75" style="font-family: &quot;Open Sans&quot;, sans-serif; font-size: 13px; fill: rgb(111, 111, 111);">method</text><text x="149.95263671875" y="19.75" style="font-family: &quot;Open Sans&quot;, sans-serif; font-size: 13px; fill: rgb(111, 111, 111);">methods</text></svg><svg x="955.2958984375" y="0"><rect x="0" y="0" width="178.2783203125" height="33" fill="#316896"></rect><text x="10" y="19.75" style="font-family: &quot;Open Sans&quot;, sans-serif; font-size: 13px; font-weight: bold; fill: rgb(255, 255, 255);">bw_services</text></svg><svg x="955.2958984375" y="33"><rect x="0" y="0" width="178.2783203125" height="33" fill="#F2F2F2"></rect><text x="10" y="19.75" style="font-family: &quot;Open Sans&quot;, sans-serif; font-size: 13px; fill: rgb(111, 111, 111);">id</text><text x="99.1396484375" y="19.75" style="font-family: &quot;Open Sans&quot;, sans-serif; font-size: 13px; fill: rgb(111, 111, 111);">varchar[64]</text></svg><svg x="955.2958984375" y="66"><rect x="0" y="0" width="178.2783203125" height="33" fill="#F2F2F2"></rect><text x="10" y="19.75" style="font-family: &quot;Open Sans&quot;, sans-serif; font-size: 13px; fill: rgb(111, 111, 111);">method</text><text x="114.36767578125" y="19.75" style="font-family: &quot;Open Sans&quot;, sans-serif; font-size: 13px; fill: rgb(111, 111, 111);">methods</text></svg><svg x="0" y="149"><rect x="0" y="0" width="213.86328125" height="33" fill="#316896"></rect><text x="10" y="19.75" style="font-family: &quot;Open Sans&quot;, sans-serif; font-size: 13px; font-weight: bold; fill: rgb(255, 255, 255);">bw_global_values</text></svg><svg x="0" y="182"><rect x="0" y="0" width="213.86328125" height="33" fill="#F2F2F2"></rect><text x="10" y="19.75" style="font-family: &quot;Open Sans&quot;, sans-serif; font-size: 13px; fill: rgb(111, 111, 111);">setting_id</text><text x="127.29150390625" y="19.75" style="font-family: &quot;Open Sans&quot;, sans-serif; font-size: 13px; fill: rgb(111, 111, 111);">varchar[256]</text></svg><svg x="0" y="215"><rect x="0" y="0" width="213.86328125" height="33" fill="#F2F2F2"></rect><text x="10" y="19.75" style="font-family: &quot;Open Sans&quot;, sans-serif; font-size: 13px; fill: rgb(111, 111, 111);">value</text><text x="119.8583984375" y="19.75" style="font-family: &quot;Open Sans&quot;, sans-serif; font-size: 13px; fill: rgb(111, 111, 111);">varchar[4096]</text></svg><svg x="0" y="248"><rect x="0" y="0" width="213.86328125" height="33" fill="#F2F2F2"></rect><text x="10" y="19.75" style="font-family: &quot;Open Sans&quot;, sans-serif; font-size: 13px; fill: rgb(111, 111, 111);">suffix</text><text x="187.97509765625" y="19.75" style="font-family: &quot;Open Sans&quot;, sans-serif; font-size: 13px; fill: rgb(111, 111, 111);">int</text></svg><svg x="0" y="281"><rect x="0" y="0" width="213.86328125" height="33" fill="#F2F2F2"></rect><text x="10" y="19.75" style="font-family: &quot;Open Sans&quot;, sans-serif; font-size: 13px; fill: rgb(111, 111, 111);">method</text><text x="149.95263671875" y="19.75" style="font-family: &quot;Open Sans&quot;, sans-serif; font-size: 13px; fill: rgb(111, 111, 111);">methods</text></svg><svg x="284.251953125" y="413"><rect x="0" y="0" width="224.39404296875" height="33" fill="#316896"></rect><text x="10" y="19.75" style="font-family: &quot;Open Sans&quot;, sans-serif; font-size: 13px; font-weight: bold; fill: rgb(255, 255, 255);">bw_plugins</text></svg><svg x="284.251953125" y="446"><rect x="0" y="0" width="224.39404296875" height="33" fill="#F2F2F2"></rect><text x="10" y="19.75" style="font-family: &quot;Open Sans&quot;, sans-serif; font-size: 13px; fill: rgb(111, 111, 111);">id</text><text x="145.25537109375" y="19.75" style="font-family: &quot;Open Sans&quot;, sans-serif; font-size: 13px; fill: rgb(111, 111, 111);">varchar[64]</text></svg><svg x="284.251953125" y="479"><rect x="0" y="0" width="224.39404296875" height="33" fill="#F2F2F2"></rect><text x="10" y="19.75" style="font-family: &quot;Open Sans&quot;, sans-serif; font-size: 13px; fill: rgb(111, 111, 111);">name</text><text x="137.822265625" y="19.75" style="font-family: &quot;Open Sans&quot;, sans-serif; font-size: 13px; fill: rgb(111, 111, 111);">varchar[128]</text></svg><svg x="284.251953125" y="512"><rect x="0" y="0" width="224.39404296875" height="33" fill="#F2F2F2"></rect><text x="10" y="19.75" style="font-family: &quot;Open Sans&quot;, sans-serif; font-size: 13px; fill: rgb(111, 111, 111);">description</text><text x="137.822265625" y="19.75" style="font-family: &quot;Open Sans&quot;, sans-serif; font-size: 13px; fill: rgb(111, 111, 111);">varchar[256]</text></svg><svg x="284.251953125" y="545"><rect x="0" y="0" width="224.39404296875" height="33" fill="#F2F2F2"></rect><text x="10" y="19.75" style="font-family: &quot;Open Sans&quot;, sans-serif; font-size: 13px; fill: rgb(111, 111, 111);">version</text><text x="145.25537109375" y="19.75" style="font-family: &quot;Open Sans&quot;, sans-serif; font-size: 13px; fill: rgb(111, 111, 111);">varchar[32]</text></svg><svg x="284.251953125" y="578"><rect x="0" y="0" width="224.39404296875" height="33" fill="#F2F2F2"></rect><text x="10" y="19.75" style="font-family: &quot;Open Sans&quot;, sans-serif; font-size: 13px; fill: rgb(111, 111, 111);">stream</text><text x="145.25537109375" y="19.75" style="font-family: &quot;Open Sans&quot;, sans-serif; font-size: 13px; fill: rgb(111, 111, 111);">varchar[16]</text></svg><svg x="284.251953125" y="611"><rect x="0" y="0" width="224.39404296875" height="33" fill="#F2F2F2"></rect><text x="10" y="19.75" style="font-family: &quot;Open Sans&quot;, sans-serif; font-size: 13px; fill: rgb(111, 111, 111);">external</text><text x="165.02197265625" y="19.75" style="font-family: &quot;Open Sans&quot;, sans-serif; font-size: 13px; fill: rgb(111, 111, 111);">boolean</text></svg><svg x="284.251953125" y="644"><rect x="0" y="0" width="224.39404296875" height="33" fill="#F2F2F2"></rect><text x="10" y="19.75" style="font-family: &quot;Open Sans&quot;, sans-serif; font-size: 13px; fill: rgb(111, 111, 111);">method</text><text x="160.4833984375" y="19.75" style="font-family: &quot;Open Sans&quot;, sans-serif; font-size: 13px; fill: rgb(111, 111, 111);">methods</text></svg><svg x="284.251953125" y="677"><rect x="0" y="0" width="224.39404296875" height="33" fill="#F2F2F2"></rect><text x="10" y="19.75" style="font-family: &quot;Open Sans&quot;, sans-serif; font-size: 13px; fill: rgb(111, 111, 111);">data</text><text x="161.25146484375" y="19.75" style="font-family: &quot;Open Sans&quot;, sans-serif; font-size: 13px; fill: rgb(111, 111, 111);">longblob</text></svg><svg x="284.251953125" y="710"><rect x="0" y="0" width="224.39404296875" height="33" fill="#F2F2F2"></rect><text x="10" y="19.75" style="font-family: &quot;Open Sans&quot;, sans-serif; font-size: 13px; fill: rgb(111, 111, 111);">checksum</text><text x="137.822265625" y="19.75" style="font-family: &quot;Open Sans&quot;, sans-serif; font-size: 13px; fill: rgb(111, 111, 111);">varchar[128]</text></svg><svg x="624.02685546875" y="248"><rect x="0" y="0" width="213.86962890625" height="33" fill="#316896"></rect><text x="10" y="19.75" style="font-family: &quot;Open Sans&quot;, sans-serif; font-size: 13px; font-weight: bold; fill: rgb(255, 255, 255);">bw_jobs</text></svg><svg x="624.02685546875" y="281"><rect x="0" y="0" width="213.86962890625" height="33" fill="#F2F2F2"></rect><text x="10" y="19.75" style="font-family: &quot;Open Sans&quot;, sans-serif; font-size: 13px; fill: rgb(111, 111, 111);">name</text><text x="127.2978515625" y="19.75" style="font-family: &quot;Open Sans&quot;, sans-serif; font-size: 13px; fill: rgb(111, 111, 111);">varchar[128]</text></svg><svg x="624.02685546875" y="314"><rect x="0" y="0" width="213.86962890625" height="33" fill="#F2F2F2"></rect><text x="10" y="19.75" style="font-family: &quot;Open Sans&quot;, sans-serif; font-size: 13px; fill: rgb(111, 111, 111);">plugin_id</text><text x="134.73095703125" y="19.75" style="font-family: &quot;Open Sans&quot;, sans-serif; font-size: 13px; fill: rgb(111, 111, 111);">varchar[64]</text></svg><svg x="624.02685546875" y="347"><rect x="0" y="0" width="213.86962890625" height="33" fill="#F2F2F2"></rect><text x="10" y="19.75" style="font-family: &quot;Open Sans&quot;, sans-serif; font-size: 13px; fill: rgb(111, 111, 111);">file_name</text><text x="127.2978515625" y="19.75" style="font-family: &quot;Open Sans&quot;, sans-serif; font-size: 13px; fill: rgb(111, 111, 111);">varchar[256]</text></svg><svg x="624.02685546875" y="380"><rect x="0" y="0" width="213.86962890625" height="33" fill="#F2F2F2"></rect><text x="10" y="19.75" style="font-family: &quot;Open Sans&quot;, sans-serif; font-size: 13px; fill: rgb(111, 111, 111);">every</text><text x="143.4716796875" y="19.75" style="font-family: &quot;Open Sans&quot;, sans-serif; font-size: 13px; fill: rgb(111, 111, 111);">schedules</text></svg><svg x="624.02685546875" y="413"><rect x="0" y="0" width="213.86962890625" height="33" fill="#F2F2F2"></rect><text x="10" y="19.75" style="font-family: &quot;Open Sans&quot;, sans-serif; font-size: 13px; fill: rgb(111, 111, 111);">reload</text><text x="154.49755859375" y="19.75" style="font-family: &quot;Open Sans&quot;, sans-serif; font-size: 13px; fill: rgb(111, 111, 111);">boolean</text></svg><svg x="624.02685546875" y="446"><rect x="0" y="0" width="213.86962890625" height="33" fill="#F2F2F2"></rect><text x="10" y="19.75" style="font-family: &quot;Open Sans&quot;, sans-serif; font-size: 13px; fill: rgb(111, 111, 111);">success</text><text x="154.49755859375" y="19.75" style="font-family: &quot;Open Sans&quot;, sans-serif; font-size: 13px; fill: rgb(111, 111, 111);">boolean</text></svg><svg x="624.02685546875" y="479"><rect x="0" y="0" width="213.86962890625" height="33" fill="#F2F2F2"></rect><text x="10" y="19.75" style="font-family: &quot;Open Sans&quot;, sans-serif; font-size: 13px; fill: rgb(111, 111, 111);">last_run</text><text x="149.50830078125" y="19.75" style="font-family: &quot;Open Sans&quot;, sans-serif; font-size: 13px; fill: rgb(111, 111, 111);">datetime</text></svg><svg x="955.2958984375" y="149"><rect x="0" y="0" width="216.4658203125" height="33" fill="#316896"></rect><text x="10" y="19.75" style="font-family: &quot;Open Sans&quot;, sans-serif; font-size: 13px; font-weight: bold; fill: rgb(255, 255, 255);">bw_jobs_cache</text></svg><svg x="955.2958984375" y="182"><rect x="0" y="0" width="216.4658203125" height="33" fill="#F2F2F2"></rect><text x="10" y="19.75" style="font-family: &quot;Open Sans&quot;, sans-serif; font-size: 13px; fill: rgb(111, 111, 111);">id</text><text x="190.57763671875" y="19.75" style="font-family: &quot;Open Sans&quot;, sans-serif; font-size: 13px; fill: rgb(111, 111, 111);">int</text></svg><svg x="955.2958984375" y="215"><rect x="0" y="0" width="216.4658203125" height="33" fill="#F2F2F2"></rect><text x="10" y="19.75" style="font-family: &quot;Open Sans&quot;, sans-serif; font-size: 13px; fill: rgb(111, 111, 111);">job_name</text><text x="129.89404296875" y="19.75" style="font-family: &quot;Open Sans&quot;, sans-serif; font-size: 13px; fill: rgb(111, 111, 111);">varchar[128]</text></svg><svg x="955.2958984375" y="248"><rect x="0" y="0" width="216.4658203125" height="33" fill="#F2F2F2"></rect><text x="10" y="19.75" style="font-family: &quot;Open Sans&quot;, sans-serif; font-size: 13px; fill: rgb(111, 111, 111);">service_id</text><text x="137.3271484375" y="19.75" style="font-family: &quot;Open Sans&quot;, sans-serif; font-size: 13px; fill: rgb(111, 111, 111);">varchar[64]</text></svg><svg x="955.2958984375" y="281"><rect x="0" y="0" width="216.4658203125" height="33" fill="#F2F2F2"></rect><text x="10" y="19.75" style="font-family: &quot;Open Sans&quot;, sans-serif; font-size: 13px; fill: rgb(111, 111, 111);">file_name</text><text x="129.89404296875" y="19.75" style="font-family: &quot;Open Sans&quot;, sans-serif; font-size: 13px; fill: rgb(111, 111, 111);">varchar[256]</text></svg><svg x="955.2958984375" y="314"><rect x="0" y="0" width="216.4658203125" height="33" fill="#F2F2F2"></rect><text x="10" y="19.75" style="font-family: &quot;Open Sans&quot;, sans-serif; font-size: 13px; fill: rgb(111, 111, 111);">data</text><text x="153.3232421875" y="19.75" style="font-family: &quot;Open Sans&quot;, sans-serif; font-size: 13px; fill: rgb(111, 111, 111);">longblob</text></svg><svg x="955.2958984375" y="347"><rect x="0" y="0" width="216.4658203125" height="33" fill="#F2F2F2"></rect><text x="10" y="19.75" style="font-family: &quot;Open Sans&quot;, sans-serif; font-size: 13px; fill: rgb(111, 111, 111);">last_update</text><text x="152.1044921875" y="19.75" style="font-family: &quot;Open Sans&quot;, sans-serif; font-size: 13px; fill: rgb(111, 111, 111);">datetime</text></svg><svg x="955.2958984375" y="380"><rect x="0" y="0" width="216.4658203125" height="33" fill="#F2F2F2"></rect><text x="10" y="19.75" style="font-family: &quot;Open Sans&quot;, sans-serif; font-size: 13px; fill: rgb(111, 111, 111);">checksum</text><text x="129.89404296875" y="19.75" style="font-family: &quot;Open Sans&quot;, sans-serif; font-size: 13px; fill: rgb(111, 111, 111);">varchar[128]</text></svg><svg x="0" y="364"><rect x="0" y="0" width="234.251953125" height="33" fill="#316896"></rect><text x="10" y="19.75" style="font-family: &quot;Open Sans&quot;, sans-serif; font-size: 13px; font-weight: bold; fill: rgb(255, 255, 255);">bw_instances</text></svg><svg x="0" y="397"><rect x="0" y="0" width="234.251953125" height="33" fill="#F2F2F2"></rect><text x="10" y="19.75" style="font-family: &quot;Open Sans&quot;, sans-serif; font-size: 13px; fill: rgb(111, 111, 111);">hostname</text><text x="147.68017578125" y="19.75" style="font-family: &quot;Open Sans&quot;, sans-serif; font-size: 13px; fill: rgb(111, 111, 111);">varchar[256]</text></svg><svg x="0" y="430"><rect x="0" y="0" width="234.251953125" height="33" fill="#F2F2F2"></rect><text x="10" y="19.75" style="font-family: &quot;Open Sans&quot;, sans-serif; font-size: 13px; fill: rgb(111, 111, 111);">port</text><text x="208.36376953125" y="19.75" style="font-family: &quot;Open Sans&quot;, sans-serif; font-size: 13px; fill: rgb(111, 111, 111);">int</text></svg><svg x="0" y="463"><rect x="0" y="0" width="234.251953125" height="33" fill="#F2F2F2"></rect><text x="10" y="19.75" style="font-family: &quot;Open Sans&quot;, sans-serif; font-size: 13px; fill: rgb(111, 111, 111);">server_name</text><text x="147.68017578125" y="19.75" style="font-family: &quot;Open Sans&quot;, sans-serif; font-size: 13px; fill: rgb(111, 111, 111);">varchar[256]</text></svg><svg x="284.251953125" y="793"><rect x="0" y="0" width="289.77490234375" height="33" fill="#316896"></rect><text x="10" y="19.75" style="font-family: &quot;Open Sans&quot;, sans-serif; font-size: 13px; font-weight: bold; fill: rgb(255, 255, 255);">bw_metadata</text></svg><svg x="284.251953125" y="826"><rect x="0" y="0" width="289.77490234375" height="33" fill="#F2F2F2"></rect><text x="10" y="19.75" style="font-family: &quot;Open Sans&quot;, sans-serif; font-size: 13px; fill: rgb(111, 111, 111);">id</text><text x="263.88671875" y="19.75" style="font-family: &quot;Open Sans&quot;, sans-serif; font-size: 13px; fill: rgb(111, 111, 111);">int</text></svg><svg x="284.251953125" y="859"><rect x="0" y="0" width="289.77490234375" height="33" fill="#F2F2F2"></rect><text x="10" y="19.75" style="font-family: &quot;Open Sans&quot;, sans-serif; font-size: 13px; fill: rgb(111, 111, 111);">is_initialized</text><text x="230.40283203125" y="19.75" style="font-family: &quot;Open Sans&quot;, sans-serif; font-size: 13px; fill: rgb(111, 111, 111);">boolean</text></svg><svg x="284.251953125" y="892"><rect x="0" y="0" width="289.77490234375" height="33" fill="#F2F2F2"></rect><text x="10" y="19.75" style="font-family: &quot;Open Sans&quot;, sans-serif; font-size: 13px; fill: rgb(111, 111, 111);">first_config_saved</text><text x="230.40283203125" y="19.75" style="font-family: &quot;Open Sans&quot;, sans-serif; font-size: 13px; fill: rgb(111, 111, 111);">boolean</text></svg><svg x="284.251953125" y="925"><rect x="0" y="0" width="289.77490234375" height="33" fill="#F2F2F2"></rect><text x="10" y="19.75" style="font-family: &quot;Open Sans&quot;, sans-serif; font-size: 13px; fill: rgb(111, 111, 111);">autoconf_loaded</text><text x="230.40283203125" y="19.75" style="font-family: &quot;Open Sans&quot;, sans-serif; font-size: 13px; fill: rgb(111, 111, 111);">boolean</text></svg><svg x="284.251953125" y="958"><rect x="0" y="0" width="289.77490234375" height="33" fill="#F2F2F2"></rect><text x="10" y="19.75" style="font-family: &quot;Open Sans&quot;, sans-serif; font-size: 13px; fill: rgb(111, 111, 111);">scheduler_first_start</text><text x="230.40283203125" y="19.75" style="font-family: &quot;Open Sans&quot;, sans-serif; font-size: 13px; fill: rgb(111, 111, 111);">boolean</text></svg><svg x="284.251953125" y="991"><rect x="0" y="0" width="289.77490234375" height="33" fill="#F2F2F2"></rect><text x="10" y="19.75" style="font-family: &quot;Open Sans&quot;, sans-serif; font-size: 13px; fill: rgb(111, 111, 111);">custom_configs_changed</text><text x="230.40283203125" y="19.75" style="font-family: &quot;Open Sans&quot;, sans-serif; font-size: 13px; fill: rgb(111, 111, 111);">boolean</text></svg><svg x="284.251953125" y="1024"><rect x="0" y="0" width="289.77490234375" height="33" fill="#F2F2F2"></rect><text x="10" y="19.75" style="font-family: &quot;Open Sans&quot;, sans-serif; font-size: 13px; fill: rgb(111, 111, 111);">external_plugins_changed</text><text x="230.40283203125" y="19.75" style="font-family: &quot;Open Sans&quot;, sans-serif; font-size: 13px; fill: rgb(111, 111, 111);">boolean</text></svg><svg x="284.251953125" y="1057"><rect x="0" y="0" width="289.77490234375" height="33" fill="#F2F2F2"></rect><text x="10" y="19.75" style="font-family: &quot;Open Sans&quot;, sans-serif; font-size: 13px; fill: rgb(111, 111, 111);">config_changed</text><text x="230.40283203125" y="19.75" style="font-family: &quot;Open Sans&quot;, sans-serif; font-size: 13px; fill: rgb(111, 111, 111);">boolean</text></svg><svg x="284.251953125" y="1090"><rect x="0" y="0" width="289.77490234375" height="33" fill="#F2F2F2"></rect><text x="10" y="19.75" style="font-family: &quot;Open Sans&quot;, sans-serif; font-size: 13px; fill: rgb(111, 111, 111);">integration</text><text x="207.087890625" y="19.75" style="font-family: &quot;Open Sans&quot;, sans-serif; font-size: 13px; fill: rgb(111, 111, 111);">integrations</text></svg><svg x="284.251953125" y="1123"><rect x="0" y="0" width="289.77490234375" height="33" fill="#F2F2F2"></rect><text x="10" y="19.75" style="font-family: &quot;Open Sans&quot;, sans-serif; font-size: 13px; fill: rgb(111, 111, 111);">version</text><text x="234.00830078125" y="19.75" style="font-family: &quot;Open Sans&quot;, sans-serif; font-size: 13px; fill: rgb(111, 111, 111);">varchar</text></svg><svg x="624.02685546875" y="562"><rect x="0" y="0" width="281.26904296875" height="33" fill="#316896"></rect><text x="10" y="19.75" style="font-family: &quot;Open Sans&quot;, sans-serif; font-size: 13px; font-weight: bold; fill: rgb(255, 255, 255);">bw_plugin_pages</text></svg><svg x="624.02685546875" y="595"><rect x="0" y="0" width="281.26904296875" height="33" fill="#F2F2F2"></rect><text x="10" y="19.75" style="font-family: &quot;Open Sans&quot;, sans-serif; font-size: 13px; fill: rgb(111, 111, 111);">id</text><text x="255.380859375" y="19.75" style="font-family: &quot;Open Sans&quot;, sans-serif; font-size: 13px; fill: rgb(111, 111, 111);">int</text></svg><svg x="624.02685546875" y="628"><rect x="0" y="0" width="281.26904296875" height="33" fill="#F2F2F2"></rect><text x="10" y="19.75" style="font-family: &quot;Open Sans&quot;, sans-serif; font-size: 13px; fill: rgb(111, 111, 111);">plugin_id</text><text x="202.13037109375" y="19.75" style="font-family: &quot;Open Sans&quot;, sans-serif; font-size: 13px; fill: rgb(111, 111, 111);">varchar[64]</text></svg><svg x="624.02685546875" y="661"><rect x="0" y="0" width="281.26904296875" height="33" fill="#F2F2F2"></rect><text x="10" y="19.75" style="font-family: &quot;Open Sans&quot;, sans-serif; font-size: 13px; fill: rgb(111, 111, 111);">template_file</text><text x="218.12646484375" y="19.75" style="font-family: &quot;Open Sans&quot;, sans-serif; font-size: 13px; fill: rgb(111, 111, 111);">longblob</text></svg><svg x="624.02685546875" y="694"><rect x="0" y="0" width="281.26904296875" height="33" fill="#F2F2F2"></rect><text x="10" y="19.75" style="font-family: &quot;Open Sans&quot;, sans-serif; font-size: 13px; fill: rgb(111, 111, 111);">template_checksum</text><text x="194.697265625" y="19.75" style="font-family: &quot;Open Sans&quot;, sans-serif; font-size: 13px; fill: rgb(111, 111, 111);">varchar[128]</text></svg><svg x="624.02685546875" y="727"><rect x="0" y="0" width="281.26904296875" height="33" fill="#F2F2F2"></rect><text x="10" y="19.75" style="font-family: &quot;Open Sans&quot;, sans-serif; font-size: 13px; fill: rgb(111, 111, 111);">actions_file</text><text x="218.12646484375" y="19.75" style="font-family: &quot;Open Sans&quot;, sans-serif; font-size: 13px; fill: rgb(111, 111, 111);">longblob</text></svg><svg x="624.02685546875" y="760"><rect x="0" y="0" width="281.26904296875" height="33" fill="#F2F2F2"></rect><text x="10" y="19.75" style="font-family: &quot;Open Sans&quot;, sans-serif; font-size: 13px; fill: rgb(111, 111, 111);">actions_checksum</text><text x="194.697265625" y="19.75" style="font-family: &quot;Open Sans&quot;, sans-serif; font-size: 13px; fill: rgb(111, 111, 111);">varchar[128]</text></svg><svg x="955.2958984375" y="463"><rect x="0" y="0" width="232.8046875" height="33" fill="#316896"></rect><text x="10" y="19.75" style="font-family: &quot;Open Sans&quot;, sans-serif; font-size: 13px; font-weight: bold; fill: rgb(255, 255, 255);">bw_custom_configs</text></svg><svg x="955.2958984375" y="496"><rect x="0" y="0" width="232.8046875" height="33" fill="#F2F2F2"></rect><text x="10" y="19.75" style="font-family: &quot;Open Sans&quot;, sans-serif; font-size: 13px; fill: rgb(111, 111, 111);">id</text><text x="206.91650390625" y="19.75" style="font-family: &quot;Open Sans&quot;, sans-serif; font-size: 13px; fill: rgb(111, 111, 111);">int</text></svg><svg x="955.2958984375" y="529"><rect x="0" y="0" width="232.8046875" height="33" fill="#F2F2F2"></rect><text x="10" y="19.75" style="font-family: &quot;Open Sans&quot;, sans-serif; font-size: 13px; fill: rgb(111, 111, 111);">service_id</text><text x="153.666015625" y="19.75" style="font-family: &quot;Open Sans&quot;, sans-serif; font-size: 13px; fill: rgb(111, 111, 111);">varchar[64]</text></svg><svg x="955.2958984375" y="562"><rect x="0" y="0" width="232.8046875" height="33" fill="#F2F2F2"></rect><text x="10" y="19.75" style="font-family: &quot;Open Sans&quot;, sans-serif; font-size: 13px; fill: rgb(111, 111, 111);">type</text><text x="97.20361328125" y="19.75" style="font-family: &quot;Open Sans&quot;, sans-serif; font-size: 13px; fill: rgb(111, 111, 111);">custom_config_types</text></svg><svg x="955.2958984375" y="595"><rect x="0" y="0" width="232.8046875" height="33" fill="#F2F2F2"></rect><text x="10" y="19.75" style="font-family: &quot;Open Sans&quot;, sans-serif; font-size: 13px; fill: rgb(111, 111, 111);">name</text><text x="146.23291015625" y="19.75" style="font-family: &quot;Open Sans&quot;, sans-serif; font-size: 13px; fill: rgb(111, 111, 111);">varchar[256]</text></svg><svg x="955.2958984375" y="628"><rect x="0" y="0" width="232.8046875" height="33" fill="#F2F2F2"></rect><text x="10" y="19.75" style="font-family: &quot;Open Sans&quot;, sans-serif; font-size: 13px; fill: rgb(111, 111, 111);">data</text><text x="169.662109375" y="19.75" style="font-family: &quot;Open Sans&quot;, sans-serif; font-size: 13px; fill: rgb(111, 111, 111);">longblob</text></svg><svg x="955.2958984375" y="661"><rect x="0" y="0" width="232.8046875" height="33" fill="#F2F2F2"></rect><text x="10" y="19.75" style="font-family: &quot;Open Sans&quot;, sans-serif; font-size: 13px; fill: rgb(111, 111, 111);">checksum</text><text x="146.23291015625" y="19.75" style="font-family: &quot;Open Sans&quot;, sans-serif; font-size: 13px; fill: rgb(111, 111, 111);">varchar[128]</text></svg><svg x="955.2958984375" y="694"><rect x="0" y="0" width="232.8046875" height="33" fill="#F2F2F2"></rect><text x="10" y="19.75" style="font-family: &quot;Open Sans&quot;, sans-serif; font-size: 13px; fill: rgb(111, 111, 111);">method</text><text x="168.89404296875" y="19.75" style="font-family: &quot;Open Sans&quot;, sans-serif; font-size: 13px; fill: rgb(111, 111, 111);">methods</text></svg></svg>