<svg xmlns="http://www.w3.org/2000/svg" width="24" height="24" viewBox="0 0 24 24"><path d="M4 8h16" fill="none" stroke="#ffffff" stroke-width="2" stroke-linecap="round" stroke-linejoin="round"/><path d="M4 6a2 2 0 0 1 2 -2h12a2 2 0 0 1 2 2v12a2 2 0 0 1 -2 2h-12a2 2 0 0 1 -2 -2l0 -12" fill="none" stroke="#ffffff" stroke-width="2" stroke-linecap="round" stroke-linejoin="round"/><path d="M8 4v4" fill="none" stroke="#ffffff" stroke-width="2" stroke-linecap="round" stroke-linejoin="round"/><g transform="translate(11 11) scale(0.52)"><path d="M12 9v4" fill="none" stroke="#ffab00" stroke-width="3.6" stroke-linecap="round" stroke-linejoin="round"/><path d="M10.363 3.591l-8.106 13.534a1.914 1.914 0 0 0 1.636 2.871h16.214a1.914 1.914 0 0 0 1.636 -2.87l-8.106 -13.536a1.914 1.914 0 0 0 -3.274 0" fill="none" stroke="#ffab00" stroke-width="3.6" stroke-linecap="round" stroke-linejoin="round"/><path d="M12 16h.01" fill="none" stroke="#ffab00" stroke-width="3.6" stroke-linecap="round" stroke-linejoin="round"/></g></svg>