<svg xmlns="http://www.w3.org/2000/svg" width="24" height="24" viewBox="0 0 24 24"><path d="M14 3v4a1 1 0 0 0 1 1h4" fill="none" stroke="#0b354a" stroke-width="2" stroke-linecap="round" stroke-linejoin="round"/><path d="M17 21h-10a2 2 0 0 1 -2 -2v-14a2 2 0 0 1 2 -2h7l5 5v11a2 2 0 0 1 -2 2" fill="none" stroke="#0b354a" stroke-width="2" stroke-linecap="round" stroke-linejoin="round"/><path d="M9 9l1 0" fill="none" stroke="#0b354a" stroke-width="2" stroke-linecap="round" stroke-linejoin="round"/><path d="M9 13l6 0" fill="none" stroke="#0b354a" stroke-width="2" stroke-linecap="round" stroke-linejoin="round"/><path d="M9 17l6 0" fill="none" stroke="#0b354a" stroke-width="2" stroke-linecap="round" stroke-linejoin="round"/><g transform="translate(11 11) scale(0.52)"><path d="M5 13a2 2 0 0 1 2 -2h10a2 2 0 0 1 2 2v6a2 2 0 0 1 -2 2h-10a2 2 0 0 1 -2 -2v-6" fill="none" stroke="#0b354a" stroke-width="3.6" stroke-linecap="round" stroke-linejoin="round"/><path d="M11 16a1 1 0 1 0 2 0a1 1 0 0 0 -2 0" fill="none" stroke="#0b354a" stroke-width="3.6" stroke-linecap="round" stroke-linejoin="round"/><path d="M8 11v-4a4 4 0 1 1 8 0v4" fill="none" stroke="#0b354a" stroke-width="3.6" stroke-linecap="round" stroke-linejoin="round"/></g></svg>