<svg xmlns="http://www.w3.org/2000/svg" width="24" height="24" viewBox="0 0 24 24"><path d="M22 12L17 20.66L7 20.66L2 12L7 3.34L17 3.34Z" fill="none" stroke="#0b354a" stroke-width="1.85" stroke-linejoin="round"/><g transform="translate(5.4 5.4) scale(0.55)"><path d="M3 7h3" fill="none" stroke="#0b354a" stroke-width="2.9" stroke-linecap="round" stroke-linejoin="round"/><path d="M3 11h2" fill="none" stroke="#0b354a" stroke-width="2.9" stroke-linecap="round" stroke-linejoin="round"/><path d="M9.02 8.801l-.6 6a2 2 0 0 0 1.99 2.199h7.98a2 2 0 0 0 1.99 -1.801l.6 -6a2 2 0 0 0 -1.99 -2.199h-7.98a2 2 0 0 0 -1.99 1.801" fill="none" stroke="#0b354a" stroke-width="2.9" stroke-linecap="round" stroke-linejoin="round"/><path d="M9.8 7.5l2.982 3.28a3 3 0 0 0 4.238 .202l3.28 -2.982" fill="none" stroke="#0b354a" stroke-width="2.9" stroke-linecap="round" stroke-linejoin="round"/></g></svg>