<svg xmlns="http://www.w3.org/2000/svg" width="24" height="24" viewBox="0 0 24 24"><path d="M22 12L17 20.66L7 20.66L2 12L7 3.34L17 3.34Z" fill="none" stroke="#ffffff" stroke-width="1.85" stroke-linejoin="round"/><g transform="translate(5.4 5.4) scale(0.55)"><path d="M8 9l3 3l-3 3" fill="none" stroke="#ffffff" stroke-width="2.9" stroke-linecap="round" stroke-linejoin="round"/><path d="M13 15l3 0" fill="none" stroke="#ffffff" stroke-width="2.9" stroke-linecap="round" stroke-linejoin="round"/><path d="M3 6a2 2 0 0 1 2 -2h14a2 2 0 0 1 2 2v12a2 2 0 0 1 -2 2h-14a2 2 0 0 1 -2 -2l0 -12" fill="none" stroke="#ffffff" stroke-width="2.9" stroke-linecap="round" stroke-linejoin="round"/></g></svg>