<svg xmlns="http://www.w3.org/2000/svg" width="24" height="24" viewBox="0 0 24 24"><path d="M22 12L17 20.66L7 20.66L2 12L7 3.34L17 3.34Z" fill="none" stroke="#0b354a" stroke-width="1.85" stroke-linejoin="round"/><g transform="translate(5.4 5.4) scale(0.55)"><path d="M10.325 4.317c.426 -1.756 2.924 -1.756 3.35 0a1.724 1.724 0 0 0 2.573 1.066c1.543 -.94 3.31 .826 2.37 2.37a1.724 1.724 0 0 0 1.065 2.572c1.756 .426 1.756 2.924 0 3.35a1.724 1.724 0 0 0 -1.066 2.573c.94 1.543 -.826 3.31 -2.37 2.37a1.724 1.724 0 0 0 -2.572 1.065c-.426 1.756 -2.924 1.756 -3.35 0a1.724 1.724 0 0 0 -2.573 -1.066c-1.543 .94 -3.31 -.826 -2.37 -2.37a1.724 1.724 0 0 0 -1.065 -2.572c-1.756 -.426 -1.756 -2.924 0 -3.35a1.724 1.724 0 0 0 1.066 -2.573c-.94 -1.543 .826 -3.31 2.37 -2.37c1 .608 2.296 .07 2.572 -1.065" fill="none" stroke="#0b354a" stroke-width="2.9" stroke-linecap="round" stroke-linejoin="round"/><path d="M9 12a3 3 0 1 0 6 0a3 3 0 0 0 -6 0" fill="none" stroke="#0b354a" stroke-width="2.9" stroke-linecap="round" stroke-linejoin="round"/></g></svg>