<svg xmlns="http://www.w3.org/2000/svg" width="24" height="24" viewBox="0 0 24 24"><path d="M22 12L17 20.66L7 20.66L2 12L7 3.34L17 3.34Z" fill="none" stroke="#0b354a" stroke-width="1.85" stroke-linejoin="round"/><g transform="translate(5.4 5.4) scale(0.55)"><path d="M15.5 13a3.5 3.5 0 0 0 -3.5 3.5v1a3.5 3.5 0 0 0 7 0v-1.8" fill="none" stroke="#0b354a" stroke-width="2.9" stroke-linecap="round" stroke-linejoin="round"/><path d="M8.5 13a3.5 3.5 0 0 1 3.5 3.5v1a3.5 3.5 0 0 1 -7 0v-1.8" fill="none" stroke="#0b354a" stroke-width="2.9" stroke-linecap="round" stroke-linejoin="round"/><path d="M17.5 16a3.5 3.5 0 0 0 0 -7h-.5" fill="none" stroke="#0b354a" stroke-width="2.9" stroke-linecap="round" stroke-linejoin="round"/><path d="M19 9.3v-2.8a3.5 3.5 0 0 0 -7 0" fill="none" stroke="#0b354a" stroke-width="2.9" stroke-linecap="round" stroke-linejoin="round"/><path d="M6.5 16a3.5 3.5 0 0 1 0 -7h.5" fill="none" stroke="#0b354a" stroke-width="2.9" stroke-linecap="round" stroke-linejoin="round"/><path d="M5 9.3v-2.8a3.5 3.5 0 0 1 7 0v10" fill="none" stroke="#0b354a" stroke-width="2.9" stroke-linecap="round" stroke-linejoin="round"/></g></svg>