<svg xmlns="http://www.w3.org/2000/svg" width="24" height="24" viewBox="0 0 24 24"><path d="M22 12L17 20.66L7 20.66L2 12L7 3.34L17 3.34Z" fill="none" stroke="#ffffff" stroke-width="1.85" stroke-linejoin="round"/><g transform="translate(5.4 5.4) scale(0.55)"><path d="M5 4h4a1 1 0 0 1 1 1v6a1 1 0 0 1 -1 1h-4a1 1 0 0 1 -1 -1v-6a1 1 0 0 1 1 -1" fill="none" stroke="#ffffff" stroke-width="2.9" stroke-linecap="round" stroke-linejoin="round"/><path d="M5 16h4a1 1 0 0 1 1 1v2a1 1 0 0 1 -1 1h-4a1 1 0 0 1 -1 -1v-2a1 1 0 0 1 1 -1" fill="none" stroke="#ffffff" stroke-width="2.9" stroke-linecap="round" stroke-linejoin="round"/><path d="M15 12h4a1 1 0 0 1 1 1v6a1 1 0 0 1 -1 1h-4a1 1 0 0 1 -1 -1v-6a1 1 0 0 1 1 -1" fill="none" stroke="#ffffff" stroke-width="2.9" stroke-linecap="round" stroke-linejoin="round"/><path d="M15 4h4a1 1 0 0 1 1 1v2a1 1 0 0 1 -1 1h-4a1 1 0 0 1 -1 -1v-2a1 1 0 0 1 1 -1" fill="none" stroke="#ffffff" stroke-width="2.9" stroke-linecap="round" stroke-linejoin="round"/></g></svg>