<?xml version="1.0" encoding="UTF-8"?>
<svg xmlns="http://www.w3.org/2000/svg" version="1.1" viewBox="0 0 800 800">
  <!-- Generator: Adobe Illustrator 28.7.1, SVG Export Plug-In . SVG Version: 1.2.0 Build 142)  -->
  <g>
    <g id="Calque_1">
      <path d="M703.5,721.3c-1.5.2-2.8.5-4,.5-25.2,0-50.4,0-75.7,0-33.2,0-66.4,0-99.6,0-2.9,0-4.8-.7-6.6-3.2-12.7-18.7-25.5-37.3-38.3-56-10-14.5-20-28.9-29.9-43.4-11.8-17.1-23.5-34.3-35.3-51.4-12.2-17.7-24.4-35.4-36.6-53.1-8.2-12-16.4-24-24.7-36-.5-.7-1-1.3-1.7-2.2-3.5,4.1-6.9,7.9-10.2,11.8-16.2,18.8-32.4,37.6-48.6,56.4-16.3,19-32.5,38-48.8,56.9-16.6,19.4-33.4,38.6-50,58-16.1,18.7-32.2,37.5-48.3,56.2-.2.2-.4.4-.5.6-2.8,5.1-7.4,5.6-12.8,5.5-13.9-.3-27.9,0-41.8-.1-1.3,0-2.5-.4-4.3-.7,6.1-7.1,11.7-13.6,17.3-20.1,12.9-15,25.8-30,38.7-44.9,10.6-12.3,21.3-24.7,31.9-37,13.7-16,27.4-32,41.1-47.9,13.7-15.9,27.4-31.7,41-47.6,11.9-13.9,23.8-27.8,35.8-41.7,11.2-13,22.4-26.1,33.7-39.1,1.2-1.4,1.1-2.4.1-3.8-11.7-16.9-23.4-33.9-35-50.8-9.2-13.3-18.3-26.7-27.5-40.1-10.9-15.8-21.8-31.7-32.6-47.5-10.4-15.1-20.7-30.2-31.1-45.2-13.7-20-27.4-40-41.1-60-15.9-23.2-31.9-46.5-47.9-69.7-7.4-10.7-14.7-21.4-22.1-32.1-.6-.8-1.2-1.6-2.3-3,1.6-.3,2.9-.8,4.2-.8,17.1,0,34.1,0,51.2,0,41.3,0,82.5,0,123.8,0,3.1,0,5,1,6.8,3.5,9.3,13.7,18.7,27.4,28,41,12.2,17.7,24.4,35.4,36.6,53.2,12.6,18.3,25.2,36.7,37.8,55,17.9,26,35.8,52.1,53.7,78.1.3.4.7.8,1.2,1.4,3.6-4.1,7.1-8.1,10.5-12.1,12.2-14.2,24.5-28.4,36.7-42.6,10.7-12.4,21.3-24.9,32-37.3,16.9-19.7,33.8-39.4,50.8-59.1,17-19.8,34-39.6,51.1-59.3,5.5-6.4,11-12.8,16.4-19.2,1.5-1.7,3.1-2.6,5.4-2.5,15.7,0,31.4,0,47,0,1.1,0,2.2.3,4,.6-3.5,4-6.4,7.5-9.4,10.9-9.9,11.5-19.8,23-29.7,34.6-11.2,13-22.3,25.9-33.5,38.9-20,23.3-40.1,46.6-60.1,70-16,18.7-32.1,37.4-48.2,56-15.7,18.2-31.4,36.5-47.1,54.7-1.3,1.5-1.6,2.6-.3,4.5,10.5,15,20.8,30.1,31.2,45.2,8.6,12.5,17.1,24.9,25.6,37.4,9.5,13.9,19.1,27.8,28.6,41.7,9.1,13.2,18.1,26.4,27.1,39.6,13.7,19.9,27.4,39.8,41.1,59.7,7.5,10.9,14.9,21.8,22.3,32.6,9.6,14,19.2,27.9,28.8,41.9,11.2,16.3,22.4,32.6,33.6,48.9,3.2,4.6,6.3,9.2,10,14.5ZM160.8,131.9c3.4,4.9,6.3,9.1,9.3,13.4,12.8,18.3,25.7,36.5,38.4,54.8,14,20,27.9,40.1,41.9,60.2,12.7,18.2,25.5,36.3,38.2,54.4,9.7,13.9,19.2,27.8,28.9,41.7,10.8,15.4,21.6,30.7,32.4,46,16.1,23.1,32.2,46.3,48.3,69.4,13.4,19.1,26.8,38.2,40.2,57.3,13.1,18.8,26.1,37.6,39.2,56.3,11.1,15.9,22.3,31.8,33.4,47.7,11,15.7,22,31.5,33.1,47.2.5.7,1.6,1.3,2.4,1.3,24.7,0,49.5,0,74.2,0,2.3,0,4.6,0,7.3,0-.6-1-.9-1.4-1.2-1.9-4.7-6.8-9.5-13.7-14.3-20.5-9.5-13.6-19-27.1-28.5-40.7-8.2-11.8-16.5-23.5-24.7-35.3-11.1-15.9-22.1-31.9-33.3-47.8-14.9-21.3-29.8-42.5-44.7-63.8-15.5-22.2-31-44.4-46.5-66.6-10.5-15-21-30-31.5-45-11.4-16.4-22.8-32.7-34.2-49.1-9.7-13.8-19.4-27.6-29-41.4-11.2-16-22.3-32-33.5-48-9.1-13-18.3-26-27.4-39.1-11.3-16.2-22.6-32.4-33.8-48.6-1.1-1.5-2.3-2.1-4.1-2.1-13.3,0-26.6,0-39.9,0-13.3,0-26.6,0-40.7,0Z"/>
    </g>
  </g>
</svg>